<svg height="1000" viewBox="0 0 1000 1000" width="1000" xmlns="http://www.w3.org/2000/svg"><path d="m192.287026 964.204907c-.613644 1.261192-2.131862 1.784245-3.390931 1.175646-1.259069-.613487-1.7847-2.131317-1.171057-3.390066.608754-1.261192 2.129417-1.786689 3.388486-1.178091 1.261514.615932 1.7847 2.133762 1.173502 3.392511zm28.72634-15.490916c-.613644 1.261192-2.131861 1.784245-3.390931 1.175646-1.259069-.613487-1.7847-2.131317-1.171056-3.390066.608753-1.261192 2.129416-1.786689 3.388485-1.178091 1.261514.615932 1.784701 2.133762 1.173502 3.392511zm28.878895-17.109202c-.613643 1.261192-2.131861 1.784245-3.39093 1.175646-1.25907-.613487-1.784701-2.131317-1.171057-3.390066.608754-1.261192 2.129416-1.786689 3.388486-1.178091 1.261514.615932 1.7847 2.133762 1.173501 3.392511zm29.797161-16.803681c-.613644 1.261193-2.131861 1.784246-3.390931 1.175647-1.259069-.613487-1.7847-2.131318-1.171057-3.390066.608754-1.261193 2.129417-1.78669 3.388486-1.178091 1.261514.615931 1.7847 2.133762 1.173502 3.39251zm28.420741-18.636809c-.613644 1.261192-2.131862 1.784245-3.390931 1.175646-1.259069-.613487-1.7847-2.131317-1.171057-3.390066.608754-1.261192 2.129417-1.786689 3.388486-1.178091 1.261514.615932 1.7847 2.133762 1.173502 3.392511zm-303.29172277-15.714069c-.61364352 1.261193-2.13186117 1.784245-3.39093055 1.175647-1.25906938-.613488-1.78470028-2.131318-1.17105676-3.390067.60875393-1.261192 2.12941637-1.786689 3.38848575-1.17809 1.26151418.615931 1.78470029 2.133762 1.17350156 3.39251zm331.71246277-3.992066c-.613643 1.261193-2.131861 1.784246-3.39093 1.175647-1.259069-.613487-1.7847-2.131318-1.171057-3.390066.608754-1.261193 2.129417-1.78669 3.388486-1.178091 1.261514.615931 1.7847 2.133762 1.173501 3.39251zm-318.8499078-18.532932c-.6136435 1.261193-2.1318611 1.784246-3.3909305 1.175647-1.2590694-.613487-1.7847003-2.131318-1.1710568-3.390066.608754-1.261193 2.1294164-1.78669 3.3884858-1.178091 1.2615141.615931 1.7847003 2.133762 1.1735015 3.39251zm348.3610278-1.027774c-.71877 1.478724-2.498581 2.092211-3.980126 1.378513-1.476656-.718587-2.092745-2.497944-1.373975-3.976668.716325-1.481168 2.501025-2.097099 3.975237-1.380957 1.481545.721031 2.095189 2.502832 1.378864 3.979112zm27.706861-20.77546c-.71877 1.478724-2.498581 2.092211-3.980127 1.378513-1.476656-.718586-2.092744-2.497943-1.373974-3.976667.716325-1.481168 2.501025-2.0971 3.975236-1.380957 1.481546.72103 2.09519 2.502832 1.378865 3.979111zm-361.8467612-2.349826c-.7187697 1.478724-2.4985804 2.092211-3.9801262 1.378513-1.4766561-.718587-2.0927444-2.497944-1.3739747-3.976668.7163249-1.481168 2.5010252-2.097099 3.9752365-1.380957 1.4815458.721031 2.0951893 2.502832 1.3788644 3.979112zm388.3312242-18.222523c-.71877 1.478724-2.49858 2.092211-3.980126 1.378513-1.476656-.718586-2.092745-2.497943-1.373975-3.976667.716325-1.481168 2.501025-2.097099 3.975237-1.380957 1.481545.72103 2.095189 2.502832 1.378864 3.979111zm212.041952-779.9667258.085568-1.2171975c33.796845 2.3537373 67.59369 4.7074747 101.39298 7.0612121l-.085568 1.2196417v-.0024442l.635647-1.0412172c30.21522 18.3557297 60.43044 36.7114593 90.648105 55.0671889l-.635646 1.0412172 1.00481-.6917006 55.751104 80.7700984c1.464432-.640373 3.190457-.659926 4.738012.090435 2.811514 1.37118 3.985016 4.761246 2.62082 7.567155-.916798 1.886901-2.740615 3.033217-4.691561 3.172535l-5.525237 82.664332c.330048.090434.65765.212643.975474.366626 2.811514 1.37118 3.985015 4.761246 2.62082 7.567155-1.369085 2.815686-4.755126 3.981556-7.569085 2.620152-.085568-.04155-.171136-.085546-.254259-.131985l-32.327523 48.873658c1.682019 1.662037 2.20765 4.269968 1.119716 6.506385-1.369085 2.815686-4.755126 3.981556-7.569085 2.620152-.726104-.351961-1.344637-.840795-1.836041-1.417619l-24.533517 5.450503c.149132 1.072991-.007334 2.19731-.515852 3.240971-1.369085 2.815686-4.755126 3.981556-7.569085 2.620152-2.02918-.985001-3.205126-3.02344-3.183123-5.140093l-37.644952-3.336294c-.029337.065992-.058675.129541-.090457.193089-1.369086 2.815686-4.755126 3.981556-7.569085 2.620152-2.210095-1.072991-3.4056-3.394954-3.151341-5.707141l-8.894164-5.012996-.019558.041551c-1.14172 2.348849-3.970347 3.32163-6.31735 2.187534-2.183202-1.058326-3.178234-3.578268-2.388565-5.814685l-9.471136-2.732584c-1.237066 2.109321-3.906782 2.937895-6.141324 1.857571-2.347003-1.138984-3.322477-3.964447-2.183202-6.310852.024448-.051327.051341-.105099.078233-.153982l-1.684463-1.544717c-1.334858.82613-3.051104.97278-4.566877.241973-.870347-.425286-1.552445-1.080324-2.009622-1.85757-.618533.659926-1.410646 1.116986-2.266325 1.336962l-8.952839 21.870448c1.686909 1.349183 2.280994 3.73225 1.300631 5.75358-.970583 1.996889-3.158675 2.998999-5.234306 2.559048l-39.187617 71.382035c1.439984 1.383401 1.897161 3.588044.982807 5.477389-1.048817 2.15576-3.520504 3.152982-5.735489 2.422174l-35.302838 53.759557c1.748028 1.339406 2.373896 3.764025 1.378864 5.817129-1.141719 2.348849-3.970347 3.321629-6.31735 2.187534-.422949-.205311-.801893-.464393-1.129495-.76747l-39.757255 34.604583c.955915 1.361404 1.161278 3.184756.386278 4.7808-1.14172 2.348849-3.970347 3.321629-6.317351 2.187534-.11246-.053772-.222476-.112432-.330047-.175981l-29.427996 37.606026c1.083044 1.378513 1.351971 3.30452.537855 4.983666-.946136 1.948005-3.051104 2.947672-5.080284 2.588378l-26.107965 59.540023c.877681 1.344295 1.046372 3.101654.298265 4.646371-.696767 1.432285-2.016956 2.351293-3.474054 2.59571l-2.056072 4.69281c.660094-.173536 1.383754-.122209 2.046293.200422 1.481546.721031 2.095189 2.502832 1.378865 3.979112-.71877 1.478724-2.498581 2.092211-3.980127 1.378512-.58675-.285968-1.039037-.740584-1.322634-1.275857l-30.303233 69.10089c2.024291 1.266814 2.806625 3.879144 1.745584 6.069122-.936357 1.922586-2.999763 2.92323-5.00694 2.600843l-11.299842 33.11755c2.310331 1.158781 3.268691 3.963468 2.139195 6.290809-.557413 1.147294-1.518217 1.966336-2.628154 2.37158l2.288328 34.000872c.168691.058905.334937.128075.498738.207755 2.347003 1.143872 3.324921 3.971779 2.188092 6.31574-1.14172 2.348849-3.970347 3.321629-6.317351 2.187533-2.273659-1.103299-3.258911-3.788466-2.283438-6.088187l-12.761829-12.930402c-1.307966.740829-2.945978.846662-4.398186.144207-2.347004-1.138984-3.322477-3.964447-2.183202-6.310852.608754-1.260948 1.706467-2.126674 2.953312-2.483034l-.498738-31.881043c-.559858-.047416-1.122161-.196511-1.660016-.455838-2.347003-1.138984-3.322476-3.964446-2.183202-6.310851.943691-1.948005 3.048659-2.953293 5.075394-2.594244l9.458912-26.716997c-1.61112-1.361403-2.161199-3.688255-1.19795-5.670478.378944-.782135.943691-1.412731 1.61601-1.862459l-2.505915-4.084211c-1.273738.640373-2.821293.703922-4.200158.036663-2.347003-1.138984-3.322476-3.964447-2.183201-6.310852 1.063485-2.19731 3.603627-3.194532 5.843059-2.390399l2.611041-5.51894c-1.124605-1.380957-1.413091-3.341183-.58675-5.047215.689432-1.420064 1.992507-2.339072 3.434936-2.593266l10.551735-40.563474c-1.985173-1.273413-2.745504-3.856903-1.689353-6.032216 1.024369-2.114208 3.410489-3.116319 5.586356-2.473501l17.969243-21.987769c-1.105047-1.378513-1.386199-3.326518-.562303-5.022773.83612-1.725585 2.584148-2.710587 4.381073-2.664147l1.655126-14.589261c-1.699133-1.344295-2.298107-3.734695-1.31041-5.765801.95347-1.967559 3.092665-2.974557 5.138959-2.581046l24.095898-29.850669c-1.18817-1.383401-1.513328-3.397399-.664984-5.144982.464511-.955671 1.207729-1.686478 2.08541-2.13865l-.816561-4.250414c-.598975-.036663-1.19795-.188202-1.772477-.464393-2.347003-1.138984-3.322476-3.964447-2.183202-6.310851 1.139275-2.351294 3.967903-3.328962 6.312461-2.192422.30071.14665.579416.320186.833675.518164l8.429653-5.880677c.068454-.227308.156467-.449728.264038-.669703.254258-.525497.594085-.982557.995031-1.363848l-.845899-2.862125c-.735883.021997-1.48399-.129541-2.190536-.469281-.664984-.322631-1.219953-.782135-1.647792-1.327185l-42.292507 43.230065c.545189 1.229418.567192 2.681256-.066009 3.984-.349606.72103-.858123 1.310076-1.464433 1.752471l.440063.911676c.425395.073325.848344.20531 1.256625.403288 2.347003 1.143873 3.324921 3.971779 2.188091 6.31574-1.141719 2.348849-3.970346 3.321629-6.31735 2.187534-.721214-.349517-1.312854-.857905-1.752918-1.461615l-12.678706 7.831126c.107571.564604.114905 1.151205.012224 1.72803 1.0097-.520609 2.244322-.574381 3.344479-.041551 1.858045.904343 2.6306 3.14076 1.730915 4.995887-.904574 1.85757-3.139116 2.627484-4.997161 1.730473-.044006-.019553-.085567-.041551-.127129-.065992l-17.531624 12.250188c.266482.733252.35205 1.532496.232255 2.321963l2.466798 1.080324c1.021925-.54505 2.280994-.611043 3.398265-.068436 1.858044.904343 2.6306 3.14076 1.730915 4.995887-.904574 1.85757-3.139117 2.627484-4.997161 1.730473-.249369-.122208-.479179-.266415-.686987-.430174l-17.783438 11.839568c.105126.496167.134463 1.009443.075788 1.525163l2.26877 1.141428c1.095268-1.092545 2.80418-1.42984 4.268612-.716142 1.858044.904343 2.630599 3.14076 1.730915 4.995887-.904574 1.85757-3.139117 2.627484-4.997161 1.730473-.325158-.158871-.618533-.359293-.872792-.591489l-22.181624 11.851788c.024448.156427.041561.312854.051341.471726l2.943533.728363c.938801-1.764692 3.114668-2.47839 4.923817-1.600933 1.858044.904344 2.630599 3.140761 1.730914 4.995887-.863012 1.772025-2.933753 2.55416-4.733122 1.84535l-17.064669 15.943332c.684543 1.290523.767666 2.87679.083123 4.287077-1.0097 2.075102-3.332255 3.074768-5.478785 2.497944l-12.754495 22.031764c1.381309 1.388289 1.806703 3.546493.904574 5.401619-1.14172 2.348849-3.970347 3.32163-6.31735 2.187534-.794559-.386179-1.430205-.965448-1.882492-1.654704l-14.487855 4.805241c.481624 1.1952.47429 2.578601-.129574 3.827573-1.141719 2.348849-3.970347 3.32163-6.31735 2.187534-2.347003-1.138984-3.322477-3.964447-2.183202-6.310852 1.112382-2.297521 3.838328-3.284966 6.151104-2.268191l16.732176-23.226964c-.672318-1.28319-.745662-2.857237-.066009-4.260191.816561-1.68159 2.496135-2.659259 4.244164-2.664147l26.142192-50.115297c-1.391089-1.383401-1.818928-3.546493-.914354-5.411396 1.107493-2.285301 3.811436-3.272746 6.116877-2.280413l28.151814-31.718016c-.498738-1.204977-.501183-2.610375.114905-3.878901.894795-1.847793 2.835962-2.84746 4.764905-2.637261l4.566877-6.939003c-.312933-.266415-.584306-.571937-.811672-.9019l-33.960646 8.368844c-.06112.510832-.205363 1.01922-.442508 1.508054-1.141719 2.348849-3.970347 3.32163-6.31735 2.187534-1.37153-.664815-2.276104-1.906454-2.5597-3.292299l-41.835331-4.609708c-.05623.188201-.129574.373958-.217586.557271-.904574 1.85757-3.139117 2.627484-4.997161 1.730473-1.855599-.901899-2.628155-3.135872-1.726025-4.993442.110015-.227308.23959-.437507.386277-.630597l-11.79369-14.462164c-.843455.229752-1.770032.168648-2.618376-.241973-1.855599-.901899-2.628154-3.135872-1.726025-4.993443.899685-1.860014 3.139117-2.632373 4.992271-1.732917 1.439984.701477 2.227208 2.202198 2.0903 3.705364l12.514905 5.06188c.171136-.149095.352051-.28108.545189-.395956-.026892-.012221-.05134-.024442-.075788-.036663-1.449764-.706365-2.053628-2.44906-1.347082-3.898454.701656-1.451838 2.449684-2.055548 3.894558-1.354071 1.452208.706366 2.056073 2.453949 1.351972 3.900898-.198029.408177-.47918.750361-.814117 1.014331.18336.056216.366719.127097.545189.212643.799448.388624 1.395978 1.024108 1.748029 1.769581l40.537144 1.410287c.024448-.488835.146688-.980113.371609-1.44695.899684-1.860015 3.139117-2.632373 4.992271-1.732918.229811.112432.440063.241973.635647.391068l4.456861-6.89012c-1.105047-1.092545-1.447319-2.810798-.728549-4.287077.899685-1.860015 3.139117-2.632373 4.992271-1.732918 1.219953.591489 1.970505 1.759803 2.0903 3.016108l6.960331 2.028662c.929022-1.393178 2.513249-2.160648 4.126814-2.092211l.205363-1.344294c-1.779811-.933674-2.505915-3.118763-1.620899-4.942115.899684-1.860015 3.139116-2.632373 4.992271-1.732918.757886.371514 1.337303.963004 1.694243 1.662037l3.5694-.5035c.078234-.337295.195584-.667259.352051-.992333.951025-1.965115 3.085331-2.969669 5.129179-2.58349l5.302761-7.158979c-.471846-.989889-.506073-2.180201.012224-3.24586.899684-1.860015 3.139116-2.632373 4.992271-1.732918 1.217508.593934 1.96806 1.75736 2.087855 3.01122l2.813959 1.363848c1.376419-1.080324 3.302917-1.349183 4.980047-.537718l.063564.034218 10.774212-7.017217c-.420505-1.158537-.391168-2.480834.190694-3.678478.933911-1.928452 3.007097-2.933006 5.014274-2.605487l20.348028-47.873992c-.12224-.046439-.244479-.100211-.364274-.156427-2.347003-1.138984-3.322477-3.964446-2.183202-6.310851.711435-1.468947 2.08052-2.400177 3.57918-2.617708l-1.239511-12.619259c-.051341-.021997-.102682-.046439-.156467-.070881-2.347003-1.138984-3.322477-3.964446-2.183202-6.310851.855678-1.764692 2.659937-2.754582 4.498422-2.659259l9.681388-16.48105c-.872792-1.34185-1.041482-3.096765-.29093-4.641482.29093-.596378.686987-1.104765 1.158832-1.512942l-1.400867-2.708142c-.77011.039106-1.559779-.107544-2.300552-.466837-2.347003-1.138984-3.322476-3.964447-2.183202-6.310852 1.021924-2.10932 3.403155-3.113874 5.574133-2.475946l7.891798-15.456942c-1.540221-1.368736-2.048739-3.64426-1.105048-5.58982.616089-1.27097 1.726025-2.141095 2.98754-2.493055l-.041562-4.551048c-.315378-.078214-.628312-.190646-.931467-.337296-2.347003-1.138984-3.322476-3.964446-2.183202-6.310851.623423-1.285635 1.750474-2.160648 3.029101-2.502832l-.058675-6.469723c-.207807-.065992-.415615-.14665-.618533-.246861-2.347003-1.138984-3.322476-3.964447-2.183202-6.310851 1.107492-2.282857 3.806546-3.270302 6.109543-2.285301l3.997239-6.951224c-1.999842-1.27097-2.767507-3.86668-1.708911-6.046881.227366-.469281.520741-.882346.865457-1.236751-.163801-.051328-.327602-.11732-.486514-.195534-1.855599-.901899-2.628155-3.135872-1.726025-4.993443.899684-1.860014 3.139116-2.632373 4.992271-1.732917.12224.061104.242035.127097.354495.200422l9.693612-11.514493c-.06112-.080658-.12224-.16376-.17847-.249306l-3.058438 1.398066c.070899.669704-.039117 1.366292-.354496 2.016442-.904574 1.857571-3.139116 2.627485-4.99716 1.730474-1.8556-.9019-2.628155-3.135873-1.726026-4.993443.606309-1.25386 1.823817-2.013998 3.122003-2.099544l.136909-3.008775c-.486514-.063548-.973028-.207755-1.442429-.432618-2.347003-1.138984-3.322476-3.964447-2.183202-6.310852 1.139274-2.351293 3.967902-3.328962 6.312461-2.192422.481624.234641.902129.537718 1.261514.894567l15.482886-11.526714c-.022003-.114876-.041562-.232196-.05623-.347072l-5.405442.405732c-.999921 1.598489-3.065773 2.216864-4.801577 1.378513-1.855599-.901899-2.628155-3.135872-1.726025-4.993443.899684-1.860014 3.139116-2.632373 4.992271-1.732917.215142.102655.41317.224863.59653.361737l14.600315-14.804348c-.843454-1.336962-.995031-3.064991-.254259-4.590155 1.139275-2.351293 3.967903-3.328962 6.312461-2.192422.488959.237085.919243.549939 1.283517.916565l34.109779-21.520932-6.706073.882346c-.041561.109987-.090457.217531-.141798.325075-1.141719 2.348849-3.970347 3.321629-6.31735 2.187533-2.329889-1.129207-3.307807-3.920451-2.210094-6.254635l-2.422792-2.813242c-1.112382.351961-2.354338.293301-3.486278-.25175-2.347003-1.138984-3.322476-3.964446-2.183202-6.310851l.002445-.007332-3.410489-3.959559c-1.207728.5035-2.618375.505944-3.887224-.107543-.440063-.212643-.83123-.48639-1.171056-.804133-1.496215.70881-3.290694.755249-4.899369-.021997-2.811515-1.363848-3.982571-4.749026-2.613486-7.559823.623423-1.285635 1.664905-2.226641 2.882413-2.742361l-37.341797-43.318055c-1.645347 1.833128-4.361515 2.434395-6.688959 1.310076-2.811514-1.363848-3.982571-4.749026-2.613486-7.559824.809227-1.671813 2.327445-2.761914 4.016798-3.089433l-4.207492-24.336617c-.95347.065992-1.936278-.109988-2.857965-.554827-2.811514-1.363848-3.982571-4.749026-2.613486-7.559824 1.364195-2.81813 4.752681-3.986444 7.561751-2.627484.061119.02933.122239.061104.180914.092878l33.496136-53.593353 1.036593.6477056-.598975-1.0656589 83.805125-47.1578492zm-585.093208 771.9144028c-.7187697 1.478724-2.4985804 2.092211-3.9801261 1.378513-1.4766562-.718587-2.0927445-2.497944-1.3739748-3.976668.7163249-1.481168 2.5010252-2.097099 3.9752365-1.380957 1.4815458.721031 2.0951893 2.502832 1.3788644 3.979112zm394.770814-35.400895-11.082255 16.733044c1.576892 1.368248 2.107413 3.670413 1.156388 5.633083-.056231.112432-.114906.221931-.176026.328008l12.534464 12.702849c.574527-.429685 1.237066-.722008 1.936277-.858149l-.772555-11.471964c-.750552.2977-1.618454.291834-2.403233-.086035-1.476656-.718586-2.092745-2.497943-1.373975-3.976667.625868-1.291256 2.060962-1.92503 3.39582-1.591645l-1.107492-16.47665c-.425394-.07357-.848344-.207022-1.25418-.403778-.308044-.149827-.594085-.328741-.853233-.532096zm-154.84842 32.269422c-.508518 1.046105-1.767587 1.478724-2.811514.97278-1.043928-.508388-1.479101-1.764692-.970584-2.808353.506072-1.046106 1.767587-1.481168 2.809069-.975225 1.043928.508388 1.481546 1.767137.973029 2.810798zm30.27634-14.26883c-.613644 1.261192-2.131861 1.784245-3.390931 1.175646-1.259069-.613487-1.7847-2.131317-1.171056-3.390066.608754-1.261192 2.129416-1.786689 3.388485-1.178091 1.261514.615932 1.784701 2.133762 1.173502 3.392511zm113.098657-36.465087c-.493848.854482-1.219952 1.501944-2.060962 1.900344l.506073 32.282131c.308044.07748.616088.187957.914353.332407l.012224.007088 11.228943-16.952775c-1.017035-1.368736-1.25418-3.243171-.457176-4.883455.398501-.823686 1.00481-1.478724 1.72358-1.932851zm-368.0174228 25.349238c-.7187697 1.478724-2.4985804 2.092211-3.9801261 1.378513-1.4766562-.718586-2.0927445-2.497943-1.3739748-3.976667.7163249-1.481168 2.5010252-2.0971 3.9752366-1.380957 1.4815457.72103 2.0951892 2.502831 1.3788643 3.979111zm432.0588258 1.01091c-.268927.552382-.933911.782135-1.48888.513276-.552524-.266415-.782334-.933674-.513407-1.486057.268928-.554827.933912-.784579 1.48888-.51572.550079.268859.782335.933674.513407 1.488501zm-274.341928-4.783244c-.508517 1.046105-1.767586 1.478723-2.811514.97278-1.043927-.508388-1.479101-1.764692-.970583-2.808353.506072-1.046106 1.767586-1.481168 2.809069-.975225 1.043927.508388 1.481546 1.767136.973028 2.810798zm127.150606-1.915498c-.613644 1.261193-2.131862 1.784246-3.390931 1.175647-1.259069-.613487-1.7847-2.131318-1.171057-3.390066.608754-1.261193 2.129417-1.78669 3.388486-1.178091 1.261514.615931 1.7847 2.133762 1.173502 3.39251zm126.232095-1.867836c-.718769 1.478724-2.49858 2.092211-3.980126 1.378513-1.476656-.718586-2.092744-2.497944-1.373974-3.976667.716324-1.481168 2.501025-2.0971 3.975236-1.380957 1.481546.72103 2.095189 2.502831 1.378864 3.979111zm47.289668-5.913429c-.268927.552383-.933911.782135-1.48888.513276-.552523-.266415-.782334-.933673-.513407-1.486056.268928-.554827.933912-.784579 1.48888-.51572.550079.268858.782335.933673.513407 1.4885zm-66.051024-37.054376-24.775551 19.795835c.94858 1.146072 1.317744 2.698366.94369 4.173179l12.595584 11.411593c.327602-.094345.662539-.153738 1.00481-.176224l11.475868-33.634736c-.530521-.43433-.951025-.972536-1.244401-1.569647zm-79.98391 27.291865c-.613644 1.261193-2.131861 1.784246-3.390931 1.175647-1.259069-.613487-1.7847-2.131318-1.171057-3.390066.608754-1.261193 2.129417-1.78669 3.388486-1.178091 1.261514.615931 1.784701 2.133762 1.173502 3.39251zm-137.371071-2.72574c-.508517 1.046106-1.767586 1.478724-2.811514.97278-1.043927-.508387-1.479101-1.764692-.970583-2.808353.506072-1.046105 1.767586-1.481168 2.809069-.975224 1.043927.508387 1.481546 1.767136.973028 2.810797zm-160.008893-2.150627c-.7187697 1.478724-2.4985804 2.092211-3.9801261 1.378513-1.4766561-.718586-2.0927444-2.497943-1.3739747-3.976667.7163249-1.481168 2.5010252-2.097099 3.9752365-1.380957 1.4815457.72103 2.0951893 2.502832 1.3788643 3.979111zm467.327437-1.70652c-.268927.552383-.933911.782135-1.48888.513276-.552523-.266415-.782334-.933674-.513407-1.486057.268928-.554827.933912-.784579 1.488881-.51572.550078.268859.782334.933674.513406 1.488501zm-46.272633-1.323519c-.71877 1.478724-2.49858 2.092211-3.980126 1.378513-1.476656-.718587-2.092744-2.497944-1.373975-3.976668.716325-1.481168 2.501025-2.097099 3.975237-1.380957 1.481546.721031 2.095189 2.502832 1.378864 3.979112zm-54.614273-29.299998c-.990142 1.818464-3.019322 2.742117-4.980048 2.395289l-9.214432 26.024562 24.709542-19.74353c-.176025-.954449-.058675-1.971224.398502-2.911008.161356-.336807.359385-.645262.586751-.923164zm-42.473423 18.264074c-.613643 1.261192-2.131861 1.784245-3.39093 1.175646-1.259069-.613487-1.7847-2.131318-1.171057-3.390066.608754-1.261193 2.129417-1.78669 3.388486-1.178091 1.261514.615931 1.7847 2.133762 1.173501 3.392511zm165.057884-3.298655c-.268927.552383-.933911.782135-1.48888.513276-.552523-.266414-.782334-.933673-.513407-1.486056.268928-.554827.933912-.784579 1.48888-.51572.550079.268859.782335.933673.513407 1.4885zm-313.430042-2.32954c-.508517 1.046106-1.767587 1.478724-2.811514.972781-1.043928-.508388-1.479101-1.764692-.970584-2.808354.506073-1.046105 1.767587-1.481168 2.80907-.975224 1.043927.508388 1.481545 1.767136.973028 2.810797zm269.494633-5.605463c-.71877 1.478724-2.49858 2.092211-3.980126 1.378513-1.476656-.718587-2.092745-2.497944-1.373975-3.976668.716325-1.481168 2.501025-2.098077 3.975237-1.380957 1.481545.721031 2.095189 2.502832 1.378864 3.979112zm-428.7913577-3.724918c-.7187697 1.478724-2.4985804 2.092211-3.9801261 1.378513-1.4766561-.718586-2.0927444-2.498921-1.3739747-3.977645.7163249-1.481168 2.5010252-2.097099 3.9752365-1.380957 1.4815457.721031 2.0951892 2.502832 1.3788643 3.980089zm365.4565007-.203844 33.884857-77.272489-19.656151 26.621919c.173581.046439.342272.112432.510962.193089 1.481546.721031 2.09519 2.502832 1.378865 3.979112-.71877 1.478724-2.498581 2.092211-3.980126 1.378513-.515852-.25175-.924133-.630597-1.210174-1.080324l-27.425709 37.144077c1.417981 1.146317 2.053628 3.020997 1.623344 4.793021l12.047949 5.073367c.826341-.567781 1.818927-.86157 2.826183-.830285zm-31.308044-4.059769c-.71877 1.478724-2.49858 2.092211-3.980126 1.378513-1.476656-.718587-2.092744-2.497944-1.373975-3.976667.716325-1.481169 2.501026-2.0971 3.975237-1.380958 1.481546.721031 2.095189 2.502832 1.378864 3.979112zm158.989903.877458c-.268927.552382-.933912.782135-1.48888.513276-.552524-.266415-.782334-.933674-.513407-1.486057.268927-.554827.933912-.784579 1.48888-.51572.550079.268859.782334.933674.513407 1.488501zm-114.961591-47.485369 19.416561-26.294399-46.927838 44.046419c.76522 1.314964.882571 2.974557.16869 4.443504-1.073264 2.209531-3.640299 3.201865-5.8944 2.368402l-2.596372 5.496942c1.151498 1.383402 1.457098 3.368069.623422 5.09121-.083123.168648-.17358.329963-.271372.483946l3.041325 4.954336c.723659-.041551 1.469322.085546 2.175868.400844l28.01246-37.938433c-.026893-.488834.066009-.98989.29582-1.461615.398501-.82613 1.13194-1.383401 1.955836-1.591156zm-203.67342 39.546699c-.613643 1.261193-2.131861 1.784245-3.39093 1.175647-1.25907-.613488-1.784701-2.131318-1.171057-3.390067.608754-1.261192 2.129416-1.786689 3.388486-1.17809 1.261514.615931 1.7847 2.133762 1.173501 3.39251zm96.148895-23.024098-15.240852 21.156751 13.008754-4.313963c-.046451-.779691.102681-1.583824.466956-2.336629.682098-1.405398 1.96806-2.321963 3.393375-2.585933l-.608754-11.450945c-.202918-.065992-.403391-.14665-.601419-.241973-.144243-.068437-.283597-.14665-.41806-.227308zm-237.451684 19.008324c-.508518 1.046105-1.767587 1.478724-2.811514.97278-1.043928-.508388-1.479101-1.764692-.970584-2.808353.506073-1.046106 1.767587-1.481168 2.809069-.975225 1.043928.508388 1.481546 1.767136.973029 2.810798zm420.031413-2.414842c-.904574 1.857571-3.139117 2.627485-4.997161 1.730474-1.855599-.9019-2.628155-3.135873-1.726025-4.993443.899684-1.860015 3.139116-2.632373 4.992271-1.732918 1.858044.904344 2.630599 3.140761 1.730915 4.995887zm57.479573-1.442061c-.268928.552383-.933912.782135-1.48888.513276-.552524-.266415-.782335-.933674-.513407-1.486057.268927-.554827.933912-.784579 1.48888-.51572.550079.268859.782334.933674.513407 1.488501zm-204.379965-50.259503c-1.161278 2.299965-3.958123 3.243416-6.283123 2.119097-.075789-.036663-.151578-.078214-.227366-.117321l-23.614274 25.490267c1.596451 1.363848 2.139195 3.683367 1.180836 5.655814-.853234 1.757359-2.647713 2.744804-4.481309 2.656814l.594085 11.1552c.29093.024442.579416.073325.867902.151539l12.75205-22.02932c-1.383754-1.383401-1.806703-3.541605-.904574-5.399175 1.139275-2.351294 3.967902-3.328962 6.312461-2.192422.151577.073325.298265.153982.437618.241973l16.86664-15.76002c-.215142-.376402-.366719-.787023-.442508-1.212309zm51.748974 44.743007c-.71877 1.478724-2.498581 2.092211-3.980127 1.378513-1.476656-.718586-2.092744-2.497943-1.373974-3.976667.716325-1.481168 2.501025-2.0971 3.975236-1.380957 1.481546.72103 2.09519 2.502832 1.378865 3.979111zm-339.288639-5.008108c-.904574 1.857571-3.139116 2.627485-4.99716 1.730474-1.8556-.901899-2.628155-3.135872-1.726026-4.993443.899685-1.860015 3.139117-2.632373 4.992272-1.732918 1.858044.904344 2.630599 3.140761 1.730914 4.995887zm168.852206-1.918674c-.613644 1.261192-2.131861 1.784245-3.390931 1.175646-1.259069-.613487-1.7847-2.131318-1.171056-3.390066.608754-1.261193 2.129416-1.78669 3.388485-1.178091 1.261515.615932 1.784701 2.133762 1.173502 3.392511zm-144.067608-2.854793c-.613644 1.261193-2.131861 1.784245-3.390931 1.175647-1.259069-.613487-1.7847-2.131318-1.171056-3.390067.608753-1.261192 2.129416-1.786689 3.388485-1.17809 1.261514.615931 1.784701 2.133762 1.173502 3.39251zm483.19489-.168648c-.415615.857904-1.449764 1.212309-2.307887.799244-.858123-.417953-1.215063-1.449394-.797003-2.307298.41317-.860348 1.449764-1.217197 2.305442-.801688.855678.417953 1.215063 1.451838.799448 2.309742zm-130.177995-46.879213-33.134306.459504c.264038 1.041217.176026 2.177757-.327602 3.218974-.853234 1.754915-2.647713 2.742361-4.478864 2.65437l-10.417272 40.042866c.139354.051327.276262.109988.410726.17598.484069.234641.909464.542606 1.268849.899455l47.871529-44.931208c-.645426-.703922-1.058596-1.586268-1.19306-2.519941zm78.468137 38.930767c-.904574 1.85757-3.139116 2.627484-4.99716 1.730473-1.8556-.901899-2.628155-3.135872-1.726026-4.993443.899685-1.860014 3.139117-2.632372 4.992272-1.732917 1.858044.904343 2.630599 3.14076 1.730914 4.995887zm-173.666006-49.382046-25.117823 48.155072 22.553233-24.346395c-1.430205-1.380957-1.880047-3.575823-.965694-5.462724.721214-1.486056 2.117192-2.424618 3.6403-2.62504v-15.694027l-.063565-.017109zm-101.373421 40.130856c-.613644 1.261192-2.131862 1.784245-3.390931 1.175646-1.259069-.613487-1.7847-2.131317-1.171057-3.390066.608754-1.261192 2.129417-1.786689 3.388486-1.178091 1.261514.615932 1.7847 2.133762 1.173502 3.392511zm341.036666.395956c-.415615.857904-1.449763 1.212309-2.307886.799244-.858123-.417954-1.215063-1.449394-.797003-2.307298.41317-.860349 1.449763-1.217198 2.305441-.801689.855678.417954 1.215063 1.451838.799448 2.309743zm-484.952697-2.581046c-.613644 1.261193-2.131861 1.784246-3.390931 1.175647-1.259069-.613487-1.7847-2.131318-1.171057-3.390066.608754-1.261193 2.129417-1.78669 3.388486-1.178091 1.261514.615931 1.784701 2.133762 1.173502 3.39251zm-18.774069-7.041658c-.904574 1.85757-3.139117 2.627484-4.997161 1.730473-1.855599-.901899-2.628155-3.135872-1.726025-4.993443.899684-1.860014 3.139116-2.632373 4.992271-1.732917 1.858044.904343 2.630599 3.14076 1.730915 4.995887zm458.593407-4.406842c-.904574 1.85757-3.139116 2.627484-4.997161 1.730473-1.855599-.901899-2.628154-3.135872-1.726025-4.993442.899685-1.860015 3.139117-2.632373 4.992271-1.732918 1.858045.904343 2.6306 3.140761 1.730915 4.995887zm57.357334-2.009109c-.415615.857904-1.449764 1.212309-2.307887.799244-.858123-.417953-1.215063-1.449394-.797003-2.307298.413171-.860349 1.449764-1.217198 2.305442-.801689.855678.417954 1.215063 1.451838.799448 2.309743zm-342.158828-3.810464c-.613643 1.261193-2.131861 1.784245-3.39093 1.175647-1.25907-.613487-1.7847-2.131318-1.171057-3.390067.608754-1.261192 2.129416-1.786689 3.388486-1.17809 1.261514.615931 1.7847 2.133762 1.173501 3.39251zm-143.273538-4.21864c-.613644 1.261192-2.131862 1.784245-3.390931 1.175646-1.259069-.613487-1.7847-2.131318-1.171057-3.390066.608754-1.261193 2.129417-1.786689 3.388486-1.178091 1.261514.615932 1.7847 2.133762 1.173502 3.392511zm265.747984-34.211072-26.721608 11.162532c.59164 1.251416.633202 2.747249-.017114 4.084211-.799448 1.644928-2.425236 2.615264-4.131703 2.659259v15.564486c.491404.063548.980363.207754 1.449763.435062.645426.315298 1.188171.755249 1.608675 1.280746l22.00071-11.756466c-.06112-.351961-.070899-.716142-.024448-1.080324l-2.097634-1.053438c-1.325079 1.794022-3.782098 2.441728-5.860174 1.437173-2.347003-1.138984-3.322476-3.964446-2.183201-6.310851 1.139274-2.351293 3.967902-3.328962 6.31246-2.192422.554968.271303 1.036593.637929 1.42776 1.070547l17.597634-11.714915c-.17358-.725919-.132019-1.50561.161357-2.24375l-1.740694-.762581c-1.349527 1.691367-3.733202 2.280412-5.757492 1.302743-.882571-.42773-1.569559-1.094989-2.024291-1.882012zm51.599842 3.693144c-1.298186 1.28319-3.268691 1.730473-5.033833 1.048549l-17.847003 21.83623c.251814.266415.466956.557272.647871.867681l33.61104-.464392c.06112-.513276.205363-1.024108.444953-1.515387.29582-.613487.708991-1.134095 1.19795-1.54716zm177.787931 21.81912c-.415615.857905-1.449764 1.21231-2.307887.799245-.858123-.417954-1.215063-1.449394-.797003-2.307298.413171-.860349 1.449764-1.217198 2.305442-.801689.855678.417954 1.215063 1.451838.799448 2.309742zm-134.510172-61.798437-42.881702 33.710016c1.075709 1.378513 1.342192 3.299632.53052 4.97389-.044006.090434-.090457.178424-.136908.26397l13.260567 20.597035c1.237066-.586601 2.716167-.63304 4.046136-.002444l25.821924-58.887429c-.237145-.200422-.449843-.417954-.640537-.655038zm88.347554 56.399262c-.904574 1.857571-3.139116 2.627485-4.997161 1.730474-1.855599-.9019-2.628154-3.135873-1.726025-4.993443.899685-1.860015 3.139117-2.632373 4.992271-1.732918 1.858045.904344 2.6306 3.140761 1.730915 4.995887zm-295.715058-.523053c-.613644 1.261193-2.131861 1.784246-3.390931 1.175647-1.259069-.613487-1.7847-2.131318-1.171057-3.390066.608754-1.261193 2.129417-1.78669 3.388486-1.178091 1.261514.615931 1.7847 2.133762 1.173502 3.39251zm202.595265-1.014331c-.71877 1.478724-2.498581 2.092211-3.980126 1.378513-1.476657-.718587-2.092745-2.497944-1.373975-3.976667.716325-1.481168 2.501025-2.0971 3.975236-1.380957 1.481546.72103 2.09519 2.502831 1.378865 3.979111zm-369.054017-.877458c-.904574 1.857571-3.139116 2.627485-4.99716 1.730474-1.8556-.901899-2.628155-3.135872-1.726026-4.993443.899685-1.860014 3.139117-2.632373 4.992272-1.732918 1.858044.904344 2.630599 3.140761 1.730914 4.995887zm26.952642-4.262635c-.613644 1.261193-2.131861 1.784245-3.390931 1.175647-1.259069-.613488-1.7847-2.131318-1.171056-3.390067.608754-1.261192 2.129416-1.786689 3.388485-1.17809 1.261515.615931 1.784701 2.133762 1.173502 3.39251zm252.553427-34.347945-27.305915 30.762345 26.279101-10.979219c-.288486-1.063215-.210253-2.231529.310489-3.299632.660094-1.363848 1.889826-2.265747 3.261356-2.561492l-1.068375-13.17653c-.23959-.073325-.476735-.163759-.706546-.276191-.276262-.13443-.53541-.290857-.77011-.469281zm238.113245 29.088087c-.476735.985002-1.662461 1.393178-2.650158.916565-.985252-.479058-1.395978-1.664481-.914353-2.647038.476735-.987445 1.664905-1.398066 2.647713-.921453.982808.479058 1.395978 1.666925.916798 2.651926zm-341.085562-7.102763c-.706546 1.449394-2.449685 2.050661-3.899448 1.351627-1.449764-.706365-2.053628-2.44906-1.347082-3.898454.701656-1.451838 2.449684-2.055548 3.894558-1.354071 1.452208.706366 2.056073 2.453949 1.351972 3.900898zm212.802283-3.830017c-.904574 1.857571-3.139116 2.627485-4.99716 1.730474-1.8556-.901899-2.628155-3.135872-1.726026-4.993443.899685-1.860015 3.139117-2.632373 4.992272-1.732918 1.858044.904344 2.630599 3.140761 1.730914 4.995887zm92.207885 0c-.904574 1.857571-3.139116 2.627485-4.997161 1.730474-1.855599-.901899-2.628154-3.135872-1.726025-4.993443.899685-1.860015 3.139117-2.632373 4.992271-1.732918 1.858045.904344 2.6306 3.140761 1.730915 4.995887zm-108.507332-34.976097-36.83817 12.988329c.608754 1.258748.65765 2.77169.002445 4.123317-.909464 1.872236-2.887303 2.869458-4.840694 2.625041l-1.625789 14.327734c.114905.070881.224921.149095.330047.227308l43.123738-33.898217c-.05623-.129541-.107571-.261527-.151577-.393512zm-57.545583-3.825129-28.899921 14.804348c.608754 1.258749.65765 2.771691.002445 4.123318-.83612 1.720697-2.576814 2.703254-4.368848 2.659259l1.043927 12.880785c.618533.02933 1.241956.180869 1.833596.469281.359385.173536.684543.388623.977918.635485l17.260252-12.059544c-.232255-.537718-.337381-1.126763-.298265-1.718252-1.351971.904343-3.134227 1.085212-4.70134.327519-2.347004-1.138985-3.322477-3.964447-2.183202-6.310852 1.139274-2.351293 3.967902-3.328962 6.31246-2.192422.591641.288412 1.097713.684368 1.503549 1.151205l12.866956-7.948446c-.080679-.838351.058675-1.708476.454732-2.522386.53052-1.094989 1.430205-1.894233 2.476577-2.317074l-.149133-.31041c-.850788.090434-1.738249-.04644-2.56459-.44484-.623422-.303077-1.149053-.725919-1.567113-1.226974zm210.531069 34.30395c-.476735.985002-1.66246 1.393178-2.650158.916565-.985252-.479058-1.395977-1.664481-.914353-2.647038.476735-.987446 1.664906-1.398066 2.647713-.921453.982808.479058 1.395978 1.666925.916798 2.651926zm-484.18112-2.627484c-.706546 1.449394-2.449684 2.05066-3.899448 1.351627-1.449763-.706366-2.053628-2.44906-1.347082-3.898454.701656-1.451838 2.449685-2.055549 3.894558-1.354071 1.452209.706365 2.056073 2.453948 1.351972 3.900898zm-22.690875-3.38029c-.904574 1.857571-3.139117 2.627485-4.997161 1.730474-1.855599-.9019-2.628154-3.135872-1.726025-4.993443.899685-1.860015 3.139117-2.632373 4.992271-1.732918 1.858044.904344 2.6306 3.140761 1.730915 4.995887zm166.959934-3.551381c-.706545 1.449394-2.449684 2.05066-3.899448 1.351627-1.449763-.706366-2.053627-2.44906-1.347082-3.898454.701657-1.451838 2.449685-2.055549 3.894559-1.354071 1.452208.706365 2.056072 2.453948 1.351971 3.900898zm347.603386-6.733693c-.476735.985001-1.662461 1.393178-2.650158.916564-.985252-.479058-1.395978-1.664481-.914353-2.647038.476735-.987445 1.664905-1.398066 2.647713-.921453.982807.479058 1.395978 1.666925.916798 2.651927zm-35.552208-2.229085c-.904574 1.857571-3.139116 2.627485-4.99716 1.730474-1.8556-.9019-2.628155-3.135873-1.726026-4.993443.899685-1.860015 3.139117-2.632373 4.992272-1.732918 1.858044.904344 2.630599 3.140761 1.730914 4.995887zm-87.975945 0c-.904574 1.857571-3.139116 2.627485-4.99716 1.730474-1.8556-.9019-2.628155-3.135873-1.726026-4.993443.899685-1.860015 3.139117-2.632373 4.992272-1.732918 1.858044.904344 2.630599 3.140761 1.730914 4.995887zm-47.404573-30.337059c-1.141719.620819-2.525473.765025-3.816325.315298l-23.878312 29.58181c.149133.131985.288486.271303.41806.420398l37.292902-13.149644c-.051341-.789468.095347-1.600933.464511-2.363514.268927-.552383.630757-1.028997 1.056151-1.420064zm-41.71798-25.908221-26.601814 39.527145c.870347 1.341851 1.036593 3.094322.288486 4.63415-.946136 1.952893-3.058439 2.95256-5.092508 2.585934l-4.478864 6.80213c.273817.20531.520741.437506.738328.6917l28.921924-14.816569c-.574527-1.239195-.606309-2.720363.036672-4.045104.845899-1.742694 2.61593-2.73014 4.432413-2.664147l1.84093-32.690797-.068454-.019553zm-264.09457 51.014753c-.706546 1.449393-2.449685 2.05066-3.899448 1.351627-1.449764-.706366-2.053628-2.449061-1.347082-3.898454.701656-1.451838 2.449684-2.055549 3.894558-1.354071 1.452208.706365 2.056073 2.453948 1.351972 3.900898zm188.594413-12.966331-.449842-.01711-40.808517 8.769689 39.170504 4.316407c.06601-.19309.144243-.386179.2347-.574381.838565-1.728029 2.589038-2.71303 4.388407-2.664147l.246925-8.385953c-.493849-.024442-.987698-.144206-1.459543-.371514-.53541-.259082-.980363-.630596-1.322634-1.072991zm30.528154-7.447392c-1.361751 1.61071-3.69164 2.158204-5.676814 1.200089-.068454-.034219-.139353-.070881-.205362-.107544l-17.490063 18.93011 33.070741-8.148868c-.06601-.811465.078233-1.649816.459621-2.43684.171136-.347072.376498-.664814.611199-.950782zm-15.074605-5.333182c-.777445 1.202532-2.163644 1.835573-3.544953 1.686478l-5.270978 8.148869c.134464.75036.041562 1.549605-.317823 2.287744-.47918.987446-1.337303 1.666926-2.310331 1.952894l-.256704 8.730581c.237145.073325.47429.16376.706546.276191.726104.354405 1.322634.870126 1.762697 1.483613l17.428943-18.866562c-1.012145-.967892-1.540221-2.343961-1.447319-3.73225zm-67.06317 22.831008c-.706545 1.449394-2.449684 2.05066-3.899448 1.351627-1.449763-.706366-2.053627-2.44906-1.347082-3.898454.701657-1.451838 2.449685-2.055549 3.894559-1.354071 1.452208.706365 2.056072 2.453948 1.351971 3.900898zm10.556625-11.480275c-.063565.261527-.154022.520609-.276262.772358-.726104 1.490945-2.307886 2.280413-3.862776 2.072658l-1.3153 4.854125c.166246.051328.332492.11732.493849.195534.77011.376402 1.354416.980113 1.708912 1.691367l38.850236-8.346847zm-7.317271-1.520275-11.44653-4.629261 11.243612 13.787573c.276261-.070881.562302-.109988.848343-.11732l1.361751-5.034994c-1.515773-.757693-2.295662-2.409954-2.007176-4.005998zm342.173496 6.367068c-.476735.985001-1.662461 1.393178-2.650158.916564-.985252-.479058-1.395978-1.664481-.914353-2.647038.476735-.987445 1.664905-1.398066 2.647713-.921453.982807.479058 1.395978 1.666925.916798 2.651927zm-501.472421-4.074435c-.904574 1.857571-3.139117 2.627485-4.997161 1.730474-1.855599-.901899-2.628155-3.135872-1.726025-4.993443.899684-1.860015 3.139116-2.632373 4.992271-1.732918 1.858044.904344 2.630599 3.140761 1.730915 4.995887zm342.87613-52.74767-6.725631 3.629595c.24448 1.024108.149133 2.136207-.344716 3.155426-.410726.843239-1.039038 1.508054-1.7847 1.965114l.704101 2.373291c1.012145-.232196 2.109858-.134429 3.117113.351961 2.347003 1.143872 3.324921 3.971779 2.188092 6.315739-1.14172 2.348849-3.970347 3.32163-6.31735 2.187534-1.173502-.567048-2.002287-1.556937-2.398344-2.695921l-7.001893 4.885899c.488959 1.200088.486514 2.593266-.12224 3.847126-.47429.980113-1.2444 1.720697-2.148974 2.167981l.811672 4.213752c.618533.02933 1.241955.180868 1.836041.466836 2.347003 1.143873 3.324921 3.971779 2.188091 6.31574-.254259.527941-.59653.985001-.997476 1.363848l11.551656 13.398949c.616088-.32263 1.303075-.505943 2.002287-.535273l5.613249-52.244171c-.334937-.078213-.667429-.193089-.990142-.349516-.442508-.215087-.838565-.491279-1.180836-.81391zm45.385173-11.568264-37.412697 8.036436c.014669.723475-.134464 1.464059-.47429 2.158204-.794558 1.637595-2.410568 2.605487-4.1097 2.659259l-5.610805 52.23195c.242035.053771.48407.129541.721215.224863l29.657807-37.901771c-.726104-1.302743-.826341-2.928117-.127129-4.372623.985252-2.033551 3.234463-3.038105 5.339432-2.539494l13.34858-18.66614c-.59653-.501055-1.048817-1.131651-1.332413-1.830684zm-127.359147 32.612583c-1.019479 1.53494-3.036435 2.116653-4.740457 1.297855l-4.813801 6.496609c1.562224 1.368736 2.08541 3.661369 1.13683 5.616706-1.14172 2.348849-3.970347 3.32163-6.31735 2.187534-1.227288-.593934-2.080521-1.65226-2.45213-2.862125l-3.310252.466837c-.06112.310409-.161357.618375-.305599.91412-.542745 1.112098-1.557335 1.833129-2.684385 2.043327l-.264038 1.730474c1.965615 1.270969 2.728391 3.827573 1.708912 5.988221l11.013801 8.676809c1.320189-.933673 3.080441-1.160981 4.65-.464392l9.820741-25.695578c-1.638013-1.263636-2.278549-3.487833-1.503549-5.457835zm216.335013 28.15197c-.904574 1.85757-3.139117 2.627484-4.997161 1.730473-1.855599-.901899-2.628155-3.135872-1.726025-4.993442.899684-1.860015 3.139116-2.632373 4.992271-1.732918 1.858044.904343 2.630599 3.140761 1.730915 4.995887zm-211.819476-21.134753-8.226735 21.518488 23.064195-34.272176-9.021293 5.873345c.841009 1.336962.995031 3.062547.256703 4.582822-1.102602 2.268191-3.779653 3.253192-6.07287 2.297521zm124.03178 19.15253c-.904574 1.85757-3.139117 2.627484-4.997161 1.730473-1.855599-.901899-2.628154-3.135872-1.726025-4.993443.899685-1.860014 3.139117-2.632373 4.992271-1.732917 1.858044.904343 2.6306 3.14076 1.730915 4.995887zm-105.947632 1.434728 39.943059-52.383488-34.518059 12.734135c.515851 1.212309.52563 2.634817-.095347 3.910675-.833676 1.718252-2.571925 2.698365-4.361515 2.659258l-1.843375 32.710351c.224921.068436.449842.156426.667429.26397.070899.034218.139353.068437.207808.105099zm80.714904-104.754755-32.12705 44.862772c1.19306 1.385845 1.518217 3.399842.672318 5.144981-1.117271 2.297521-3.848107 3.277634-6.163328 2.258415l-38.041008 49.890433 38.639983-39.495371c-.506072-1.209865-.510962-2.622596.107571-3.893566 1.139275-2.351293 3.967902-3.328961 6.312461-2.192422.061119.029331.122239.061105.180914.092879l8.339196-11.568265c-1.466877-1.376068-1.936278-3.600265-1.012145-5.506719 1.139274-2.351293 3.967902-3.328962 6.31246-2.192422.180915.08799.352051.185757.518297.293301l4.794243-4.304187c-.271373-1.048549-.185805-2.19731.325157-3.24586.726104-1.498277 2.136751-2.439283 3.669637-2.629928l.090458-2.251082c-.532965-.053772-1.065931-.200423-1.576893-.447284-2.347003-1.138984-3.322476-3.964446-2.183202-6.310851 1.139275-2.351293 3.967902-3.328962 6.312461-2.192422.909463.444839 1.616009 1.141428 2.070741 1.965114l8.620347-6.430616c-.510962-1.212309-.515852-2.627485.102681-3.900898.320268-.662371.775-1.214753 1.312855-1.642484l-.77011-1.632706c-1.202839.493722-2.601262.491278-3.860331-.11732-1.777366-.862793-2.769953-2.693478-2.647713-4.553492zm-328.66576 98.238594c-.706546 1.449393-2.449685 2.05066-3.899448 1.351627-1.449763-.706366-2.053628-2.44906-1.347082-3.898454.701656-1.451838 2.449685-2.055549 3.894558-1.354071 1.452209.706365 2.056073 2.453948 1.351972 3.900898zm470.659448-2.468614c-.476735.985001-1.66246 1.393178-2.650157.916565-.985253-.479058-1.395978-1.664481-.914354-2.647038.476735-.987446 1.664906-1.398067 2.647713-.921453.982808.479058 1.395978 1.666925.916798 2.651926zm-334.511509-9.786463c-.706545 1.449393-2.449684 2.05066-3.899447 1.351627-1.449764-.706366-2.053628-2.44906-1.347082-3.898454.701656-1.451838 2.449684-2.055549 3.894558-1.354071 1.452208.706365 2.056072 2.453948 1.351971 3.900898zm321.016241-4.29441c-.904574 1.85757-3.139116 2.627484-4.99716 1.730473-1.8556-.901899-2.628155-3.135872-1.726026-4.993442.899685-1.860015 3.139117-2.632373 4.992272-1.732918 1.858044.904343 2.630599 3.140761 1.730914 4.995887zm-85.597159-.219976c-.904574 1.857571-3.139117 2.627485-4.997161 1.730474-1.855599-.901899-2.628154-3.135872-1.726025-4.993443.899684-1.860014 3.139117-2.632373 4.992271-1.732918 1.858044.904344 2.630599 3.140761 1.730915 4.995887zm-386.540412-2.698365c-.904574 1.85757-3.139117 2.627484-4.997161 1.730473-1.855599-.901899-2.628154-3.135872-1.726025-4.993442.899685-1.860015 3.139117-2.632373 4.992271-1.732918 1.858044.904343 2.6306 3.140761 1.730915 4.995887zm490.165489.958115c-.476735.985001-1.66246 1.393178-2.650158.916565-.985252-.479058-1.395977-1.664481-.914353-2.647038.476735-.987446 1.664905-1.398067 2.647713-.921453.982808.479058 1.395978 1.666925.916798 2.651926zm-458.231333-4.604819c-.706546 1.449393-2.449685 2.05066-3.899448 1.351627-1.449764-.706366-2.053628-2.44906-1.347082-3.898454.701656-1.451838 2.449684-2.055549 3.894558-1.354071 1.452208.706365 2.056073 2.453948 1.351972 3.900898zm126.92495-4.72214c-.904574 1.85757-3.139116 2.627484-4.99716 1.730473-1.8556-.901899-2.628155-3.135872-1.726026-4.993442.899685-1.860015 3.139117-2.632373 4.992272-1.732918 1.858044.904343 2.630599 3.140761 1.730914 4.995887zm146.108279-26.133084-13.47082-32.629693-18.692902 37.989761-5.808833 13.667809c.271372.219975.513407.469281.723659.73814l36.327208-13.401394c-.936356-1.354071-1.13194-3.160314-.36183-4.749026.312934-.647705.757887-1.192755 1.283518-1.615597zm189.170896 18.282404c-.476735.985002-1.662461 1.393178-2.650158.916565-.985252-.479058-1.395978-1.664481-.914353-2.647038.476735-.987446 1.664905-1.398066 2.647713-.921453.982807.479058 1.395978 1.666925.916798 2.651926zm-10.01877-2.972113c-.904574 1.857571-3.139116 2.627485-4.997161 1.730474-1.855599-.901899-2.628154-3.135872-1.726025-4.993443.899685-1.860014 3.139117-2.632373 4.992271-1.732918 1.858045.904344 2.6306 3.140761 1.730915 4.995887zm-82.159778-35.442934 31.572082-48.076857-55.328154 61.172729-2.065851 3.138317c.76522 1.314964.88257 2.972113.171135 4.44106-.938801 1.930896-3.016877 2.933006-5.031388 2.598154l-9.649605 13.496717 35.251498-30.686576c-.339827-1.102322-.278707-2.33174.266482-3.451171.90213-1.864903 2.867745-2.864569 4.813801-2.632373zm1.740694 33.199185c-.904574 1.85757-3.139116 2.627484-4.99716 1.730473-1.8556-.901899-2.628155-3.135872-1.726026-4.993442.899685-1.860015 3.139117-2.632373 4.992272-1.732918 1.858044.904343 2.630599 3.140761 1.730914 4.995887zm-81.147632-11.521826-8.339196 11.570709c.068454.063549.136909.131986.200473.200422l6.603391-3.566046c-.325157-1.090101-.256703-2.30241.278707-3.40962.572082-1.17809 1.567114-2.009109 2.711278-2.405065l-.12713-1.913786c-.388722-.078214-.775-.205311-1.149053-.386179-.058675-.02933-.119795-.05866-.17847-.090435zm-156.217506 8.486165c-.904574 1.85757-3.139116 2.627484-4.997161 1.730473-1.855599-.901899-2.628154-3.135872-1.726025-4.993443.899685-1.860014 3.139117-2.632373 4.992271-1.732917 1.858045.904343 2.6306 3.14076 1.730915 4.995887zm-116.523815-2.70081c-.706546 1.449394-2.449685 2.05066-3.899448 1.351627-1.449763-.706366-2.053628-2.44906-1.347082-3.898454.701656-1.451838 2.449685-2.055549 3.894558-1.354071 1.452209.706365 2.056073 2.453948 1.351972 3.900898zm312.769948-62.683228-9.791404 9.769354c.42295 1.160982.396057 2.483279-.185804 3.680923-.134464.278635-.295821.537718-.474291.777246l1.031704 2.187534c.909464-.136873 1.867823-.009777 2.755284.422842 2.347003 1.143872 3.324921 3.971779 2.188091 6.31574-1.141719 2.348849-3.970347 3.321629-6.31735 2.187533-.281151-.136873-.545189-.298189-.784779-.481502l-9.542035 7.119873c-.039116.584157-.190694 1.173202-.462066 1.732917-.498738 1.024108-1.317744 1.789134-2.278549 2.229085l-.11735 2.998999c.068454.02933.139354.061104.207808.095322 2.347003 1.143873 3.324921 3.971779 2.188091 6.31574-1.141719 2.348849-3.970347 3.32163-6.31735 2.187534-.481624-.234641-.907019-.540162-1.266404-.897011l-4.40552 3.957114c.645426 1.273413.70899 2.823018.039117 4.201531-.574527 1.182979-1.576893 2.016442-2.728391 2.407509l.124684 1.90401c.396057.078213.787224.20531 1.163722.388623 1.256625.611043 2.119638 1.703588 2.476578 2.947671l37.285567-8.00955c-.114905-.882346.019558-1.806243.437618-2.666592.775-1.598488 2.32989-2.561492 3.982571-2.656814l-7.14858-48.181958c-.405836-.075769-.809227-.20531-1.19795-.393511-.312933-.151539-.601419-.332408-.863012-.540162zm-342.004806 59.302938c-.904574 1.857571-3.139116 2.627485-4.99716 1.730474-1.8556-.901899-2.628155-3.135872-1.726026-4.993443.899685-1.860015 3.139117-2.632373 4.992272-1.732918 1.858044.904344 2.630599 3.140761 1.730914 4.995887zm477.803384-1.818463c-.613643 1.263636-2.134306 1.784245-3.398265 1.175646-1.261514-.613487-1.787145-2.131318-1.171057-3.394954.611199-1.263637 2.131861-1.789134 3.393376-1.178091 1.261514.613487 1.787145 2.136206 1.175946 3.397399zm-142.87626-70.548573-63.183279 34.575253 13.703075 33.19674c1.07082-.471725 2.307887-.547494 3.469164-.139317l47.20899-65.9242c-.528076-.479058-.933912-1.065659-1.19795-1.708476zm140.213878 62.70767c-.904574 1.85757-3.139116 2.627484-4.99716 1.730473-1.8556-.901899-2.628155-3.135872-1.726026-4.993443.899685-1.860014 3.139117-2.632373 4.992272-1.732917 1.858044.904343 2.630599 3.14076 1.730914 4.995887zm-321.881698-.875014c-.904574 1.857571-3.139117 2.627485-4.997161 1.730474-1.855599-.9019-2.628154-3.135873-1.726025-4.993443.899684-1.860015 3.139117-2.632373 4.992271-1.732918 1.858044.904344 2.6306 3.140761 1.730915 4.995887zm242.665454-66.175949-46.355757 12.792795c.190694.97278.080678 2.009109-.383833 2.967224-.760331 1.561826-2.26388 2.515053-3.875 2.644594l7.15347 48.211287c.36672.078214.728549.200422 1.0806.371514.080678.041551.161356.083102.23959.127097l43.27287-65.692003c-.474291-.403289-.853234-.887235-1.13194-1.422508zm2.833517 63.678006c-.904574 1.85757-3.139117 2.627484-4.997161 1.730473-1.855599-.901899-2.628154-3.135872-1.726025-4.993443.899684-1.860014 3.139117-2.632372 4.992271-1.732917 1.858044.904343 2.630599 3.14076 1.730915 4.995887zm81.883516-5.017885c-.613644 1.263637-2.134306 1.784246-3.398265 1.175647-1.261514-.613487-1.787145-2.131318-1.171057-3.394955.611199-1.263637 2.131861-1.789133 3.393376-1.178091 1.261514.613488 1.787145 2.136207 1.175946 3.397399zm-59.036908-67.930864 35.40552-64.491916-52.849131 69.135842c.801892 1.327185.936356 3.018552.210252 4.511941-.946136 1.948005-3.051104 2.947671-5.080284 2.588378l-37.24645 56.543468 54.834305-60.627679c-1.178391-1.385846-1.496215-3.387622-.650316-5.127873.990142-2.045771 3.258912-3.05277 5.376104-2.532161zm-372.911902 65.408479c-.904574 1.85757-3.139117 2.627485-4.997161 1.730474-1.855599-.9019-2.628155-3.135873-1.726025-4.993443.899684-1.860015 3.139116-2.632373 4.992271-1.732918 1.858044.904343 2.630599 3.140761 1.730915 4.995887zm219.569476-13.372064c-.371609.175981-.765221.303078-1.168612.376403l-6.231782 14.662586zm-108.746923 9.5616c-.904574 1.857571-3.139117 2.627485-4.997161 1.730474-1.855599-.9019-2.628154-3.135873-1.726025-4.993443.899685-1.860015 3.139117-2.632373 4.992271-1.732918 1.858044.904344 2.6306 3.140761 1.730915 4.995887zm-140.365455-5.152314c-.904574 1.857571-3.137894 2.627485-4.995938 1.730474-1.8556-.9019-2.628155-3.135872-1.726026-4.993443.899685-1.860015 3.139117-2.632373 4.991049-1.732918 1.858044.904344 2.630599 3.140761 1.730915 4.995887zm459.499204-5.394287c-.364274-.689256-.405836-1.539828-.036672-2.297521.611199-1.263637 2.131861-1.789134 3.393375-1.178091 1.087934.530385 1.628234 1.732918 1.366641 2.862125 1.594006 1.002111 2.210094 3.064991 1.37153 4.795465-.904574 1.857571-3.139117 2.627485-4.997161 1.730474-1.855599-.9019-2.628155-3.135873-1.726025-4.993443.166246-.344628.378943-.652594.628312-.919009zm-66.442191-1.65226c-.904574 1.857571-3.139117 2.627485-4.997161 1.730474-1.855599-.9019-2.628155-3.135873-1.726025-4.993443.899684-1.860015 3.139116-2.632373 4.992271-1.732918 1.858044.904344 2.630599 3.140761 1.730915 4.995887zm-246.728703-4.15998c-.904574 1.85757-3.139117 2.627485-4.997161 1.730473-1.855599-.901899-2.628154-3.135872-1.726025-4.993442.899684-1.860015 3.139117-2.632373 4.992271-1.732918 1.858044.904343 2.630599 3.140761 1.730915 4.995887zm202.609934-212.723598-33.347003 21.041875c.281151 1.058326.200473 2.216864-.312934 3.277634-1.141719 2.348849-3.970347 3.321629-6.31735 2.187534-.044006-.021998-.085568-.041551-.127129-.065993l-15.011041 15.219857c.036672.139318.063565.28108.083123.425286l5.236751-.393511c.024448-.053772.048896-.107544.073344-.161316 1.139274-2.351293 3.967902-3.328962 6.31246-2.192422 2.347003 1.143873 3.324921 3.971779 2.188092 6.31574-1.14172 2.348849-3.970347 3.321629-6.31735 2.187534-.569638-.278636-1.061041-.655038-1.459543-1.102322l-15.353312 11.431391c.286041 1.063215.207808 2.229085-.310489 3.294744-.520741 1.072991-1.393533 1.85757-2.410568 2.287745l-.185804 4.032883c.183359.131985.354495.278636.508517.437507l3.300473-1.508054c-.05134-.789468.095347-1.603377.466956-2.365958 1.139275-2.351294 3.967902-3.328962 6.312461-2.192422 2.347003 1.143872 3.324921 3.971779 2.188091 6.315739-1.100158 2.263303-3.762539 3.248304-6.053312 2.304854l-10.089669 11.983774c.3056.901899.273817 1.918675-.17358 2.840128-.097792.200422-.210253.388623-.337382.562159.432729.073325.860568.207755 1.273738.408177 2.347003 1.143872 3.324921 3.971779 2.188092 6.31574-.84101 1.728029-2.593928 2.710586-4.395742 2.659258l-4.454416 7.750469c1.0097 1.368736 1.246845 3.240972.452287 4.873678-.660095 1.35896-1.882492 2.258415-3.251577 2.55416l.058675 6.349958c.281151.075769.562303.178424.83612.31041 2.347003 1.143872 3.324921 3.971779 2.188091 6.315739-.608754 1.256305-1.701577 2.116653-2.941088 2.475946l.041562 4.57549c.298264.078213.594085.185757.880126.325075 2.347003 1.143872 3.324921 3.971779 2.188091 6.315739-.965694 1.987112-3.141561 2.989222-5.209858 2.563937l-7.982255 15.632922c1.320189 1.388289 1.716246 3.502498.83123 5.32585-.386278.7968-.970584 1.437173-1.662461 1.889345l1.246846 2.405065c.968139-.185757 1.999842-.073325 2.953312.388623 2.347003 1.143872 3.324921 3.971779 2.188092 6.31574-1.14172 2.348849-3.970347 3.321629-6.31735 2.187534l-.029338-.014666-9.170426 15.613369c1.936278 1.292967 2.669716 3.847127 1.628234 5.995554-.726104 1.493389-2.134306 2.431951-3.667193 2.622596l1.234622 12.567931c.080678.034218.163801.073325.244479.112432 1.361751.66237 2.26388 1.894233 2.557256 3.267857l21.692665-42.496813 6.014195-54.490365.603865.065993-.557413-.244417 29.943848-68.258384.559858.244417-.47429-.383735zm-33.337224 178.02858-41.253469-5.416284-21.081467 41.301614 62.193138-34.032648c-.075789-.611042-.031782-1.239195.141798-1.852682zm-266.296841 30.957879c-.904574 1.857571-3.139117 2.627485-4.997161 1.730474-1.855599-.901899-2.628154-3.135872-1.726025-4.993443.899685-1.860015 3.139117-2.632373 4.992271-1.732918 1.858044.904344 2.6306 3.140761 1.730915 4.995887zm418.24329-6.384176c-.613644 1.263637-2.134306 1.784245-3.398265 1.175646-1.261514-.613487-1.787145-2.131317-1.171057-3.394954.611199-1.263637 2.131861-1.789134 3.393376-1.178091 1.261514.613487 1.787145 2.136206 1.175946 3.397399zm7.390615-.677036c-.904574 1.857571-3.139117 2.627485-4.997161 1.730474-1.855599-.9019-2.628154-3.135873-1.726025-4.993443.899684-1.860015 3.139117-2.632373 4.992271-1.732918 1.858044.904344 2.630599 3.140761 1.730915 4.995887zm-155.757884-17.99888-12.358438 17.258296c1.202839-.498611 2.606151-.498611 3.867665.112432.344716.168648.660095.371514.943691.606155l9.749842-9.72536c-.462066-1.182979-.447397-2.551715.151577-3.786022.210253-.432618.476735-.821241.789669-1.156093l-1.246845-3.302076c-.618533.122209-1.263959.124653-1.897161-.007332zm-165.378152 14.410836c-.904574 1.857571-3.139117 2.627485-4.997161 1.730474-1.855599-.9019-2.628154-3.135873-1.726025-4.993443.899685-1.860015 3.139117-2.632373 4.992271-1.732918 1.858044.904344 2.6306 3.140761 1.730915 4.995887zm255.970028-3.365624c-1.14172 2.348849-3.970347 3.321629-6.317351 2.187533-2.347003-1.138984-3.322476-3.964446-2.183201-6.310851 1.139274-2.351293 3.967902-3.328962 6.31246-2.192422 2.347003 1.143872 3.324921 3.971779 2.188092 6.31574zm-389.194237-.371514c-.904574 1.85757-3.139117 2.627484-4.997161 1.730473-1.855599-.901899-2.628155-3.135872-1.726025-4.993443.899684-1.860014 3.139116-2.632373 4.992271-1.732917 1.858044.904343 2.630599 3.14076 1.730915 4.995887zm333.276887-86.572563-12.175078 12.687696c.801892 1.324741.936356 3.016108.210252 4.509496-.518297 1.065659-1.383754 1.847794-2.393454 2.280413l.806782 5.626483c.41806.075769.83123.207755 1.232177.400844 2.347003 1.143872 3.324921 3.971779 2.188091 6.31574-1.107492 2.277968-3.799211 3.260525-6.099763 2.287745l-4.852918 5.729138c.853233 1.234307 1.097713 2.837683.557413 4.311519l2.173423 1.525163c1.273738-.645261 2.821293-.70881 4.200157-.039107 2.347004 1.143873 3.324922 3.971779 2.188092 6.31574-1.141719 2.348849-3.970347 3.32163-6.31735 2.187534-.493849-.239529-.926577-.554827-1.290852-.923897l-10.19235 15.456942c.887461 1.346739 1.063486 3.113875.310489 4.665924-.281151.579268-.667429 1.075435-1.122161 1.476279l1.163723 3.082101c1.090378-.325075 2.300552-.259082 3.405599.276191.990142.483946 1.738249 1.268526 2.183202 2.187534l46.328863-12.785462c-.222476-1.004555-.122239-2.087323.36183-3.084545.664984-1.37118 1.904495-2.275524 3.285804-2.563936l-22.548343-60.823213c-.860568.097767-1.757808-.039107-2.593927-.442395-.371609-.180869-.708991-.403289-1.009701-.659927zm116.912538 78.919861c-.613644 1.263637-2.134306 1.784245-3.398265 1.175647-1.261514-.613488-1.787145-2.131318-1.171057-3.394955.611199-1.263637 2.131861-1.789134 3.393375-1.178091 1.261515.613487 1.787146 2.136206 1.175947 3.397399zm-400.682328-1.68159c-.904574 1.85757-3.139117 2.627484-4.997161 1.730473-1.855599-.901899-2.628155-3.135872-1.726025-4.993442.899684-1.860015 3.139116-2.632373 4.992271-1.732918 1.858044.904343 2.630599 3.14076 1.730915 4.995887zm89.217901-1.119431c-.904575 1.857571-3.139117 2.627485-4.997161 1.730474-1.8556-.9019-2.628155-3.135873-1.726025-4.993443.899684-1.860015 3.139116-2.632373 4.992271-1.732918 1.858044.904344 2.630599 3.140761 1.730915 4.995887zm322.962297-2.023774c-1.141719 2.348849-3.970347 3.321629-6.31735 2.187534-2.347003-1.138984-3.322476-3.964447-2.183202-6.310852 1.139275-2.351293 3.967903-3.328962 6.312461-2.192422 2.347003 1.143873 3.324921 3.971779 2.188091 6.31574zm-147.223105-55.010973-59.472081 44.427709 40.5347 5.323406c1.246845-2.075101 3.892113-2.886566 6.107098-1.813575l.029337.014665 10.749763-16.302625c-.17358-.953227-.05623-1.967559.398502-2.906121.078233-.163759.166246-.317742.259148-.466836l-1.72358-1.209865c-1.386199 1.156093-3.373817 1.464059-5.102287.628152-2.347003-1.138984-3.322476-3.964447-2.183202-6.310852 1.13194-2.336628 3.933675-3.316741 6.268454-2.211975l4.786909-5.653369c-1.029259-1.371181-1.273739-3.255637-.471846-4.905453.559858-1.153649 1.525552-1.977335 2.640379-2.380623l-.787224-5.492054c-.508518-.061104-1.017035-.20531-1.503549-.439951-.185805-.090434-.36183-.190645-.530521-.300633zm88.325551 45.40049c-1.141719 2.348849-3.970347 3.321629-6.31735 2.187533-2.347003-1.138984-3.322476-3.964446-2.183202-6.310851 1.139275-2.351293 3.967902-3.328962 6.312461-2.192422 2.347003 1.143872 3.324921 3.971779 2.188091 6.31574zm-90.269163-48.04264-52.533753-6.440392-5.803943 52.588799 59.335173-44.325055c-.466956-.530385-.806783-1.156093-.997477-1.823352zm137.39503 44.163739c-.777445 1.600933-2.703943 2.263303-4.305284 1.490945-1.598896-.777247-2.266325-2.703254-1.486435-4.301742.775-1.603377 2.703943-2.268192 4.300394-1.493389 1.598896.779691 2.266325 2.705698 1.491325 4.304186zm-45.566088-78.384587-63.30063 13.675141c.095347.853016-.041561 1.745138-.444952 2.576157-.5403 1.114542-1.461988 1.918675-2.530363 2.334184l22.626577 61.026079c.506072.031775 1.01459.146651 1.505993.351961l43.175079-78.702329c-.420505-.361738-.767666-.789468-1.031704-1.261193zm-258.14834 77.761323c-.904574 1.857571-3.139116 2.627485-4.99716 1.730474-1.8556-.901899-2.628155-3.135872-1.726026-4.993443.899685-1.860015 3.139117-2.632373 4.992272-1.732918 1.858044.904344 2.630599 3.140761 1.730914 4.995887zm-123.586827-1.329629c-.904574 1.857571-3.139117 2.627485-4.997161 1.730474-1.855599-.9019-2.628155-3.135873-1.726025-4.993443.899684-1.860015 3.139116-2.632373 4.992271-1.732918 1.858044.904344 2.630599 3.140761 1.730915 4.995887zm420.367816-160.760507-31.52563 78.350369c1.662461 1.356515 2.239432 3.717585 1.266404 5.726694-.955915 1.965114-3.090221 2.967225-5.138959 2.576157l-40.979652 74.706109 54.379573-71.14495c-1.49377-1.373625-1.977839-3.61493-1.043928-5.536049.89235-1.840462 2.818849-2.840128 4.740458-2.64215l5.552129-24.791234c-.119795-.892122.009779-1.82824.432729-2.70081.088012-.17598.183359-.347072.288485-.508387l12.096846-54.008863-.022003-.007332zm23.430915 156.038367c-1.141719 2.348849-3.970347 3.32163-6.31735 2.187534-2.347003-1.138984-3.322476-3.964447-2.183202-6.310851 1.139274-2.351294 3.967902-3.328962 6.31246-2.192422 2.347004 1.143872 3.324922 3.971779 2.188092 6.315739zm-395.922312-.2933c-.904575 1.85757-3.139117 2.627484-4.997161 1.730473-1.8556-.901899-2.628155-3.135872-1.726025-4.993443.899684-1.860014 3.139116-2.632373 4.992271-1.732917 1.858044.904343 2.630599 3.14076 1.730915 4.995887zm84.061828-6.843681c-.904574 1.85757-3.139117 2.627484-4.997161 1.730473-1.855599-.901899-2.628154-3.135872-1.726025-4.993442.899684-1.860015 3.139116-2.632373 4.992271-1.732918 1.858044.904343 2.630599 3.14076 1.730915 4.995887zm294.218844-1.466503c-.777445 1.600932-2.703943 2.263303-4.305284 1.490945-1.598896-.777247-2.266325-2.703254-1.486435-4.301743.775-1.603376 2.703943-2.268191 4.300394-1.493389 1.598896.779691 2.266325 2.705698 1.491325 4.304187zm-33.014511-1.478724c-1.141719 2.348849-3.970347 3.321629-6.31735 2.187534-2.347003-1.138984-3.322476-3.964447-2.183202-6.310852 1.139275-2.351293 3.967902-3.328962 6.312461-2.192422 2.347003 1.143873 3.324921 3.971779 2.188091 6.31574zm52.560646-8.576599c-1.141719 2.348849-3.970347 3.32163-6.31735 2.187534-2.347003-1.138984-3.322476-3.964447-2.183202-6.310851 1.139275-2.351294 3.967902-3.328962 6.312461-2.192422 2.347003 1.143872 3.324921 3.971779 2.188091 6.315739zm-424.719552-2.893899c-.904574 1.857571-3.139116 2.627485-4.99716 1.730474-1.8556-.9019-2.628155-3.135873-1.726026-4.993443.899685-1.860015 3.139117-2.632373 4.992272-1.732918 1.858044.904344 2.630599 3.140761 1.730914 4.995887zm118.430756 0c-.904574 1.857571-3.139117 2.627485-4.997161 1.730474-1.855599-.9019-2.628155-3.135873-1.726025-4.993443.899684-1.860015 3.139116-2.632373 4.992271-1.732918 1.858044.904344 2.630599 3.140761 1.730915 4.995887zm-68.468927-.987445c-.904574 1.85757-3.139116 2.627484-4.99716 1.730473-1.8556-.901899-2.628155-3.135872-1.726026-4.993443.899685-1.860014 3.139117-2.632373 4.992272-1.732917 1.858044.904343 2.630599 3.14076 1.730914 4.995887zm353.98919-2.277968c-.777444 1.600932-2.703943 2.263303-4.305284 1.490944-1.598895-.777246-2.266324-2.703254-1.486435-4.301742.775-1.603377 2.703943-2.268191 4.300394-1.493389 1.598896.779691 2.266325 2.705698 1.491325 4.304187zm-19.108517-6.039549c-1.141719 2.348849-3.970347 3.32163-6.31735 2.187534-2.347003-1.138984-3.322476-3.964447-2.183202-6.310851 1.139275-2.351294 3.967902-3.328962 6.312461-2.192422 2.347003 1.143872 3.324921 3.971779 2.188091 6.315739zm-257.947866-5.056991c-.904574 1.85757-3.139117 2.627485-4.997161 1.730474-1.855599-.9019-2.628155-3.135873-1.726025-4.993443.899684-1.860015 3.139116-2.632373 4.992271-1.732918 1.858044.904344 2.630599 3.140761 1.730915 4.995887zm297.824916-1.380957c-1.141719 2.348849-3.970347 3.321629-6.31735 2.187534-2.347003-1.138984-3.322476-3.964447-2.183202-6.310852 1.139275-2.351293 3.967902-3.328962 6.312461-2.192422 2.347003 1.143873 3.324921 3.971779 2.188091 6.31574zm-20.546056-3.167647c-.777445 1.600933-2.703944 2.263303-4.305284 1.490945-1.598896-.777246-2.266325-2.703254-1.486435-4.301742.774999-1.603377 2.703943-2.268191 4.300394-1.493389 1.598896.779691 2.266325 2.705698 1.491325 4.304186zm-107.255598-49.284278c-1.342192 1.720697-3.747871 2.326851-5.789274 1.34185-.273817-.134429-.530521-.290856-.765221-.466837l-72.683753 43.870439 51.059542 6.259523c-.007335-.711254.144243-1.432284.47429-2.114208 1.139274-2.351293 3.967902-3.328962 6.31246-2.192422.073344.034218.146688.073325.215142.112432l12.539354-13.066542c-.383833-1.13654-.339827-2.414842.224921-3.578268.276262-.569492.65276-1.06077 1.095268-1.456726l-1.068376-3.539161c-.71388.012221-1.442429-.139318-2.129416-.471725-2.347003-1.138984-3.322476-3.964446-2.183202-6.310851 1.139275-2.351294 3.967902-3.328962 6.312461-2.192422.044006.019553.085567.041551.127129.063548l11.126262-13.149644c-.400947-.755249-.594086-1.615597-.54519-2.483278zm-224.419949 43.992647c-.904574 1.85757-3.139117 2.627484-4.997161 1.730473-1.855599-.901899-2.628154-3.135872-1.726025-4.993443.899684-1.860014 3.139116-2.632373 4.992271-1.732917 1.858044.904343 2.630599 3.14076 1.730915 4.995887zm-48.455835-.67948c-1.14172 2.348849-3.970347 3.321629-6.31735 2.187534-2.347004-1.138984-3.322477-3.964447-2.183202-6.310852 1.139274-2.351293 3.967902-3.328962 6.31246-2.192422 2.347003 1.143873 3.324921 3.971779 2.188092 6.31574zm264.473024-46.862105-42.409858-18.763906-28.921923 65.931532 72.277916-43.626021c-.772555-.997222-1.12216-2.275524-.946135-3.541605zm110.690534 43.907101c-1.369085 2.815686-4.755126 3.981556-7.569085 2.620152-2.811514-1.363847-3.982571-4.749025-2.613485-7.559823 1.364195-2.81813 4.752681-3.986444 7.56175-2.627484 2.811514 1.37118 3.985016 4.761246 2.62082 7.567155zm-263.754254.689257c-.904574 1.85757-3.139117 2.627484-4.997161 1.730473-1.855599-.901899-2.628154-3.135872-1.726025-4.993443.899684-1.860014 3.139117-2.632373 4.992271-1.732917 1.858044.904343 2.630599 3.14076 1.730915 4.995887zm288.12397-4.331073c-1.141719 2.348849-3.970347 3.32163-6.31735 2.187534-2.347003-1.138984-3.322476-3.964446-2.183202-6.310851 1.139275-2.351293 3.967902-3.328962 6.312461-2.192422 2.347003 1.143872 3.324921 3.971779 2.188091 6.315739zm-18.414195-3.8789c-.777445 1.600932-2.703943 2.263303-4.305284 1.490945-1.598896-.777247-2.266325-2.703254-1.486435-4.301743.775-1.603376 2.703943-2.268191 4.300394-1.493389 1.598896.779691 2.266325 2.705699 1.491325 4.304187zm-94.579336-30.974988c-.075789.36907-.200473.735695-.371609 1.0901-1.141719 2.348849-3.970347 3.32163-6.31735 2.187534-.146688-.070881-.288486-.149095-.425394-.232196l-11.008912 13.007882c.845899 1.339406 1.002366 3.069879.261593 4.595042-.41806.862793-1.06593 1.539829-1.833596 1.996889l.931467 3.086989c.982807-.200423 2.031624-.090435 2.999763.378846 1.119716.54505 1.928943 1.473836 2.344558 2.551715l63.13194-13.638478c-.12224-.481502-.168691-.985001-.134464-1.4885zm-166.375629 24.942772c-.904574 1.857571-3.139116 2.627485-4.99716 1.730474-1.8556-.9019-2.628155-3.135873-1.726026-4.993443.899685-1.860015 3.139117-2.632373 4.992272-1.732918 1.858044.904344 2.630599 3.140761 1.730914 4.995887zm266.370186-5.408952c-1.369086 2.815686-4.755127 3.981556-7.569086 2.620152-2.811514-1.363848-3.98257-4.749026-2.613485-7.559823 1.364195-2.81813 4.752681-3.986444 7.56175-2.627485 2.811515 1.371181 3.985016 4.761247 2.620821 7.567156zm-313.024207-.290856c-.904574 1.85757-3.139117 2.627484-4.997161 1.730473-1.855599-.901899-2.628154-3.135872-1.726025-4.993443.899685-1.860014 3.139117-2.632373 4.992271-1.732917 1.858044.904343 2.6306 3.14076 1.730915 4.995887zm-51.506939-2.43684c-1.141719 2.348849-3.970347 3.32163-6.31735 2.187534-2.347003-1.138984-3.322476-3.964446-2.183202-6.310851 1.139274-2.351293 3.967902-3.328962 6.31246-2.192422 2.347004 1.143872 3.324922 3.971779 2.188092 6.315739zm447.018526-5.372289 17.16246-26.472824-60.799604 24.879224c.134463.461948.207807.94345.220031 1.42984l37.732965 3.343627.004889-.017109c1.068376-2.204643 3.378707-3.399843 5.679259-3.162758zm33.975315-9.923337 4.965378-30.466601-36.821056 41.04742c.853234.466837 1.542666 1.124319 2.038959 1.891789l24.227918-5.38451c-.327603-1.256305-.224921-2.634817.388722-3.89601.995032-2.053104 3.063328-3.228751 5.200079-3.192088zm-373.381303 10.01866c-.904575 1.85757-3.139117 2.627484-4.997161 1.730473-1.8556-.901899-2.628155-3.135872-1.726025-4.993443.899684-1.860014 3.139116-2.632373 4.992271-1.732917 1.858044.904343 2.630599 3.14076 1.730915 4.995887zm157.909303-40.751675c-1.139274.985001-2.708833 1.383401-4.207492 1.021663l-10.830441 20.081315c1.031703 1.028996 1.532886 2.485723 1.356861 3.927784l4.141482.598822c1.288407-1.940672 3.845663-2.673924 5.994637-1.632706 1.594007.777246 2.557256 2.331739 2.652603 3.983999l49.729573 13.577374c.06112-.180868.134464-.359293.220032-.535273.095347-.197978.202918-.386179.322713-.564604zm89.601734-57.288941-9.400237 5.50183c-.075788.393512-.202918.784579-.388722 1.163426-1.048817 2.158203-3.52295 3.155426-5.737934 2.422174l-72.881781 42.653241c.572082 1.241639.603864 2.717919-.036672 4.040216-.102681.210198-.217587.408176-.344716.593933l49.372633 40.451042c1.051262-.926341 2.479022-1.346738 3.877445-1.11943l31.716324-78.834315c-1.087933-1.376069-1.359306-3.309409-.542744-4.993443.804338-1.662037 2.452129-2.637261 4.17571-2.666591l1.970504-8.038881c-.141798-.051328-.281151-.112432-.420504-.178425-.523186-.254193-.980363-.593933-1.359306-.994777zm110.035329 72.208165-15.66869 24.172858 33.513248-37.364053-14.9597 10.314405c.229811.562159.229811 1.214753-.05623 1.801354-.513407 1.058327-1.755363 1.517831-2.828628 1.075436zm-62.239589 23.011876 58.24235-23.833118-29.723817 3.900898c-.012224.295745-.083123.593934-.220032.875014-.532965 1.097433-1.853154 1.552049-2.950867 1.021663-.757886-.366625-1.207729-1.109654-1.239511-1.896677l-23.885646-3.130984c-.075789.268859-.176026.535274-.303155.794356-1.141719 2.348849-3.970347 3.321629-6.31735 2.187534-1.051262-.510832-1.828707-1.361404-2.261435-2.356182l-6.68407 1.10721c-.073343.249305-.16869.498611-.286041.740584-.65276 1.344294-1.858044 2.236417-3.207571 2.541938l-.156466.850572c.251813.073325.501183.168648.745662.285968 2.347003 1.143873 3.324921 3.971779 2.188091 6.31574-.784779 1.615598-2.369006 2.581045-4.046135 2.656815.569637.699033.924132 1.54716 1.029259 2.434395l9.280441 5.232971c1.503549-2.453948 4.652445-3.407175 7.290378-2.131317 1.109937.540162 1.963171 1.393178 2.505915 2.40262zm-61.535488-17.568706-3.860331 17.236299 6.312461-15.422723c-.212698-.068437-.42295-.151539-.630758-.25175-.757886-.366626-1.373974-.911676-1.821372-1.561826zm173.487537-39.26073-25.812145 16.542154c.097792.461948.048896.960559-.17358 1.420064-.334937.6917-.982808 1.126763-1.691798 1.222086l-4.987382 30.60103c.193139.046439.386278.105099.576972.173536l32.547554-49.206065c-.171135-.239529-.325157-.491279-.459621-.752805zm-437.860324 46.427042c-1.14172 2.348849-3.970347 3.321629-6.31735 2.187533-2.347004-1.138984-3.322477-3.964446-2.183202-6.310851 1.139274-2.351293 3.967902-3.328962 6.31246-2.192422 2.347003 1.143872 3.324921 3.971779 2.188092 6.31574zm41.549289.078213c-.904574 1.857571-3.139116 2.627485-4.997161 1.730474-1.855599-.9019-2.628154-3.135873-1.726025-4.993443.899685-1.860015 3.139117-2.632373 4.992271-1.732918 1.858045.904344 2.6306 3.140761 1.730915 4.995887zm258.27058-2.600599c-.019559.043996-.041562.085546-.06112.129542-1.141719 2.348849-3.970347 3.321629-6.31735 2.187533-.708991-.344628-1.293297-.843239-1.730915-1.437173l-1.7847.743028 9.246214 2.669036c.784779-.633041 1.752918-.999666 2.755284-1.046106-.699211-.860348-1.073265-1.94556-1.053707-3.055214zm-354.216556-1.383401c-1.141719 2.348849-3.970347 3.32163-6.31735 2.187534-2.347003-1.138984-3.322477-3.964447-2.183202-6.310851 1.139274-2.351294 3.967902-3.328962 6.31246-2.192422 2.347003 1.143872 3.324921 3.971779 2.188092 6.315739zm341.608748-68.488136-4.491088 1.412732c.017114.725919-.134464 1.466503-.47429 2.165536-.880126 1.811131-2.762618 2.803465-4.65489 2.642149l-11.700788 52.23195c1.312855-.760137 2.967981-.875013 4.432413-.166204.872792.425286 1.557334 1.085213 2.012066 1.862459 1.378865-1.471391 3.603628-1.943116 5.508123-1.019219 2.347003 1.143872 3.324921 3.971779 2.188092 6.315739-.024448.053772-.051341.107544-.080679.158872l1.682019 1.539828c1.332414-.831019 3.051104-.980113 4.566877-.246862 1.112382.542607 1.916719 1.461615 2.334779 2.527274l2.278549-.945894c-.100236-.862793.036672-1.762248.444953-2.600599 1.139274-2.351293 3.967902-3.328962 6.31246-2.192422 1.525552.743028 2.474133 2.199754 2.635489 3.771357l1.347082.244417c.660095-1.099877 1.711357-1.84535 2.884858-2.143539l.166246-.909232c-.217586-.068436-.432728-.151538-.642981-.254193-2.347003-1.138984-3.322476-3.964447-2.183202-6.310852 1.139275-2.351293 3.967903-3.328962 6.312461-2.192422 1.303076.635485 2.183202 1.789134 2.515694 3.089433l6.275788-1.038773c.058676-.520608.205363-1.038773.444953-1.537384.293376-.60371.699211-1.116986 1.178391-1.527607l-2.672161-6.885232c-1.002365.224864-2.087854.122209-3.085331-.359293-2.347003-1.138984-3.322476-3.964447-2.183202-6.310851 1.061041-2.189978 3.588959-3.1872 5.823502-2.397733l2.070741-4.040216c-.921688-.809021-1.481546-1.940672-1.589117-3.135872l-5.102287-.08799c.141799.916564.017114 1.882012-.418059 2.776579-1.14172 2.348849-3.970347 3.321629-6.31735 2.187533-2.347004-1.138984-3.322477-3.964446-2.183202-6.310851.958359-1.974891 3.109779-2.981889 5.163407-2.576157l1.537776-4.18931c-.251814-.256638-.471846-.537718-.65765-.840795l-7.899133 1.669369c-.014668.657482-.168691 1.324741-.47429 1.955337-1.141719 2.348849-3.970347 3.32163-6.31735 2.187534-2.347003-1.138984-3.322476-3.964446-2.183202-6.310851 1.139275-2.351294 3.967902-3.328962 6.312461-2.192422.2347.112432.454731.244417.662539.388623l3.618297-5.389399c-.740773-.444839-1.322635-1.068103-1.713802-1.789133l-9.361119-.215088c-.031783.611043-.18336 1.226975-.466956 1.811132-1.141719 2.348849-3.970347 3.321629-6.31735 2.187533-2.347003-1.138984-3.322477-3.964446-2.183202-6.310851 1.073265-2.21442 3.647634-3.211642 5.901735-2.368402l1.413091-5.795132c-.136908-.048883-.271372-.107543-.405836-.173536-1.056151-.510832-1.833596-1.363848-2.266325-2.36107zm-106.380361 42.447931-55.834226 6.987887 40.788958 18.047764c.031783-.07577.06601-.151539.102682-.227308 1.00481-2.075102 3.322476-3.079657 5.464116-2.507721l10.803549-20.027543c-.655205-.623263-1.109937-1.417619-1.325079-2.273079zm202.95465-42.245064-30.156545 60.872096c.205363.168648.374053.371515.501183.596378l32.684463-4.289521c.034227-.202866.097792-.405733.190694-.601266.220032-.454616.576972-.799244.997476-1.009443l-3.579179-55.345825c-.190694-.034218-.381388-.095322-.564748-.183313zm-59.054021 34.64369c-1.097713.982557-2.613486 1.407843-4.077918 1.114542l-2.236987 4.362846c1.173501 1.385846 1.48888 3.385178.64787 5.12054-.266482.549939-.625867 1.024108-1.048817 1.412731l2.699054 6.963446c.958359-.180869 1.980284-.065993 2.923975.391067 1.701577.828574 2.68194 2.539495 2.662381 4.311519l24.010331 3.148093.034227-.05866.053786-.085546zm-270.597236 23.838006c-1.141719 2.348849-3.970346 3.32163-6.31735 2.187534-2.347003-1.138984-3.322476-3.964446-2.183201-6.310851 1.139274-2.351293 3.967902-3.328962 6.31246-2.192422 2.347003 1.143872 3.324921 3.971779 2.188091 6.315739zm291.045501-34.123081-19.064511 5.46028c.312934 1.082768.242035 2.277968-.288486 3.370512-.088013.183313-.188249.35685-.29582.523053l25.817034 26.834562.017114-.009777-4.645111-35.171631c-.215142-.031774-.430284-.097767-.635646-.195534-.386278-.188201-.691877-.474169-.904574-.811465zm37.674289-25.311842-33.713722 23.432274c.17847.527941.156467 1.126763-.105126 1.669369-.23959.491279-.638091.85546-1.102602 1.058327l4.630441 35.061643 30.310568-61.182507-.00978-.019553zm2.958202.980113c-.05623.026885-.112461.053771-.171136.075769l3.571846 55.243169c.251814.024442.501183.092879.740773.207755.114905.056216.220031.119764.320268.190645l17.58052-12.123092c-.237145-.564603-.23959-1.226974.048896-1.823352.097792-.200422.220031-.376402.36183-.532829zm-359.047471 51.760224c-1.141719 2.348849-3.970347 3.321629-6.31735 2.187534-2.347003-1.138984-3.322476-3.964447-2.183202-6.310852 1.139275-2.351293 3.967903-3.328961 6.312461-2.192422 2.347003 1.143873 3.324921 3.971779 2.188091 6.31574zm-58.675078-2.593266c-1.141719 2.348849-3.970346 3.321629-6.31735 2.187534-2.347003-1.138984-3.322476-3.964447-2.183201-6.310852 1.139274-2.351293 3.967902-3.328962 6.31246-2.192422 2.347003 1.143873 3.324921 3.971779 2.188091 6.31574zm195.759619-50.085967-39.683911 48.99831 56.523658-7.075877c.009779-.672147.163801-1.354071.476735-1.999332.376499-.777247.936357-1.402955 1.60623-1.855126l-15.949842-37.185629c-.760331.036663-1.54022-.112432-2.273659-.466837-.249369-.119764-.481624-.259082-.699211-.415509zm-96.014431 45.85755c-1.141719 2.348849-3.970347 3.321629-6.31735 2.187534-2.347003-1.138984-3.322476-3.964447-2.183202-6.310852 1.139275-2.351293 3.967902-3.328962 6.312461-2.192422 2.347003 1.143872 3.324921 3.971779 2.188091 6.31574zm374.122076-27.360058 5.466562-81.808872-36.212303 105.197151c.092903.068437.180915.14665.259149.227308l25.949053-16.625256c-.322713-1.25386-.217587-2.622597.393612-3.876457.828785-1.713364 2.405678-2.815685 4.143927-3.113874zm-55.223027-18.44372 22.367428 41.086526-4.246608-67.178059-18.71735 23.20741c.838564.62082 1.141719 1.76958.672318 2.739917-.024448.048883-.048896.097767-.075788.144206zm58.760645-65.762885-37.930993 36.787229c.036672.386179-.029337.789467-.212697 1.16587-.273817.564604-.755441.958115-1.307965 1.13654l4.261278 67.38337 36.344321-105.578442c-.430284-.251749-.816562-.554827-1.153944-.894567zm-197.546763 36.20796-7.309937 3.888678c.12224.892122-.007334 1.830684-.430284 2.700809-1.097713 2.258415-3.755205 3.24586-6.045977 2.307298l-44.866877 59.434924 71.99921-42.13752c-1.821372-1.319853-2.486356-3.793355-1.471766-5.885566.339826-.701477.83123-1.280746 1.413091-1.718253l-2.762618-6.019995-.985252.508388c.124684.892123-.007335 1.830685-.430284 2.703254-1.141719 2.348849-3.970347 3.321629-6.31735 2.187534-2.347003-1.138984-3.322476-3.964447-2.183202-6.310852.628312-1.295411 1.767587-2.172868 3.055994-2.510164l-1.249291-7.831126c-.374053-.075769-.745662-.200422-1.102602-.373958-.503628-.244418-.943691-.564604-1.312855-.943451zm-16.182097 6.71414-60.454889 18.451052c.092902.850572-.044006 1.737806-.444953 2.563936-.589195 1.207421-1.623344 2.053105-2.809069 2.434396l15.808044 36.858109c1.043927-.361737 2.212539-.361737 3.300473.073325l45.050236-59.676897c-.171136-.222419-.320268-.45706-.449842-.703921zm-150.484462 55.966644c-1.141719 2.348849-3.970347 3.321629-6.31735 2.187534-2.347003-1.138984-3.322476-3.964447-2.183202-6.310852 1.139275-2.351293 3.967902-3.328961 6.312461-2.192422 2.347003 1.143873 3.324921 3.971779 2.188091 6.31574zm-27.147003 0c-1.141719 2.348849-3.970346 3.321629-6.31735 2.187534-2.347003-1.138984-3.322476-3.964447-2.183201-6.310852 1.139274-2.351293 3.967902-3.328961 6.31246-2.192422 2.347003 1.143873 3.324921 3.971779 2.188091 6.31574zm-63.633122-2.104432c-1.141719 2.348849-3.970347 3.32163-6.31735 2.187534-2.347003-1.138984-3.322476-3.964447-2.183201-6.310851 1.139274-2.351294 3.967902-3.328962 6.31246-2.192422 2.347003 1.143872 3.324921 3.971779 2.188091 6.315739zm338.723891-35.227847-19.533911 14.933889c.180914.96056.068454 1.989556-.391168 2.935451-.809227 1.664481-2.464353 2.637261-4.195268 2.661703l-4.163485 6.198419 7.253706-1.530051c-.022003-.735696.129574-1.483613.471846-2.189978 1.139274-2.351293 3.967902-3.328962 6.31246-2.192422 2.347003 1.143872 3.324921 3.971779 2.188091 6.31574-1.007255 2.072657-3.327365 3.074768-5.471451 2.502831l-1.4791 4.03044c.132018.11732.256703.239528.376498.369069l6.713407.117321.019558-.041551c.870347-1.796466 2.728391-2.791244 4.601104-2.654371l7.522634-31.309839c-.078233-.043996-.154022-.092879-.224921-.146651zm3.388486-1.016775c-.024448.070881-.053786.139318-.088013.207754-.366719.755249-1.105047 1.204977-1.887382 1.24164l-7.512854 31.273177c.17358.05866.344716.129541.513407.212643.855678.415509 1.530441 1.055882 1.985173 1.816019l19.218533-5.506719c0-.325074.070899-.652593.222476-.963003.530521-1.097433 1.853155-1.552049 2.948423-1.024108.158912.075769.303154.168648.432729.276191l34.200236-23.76957c.014668-.100211.039116-.200422.070899-.300633zm-236.093845 24.0922c-1.141719 2.348849-3.970347 3.32163-6.31735 2.187534-2.347003-1.138984-3.322476-3.964446-2.183202-6.310851 1.139274-2.351293 3.967902-3.328962 6.31246-2.192422 2.347004 1.143872 3.324922 3.971779 2.188092 6.315739zm-82.035093-3.091877c-1.14172 2.348849-3.970347 3.32163-6.317351 2.187534-2.347003-1.138984-3.322476-3.964447-2.183201-6.310851 1.139274-2.351294 3.967902-3.328962 6.31246-2.192422 2.347003 1.143872 3.324921 3.971779 2.188092 6.315739zm66.173263-3.426729c-1.141719 2.34885-3.970346 3.32163-6.31735 2.187534-2.347003-1.138984-3.322476-3.964446-2.183201-6.310851 1.139274-2.351293 3.967902-3.328962 6.31246-2.192422 2.347003 1.143872 3.324921 3.971779 2.188091 6.315739zm205.423893-26.091533c-.075789.256638-.171136.510832-.293375.760138-.686988 1.417619-1.992508 2.334184-3.434937 2.588378l-2.060962 8.410395c.740773.413065 1.329968.999666 1.743139 1.68159l4.816246-1.512943c.061119-.508387.205362-1.014331.442507-1.498277 1.139275-2.351293 3.967903-3.328962 6.312461-2.192422 2.347003 1.143872 3.324921 3.971779 2.188091 6.313296-.691877 1.424952-2.002287 2.341516-3.45205 2.593266l-1.743139 7.158979c.146688.197978.281152.408176.393612.625708l9.334227.215087c.026893-.628152.17847-1.261193.471846-1.862459 1.139274-2.351293 3.967902-3.328962 6.31246-2.192422.977918.479058 1.718691 1.248972 2.168533 2.155759l19.203864-14.679695c-.075789-.190645-.12224-.391067-.141798-.596378zm-174.066953 18.807902c-1.141719 2.348849-3.970347 3.321629-6.31735 2.187533-2.347003-1.138984-3.322476-3.964446-2.183202-6.310851 1.139275-2.351293 3.967902-3.328962 6.312461-2.192422 2.347003 1.143872 3.324921 3.971779 2.188091 6.31574zm-74.304652-2.167981c-1.141719 2.348849-3.970347 3.32163-6.31735 2.187534-2.347003-1.138984-3.322476-3.964446-2.183202-6.310851 1.139275-2.351293 3.967902-3.328962 6.312461-2.192422 2.347003 1.143872 3.324921 3.971779 2.188091 6.315739zm70.649684-8.021771c-1.14172 2.348849-3.970347 3.321629-6.31735 2.187534-2.347004-1.138984-3.322477-3.964447-2.183202-6.310852 1.139274-2.351293 3.967902-3.328962 6.31246-2.192422 2.347003 1.143872 3.324921 3.971779 2.188092 6.31574zm295.218765-22.351951-42.444085-9.612927-28.687223 29.99732c.11735.202866.200473.420397.249369.647705l50.876182 3.517163c.391167-.271303.863013-.408176 1.342192-.388623l19.115852-23.701133c-.176025-.131986-.327603-.288413-.452287-.459505zm-215.256858-30.557034-4.816246 6.721472c.914353 1.354071 1.100158 3.14076.339826 4.712363-1.141719 2.348849-3.970347 3.321629-6.31735 2.187534-.931467-.452172-1.645347-1.168314-2.097634-2.013998l-3.650078.254194c-1.25907 2.033551-3.87989 2.820574-6.080205 1.759804-2.347004-1.138984-3.322477-3.964447-2.183202-6.310852.058675-.119764.119795-.23464.185804-.344628l-1.303076-2.942783c-.843454.11732-1.726025.007333-2.55481-.356849l-2.645268 4.027995c1.960725 1.285634 2.708832 3.856903 1.660015 6.017551-1.141719 2.348849-3.970347 3.321629-6.31735 2.187534-1.388643-.674592-2.298107-1.940673-2.571924-3.348516l-8.048265.603711c-.075788.400844-.205363.7968-.391167 1.182979-.584306 1.197644-1.60623 2.038439-2.779732 2.422174l.180915 3.698032c.572082.043995 1.144164.193089 1.691798.459504 2.347003 1.143873 3.324921 3.971779 2.188092 6.31574-1.041483 2.145983-3.493612 3.143205-5.698817 2.434395l-1.151499 2.581045c1.329969 1.38829 1.72847 3.509831.843454 5.335627-.139353.288412-.305599.554827-.491403.801688l3.09511 3.590489c1.349527-.899455 3.124448-1.080324 4.686672-.322631 2.347003 1.143872 3.324921 3.971779 2.188091 6.31574-.200473.413065-.454732.784579-.750552 1.109654l1.941167 2.253526c1.356862-.931229 3.158676-1.126763 4.740458-.359293 1.435094.699033 2.356782 2.028662 2.598817 3.490277l7.116798-.938562c.063564-.48639.207807-.975224.435173-1.442061 1.139275-2.351293 3.967902-3.328962 6.312461-2.192422 1.122161.547494 1.931388 1.478724 2.347003 2.561492l60.32287-18.409502c-.227366-1.009443-.12713-2.097099.359384-3.099209.645426-1.32963 1.831152-2.221753 3.163565-2.537051l-.635647-3.981555-10.559069-.608599c-.075788.410621-.205363.816353-.396057 1.209865-1.141719 2.348849-3.970347 3.321629-6.31735 2.187534-2.347003-1.138984-3.322476-3.964447-2.183202-6.310852.513407-1.06077 1.37153-1.842905 2.371452-2.275524l-2.163644-8.769688c-.422949-.075769-.841009-.207754-1.246845-.403288-.112461-.053772-.220032-.112432-.327603-.175981l-3.706309 4.653703c.797003 1.324741.929022 3.013664.205363 4.504609-1.141719 2.348849-3.970347 3.321629-6.31735 2.187534-2.347003-1.138984-3.322477-3.964447-2.183202-6.310852.459621-.945894 1.18817-1.669369 2.051183-2.121541l-1.772477-5.719362-.053785-.024441c-.070899-.034219-.141798-.070881-.212697-.109988l-2.222319 2.761914c.564748 1.236751.594085 2.705698-.046451 4.023107-1.141719 2.348849-3.970347 3.321629-6.31735 2.187533-2.347003-1.138984-3.322476-3.964446-2.183202-6.310851.393612-.811465.987697-1.459171 1.694243-1.911342l-2.694164-6.951225c-.442508.017109-.889905-.026886-1.332413-.136873zm-127.180676 49.582467c-1.14172 2.348849-3.970347 3.321629-6.31735 2.187534-2.347004-1.138984-3.322477-3.964447-2.183202-6.310852 1.139274-2.351293 3.967902-3.328961 6.31246-2.192422 2.347003 1.143873 3.324921 3.971779 2.188092 6.31574zm68.412696 0c-1.141719 2.348849-3.970347 3.321629-6.31735 2.187534-2.347003-1.138984-3.322477-3.964447-2.183202-6.310852 1.139274-2.351293 3.967902-3.328961 6.31246-2.192422 2.347003 1.143873 3.324921 3.971779 2.188092 6.31574zm192.918766-50.112853-37.099762 40.756564c.594085.828574.909463 1.833129.889905 2.854792l42.309621 7.977777c.23959-.479058.630757-.831019 1.087933-1.028996l-6.542271-50.35727c-.215142-.034219-.427839-.097767-.633202-.197978zm-53.707254 50.828995 4.209937-2.466169-4.288171 1.999333c.031783.153982.058675.307965.078234.466836zm62.799447-.202866 28.760567-30.073089.391167-63.8271-35.40552 40.108858c.396057.625708.469401 1.434729.124685 2.148427-.23959.496167-.640536.857904-1.107492 1.06077l6.544716 50.354826c.212697.031774.425394.097767.630757.195534zm-61.073422-12.299072c-.078233.31041-.188249.615931-.334937.916564-.638091 1.312521-1.804259 2.197311-3.119558 2.519942l-.975473 5.32585.073343.034218c.554969.271303 1.034149.635485 1.425316 1.065659l9.265773-4.313963c-.056231-.750361.066009-1.520275.386277-2.251082zm-8.532334 1.454282-2.398344 1.236751 2.74306 5.978444c.430284-.173536.885016-.283524 1.349527-.327519l.909463-4.959224c-.244479-.073325-.486514-.166204-.723659-.278636-.792114-.386179-1.42776-.963003-1.880047-1.649816zm-176.575313 3.057659c-1.141719 2.348849-3.970347 3.321629-6.31735 2.187534-2.347003-1.138984-3.322476-3.964447-2.183202-6.310852 1.139275-2.351293 3.967902-3.328961 6.312461-2.192422 2.347003 1.143873 3.324921 3.971779 2.188091 6.31574zm23.787855-4.724584c-1.14172 2.348849-3.970347 3.32163-6.317351 2.187534-2.347003-1.138984-3.322476-3.964447-2.183201-6.310852 1.139274-2.351293 3.967902-3.328961 6.31246-2.192422 2.347003 1.143873 3.324921 3.971779 2.188092 6.31574zm172.054886.689257 3.789433-66.461918-30.273896 50.0933c1.185726 1.244083 1.628234 3.072323 1.068375 4.751469l8.018928 5.751136c1.259069-.618375 2.782176-.669703 4.139038-.009776 1.635567.794356 2.606151 2.407509 2.659936 4.106208l7.217035 3.539161c.838565-1.053438 2.078076-1.68159 3.381151-1.76958zm-131.911354-1.500722c-1.369085 2.815686-4.755126 3.981556-7.569085 2.620152-2.811514-1.363848-3.982571-4.749025-2.613486-7.559823 1.364196-2.81813 4.752682-3.986444 7.561751-2.627485 2.811514 1.371181 3.985016 4.761247 2.62082 7.567156zm175.081543-41.279616 36.004495-40.785894-.17847-.109987-71.483359 14.574596c.039117.393511-.024448.801688-.210252 1.180535-.425394.879901-1.356861 1.346738-2.273659 1.22453l-3.808991 66.772327c.391167.075769.77989.202866 1.153943.386179.342272.166204.652761.366626.933912.596378l37.036198-40.683238c-.383833-.62082-.447397-1.41762-.105126-2.123986.528076-1.0901 1.838486-1.54716 2.931309-1.03144zm-71.219321 34.020426c-.11735.051328-.23959.097767-.361829.136874l1.276183 7.994885c.264038.07577.523186.173537.777444.298189.677209.327519 1.237067.7968 1.667351 1.351627l.914353-.471725zm2.092745-1.74025c-.286041.435062-.638092.809021-1.034148 1.116986l4.302839 9.373399 2.650157-1.363848c-.041561-.772358.107571-1.566714.466956-2.309742.276262-.569492.650316-1.055882 1.092823-1.454282zm-121.007569-19.135421-10.412382-20.687469 5.54724 40.822556c.985252.488834 1.770031 1.226974 2.307886 2.099544.701656-.127097 1.435095-.100211 2.14653.105099l1.185726-2.656815c-1.239511-1.385845-1.589117-3.434061-.726104-5.210974.484069-.997222 1.271293-1.747583 2.195425-2.194866l-.198028-4.018218c-.371609-.07577-.738328-.200422-1.095268-.371514-2.347003-1.138984-3.322476-3.964447-2.183202-6.310852.303155-.628152.728549-1.158537 1.232177-1.576491zm112.338326 16.500604-9.867192-.569492.625867 3.920451c.222477.068437.442508.156427.660095.261527.674763.327519 1.237066.7968 1.66735 1.354071l7.063013-3.759136c-.100237-.391068-.151578-.799245-.149133-1.207421zm156.823815 3.072324-41.490615-71.396701-.386277 62.969196 41.610409 9.424727c.007334-.307966.080678-.618376.222476-.914121zm-283.870027-88.786982-32.843375 37.733123c1.72358 1.407843 2.471687 3.720029 1.882492 5.873344l38.965141 45.200068c.180915.021998.36183.051328.542745.090434l-5.66948-41.729343c-.220031-.031775-.435173-.095323-.645426-.197978-1.097713-.53283-1.552444-1.852683-1.019479-2.950116.266482-.549938.733438-.941006 1.271293-1.124319l-2.058517-42.748563c-.144243-.034218-.286041-.083102-.425394-.14665zm325.72736 45.116965-53.736592-77.851757 14.055126 120.373013c.246924.026886.493849.092878.728549.207754.290931.141762.53541.33974.728549.571937l37.674289-36.535479c-1.00481-1.598489-1.185725-3.663814-.298264-5.487166.22981-.474169.515851-.901899.848343-1.278302zm-40.889195 42.736343-14.280047-122.321018-28.071135 49.609353 42.275394 72.750772.034227-.019554zm-235.333513-4.29441c-1.369085 2.815686-4.755126 3.981556-7.569085 2.620152-2.811514-1.363847-3.982571-4.749025-2.613486-7.559823 1.364196-2.81813 4.752681-3.986444 7.561751-2.627484 2.811514 1.37118 3.985015 4.761246 2.62082 7.567155zm84.721923-1.850238 30.359463-50.235061-63.997397 32.434159c.525631 1.217197.537855 2.649482-.085567 3.935116-.552524 1.141428-1.505994 1.955337-2.608596 2.363514l2.131861 8.637703c.510962.05866 1.021924.20531 1.510883.442395.782334.381291 1.413091.950783 1.865378 1.627818l7.569085-2.867013c-.244479-1.024108-.149132-2.136206.347161-3.15787 1.139275-2.351293 3.967903-3.328962 6.312461-2.192422 2.347003 1.143873 3.324921 3.971779 2.188091 6.31574-.65276 1.344294-1.860489 2.238861-3.214905 2.544383l.376498 2.353737 10.233912.589045c.075789-.273747.17847-.547494.308044-.813909 1.139274-2.351293 3.967902-3.328962 6.312461-2.192422.134463.065993.266482.136874.391167.215087zm-22.076498-1.493389-7.828234 2.964781 10.160568.586601-.371609-2.321963c-.205363-.068437-.408281-.149095-.608754-.244417-.520741-.254194-.975473-.589046-1.351971-.985002zm-38.307492-38.456598c-.17358.114877-.364274.202867-.562303.263971l-1.757807 9.524937c.156467.056216.308044.119765.459621.19309 2.347003 1.143872 3.324921 3.971779 2.188092 6.31574-.398502.823685-1.007256 1.478723-1.72847 1.930895l2.68194 6.926783c.76522-.036663 1.552444.112432 2.288328.469281.227366.109988.440063.23464.640536.376402l2.048738-2.546827c-.797003-1.322297-.926577-3.008775-.202918-4.49972 1.139275-2.351293 3.967902-3.328962 6.312461-2.192422 2.347003 1.143873 3.324921 3.971779 2.188091 6.31574-.711435 1.466503-2.08052 2.395288-3.581624 2.612819l1.48399 4.778356c.628312.024442 1.266404.175981 1.867823.469281.073344.034219.144243.070881.212697.109988l3.752761-4.709919c-.733439-1.302744-.833675-2.930562-.132019-4.377512.11246-.227308.237145-.442395.378943-.645261zm-38.397949-2.048215-14.683438 29.518261c.662539.554827 1.146609 1.273414 1.422871 2.065326l8.412539-.630597c.06112-.168648.129574-.334851.207807-.498611.843455-1.74025 2.611041-2.727695 4.422634-2.664147l3.151341-4.800353c-.987697-1.363848-1.212618-3.21653-.425394-4.83946.518296-1.068103 1.383754-1.852682 2.395899-2.285301l-3.786988-15.674473c-.371608.034218-.755441-.024442-1.117271-.190645zm35.901814 1.994444-25.081151 15.804014c.782334 1.319853.907018 2.99411.188249 4.475278-.327603.677036-.797003 1.239196-1.354417 1.66937l.931467 2.101987c1.281073-.667258 2.848186-.740584 4.244164-.061104 1.679574.816354 2.657492 2.495499 2.662382 4.245526l2.38123-.168647c.022003-.635485.176025-1.275858.471845-1.884457 1.13683-2.351293 3.963013-3.328962 6.307571-2.19731l4.520426-6.313296c-1.417981-1.380957-1.860489-3.566046-.94858-5.44317.880126-1.81602 2.765063-2.810798 4.659779-2.649482l1.704022-9.248746c-.12224-.034219-.24448-.080658-.364275-.136874-.114905-.056216-.222476-.119764-.322712-.193089zm-35.469085-6.154425 5.449448-39.788671-36.361435 47.900877c.476735.642817.589196 1.520275.217587 2.285301-.124685.256638-.290931.476613-.486514.657482l11.050473 21.95355c1.219952-.562159 2.669716-.601266 3.977681.007333l14.769006-29.689354c-.388722-.623264-.457177-1.427396-.112461-2.13865.303155-.625708.865458-1.043662 1.496215-1.187868zm129.415219-6.997663-14.113801-67.6693386-26.169085 49.9564256c.674763.645262.889905 1.676702.462066 2.559048-.452287.926341-1.464432 1.395622-2.430126 1.197644l-24.61175 46.986757c.613643.320187 1.129495.757694 1.532886 1.27097l64.818848-32.849668c-.00489-.337296.066009-.67948.222476-1.004555.080678-.163759.176025-.312854.288486-.447283zm-43.744716-15.060986-46.72492 26.128195c.053785.395956 0 .811465-.176025 1.200089l18.563327 21.344951c1.109937-.936118 2.613486-1.319853 4.05836-1.00211l24.689984-47.130964c-.166246-.158871-.303155-.342184-.410726-.540161zm-78.644162-17.862007c-.110016.036662-.222477.063548-.337382.083101l-5.464117 39.908436c.075789.026886.151577.05866.227366.092879 1.095268.535273 1.552445 1.85757 1.021924 2.952559-.154022.320187-.376498.584157-.640536.787024l3.816325 15.791793c.904574-.134429 1.855599-.004888 2.73817.422842.471846.229752.887461.525497 1.241956.875013l25.081151-15.804014c-.224921-.559715-.222476-1.207421.06112-1.791578.136908-.283524.325158-.523053.550079-.713698zm-2.823739-2.686145-33.405677-20.132643-4.720899 23.229408c1.053706.552383 1.48399 1.84535.963249 2.920786-.266483.552382-.733439.941006-1.271293 1.124319l2.058517 42.751007c.097792.021998.193139.051328.288486.08799l36.464116-48.037751c-.41806-.542606-.569637-1.263636-.376499-1.943116zm83.849132 17.326733 25.956387-49.5531373-61.457254 36.5183693c.129574.491279.090457 1.028997-.146688 1.522719-.391167.801689-1.202839 1.261193-2.038959 1.24164l-12.060173 38.336833c.05134.051328.100236.105099.146687.158871l46.957176-26.257737c.024448-.259082.092902-.518164.215142-.767469.447398-.926342 1.461988-1.395623 2.427682-1.200089zm-38.639984-14.440166-9.329337-47.5538053-.136909-.0195534-31.858123 43.9510957c.48407.642817.598975 1.522719.224922 2.292633-.075789.158871-.171136.305522-.278707.435063l28.418296 42.790114c.249369-.036662.503628-.02933.757887.024442l11.989274-38.116858c-.911909-.598822-1.256625-1.796466-.765221-2.803465.215142-.449728.564748-.789468.977918-.999666zm-119.694714 40.998536 38.547081-62.727223-41.336592 29.625806c.916798 1.57649 1.058596 3.563602.202918 5.323406-.530521 1.0901-1.364196 1.933339-2.349448 2.47839l4.339511 25.108976c.200473.051327.400946.114876.59653.190645zm35.16104-41.030311 4.205047-20.697246-36.234305 58.968087 30.352129-34.870998c-.405836-.628152-.481625-1.444505-.132019-2.165536.354495-.728363 1.056151-1.173202 1.809148-1.234307zm167.964745 32.795897 70.434542-14.359509-86.836671-53.8744334 14.074684 67.4811374c.501183-.141762 1.056152-.107544 1.55978.134429.308044.151539.567192.366626.767665.618376zm72.180125-14.716358.449842-.090435-30.418138-51.8384377-57.220425-2.1606478zm1.398423-.887235 27.523501-48.6414611-.310489-.1906454-57.129967-2.1557595zm-279.056226-11.07943 42.228943-30.268623-10.221688-20.9465513zm124.564746-5.726694 61.836197-36.7456781-72.400156-10.9669985 9.243769 47.1211866c.261593.021998.523187.092879.772556.212643.205362.100211.388722.229752.547634.378847zm-44.817981-4.712364 30.94377-42.692347-66.256387 23.207411 33.043848 19.915111c.601419-.547495 1.479101-.730808 2.268769-.430175zm-46.95962-41.9639838 10.397712 21.3058448 66.926261-64.8145456zm81.516796-45.8697707-68.877207 66.7063345 67.129179-23.5129318 2.395899-43.5575843zm134.101891 57.1129606 55.716876 2.1044319-84.660803-51.4302614zm-59.188485-2.2339729 57.738722 2.1802011-29.694479-50.6090196-.288486-.1759804zm-74.510014-11.1747531 73.155598 11.0818745 27.826656-48.7294516zm-.90213-.967892 99.009305-36.9118814-96.608516-6.7288047z" fill="#b13187" fill-rule="evenodd" transform="translate(55.613)"/></svg>