<svg xmlns="http://www.w3.org/2000/svg" width="1000" height="1000" viewBox="0 0 1000 1000">
  <g fill="#B13187" fill-rule="evenodd" transform="translate(73 19)">
    <path fill-rule="nonzero" d="M500 128.5C500 131.537694 497.536133 134 494.499362 134 491.462591 134 489 131.537694 489 128.5 489 125.463582 491.462591 123 494.499362 123 497.536133 123 500 125.463582 500 128.5M542 183.5C542 185.984772 539.984772 188 537.5 188 535.015228 188 533 185.984772 533 183.5 533 181.015228 535.015228 179 537.5 179 539.984772 179 542 181.015228 542 183.5M549 162.499365C549 164.985757 546.985757 167 544.499365 167 542.014243 167 540 164.985757 540 162.499365 540 160.014243 542.014243 158 544.499365 158 546.985757 158 549 160.014243 549 162.499365M574 151.5C574 153.984772 571.985757 156 569.499365 156 567.014243 156 565 153.984772 565 151.5 565 149.015228 567.014243 147 569.499365 147 571.985757 147 574 149.015228 574 151.5M601 148.5C601 150.984772 598.984772 153 596.5 153 594.015228 153 592 150.984772 592 148.5 592 146.015228 594.015228 144 596.5 144 598.984772 144 601 146.015228 601 148.5M626 160.5C626 162.984772 623.985757 165 621.500635 165 619.014243 165 617 162.984772 617 160.5 617 158.015228 619.014243 156 621.500635 156 623.985757 156 626 158.015228 626 160.5M614 156.499365C614 158.985757 611.984772 161 609.5 161 607.015228 161 605 158.985757 605 156.499365 605 154.014243 607.015228 152 609.5 152 611.984772 152 614 154.014243 614 156.499365M659 182.500635C659 184.985757 656.985757 187 654.499365 187 652.014243 187 650 184.985757 650 182.500635 650 180.014243 652.014243 178 654.499365 178 656.985757 178 659 180.014243 659 182.500635M644 172.500635C644 174.985757 641.985757 177 639.500635 177 637.014243 177 635 174.985757 635 172.500635 635 170.014243 637.014243 168 639.500635 168 641.985757 168 644 170.014243 644 172.500635M687 201.499365C687 203.985757 684.985757 206 682.499365 206 680.014243 206 678 203.985757 678 201.499365 678 199.014243 680.014243 197 682.499365 197 684.985757 197 687 199.014243 687 201.499365M670 208.5C670 210.984772 667.986041 213 665.5 213 663.015228 213 661 210.984772 661 208.5 661 206.015228 663.015228 204 665.5 204 667.986041 204 670 206.015228 670 208.5M659 199.5C659 201.984772 656.985757 204 654.500635 204 652.014243 204 650 201.984772 650 199.5 650 197.015228 652.014243 195 654.500635 195 656.985757 195 659 197.015228 659 199.5M644 188.5C644 190.984772 641.985757 193 639.500635 193 637.014243 193 635 190.984772 635 188.5 635 186.015228 637.014243 184 639.500635 184 641.985757 184 644 186.015228 644 188.5M628 178.5C628 180.984772 625.986041 183 623.5 183 621.015228 183 619 180.984772 619 178.5 619 176.015228 621.015228 174 623.5 174 625.986041 174 628 176.015228 628 178.5M615 170.499365C615 172.985757 612.984772 175 610.5 175 608.015228 175 606 172.985757 606 170.499365 606 168.014243 608.015228 166 610.5 166 612.984772 166 615 168.014243 615 170.499365M605 165.500635C605 167.985757 602.985757 170 600.499365 170 598.014243 170 596 167.985757 596 165.500635 596 163.014243 598.014243 161 600.499365 161 602.985757 161 605 163.014243 605 165.500635M590 161.500635C590 163.985757 587.985757 166 585.500635 166 583.014243 166 581 163.985757 581 161.500635 581 159.014243 583.014243 157 585.500635 157 587.985757 157 590 159.014243 590 161.500635M566 162.499365C566 164.985757 563.985757 167 561.499365 167 559.014243 167 557 164.985757 557 162.499365 557 160.014243 559.014243 158 561.499365 158 563.985757 158 566 160.014243 566 162.499365M550 174.499365C550 176.985757 547.984772 179 545.5 179 543.015228 179 541 176.985757 541 174.499365 541 172.014243 543.015228 170 545.5 170 547.984772 170 550 172.014243 550 174.499365M552 194.5C552 196.984772 549.984772 199 547.5 199 545.015228 199 543 196.984772 543 194.5 543 192.015228 545.015228 190 547.5 190 549.984772 190 552 192.015228 552 194.5M559 204.5C559 206.984772 556.986041 209 554.5 209 552.015228 209 550 206.984772 550 204.5 550 202.015228 552.015228 200 554.5 200 556.986041 200 559 202.015228 559 204.5M574 204.500635C574 206.985757 571.985757 209 569.500635 209 567.014243 209 565 206.985757 565 204.500635 565 202.014243 567.014243 200 569.500635 200 571.985757 200 574 202.014243 574 204.500635M579 161.500635C579 163.985757 576.985757 166 574.499365 166 572.014243 166 570 163.985757 570 161.500635 570 159.014243 572.014243 157 574.499365 157 576.985757 157 579 159.014243 579 161.500635M708 229.5C708 231.984772 705.984772 234 703.5 234 701.015228 234 699 231.984772 699 229.5 699 227.013959 701.015228 225 703.5 225 705.984772 225 708 227.013959 708 229.5M699 241.5C699 243.984772 696.984772 246 694.5 246 692.015228 246 690 243.984772 690 241.5 690 239.015228 692.015228 237 694.5 237 696.984772 237 699 239.015228 699 241.5M709 249.499365C709 251.985757 706.986041 254 704.5 254 702.015228 254 700 251.985757 700 249.499365 700 247.014243 702.015228 245 704.5 245 706.986041 245 709 247.014243 709 249.499365M715 238.5C715 240.984772 712.985757 243 710.499365 243 708.014243 243 706 240.984772 706 238.5 706 236.015228 708.014243 234 710.499365 234 712.985757 234 715 236.015228 715 238.5M715 261.499365C715 263.985757 712.985757 266 710.499365 266 708.014243 266 706 263.985757 706 261.499365 706 259.014243 708.014243 257 710.499365 257 712.985757 257 715 259.014243 715 261.499365M706 276.5C706 278.984772 703.984772 281 701.5 281 699.015228 281 697 278.984772 697 276.5 697 274.015228 699.015228 272 701.5 272 703.984772 272 706 274.015228 706 276.5M694 283.499365C694 285.985757 691.985757 288 689.500635 288 687.014243 288 685 285.985757 685 283.499365 685 281.014243 687.014243 279 689.500635 279 691.985757 279 694 281.014243 694 283.499365M704 286.5C704 288.984772 701.985757 291 699.500635 291 697.014243 291 695 288.984772 695 286.5 695 284.015228 697.014243 282 699.500635 282 701.985757 282 704 284.015228 704 286.5M683 218.5C683 220.984772 680.984772 223 678.5 223 676.015228 223 674 220.984772 674 218.5 674 216.015228 676.015228 214 678.5 214 680.984772 214 683 216.015228 683 218.5M696 215.499365C696 217.985757 693.985757 220 691.500635 220 689.014243 220 687 217.985757 687 215.499365 687 213.014243 689.014243 211 691.500635 211 693.985757 211 696 213.014243 696 215.499365M691 229.5C691 231.984772 688.984772 234 686.5 234 684.015228 234 682 231.984772 682 229.5 682 227.015228 684.015228 225 686.5 225 688.984772 225 691 227.015228 691 229.5M672 194.5C672 196.984772 669.984772 199 667.5 199 665.015228 199 663 196.984772 663 194.5 663 192.015228 665.015228 190 667.5 190 669.984772 190 672 192.015228 672 194.5M723 249.500635C723 251.985757 720.985757 254 718.499365 254 716.014243 254 714 251.985757 714 249.500635 714 247.014243 716.014243 245 718.499365 245 720.985757 245 723 247.014243 723 249.500635M721 276.5C721 278.986041 718.984772 281 716.5 281 714.015228 281 712 278.986041 712 276.5 712 274.015228 714.015228 272 716.5 272 718.984772 272 721 274.015228 721 276.5"/>
    <path fill-rule="nonzero" d="M701 293.5C701 295.984772 698.985757 298 696.500635 298 694.014243 298 692 295.984772 692 293.5 692 291.015228 694.014243 289 696.500635 289 698.985757 289 701 291.015228 701 293.5M684 286.499365C684 288.985757 681.984772 291 679.5 291 677.015228 291 675 288.985757 675 286.499365 675 284.014243 677.015228 282 679.5 282 681.984772 282 684 284.014243 684 286.499365M676 278.5C676 280.984772 673.984772 283 671.5 283 669.015228 283 667 280.984772 667 278.5 667 276.015228 669.015228 274 671.5 274 673.984772 274 676 276.015228 676 278.5"/>
    <path fill-rule="nonzero" d="M669 276.5C669 278.984772 666.984772 281 664.5 281 662.015228 281 660 278.984772 660 276.5 660 274.015228 662.015228 272 664.5 272 666.984772 272 669 274.015228 669 276.5M657 304.5C657 306.984772 654.984772 309 652.5 309 650.015228 309 648 306.984772 648 304.5 648 302.015228 650.015228 300 652.5 300 654.984772 300 657 302.015228 657 304.5M590 380.5C590 382.984772 587.985757 385 585.500635 385 583.014243 385 581 382.984772 581 380.5 581 378.015228 583.014243 376 585.500635 376 587.985757 376 590 378.015228 590 380.5M537 448.5C537 450.984772 534.984772 453 532.5 453 530.015228 453 528 450.984772 528 448.5 528 446.015228 530.015228 444 532.5 444 534.984772 444 537 446.015228 537 448.5M517 405.499365C517 407.985757 514.984772 410 512.5 410 510.015228 410 508 407.985757 508 405.499365 508 403.014243 510.015228 401 512.5 401 514.984772 401 517 403.014243 517 405.499365M457 410.5C457 412.984772 454.984772 415 452.5 415 450.013959 415 448 412.984772 448 410.5 448 408.015228 450.013959 406 452.5 406 454.984772 406 457 408.015228 457 410.5M474 366.5C474 368.984772 471.985757 371 469.499365 371 467.014243 371 465 368.984772 465 366.5 465 364.015228 467.014243 362 469.499365 362 471.985757 362 474 364.015228 474 366.5M483 334.500635C483 336.985757 480.984772 339 478.5 339 476.015228 339 474 336.985757 474 334.500635 474 332.014243 476.015228 330 478.5 330 480.984772 330 483 332.014243 483 334.500635M485 306.499365C485 308.985757 482.985757 311 480.500635 311 478.014243 311 476 308.985757 476 306.499365 476 304.014243 478.014243 302 480.500635 302 482.985757 302 485 304.014243 485 306.499365M491 285.5C491 287.433262 489.433262 289 487.501242 289 485.566738 289 484 287.433262 484 285.5 484 283.566738 485.566738 282 487.501242 282 489.433262 282 491 283.566738 491 285.5M499 261.499365C499 263.985757 496.984772 266 494.5 266 492.015228 266 490 263.985757 490 261.499365 490 259.014243 492.015228 257 494.5 257 496.984772 257 499 259.014243 499 261.499365M522 247.499365C522 249.985757 519.984772 252 517.5 252 515.015228 252 513 249.985757 513 247.499365 513 245.014243 515.015228 243 517.5 243 519.984772 243 522 245.014243 522 247.499365M532 227.500635C532 229.985757 529.984772 232 527.5 232 525.015228 232 523 229.985757 523 227.500635 523 225.014243 525.015228 223 527.5 223 529.984772 223 532 225.014243 532 227.500635M497 273.000658C497 275.208916 495.209937 277 493 277 490.790063 277 489 275.208916 489 273.000658 489 270.791084 490.790063 269 493 269 495.209937 269 497 270.791084 497 273.000658M510 246C510 248.209937 508.208916 250 505.999342 250 503.791084 250 502 248.209937 502 246 502 243.790063 503.791084 242 505.999342 242 508.208916 242 510 243.790063 510 246M643 300.500635C643 302.985757 640.985757 305 638.500635 305 636.014243 305 634 302.985757 634 300.500635 634 298.014243 636.014243 296 638.500635 296 640.985757 296 643 298.014243 643 300.500635M550 327.499365C550 329.985757 547.984772 332 545.5 332 543.015228 332 541 329.985757 541 327.499365 541 325.014243 543.015228 323 545.5 323 547.984772 323 550 325.014243 550 327.499365M539 353.5C539 355.984772 536.984772 358 534.5 358 532.015228 358 530 355.984772 530 353.5 530 351.015228 532.015228 349 534.5 349 536.984772 349 539 351.015228 539 353.5M586 280.5C586 282.984772 583.985757 285 581.500635 285 579.014243 285 577 282.984772 577 280.5 577 278.015228 579.014243 276 581.500635 276 583.985757 276 586 278.015228 586 280.5M570 310.500635C570 312.985757 567.984772 315 565.5 315 563.015228 315 561 312.985757 561 310.500635 561 308.014243 563.015228 306 565.5 306 567.984772 306 570 308.014243 570 310.500635M552 341.5C552 343.984772 549.984772 346 547.5 346 545.013959 346 543 343.984772 543 341.5 543 339.015228 545.013959 337 547.5 337 549.984772 337 552 339.015228 552 341.5M548 361.5C548 363.984772 545.985757 366 543.500635 366 541.014243 366 539 363.984772 539 361.5 539 359.015228 541.014243 357 543.500635 357 545.985757 357 548 359.015228 548 361.5M529 381.5C529 383.986041 526.984772 386 524.5 386 522.015228 386 520 383.986041 520 381.5 520 379.015228 522.015228 377 524.5 377 526.984772 377 529 379.015228 529 381.5M469 356.5C469 358.986041 466.984772 361 464.5 361 462.015228 361 460 358.986041 460 356.5 460 354.015228 462.015228 352 464.5 352 466.984772 352 469 354.015228 469 356.5M483 321.5C483 323.984772 480.984772 326 478.5 326 476.015228 326 474 323.984772 474 321.5 474 319.015228 476.015228 317 478.5 317 480.984772 317 483 319.015228 483 321.5"/>
    <path fill-rule="nonzero" d="M494 291.5C494 293.984772 491.985757 296 489.499365 296 487.014243 296 485 293.984772 485 291.5 485 289.015228 487.014243 287 489.499365 287 491.985757 287 494 289.015228 494 291.5M508 269.5C508 271.984772 505.984772 274 503.5 274 501.015228 274 499 271.984772 499 269.5 499 267.015228 501.015228 265 503.5 265 505.984772 265 508 267.015228 508 269.5M457 389.5C457 391.984772 454.984772 394 452.5 394 450.013959 394 448 391.984772 448 389.5 448 387.015228 450.013959 385 452.5 385 454.984772 385 457 387.015228 457 389.5M504 423.5C504 425.984772 501.984772 428 499.5 428 497.015228 428 495 425.984772 495 423.5 495 421.015228 497.015228 419 499.5 419 501.984772 419 504 421.015228 504 423.5M491 443.5C491 445.984772 488.984772 448 486.5 448 484.015228 448 482 445.984772 482 443.5 482 441.015228 484.015228 439 486.5 439 488.984772 439 491 441.015228 491 443.5M475 448.500635C475 450.985757 472.984772 453 470.5 453 468.015228 453 466 450.985757 466 448.500635 466 446.014243 468.015228 444 470.5 444 472.984772 444 475 446.014243 475 448.500635M479 472.499365C479 474.985757 476.985757 477 474.499365 477 472.014243 477 470 474.985757 470 472.499365 470 470.014243 472.014243 468 474.499365 468 476.985757 468 479 470.014243 479 472.499365M467 491.5C467 493.984772 464.984772 496 462.5 496 460.015228 496 458 493.984772 458 491.5 458 489.015228 460.015228 487 462.5 487 464.984772 487 467 489.015228 467 491.5M481 513.5C481 515.984772 478.986041 518 476.5 518 474.015228 518 472 515.984772 472 513.5 472 511.015228 474.015228 509 476.5 509 478.986041 509 481 511.015228 481 513.5M534 391.5C534 393.984772 531.984772 396 529.5 396 527.015228 396 525 393.984772 525 391.5 525 389.015228 527.015228 387 529.5 387 531.984772 387 534 389.015228 534 391.5M521 415.500635C521 417.985757 518.984772 420 516.5 420 514.015228 420 512 417.985757 512 415.500635 512 413.014243 514.015228 411 516.5 411 518.984772 411 521 413.014243 521 415.500635M504 435.5C504 437.984772 501.984772 440 499.5 440 497.015228 440 495 437.984772 495 435.5 495 433.015228 497.015228 431 499.5 431 501.984772 431 504 433.015228 504 435.5M491 454.5C491 456.984772 488.985757 459 486.500635 459 484.014243 459 482 456.984772 482 454.5 482 452.015228 484.014243 450 486.500635 450 488.985757 450 491 452.015228 491 454.5M464 479.5C464 481.984772 461.985757 484 459.500635 484 457.014243 484 455 481.984772 455 479.5 455 477.015228 457.014243 475 459.500635 475 461.985757 475 464 477.015228 464 479.5M427 513.5C427 515.984772 424.984772 518 422.5 518 420.015228 518 418 515.984772 418 513.5 418 511.015228 420.015228 509 422.5 509 424.984772 509 427 511.015228 427 513.5M409 527.500595C409 529.433475 407.432552 531 405.5 531 403.567448 531 402 529.433475 402 527.500595 402 525.567715 403.567448 524 405.5 524 407.432552 524 409 525.567715 409 527.500595M377 566.500595C377 568.433475 375.433741 570 373.501189 570 371.567448 570 370 568.433475 370 566.500595 370 564.566525 371.567448 563 373.501189 563 375.433741 563 377 564.566525 377 566.500595M359 581.500595C359 583.433475 357.433741 585 355.5 585 353.567448 585 352 583.433475 352 581.500595 352 579.566525 353.567448 578 355.5 578 357.433741 578 359 579.566525 359 581.500595M393.233492 549.685167C392.025284 551.195557 389.824108 551.440549 388.313848 550.233427 386.804776 549.026305 386.559805 546.823752 387.765635 545.313363 388.973843 543.805352 391.176208 543.559171 392.685279 544.766293 394.19554 545.973415 394.440511 548.175967 393.233492 549.685167M435 526.499365C435 528.985757 432.984772 531 430.5 531 428.015228 531 426 528.985757 426 526.499365 426 524.014243 428.015228 522 430.5 522 432.984772 522 435 524.014243 435 526.499365M446 576.5C446 578.984772 443.984772 581 441.5 581 439.015228 581 437 578.984772 437 576.5 437 574.015228 439.015228 572 441.5 572 443.984772 572 446 574.015228 446 576.5M372 679.5C372 681.984772 369.985757 684 367.500635 684 365.014243 684 363 681.984772 363 679.5 363 677.015228 365.014243 675 367.500635 675 369.985757 675 372 677.015228 372 679.5M371 720.499365C371 722.985757 368.985757 725 366.499365 725 364.014243 725 362 722.985757 362 720.499365 362 718.014243 364.014243 716 366.499365 716 368.985757 716 371 718.014243 371 720.499365M405 575.500635C405 577.985757 402.985757 580 400.500635 580 398.014243 580 396 577.985757 396 575.500635 396 573.014243 398.014243 571 400.500635 571 402.985757 571 405 573.014243 405 575.500635M382 634.499365C382 636.985757 379.984772 639 377.5 639 375.015228 639 373 636.985757 373 634.499365 373 632.014243 375.015228 630 377.5 630 379.984772 630 382 632.014243 382 634.499365M405 657.5C405 659.984772 402.985757 662 400.499365 662 398.014243 662 396 659.984772 396 657.5 396 655.015228 398.014243 653 400.499365 653 402.985757 653 405 655.015228 405 657.5M389 697.5C389 699.984772 386.984772 702 384.5 702 382.015228 702 380 699.984772 380 697.5 380 695.015228 382.015228 693 384.5 693 386.984772 693 389 695.015228 389 697.5M388 739.5C388 741.984772 385.984772 744 383.5 744 381.015228 744 379 741.984772 379 739.5 379 737.015228 381.015228 735 383.5 735 385.984772 735 388 737.015228 388 739.5M390 622.5C390 624.984772 387.985757 627 385.500635 627 383.014243 627 381 624.984772 381 622.5 381 620.015228 383.014243 618 385.500635 618 387.985757 618 390 620.015228 390 622.5M387 646.5C387 648.984772 384.984772 651 382.5 651 380.015228 651 378 648.984772 378 646.5 378 644.015228 380.015228 642 382.5 642 384.984772 642 387 644.015228 387 646.5M429 548.499365C429 550.985757 426.984772 553 424.5 553 422.015228 553 420 550.985757 420 548.499365 420 546.014243 422.015228 544 424.5 544 426.984772 544 429 546.014243 429 548.499365M425 504.500635C425 506.985757 422.984772 509 420.5 509 418.015228 509 416 506.985757 416 504.500635 416 502.014243 418.015228 500 420.5 500 422.984772 500 425 502.014243 425 504.500635M354 516.5C354 518.984772 351.984772 521 349.5 521 347.015228 521 345 518.984772 345 516.5 345 514.013959 347.015228 512 349.5 512 351.984772 512 354 514.013959 354 516.5M356 498C356 500.20901 354.208461 502 352 502 349.791539 502 348 500.20901 348 498 348 495.79099 349.791539 494 352 494 354.208461 494 356 495.79099 356 498M292 486C292 488.20901 290.208461 490 287.998774 490 285.790313 490 284 488.20901 284 486 284 483.79099 285.790313 482 287.998774 482 290.208461 482 292 483.79099 292 486M366 486C366 488.20901 364.208461 490 362 490 359.791539 490 358 488.20901 358 486 358 483.79099 359.791539 482 362 482 364.208461 482 366 483.79099 366 486M309 495.000613C309 497.209962 307.208461 499 304.998774 499 302.790313 499 301 497.209962 301 495.000613 301 492.791264 302.790313 491 304.998774 491 307.208461 491 309 492.791264 309 495.000613M305 505.999387C305 508.208736 303.209687 510 301 510 298.791539 510 297 508.208736 297 505.999387 297 503.790038 298.791539 502 301 502 303.209687 502 305 503.790038 305 505.999387M386 542.500635C386 544.985757 383.984772 547 381.5 547 379.015228 547 377 544.985757 377 542.500635 377 540.014243 379.015228 538 381.5 538 383.984772 538 386 540.014243 386 542.500635M387 520.5C387 522.984772 384.984772 525 382.5 525 380.015228 525 378 522.984772 378 520.5 378 518.015228 380.015228 516 382.5 516 384.984772 516 387 518.015228 387 520.5M370 561.5C370 563.984772 367.985757 566 365.500635 566 363.014243 566 361 563.984772 361 561.5 361 559.015228 363.014243 557 365.500635 557 367.985757 557 370 559.015228 370 561.5M337 602.499365C337 604.985757 334.984772 607 332.5 607 330.015228 607 328 604.985757 328 602.499365 328 600.014243 330.015228 598 332.5 598 334.984772 598 337 600.014243 337 602.499365M351 555.5C351 557.984772 348.985757 560 346.499365 560 344.014243 560 342 557.984772 342 555.5 342 553.015228 344.014243 551 346.499365 551 348.985757 551 351 553.015228 351 555.5M318 609.5C318 611.984772 315.985757 614 313.500635 614 311.014243 614 309 611.984772 309 609.5 309 607.015228 311.014243 605 313.500635 605 315.985757 605 318 607.015228 318 609.5M295 636.499365C295 638.985757 292.984772 641 290.5 641 288.015228 641 286 638.985757 286 636.499365 286 634.014243 288.015228 632 290.5 632 292.984772 632 295 634.014243 295 636.499365M318 630.5C318 632.986041 315.985757 635 313.500635 635 311.014243 635 309 632.986041 309 630.5 309 628.015228 311.014243 626 313.500635 626 315.985757 626 318 628.015228 318 630.5M349 580.5C349 582.984772 346.984772 585 344.5 585 342.015228 585 340 582.984772 340 580.5 340 578.015228 342.015228 576 344.5 576 346.984772 576 349 578.015228 349 580.5"/>
    <path fill-rule="nonzero" d="M405 523.500635C405 525.985757 402.984772 528 400.5 528 398.015228 528 396 525.985757 396 523.500635 396 521.014243 398.015228 519 400.5 519 402.984772 519 405 521.014243 405 523.500635M397 507.5C397 509.984772 394.984772 512 392.5 512 390.015228 512 388 509.984772 388 507.5 388 505.015228 390.015228 503 392.5 503 394.984772 503 397 505.015228 397 507.5M380 491.5C380 493.984772 377.985757 496 375.500635 496 373.014243 496 371 493.984772 371 491.5 371 489.015228 373.014243 487 375.500635 487 377.985757 487 380 489.015228 380 491.5M413 474.500635C413 476.985757 410.985757 479 408.500635 479 406.014243 479 404 476.985757 404 474.500635 404 472.014243 406.014243 470 408.500635 470 410.985757 470 413 472.014243 413 474.500635M384 481C384 483.210097 382.209124 485 380.000627 485 377.79213 485 376 483.210097 376 481 376 478.791157 377.79213 477 380.000627 477 382.209124 477 384 478.791157 384 481M404 469C404 471.210097 402.209124 473 400.000627 473 397.79213 473 396 471.210097 396 469 396 466.791157 397.79213 465 400.000627 465 402.209124 465 404 466.791157 404 469M394 482.500635C394 484.985757 391.985757 487 389.500635 487 387.014243 487 385 484.985757 385 482.500635 385 480.014243 387.014243 478 389.500635 478 391.985757 478 394 480.014243 394 482.500635M430 464.499365C430 466.985757 427.984772 469 425.5 469 423.015228 469 421 466.985757 421 464.499365 421 462.014243 423.015228 460 425.5 460 427.984772 460 430 462.014243 430 464.499365M477 461.5C477 463.984772 474.985757 466 472.499365 466 470.014243 466 468 463.984772 468 461.5 468 459.015228 470.014243 457 472.499365 457 474.985757 457 477 459.015228 477 461.5M567 298.499365C567 300.985757 564.984772 303 562.5 303 560.015228 303 558 300.985757 558 298.499365 558 296.014243 560.015228 294 562.5 294 564.984772 294 567 296.014243 567 298.499365M574 276.5C574 278.984772 571.985757 281 569.499365 281 567.014243 281 565 278.984772 565 276.5 565 274.015228 567.014243 272 569.499365 272 571.985757 272 574 274.015228 574 276.5M590 250.5C590 252.984772 587.985757 255 585.500635 255 583.014243 255 581 252.984772 581 250.5 581 248.015228 583.014243 246 585.500635 246 587.985757 246 590 248.015228 590 250.5M609 379.5C609 381.986041 606.984772 384 604.5 384 602.015228 384 600 381.986041 600 379.5 600 377.015228 602.015228 375 604.5 375 606.984772 375 609 377.015228 609 379.5M566 436.499365C566 438.985757 563.984772 441 561.5 441 559.015228 441 557 438.985757 557 436.499365 557 434.014243 559.015228 432 561.5 432 563.984772 432 566 434.014243 566 436.499365M518 472.499365C518 474.985757 515.984772 477 513.5 477 511.015228 477 509 474.985757 509 472.499365 509 470.014243 511.015228 468 513.5 468 515.984772 468 518 470.014243 518 472.499365M497 93.5C497 96.5376943 494.537123 99 491.498724 99 488.462877 99 486 96.5376943 486 93.5 486 90.4623057 488.462877 88 491.498724 88 494.537123 88 497 90.4623057 497 93.5M855 159.5C855 162.536418 852.537409 165 849.499362 165 846.463867 165 844 162.536418 844 159.5 844 156.462306 846.463867 154 849.499362 154 852.537409 154 855 156.462306 855 159.5M842 249.5C842 252.536418 839.537123 255 836.5 255 833.462877 255 831 252.536418 831 249.5 831 246.462306 833.462877 244 836.5 244 839.537123 244 842 246.462306 842 249.5M800 304.5C800 307.537694 797.537409 310 794.499362 310 791.463867 310 789 307.537694 789 304.5 789 301.462306 791.463867 299 794.499362 299 797.537409 299 800 301.462306 800 304.5M766 311.5C766 314.537694 763.537409 317 760.499362 317 757.463867 317 755 314.537694 755 311.5 755 308.462306 757.463867 306 760.499362 306 763.537409 306 766 308.462306 766 311.5M719 302.5C719 305.536418 716.537409 308 713.499362 308 710.462591 308 708 305.536418 708 302.5 708 299.462306 710.462591 297 713.499362 297 716.537409 297 719 299.462306 719 302.5M532 88.5006175C532 87.6718814 532.671881 87 533.499382 87 534.328119 87 535 87.6718814 535 88.5006175 535 89.3293536 534.328119 90 533.499382 90 532.671881 90 532 89.3293536 532 88.5006175M572 86.4993825C572 85.6706464 572.671881 85 573.499382 85 574.328119 85 575 85.6706464 575 86.4993825 575 87.3281186 574.328119 88 573.499382 88 572.671881 88 572 87.3281186 572 86.4993825M616 93.5006175C616 92.6718814 616.671881 92 617.500618 92 618.329354 92 619 92.6718814 619 93.5006175 619 94.3293536 618.329354 95 617.500618 95 616.671881 95 616 94.3293536 616 93.5006175M564 128.499382C564 127.671881 564.671881 127 565.499382 127 566.328119 127 567 127.671881 567 128.499382 567 129.328119 566.328119 130 565.499382 130 564.671881 130 564 129.328119 564 128.499382M531 133.499382C531 132.670646 531.670646 132 532.499382 132 533.328119 132 534 132.670646 534 133.499382 534 134.328119 533.328119 135 532.499382 135 531.670646 135 531 134.328119 531 133.499382M599 133.500618C599 132.671881 599.671881 132 600.499382 132 601.328119 132 602 132.671881 602 133.500618 602 134.329354 601.328119 135 600.499382 135 599.671881 135 599 134.329354 599 133.500618M652 110.500618C652 109.671881 652.671881 109 653.499382 109 654.328119 109 655 109.671881 655 110.500618 655 111.329354 654.328119 112 653.499382 112 652.671881 112 652 111.329354 652 110.500618M802 197.500618C802 196.671881 802.671881 196 803.499382 196 804.328119 196 805 196.671881 805 197.500618 805 198.328119 804.328119 199 803.499382 199 802.671881 199 802 198.328119 802 197.500618M780 221.499382C780 220.670646 780.671881 220 781.500618 220 782.328119 220 783 220.670646 783 221.499382 783 222.328119 782.328119 223 781.500618 223 780.671881 223 780 222.328119 780 221.499382M780 280.499382C780 279.670646 780.671605 279 781.5 279 782.328395 279 783 279.670646 783 280.499382 783 281.328119 782.328395 282 781.5 282 780.671605 282 780 281.328119 780 280.499382M745 282.499382C745 281.671881 745.671881 281 746.500618 281 747.328119 281 748 281.671881 748 282.499382 748 283.328119 747.328119 284 746.500618 284 745.671881 284 745 283.328119 745 282.499382M742 243.499382C742 242.670646 742.671605 242 743.5 242 744.328395 242 745 242.670646 745 243.499382 745 244.328119 744.328395 245 743.5 245 742.671605 245 742 244.328119 742 243.499382M728 213.499382C728 212.671881 728.670646 212 729.499382 212 730.328119 212 731 212.671881 731 213.499382 731 214.328119 730.328119 215 729.499382 215 728.670646 215 728 214.328119 728 213.499382M725 160.5C725 159.671605 725.670646 159 726.499382 159 727.328119 159 728 159.671605 728 160.5 728 161.328395 727.328119 162 726.499382 162 725.670646 162 725 161.328395 725 160.5M801 267C801 265.896513 801.895388 265 803 265 804.104612 265 805 265.896513 805 267 805 268.104612 804.104612 269 803 269 801.895388 269 801 268.104612 801 267M764 121.499382C764 120.670646 764.671605 120 765.5 120 766.328395 120 767 120.670646 767 121.499382 767 122.328119 766.328395 123 765.5 123 764.671605 123 764 122.328119 764 121.499382M691 130.499382C691 129.671881 691.670646 129 692.499382 129 693.328119 129 694 129.671881 694 130.499382 694 131.328119 693.328119 132 692.499382 132 691.670646 132 691 131.328119 691 130.499382"/>
    <polygon fill-rule="nonzero" points="493.59 129 493.227 128.707 540.265 63.606 490.252 94.283 490 93.896 542 62 495.386 126.518 533.606 87.786 533.942 88.105"/>
    <polygon fill-rule="nonzero" points="664.734 208 653 181.151 681.206 202.138 691.694 130.368 681.633 59.794 765.757 120.429 713.083 13.199 713.508 13 767 121.891 682.25 60.811 692.165 130.398 681.56 202.977 654.13 182.57 665.168 207.819"/>
    <polygon fill-rule="nonzero" points="692.001 130 691.943 129.548 765.959 120.423 797.201 73.403 682 60.451 682.052 60 798 73.032 797.792 73.343 766.239 120.848 766.13 120.862"/>
    <path fill-rule="nonzero" d="M614.817358,2.08424228 L541.556325,62.6392977 L610.376732,43.7407315 L614.817358,2.08424228 Z M536.002137,184 L532,134.224099 L574.387227,85.346358 L610.291264,44.519798 L610.319753,44.2369522 L609.483652,44.4887842 L539.6079,63.6478663 L540.429137,62.9680439 L615.40077,1 L610.858574,43.5918652 L714,12.3336813 L682.360697,60.1656374 L653.633504,111.013375 L621.606498,160.053628 L692.517777,130.209674 L692.016116,130.885774 L653.717733,182.579568 L653.585196,182.569644 L622.666798,180.318042 L622.700242,179.857798 L653.493534,182.104437 L691.136662,131.288954 L620.387649,161.060957 L620.801364,160.434478 L653.232175,110.77767 L681.95813,59.9299325 L712.906256,13.1462428 L610.807789,44.088086 L610.740901,44.7083619 L610.691354,44.7666678 L574.741486,85.6440904 L532.475649,134.375447 L536.471592,183.962783 L536.002137,184 Z"/>
    <polygon fill-rule="nonzero" points="570.256 153 565.439 127.993 573.559 86.952 541 63.368 541.278 63 574.076 86.755 574.047 86.896 565.907 128.036 570.584 152.236 601 132.373 596.152 151.419 595.699 151.31 600.251 133.41"/>
    <path fill-rule="nonzero" d="M610.913903,44.5925997 L616.917355,93.6630746 L681.66011,60.49609 L610.913903,44.5925997 Z M620.874994,161 L600,133.457753 L600.052107,133.338737 L616.474447,94.4069235 L616.202747,94.5457753 L615.984395,94.1403776 L616.474447,93.8899485 L610.369262,44 L610.69431,44.0743849 L683,60.3274843 L682.43799,60.6151059 L616.974425,94.1490559 L617.001719,94.3585733 L616.980628,94.414362 L600.538437,133.393286 L621.257111,160.729735 L620.874994,161 Z"/>
    <polygon fill-rule="nonzero" points="600.861 134 600.761 133.82 574 87.228 574.403 87 601.06 133.413 653.821 111.106 654 111.534"/>
    <polygon fill-rule="nonzero" points="681 203.01 681.307 202.717 765.677 121 766 121.328 681.937 202.751 729.113 213.413 725.883 160.379 726.344 160.353 729.615 214"/>
    <polygon fill-rule="nonzero" points="701.238 230 701 229.605 729.223 213.373 760.808 185.519 764.635 120.916 803.419 196.616 797.201 74.023 797.669 74 804 198.761 803.503 197.79 765.003 122.652 761.264 185.734 761.192 185.794 729.494 213.739"/>
    <path fill-rule="nonzero" d="M730.012299,213.847578 L718.693829,249.247877 L743.301789,243.519316 L780.336609,221.449295 L780.979548,221.061276 L730.012299,213.847578 Z M780.684144,221.776571 L745.914508,282.798573 L782.187233,279.771275 L803.301225,267.386873 L803.483681,266.659181 L848.789833,159.653733 L804.55111,197.825956 L781.850868,221.08111 L780.684144,221.776571 Z M745.0767,283.325437 L779.874884,222.260046 L743.445768,243.954444 L718,249.880114 L729.678417,213.347987 L729.873285,213.371541 L781.731714,220.684413 L781.144628,220.962101 L781.576564,220.705487 L804.227158,197.494961 L850,158 L849.611506,158.913644 L803.929271,266.799265 L803.862246,267.060837 L836.217755,248.765641 L836.452341,249.162339 L803.705855,267.685636 L794.130025,305 L793.673264,304.888429 L803.137387,268.015391 L782.282805,280.223758 L745.0767,283.325437 Z"/>
    <polygon fill-rule="nonzero" points="716 276.194 716.101 275.744 745.783 282.261 718.26 249.289 718.619 249 747 283"/>
    <rect width="39" height="1" x="725" y="263" transform="scale(-1 1) rotate(-85.661 0 1066.636)"/>
    <polygon fill-rule="nonzero" points="544.839 163 532.225 134.01 533.265 88.163 540.66 63.266 531 40.17 531.439 40 541.158 63.243 541.14 63.316 533.725 88.26 532.705 133.971 544.913 161.98 565.59 127.863 566 128.09"/>
    <path fill-rule="nonzero" d="M781.949407,279.54144 L781.515755,280.107348 L759.876283,308.54732 L802.444384,267.321285 L781.041449,222.111653 L781.563802,279.661294 L781.949407,279.54144 Z M713.139212,301.28442 L713,300.847016 L781.096887,279.804625 L780.556054,220 L803,267.418898 L802.886659,267.531338 L758.003696,311 L757.656282,310.700983 L780.713746,280.400187 L713.139212,301.28442 Z"/>
    <polygon fill-rule="nonzero" points="803.538 266 803.217 197.426 761 185.44 761.125 185 803.681 197.081 803.683 197.253 804 265.999"/>
    <path fill-rule="nonzero" d="M523.98356,254.565885 L491.402327,316.99217 L568.336661,277.416373 L524.691875,253.802716 L523.98356,254.565885 Z M491.041371,317.803657 L480.751649,369.856534 L543.582735,329.153328 L491.041371,317.803657 Z M480.536559,370.604837 L457.372324,410.360276 L525.333437,379.254918 L480.536559,370.604837 Z M456.743123,411.441845 L426.009935,464.187274 L469.142955,450.164032 L456.743123,411.441845 Z M425,465 L456.552756,410.845929 L456.521852,410.751772 L456.639286,410.69726 L480.051988,370.513157 L479.814647,370.466079 L480.207743,370.210863 L490.585231,317.705783 L490.182246,317.619059 L490.682887,317.360127 L523.595409,254.303236 L524.271584,253.573517 L523.709135,253.269984 L524.599164,253.219188 L570.120427,204.261113 L570.46284,204.570841 L525.265449,253.185738 L584.950531,249.814659 L571.388718,202.39779 L571.634712,202.350711 L638.915942,190 L639,190.448486 L571.974653,202.754596 L585.559953,250.238367 L585.266986,250.25695 L525.350743,253.636702 L569.319401,277.426285 L568.934958,277.624511 L491.533359,317.440656 L544.764496,328.940235 L544.299703,329.236335 L481.018658,370.231924 L526.830416,379.075276 L526.181437,379.372615 L457.088009,410.997076 L469.726418,450.453937 L469.506383,450.528272 L425,465 Z"/>
    <polygon fill-rule="nonzero" points="313 629.986 313.541 611.487 313.605 611.423 345.439 579.851 346.511 554.91 346.659 554.856 381.54 542.607 381.776 521.16 381.915 521.103 419.812 505.293 425.533 464 426 464.059 420.239 505.612 420.116 505.664 382.241 521.466 382.005 542.931 381.851 542.985 346.968 555.233 345.9 580.048 345.837 580.109 314.005 611.679 313.468 630"/>
    <polygon fill-rule="nonzero" points="301 506.349 305.174 495.185 305.611 495.344 301.71 505.781 352.538 498.295 350.274 515.709 375.18 490.913 375.347 491.076 392.292 507.409 407.574 474 408 474.188 392.442 508.196 375.185 491.567 349.636 517 351.998 498.837"/>
    <polygon fill-rule="nonzero" points="581 280.166 581.16 279.736 637.005 299.833 584.811 249.926 585.101 249.784 681.789 203 682 203.41 585.607 250.047 638.897 301"/>
    <polygon fill-rule="nonzero" points="476.209 515 463 491.395 463.41 491.175 475.975 513.622 486.181 454.26 486.354 454.237 533.381 448.015 526.364 391.043 526.582 391.002 585.542 379.774 564.861 310.018 565.131 309.982 637.934 300 638 300.451 565.464 310.397 586.136 380.127 585.887 380.175 526.883 391.411 533.898 448.41 533.672 448.44 486.585 454.668"/>
    <polygon fill-rule="nonzero" points="399 574.608 399.026 574.149 440.677 576.492 423.896 548.634 424.074 548.512 474.462 514.176 429.554 526.488 429.428 526.044 477 513 424.519 548.768 441.524 577 441.088 576.971"/>
    <polygon fill-rule="nonzero" points="366 722.743 384.16 696.341 367.513 679.091 367.735 678.941 400.005 656.669 380.74 646.913 380.929 646.697 438.816 579.161 385.263 624.118 384.959 623.768 440.671 577 441 577.323 381.472 646.771 400.902 656.611 400.587 656.825 368.221 679.164 384.752 696.294 384.649 696.445 366.384 723"/>
    <polygon fill-rule="nonzero" points="586.355 380 586 379.701 651.744 303.888 677.553 218 678 218.129 652.162 304.111 652.131 304.147"/>
    <polygon fill-rule="nonzero" points="576.513 443 577 443 574.485 366 574 366" transform="scale(-1 1) rotate(-46.408 0 1746.992)"/>
    <polygon fill-rule="nonzero" points="458.544 507 459 507 457.456 434.005 457 434" transform="scale(-1 1) rotate(-49.116 0 1472.789)"/>
    <path fill-rule="nonzero" d="M536 182C536 184.760736 533.762014 187 531 187 528.239264 187 526 184.760736 526 182 526 179.237986 528.239264 177 531 177 533.762014 177 536 179.237986 536 182M515 181.5C515 183.984864 512.985776 186 510.499413 186 508.014224 186 506 183.984864 506 181.5 506 179.015136 508.014224 177 510.499413 177 512.985776 177 515 179.015136 515 181.5M494 184.5C494 186.985075 491.986006 189 489.5006 189 487.015194 189 485 186.985075 485 184.5 485 182.014925 487.015194 180 489.5006 180 491.986006 180 494 182.014925 494 184.5M472 189.5C472 191.984745 469.98502 194 467.499387 194 465.01498 194 463 191.984745 463 189.5 463 187.015255 465.01498 185 467.499387 185 469.98502 185 472 187.015255 472 189.5M451 197.5C451 199.984962 448.984962 202 446.5 202 444.015038 202 442 199.984962 442 197.5 442 195.016291 444.015038 193 446.5 193 448.984962 193 451 195.016291 451 197.5M430 207.5C430 209.983908 427.986184 212 425.500641 212 423.015098 212 421 209.983908 421 207.5 421 205.016092 423.015098 203 425.500641 203 427.986184 203 430 205.016092 430 207.5M408 219.000583C408 221.210173 406.209913 223 404 223 401.791254 223 400 221.210173 400 219.000583 400 216.790993 401.791254 215 404 215 406.209913 215 408 216.790993 408 219.000583M387 234C387 236.208955 385.208955 238 382.998806 238 380.791045 238 379 236.208955 379 234 379 231.789851 380.791045 230 382.998806 230 385.208955 230 387 231.789851 387 234M366 250C366 252.209174 364.2089 254 361.999388 254 359.7911 254 358 252.209174 358 250 358 247.790826 359.7911 246 361.999388 246 364.2089 246 366 247.790826 366 250M345 268.000627C345 270.209817 343.209124 272 341.000627 272 338.790876 272 337 270.209817 337 268.000627 337 265.790183 338.790876 264 341.000627 264 343.209124 264 345 265.790183 345 268.000627M324 287.999357C324 290.208782 322.20907 292 320.001287 292 317.792216 292 316 290.208782 316 287.999357 316 285.789931 317.792216 284 320.001287 284 322.20907 284 324 285.789931 324 287.999357M302 308.5C302 310.433785 300.434043 312 298.500578 312 296.568268 312 295 310.433785 295 308.5 295 306.566215 296.568268 305 298.500578 305 300.434043 305 302 306.566215 302 308.5M282 330.5C282 332.432836 280.434023 334 278.5 334 276.567164 334 275 332.432836 275 330.5 275 328.565977 276.567164 327 278.5 327 280.434023 327 282 328.565977 282 330.5M261 353.5C261 355.433054 259.433054 357 257.5 357 255.566946 357 254 355.433054 254 353.5 254 351.566946 255.566946 350 257.5 350 259.433054 350 261 351.566946 261 353.5M241 377.5C241 379.432723 239.432723 381 237.5 381 235.567277 381 234 379.432723 234 377.5 234 375.567277 235.567277 374 237.5 374 239.432723 374 241 375.567277 241 377.5M222 402.499354C222 404.431948 220.433241 406 218.500646 406 216.568052 406 215 404.431948 215 402.499354 215 400.566759 216.568052 399 218.500646 399 220.433241 399 222 400.566759 222 402.499354M202 427.5C202 429.431861 200.432895 431 198.500666 431 196.567105 431 195 429.431861 195 427.5 195 425.566806 196.567105 424 198.500666 424 200.432895 424 202 425.566806 202 427.5M182 452.999411C182 454.655802 180.656066 456 179 456 177.343934 456 176 454.655802 176 452.999411 176 451.34302 177.343934 450 179 450 180.656066 450 182 451.34302 182 452.999411M164 479.000608C164 480.65599 162.657207 482 161.000608 482 159.34401 482 158 480.65599 158 479.000608 158 477.34401 159.34401 476 161.000608 476 162.657207 476 164 477.34401 164 479.000608M145 504.999371C145 506.656191 143.656885 508 141.999371 508 140.343115 508 139 506.656191 139 504.999371 139 503.343809 140.343115 502 141.999371 502 143.656885 502 145 503.343809 145 504.999371M128 531C128 532.656114 126.657124 534 124.999349 534 123.342876 534 122 532.656114 122 531 122 529.343886 123.342876 528 124.999349 528 126.657124 528 128 529.343886 128 531M110 557.000674C110 558.65738 108.657079 560 107 560 105.342921 560 104 558.65738 104 557.000674 104 555.343968 105.342921 554 107 554 108.657079 554 110 555.343968 110 557.000674M92 582.499417C92 583.880214 90.8811189 585 89.5 585 88.1200466 585 87 583.880214 87 582.499417 87 581.11862 88.1200466 580 89.5 580 90.8811189 580 92 581.11862 92 582.499417M76 606.5C76 607.882025 74.8801453 609 73.5 609 72.1198547 609 71 607.882025 71 606.5 71 605.119186 72.1198547 604 73.5 604 74.8801453 604 76 605.119186 76 606.5M61 630.50063C61 631.882027 59.8810484 633 58.5012601 633 57.1189516 633 56 631.882027 56 630.50063 56 629.119234 57.1189516 628 58.5012601 628 59.8810484 628 61 629.119234 61 630.50063M46 654.499343C46 655.881009 44.8799895 657 43.501313 657 42.1200105 657 41 655.881009 41 654.499343 41 653.118991 42.1200105 652 43.501313 652 44.8799895 652 46 653.118991 46 654.499343M31 676.5C31 677.880965 29.8809654 679 28.5 679 27.1190346 679 26 677.880965 26 676.5 26 675.119035 27.1190346 674 28.5 674 29.8809654 674 31 675.119035 31 676.5M17 696.999426C17 698.104735 16.1049914 699 15 699 13.8950086 699 13 698.104735 13 696.999426 13 695.895265 13.8950086 695 15 695 16.1049914 695 17 695.895265 17 696.999426M4 716.000602C4 717.104962 3.10496241 718 1.9993985 718 .895037594 718 0 717.104962 0 716.000602 0 714.895038.895037594 714 1.9993985 714 3.10496241 714 4 714.895038 4 716.000602"/>
    <path fill-rule="nonzero" d="M541 182C541 184.760736 538.762014 187 536 187 533.239264 187 531 184.760736 531 182 531 179.237986 533.239264 177 536 177 538.762014 177 541 179.237986 541 182M512 196.49941C512 198.984123 509.985956 201 507.499409 201 505.014044 201 503 198.984123 503 196.49941 503 194.014696 505.014044 192 507.499409 192 509.985956 192 512 194.014696 512 196.49941M485 213.499393C485 215.985165 482.985437 218 480.5 218 478.014563 218 476 215.985165 476 213.499393 476 211.013621 478.014563 209 480.5 209 482.985437 209 485 211.013621 485 213.499393M458 231.5C458 233.985298 455.985578 236 453.500624 236 451.014422 236 449 233.985298 449 231.5 449 229.014702 451.014422 227 453.500624 227 455.985578 227 458 229.014702 458 231.5M432 249.5C432 251.985727 429.98473 254 427.499358 254 425.01527 254 423 251.985727 423 249.5 423 247.014273 425.01527 245 427.499358 245 429.98473 245 432 247.014273 432 249.5M406 267.999412C406 270.208499 404.209938 272 402.001176 272 399.791238 272 398 270.208499 398 267.999412 398 265.790325 399.791238 264 402.001176 264 404.209938 264 406 265.790325 406 267.999412M382 288C382 290.207942 380.207942 292 378 292 375.790846 292 374 290.207942 374 288 374 285.790846 375.790846 284 378 284 380.207942 284 382 285.790846 382 288M358 309C358 311.210263 356.209291 313 354.000626 313 351.790709 313 350 311.210263 350 309 350 306.789737 351.790709 305 354.000626 305 356.209291 305 358 306.789737 358 309M335 329.999354C335 332.208434 333.209438 334 331 334 328.790562 334 327 332.208434 327 329.999354 327 327.791566 328.790562 326 331 326 333.209438 326 335 327.791566 335 329.999354M312 351.5C312 353.432487 310.432487 355 308.5 355 306.566344 355 305 353.432487 305 351.5 305 349.567513 306.566344 348 308.5 348 310.432487 348 312 349.567513 312 351.5M291 373.499395C291 375.433143 289.432601 377 287.499394 377 285.567399 377 284 375.433143 284 373.499395 284 371.566857 285.567399 370 287.499394 370 289.432601 370 291 371.566857 291 373.499395M271 395.500628C271 397.433004 269.432723 399 267.5 399 265.567277 399 264 397.433004 264 395.500628 264 393.566996 265.567277 392 267.5 392 269.432723 392 271 393.566996 271 395.500628M251 417.5C251 419.432427 249.433147 421 247.5 421 245.566853 421 244 419.432427 244 417.5 244 415.568876 245.566853 414 247.5 414 249.433147 414 251 415.568876 251 417.5M232 440C232 441.657375 230.656214 443 229 443 227.342625 443 226 441.657375 226 440 226 438.342625 227.342625 437 229 437 230.656214 437 232 438.342625 232 440M214 462C214 463.657258 212.657529 465 211.000605 465 209.342471 465 208 463.657258 208 462 208 460.342742 209.342471 459 211.000605 459 212.657529 459 214 460.342742 214 462M197 484C197 485.655738 195.657978 487 193.999369 487 192.343284 487 191 485.655738 191 484 191 482.344262 192.343284 481 193.999369 481 195.657978 481 197 482.344262 197 484M181 506C181 507.658172 179.655831 509 178.000659 509 176.344169 509 175 507.658172 175 506 175 504.343146 176.344169 503 178.000659 503 179.655831 503 181 504.343146 181 506M165 526.500575C165 527.880202 163.880202 529 162.499425 529 161.119798 529 160 527.880202 160 526.500575 160 525.119798 161.119798 524 162.499425 524 163.880202 524 165 525.119798 165 526.500575M151 547.500603C151 548.881245 149.880309 550 148.5 550 147.118485 550 146 548.881245 146 547.500603 146 546.118755 147.118485 545 148.5 545 149.880309 545 151 546.118755 151 547.500603M137 567.499365C137 568.880427 135.880427 570 134.499365 570 133.118304 570 132 568.880427 132 567.499365 132 566.119573 133.118304 565 134.499365 565 135.880427 565 137 566.119573 137 567.499365M125 587.5C125 588.880557 123.880557 590 122.5 590 121.119443 590 120 588.880557 120 587.5 120 586.119443 121.119443 585 122.5 585 123.880557 585 125 586.119443 125 587.5M112 606C112 607.104816 111.104816 608 110 608 108.895184 608 108 607.104816 108 606 108 604.895184 108.895184 604 110 604 111.104816 604 112 604.895184 112 606M102 624.000602C102 625.104962 101.104029 626 100 626 98.8959711 626 98 625.104962 98 624.000602 98 622.895038 98.8959711 622 100 622 101.104029 622 102 622.895038 102 624.000602M576 170.999361C576 173.761022 573.760736 176 571 176 568.237986 176 566 173.761022 566 170.999361 566 168.238978 568.237986 166 571 166 573.760736 166 576 168.238978 576 170.999361M556 182.99935C556 185.761466 553.760884 188 550.99935 188 548.237817 188 546 185.761466 546 182.99935 546 180.238534 548.237817 178 550.99935 178 553.760884 178 556 180.238534 556 182.99935M537 194.500595C537 196.986388 534.986388 199 532.500595 199 530.014801 199 528 196.986388 528 194.500595 528 192.014801 530.014801 190 532.500595 190 534.986388 190 537 192.014801 537 194.500595M519 206.5C519 208.985887 516.985346 211 514.49879 211 512.014654 211 510 208.985887 510 206.5 510 204.015323 512.014654 202 514.49879 202 516.985346 202 519 204.015323 519 206.5M503 218.5C503 220.985773 500.984817 223 498.500616 223 496.015183 223 494 220.985773 494 218.5 494 216.014227 496.015183 214 498.500616 214 500.984817 214 503 216.014227 503 218.5M488 230.5C488 232.984962 485.984962 235 483.5 235 481.015038 235 479 232.984962 479 230.5 479 228.015038 481.015038 226 483.5 226 485.984962 226 488 228.015038 488 230.5M474 242.500638C474 244.985113 471.985113 247 469.500638 247 467.013611 247 465 244.985113 465 242.500638 465 240.014887 467.013611 238 469.500638 238 471.985113 238 474 240.014887 474 242.500638M461 254.50065C461 256.98556 458.98426 259 456.49935 259 454.01444 259 452 256.98556 452 254.50065 452 252.01574 454.01444 250 456.49935 250 458.98426 250 461 252.01574 461 254.50065M448 267.000589C448 269.209272 446.209798 271 444.000588 271 441.791379 271 440 269.209272 440 267.000589 440 264.790728 441.791379 263 444.000588 263 446.209798 263 448 264.790728 448 267.000589M437 279C437 281.209958 435.20969 283 432.9994 283 430.79031 283 429 281.209958 429 279 429 276.791242 430.79031 275 432.9994 275 435.20969 275 437 276.791242 437 279M427 291C427 293.209174 425.2089 295 422.999388 295 420.7911 295 419 293.209174 419 291 419 288.790826 420.7911 287 422.999388 287 425.2089 287 427 288.790826 427 291M417 304C417 306.210296 415.2078 308 413 308 410.789704 308 409 306.210296 409 304 409 301.789704 410.789704 300 413 300 415.2078 300 417 301.789704 417 304M408 315.999363C408 318.208499 406.209487 320 403.998727 320 401.790513 320 400 318.208499 400 315.999363 400 313.791501 401.790513 312 403.998727 312 406.209487 312 408 313.791501 408 315.999363M399 329.00065C399 331.209654 397.209654 333 395.00065 333 392.791646 333 391 331.209654 391 329.00065 391 326.791646 392.791646 325 395.00065 325 397.209654 325 399 326.791646 399 329.00065M390 341.499419C390 343.432697 388.432437 345 386.498838 345 384.566401 345 383 343.432697 383 341.499419 383 339.567303 384.566401 338 386.498838 338 388.432437 338 390 339.567303 390 341.499419M382 354.5C382 356.434023 380.434023 358 378.501187 358 376.567164 358 375 356.434023 375 354.5 375 352.567164 376.567164 351 378.501187 351 380.434023 351 382 352.567164 382 354.5M374 368.499393C374 370.432311 372.433252 372 370.5 372 368.566748 372 367 370.432311 367 368.499393 367 366.566476 368.566748 365 370.5 365 372.433252 365 374 366.566476 374 368.499393M367 381.499379C367 383.43341 365.43341 385 363.500621 385 361.56659 385 360 383.43341 360 381.499379 360 379.56659 361.56659 378 363.500621 378 365.43341 378 367 379.56659 367 381.499379M360 395.500635C360 397.432589 358.43386 399 356.500635 399 354.567411 399 353 397.432589 353 395.500635 353 393.567411 354.567411 392 356.500635 392 358.43386 392 360 393.567411 360 395.500635M352 409.49935C352 411.432448 350.432739 413 348.5 413 346.565961 413 345 411.432448 345 409.49935 345 407.566252 346.565961 406 348.5 406 350.432739 406 352 407.566252 352 409.49935M345 423.5C345 425.433194 343.431861 427 341.5 427 339.566806 427 338 425.433194 338 423.5 338 421.568139 339.566806 420 341.5 420 343.431861 420 345 421.568139 345 423.5M337 438C337 439.657433 335.657171 441 333.999415 441 332.342829 441 331 439.657433 331 438 331 436.343738 332.342829 435 333.999415 435 335.657171 435 337 436.343738 337 438M329 453.0006C329 454.657595 327.656394 456 326.0006 456 324.343606 456 323 454.657595 323 453.0006 323 451.343606 324.343606 450 326.0006 450 327.656394 450 329 451.343606 329 453.0006M321 467.999384C321 469.656808 319.656532 471 317.998767 471 316.343468 471 315 469.656808 315 467.999384 315 466.343192 316.343468 465 317.998767 465 319.656532 465 321 466.343192 321 467.999384M313 482.999367C313 484.657945 311.655413 486 309.999367 486 308.342055 486 307 484.657945 307 482.999367 307 481.342055 308.342055 480 309.999367 480 311.655413 480 313 481.342055 313 482.999367M304 499C304 500.656114 302.657124 502 300.999349 502 299.342876 502 298 500.656114 298 499 298 497.343886 299.342876 496 300.999349 496 302.657124 496 304 497.343886 304 499M295 515C295 516.655957 293.657296 518 292 518 290.342704 518 289 516.655957 289 515 289 513.342704 290.342704 512 292 512 293.657296 512 295 513.342704 295 515M284 531.5C284 532.88034 282.88034 534 281.5 534 280.11966 534 279 532.88034 279 531.5 279 530.11966 280.11966 529 281.5 529 282.88034 529 284 530.11966 284 531.5M274 548.499408C274 549.880473 272.880738 551 271.5 551 270.120445 551 269 549.880473 269 548.499408 269 547.118343 270.120445 546 271.5 546 272.880738 546 274 547.118343 274 548.499408M263 565.49939C263 566.880888 261.880888 568 260.49939 568 259.119112 568 258 566.880888 258 565.49939 258 564.119112 259.119112 563 260.49939 563 261.880888 563 263 564.119112 263 565.49939M251 583.5C251 584.881048 249.881048 586 248.50126 586 247.118952 586 246 584.881048 246 583.5 246 582.118952 247.118952 581 248.50126 581 249.881048 581 251 582.118952 251 583.5M238 601.5C238 602.88151 236.88151 604 235.5 604 234.119792 604 233 602.88151 233 601.5 233 600.11849 234.119792 599 235.5 599 236.88151 599 238 600.11849 238 601.5M224 620.5C224 621.881402 222.880356 623 221.500674 623 220.118297 623 219 621.881402 219 620.5 219 619.119946 220.118297 618 221.500674 618 222.880356 618 224 619.119946 224 620.5M208 639C208 640.104411 207.104411 641 206 641 204.895589 641 204 640.104411 204 639 204 637.895589 204.895589 637 206 637 207.104411 637 208 637.895589 208 639M192 659.000579C192 660.105065 191.105964 661 190 661 188.895194 661 188 660.105065 188 659.000579 188 657.896093 188.895194 657 190 657 191.105964 657 192 657.896093 192 659.000579M174 679C174 680.104029 173.104962 681 171.999398 681 170.895038 681 170 680.104029 170 679 170 677.895971 170.895038 677 171.999398 677 173.104962 677 174 677.895971 174 679M302.037496 959.928019C301.800458 958.568111 302.712038 957.274573 304.071957 957.037537 305.431876 956.800501 306.72678 957.710718 306.962463 959.071981 307.199501 960.431889 306.289276 961.725427 304.928002 961.962463 303.568082 962.199499 302.274534 961.289282 302.037496 959.928019M327.037478 940.928813C326.800568 939.568858 327.71156 938.274349 329.071503 938.037437 330.431447 937.800524 331.725946 938.712833 331.962856 940.072788 332.198457 941.432743 331.288774 942.725943 329.928831 942.962856 328.568887 943.198459 327.274388 942.288768 327.037478 940.928813M351.03747 919.929231C350.800634 918.568851 351.711249 917.273069 353.070205 917.037472 354.431694 916.800609 355.726059 917.711329 355.962895 919.07171 356.198464 920.432091 355.287849 921.726606 353.927627 921.962202 352.567404 922.200332 351.274305 921.288345 351.03747 919.929231M376.037412 898.927648C375.800704 897.56857 376.711969 896.273276 378.070894 896.037768 379.432273 895.799806 380.724969 896.711173 380.962903 898.071478 381.198385 899.431782 380.288346 900.72585 378.926968 900.962585 377.568043 901.19932 376.272894 900.287952 376.037412 898.927648M400.037401 876.92805C399.800773 875.567745 400.711613 874.275217 402.071928 874.037401 403.431054 873.800774 404.725969 874.711608 404.962597 876.071914 405.199226 877.432219 404.288385 878.725936 402.929259 878.962563 401.567756 879.199189 400.274029 878.289545 400.037401 876.92805M424.03735 853.927474C423.800835 852.567229 424.71228 851.2739 426.072526 851.037386 427.431617 850.800872 428.724946 851.711163 428.962614 853.071408 429.199128 854.431654 428.288837 855.726136 426.928592 855.96265 425.568346 856.199165 424.273864 855.28772 424.03735 853.927474M447.044818 830.513819C446.76105 828.882241 447.85443 827.328677 449.485758 827.044865 451.117087 826.761054 452.671757 827.853257 452.955525 829.486181 453.237948 831.117759 452.145913 832.671323 450.514584 832.955135 448.881911 833.238946 447.328585 832.146743 447.044818 830.513819M470.044808 806.513123C469.76112 804.88159 470.854037 803.32719 472.486877 803.044809 474.11841 802.761121 475.67281 803.854039 475.955191 805.485571 476.238879 807.118411 475.145961 808.670197 473.514429 808.955192 471.881589 809.23888 470.329803 808.145963 470.044808 806.513123M492.045126 782.514808C491.760242 780.882158 492.853993 779.329614 494.485718 779.04479 496.117442 778.761238 497.671587 779.853486 497.955199 781.486137 498.238811 783.118788 497.146332 784.671331 495.514607 784.954884 493.881611 785.239708 492.328738 784.146188 492.045126 782.514808M513.044794 757.513795C512.761239 755.882032 513.853361 754.329504 515.486593 754.04475 517.118586 753.761235 518.671332 754.854442 518.954888 756.486205 519.239682 758.117968 518.146321 759.671734 516.514328 759.95525 514.881096 760.238765 513.32835 759.145558 513.044794 757.513795M534.044744 732.513651C533.761296 730.880515 534.85408 729.328192 536.48602 729.044745 538.117959 728.761299 539.671498 729.854076 539.954947 731.4848 540.239601 733.117935 539.145611 734.671465 537.514877 734.954911 535.881732 735.239564 534.328193 734.146787 534.044744 732.513651M554.044738 706.514394C553.761355 704.881267 554.853732 703.328092 556.485829 703.044734 558.117927 702.761377 559.671242 703.853655 559.954625 705.485606 560.24036 707.118733 559.146807 708.670733 557.513534 708.955266 555.881436 709.238623 554.328121 708.146345 554.044738 706.514394M573.045022 681.513429C572.760576 679.881305 573.853629 678.328321 575.485753 678.045022 577.117877 677.760576 578.670861 678.853629 578.955307 680.485753 579.238606 682.11673 578.145553 683.670861 576.513429 683.955307 574.882452 684.238606 573.328321 683.145553 573.045022 681.513429M591.052132 656.099402C590.721711 654.19542 591.996377 652.382849 593.90054 652.05246 595.804703 651.720765 597.61614 652.996616 597.947866 654.900598 598.278287 656.803275 597.003621 658.615845 595.100764 658.94754 593.196601 659.279235 591.383859 658.003384 591.052132 656.099402M608.052452 630.100202C607.720834 628.195626 608.996287 626.384173 610.899262 626.052498 612.804789 625.720824 614.615932 626.995219 614.94755 628.901072 615.279167 630.805649 614.003715 632.617101 612.099464 632.9475 610.196488 633.279175 608.38407 632.004779 608.052452 630.100202M625.052403 605.099521C624.720857 603.196259 625.997184 601.383985 627.900456 601.052441 629.804975 600.720897 631.617259 601.99597 631.947559 603.900479 632.279105 605.803741 631.004024 607.617262 629.099506 607.947559 627.196233 608.279103 625.383949 607.00403 625.052403 605.099521M640.052121 579.099068C639.721866 577.195769 640.995358 575.383858 642.900112 575.052425 644.803647 574.720993 646.617002 575.995545 646.947257 577.900063 647.279949 579.80458 646.00402 581.615273 644.099266 581.947924 642.195731 582.278138 640.382376 581.003586 640.052121 579.099068M654.052075 554.099611C653.721901 552.195168 654.99611 550.383683 656.900868 550.052372 658.804433 549.721061 660.617409 550.996251 660.947583 552.899502 661.278949 554.803945 660.00474 556.615431 658.099983 556.947934 656.196417 557.278053 654.383441 556.004054 654.052075 554.099611M666.052336 530.09996C665.721046 528.196292 666.997211 526.383608 668.899794 526.052332 670.804709 525.721056 672.61747 526.997167 672.947593 528.900836 673.278883 530.804504 672.005051 532.617188 670.100135 532.947297 668.196386 533.27974 666.383625 532.004795 666.052336 530.09996M678.059834 505.685954C677.681346 503.508654 679.137871 501.438392 681.314827 501.059845 683.490478 500.681297 685.561718 502.138052 685.940206 504.314046 686.318694 506.491346 684.860864 508.561608 682.685213 508.940155 680.509562 509.318703 678.438321 507.861948 678.059834 505.685954M688.059777 481.685254C687.681413 479.509316 689.138624 477.438212 691.315493 477.059788 693.491084 476.681364 695.56058 478.138807 695.940222 480.314746 696.318586 482.490684 694.861374 484.561788 692.685783 484.940212 690.508914 485.318636 688.439418 483.861193 688.059777 481.685254M697.060134 458.684599C696.680552 456.509979 698.137495 454.438076 700.314767 454.059772 702.490786 453.681468 704.561575 455.138314 704.939904 457.314187 705.319486 459.491314 703.86129 461.561964 701.685271 461.940267 699.509252 462.318571 697.438463 460.860473 697.060134 458.684599M704.060077 436.686256C703.68062 434.51036 705.138278 432.438838 707.314327 432.059406 709.490376 431.682431 711.560816 433.138759 711.940274 435.315884 712.318503 437.490552 710.860845 439.562074 708.686024 439.940278 706.508747 440.318481 704.438307 438.860925 704.060077 436.686256M710.059718 414.685718C709.681569 412.508212 711.138766 410.437895 713.313724 410.059722 715.49109 409.681548 717.561274 411.13884 717.940627 413.313937 718.317572 415.49024 716.860374 417.561761 714.685416 417.939934 712.509255 418.319312 710.437866 416.86202 710.059718 414.685718M714.059709 393.685268C713.68163 391.508951 715.138415 389.437788 717.314732 389.059709 719.491049 388.68163 721.562212 390.138415 721.940291 392.314732 722.31837 394.491049 720.861585 396.562212 718.685268 396.940291 716.508951 397.31837 714.437788 395.861585 714.059709 393.685268M717.067126 374.27079C716.641859 371.822256 718.281614 369.492431 720.728855 369.067167 723.1774 368.641902 725.507235 370.280345 725.932502 372.727574 726.359073 375.176108 724.719317 377.505933 722.270773 377.932502 719.822228 378.359071 717.492393 376.719323 717.067126 374.27079M718.067153 354.270967C717.641989 351.823532 719.279895 349.493922 721.72843 349.067446 724.176966 348.64097 726.506404 350.281558 726.932848 352.728994 727.358012 355.17771 725.720106 357.507319 723.27029 357.932515 720.823036 358.358991 718.493598 356.719683 718.067153 354.270967M717.0671 336.270884C716.642045 333.823672 718.280646 331.493413 720.729116 331.0671 723.176328 330.642045 725.506587 332.280646 725.9329 334.729116 726.357955 337.177585 724.719354 339.506587 722.270884 339.9329 719.822415 340.357955 717.493413 338.719354 717.0671 336.270884M714.067407 319.270892C713.641195 316.823557 715.280569 314.493585 717.72913 314.06737 720.176455 313.641156 722.506418 315.281772 722.93263 317.729108 723.358843 320.176443 721.718233 322.506415 719.270908 322.93263 716.822347 323.358844 714.49362 321.718228 714.067407 319.270892M710.067401 304.271107C709.641245 301.822216 711.280307 299.492309 713.729188 299.067366 716.176855 298.641208 718.506753 300.281491 718.932909 302.727953 719.357851 305.176844 717.720003 307.506751 715.271121 307.932909 712.823454 308.357853 710.493557 306.719997 710.067401 304.271107M366.018102 794.267205C365.870896 793.173298 366.637593 792.166462 367.731823 792.018073 368.827279 791.870911 369.834412 792.638608 369.981618 793.732515 370.13005 794.826422 369.363353 795.833258 368.267897 795.981647 367.172441 796.130036 366.165308 795.362339 366.018102 794.267205M392.018059 775.268209C391.87096 774.173013 392.638631 773.166307 393.732678 773.018059 394.826724 772.87096 395.83458 773.638631 395.981678 774.732678 396.129926 775.826724 395.362255 776.83458 394.268209 776.981678 393.173013 777.129926 392.166307 776.362255 392.018059 775.268209M417.022859 754.834384C416.837765 753.465775 417.797007 752.207952 419.165616 752.022859 420.534225 751.837765 421.792048 752.797007 421.977141 754.165616 422.162235 755.534225 421.202993 756.792048 419.834384 756.977141 418.465775 757.162235 417.207952 756.202993 417.022859 754.834384M440.022828 733.834201C439.837868 732.466782 440.797107 731.206511 442.165809 731.022828 443.533235 730.837869 444.792237 731.797104 444.977196 733.165799 445.162156 734.534494 444.201641 735.792213 442.834215 735.977172 441.466789 736.162131 440.207788 735.202896 440.022828 733.834201M462.022521 711.834452C461.838925 710.465942 462.797974 709.207347 464.165282 709.022544 465.533799 708.838948 466.7924 709.796785 466.977204 711.165295 467.162008 712.533806 466.202959 713.792401 464.834442 713.977204 463.465926 714.162007 462.207325 713.202963 462.022521 711.834452M483.022506 688.834379C482.838989 687.466993 483.797867 686.207438 485.16507 686.022749 486.534568 685.83806 487.792808 686.798213 487.977472 688.165599 488.160989 689.534132 487.203259 690.793688 485.834908 690.977229 484.466558 691.161918 483.207171 690.202913 483.022506 688.834379M502.027266 665.401042C501.805812 663.758866 502.957631 662.249061 504.599531 662.02757 506.24143 661.804769 507.750981 662.956782 507.972434 664.598958 508.195198 666.241134 507.043379 667.750939 505.40148 667.97243 503.759581 668.195231 502.250029 667.043218 502.027266 665.401042M520.027528 641.40103C519.804937 639.759291 520.95666 638.248841 522.598585 638.027525 524.24051 637.804959 525.751131 638.956552 525.972472 640.598291 526.195063 642.240029 525.04334 643.750479 523.401415 643.973046 521.75949 644.193111 520.248869 643.041518 520.027528 641.40103M537.027491 617.401637C536.80508 615.759866 537.956592 614.248432 539.598363 614.027217 541.240134 613.806002 542.750373 614.957514 542.972783 616.599285 543.193998 618.241057 542.042486 619.751295 540.400715 619.972509 538.758943 620.19492 537.249901 619.043408 537.027491 617.401637M553.027198 592.401571C552.806067 590.758625 553.957554 589.248581 555.599426 589.027459 557.241298 588.805192 558.751408 589.956629 558.972539 591.598429 559.194817 593.240229 558.043329 594.751419 556.401457 594.972541 554.759585 595.194808 553.24833 594.043371 553.027198 592.401571M568.031706 568.967868C567.773856 567.052674 569.116985 565.290131 571.03226 565.032292 572.947534 564.771887 574.710151 566.11496 574.968001 568.031437 575.227134 569.946631 573.884004 571.709173 571.96873 571.968295 570.053456 572.226135 568.290839 570.883062 568.031706 568.967868M583.031939 543.967967C582.77299 542.051755 584.117057 540.29091 586.032043 540.031963 587.947029 539.773015 589.709113 541.115844 589.968061 543.030824 590.22701 544.947036 588.882943 546.709114 586.967957 546.968061 585.052971 547.227009 583.290887 545.882947 583.031939 543.967967M596.03193 518.967781C595.773145 517.052681 597.115743 515.289555 599.030518 515.031913 600.947667 514.773083 602.709308 516.117096 602.968094 518.032196 603.226879 519.947296 601.883094 521.710423 599.967132 521.968065 598.052356 522.226894 596.290716 520.884069 596.03193 518.967781M608.036433 494.535001C607.740838 492.345238 609.276362 490.332069 611.464547 490.036438 613.654041 489.740807 615.666963 491.276519 615.963865 493.464974 616.258152 495.653429 614.722629 497.669215 612.534443 497.963538 610.346258 498.259169 608.333336 496.724765 608.036433 494.535001M620.036435 469.534715C619.740929 467.346662 621.275284 465.332845 623.465053 465.036139 625.65356 464.741957 627.667795 466.275993 627.9633 468.465309 628.260068 470.654624 626.724451 472.667178 624.535944 472.963885 622.346174 473.258066 620.330677 471.722768 620.036435 469.534715M631.036382 445.534504C630.741018 443.345236 632.276424 441.331696 634.466025 441.036377 636.654406 440.741058 638.668253 442.27623 638.963617 444.464277 639.258982 446.653544 637.723576 448.667084 635.535195 448.963624 633.346814 449.258943 631.331746 447.723771 631.036382 445.534504M641.036355 421.534984C640.741134 419.345445 642.276286 417.331872 644.464468 417.036627 646.653831 416.740201 648.668423 418.275476 648.963645 420.466196 649.258866 422.654554 647.723714 424.668127 645.535532 424.963372 643.346169 425.259799 641.331577 423.724523 641.036355 421.534984M651.041169 398.101542C650.707872 395.638759 652.434837 393.372844 654.897885 393.04087 657.360933 392.708897 659.627091 394.435676 659.959101 396.897172 660.29111 399.361242 658.565433 401.62587 656.102385 401.95913 653.639337 402.291104 651.373178 400.564325 651.041169 398.101542M660.041108 375.101361C659.707991 372.638479 661.435956 370.372727 663.898774 370.040849 666.360343 369.708971 668.627283 371.435734 668.959152 373.897368 669.291021 376.361499 667.564304 378.626003 665.102734 378.959128 662.639917 379.291006 660.374225 377.565491 660.041108 375.101361M669.040849 353.101741C668.709071 350.639083 670.434559 348.373778 672.898677 348.040822 675.361583 347.709078 677.627119 349.435602 677.958897 351.898259 678.291885 354.360917 676.565187 356.626222 674.10228 356.959178 671.639373 357.290922 669.372627 355.564398 669.040849 353.101741M678.041049 331.102601C677.708221 328.638737 679.435869 326.37363 681.897387 326.040802 684.361256 325.709151 686.62637 327.435619 686.959198 329.898307 687.29085 332.360994 685.564377 334.627278 683.101684 334.958929 680.63899 335.291756 678.372701 333.565288 678.041049 331.102601M686.045575 311.668647C685.675946 308.933828 687.595222 306.414949 690.331238 306.04531 693.067255 305.676942 695.584796 307.594999 695.954425 310.331088 696.324054 313.068447 694.404778 315.586056 691.668762 315.954424 688.931475 316.324063 686.415204 314.404736 686.045575 311.668647M694.04555 291.667885C693.676027 288.932091 695.595324 286.415011 698.331527 286.045543 701.06773 285.676075 703.585185 287.595085 703.954708 290.33088 704.322996 293.066674 702.404935 295.584989 699.668732 295.954458 696.932529 296.323926 694.415073 294.404915 694.04555 291.667885M526.004549 784.566953C525.96761 784.292678 526.159692 784.041489 526.433963 784.00455 526.70731 783.96761 526.958495 784.159695 526.995433 784.432124 527.032372 784.7064 526.841214 784.958511 526.566943 784.995451 526.293595 785.03239 526.041487 784.840305 526.004549 784.566953M550.008976 764.134314C549.935806 763.58566 550.317914 763.082592 550.865872 763.00933 551.412204 762.934439 551.91626 763.31866 551.991056 763.865686 552.064225 764.41434 551.680492 764.917408 551.132534 764.99067 550.586202 765.065561 550.083771 764.68134 550.008976 764.134314M571.009132 744.133044C570.935035 743.586385 571.32005 743.081889 571.866335 743.009194 572.414072 742.935047 572.916771 743.317417 572.990868 743.86553 573.064965 744.41219 572.67995 744.916686 572.133665 744.990834 571.585928 745.064982 571.084682 744.681157 571.009132 744.133044M589.009036 723.132872C588.935486 722.586219 589.319 722.081616 589.865376 722.009342 590.413066 721.93444 590.917414 722.318148 590.990964 722.866116 591.064515 723.412769 590.681001 723.917372 590.133311 723.99096 589.585621 724.064548 589.0839 723.680839 589.009036 723.132872M605.009182 703.133664C604.934901 702.585823 605.319483 702.082337 605.867002 702.009211 606.413324 701.934887 606.917713 702.318496 606.990795 702.865138 607.065076 703.412979 606.681692 703.916465 606.132975 703.990789 605.586653 704.065113 605.083462 703.681505 605.009182 703.133664M620.009099 684.133706C619.935282 683.587362 620.318688 683.083977 620.865152 683.009075 621.412717 682.935275 621.916213 683.319698 621.991131 683.867143 622.063846 684.413486 621.681542 684.916872 621.133977 684.990672 620.58531 685.065574 620.081814 684.681151 620.009099 684.133706M632.009009 665.133993C631.935581 664.586773 632.319038 664.083372 632.866687 664.008983 633.413317 663.935612 633.917114 664.319787 633.990542 664.865988 634.06601 665.413208 633.681533 665.917628 633.133883 665.990998 632.586234 666.064369 632.082437 665.681213 632.009009 665.133993M642.013687 646.700574C641.902694 645.881151 642.479 645.125745 643.298635 645.013358 644.119693 644.903817 644.876717 645.479975 644.986286 646.300821 645.097279 647.120245 644.522396 647.875651 643.701338 647.986614 642.878857 648.096155 642.124679 647.521421 642.013687 646.700574M651.013564 627.701345C650.903114 626.880726 651.479319 626.125278 652.300378 626.013557 653.121437 625.903165 653.875959 626.479062 653.98641 627.299681 654.09686 628.120299 653.521986 628.875748 652.702257 628.986139 651.879868 629.09786 651.125345 628.521964 651.013564 627.701345M658.013741 609.700857C657.902537 608.880146 658.478548 608.124393 659.298209 608.013216 660.120368 607.904537 660.875056 608.477911 660.98626 609.299871 661.097464 610.120582 660.521452 610.875086 659.700542 610.986263 658.878383 611.09744 658.123695 610.521568 658.013741 609.700857M663.013606 591.700479C662.902902 590.879876 663.479972 590.125203 664.299646 590.013356 665.120498 589.903864 665.876577 590.479581 665.986102 591.299007 666.097983 592.11961 665.522091 592.87546 664.701239 592.986129 663.880387 593.097976 663.125486 592.521082 663.013606 591.700479M667.013756 573.700433C666.902427 572.879815 667.479112 572.124892 668.298495 572.013546 669.120104 571.903314 669.874915 572.477857 669.986244 573.299588 670.097573 574.120206 669.520888 574.876243 668.700393 574.986475 667.879897 575.096707 667.125086 574.52105 667.013756 573.700433M670.017946 557.266999C669.871463 556.172892 670.637681 555.166088 671.733486 555.018236 672.827883 554.870383 673.834953 555.637807 673.981436 556.731914 674.130736 557.826021 673.363109 558.832825 672.268712 558.982085 671.172907 559.128529 670.165837 558.361106 670.017946 557.266999M673.018112 540.267663C672.87081 539.173684 673.638122 538.166741 674.732177 538.01811 675.827572 537.870818 676.834585 538.638076 676.981888 539.733395 677.12919 540.827374 676.361878 541.834316 675.267823 541.981609 674.172428 542.13024 673.165415 541.361642 673.018112 540.267663M674.018295 523.267422C673.870188 522.17348 674.637536 521.166338 675.733017 521.018266 676.827222 520.870195 677.834606 521.638635 677.981436 522.732578 678.13082 523.82652 677.362195 524.834939 676.26799 524.981734 675.172509 525.129805 674.165125 524.361365 674.018295 523.267422M674.018154 506.267102C673.870583 505.173129 674.638925 504.165747 675.732898 504.018177 676.82809 503.870606 677.834252 504.637729 677.981823 505.732921 678.129393 506.826894 677.362271 507.834276 676.268298 507.981846 675.173106 508.129417 674.165724 507.361075 674.018154 506.267102M674.018339 490.267305C673.870069 489.173618 674.637102 488.166305 675.732197 488.018067 676.826124 487.870997 677.834826 488.637863 677.981928 489.732717 678.12903 490.826404 677.361997 491.833717 676.268069 491.981954 675.172975 492.129024 674.165441 491.360992 674.018339 490.267305M673.01821 473.26856C672.870415 472.172493 673.638499 471.165993 674.732402 471.018209 675.827425 470.870424 676.833996 471.638455 676.98179 472.732282 677.129585 473.827229 676.361501 474.833729 675.267598 474.981513 674.172575 475.130417 673.166004 474.363506 673.01821 473.26856M672.02266 457.834703C671.838505 456.466319 672.796917 455.208158 674.165308 455.02266 675.533699 454.838506 676.791866 455.796913 676.977365 457.165297 677.16152 458.533681 676.201764 459.791842 674.834717 459.97734 673.466326 460.161494 672.208159 459.203087 672.02266 457.834703M671.02282 441.834173C670.83785 440.465853 671.797624 439.208758 673.166142 439.022522 674.53466 438.838872 675.793232 439.798507 675.976908 441.165533 676.163171 442.533852 675.202104 443.793534 673.834879 443.977183 672.466361 444.162126 671.20779 443.202492 671.02282 441.834173M669.022726 425.835082C668.838291 424.465524 669.796607 423.208124 671.164918 423.022442 672.531983 422.839253 673.791876 423.797569 673.977558 425.16588 674.160747 426.534192 673.202431 427.792838 671.83412 427.977274 670.465808 428.161709 669.205915 427.203393 669.022726 425.835082M668.022595 409.834139C667.838639 408.465769 668.798096 407.206821 670.165141 407.022849 671.533388 406.837674 672.792224 407.798418 672.977382 409.165586 673.161338 410.533955 672.203084 411.792904 670.834837 411.976876 669.465387 412.163253 668.206551 411.202509 668.022595 409.834139M667.022759 394.83448C666.838098 393.465203 667.797405 392.207419 669.16552 392.022759 670.532474 391.838098 671.791419 392.797405 671.977241 394.16552 672.161902 395.533636 671.202595 396.792581 669.83448 396.977241 668.466364 397.161902 667.207419 396.202595 667.022759 394.83448"/>
    <path fill-rule="nonzero" d="M666.027501 379.400988C665.805069 377.759243 666.956322 376.248245 668.598274 376.027189 670.240227 375.806133 671.751416 376.957241 671.972499 378.598986 672.194931 380.240731 671.043678 381.750382 669.401726 381.972786 667.759773 382.193842 666.248584 381.044081 666.027501 379.400988M666.027371 364.401907C665.805532 362.758994 666.956485 361.249184 668.598093 361.027345 670.241006 360.805506 671.750816 361.957764 671.972655 363.599372 672.194494 365.24098 671.042236 366.752095 669.400628 366.972629 667.75902 367.194468 666.24921 366.043515 666.027371 364.401907M666.027253 348.401401C665.805937 346.759856 666.956784 345.249836 668.598323 345.027254 670.241127 344.805936 671.751141 345.956788 671.972458 347.598334 672.195039 349.241144 671.044191 350.751164 669.401388 350.972482 667.759849 351.195064 666.249835 350.042947 666.027253 348.401401M667.027396 333.401318C666.805376 331.759754 667.95718 330.249466 669.598408 330.027401 671.240863 329.805336 672.750842 330.957375 672.972861 332.598939 673.193654 334.241729 672.043077 335.75079 670.400623 335.972855 668.759394 336.193693 667.249415 335.042881 667.027396 333.401318M669.027289 317.400954C668.805731 315.759522 669.957596 314.249119 671.599034 314.027562 673.240471 313.804813 674.752071 314.956674 674.972438 316.598105 675.195188 318.240728 674.043323 319.751131 672.401885 319.972689 670.759256 320.194246 669.250038 319.043576 669.027289 317.400954M672.027181 302.401044C671.806116 300.759831 672.957739 299.248247 674.598946 299.027181 676.241311 298.806115 677.750574 299.957742 677.972797 301.598956 678.193862 303.240169 677.043397 304.750595 675.401032 304.972819 673.759824 305.193885 672.248246 304.042258 672.027181 302.401044M676.031899 286.968402C675.773165 285.052047 677.116746 283.289367 679.031645 283.031927 680.946543 282.773173 682.710404 284.115541 682.967825 286.031897 683.227873 287.946939 681.882979 289.709619 679.96808 289.968373 678.053181 290.225813 676.289321 288.883445 676.031899 286.968402"/>
    <path fill-rule="nonzero" d="M713.260148,301.566008 L760.555893,310.428757 L793.718002,304.151234 L835.867603,248.843475 L848.61969,159.3427 L796.671743,74.8144646 L713.686002,13.7684937 L616.101159,1.36683008 L531.556844,40.7006125 L492.108442,94.0836763 L495.422425,128.559955 L537.471752,182.634474 L544.656793,174.217027 L543.532738,161.908135 L560.722862,161.908135 L569.258503,150.706313 L574.440547,161.420776 L585.433511,161.420776 L597.300466,147.077101 L600.879369,164.006003 L609.257791,154.971318 L610.972347,169.437451 L621.836565,159.086651 L623.83461,177.950143 L639.946483,171.553873 L639.956387,187.817296 L654.629766,181.146423 L655.570606,198.925109 L668.923096,193.191845 L666.531384,207.385849 L683.572954,200.775587 L679.070543,218.011252 L692.347519,214.70241 L687.882246,228.676238 L704.658896,228.409057 L696.124494,240.926994 L711.820417,237.155532 L706.669321,248.612166 L719.961153,248.42786 L711.404467,261.306987 L717.667238,277.460321 L701.609834,277.548144 L699.104231,287.359634 L690.450985,283.538694 L681.040116,286.695391 L697.129706,292.47566 L713.260148,301.566008 Z M350.418042,516 L350.281868,515.97155 L301.31242,506.059867 L301.162629,505.834742 L285,481.923256 L305.395168,494.295233 L351.831777,497.879915 L361.531088,484.974813 L375.074222,489.980751 L377.004181,481.369103 L388.564125,482.023449 L399.21294,467.37301 L408.059305,474.548559 L424.468286,464.053035 L451.734056,410.890149 L451.04452,388.919438 L468.217313,366.26593 L464.413104,357.448948 L477.056251,333.924628 L477.874534,321.864362 L480.247677,305.552699 L489.266117,291.488574 L486.052408,285.838185 L500.049868,271.405449 L492.516964,274.221985 L494.087918,260.839419 L514.484324,247.772276 L505.488167,246.890331 L526.413176,226.709487 L566.802417,205.60093 L554.357341,205.550215 L547.010129,195.072009 L536.561861,183.700725 L536.594048,183.666091 L494.143626,129.072052 L490.738035,93.7051695 L490.889065,93.5010727 L530.689043,39.641783 L530.843786,39.5700399 L615.890708,0 L616.077638,0.0259759562 L714.334686,12.5995757 L797.736377,74.010447 L850,159.055727 L849.969051,159.291985 L837.129071,249.37289 L837.023845,249.510192 L794.468198,305.356024 L760.555893,311.775796 L760.432098,311.752294 L712.708024,302.774508 L696.581296,293.677976 L679.011122,287.374477 L678.827906,287.436325 L671.381658,279.585401 L665.006234,277.466505 L665.424659,276.209764 L672.227175,278.553785 L679.211669,285.911165 L690.515358,282.117438 L698.209195,285.512867 L700.576149,276.229555 L715.738517,276.144205 L709.920169,261.14742 L710.107099,260.860448 L717.465453,249.789742 L704.603189,249.9691 L709.499267,239.074042 L693.089049,243.01744 L702.116154,229.77465 L686.053799,230.033172 L690.364329,216.566494 L677.223527,219.839465 L681.63433,202.948909 L664.831683,209.463926 L667.213492,195.368877 L654.345039,200.893097 L653.404199,183.161415 L638.630546,189.878055 L638.621881,173.509492 L622.701889,179.827834 L620.804117,161.905661 L609.967134,172.226774 L608.279813,157.977107 L600.111842,166.782956 L596.56884,150.042071 L586.056198,162.74555 L573.608647,162.74555 L569.002248,153.227218 L561.38145,163.231672 L544.986087,163.231672 L546.028438,174.64996 L538.3346,183.668564 L548.043815,194.243253 L555.050591,204.225441 L572.160249,204.298421 L527.113854,227.840059 L508.467904,245.848819 L518.414804,246.827246 L495.332054,261.614987 L494.087918,272.220599 L505.104404,268.102792 L487.698877,286.048466 L490.81974,291.529393 L490.600623,291.867081 L481.439819,306.146435 L479.19666,322.002901 L478.295435,334.424355 L465.88626,357.512033 L469.743701,366.447762 L452.387692,389.343712 L453.068563,411.190728 L452.99181,411.341636 L425.483402,464.974563 L407.967697,476.183807 L399.461767,469.282861 L389.212808,483.387805 L378.055197,482.758198 L376.034868,491.748353 L361.997794,486.560583 L352.453226,499.259115 L352.091746,499.230665 L304.841806,495.509918 L289.488794,486.198157 L302.10842,504.867447 L350.410615,514.646776 L392.019233,505.754341 L424.30859,465.877537 L425.341038,466.713716 L392.760763,506.950472 L350.418042,516 Z"/>
    <polygon fill-rule="nonzero" points="384.172 741 366 719.791 366.019 719.521 368.751 677.603 383.03 645.125 376.67 632.908 376.907 632.578 384.542 621.77 399.323 573.878 424.495 547.146 429.728 526.473 429.845 526.349 462.653 490.904 457.691 478.286 473.903 470.238 470.21 460.497 487.299 454.381 486.632 443.651 499.49 433.636 499.069 424.905 517.109 414.959 511.666 404.942 527.544 391.174 524.826 380.745 525.037 380.485 542.595 358.854 533.553 353.519 546.936 339.797 544.592 326.738 565.039 310.043 561.881 295.508 562.179 295.251 580.182 279.774 568.677 277.41 585.112 249.448 638.983 188 639.98 188.873 586.182 250.221 570.76 276.481 583.097 279.02 563.344 295.999 566.511 310.556 546.037 327.273 548.362 340.237 535.683 353.237 544.597 358.494 526.279 381.06 529.035 391.637 513.339 405.247 518.9 415.483 500.431 425.669 500.851 434.258 488.003 444.269 488.688 455.295 471.928 461.294 475.565 470.893 459.372 478.935 464.188 491.191 430.933 527.127 425.578 547.93 400.397 574.677 385.685 622.452 378.223 633.014 384.501 645.074 370.013 678.032 367.362 719.339 382.957 737.538 384.313 695.943 399.163 657.538 441.131 576.442 475.045 512.828 513.654 471.867 559.794 435.445 604.293 378.88 651.927 305.296 664.786 276.275 666 276.814 653.092 305.926 605.372 379.651 560.727 436.378 514.549 472.843 476.073 513.674 442.306 577.061 400.37 658.085 385.589 696.319"/>
    <polygon fill-rule="nonzero" points="514.022 472 513 471.161 532.846 447.036 582.934 379.391 636.849 299.575 676.814 218 678 218.585 637.99 300.24 584.014 380.158 533.891 447.851"/>
    <polygon fill-rule="nonzero" points="288 638 313.341 609.948 345.609 554.782 380.995 519.471 391.253 506.361 392.294 507.177 381.98 520.351 346.604 555.66 314.404 610.73 292.244 635.283 313.418 628.642 331.837 602.146 353.994 582.618 343.119 580.795 371.476 566.848 363.508 562.105 388.561 547.863 379.442 543.055 404.628 527.846 398.688 523.302 421.017 511.583 419.1 504.617 419.337 504.347 469.115 447.259 523.978 381 525 381.845 470.124 448.119 420.569 504.95 422.578 512.262 401.143 523.512 406.984 527.975 382.136 542.977 391.317 547.817 366.145 562.132 374.259 566.958 347.399 580.17 356.959 581.773 332.818 603.024 314.249 629.772"/>
  </g>
</svg>
