<svg height="1000" viewBox="0 0 1000 1000" width="1000" xmlns="http://www.w3.org/2000/svg"><path d="m23.524738 997.957928c-.0376743 1.15819-1.0077875 2.078622-2.1709815 2.040956-1.1655487-.030603-2.0791505-1.002823-2.0461855-2.170428.0353197-1.15819 1.0054329-2.076267 2.1686269-2.040956 1.1679034.028249 2.0862144 1.002823 2.0485401 2.170428zm19.6052351-20.510546c-.0329651 1.167606-1.0077876 2.073912-2.1733362 2.040956-1.1584848-.028249-2.0791505-1.002823-2.0391216-2.16572.0306104-1.15819 1.0054329-2.069205 2.1639177-2.040956 1.1655486.037665 2.0838597 1.012239 2.0485401 2.16572zm17.4966515-20.565631c-.0353197 1.162898-1.0101422 2.078621-2.1686269 2.045664-1.1655487-.035311-2.0838598-1.016947-2.0508948-2.175136.0376743-1.167606 1.0101422-2.076267 2.1733362-2.045664 1.1655487.042373 2.0767959 1.007531 2.0461855 2.175136zm17.4481458-18.988657c-.0447382 1.447737-1.2573797 2.598864-2.7125496 2.551783-1.4575245-.042372-2.5995267-1.254705-2.5571431-2.711858.0447382-1.454799 1.2550251-2.598864 2.710195-2.551783 1.4575245.040019 2.6065906 1.254705 2.5594977 2.711858zm15.3558094-19.581876c-.0447382 1.457153-1.2550251 2.601218-2.7125496 2.5612-1.4551698-.047081-2.6018814-1.264122-2.5547885-2.711859.0376743-1.464215 1.2597344-2.603572 2.7149043-2.556491 1.4528152.035311 2.5995267 1.254705 2.5524338 2.70715zm14.2726732-18.560927c-.044738 1.461861-1.259734 2.601218-2.71255 2.561199-1.457524-.047081-2.604236-1.259413-2.554788-2.70715.042384-1.459507 1.259734-2.603572 2.717259-2.556491 1.448106.040019 2.594817 1.254705 2.550079 2.702442zm13.217322-18.579524c-.042384 1.452444-1.262089 2.594156-2.714904 2.551783-1.45517-.042373-2.599527-1.254705-2.554789-2.711858.042384-1.457153 1.255025-2.598864 2.71255-2.5612 1.459879.044727 2.604236 1.264122 2.557143 2.721275zm12.131831-17.5727c-.044738 1.461861-1.25738 2.598864-2.714904 2.556491-1.45517-.042373-2.599527-1.254705-2.550079-2.70715.037674-1.459507 1.255025-2.603572 2.70784-2.556491 1.45517.040018 2.601881 1.254705 2.557143 2.70715zm11.07648-17.595534c-.040029 1.452445-1.259734 2.598864-2.70784 2.556491-1.462234-.047081-2.604236-1.254705-2.561853-2.721274.047093-1.445383 1.259735-2.594156 2.714904-2.547075 1.457525.040018 2.604236 1.259413 2.554789 2.711858zm12.116055-17.043746c-.054157 1.7467-1.511681 3.116753-3.258827 3.072026-1.742436-.051789-3.117548-1.51365-3.068101-3.26035.054157-1.741992 1.518745-3.112046 3.258827-3.062611 1.751855.051789 3.119903 1.508942 3.068101 3.250935zm9.995698-16.570349c-.049447 1.751409-1.514036 3.121462-3.256472 3.067319-1.7495-.051789-3.119903-1.51365-3.070456-3.26035.051803-1.737284 1.511682-3.116754 3.256473-3.067319 1.7495.056497 3.122257 1.518358 3.070455 3.26035zm9.98887-16.57482c-.051802 1.7467-1.51639 3.112045-3.256472 3.067318-1.744791-.051788-3.122258-1.51365-3.065746-3.26035.051802-1.7467 1.506972-3.116754 3.254117-3.062611 1.744791.047081 3.119903 1.51365 3.068101 3.255643zm8.910208-15.554108c-.054157 1.746701-1.514036 3.121462-3.263537 3.067319-1.744791-.047081-3.117548-1.508942-3.058682-3.250934.044738-1.751409 1.504617-3.121462 3.249409-3.076735 1.7495.061205 3.122257 1.51365 3.07281 3.26035zm8.903614-15.554107c-.051802 1.7467-1.511681 3.116753-3.254118 3.067319-1.747145-.051789-3.122257-1.508942-3.0681-3.254701.051802-1.7467 1.506972-3.121462 3.251763-3.067319 1.747145.056497 3.119903 1.508942 3.070455 3.254701zm8.908089-15.554578c-.054157 1.741992-1.511682 3.116753-3.258827 3.067318-1.744792-.051789-3.119903-1.508942-3.068101-3.255642.054156-1.7467 1.511681-3.112046 3.258827-3.062611 1.744791.051789 3.117548 1.504234 3.068101 3.250935zm8.889722-15.030569c-.061221 2.040956-1.763629 3.646414-3.798041 3.580501-2.039121-.058851-3.642634-1.760825-3.581413-3.801781.061221-2.031539 1.761274-3.636997 3.800395-3.571084 2.036767.058851 3.637925 1.756117 3.579059 3.792364zm7.818123-14.526802c-.056511 2.036247-1.761273 3.641705-3.79804 3.578146-2.039122-.061205-3.637925-1.758471-3.579059-3.79001.061221-2.050372 1.763629-3.646414 3.798041-3.585209 2.041476.058851 3.640279 1.760825 3.579058 3.797073zm8.880539-14.503263c-.06122 2.036248-1.765982 3.636997-3.800395 3.578146-2.039121-.061205-3.640279-1.763178-3.581413-3.799426.06593-2.036248 1.765983-3.632289 3.80275-3.575792 2.034412.063559 3.63557 1.765532 3.579058 3.797072zm7.818124-14.531511c-.061221 2.040956-1.761273 3.646414-3.805104 3.5805-2.032058-.058851-3.63557-1.760824-3.576704-3.80178.06593-2.03154 1.763628-3.632289 3.80275-3.571084 2.039121.058851 3.640279 1.760825 3.579058 3.792364zm7.78822-13.472191c-.058866 2.036248-1.761274 3.632289-3.795686 3.578146-2.041476-.065913-3.642634-1.763179-3.583768-3.799426.06593-2.040956 1.758919-3.641706 3.798041-3.580501 2.041476.06356 3.642634 1.765533 3.581413 3.801781zm8.87371-14.500909c-.06122 2.040956-1.754209 3.636998-3.793331 3.578147-2.041476-.065914-3.644988-1.758471-3.583768-3.804135.061221-2.031539 1.763629-3.636997 3.80275-3.571084 2.036767.058851 3.637925 1.760825 3.574349 3.797072zm8.845691-13.44865c-.063576 2.040955-1.763628 3.641705-3.800395 3.5805-2.036767-.058851-3.644753-1.765533-3.578823-3.801781.06122-2.036247 1.758683-3.636997 3.797805-3.575792 2.036766.063559 3.640279 1.760825 3.581413 3.797073zm9.88244-12.888389c-.072994 2.330503-2.020285 4.157241-4.346673 4.08662-2.326388-.06356-4.158301-2.012708-4.087661-4.338503.068284-2.323441 2.008511-4.161949 4.344317-4.088973 2.324034.075329 4.155947 2.015061 4.090017 4.340856zm9.898922-13.410986c-.075348 2.325795-2.022639 4.161949-4.353736 4.086619-2.324034-.068267-4.151237-2.012707-4.082953-4.338502.06593-2.328149 2.013221-4.157241 4.341964-4.088973 2.328742.070621 4.160655 2.015061 4.094725 4.340856zm9.858894-12.358729c-.061221 2.325795-2.010866 4.157241-4.3349 4.08662-2.335806-.068268-4.165364-2.012707-4.09237-4.343211.068284-2.332857 2.008511-4.157241 4.344317-4.088973 2.321679.070621 4.155947 2.010353 4.082953 4.345564zm10.956157-13.385092c-.070639 2.325795-2.01322 4.157241-4.344318 4.081912-2.331097-.063559-4.158301-2.007999-4.092371-4.338502.06593-2.328149 2.01793-4.157241 4.346673-4.084266 2.326388.070621 4.158301 2.015061 4.090016 4.340856zm10.916129-12.33048c-.068285 2.330503-2.010866 4.161949-4.344318 4.096036-2.321679-.077683-4.153592-2.017415-4.090016-4.347918.075348-2.32815 2.015575-4.157241 4.351381-4.088974 2.324034.070621 4.153592 2.010353 4.082953 4.340856zm-185.316117-516.2040892-75.3363566-48.3379306-4.5329248-16.83376551 10.8483149-3.38746869c34.3151656 10.644985 68.6303315 21.2923241 102.9454965 31.9396631l58.333945 39.7621499c.830719-.0164783 1.676271.1577209 2.473554.543784 1.309888.6379459 2.250568 1.7325761 2.72291 2.9990516l1.246548.8498097 73.949001 26.9820477.018837-.023541.061221.051789 6.503526 2.372876 92.772965 38.601606c1.596448-1.565438 4.066469-2.040955 6.192713-1.012238 1.919034.936909 3.046909 2.848392 3.070455 4.844621l108.17469 34.743329c1.594094-1.351221 3.89929-1.713743 5.898383-.746231 1.469297.717983 2.47473 2.007999 2.87502 3.46986l58.225631 17.210412c1.55642-1.913837 4.280743-2.575323 6.595357-1.454799.99366.484933 1.775402 1.231165 2.302842 2.11864l33.341756-9.524461 36.18852-12.455244 32.866118 7.040944 41.24865-21.796089 51.905767 14.912866 38.484298 31.805482c1.497554-.826269 3.357722-.936909 5.013037-.136534 2.47944 1.209978 3.637924 4.051309 2.802026 6.59603l.798224.659132-1.036043-.058851-.040029.091808c-1.316246 2.711858-4.579782 3.834737-7.289977 2.523534-1.375112-.666194-2.342871-1.8338-2.787899-3.175604l-2.8397-.157721-1.846041.461392c-.032965.713275-.209563 1.431259-.541568 2.113931-1.316246 2.711859-4.579782 3.834737-7.289977 2.523535-2.467667-1.195854-3.623797-4.006582-2.811445-6.541887l-39.899438-25.72028-27.379798-6.843205-16.701489 18.554572c1.605868 1.586625 2.114471 4.074849 1.092555 6.214675l31.538099 22.497594 34.848728 46.127484 47.917001-3.420425 5.373297-26.367642c-.343778-.0871-.682847-.211864-1.012497-.371939-2.70784-1.313557-3.835715-4.573907-2.51476-7.281057 1.311537-2.714212 4.575073-3.839445 7.280559-2.530597 1.933163.943972 3.063392 2.878995 3.070456 4.894057l3.83336.153012c.051802-.65207.226045-1.30414.532149-1.927961 1.311537-2.714212 4.575073-3.839445 7.280559-2.530597 2.70784 1.320618 3.840424 4.585677 2.524178 7.288119-.565115 1.162897-1.488135 2.033893-2.571271 2.544721l4.911787 43.636906-40.054846 32.499925c-.475638.539076-.944212 1.078152-1.405722 1.619582l-26.83823 46.824281c2.170982 1.508941 2.983334 4.413831 1.794239 6.859682-.638109 1.313557-1.733018 2.25282-2.999816 2.723629 2.630137 12.535282 4.973007 22.095053 7.384163 30.065844 1.704762 1.362992 2.44412 3.634644 1.843686 5.741513 7.030966 20.666148 15.366405 31.254636 33.308791 63.693356.704038.037665 1.412786.211864 2.088569.539076 2.70784 1.318265 3.840424 4.583323 2.524178 7.285765-.313168.642654-.734649 1.195854-1.233834 1.647831l10.562932 46.989063 3.004526 37.862437-9.45154 6.075786-27.450438-16.704293-112.427176-5.032945c-.049448.124764-.103604.249529-.16247.371939-1.316246 2.711858-4.579783 3.834737-7.289978 2.523535-1.897842-.920431-3.021008-2.796604-3.065746-4.769293l-83.28375-28.276771c-1.339793 2.653007-4.565654 3.742929-7.247594 2.443497-1.984964-.962803-3.119903-2.968449-3.065746-5.037653l-131.523337-19.241952c-1.320956 2.697734-4.575073 3.813551-7.278204 2.504702-1.509327-.732107-2.528888-2.06685-2.905631-3.575792-13.875916 1.132295-21.67685 1.706682-28.893834 2.636529-.072994.560262-.237819 1.118171-.499184 1.652539-1.316246 2.711858-4.579782 3.834737-7.289977 2.523534-1.153776-.560262-2.020285-1.473631-2.533597-2.549429-4.841148.894537-10.433427 2.080975-18.050699 3.773532.470929 1.327681.4309 2.834268-.23311 4.19726-1.316246 2.711858-4.579782 3.834737-7.289977 2.523534-1.087845-.527305-1.919035-1.367699-2.439411-2.358751l-60.655624 40.42599c.447383 1.311202.397935 2.79425-.254301 4.136054-1.316246 2.711859-4.579782 3.834737-7.289977 2.523535-2.707841-1.313556-3.835715-4.573907-2.51476-7.281057 1.311537-2.714212 4.575073-3.839445 7.280559-2.530596.136569.068267.273138.141242.402644.218926l47.514356-51.588865c-1.113746-1.570147-1.358629-3.684078-.452091-5.539065 1.052526-2.179844 3.364786-3.335679 5.634662-3.024946l5.68882-13.714657c-1.697698-1.58898-2.243976-4.157241-1.170258-6.358272.49683-1.028717 1.276217-1.829092 2.196883-2.356398l-3.159932-15.34601c-2.269877-4.736335-5.469838-11.452422-9.211367-19.277263-1.262089.376647-2.663102.298964-3.939319-.317795-2.70784-1.313557-3.835715-4.573907-2.514759-7.281057.423835-.880412 1.052525-1.593688 1.803657-2.109223-13.141267-27.403421-30.250109-62.659932-38.5361-77.299729-1.511682.866288-3.411879.993407-5.097804.176553-2.707841-1.313556-3.835715-4.573906-2.517114-7.281056.416772-.863934 1.033688-1.567793 1.768337-2.083329-15.726666-22.848347-34.646229-43.375607-52.273092-64.846838-1.245606.357815-2.625428.275423-3.882807-.334274-2.707841-1.313556-3.835715-4.573907-2.517115-7.281057l.117733-.228342-53.333624-70.536562c-1.149772.249529-2.387138.127119-3.527256-.423727-2.707841-1.313557-3.835715-4.573907-2.517114-7.281057.190019-.393125.420774-.75094.686143-1.073444l-35.103736-65.331771-44.564224-52.7023275c-1.384295.5649705-2.993929.5602624-4.445567-.1412426-2.43117-1.1793758-3.588948-3.9288987-2.84441-6.4359551zm728.54421 508.0190802-5.453355-5.706202-1.509327 9.503274.541568.329566zm-20.047438-20.955696-11.921561 9.533876 23.920826 14.557406 1.572902-9.910524-13.550975-14.173696zm-511.204937 16.84789c-.068285 2.325795-2.010866 4.157241-4.346672 4.086619-2.324034-.068267-4.155947-2.012707-4.082953-4.338502.06593-2.332857 2.015575-4.161949 4.339609-4.093682 2.328742.070622 4.165365 2.015062 4.090016 4.345565zm529.62767-25.722634-3.364786 21.20287 5.396844 5.644997c-.682847-8.919472-1.245607-17.89544-2.032058-26.847867zm-16.569628 7.391696 12.180572 12.742438 3.951093-24.886948-.068285-.701505zm-14.843674 10.367208 11.726126-9.380863-9.658749-3.794719-32.037283 11.781989 29.880429 1.33945zm-470.476664-3.17325c-.96305 2.010353-3.37185 2.860163-5.378007 1.895005-2.015575-.962804-2.860892-3.370991-1.900197-5.37899.955985-2.005645 3.374204-2.855455 5.378006-1.890297 2.008511.96045 2.856183 3.368636 1.900198 5.374282zm399.693717-19.538562-.301394-.508473.218982.548492-42.089258 16.798455c.051802.251882.087122.510827.103604.769772l78.722806 3.524003 14.605855-20.609651-29.835691-13.19206zm52.360214 1.007531-13.569812 19.150144 23.402804-14.809288-.157761-.061205zm-10.777205 18.773497 29.619064-10.89216-7.650237-3.006113zm-84.117294-4.065433 41.971525-16.751374 20.92101-12.368145-31.217867-25.635535-100.084134 14.566822 58.826066 39.507913c1.45517-2.328149 4.464404-3.222685 6.988582-2.003291 1.198514.586157 2.088569 1.551315 2.594818 2.68361zm-93.123807-28.20615 81.79797 27.773006-58.750717-39.456124-23.487571 9.364385c.313167.727399.466219 1.520712.440318 2.318733zm-248.586808 22.824806c-.963049 2.010353-3.371849 2.855455-5.382715 1.899713-2.001447-.967512-2.851474-3.375698-1.895488-5.383697.967758-2.005645 3.374204-2.855455 5.38507-1.890297 2.006156.955741 2.856183 3.361574 1.893133 5.374281zm20.523076-43.653384c-1.532873.934556-3.494292 1.094631-5.22731.254237-.108313-.051789-.211917-.105932-.313167-.164783l-41.354609 44.896319 51.780971-41.186346zm439.896905 41.631261 8.455526 3.321555 14.888412-11.906752zm-490.474654-3.234456c-.03061 2.224571-1.857814 4.008936-4.085307 3.971271-2.232202-.021186-4.009958-1.852632-3.984057-4.077203s1.860169-4.008936 4.087662-3.97598c2.225138.025895 4.007603 1.857341 3.981702 4.081912zm506.295506-53.429727c-1.42456.680319-3.131677.736816-4.666904.016478l-33.58193 47.384543 9.194884 4.065434 1.716535.673256 33.621959-21.271138c.209563.331921.419126.663841.62869.995761l-32.892019 20.809745 8.509682 3.342742 26.984218-9.924648c-1.619995-15.628495-4.191266-31.127518-9.515115-46.092173zm-447.010285 21.805506-1.909616-1.485402-42.218763 33.580432 43.021697-28.672251c-.021192-.840394.155406-1.699619.550986-2.50941.157762-.327212.343778-.633238.555696-.913369zm-15.338149 27.325737c-.95834 2.010354-3.367141 2.855455-5.378007 1.890297-2.008511-.960449-2.858537-3.366282-1.893133-5.371927.95834-2.007999 3.37185-2.857809 5.375652-1.897359 2.010865.96045 2.865601 3.368636 1.895488 5.378989zm455.423426-51.078037-61.154808 36.158109 28.733718 12.704773 33.669051-47.511661c-.496829-.381355-.915956-.840393-1.247961-1.351221zm-488.353119 43.804043c-.030611 2.229279-1.857814 4.008936-4.085307 3.985396-2.222784-.035311-4.007604-1.862049-3.984058-4.08662.037675-2.224571 1.862524-4.008936 4.094726-3.980688 2.220429.025895 4.002894 1.852633 3.974639 4.081912zm45.468171-.786251c-.963049 2.010353-3.37185 2.860163-5.382716 1.899713-2.001447-.967512-2.851473-3.37099-1.895488-5.383697.967759-2.005645 3.374204-2.855455 5.38507-1.890297 2.006157.955741 2.853829 3.361574 1.893134 5.374281zm17.162998-5.308368c-.963049 2.010353-3.37185 2.860163-5.382715 1.899713-2.001448-.967512-2.853829-3.37099-1.897843-5.381343.970113-2.003292 3.376559-2.857809 5.387425-1.892651 2.006156.955741 2.853828 3.361574 1.893133 5.374281zm424.860151-40.289456-91.915875 13.380384 30.005226 24.642128.29433.129472 61.950678-36.626563c-.183662-.487287-.296685-1.002823-.334359-1.525421zm-477.031993 34.044178c-.028256 2.224572-1.855459 4.004229-4.085307 3.97598-2.227493-.025894-4.009958-1.85734-3.976993-4.081912.025901-2.224571 1.857814-4.008936 4.082952-3.980687 2.225139.025894 4.014668 1.85734 3.979348 4.086619zm137.320471-40.5484-23.534665 21.174622c.998369 1.042841 1.539937 2.443497 1.514036 3.872402l129.474798 18.942988-98.548907-42.297455c-1.596448 1.62429-4.106498 2.125702-6.270416 1.08286-1.233833-.600281-2.140371-1.605457-2.634846-2.775417zm111.530057 42.085591-19.849647-45.795564-81.221083 1.951502c-.044738.677965-.218982 1.358284-.534504 2.008-.080058.167137-.169534.329566-.266075.484933l100.183029 42.998959c.445028-.685026 1.02427-1.240581 1.68828-1.64783zm7.292332 1.454799 23.878442-9.519752 68.357664-40.597836-118.108932 2.836623 19.642438 45.317692c1.32331-.4661 2.823218-.421373 4.184202.235405.842963.411957 1.535228 1.012239 2.046186 1.727868zm-193.502271-4.776355c-.96305 2.010354-3.37185 2.860163-5.382716 1.899714-2.001447-.967512-2.853828-3.370991-1.897843-5.381344.967759-2.003291 3.376559-2.857809 5.387425-1.892651 2.003802.955742 2.853828 3.361574 1.893134 5.374281zm220.495907-5.225976 97.59763-14.204299-30.921182-25.395422zm-272.99269-4.190198c-.030611 2.229279-1.857814 4.008936-4.085307 3.985396-2.222784-.035311-4.007604-1.862049-3.984058-4.08662.037675-2.224571 1.862524-4.008936 4.094726-3.980687 2.220429.025894 4.002894 1.852632 3.974639 4.081911zm46.089797-8.498097c-1.530519 2.059788-4.358446 2.801312-6.753118 1.643122-.494476-.240112-.934794-.543784-1.316246-.89689l-10.369852 8.246214 1.85546 1.443029c1.474007-.76271 3.275309-.842748 4.883531-.065913.52744.256591.99366.588511 1.396304.976928l18.884243-4.239633c.021192-.508473.115377-1.021655.287266-1.520712zm-17.012301-17.862483c-1.320956.793313-2.957433 1.009885-4.490306.513182l-5.526349 13.32624c2.293423 1.473632 3.178769 4.463267 1.959064 6.967969-.105959.216572-.223692.423728-.353197.61676l5.071903 3.945377 10.93732-8.698191c-.567469-1.384178-.56276-2.994344.145988-4.446788.273139-.564971.62869-1.061674 1.050171-1.480694zm72.617214 16.880847 9.851829-13.865317-46.322907 20.275377.009419.025895 29.119879-2.387c.087122-.456685.237819-.911015.452092-1.348867 1.247961-2.58474 4.268969-3.728805 6.889688-2.700088zm-.077704-30.442492-20.483046 9.948188c.032965.86158-.141278 1.744347-.543922 2.575324-1.320956 2.711858-4.579783 3.834737-7.289978 2.523535-.419126-.204802-.800578-.454331-1.139647-.741524l-25.232363 12.250443c.383807 1.231165.332005 2.59651-.240174 3.851215l8.771048 5.527294c1.436333-2.389354 4.485597-3.321555 7.038031-2.085682l.094185.049435 53.127828-27.288073c-.468574-1.202917-.513312-2.568262-.042384-3.848862l-5.003618-2.363459c-1.530518 2.085682-4.370218 2.84133-6.776664 1.676079-.981887-.475517-1.75421-1.205271-2.279296-2.073913zm15.422917 8.578135-52.51562 26.972631c.061221.082392.117732.164783.171889.247175l48.176012-21.085168 4.283097-6.028706-.091831-.082392zm-108.012219 18.396851c-.030611 2.229279-1.857814 4.008936-4.085307 3.985395-2.222784-.03531-4.007604-1.862048-3.984057-4.086619.037674-2.224572 1.862523-4.008937 4.094725-3.980688 2.220429.025894 4.002895 1.852632 3.974639 4.081912zm104.614468-11.315888-10.850198 15.273035 22.77176-20.489595zm317.12107-65.247025-88.94196 52.822383 31.919551 26.214629 93.194446-13.566353c.080058-.532014.242529-1.061673.492121-1.572501.668719-1.386532 1.85075-2.358752 3.209379-2.801312-9.307906-21.184038-22.413854-40.56017-33.765591-60.769634-1.52581.915723-3.470745 1.064027-5.19199.23305-.32965-.160075-.635754-.348399-.915956-.560262zm-347.126295 41.466477-52.148296 15.447234c.381452 1.264121.306104 2.667131-.315522 3.945377-.296686.609697-.689911 1.139357-1.156131 1.577209l8.773403 10.720314c1.542292-.98399 3.546094-1.167605 5.312077-.313087.647527.315442 1.205577.743877 1.660023 1.249997l24.954515-12.116262c-.642818-1.421843-.671073-3.109692.063576-4.623342 1.316245-2.714212 4.579782-3.839445 7.285267-2.530597 1.097264.534368 1.933163 1.386532 2.455894 2.391708l20.337058-9.875212c-.070639-.635592-.025901-1.287662.13657-1.927962l-8.222417-3.886526c-1.48578 2.25282-4.440858 3.102629-6.929716 1.899713-.937148-.45433-1.68357-1.141711-2.206301-1.958564zm-66.1702 22.346936c-.03061 2.224571-1.857814 4.008936-4.085307 3.980687-2.222784-.030602-4.007604-1.859694-3.984057-4.086619.037674-2.224572 1.862523-4.008937 4.094725-3.978334 2.22043.028248 4.002895 1.852632 3.974639 4.084266zm107.972191-6.737273c-1.45517 2.358752-4.480888 3.27212-7.023903 2.040956-.103604-.049435-.204854-.103578-.303749-.160075l-3.143449 4.425602 11.780283-5.155356c-.007064-.164783-.00471-.329566.004709-.496703zm81.637854-19.442046-69.709229 18.674628c.098895.298963.174244.607343.218982.918077l80.766636-1.939732-6.437596-14.849307c-.824125.01177-1.662379-.162429-2.453539-.546138-1.050171-.508474-1.860168-1.308848-2.385254-2.257528zm-71.195009 16.379435 20.805632-11.13698-30.440835 11.172291c.021192.654424-.075348 1.320618-.301394 1.963272l1.014851.508474c.084768-.294256.195436-.583803.332005-.866288 1.316246-2.714213 4.579782-3.839445 7.285268-2.530597.489766.237758.925375.539076 1.304473.889828zm-53.052479-16.266441-24.813236-8.024934-20.845662 5.435486-8.234189 18.566342c.906538.508473 1.615286 1.242935 2.090924 2.099807l52.080011-15.428402c-.306104-.835685-.409708-1.7467-.277848-2.648299zm133.793214-.131826c-.762905 1.386531-2.050895 2.318733-3.489582 2.669485l6.489398 14.971717 116.50542-2.798958zm-10.037847-1.195854-34.097596 1.419488c-.082413.506119-.240174 1.00753-.473283 1.492463-1.320956 2.711859-4.579783 3.834737-7.289978 2.523535-.59337-.289547-1.111391-.670902-1.544646-1.118171l-26.50387 14.187821.101249.148305.091831.150659 69.749258-18.684044-.004709-.014124zm-178.73159 16.840827 7.862155-17.72124-13.376731 3.486339c1.116101 3.870047 2.232202 8.392165 3.458972 14.023037.680492-.061205 1.377466.004708 2.055604.211864zm401.598624-54.693848-211.001984 36.904341 120.458867 14.959947 1.944936 1.598395 89.026726-52.874172c-.157761-.18597-.299039-.383709-.428545-.588511zm-274.471407 32.356329c-.06593.188323-.143633.376647-.233109.560262-1.320955 2.711858-4.579782 3.834737-7.289977 2.523535-1.036044-.501411-1.838977-1.287662-2.361708-2.217509l-11.024442 4.467975c.13186 1.016946-.021192 2.083328-.501539 3.07438-1.320956 2.711859-4.579783 3.834737-7.289978 2.523535-.809997-.393125-1.478716-.962804-1.980255-1.63606l-12.745687 5.164771c.301395 1.155836.228401 2.412895-.289621 3.580501l4.932979 2.330503c1.464588-2.316379 4.464404-3.206207 6.983873-1.989167 1.116101.543784 1.963773 1.419488 2.481795 2.450559l36.207357-13.288576c-.339069-1.169959-.289621-2.457621.223691-3.653475zm-15.017918-8.215612c-1.558774 1.94444-4.299579 2.62005-6.633031 1.492463-.612207-.298963-1.144357-.694442-1.584675-1.162897l-38.086363 15.042338c.068284.798021-.040029 1.617228-.343778 2.401125l8.099974 3.827675c1.337438-2.662424 4.565654-3.7547 7.247594-2.457622.722875.353107 1.335083.845102 1.81543 1.428905l12.851646-5.207145c-.240174-1.141711-.117732-2.368168.4309-3.498109 1.316245-2.714212 4.579782-3.839445 7.285267-2.530596.951277.461392 1.704763 1.162897 2.227493 1.996229l11.132756-4.510348c-.075348-.934555.091831-1.899713.53215-2.803666.169534-.350752.369679-.673256.600434-.967512zm-9.322034-1.407718-49.511095 2.949616c-.040029.696797-.214273 1.395948-.539213 2.062143-.228401.473162-.518022.89689-.854736 1.266475l5.594633 6.325315c1.539937-.965158 3.524902-1.139357 5.279112-.289547 1.408077.68738 2.389963 1.902067 2.820863 3.290953l37.582469-14.842245c-.143633-.244821-.268429-.501411-.372033-.76271zm-115.867311-5.564959c-.06593.183615-.141279.364877-.228401.546138-.249592.510827-.567469.965158-.937148 1.358283 3.385978 6.624279 5.764168 11.697242 8.057591 19.131312l15.269865-3.983042 1.843686-4.157241c-2.086214-1.219394-3.089293-3.658183-2.540661-5.951022zm56.040522 10.649693-10.680665 2.784833 22.990742 7.436424c.058866-.155367.124796-.310734.200145-.461393.277848-.579094.647527-1.085214 1.080781-1.508941l-5.545186-6.271173c-1.575256 1.122879-3.69679 1.372408-5.559314.470809-1.118455-.543784-1.968482-1.419488-2.486503-2.450559zm209.334895-13.952416-102.690724 24.023014 28.484126-1.186438.454446-.080037c-.032965-.863934.141279-1.746701.546277-2.577678 1.316246-2.714212 4.579782-3.839445 7.285268-2.530597 1.393949.680319 2.368772 1.876173 2.806736 3.246226l4.537398-.793312 29.939296-8.020227 28.945636-11.419465c-.117732-.214218-.221337-.435498-.308459-.661486zm-25.399542-9.479734c-.040029.094162-.082413.188324-.127151.282485-1.3186 2.711859-4.579782 3.834737-7.289977 2.523535-1.017206-.494349-1.813076-1.261767-2.338161-2.172782l-71.623555 31.407649 106.42519-24.896365.014128-.176553.03061-.242466zm-64.576106 14.710418-17.567997 16.38179 69.480829-30.468386zm-18.787702 15.908627 16.353001-15.249494-32.78606 8.89593c.29433.795667.404998 1.657247.303749 2.514119l7.414773 4.056017c1.514036-2.135118 4.391411-2.919014 6.819048-1.744346.762905.371938 1.403368.899244 1.895489 1.527774zm-124.807894-7.549418c-.040029.09887-.082412.195386-.129505.289548-1.210287 2.48587-4.045278 3.634643-6.595357 2.801311l-1.462234 3.295661 15.460591-4.032476zm376.479285-67.925927-22.380889 8.832372c.200144 1.099338.06593 2.269297-.456801 3.349803-1.320956 2.711859-4.579783 3.834737-7.289978 2.523535-.934793-.451976-1.678861-1.137003-2.201591-1.949148l-23.40516 9.234913c.19779 1.09463.061221 2.259882-.459155 3.33568-1.320955 2.711858-4.579782 3.834737-7.289977 2.523534-.930085-.451976-1.671797-1.12994-2.194528-1.937377l-29.644965 11.697242c.120086 1.000469-.03532 2.045664-.506249 3.017884-1.320955 2.711858-4.579782 3.834737-7.289977 2.523535-.82648-.400188-1.504617-.981637-2.010866-1.673725l-27.243228 10.750917c.025901.845101-.148343 1.709035-.541568 2.523534-1.320956 2.711859-4.579783 3.834737-7.289978 2.523535-.666364-.324858-1.238542-.765064-1.700052-1.287662l-29.239967 11.537168-.216627-.548492.153052.569678-17.170063 4.599801 193.9732-33.924122c-.122441-1.00753.032965-2.059788.513313-3.03907.854735-1.772595 2.54066-2.867225 4.3608-3.048486l-5.797133-28.573381c-.654591-.051789-1.311537-.225988-1.935517-.527306-1.325665-.642654-2.272232-1.751408-2.736096-3.034362zm-366.479113 45.070518c-1.448106 1.645477-3.783912 2.281068-5.898382 1.537191l-6.430533 14.493846c2.032058 1.162897 3.061037 3.472214 2.660748 5.694431l9.058315 2.930784 14.269141-3.721742c-.028256-.852164.145988-1.725514.543923-2.547076.240173-.491995.541568-.932201.894764-1.313556zm116.778558 12.128033-17.384335 10.428413 33.610186-9.119565 33.198122-30.955673-16.45425 9.868151c.164825 1.059319.021191 2.175136-.480348 3.208561-1.320955 2.711858-4.579782 3.834737-7.289977 2.523535-.317877-.155367-.612207-.334275-.885346-.539076l-15.422917 9.251391c.273139 1.16996.160116 2.438789-.404998 3.601687-1.320956 2.711858-4.579782 3.834737-7.289977 2.523534-.442674-.216572-.842963-.482579-1.19616-.790958zm-22.762341 8.406289 16.510762-37.321007-25.832797 2.259882c.072994.929848-.094185 1.887943-.529794 2.784834-.932439 1.916191-2.834992 3.03907-4.824666 3.069673l1.19145 19.529145c.33436.0871.66401.207156.986596.364877 2.70784 1.320618 3.835715 4.585677 2.524178 7.288119l-.021192.037664 5.792424 3.168543c1.167903-.953388 2.693712-1.388886 4.203039-1.18173zm54.8632-30.407181 20.038019-12.019746-57.050664 4.990572-16.694425 37.730611c.160116.058851.317877.124764.473284.200093.303749.148305.588661.322504.852381.51789l18.877179-11.32295c-.626335-1.41478-.649882-3.086151.080058-4.585676 1.316246-2.714213 4.579782-3.839446 7.285268-2.530597.774677.376647 1.41985.913369 1.914325 1.54896l14.886058-8.928887c-.781742-1.483047-.873573-3.305077-.082413-4.927013 1.316246-2.714212 4.579783-3.839445 7.285268-2.530597.894765.435498 1.61764 1.085214 2.135662 1.85734zm-74.077093-1.104046-50.528301 30.009347c.09654.28484.169534.576741.216627.875705l49.259148-2.935493c-.169534-1.061673-.023546-2.182198.482702-3.220331.972468-2.010354 3.016299-3.149711 5.109577-3.072027l-1.189095-19.465586c-.433255-.0871-.8618-.233051-1.278572-.433144-.859445-.416666-1.558774-1.031072-2.072086-1.758471zm-84.086684 9.027757-32.524695 10.840371c.289622.800375.390871 1.666663.280203 2.530597l21.585019 6.979739.00471-.014125c1.196159-2.467037 4.00054-3.620519 6.531782-2.827206l6.44466-14.529157c-1.137293-.703859-1.937872-1.774949-2.321679-2.980219zm83.137762-11.461838-72.572475 8.87239c.190726 1.089922.054156 2.245758-.463865 3.314494l-.122442.23305 15.288702 17.29045c1.568193-1.096984 3.666181-1.332389 5.505157-.44256.607499.296609 1.137293.692088 1.575257 1.155835l50.827341-30.185901-.030611-.178907zm97.282108-7.066839-.094186.054143-35.602214 33.199077 52.320185-14.194883c-.178953-1.075798-.037674-2.215155.477993-3.269767.047093-.098869.098895-.197739.153052-.291901l-13.675771-13.152041c-.482702-.084746-.960695-.237759-1.422205-.461393-.908893-.440206-1.638832-1.099338-2.156854-1.883235zm-258.094859-51.979636-.068285.082392 33.021525 64.924521c2.401736 5.016467 4.490305 9.178416 6.329282 12.782457 1.031334-.143597 2.11447.007062 3.119903.494349.948922.461393 1.704762 1.162898 2.227493 1.998583l32.809606-10.934532c-.087121-.955742.077704-1.946794.527441-2.871934.299039-.616759.696974-1.151127 1.167903-1.591333l-78.984171-65.094013zm313.88108 55.99328-28.580667 12.532928c.259011.82627.322587 1.713744.162471 2.587094l25.055764 6.718441c.056512-.153013.122442-.301318.195436-.449623 1.316245-2.714212 4.579782-3.839445 7.285267-2.530597 1.499909.732108 2.517115 2.062143 2.898567 3.564022l26.817038-10.579071c-.501539-1.137003-.614562-2.436435-.259011-3.67937l-24.65783-8.109681c-1.51639 2.132764-4.39141 2.914306-6.821403 1.739639-.873572-.423728-1.58232-1.049904-2.095632-1.793782zm-10.756013-19.9105c-1.172613.524952-2.521824.633238-3.805105.242466l-15.771404 29.599744c.527441.43079.95834.94868 1.283281 1.520712l28.484126-12.490555c-.567469-1.384177-.565115-2.996697.143633-4.449142.150697-.315442.32965-.607343.529795-.878058zm-144.751727-19.851649-17.024074 11.939709c.901828 1.523066 1.045462 3.453381.218982 5.160063-1.320955 2.711858-4.579782 3.834737-7.289977 2.523535-.732295-.355461-1.346857-.84981-1.831913-1.440675l-15.969194 11.198185c.652236 1.428905.685201 3.123816-.051802 4.642174-1.320956 2.711858-4.579783 3.834737-7.289978 2.523535-.546277-.263653-1.026624-.607343-1.433978-1.009885l-20.219326 14.180759c.164825.263653.308459.539076.426191.826269l72.878579-8.912409c.054157-.642654.228401-1.287662.527441-1.904421.664009-1.3677 1.822494-2.332857 3.155222-2.784834l-2.203946-36.108674c-1.073718.176553-2.211011.035311-3.263537-.473163-.221336-.108286-.430899-.228342-.62869-.360168zm138.048056 17.991955-28.613631 13.022569c.433254 1.301786.376743 2.766001-.266075 4.093681-.609853 1.249997-1.629414 2.161012-2.818509 2.653007l12.1947 11.725491c1.287991-.925139 2.950369-1.261767 4.530335-.856871l15.816142-29.686844c-.320231-.284839-.602788-.604989-.842962-.951033zm-140.4286-21.723114-72.41707-7.18925.661655 58.262579c.343778.087099.682847.211864 1.014852.371939.572178.280131 1.076072.645008 1.499908 1.078152l20.200489-14.166635c-1.010143-1.551314-1.205578-3.575792-.336714-5.360157 1.316245-2.714212 4.579782-3.839445 7.285267-2.530597.805289.393126 1.471653.958096 1.973192 1.631353l15.929165-11.169937c-.748777-1.468923-.821771-3.257996-.044738-4.854038 1.316246-2.714212 4.579782-3.839445 7.285268-2.530597.619271.303672 1.15613.706213 1.598803 1.184084l16.793319-11.77728c-.779387-.816853-1.278571-1.852632-1.443396-2.949616zm-154.883759-15.374259c-.042383.54143-.169534 1.085214-.386161 1.61252l79.382105 65.418871c.887701-.522598 1.914326-.788605 2.955078-.753294l-.664009-58.21079zm353.658077 40.939172-31.088362 13.632266c.242529 1.073444.162471 2.226925-.29433 3.302723l24.514196 8.062599c1.372758-2.572969 4.544463-3.613457 7.186373-2.335211 1.346856.656778 2.305196 1.796135 2.761997 3.109692l29.385954-11.593665c-.440318-1.172314-.475638-2.495286-.028255-3.740575l-22.392663-9.618622c-1.346856 2.638883-4.560945 3.719389-7.23582 2.424665-1.396304-.677965-2.373481-1.873819-2.80909-3.243872zm-183.327855 18.70523 26.590992-2.328149 16.491925-37.27628-44.281431 37.488144c.558051.612051.963049 1.337096 1.198514 2.116285zm85.746708-7.652996-40.935482-32.947194-16.880442 38.156693 57.820633-5.05884-.004709-.061205zm-63.033814-50.734347c-1.328019 1.127587-3.145804 1.570147-4.871758 1.129941l-20.765604 53.874641.084767.040019c.266075.129472.515667.275423.748777.440206l45.684799-38.676936zm-13.037663-17.773029-15.47001 27.674137c1.269153 1.593687 1.59174 3.834736.647527 5.783885-.616916 1.266475-1.657669 2.184552-2.867956 2.671839l2.211011 36.176942c.181307-.021187.367324-.032957.550987-.032957l20.979876-54.437258c-1.909617-1.558376-2.571271-4.279651-1.443397-6.593676.574533-1.191146 1.523454-2.073912 2.637201-2.582385l-3.426007-8.486327c-1.212641.393125-2.566561.362522-3.819232-.1742zm160.120486 37.029106-19.164445 31.247574c.520376.484933.934793 1.061674 1.229124 1.692557l31.22964-13.693471c-.084767-.951034.080058-1.937378.529795-2.857809.26372-.548492.607498-1.031071 1.010142-1.440675l-9.67994-14.889325c-1.478717.767418-3.289438.849809-4.902369.070621-.087122-.042373-.169534-.084746-.251947-.129472zm42.298821 7.81307-18.834795 8.260339c.68991 1.214687.904183 2.676548.536858 4.072495l22.482139 9.658641c1.457525-2.339919 4.473823-3.241518 7.002711-2.017415 1.245606.607343 2.159208 1.628998 2.651329 2.81779l23.209723-9.157229c-.393225-1.05932-.456801-2.238696-.134214-3.370991l-27.003055-9.74574c-1.35863 2.615342-4.553881 3.67937-7.219338 2.391708-1.283281-.623821-2.211011-1.680787-2.691358-2.909598zm-44.712331-10.527283-32.637717 14.854015c.303749 1.200563.202499 2.511765-.379098 3.709973-.214272.440206-.480347.838039-.786451 1.191146l10.753658 13.406278c1.280927-.692089 2.820864-.86158 4.266615-.393125l19.406974-31.638346c-.251947-.353106-.46151-.732107-.623981-1.129941zm-65.115319 13.300347-37.737875-29.213681-18.170787 15.381321 39.951241 32.156235c1.243252-2.521181 4.172429-3.65583 6.755473-2.714213l10.007237-8.834725c-1.627059-1.591334-2.135662-4.107806-1.083137-6.268818.084768-.176553.176599-.34369.277848-.506119zm104.037581-81.207441-8.154131 7.198665c.68991 1.445383.739358 3.180313-.011774 4.729273-1.320955 2.711859-4.579782 3.834737-7.289977 2.523535-.195435-.096516-.381452-.200094-.560405-.315442l-29.821563 26.325269c.282557 1.18173.174243 2.46233-.395581 3.636998-1.245606 2.554137-4.210103 3.698202-6.814339 2.725982l-19.472904 17.19158c.277848 1.177022.16718 2.452914-.400289 3.622873-1.243252 2.54943-4.19833 3.695849-6.800211 2.730691l-14.34449 12.6624c.223691 1.125233.09654 2.330503-.440319 3.439258-1.214996 2.492932-4.064115 3.641705-6.621258 2.79425l-10.063747 8.88416.004709.004708.037674.037665 28.931508-13.166166c-.190726-1.087568-.051802-2.243403.470929-3.312139 1.313891-2.714212 4.577428-3.839445 7.282913-2.530597.739358.362523 1.363339.868642 1.85075 1.471277l33.297018-15.152978c.042383-.687381.218982-1.377116.539213-2.03154 1.316246-2.714212 4.579782-3.839445 7.285268-2.530597.33436.162429.647527.357815.932439.576741l16.466024-7.495275c-.242528-1.139357-.117732-2.368167.435609-3.498108 1.311537-2.714213 4.575073-3.839445 7.280559-2.530597.800579.390771 1.464588.953387 1.968482 1.621936l18.455698-8.399228c-.014128-.826269.16247-1.669016.550986-2.462329 1.311537-2.714212 4.575073-3.839445 7.280559-2.530597.470929.228342.894765.51789 1.264444.852164l11.801474-5.369574c-.343778-1.235872-.254301-2.59651.353197-3.839445.084767-.181261.181308-.353106.284912-.520243l-29.969906-26.982048c-1.476362.758002-3.277664.83804-4.885886.061205-.256656-.124764-.499184-.266006-.727585-.423727zm75.727699 76.553496-28.036744-16.490075-31.92426 13.997143c.56276 1.15819.711102 2.504703.362615 3.794719l27.014828 9.750448c1.372757-2.577678 4.546817-3.620519 7.188727-2.342273 1.240898.604989 2.152145 1.621936 2.644265 2.803666l22.432692-8.851204c-.117732-.875705-.021192-1.791427.317877-2.662424zm-81.910993-18.85118c-.824126.44256-1.75421.668548-2.700777.645007l-7.527796 25.760299c.341423.0871.680492.211864 1.010142.371939.642818.313088 1.198514.736816 1.650605 1.238227l19.230376-8.432184c-.169534-1.061674-.023546-2.184552.482702-3.222686.162471-.338982.355551-.649716.574533-.936909zm-6.94149-1.534837-15.882073 7.226914c.739359 1.466569.807643 3.246226.040029 4.832851-.16247.33192-.355551.642654-.572178.925139l9.837702 15.134147c.277848-.105932.565114-.188324.85709-.247175l7.671429-26.252294c-.795869-.390771-1.45517-.953388-1.951999-1.619582zm-69.466701 6.445371-37.099767-29.314904-20.247582 17.139791 37.561277 29.0795c1.549356-1.002822 3.567286-1.1935 5.347396-.334274.793515.388417 1.452815.941618 1.952 1.603104l13.313156-11.751386c-1.532873-1.598395-1.992029-4.044247-.965404-6.15347.042383-.091807.089476-.181261.138924-.268361zm163.96091-17.318698-31.020077 13.601664 26.673405 15.687346c.842962-.816853 1.923744-1.332389 3.068101-1.487756l4.947106-25.150601c-.442673-.089454-.882991-.235404-1.309182-.440206-1.031334-.501411-1.834267-1.282954-2.359353-2.210447zm-58.538799.148305c-1.339792 1.033425-3.122258 1.407718-4.803473.934555l-5.910156 24.755122c.383807.0871.76055.22128 1.130229.400187.76055.369585 1.396304.894537 1.888424 1.518359l31.302635-13.724074zm-8.222416-1.897359-18.036571 8.210903c.249592 1.148774.129505 2.387001-.423836 3.524004-.155407.32015-.339069.616759-.543923.889828l12.733914 15.440172c.4309-.225988.890055-.393125 1.363338-.494349l6.183295-25.901542c-.536859-.475516-.967759-1.042841-1.276217-1.669016zm134.81513-51.226343-24.193965-14.512678-.741713.054143-35.095966 60.383571c.200145.150659.386162.310734.560406.484933l19.727205-14.159572c.456801.637946.915957 1.275892 1.372758 1.911484l-19.826101 14.232547c.49683 1.344159.468574 2.878995-.207209 4.267881-.732294 1.504234-2.065022 2.521181-3.567285 2.900182l-4.565654 23.203807c12.521995-21.939686 18.87247-33.319132 27.878982-43.888788l.513312-.894537.89241-.725045c8.104684-9.164292 18.573431-18.097887 37.25282-33.257928zm-330.596696 19.423214-.240174.063559-3.89929 30.26123c.193081.065913.386162.145951.574533.237759 2.672521 1.30414 3.809814 4.503285 2.568917 7.184541l21.288334 17.135083 18.154303-15.367197-26.077679-20.188277c-1.594094 1.271183-3.83336 1.591333-5.787715.645008-2.70784-1.313557-3.835715-4.573907-2.517114-7.281057.256656-.532014.591016-1.005177.979532-1.407718l-4.817601-11.355906zm-39.390836 49.463163-74.531539-84.434834.913601 80.338799 72.384105 7.184541c.047093-.675611.221336-1.353576.536858-2.000938.190727-.397833.426191-.76271.696975-1.087568zm164.695559-22.191568-35.517447-29.679782-26.470905 22.410495 36.826629 29.103041c1.575256-1.144065 3.713273-1.400656 5.585215-.496703.741713.362522 1.363339.868642 1.85075 1.471277l18.5075-16.337063c-1.525809-1.598395-1.980256-4.039538-.955986-6.144053.054157-.112994.110669-.22128.174244-.327212zm-77.074555-129.46298-66.716476 27.149184-13.7158 123.406026c.143633.091808.280202.190678.412062.29661l15.307539-27.386943c-2.126243-1.51365-2.907985-4.385584-1.723599-6.812602 1.266798-2.624759 4.363155-3.764116 7.012129-2.650653l6.899107-12.339897c-2.434702-1.419488-3.397751-4.498577-2.138017-7.078609 1.311537-2.714212 4.575073-3.839445 7.280559-2.530597l.176598.094162 7.694976-13.766447c-1.966128-1.54896-2.658393-4.307899-1.516391-6.652527 1.231479-2.544721 4.177138-3.693494 6.769601-2.747169l12.59499-22.532905c-1.499909-1.598395-1.937872-4.018352-.918312-6.106389 1.106683-2.295192 3.609669-3.453382 5.990214-2.968449l19.837874-35.48956c-.485057-.084746-.970113-.237759-1.436333-.463747-.722875-.350753-1.330373-.83804-1.810721-1.419488zm-82.706862 149.712462 13.508591-121.553393-91.4473 37.210366 74.882381 84.832668c.939503-.449622 2.001447-.628529 3.056328-.489641zm240.510379-17.144499c-.087122.473163-.237819.939264-.456801 1.39124l-.051802.094162 24.747306 14.555051 31.806528-13.945354c-.115377-.371939-.190726-.755648-.223691-1.146419zm-401.527985 6.803186 81.308204 8.069661-.915956-80.470625-80.495852 71.854826c.044738.181261.080058.362523.103604.546138zm210.531055-60.673119c-.485057.310734-1.014851.54143-1.570547.682673l-4.193621 32.434012c.699329.037665 1.403368.211864 2.074441.536722 2.707841 1.320618 3.83807 4.585677 2.524178 7.288119l-.025901.047081 26.437941 20.4637 20.257-17.149207-31.128391-24.597401c-1.523454.903953-3.458971 1.047549-5.170797.218926-2.707841-1.313556-3.835715-4.573907-2.517115-7.281057.094186-.19774.200145-.386063.317877-.56497zm-131.344385-13.910043-56.932932.56497-23.612367 71.099178c.32494.360169.598079.760356.817061 1.186438l80.691288-72.029025-.449737-.510828zm-81.508349 70.8214 23.332166-70.24466-26.21425.258945 2.095633 69.538447.089477.040019c.244883.120056.477992.256591.696974.407249zm-1.9779-.840393-2.081506-69.133552-50.500045.501412c-.06593.612051-.235464 1.224102-.518021 1.807905-.339069.692089-.802934 1.282954-1.351566 1.753763l52.014081 65.126969c.786451-.200094 1.617641-.225988 2.437057-.056497zm425.733723-11.106378c-1.474007 2.27636-4.450277 3.142648-6.953263 1.93267-.696975-.338982-1.290345-.805083-1.761274-1.358283l-11.523627 5.244809c.098895.237758.181308.482579.244883.732108l51.675013.878058zm-229.156288-21.515958-6.948553 12.426996c2.147435 1.516004 2.948014 4.404416 1.763628 6.836143-.301395.621467-.706393 1.158189-1.182031 1.600749l3.256472 8.064954 3.706209-28.771121c-.200144-.040019-.400289-.094162-.595725-.157721zm269.639678 25.520186-11.130401-55.635465-48.18543 33.905289 11.30229 10.178885c1.547001-1.002823 3.56493-1.1935 5.342687-.33192 2.178045 1.061673 3.33653 3.38276 3.018653 5.654412l36.073143 8.460433c.859445-1.221749 2.163917-2.003291 3.579058-2.231634zm-102.810811-30.760287-34.048149-30.797952-37.952149 32.130341 35.274919 29.477333c1.570547-1.108754 3.677953-1.351221 5.528703-.456684.737004.360169 1.356275.863934 1.841332 1.461861l29.237612-25.80738c-.974823-1.539544-1.153776-3.533419-.296686-5.294244.120087-.251882.259011-.489641.414418-.713275zm105.942487 31.184015 34.686258-59.679712-46.605465 3.328617 11.219878 56.087442c.235464.068268.468574.157721.699329.263653zm-236.681728-80.444731c-.871219.411958-1.848396.590865-2.827928.499058l-3.541384 40.124672c.838253-.02354 1.695344.150659 2.502987.54143 2.70784 1.320619 3.838069 4.585677 2.524178 7.288119-.115378.235405-.244883.461393-.388517.670903l31.231996 24.679792 26.496806-22.431681-33.030943-27.601161c-1.309182.442561-2.787898.390772-4.130045-.258944-2.446475-1.186438-3.602605-3.959502-2.830282-6.480682zm-23.157922 31.360569-7.713813 13.801757c1.848395 1.577209 2.47944 4.256111 1.370403 6.532471-.287267.593219-.668719 1.108755-1.113747 1.539545l4.641003 10.934532 4.181847-32.356329c-.46151-.084745-.918311-.235404-1.360984-.449622zm178.896416 10.280108 17.598607 15.842713 48.684615-34.258396-35.12893-45.482475-46.822092 39.103017 9.133663 16.494784c1.415141-.62853 3.086938-.652071 4.589201.075329 2.70784 1.320618 3.840424 4.585677 2.524178 7.288119-.164825.336628-.357906.649716-.579242.936909zm-132.055487-89.213543c-.468574.546138-1.036044.98399-1.660024 1.299432v59.486681c.536859.080037 1.066654.240112 1.579966.487287 2.70784 1.320618 3.840424 4.585677 2.524178 7.288119-.275493.562616-.631045 1.056965-1.052526 1.475985l32.746031 27.363403 37.989823-32.160944zm98.760824 44.234833-23.939664 20.265961 33.963382 30.722622c1.518746-.892182 3.440135-1.031071 5.142542-.207155.39558.193031.76055.428435 1.085491.69915l8.005789-7.069192c-.882991-1.516004-1.017206-3.429842-.188372-5.127107.211918-.44256.477993-.842748.784097-1.1935l-20.355896-36.753683c-1.061944.167138-2.185109.023541-3.225862-.480224-.475638-.230697-.899474-.520244-1.271507-.856872zm-127.835966 2.919014-12.451356 22.276314c2.309906 1.468923 3.202316 4.467975 1.980255 6.982093-.080057.162429-.167179.32015-.261365.473163l7.026257 12.116262.115378-.070621.19308-.105932 3.663826-41.501788-.072994-.044727zm288.886536-10.529637-.025901.058851c-.784096 1.61252-2.255749 2.664777-3.892226 2.975511l-5.58757 27.426962 23.942018 14.362019-4.626875-41.106308c-.807643.007062-1.631768-.169491-2.4088-.546138-1.309182-.635592-2.248685-1.72316-2.719614-2.984928zm-568.750077 28.262647 50.47179-.499057-1.565838-52.031425-49.459293 50.675496c.291976.579094.480347 1.207624.553341 1.854986zm51.649112-.510828 26.640439-.266006 9.529244-28.686375-37.730812-22.90249zm27.886046-.277777 54.632445-.54143-45.317474-27.506999zm152.142953-86.419293-131.511564 24.303146-10.553514 31.77488 48.503308 29.442023.678137.769772 93.783107-83.719205c-.510958-.765065-.821771-1.652539-.899474-2.570616zm174.231866 62.238558-93.778397-40.20471 70.747627 63.99232 24.036203-20.348353c-.711102-.99576-1.069008-2.210446-1.005433-3.439257zm-172.576551-58.76399-92.393868 82.476271 90.623176-36.876093 4.904723-44.124192c-.588661-.068268-1.177322-.235405-1.740082-.508474-.52744-.254237-.99366-.583803-1.393949-.967512zm207.776121 21.614828c-1.58232 1.18173-3.750947 1.457153-5.64879.539076l-.042384-.021186-20.334703 32.923653c1.697698 1.593688 2.24633 4.161949 1.177322 6.358272-.43561.894536-1.083137 1.617228-1.853105 2.135117l10.336886 18.665212 46.523052-38.851135zm-136.185532 58.187249v-58.636871l-19.76017 35.350672.148342.068267c2.70784 1.320619 3.840424 4.585677 2.524178 7.288119-.19779.402542-.435609.769773-.708748 1.099339l15.359342 16.346478c.668719-.725045 1.51639-1.240581 2.437056-1.516004zm-306.136656 1.066382 49.471066-50.687266-.376743-.282485-68.503652-13.177936 14.118444 62.276222c1.132584-.23305 2.34758-.108286 3.468391.433144.72523.355461 1.339792.84981 1.822494 1.438321zm-59.067181-71.777142c-.307281.419019-.667777.78625-1.06736 1.092276l52.731541 69.740894c.308458-.223634.640463-.414311.986596-.567324l-14.257369-62.881212zm455.231287 8.368624-82.942327-1.51365 94.538948 40.529568c1.250316-2.365813 4.021732-3.441611 6.51059-2.622404l20.513657-33.210847c-.576888-.727399-.955986-1.588979-1.104328-2.49764l-27.141979-.496703c-.068285.207156-.153052.409603-.249592.609697-1.316246 2.711858-4.579783 3.834737-7.289978 2.523535-1.424559-.692089-2.411155-1.918546-2.834991-3.321556zm-343.008023 12.278692 36.635903 22.238649 10.266247-30.906238zm190.521292-32.629398c-.089476.451976-.237819.901598-.447382 1.334742-.66401 1.365346-1.82014 2.32815-3.152868 2.780126l-4.819956 43.36619 65.906479-26.817264c-.586306-1.151127-.76055-2.499994-.430899-3.799426zm-125.676757-35.456604-65.381394 66.989017 47.862844-8.844141 19.056133-57.377458c-.251947-.077684-.499185-.176553-.741713-.294256-.284912-.136534-.548632-.296609-.79587-.473162zm-2.003802-2.742461-115.37519 31.701905 50.507109 37.869498 65.993601-67.615193c-.513312-.569679-.894765-1.238227-1.12552-1.95621zm-139.804619 38.413283 4.113562 18.142613 66.638774 12.820122-49.195573-36.885509zm566.765112 26.739581-33.81033-27.942498 20.775022 27.890709c1.401013-.602636 3.046909-.614406 4.525625.101224 1.25738.614405 2.175691 1.645476 2.665457 2.848392l2.022639-.506119 2.823218.157721c.070639-.588511.237819-1.172314.513312-1.73493.138924-.289548.301395-.560263.485057-.814499zm-40.966093-32.160944-36.068433 2.120994c31.422721 8.309773 33.770301 12.721251 62.139049 31.301717.251947-.273069.52744-.51789.824126-.732108l-23.558211-31.628929-.195436-.160075zm-375.478561-33.540412c-.089476.421373-.230755.838039-.42619 1.240581-1.017206 2.095098-3.197606 3.241518-5.38507 3.048486l-18.898371 56.901941 131.120693-24.23017c.06593-.480225.200145-.96045.402644-1.424197-53.181984-17.073878-79.572832-25.494291-106.813706-35.536641zm286.932182 41.680695-1.768337-.379001-7.085124 11.805529c1.269153.922785 2.050895 2.330503 2.213366 3.830028l27.003054.49435c.087122-.313088.2025-.619114.350842-.920431 1.219706-2.523535 4.127691-3.674662 6.703671-2.768356l17.480876-19.418505-4.064116-14.220777zm-471.895101 7.968438 37.493934 7.212789-3.988766-17.587059-33.136196 9.103086c-.068755.43079-.190726.856872-.368972 1.271184zm439.04782-15.004674-.214272-.047081-35.628115 12.262213-29.433048 8.408644 80.665387 1.471277c.077703-.54143.242528-1.08286.49683-1.60075.143633-.298963.310813-.579095.499184-.835685zm22.97426 17.876607 6.889687-11.478317-27.999069-5.998103 15.321667 18.378018c1.547001-1.362991 3.800395-1.774948 5.787715-.901598zm-461.596832-5.37899 32.820909-9.018341-5.807494-25.611994-27.790918 32.17036c.450914.746231.719108 1.591333.777503 2.459975zm25.362104-37.226845-28.437504-12.836599-1.598097 45.028145c.546748.075329 1.091849.237758 1.615757.491995.596196.291901 1.116101.675611 1.549826 1.129941l28.121746-32.554069-.356022-.26836zm-111.390663-87.9094028c-.086886.4566845-.235935.9110149-.449501 1.351221-.240645.4943492-.545806.9369094-.900887 1.3206185 44.923072 53.1896143 46.917219 57.0290593 79.60721 117.9046263.601847-.287194 1.253377-.461393 1.921625-.510828l1.615285-45.515432-39.786887-17.961352.242293-.536722-.449737-.379001 19.563794-23.163789-.119381-.131827-35.848274-30.5131123zm119.984406 115.8071728 20.62668-5.668536-26.398383-19.792799zm486.292807-3.112045 36.360409-2.139826-43.054662-12.370499 3.946383 13.813528 1.16084.291901zm-444.674478-78.401421-46.473604 53.796958 28.35462 21.259367 116.324112-31.96085c-.094186-.967511.068285-1.972688.52744-2.911951.042384-.089454.087122-.176554.134215-.261299-22.908329-8.707607-48.679906-19.359655-92.67407-37.664697zm-74.490098-27.1797871c-.089005.4402061-.234758.8757042-.440318 1.299432-.350607.7203374-.838489 1.3300346-1.417967 1.8079055l-1.552181 43.7451916c8.04158 8.677005 17.553163 19.206641 30.179234 33.187306l.303749.228342 46.23555-53.521534zm-4.114504 66.6877001 26.423812 11.927939-25.831855-28.606338zm-39.796541-17.963706 38.637114 17.441108.617859-17.410506-20.29703-22.476408zm40.847889-44.8563005c-1.017677.4684546-2.173336.6238215-3.30592.4048955l-17.811938 21.089876c6.222146 6.078141 12.335979 12.415226 19.635845 20.268315zm-54.756064-8.8300175c14.056282 12.0809516 23.605775 20.5743408 32.792889 29.500874l17.441082-20.6496701-.145046-.0659133c-2.077738-1.0075306-3.225156-3.1614805-3.049735-5.3319086zm49.49838-.6850266-56.205347-38.3120591-15.552422 19.990538c7.93303 6.7513969 14.752079 12.5588224 20.758775 17.7141778l48.762082 3.5828543c.081707-.2660069.18484-.5296598.310342-.7862505.448325-.9274932 1.124107-1.6666629 1.92657-2.1892605zm-78.69714-2.6412369 23.783315 1.7467003-18.290637-15.5672901-7.546634 9.7010135c1.273863 1.0122388 2.010631 2.535305 2.053956 4.1195763zm-55.1057282-46.5064847 45.7716852 42.8318227c1.594094-1.6266441 4.10744-2.1304095 6.265707-1.0875682l.015776.0094162 7.647883-9.8304859-1.368048-1.1652516zm-28.8719356-4.7080871 70.3664098 45.1482015-45.4410926-42.5210889-28.2258214-14.88461749zm90.0199158 34.7692234 15.31319-19.6821582-97.7949492-30.3436216 14.8184797 13.8676707 66.1767925 34.8939877zm-92.1058947-49.04649767 20.4957613 10.80741397-13.4490189-12.58471687-.6802566-.21186392z" fill="#b13187" fill-rule="evenodd" transform="translate(55.613)"/></svg>