<svg width="1000" height="1000" viewBox="0 0 1000 1000" fill="none" xmlns="http://www.w3.org/2000/svg"><g id="squid-grid" clip-path="url(#clip0)"><path id="Fill 1" fill-rule="evenodd" clip-rule="evenodd" d="M658.001 164.7C656.849 162.974 656.582 160.711 657.499 158.678C658.902 155.522 662.594 154.112 665.739 155.511C668.827 156.898 670.249 160.479 668.978 163.584L675.041 168.582L679.322 167.581C679.173 166.472 679.322 165.31 679.813 164.212C681.215 161.057 684.913 159.649 688.058 161.049C691.208 162.462 692.624 166.157 691.219 169.302C691.127 169.509 691.022 169.712 690.911 169.906L696.904 175.912L698.879 175.3C698.857 174.399 699.032 173.477 699.426 172.598C700.829 169.442 704.521 168.034 707.666 169.434C710.625 170.761 712.054 174.105 711.051 177.113L716.984 182.69L725.248 180.015C725.121 178.933 725.275 177.803 725.753 176.735C727.155 173.582 730.847 172.174 733.992 173.571C737.143 174.985 738.558 178.682 737.153 181.827C736.911 182.375 736.598 182.868 736.231 183.305L741.339 190.28L746.391 188.559C746.439 187.842 746.615 187.124 746.925 186.431C748.327 183.278 752.02 181.87 755.165 183.267C758.167 184.619 759.593 188.039 758.504 191.081L763.439 195.55L769.392 195.507C770.848 192.47 774.471 191.138 777.559 192.513C780.709 193.926 782.12 197.621 780.714 200.766C780.58 201.066 780.426 201.352 780.25 201.619L786.578 214.654L793.431 222.478C794.971 221.825 796.77 221.788 798.418 222.521C801.568 223.934 802.979 227.632 801.574 230.774C801.218 231.575 800.711 232.266 800.104 232.824L805.107 244.47L811.755 252.839C813.382 252.001 815.361 251.879 817.16 252.68C820.311 254.096 821.727 257.794 820.321 260.936C819.879 261.934 819.205 262.757 818.393 263.369L824.286 274.888L830.072 283.09C831.385 282.758 832.814 282.847 834.144 283.441C837.294 284.851 838.708 288.549 837.305 291.697C837.076 292.212 836.785 292.678 836.447 293.097L843.956 306.507C846.276 316.192 847.605 321.691 848.62 326.659C849.461 326.662 850.316 326.835 851.133 327.199C854.283 328.612 855.699 332.307 854.294 335.452C853.574 337.068 852.253 338.225 850.712 338.78C851.225 342.222 851.799 346.34 852.547 351.734L855.915 373.101C856.393 373.19 856.867 373.336 857.329 373.541C860.479 374.957 861.889 378.652 860.484 381.796C859.902 383.105 858.922 384.111 857.752 384.742L860.166 400.056L863.232 420.489C863.516 420.57 863.799 420.673 864.077 420.794C867.227 422.205 868.638 425.902 867.232 429.044C866.72 430.196 865.905 431.113 864.921 431.747L866.66 443.334L851.95 475.378C831.471 507.094 831.45 507.094 809.123 537.536L787.338 548.788L791.268 556.348L828.936 554.638L852.317 546.498L848.787 538.439L837.505 516.188L840.741 498.654C848.881 505.907 857.021 513.159 865.161 520.412L876.189 538.191L899.611 530.038L947.134 461.253L941.759 356.252L896.078 301.9L893.998 286.106C897.874 286.502 901.75 286.899 905.626 287.298L960.032 342.122L964.528 354.987C965.688 354.801 966.912 354.936 968.061 355.448C971.211 356.862 972.627 360.559 971.222 363.702C970.37 365.616 968.676 366.884 966.769 367.275L966.529 377.567L970.486 383.229C971.967 382.676 973.655 382.681 975.206 383.372C978.356 384.788 979.772 388.483 978.367 391.627C977.291 394.044 974.871 395.43 972.382 395.322L971.384 401.256L975.799 410.461C977.088 410.154 978.483 410.251 979.783 410.831C982.933 412.244 984.344 415.942 982.938 419.087C981.849 421.533 979.384 422.925 976.865 422.776L976.263 424.972L983.095 439.652C984.354 439.374 985.708 439.482 986.973 440.046C990.118 441.462 991.534 445.157 990.129 448.302C988.961 450.926 986.202 452.337 983.491 451.932L982.056 455.692L983.108 469.412C983.365 469.488 983.621 469.582 983.872 469.693C987.016 471.106 988.432 474.804 987.027 477.946C985.622 481.101 981.922 482.507 978.771 481.104C978.394 480.937 978.043 480.735 977.717 480.505L970.85 485.325L971.408 502.624C971.878 502.713 972.344 502.856 972.797 503.059C975.948 504.469 977.358 508.167 975.953 511.309C974.548 514.467 970.853 515.87 967.702 514.467C966.818 514.074 966.071 513.499 965.485 512.806L958.381 518.745L957.842 533.129C958.511 533.188 959.182 533.355 959.83 533.644C962.98 535.057 964.396 538.755 962.991 541.897C961.585 545.053 957.885 546.458 954.735 545.055C954.435 544.923 954.155 544.769 953.891 544.6L937.422 559.844L935.917 562.721C937.81 564.496 938.471 567.336 937.357 569.831C935.952 572.987 932.252 574.388 929.101 572.989C926.496 571.824 925.083 569.097 925.471 566.406L912.134 559.892L901.308 572.318L929.371 609.656L930.784 610.64L930.461 611.104L930.517 611.18L931.068 611.123L931.162 612.04L938.121 621.297L987.2 701.771L995.024 759.296C995.289 759.374 995.553 759.47 995.814 759.586C998.965 760.996 1000.38 764.694 998.975 767.836C997.632 770.851 994.193 772.268 991.143 771.166L964.838 788.603C965.467 790.131 965.491 791.901 964.765 793.525C963.363 796.68 959.665 798.086 956.515 796.686C955.784 796.36 955.15 795.911 954.621 795.375L942.412 803.468C942.363 804.182 942.19 804.9 941.883 805.591C940.478 808.743 936.777 810.146 933.627 808.749C932.012 808.027 930.854 806.703 930.302 805.16L913.008 798.793C911.228 800.337 908.646 800.801 906.354 799.783C904.336 798.881 903.031 797.043 902.726 795.009L883.971 788.104C882.215 790.145 879.264 790.882 876.68 789.732C873.7 788.4 872.276 785.021 873.328 781.992C866.534 776.729 859.61 771.612 852.725 766.455C851.236 767.019 849.531 767.017 847.961 766.32C845.467 765.205 844.064 762.66 844.288 760.085C835.493 753.368 826.865 746.461 818.749 738.972C817.109 739.833 815.105 739.96 813.282 739.151C810.132 737.743 808.721 734.053 810.132 730.9C810.221 730.705 810.315 730.516 810.42 730.334C805.234 724.493 796.39 714.426 786.2 702.79C784.776 703.255 783.182 703.213 781.707 702.558C778.562 701.15 777.151 697.461 778.562 694.31C778.586 694.257 778.611 694.204 778.638 694.151C772.278 686.884 765.64 679.289 759.205 671.922C757.821 672.335 756.289 672.274 754.868 671.644C751.718 670.234 750.307 666.544 751.723 663.394C751.728 663.385 751.731 663.377 751.734 663.369C738.769 648.521 727.527 635.632 722.432 629.793L723.166 629.151L721.71 628.089L726.934 651.846L731.257 671.182L725.221 684.114L732.029 698.169L738.691 743.972C738.968 744.052 739.244 744.152 739.513 744.272C742.664 745.685 744.077 749.383 742.674 752.528C741.59 754.961 739.144 756.35 736.635 756.217L715.493 799.161C717.656 800.901 718.47 803.938 717.289 806.584C715.884 809.737 712.183 811.139 709.033 809.739C708.755 809.615 708.488 809.472 708.237 809.313L697.09 820.513C699.21 822.258 700.001 825.266 698.83 827.889C697.425 831.042 693.724 832.445 690.574 831.045C688.519 830.128 687.205 828.237 686.93 826.158L632.187 837.878C632.184 838.718 632.009 839.57 631.645 840.384C630.24 843.535 626.539 844.94 623.389 843.54C621.229 842.572 619.886 840.526 619.716 838.318L531.914 807.584C530.239 810.018 527.013 810.981 524.219 809.739C521.069 808.334 519.658 804.642 521.069 801.491C521.079 801.469 521.09 801.446 521.101 801.423L506.812 786.216L497.871 794.322C498.785 795.98 498.936 798.028 498.108 799.883C496.703 803.039 493.008 804.441 489.858 803.041C488.078 802.247 486.85 800.721 486.378 798.976L472.677 799.417L448.193 803.169C448.128 803.818 447.961 804.468 447.68 805.096C446.275 808.251 442.58 809.654 439.424 808.254C436.28 806.846 434.869 803.156 436.28 800.003C436.374 799.786 436.482 799.577 436.601 799.376L422.743 790.103L406.657 793.879C406.681 794.782 406.509 795.704 406.118 796.583C404.713 799.738 401.018 801.141 397.862 799.744C394.938 798.433 393.514 795.154 394.458 792.169L383.384 784.594L364.563 787.94C364.803 789.159 364.682 790.461 364.137 791.681C362.732 794.834 359.032 796.236 355.881 794.837C352.731 793.429 351.321 789.739 352.737 786.589C353.012 785.968 353.376 785.415 353.807 784.937L343.194 773.507L334.121 771.146C332.425 773.49 329.258 774.401 326.513 773.178C323.368 771.773 321.957 768.078 323.368 764.93C323.737 764.101 324.266 763.392 324.9 762.823L318.915 749.66L313.556 748.753C313.542 748.786 313.529 748.818 313.515 748.851C312.11 752.007 308.409 753.409 305.259 752.009C302.109 750.602 300.704 746.909 302.114 743.759C302.605 742.655 303.377 741.765 304.307 741.134L300.164 727.526L290.395 723.618C288.756 726.174 285.446 727.211 282.59 725.939C279.44 724.534 278.035 720.844 279.44 717.694C280.025 716.379 281.007 715.368 282.183 714.737L278.358 703.887L269.722 702.578C268.31 705.72 264.62 707.112 261.477 705.716C258.327 704.308 256.922 700.619 258.332 697.466C259.013 695.933 260.236 694.814 261.673 694.228L258.432 675.33C257.251 675.534 255.999 675.402 254.824 674.881C251.679 673.473 250.268 669.781 251.679 666.631C251.757 666.456 251.842 666.286 251.933 666.122L250.018 664.803C248.241 666.313 245.684 666.761 243.414 665.752C240.269 664.344 238.859 660.652 240.269 657.501C241.026 655.799 242.452 654.606 244.098 654.088L243.822 645.504L236.196 641.994C234.507 644.373 231.318 645.304 228.553 644.075C225.403 642.67 223.998 638.977 225.409 635.827C226.309 633.802 228.155 632.496 230.193 632.191L229.924 623.743L222.912 619.748C221.208 622.059 218.066 622.95 215.336 621.737C212.192 620.329 210.781 616.639 212.192 613.489C213.04 611.579 214.728 610.31 216.624 609.915L215.318 601.973L211.251 598.418C209.562 599.426 207.425 599.621 205.496 598.761C202.346 597.356 200.935 593.661 202.346 590.514C203.081 588.861 204.445 587.688 206.029 587.145L205.666 575.721L200.299 574.717C198.85 577.777 195.216 579.12 192.111 577.74C188.961 576.332 187.55 572.639 188.961 569.489C189.448 568.393 190.214 567.506 191.138 566.878L188.571 553.346L182.716 535.281L176.236 537.533L146.406 536.077L140.379 524.11L144.579 514.492L174.848 512.884C169.324 496.008 169.307 495.825 166.585 477.994C171.978 482.436 177.372 486.876 182.765 491.318L189.259 510.322L215.375 502.401L275.909 519.756L310.146 474.793C309.513 482.156 308.879 489.519 308.245 496.882L291.11 524.115L302.632 527.419C342.369 558.87 364.054 576.25 382.391 593.989L384.962 596.025L386.569 595.214C386.771 595.616 386.974 596.017 387.176 596.418L386.073 596.975C386.925 598.041 387.761 599.09 388.587 600.124C407.965 619.776 425.364 641.826 459.885 685.023L502.407 726.397L517.126 728.854L602.117 677.825L600.11 615.286C599.406 615.234 598.7 615.062 598.02 614.76C595.026 613.424 593.608 610.023 594.681 606.984L586.045 599.322L574.952 599.678L536.283 577.821L522.299 570.376C520.57 572.574 517.506 573.402 514.838 572.215C513.719 571.716 512.821 570.929 512.193 569.979L510.029 570.619L501.175 575.399L478.63 565.594C476.895 566.778 474.606 567.058 472.548 566.144C470.341 565.157 468.99 563.048 468.866 560.788C443.262 548.51 416.28 538.466 392.872 522.637C391.205 523.578 389.129 523.743 387.246 522.904C384.544 521.698 383.125 518.81 383.664 516.024C321.598 470.148 282.633 435.005 247.723 397.383C246.022 398.432 243.848 398.648 241.886 397.774C238.736 396.369 237.331 392.677 238.736 389.526C238.929 389.092 239.165 388.69 239.437 388.326C203.627 348.644 170.569 305.123 118.747 242.836L11.018 186.288C9.26843 188.362 6.29297 189.117 3.69215 187.96C0.547315 186.555 -0.863275 182.863 0.547315 179.713C1.94981 176.557 5.64755 175.152 8.79239 176.552C10.7605 177.434 12.0516 179.214 12.3976 181.191L71.599 183.896L79.9015 178.426L89.5337 181.768L89.1901 180.751L128.628 167.43C128.514 166.367 128.671 165.259 129.14 164.212C130.542 161.057 134.24 159.651 137.385 161.051C140.53 162.462 141.946 166.16 140.54 169.302C140.439 169.528 140.325 169.747 140.201 169.957L183.194 210.519L324.994 246.391L493.685 314.304C495.398 312.046 498.499 311.186 501.194 312.386C504.344 313.797 505.76 317.495 504.355 320.637C504.258 320.855 504.15 321.063 504.034 321.265L574.026 376.424L590.635 393.559C592.089 393.046 593.734 393.07 595.25 393.745C598.055 395.002 599.487 398.074 598.773 400.951L663.9 448.65L694.423 489.077C695.866 488.583 697.492 488.61 698.995 489.279C701.508 490.406 702.919 492.99 702.671 495.585L736.6 516.951C729.391 500.588 722.489 487.453 714.403 474.197C713.278 473.293 712.523 472.036 712.224 470.669C703.876 457.302 694.202 443.514 681.684 425.91C680.978 425.859 680.266 425.689 679.581 425.384C676.741 424.111 675.317 420.98 676.104 418.067C671.047 410.963 665.553 403.244 659.541 394.726C656.008 390.705 652.388 386.716 648.621 382.662C648 382.592 647.38 382.428 646.778 382.161C644.564 381.171 643.21 379.048 643.094 376.78C632.3 365.39 620.212 353.191 605.707 338.203L600.949 320.629L616.271 326.751L660.126 366.366L672.487 381.91C674.176 380.901 676.312 380.701 678.238 381.562C681.388 382.978 682.798 386.673 681.393 389.818C681.091 390.497 680.681 391.093 680.196 391.6L711.83 431.377C712.426 431.45 713.022 431.612 713.602 431.871C716.132 433.007 717.543 435.612 717.273 438.223L748.017 476.88C749.433 476.419 751.019 476.465 752.484 477.115C755.628 478.526 757.044 482.223 755.639 485.366C755.397 485.913 755.084 486.407 754.717 486.844L764.548 505.033C765.732 504.825 766.989 504.955 768.165 505.478C768.925 505.818 769.583 506.292 770.125 506.856L814.08 445.413L812.562 324.995L752.913 209.133L660.108 184.109L594.255 221.588L658.001 164.7ZM629.986 833.076L644.988 818.86L543.76 788.438L531.892 800.463C532.815 801.791 533.206 803.451 532.931 805.083L620.115 835.6C620.155 835.496 620.198 835.393 620.244 835.29C621.647 832.139 625.344 830.729 628.484 832.129C629.04 832.378 629.544 832.699 629.986 833.076ZM705.67 806.041L646.622 819.168L630.911 834.056C631.192 834.426 631.429 834.824 631.621 835.242L687.211 823.34C687.273 823.158 687.346 822.976 687.424 822.797C688.659 820.024 691.667 818.599 694.515 819.248C699.135 814.516 702.876 810.466 705.991 806.816C705.867 806.565 705.759 806.306 705.67 806.041ZM707.784 799.082L703.059 791.322L641.012 803.211L646.714 817.766L705.379 804.724C705.26 803.656 705.416 802.544 705.888 801.491C706.325 800.508 706.986 799.694 707.784 799.082ZM546.683 773.217L544.329 787.201L645.163 817.505L639.566 803.215L634.412 801.087L633.339 801.337L546.683 773.217ZM921.986 786.227L915.033 792.88C915.257 794.013 915.171 795.217 914.72 796.36C919.357 798.168 924.417 800.086 929.997 802.162C930.078 801.601 930.237 801.042 930.482 800.498C931.043 799.232 931.977 798.247 933.096 797.612L929.735 786.319C927.974 787.673 925.541 788.039 923.37 787.075C922.86 786.848 922.399 786.561 921.986 786.227ZM678.623 790.761L636.67 800.56L640.16 802.001L697.479 791.019L678.871 790.303L678.623 790.761ZM932.168 781.478C932.155 782.296 931.979 783.124 931.626 783.916C931.41 784.403 931.138 784.847 930.822 785.246L934.342 797.073C935.736 796.642 937.287 796.695 938.722 797.335C940.208 798.003 941.309 799.179 941.907 800.566L953.187 793.091C952.806 792.031 952.712 790.869 952.949 789.727L932.168 781.478ZM272.956 683.46C272.943 683.486 272.932 683.512 272.921 683.538C271.516 686.694 267.814 688.096 264.664 686.697C264.002 686.401 263.416 686.004 262.918 685.532L264.331 693.77C265.086 693.805 265.846 693.979 266.577 694.305C268.87 695.333 270.243 697.576 270.275 699.934L280.365 701.463L284.783 714C285.748 713.943 286.741 714.11 287.685 714.53C290.282 715.693 291.701 718.409 291.331 721.088L302.365 725.503L306.824 740.135C307.981 739.947 309.205 740.083 310.354 740.595C312.606 741.609 313.974 743.791 314.055 746.101L320.776 747.24L327.26 761.496C328.646 761.074 330.183 761.132 331.607 761.767C334.307 762.977 335.731 765.862 335.203 768.641L344.634 771.095L356.03 783.368C357.562 782.729 359.344 782.698 360.976 783.425C361.988 783.879 362.821 784.568 363.441 785.4L383.999 781.746L395.804 789.823C397.571 787.888 400.443 787.209 402.962 788.33C404.338 788.949 405.384 790.005 406.007 791.262L423.266 787.209L438.47 797.382C440.199 796.209 442.478 795.932 444.519 796.842C446.154 797.574 447.322 798.922 447.869 800.49L472.429 796.727L486.252 796.282C486.338 795.78 486.489 795.28 486.708 794.793C488.11 791.638 491.808 790.23 494.953 791.63C495.363 791.814 495.743 792.038 496.093 792.294L504.964 784.25L495.94 774.647L479.139 771.035C479.102 771.133 479.061 771.23 479.018 771.326C477.613 774.479 473.912 775.882 470.762 774.484C468.489 773.467 467.121 771.256 467.07 768.92L454.558 767.403C452.84 769.654 449.738 770.511 447.041 769.314C444.73 768.281 443.357 766.018 443.349 763.642L432.069 757.682C430.327 759.808 427.314 760.593 424.685 759.427C422.621 758.503 421.305 756.597 421.041 754.506L409.727 754.868C409.638 755.34 409.492 755.81 409.287 756.268C407.882 759.421 404.181 760.824 401.031 759.427C399.31 758.657 398.107 757.204 397.603 755.531L370.691 757.612L370.586 756.267L369.704 757.288L333.514 725.996C331.834 726.975 329.719 727.158 327.81 726.311C324.727 724.933 323.316 721.37 324.576 718.267L315.441 710.368C315.155 710.288 314.872 710.186 314.591 710.062C313.135 709.409 312.051 708.266 311.446 706.913L306.964 703.039L302.597 702.332C301.133 705.36 297.516 706.68 294.428 705.308C291.277 703.897 289.872 700.208 291.277 697.057C291.782 695.928 292.577 695.022 293.538 694.389L290.6 689.796C288.874 690.94 286.617 691.203 284.586 690.302C282.275 689.267 280.902 686.998 280.896 684.617L272.956 683.46ZM531.005 799.442L542.621 787.67L447.117 688.653L434.963 698.978C436.085 700.699 436.339 702.934 435.443 704.944C435.306 705.252 435.147 705.543 434.966 705.817L522.757 799.248C524.532 797.763 527.064 797.326 529.314 798.328C529.95 798.614 530.517 798.993 531.005 799.442ZM659.536 661.867C659.447 662.332 659.304 662.795 659.102 663.247C657.696 666.403 653.996 667.808 650.846 666.405C649.98 666.018 649.244 665.457 648.664 664.782L643.278 666.646L643.717 689.637C643.941 689.707 644.16 689.791 644.378 689.888C647.528 691.298 648.944 694.996 647.539 698.141C646.134 701.296 642.433 702.699 639.283 701.299C638.113 700.776 637.185 699.939 636.551 698.932L633.409 699.763L621.161 723.823C622.796 725.605 623.316 728.256 622.27 730.601C620.865 733.756 617.164 735.159 614.014 733.759C611.56 732.663 610.165 730.185 610.332 727.654L595.078 723.91L583.059 744.836C584.116 746.539 584.338 748.718 583.461 750.682C582.056 753.835 578.361 755.24 575.211 753.84C573.066 752.882 571.729 750.867 571.537 748.684L564.697 746.868C564.624 747.098 564.538 747.325 564.438 747.55C563.227 750.272 560.312 751.69 557.515 751.133L548.137 770.854L633.457 798.54L676.835 788.408L697.937 749.875L690.075 718.174L661.71 663.906L659.536 661.867ZM733.599 744.723L730.567 740.5L704.168 790.548L708.936 798.381C710.161 797.807 711.566 797.63 712.933 797.933C721.068 786.33 723.851 776.803 734.027 755.493C731.155 753.969 729.917 750.455 731.268 747.439C731.783 746.281 732.606 745.358 733.599 744.723ZM919.691 780.909L887.501 784.654C892.151 786.949 897.262 789.246 903.134 791.697C903.155 791.642 903.179 791.587 903.204 791.533C904.606 788.377 908.304 786.972 911.449 788.372C912.884 789.014 913.96 790.132 914.572 791.456L921.034 785.27C920.061 784.046 919.573 782.485 919.691 780.909ZM679.597 788.981L702.994 789.881L729.283 740.044L704.578 743.026L700.594 749.382C700.664 749.669 700.737 749.957 700.81 750.247L679.597 788.981ZM900.525 753.592L900.817 762.731C903.206 763.908 904.533 766.428 904.283 768.958L922.458 776.172C924.179 775.025 926.437 774.761 928.465 775.663C930.32 776.496 931.575 778.123 932.006 779.962L953.362 788.441L953.365 788.438C953.961 787.097 954.969 786.072 956.175 785.444L952.399 775.09L940.677 771.336L940.553 771.388L940.311 771.917L900.525 753.592ZM964.887 761.064L963.463 761.668L953.678 774.661L957.432 784.952C958.772 784.588 960.242 784.666 961.61 785.274C962.246 785.56 962.813 785.939 963.298 786.388L988.697 769.552C987.807 768.596 987.243 767.384 987.076 766.101L964.86 760.999L964.887 761.064ZM460.322 687.985L448.703 688.354L543.12 786.246L545.402 772.709L500.838 728.633C482.994 711.267 470.43 698.65 460.319 687.902L460.322 687.985ZM903.999 770.296C903.935 770.496 903.856 770.695 903.77 770.892C902.365 774.045 898.67 775.447 895.52 774.05C895.193 773.904 894.886 773.733 894.597 773.541L884.861 781.323C885.192 782.014 885.397 782.764 885.459 783.534L919.961 779.52C920.034 779.287 920.123 779.055 920.225 778.827C920.5 778.202 920.87 777.645 921.304 777.165L903.999 770.296ZM871.586 745.293C871.189 745.812 870.717 746.256 870.197 746.618L878.158 777.874C879.342 777.666 880.599 777.797 881.775 778.321C882.735 778.752 883.536 779.395 884.143 780.17L893.545 772.656C891.852 770.876 891.304 768.183 892.369 765.799C892.626 765.219 892.963 764.698 893.359 764.242L871.586 745.293ZM864.128 747.218L855.681 757.109C856.851 758.84 857.129 761.117 856.212 763.161C856.018 763.597 855.78 763.999 855.505 764.365C862.847 769.982 869.242 774.465 876.2 778.566C876.416 778.447 876.637 778.341 876.864 778.248L868.972 747.279C867.467 747.887 865.73 747.912 864.128 747.218ZM942.579 770.529L952.666 773.76L960.981 762.721L942.579 770.529ZM293.268 683.39C293.511 684.613 293.389 685.92 292.842 687.144C292.745 687.365 292.634 687.578 292.515 687.782L296.116 693.414C297.235 693.255 298.414 693.4 299.523 693.894C301.874 694.949 303.261 697.28 303.226 699.702L311.824 701.092C313.434 698.452 316.798 697.359 319.692 698.648C322.842 700.064 324.252 703.759 322.847 706.904C322.685 707.27 322.491 707.612 322.27 707.929L327.632 714.989C329.234 714.209 331.154 714.116 332.905 714.896C334.954 715.818 336.271 717.705 336.551 719.778L344.958 720.316C346.576 717.699 349.923 716.621 352.807 717.904C355.957 719.32 357.367 723.015 355.962 726.16C355.879 726.349 355.784 726.532 355.684 726.708L357.891 729.681C359.496 728.897 361.421 728.803 363.174 729.583C365.669 730.703 367.077 733.257 366.853 735.834L375.581 737.271C377.059 734.287 380.644 732.984 383.707 734.348C386.461 735.585 387.888 738.564 387.268 741.394L399.229 749.245C401.007 747.513 403.725 746.944 406.126 748.012C407.936 748.825 409.174 750.391 409.632 752.172L421.3 751.799C421.367 751.589 421.448 751.382 421.54 751.176C422.942 748.023 426.64 746.612 429.785 748.012C432.609 749.281 434.033 752.381 433.288 755.275L443.964 760.917C445.415 757.867 449.045 756.522 452.136 757.9C454.849 759.12 456.276 762.032 455.72 764.827L467.601 766.267C467.607 766.256 467.612 766.245 467.617 766.234C469.02 763.081 472.718 761.67 475.862 763.07C478.047 764.053 479.396 766.132 479.547 768.364L492.692 771.19L473.575 750.846L386.45 731.235L386.599 730.577V730.577L386.291 731.177L293.268 683.39ZM618.925 722.268L631.189 698.179L620.741 683.041L532.588 731.164L532.844 739.09L532.17 739.112L532.793 739.365L527.839 751.546L545.858 769.367L555.042 750.049C552.717 748.349 551.813 745.202 553.04 742.463C554.44 739.308 558.132 737.9 561.277 739.299C563.314 740.212 564.627 742.081 564.918 744.137L571.898 745.989C571.947 745.856 572.001 745.724 572.06 745.592C573.463 742.437 577.161 741.029 580.305 742.428C580.581 742.552 580.842 742.693 581.09 742.849L593.748 720.807L611.088 725.062C612.595 722.282 615.977 721.066 618.925 722.268ZM805.309 656.2L845.699 703.278L900.528 750.625L939.874 768.747L962.327 759.22L955.255 713.056L915.222 638.557L874.264 574.655L859.772 591.016C861.636 592.792 862.28 595.614 861.175 598.092C859.769 601.245 856.069 602.648 852.919 601.248C849.769 599.843 848.358 596.15 849.769 593C849.796 592.935 849.828 592.87 849.858 592.806L837.181 583.558L831.153 593.988C832.79 595.77 833.311 598.423 832.264 600.768C830.859 603.924 827.159 605.326 824.008 603.926C822.182 603.11 820.942 601.526 820.497 599.725L811.289 598.484L812.729 604.642C815.089 606.341 816.02 609.515 814.79 612.268C814.291 613.39 813.5 614.291 812.546 614.922C811.828 620.359 811.162 624.578 810.391 628.21C810.407 628.217 810.423 628.224 810.439 628.231C813.589 629.647 815 633.342 813.595 636.486C812.397 639.171 809.538 640.586 806.774 640.085C805.976 642.053 805.056 644.094 803.977 646.363C806.733 647.942 807.904 651.384 806.582 654.339C806.264 655.053 805.83 655.678 805.309 656.2ZM992.279 759.124L985.088 706.257L965.003 758.868L965.127 759.677L987.054 764.712C987.116 764.051 987.286 763.389 987.575 762.75C988.459 760.747 990.269 759.449 992.279 759.124ZM844.331 705.66L840.248 710.003C842.306 711.758 843.061 714.72 841.904 717.305C841.866 717.393 841.823 717.48 841.78 717.566L863.238 736.241C864.953 735.138 867.173 734.894 869.169 735.783C872.319 737.197 873.732 740.894 872.33 744.036C872.319 744.065 872.306 744.093 872.292 744.121L894.354 763.322C895.792 762.26 897.653 761.841 899.452 762.249L899.142 752.522L898.91 752.79L844.331 705.66ZM821.516 736.041C821.384 736.33 821.233 736.603 821.066 736.861C830.875 744.709 838.805 751.17 845.68 756.657C847.419 754.53 850.429 753.739 853.056 754.908C853.714 755.203 854.297 755.598 854.796 756.068L862.936 746.537C861.204 745.274 860.258 743.208 860.39 741.103L821.516 736.041ZM964.59 756.169L984.708 703.469L984.67 703.193L956.337 709.367L957.739 711.981L956.553 712.619L957.888 712.414L964.59 756.169ZM336.325 722.466C336.252 722.697 336.165 722.926 336.066 723.152C335.907 723.508 335.718 723.842 335.505 724.152L371.042 754.879L397.401 752.841C397.465 752.391 397.581 751.942 397.751 751.501L386.116 743.866C384.398 746.105 381.304 746.956 378.613 745.762C376.236 744.701 374.853 742.342 374.92 739.896L366.031 738.432C364.45 741.165 361.025 742.306 358.079 740.997C354.935 739.589 353.524 735.9 354.935 732.747C355.159 732.238 355.444 731.775 355.779 731.361L353.832 728.737C352.092 729.945 349.78 730.238 347.706 729.319C345.177 728.186 343.769 725.577 344.049 722.96L336.325 722.466ZM505.738 729.688L526.8 750.52L531.493 738.987L531.248 731.423L518.806 730.99L517.66 731.678L505.738 729.688ZM272.174 662.482L262.497 665.599C262.649 665.817 262.787 666.044 262.909 666.278L286.474 678.384C287.536 678.268 288.642 678.423 289.686 678.888C290.954 679.457 291.938 680.395 292.572 681.517L386.405 729.719L396.683 716.235C397.042 716.507 397.398 716.78 397.757 717.052L387.772 730.15L471.93 749.093L449.609 725.339L449.441 726.39C355.868 711.373 358.8 701.035 272.203 662.529L272.174 662.482ZM729.693 738.637L721.41 691.506L698.307 700.918L691.977 717.927L691.61 717.791C694.242 725.317 696.856 734.48 700.141 747.567L703.607 742.037L704.178 742.396L704.097 741.726L729.693 738.637ZM728.835 697.763L722.937 692.393L731.117 738.954L734.823 744.115C735.184 743.982 735.559 743.882 735.942 743.818L729.418 698.97L728.835 697.763ZM841.041 718.71C839.301 720.845 836.283 721.633 833.648 720.463C832.895 720.126 832.24 719.658 831.701 719.098L821.206 730.264C821.988 731.589 822.274 733.184 821.948 734.737L860.622 739.773C860.703 739.494 860.802 739.217 860.924 738.944C861.239 738.24 861.666 737.623 862.175 737.105L841.041 718.71ZM520.931 729.715L531.741 730.091L619.014 682.448L604.587 679.487L520.931 729.715ZM809.482 680.656C809.15 680.99 808.783 681.281 808.392 681.528L815.647 727.201C816.559 727.172 817.49 727.344 818.377 727.739C819.159 728.09 819.833 728.58 820.386 729.169L830.867 718.015C829.837 716.321 829.632 714.165 830.503 712.215C830.916 711.286 831.528 710.508 832.267 709.909L809.482 680.656ZM802.054 681.738L789.623 693.654C790.626 695.343 790.823 697.475 789.963 699.4C789.636 700.136 789.183 700.777 788.641 701.31L812.33 728.273C812.934 727.864 813.606 727.565 814.31 727.388L807.124 682.142C805.668 682.655 804.02 682.633 802.499 681.958C802.348 681.89 802.2 681.817 802.054 681.738ZM287.137 551.159L279.189 547.936L275.882 552.114L278.393 662.33L397.608 715.339L447.78 723.391L433.038 707.701C431.333 708.755 429.154 708.973 427.188 708.1C424.037 706.694 422.627 703.002 424.037 699.852C424.302 699.255 424.65 698.721 425.06 698.256L365.623 620.115C364.043 620.842 362.166 620.91 360.453 620.149C357.303 618.743 355.892 615.051 357.303 611.901C357.373 611.744 357.448 611.592 357.529 611.444L295.399 557.058C293.956 557.546 292.332 557.513 290.835 556.847C288.516 555.814 287.14 553.54 287.137 551.159ZM720.984 690.224L693.026 637.576L674.982 649.609L664.622 663.311L664.326 663.088C678.877 690.864 685.148 699.797 691.114 716.385L697.147 700.171L697.778 700.406L697.522 699.781L720.984 690.224ZM320.274 709.761C319.983 709.93 319.678 710.074 319.362 710.194L322.974 713.317L320.274 709.761ZM798.456 657.552C797.809 658.851 797.126 660.222 796.403 661.676L803.13 670.309C804.546 669.85 806.129 669.892 807.594 670.544C810.744 671.96 812.16 675.655 810.749 678.8C810.631 679.069 810.493 679.325 810.342 679.568L833.405 709.175C835.021 708.366 836.971 708.261 838.743 709.052C838.872 709.109 838.996 709.17 839.12 709.235L843.374 704.709L803.009 657.662C801.579 658.18 799.961 658.181 798.456 657.552ZM935.688 669.032L934.822 669.332L955.671 708.131L984.136 701.929L984.096 701.863L936.098 670.568L936.467 670.003L935.796 670.072L935.688 669.032ZM936.999 668.581L937.104 669.614L982.466 699.19L959.139 660.942L936.999 668.581ZM434.108 697.935L446.229 687.638L377.758 601.377L367.973 610.661C369.31 612.422 369.672 614.838 368.709 616.993C368.175 618.192 367.309 619.138 366.268 619.772C383.16 638.286 398.064 658.272 427.244 696.67C428.795 695.994 430.616 695.947 432.283 696.688C432.981 697.002 433.593 697.427 434.108 697.935ZM652.232 654.567L652.361 652.788L629.193 627.254L621.655 681.99L632.214 697.289L635.639 696.383C635.499 695.285 635.653 694.136 636.138 693.051C637.053 690.994 638.941 689.68 641.017 689.402L640.543 664.739L647.38 662.373C647.005 661.022 647.083 659.538 647.701 658.157C648.564 656.216 650.295 654.937 652.232 654.567ZM722.47 690.146L727.255 694.502L703.016 644.447L694.674 637.802L722.47 690.146ZM763.256 668.165C763.216 668.272 763.172 668.379 763.124 668.486C762.762 669.3 762.245 669.998 761.624 670.561L780.407 691.938C782.168 690.555 784.617 690.172 786.802 691.147C787.581 691.495 788.256 691.984 788.806 692.57L800.927 680.951C799.327 679.546 798.548 677.4 798.885 675.287L763.256 668.165ZM385.655 597.186L378.869 600.609L447.481 687.044L459.165 686.672C435.222 661.08 424.922 645.715 388.587 600.124C387.616 599.14 386.639 598.161 385.655 597.186ZM263.531 668.114C263.737 669.295 263.605 670.547 263.08 671.723C262.953 672.007 262.808 672.277 262.646 672.531L264.551 675.343C266.139 674.594 268.032 674.516 269.76 675.285C272.02 676.3 273.387 678.489 273.46 680.807L281.476 681.976C282.126 680.566 283.24 679.512 284.554 678.913L263.531 668.114ZM602.797 614.892L604.825 678.159L620.382 681.352L628.028 625.826L609.067 582.63L603.838 603.732C606.473 605.35 607.568 608.71 606.276 611.601C605.572 613.181 604.294 614.323 602.797 614.892ZM724.507 653.348L714.098 661.144L723.706 680.984L728.425 670.874L724.507 653.348ZM262.413 676.997L261.129 675.101L261.653 678.156C261.867 677.735 262.123 677.348 262.413 676.997ZM801.865 670.88L795.4 662.582L765.584 657.135L761.514 661.22C763.118 662.616 763.914 664.752 763.601 666.858L799.241 673.983C799.276 673.891 799.314 673.799 799.354 673.708C799.899 672.48 800.792 671.516 801.865 670.88ZM917.509 637.131L916.376 637.857L917.563 637.22L934.175 668.128L935.548 667.655L930.129 615.152L927.845 612.114L903.355 614.456L903.225 613.114L926.895 610.85L924.88 608.168L893.001 585.948C891.779 586.188 890.473 586.067 889.249 585.523C887.253 584.631 885.956 582.821 885.632 580.812L878.878 576.104L879.07 575.828L877.773 575.134L917.509 637.131ZM931.701 617.243L936.856 667.203L958.422 659.763L935.887 622.813L931.701 617.243ZM261.519 664.497L271.443 661.301L201.794 549.012L194.972 551.849L207.414 573.305L208.293 573.467L208.338 574.896L259.633 663.346C259.73 663.384 259.827 663.424 259.924 663.467C260.52 663.735 261.054 664.085 261.519 664.497ZM257.84 662.943L208.429 577.74L208.718 586.843C209.349 586.911 209.981 587.076 210.591 587.347C213.741 588.763 215.152 592.461 213.747 595.603C213.596 595.941 213.419 596.259 213.22 596.556L217.822 600.58L219.365 609.96C219.725 610.048 220.082 610.169 220.431 610.326C223.153 611.544 224.58 614.469 224.012 617.27L232.572 622.148L232.897 632.385C233.15 632.461 233.401 632.553 233.648 632.664C236.337 633.87 237.763 636.741 237.249 639.509L246.464 643.751L246.789 653.853C247.369 653.93 247.948 654.09 248.509 654.341C251.659 655.754 253.075 659.449 251.67 662.594C251.662 662.612 251.653 662.631 251.645 662.649L253.745 664.095C254.924 663.253 256.376 662.836 257.84 662.943ZM692.254 636.471L625.134 560.979L664.275 661.534L673.976 648.705L674.516 649.113L674.141 648.55L692.254 636.471ZM729.442 633.723L753.393 661.165C755.165 659.667 757.705 659.225 759.963 660.23C760.108 660.295 760.251 660.365 760.389 660.44L763.973 656.841L760.235 656.158L729.442 633.723ZM275.669 661.118L273.182 552.014L266.715 550.363L266.87 648.813L274.059 660.402L275.669 661.118ZM658.673 657.36L662.659 661.098L623.003 559.223L609.647 580.602L629.296 625.362L653.643 652.192L653.397 652.414L656.383 655.213C657.343 655.736 658.12 656.484 658.673 657.36ZM706.083 644.594L713.5 659.907L724.186 651.903L719.477 630.498L706.083 644.594ZM795.017 653.953L787.527 658.402L794.394 659.657L796.223 655.962C795.694 655.371 795.287 654.687 795.017 653.953ZM778.422 645.172C776.965 648.212 773.343 649.544 770.244 648.171C769.575 647.87 768.982 647.467 768.48 646.987L762.571 653.843L785.51 658.034L794.685 652.583C794.545 651.484 794.696 650.333 795.182 649.247C795.203 649.201 795.222 649.157 795.244 649.112L778.422 645.172ZM777.065 609.523L769.443 606.417L763.933 608.922L759.197 652.066L761.117 653.464L767.601 645.94C766.449 644.215 766.185 641.955 767.094 639.92C768.496 636.767 772.194 635.357 775.339 636.756C775.382 636.775 775.425 636.795 775.466 636.815L778.57 633.214C777.597 631.538 777.419 629.433 778.268 627.528C778.894 626.119 779.975 625.059 781.262 624.441L780.954 614.849C780.884 614.821 780.814 614.791 780.744 614.76C778.573 613.791 777.23 611.737 777.065 609.523ZM713.373 618.678L757.94 651.15L762.288 611.543L725.941 588.879L713.373 618.678ZM802.518 637.126L779.021 641.978C779.069 642.611 779.023 643.256 778.875 643.893L795.993 647.903C797.285 646.273 799.316 645.403 801.366 645.561L804.516 639.197C803.678 638.661 803.003 637.946 802.518 637.126ZM259.699 637.25L265.518 646.633L265.366 549.88L263.891 549.009L261.905 555.345C263.595 557.128 264.142 559.819 263.08 562.196C262.441 563.63 261.328 564.701 260.009 565.313C261.048 570.33 261.164 575.602 260.374 580.651C262.634 582.371 263.506 585.476 262.3 588.175C261.832 589.225 261.109 590.082 260.237 590.705L262.732 599.854L260.868 606.248C262.971 607.995 263.747 610.99 262.579 613.601C262.041 614.813 261.163 615.767 260.108 616.402L262.152 626.049L259.699 637.25ZM705.454 643.297L719.128 628.908L718.419 625.693L685.215 601.501L705.454 643.297ZM693.209 634.911L701.657 641.64L679.581 596.053L672.849 592.513L693.209 634.911ZM789.777 632.355C789.744 632.442 789.707 632.529 789.669 632.615C788.266 635.77 784.569 637.176 781.418 635.773C780.628 635.42 779.946 634.923 779.39 634.326L776.628 637.531C777.664 638.338 778.4 639.438 778.77 640.653L801.951 635.867C801.833 635.505 801.749 635.132 801.701 634.753L789.777 632.355ZM215.339 523.95L196.403 530.529L203.89 547.272L257.658 633.961L259.393 626.04L257.535 617.267C256.475 617.38 255.372 617.223 254.329 616.759C251.179 615.354 249.768 611.661 251.179 608.514C252.434 605.688 255.53 604.264 258.421 605.002L259.93 599.83L257.728 591.771C256.526 591.993 255.248 591.867 254.05 591.334C250.899 589.926 249.489 586.234 250.899 583.083C252.114 580.353 255.049 578.931 257.856 579.506C258.49 574.971 258.296 570.327 257.374 565.896C256.523 565.896 255.657 565.721 254.829 565.354C251.679 563.949 250.268 560.256 251.684 557.106C253.029 554.069 256.502 552.65 259.564 553.794L261.619 547.24L262.906 547.642L261.668 547.105L263.98 541.77L227.363 526.925C227.329 527.014 227.292 527.101 227.253 527.187C225.848 530.34 222.148 531.742 218.997 530.343C216.452 529.207 215.042 526.58 215.339 523.95ZM805.493 614.834L788.916 626.261C789.949 627.608 790.408 629.343 790.135 631.051L801.674 633.372C801.736 632.706 801.906 632.039 802.194 631.394C803.292 628.924 805.8 627.523 808.346 627.706C809.023 622.662 809.584 619.091 809.878 615.915C808.778 616.057 807.623 615.908 806.534 615.426C806.162 615.259 805.814 615.06 805.493 614.834ZM623.982 557.654L690.588 632.566L670.783 591.322L632.961 543.278L623.982 557.654ZM802.903 610.589L789.224 611.027C789.159 611.22 789.083 611.412 789 611.601C787.824 614.242 785.04 615.657 782.316 615.226L782.597 623.976C783.867 623.689 785.235 623.794 786.513 624.362C787.053 624.603 787.541 624.913 787.972 625.274L804.452 613.914C803.613 612.982 803.076 611.82 802.903 610.589ZM712.251 617.862L724.598 588.596L672.013 590.281L672.021 590.553L678.591 594.009L678.089 592.971L712.251 617.862ZM367.045 609.681L376.811 600.417L302.891 539.559L296.747 545.878C299.315 547.521 300.364 550.835 299.091 553.692C298.767 554.417 298.325 555.048 297.794 555.574C326.278 580.557 343.547 596.114 357.883 610.87C359.56 608.457 362.77 607.501 365.548 608.737C366.103 608.986 366.605 609.306 367.045 609.681ZM725.437 553.748L726.292 587.508L762.45 610.056L762.633 608.393L763.305 608.467L763.024 607.853L768.55 605.342L764.532 595.961L750.043 590.695L725.437 553.748ZM803.796 596.366L788.941 606.389C789.418 607.4 789.626 608.533 789.512 609.669L802.863 609.24C802.917 608.546 803.09 607.848 803.389 607.176C804.468 604.754 806.898 603.36 809.393 603.478C809.142 601.916 808.818 600.198 808.411 598.256C807.513 598.276 806.601 598.103 805.73 597.716C804.983 597.382 804.333 596.919 803.796 596.366ZM741.552 525.334C744.055 532.018 746.267 538.828 748.354 545.697C753.846 559.984 759.855 576.653 766.878 596.814L766.269 596.592L769.939 605.163L777.125 608.091C777.208 607.559 777.365 607.029 777.594 606.514C777.847 605.944 778.176 605.431 778.562 604.981L771.881 587.961C770.708 588.158 769.467 588.024 768.302 587.507C765.152 586.099 763.747 582.407 765.152 579.256C765.654 578.125 766.452 577.218 767.415 576.585L759.531 556.505C758.315 556.739 757.018 556.615 755.801 556.073C752.651 554.668 751.246 550.976 752.651 547.828C753.177 546.647 754.024 545.708 755.043 545.074L748.182 527.594C746.836 527.961 745.361 527.883 743.991 527.271C742.99 526.826 742.167 526.151 741.552 525.334ZM796.797 572.838C795.837 573.078 794.812 573.092 793.812 572.849L784.555 602.938C784.989 603.027 785.418 603.164 785.839 603.351C786.815 603.788 787.624 604.445 788.237 605.237L802.966 595.3C801.916 593.601 801.701 591.43 802.58 589.468C802.979 588.569 803.564 587.811 804.274 587.22L796.797 572.838ZM894.586 585.41L922.283 604.716L899.495 574.398L897.319 576.897C898.187 578.538 898.319 580.544 897.505 582.368C896.892 583.745 895.841 584.788 894.586 585.41ZM602.592 603.146L608.186 580.574L599.504 554.754L587.507 597.013L596.129 604.663C597.78 602.994 600.288 602.356 602.592 603.146ZM789.952 570.031L776.291 578.737C777.227 580.404 777.389 582.474 776.553 584.349C775.865 585.888 774.632 587.01 773.184 587.593L779.627 604.001C780.658 603.254 781.904 602.835 783.185 602.811L792.541 572.391C791.433 571.848 790.553 571.018 789.952 570.031ZM382.391 593.989L302.883 531.057L303.49 538.305L377.917 599.58L384.643 596.186C383.896 595.452 383.146 594.72 382.391 593.989ZM953.416 346.804L952.93 347.268L953.596 347.171C958.783 382.651 963.97 418.129 969.159 453.61L968.49 453.707L969.089 454.014L930.997 528.498L930.399 528.19V528.193L930.631 528.824L831.622 565.327L831.388 564.69L831.463 565.365L825.724 566.001C826.058 567.315 825.969 568.747 825.373 570.079C823.968 573.232 820.267 574.639 817.117 573.235C814.504 572.07 813.093 569.329 813.492 566.632L801.533 566.562C801.566 567.485 801.396 568.426 800.994 569.324C800.579 570.26 799.961 571.039 799.216 571.641L806.666 585.978C808.004 585.619 809.466 585.699 810.825 586.304C813.975 587.717 815.386 591.415 813.98 594.557C813.74 595.092 813.438 595.576 813.082 596.004L820.44 596.996C820.529 596.551 820.669 596.108 820.864 595.676C822.239 592.578 825.829 591.167 828.931 592.441L836.345 579.611L851.535 590.692C853.148 589.386 855.36 588.93 857.417 589.606L874.498 570.325L886.403 576.69C887.978 573.95 891.401 572.801 894.344 574.111C894.781 574.308 895.182 574.546 895.549 574.822L911.46 556.561L926.426 563.87C927.955 561.516 930.908 560.461 933.595 561.343L935.248 558.182L951.994 542.677C950.926 540.972 950.705 538.785 951.59 536.808C952.302 535.206 953.605 534.054 955.128 533.49L955.733 517.445L964.212 510.354C963.864 509.027 963.951 507.576 964.552 506.222C965.361 504.407 966.928 503.169 968.711 502.713L968.11 483.955L975.894 478.491C974.95 476.824 974.782 474.744 975.627 472.856C976.522 470.839 978.359 469.536 980.39 469.223L979.322 455.295L980.975 450.967C978.469 449.313 977.461 446.042 978.728 443.21C979.171 442.217 979.839 441.397 980.646 440.785L973.399 425.212L974.27 422.04C971.416 420.503 970.197 417.002 971.538 413.995C971.964 413.037 972.6 412.239 973.372 411.635L968.584 401.653L969.766 394.621C966.864 393.108 965.607 389.57 966.966 386.535C967.279 385.831 967.708 385.211 968.22 384.693L963.81 378.387L964.072 367.235C963.7 367.146 963.33 367.022 962.966 366.86C959.821 365.455 958.411 361.762 959.821 358.612C960.315 357.506 961.086 356.614 962.02 355.982L957.685 343.589L904.39 289.882L898.414 289.269L953.416 346.804ZM586.217 596.617L598.241 554.258L556.751 586.249C561.582 588.996 567.41 592.317 575.62 596.958L586.217 596.617ZM702.301 497.171C702.258 497.292 702.207 497.411 702.156 497.53C700.75 500.685 697.05 502.09 693.9 500.688C692.753 500.178 691.842 499.366 691.208 498.387L670.001 507.344L725.081 549.624L724.668 550.161L725.79 549.414L751.796 588.463L762.466 592.34C757.144 577.067 753.074 561.238 748.354 545.697C744.252 535.025 740.438 525.679 736.711 517.202L735.354 519.355C719.894 509.618 710.026 503.237 702.301 497.171ZM633.803 542.164L670.618 588.936L668.048 508.725L633.803 542.164ZM724.008 550.601L724.005 550.501L669.394 508.577L671.969 588.933L724.938 587.236L724.035 551.642L723.546 550.908L724.008 550.601ZM569.698 523.309C568.392 524.355 566.698 524.849 565.013 524.644L556.881 560.537L555.665 585.384L597.845 552.861L569.698 523.309ZM487.128 506.794L490.394 549.373L506.485 564.475L511.348 564.941C511.435 564.612 511.548 564.286 511.694 563.967C513.096 560.812 516.794 559.407 519.939 560.806C522.717 562.053 524.146 565.087 523.469 567.946C538.225 575.826 544.464 579.281 553.323 584.303L532.526 525.234L487.128 506.794ZM559.753 520.099L533.953 525.234L554.413 583.343L555.538 560.407L556.218 560.44L555.554 560.291L563.699 524.333C563.54 524.277 563.384 524.215 563.227 524.145C561.453 523.354 560.231 521.836 559.753 520.099ZM666.697 508.162L612.377 516.587L600.162 552.478L609.073 578.978L632.327 541.749L632.896 542.105L632.427 541.622L666.697 508.162ZM782.689 545.689C781.88 545.905 781.025 545.962 780.172 545.84L772.459 575.761C772.774 575.845 773.087 575.955 773.397 576.093C774.228 576.466 774.937 576.999 775.506 577.638L789.378 568.798C788.884 567.358 788.916 565.734 789.588 564.235C789.971 563.371 790.526 562.641 791.195 562.061L782.689 545.689ZM775.768 542.968L764.308 548.508C764.747 549.91 764.696 551.472 764.052 552.915C763.388 554.406 762.212 555.507 760.823 556.105L768.621 575.967C769.411 575.665 770.26 575.522 771.118 575.557L778.867 545.506C778.748 545.46 778.632 545.414 778.516 545.363C777.338 544.834 776.404 543.987 775.768 542.968ZM186.94 533.814L185.264 534.396L191.189 552.677L193.691 565.864C194.844 565.68 196.062 565.818 197.206 566.328C199.543 567.377 200.926 569.683 200.907 572.086L205.666 572.976L193.42 551.86L194.002 551.523L193.368 551.75L186.94 533.814ZM488.55 551.342L481.181 559.026C481.48 560.308 481.381 561.694 480.804 562.986C480.725 563.158 480.642 563.326 480.553 563.487L501.045 572.401L508.994 568.11L510.747 567.592L505.312 567.069L488.55 551.342ZM825.233 564.698L831.229 564.035L925.255 529.369L901.777 531.651L901.58 531.934L901.246 531.702L900.677 531.759L900.914 532.441C847.608 550.994 847.754 556.362 792.638 558.983L793.569 560.774C794.933 560.383 796.438 560.45 797.833 561.071C799.637 561.88 800.873 563.439 801.334 565.211L813.848 565.286C813.889 565.187 813.929 565.09 813.972 564.99C815.375 561.834 819.073 560.426 822.217 561.823C823.574 562.433 824.607 563.466 825.233 564.698ZM469.953 556.906L387.858 467.174L390.124 510.964C390.871 511.002 391.621 511.174 392.341 511.495C394.574 512.496 395.934 514.645 396.039 516.93C414.827 528.662 437.868 541.487 469.422 557.85C469.576 557.516 469.754 557.2 469.953 556.906ZM480.669 557.616L487.754 550.223L484.466 507.361L473.721 513.483L473.389 514.265L476.674 554.393C477.003 554.479 477.327 554.592 477.648 554.735C479.007 555.345 480.043 556.381 480.669 557.616ZM470.838 513.37L390.442 467.999L470.838 555.876C471.712 555.059 472.801 554.517 473.961 554.298L470.646 513.826L470.838 513.37ZM570.65 522.354L598.897 552.009L610.912 516.703L572.023 518.586C572.006 519.392 571.831 520.207 571.483 520.986C571.259 521.488 570.979 521.944 570.65 522.354ZM264.346 547.712L266.299 548.866L273.549 550.714L276.586 546.881L266.48 542.784L264.346 547.712ZM188.214 533.371L194.399 550.628L201.175 547.809L193.846 531.416L188.214 533.371ZM295.474 545.255L301.615 538.936L227.869 513.54L222.427 518.451C222.989 518.532 223.549 518.688 224.092 518.931C226.265 519.908 227.611 521.968 227.778 524.185L287.733 548.489C289.104 545.565 292.472 544.19 295.474 545.255ZM767.798 517.04C766.889 517.378 765.902 517.504 764.915 517.394L760.095 544.37C760.365 544.449 760.632 544.548 760.896 544.664C762.156 545.228 763.135 546.159 763.771 547.27L775.185 541.754C774.665 540.295 774.686 538.642 775.371 537.115C775.771 536.214 776.356 535.456 777.063 534.866L767.798 517.04ZM793.604 526.51L786.875 537.361C787.471 538.871 787.484 540.608 786.772 542.207C786.373 543.103 785.788 543.858 785.081 544.446L786.095 546.396L804.894 536.684L799.338 526.969C797.801 527.613 796.01 527.646 794.367 526.917C794.1 526.796 793.847 526.661 793.604 526.51ZM873.579 539.1L863.073 522.165L842.524 503.854L840.32 515.781L851.209 537.253L850.006 537.862L851.241 537.323L854.871 545.611L873.579 539.1ZM760.057 514.033L752.182 518.888C752.937 520.482 753.02 522.381 752.246 524.112C751.65 525.45 750.642 526.475 749.439 527.103L756.262 544.486C757.058 544.203 757.908 544.082 758.765 544.138L763.599 517.097C763.42 517.035 763.245 516.968 763.07 516.889C761.716 516.285 760.683 515.258 760.057 514.033ZM220.459 506.662L228.027 512.167L302.085 537.671L301.432 529.908L301.375 529.863L220.459 506.662ZM818.034 479.807L815.035 448.715L771.609 509.418C772.016 510.797 771.951 512.321 771.32 513.731C771.008 514.435 770.581 515.05 770.072 515.568L779.458 533.622C780.793 533.264 782.257 533.345 783.617 533.951C784.658 534.418 785.507 535.135 786.13 536.001L792.539 525.671C790.734 523.894 790.125 521.116 791.222 518.667C792.552 515.678 795.942 514.254 798.968 515.306L814.566 490.166C812.942 488.386 812.435 485.746 813.484 483.402C814.35 481.455 816.09 480.174 818.034 479.807ZM824.734 511.814L802.871 519.322C803.319 520.733 803.273 522.303 802.623 523.759C802.345 524.377 801.981 524.93 801.55 525.404L807.292 535.446L807.321 535.429C812.729 528.058 818.744 520.053 824.734 511.814ZM180.221 515.301L162.34 521.674L150.817 533.593L175.724 534.809L181.213 515.247L180.221 515.301ZM194.263 528.417L214.158 521.504L183.685 514.832L182.642 515.147L177.26 534.324L181.884 532.716L181.884 532.713L194.263 528.417ZM147.198 517.054L146.385 517.097L143.357 524.029L148.108 533.461L149.026 533.504L160.726 521.404L147.198 517.054ZM902.78 530.2L929.964 527.557L967.12 454.904L949.821 460.997L949.875 462.033L902.78 530.2ZM508.665 450.824C501.563 465.315 496.857 481.209 487.471 505.475L532.685 523.845L547.595 486.558L508.665 450.824ZM562.299 513.254L548.488 487.955L534.147 523.821L559.54 518.767C559.489 517.812 559.659 516.83 560.077 515.897C560.571 514.78 561.356 513.885 562.299 513.254ZM278.693 520.555L290.074 523.818L288.667 522.931L305.615 496L306.662 483.82L278.693 520.555ZM715.811 475.052C720.566 483.219 725.583 492.108 730.947 501.875C734.542 508.412 737.604 515.185 740.317 522.114C740.231 521.092 740.393 520.032 740.846 519.026C741.399 517.782 742.307 516.809 743.4 516.172L737.226 502.306C735.826 502.743 734.267 502.689 732.822 502.05C729.672 500.642 728.261 496.95 729.672 493.799C730.038 492.974 730.562 492.27 731.193 491.704L719.66 475.435C718.411 475.707 717.068 475.602 715.811 475.052ZM220.353 518.508L225.914 513.488L187.935 514.381L216.595 520.657L216.793 520.59C217.719 519.5 218.983 518.777 220.353 518.508ZM150.98 516.852L161.952 520.382L175.502 515.552L150.98 516.852ZM752.546 488.497C752.041 488.729 751.507 488.891 750.96 488.982L747.92 515.476C748.311 515.565 748.702 515.692 749.085 515.862C750.056 516.299 750.865 516.951 751.475 517.739L759.572 512.749C759.229 511.428 759.318 509.985 759.92 508.642C760.397 507.566 761.144 506.694 762.042 506.066L752.546 488.497ZM571.907 517.243L611.206 515.341L612.266 455.198L593.243 475.945L569.566 513.475C570.798 514.416 571.615 515.767 571.907 517.243ZM815.593 491.07L800.196 515.889C800.681 516.185 801.113 516.544 801.487 516.946L827.477 508.019C827.951 507.358 828.426 506.697 828.898 506.034L820.189 492.111C819.024 492.303 817.789 492.168 816.629 491.653C816.26 491.488 815.914 491.291 815.593 491.07ZM746.197 487.825L740.484 492.764C741.701 494.506 742 496.818 741.072 498.892C740.511 500.154 739.581 501.138 738.464 501.772L744.632 515.624C745.258 515.422 745.913 515.32 746.58 515.322L749.592 489.058C748.851 489.017 748.106 488.845 747.389 488.524C746.957 488.332 746.558 488.098 746.197 487.825ZM612.558 515.193L667.463 506.678L636.581 465.234L613.626 454.481L612.558 515.193ZM189.755 512.989L225.701 512.143L216.675 505.578L215.397 505.211L189.755 512.989ZM186.677 511.104L180.46 492.912L170.316 484.562C172.495 498.832 173.051 498.727 177.543 512.447L176.471 512.798L182.074 512.501L186.677 511.104ZM609.952 455.727L549.318 486.66L563.494 512.628C564.999 512.037 566.731 512.029 568.322 512.736C568.352 512.749 568.381 512.763 568.411 512.776L592.135 475.173L592.707 475.535L592.208 475.079L609.952 455.727ZM500.482 449.37L499.837 449.321L389.131 465.712L471.369 512.118C484.723 480.565 491.681 464.369 500.482 449.37ZM500.619 449.904L474.584 511.436L484.445 505.82C494.003 481.185 498.866 464.76 506.129 449.815L501.002 449.413L500.619 449.904ZM250.009 394.991C320.716 457.089 342.175 481.916 387.416 511.428C387.853 511.247 388.311 511.118 388.778 511.039L386.437 465.755L250.009 394.991ZM661.712 450.392L615.581 453.906L637.304 464.085L637.018 464.698L637.56 464.293L668.897 506.346L690.601 497.179C690.046 495.695 690.051 494.002 690.75 492.44C691.329 491.132 692.306 490.123 693.474 489.492C684.576 480.864 676.983 470.456 661.985 450.592L661.712 450.392ZM845.313 481.43L825.424 485.746C825.454 486.663 825.284 487.601 824.885 488.494C824.399 489.581 823.644 490.46 822.733 491.086L830.589 503.652C835.833 496.232 840.89 488.734 845.313 481.43ZM723.449 472.905C722.813 473.819 721.958 474.526 720.992 474.982L732.285 490.914C733.955 489.967 736.034 489.797 737.911 490.636C738.548 490.922 739.114 491.299 739.6 491.747L745.204 486.903C743.796 485.268 743.295 482.962 744.023 480.826L723.449 472.905ZM544.741 404.075C525.988 422.461 516.392 435.437 509.29 449.564L548.504 485.562L611.692 453.327L544.741 404.075ZM837.062 456.463L822.172 480.462C823.318 481.091 824.197 482.035 824.753 483.132L846.586 478.394L846.732 479.06C847.719 477.388 848.668 475.723 849.58 474.078C849.868 473.552 850.154 473.026 850.438 472.495L840.094 456.515C839.115 456.741 838.077 456.736 837.062 456.463ZM832.483 451.158L816.405 446.8L816.227 447.048L819.38 479.702C819.89 479.718 820.402 479.796 820.909 479.942L835.784 455.967C833.901 454.983 832.715 453.151 832.483 451.158ZM745.671 478.261L732.04 461.121L723.581 465.957C724.649 467.624 724.906 469.763 724.099 471.71L744.589 479.602C744.891 479.098 745.258 478.65 745.671 478.261ZM861.226 448.887L844.773 451.838C844.684 452.221 844.558 452.604 844.39 452.976C843.962 453.936 843.322 454.734 842.548 455.341L851.867 469.739C855.289 462.942 858.186 455.878 861.226 448.887ZM684.293 425.541C684.249 425.554 684.209 425.571 684.166 425.584C692.923 437.726 701.932 451.582 712.111 468.751C712.173 468.091 712.345 467.427 712.631 466.788C712.744 466.534 712.874 466.292 713.014 466.06L684.293 425.541ZM705.543 440.515L699.051 444.03L713.88 464.948C714.177 464.646 714.5 464.379 714.848 464.147L712.197 443.719C710.991 443.943 709.71 443.817 708.507 443.283C707.186 442.692 706.172 441.699 705.543 440.515ZM716.17 441.168C715.487 442.142 714.557 442.878 713.505 443.323L716.121 463.489C717.607 462.926 719.307 462.928 720.871 463.624C721.58 463.942 722.203 464.377 722.724 464.895L731.19 460.053L716.17 441.168ZM388.117 464.498L497.879 448.248L413.349 396.444L388.117 464.498ZM386.879 463.956L412.176 395.727L264.519 305.242L386.879 463.956ZM243.836 352.576L383.289 461.51L261.958 304.128L243.836 352.576ZM250.467 393.71L380.935 461.38L243.812 354.27L246.088 386.044C246.389 386.128 246.687 386.233 246.981 386.365C249.833 387.641 251.263 390.794 250.467 393.71ZM944.421 355.47L949.751 459.592L967.743 453.256L952.44 348.576L944.421 355.47ZM587.191 396.52L574.178 386.694C564.719 392.205 553.661 395.614 545.72 403.123L613.17 452.739L660.04 449.168L597.548 403.398C595.808 405.536 592.79 406.327 590.155 405.153C587.005 403.748 585.6 400.056 587.005 396.906C587.064 396.774 587.126 396.647 587.191 396.52ZM859.195 432.297L844.501 448.156C844.784 448.879 844.933 449.653 844.933 450.438L861.876 447.401C862.529 445.907 863.195 444.421 863.874 442.94L862.337 432.696C861.301 432.831 860.222 432.71 859.195 432.297ZM819.852 316.704L815.105 324.046L815.251 324.326L816.78 445.502L832.48 449.758C832.547 449.127 832.717 448.496 832.99 447.884C833.815 446.028 835.436 444.774 837.273 444.345L833.448 413.032C833.241 412.964 833.036 412.886 832.831 412.794C829.68 411.386 828.275 407.697 829.686 404.547C830.212 403.365 831.059 402.429 832.076 401.793L827.463 364.047C827.323 363.996 827.186 363.939 827.048 363.877C823.898 362.469 822.493 358.777 823.898 355.629C824.391 354.518 825.174 353.622 826.112 352.991L821.848 318.064C821.816 318.053 821.786 318.039 821.754 318.023C821.02 317.697 820.381 317.244 819.852 316.704ZM540.081 398.958L501.989 448.137L506.771 448.515C514.067 433.878 523.893 420.489 543.023 401.914L541.898 399.422C541.286 399.363 540.674 399.209 540.081 398.958ZM536.291 393.712L460.028 340.943L500.296 448.003L501.245 448.078C509.498 434.25 519.531 421.099 537.88 397.397C536.957 396.377 536.399 395.074 536.291 393.712ZM414.007 394.67L413.826 395.155L498.494 447.042L458.266 340.088L414.007 394.67ZM838.805 412.317C837.645 413.075 836.245 413.436 834.84 413.315L838.611 444.181C839.487 444.17 840.377 444.342 841.229 444.72C841.879 445.014 842.454 445.402 842.948 445.864L856.948 430.754C855.3 428.974 854.777 426.315 855.832 423.955C855.883 423.842 855.937 423.731 855.993 423.621L838.805 412.317ZM686.949 423.664C686.534 424.165 686.048 424.592 685.514 424.934L698.266 442.921L705.042 439.256C704.667 437.902 704.742 436.416 705.362 435.035C705.549 434.614 705.778 434.223 706.039 433.867L686.949 423.664ZM708.712 431.79L694.407 413.803L688.028 417.614C688.538 419.068 688.514 420.71 687.837 422.226C687.791 422.331 687.742 422.431 687.691 422.531L706.986 432.845C707.501 432.4 708.086 432.044 708.712 431.79ZM852.142 384.914L839.037 402.022C841.391 403.724 842.316 406.893 841.087 409.636C840.979 409.884 840.855 410.122 840.717 410.345L857.736 421.538C858.542 420.923 859.486 420.514 860.484 420.344L857.501 400.466L855.138 385.483C854.17 385.54 853.175 385.373 852.228 384.955C852.199 384.941 852.172 384.928 852.142 384.914ZM677.938 393.097C677.647 393.208 677.345 393.3 677.037 393.367L681.372 413.477C682.464 413.342 683.605 413.49 684.681 413.97C685.87 414.504 686.809 415.362 687.446 416.392L693.56 412.738L677.938 393.097ZM653.055 381.473C652.418 381.945 651.698 382.29 650.937 382.492C653.92 386.748 656.785 390.821 659.541 394.726C665.556 401.58 671.311 408.525 677.064 416.034C677.148 415.92 677.232 415.81 677.32 415.702L653.055 381.473ZM670.408 390.6L663.77 394.254L678.297 414.75C678.831 414.334 679.427 414.011 680.058 413.787L675.689 393.515C674.836 393.515 673.971 393.343 673.143 392.976C671.972 392.45 671.042 391.611 670.408 390.6ZM832.941 363.448C831.741 364.206 830.301 364.546 828.863 364.376L833.359 401.181C834.344 400.843 835.415 400.749 836.472 400.935L850 383.274C848.512 381.502 848.072 378.964 849.083 376.704C849.116 376.629 849.151 376.556 849.186 376.486L832.941 363.448ZM584.513 391.118L573.093 379.337L548.501 391.428C548.914 392.809 548.854 394.335 548.221 395.751C547.309 397.798 545.432 399.109 543.366 399.392L544.056 400.924C552.571 393.006 564.301 389.327 574.369 383.461L584.513 391.118ZM456.977 339.538L265.203 304.079L412.653 394.438L412.78 394.098L413.411 394.333L412.888 393.909L456.977 339.538ZM655.21 378.563C655.158 378.711 655.099 378.857 655.034 379.002C654.778 379.577 654.446 380.095 654.053 380.548L662.985 393.149L669.817 389.386C669.378 388.162 669.318 386.797 669.709 385.489L655.21 378.563ZM547.19 389.065L570.914 377.406L570.898 377.392L462.914 341.299L536.364 392.124C536.453 391.63 536.601 391.139 536.814 390.662C538.217 387.506 541.915 386.101 545.06 387.501C545.901 387.876 546.618 388.418 547.19 389.065ZM244.72 385.829L242.375 353.097L172.119 279.7L139.356 252.02L123.576 244.424L241.744 386.436C242.664 385.996 243.686 385.783 244.72 385.829ZM670.521 383.771L658.495 368.648L653.92 372.219C655.156 373.562 655.757 375.396 655.531 377.222L670.233 384.243C670.322 384.081 670.419 383.922 670.521 383.771ZM492.919 320.575L459.65 338.786L567.767 374.924L502.186 323.242C500.452 324.429 498.159 324.712 496.099 323.795C494.613 323.132 493.515 321.961 492.919 320.575ZM845.936 338.562L833.912 353.655C835.768 355.432 836.404 358.245 835.299 360.719C835.172 361.004 835.026 361.277 834.862 361.533L850.872 374.379C851.559 373.827 852.355 373.427 853.202 373.206L849.879 352.128L848.077 339.131C847.39 339.074 846.702 338.904 846.038 338.608C846.003 338.594 845.971 338.578 845.936 338.562ZM645.233 371.744L610.171 335.26L608.347 337.054L643.76 373.643C644.135 372.901 644.64 372.262 645.233 371.744ZM652.887 371.318L657.551 367.674L615.179 329.4L611.09 334.271L646.355 370.968C648.006 370.072 650.037 369.929 651.879 370.749C652.237 370.911 652.575 371.1 652.887 371.318ZM898.651 300.767L943.671 354.334L951.949 347.219L897.23 289.981L898.651 300.767ZM826.889 318.004C825.77 318.511 824.505 318.689 823.256 318.479L827.391 352.331C828.701 351.834 830.179 351.778 831.582 352.25L843.797 336.919C842.314 335.147 841.879 332.617 842.894 330.363L826.889 318.004ZM183.178 274.403L182.527 274.233L182.828 274.834L173.703 279.406L242.775 351.562L260.915 303.065L186.295 262.322L183.178 274.403ZM341.298 258.045L458.404 338.181L458.299 337.99L492.514 319.258C492.361 318.444 492.366 317.594 492.549 316.756C420.704 287.832 379.066 271.134 341.298 258.045ZM263.01 302.302L453.595 337.54L295.466 263.434L263.01 302.302ZM607.819 335.684L609.682 333.85L613.976 328.739L604.962 325.138L607.819 335.684ZM320.638 251.121L296.85 262.595L451.397 335.02L336.497 256.394C331.179 254.579 325.919 252.829 320.638 251.121ZM841.602 307.982L830.384 310.884C830.689 312.173 830.589 313.565 830.009 314.865C829.772 315.402 829.467 315.884 829.111 316.313L844.496 328.191C844.997 327.754 845.564 327.404 846.168 327.15C844.806 320.712 843.865 314.142 841.602 307.982ZM766.333 214.128L756.659 210.522L814.393 322.665L818.973 315.58C817.943 313.883 817.735 311.725 818.609 309.773C818.773 309.401 818.973 309.053 819.197 308.732L810.388 291.548C809.18 291.778 807.891 291.654 806.682 291.117C803.532 289.706 802.127 286.017 803.537 282.866C803.877 282.1 804.355 281.437 804.924 280.892L793.682 258.962C792.431 259.229 791.088 259.116 789.831 258.557C786.68 257.152 785.27 253.46 786.68 250.31C787.045 249.492 787.56 248.791 788.18 248.227L774.02 220.604C772.726 220.916 771.323 220.817 770.012 220.237C767.561 219.142 766.166 216.66 766.333 214.128ZM834.648 294.602C833.378 295.308 831.876 295.564 830.401 295.278L825.842 306.258C826.185 306.347 826.522 306.463 826.854 306.609C828.254 307.24 829.314 308.322 829.931 309.608L841.113 306.714C839.563 302.871 837.251 298.731 834.648 294.602ZM815.316 286.826C815.227 287.209 815.1 287.586 814.933 287.958C814.269 289.45 813.09 290.55 811.699 291.149L820.157 307.65C820.953 306.943 821.913 306.455 822.938 306.223L827.927 294.205C826.234 292.978 825.287 290.99 825.357 288.946L815.316 286.826ZM261.643 301.835L294.204 262.843L293.969 262.735L137.609 209.845L261.643 301.835ZM186.222 260.747L253.529 297.496L133.495 208.472L126.244 217.874L146.008 230.038L145.648 230.623L146.065 230.076L186.222 260.747ZM815.939 264.494C815.418 264.607 814.879 264.655 814.337 264.631L809.913 279.198C810.542 279.266 811.17 279.433 811.777 279.703C813.66 280.547 814.922 282.206 815.335 284.075L826.029 286.332C826.439 285.515 827.005 284.827 827.677 284.285C825.662 281.44 823.701 278.734 821.972 276.285L815.939 264.494ZM797.898 255.774C797.237 257.031 796.193 257.977 794.979 258.53L806.013 280.059C806.321 279.873 806.644 279.716 806.979 279.587L811.728 263.933C809.698 262.875 808.47 260.834 808.379 258.662L797.898 255.774ZM172.681 278.408L181.949 273.766L185.03 261.829L142.216 252.67L172.681 278.408ZM294.444 261.47L294.228 262.112L294.514 261.5L295.275 261.856L318.777 250.52C307.608 246.93 296.316 243.507 284.184 240.02L143.099 210.279L294.444 261.47ZM12.2749 183.888L12.2714 183.899L120.238 240.573L119.925 241.169L120.181 241.293L120.648 240.905L121.499 241.927L139.942 250.806L183.06 260.027L145.269 231.165L72.6212 186.453L72.3512 186.631L12.2757 183.885L12.2749 183.888ZM797.752 234.184C797.488 234.267 797.221 234.332 796.946 234.38L794.747 247.073C794.804 247.097 794.863 247.122 794.92 247.149C797.345 248.233 798.742 250.674 798.618 253.174L808.856 255.998C808.878 255.946 808.899 255.895 808.921 255.844C809.128 255.38 809.385 254.951 809.681 254.566L802.771 245.867L797.752 234.184ZM777.208 218.716C776.663 219.317 776.016 219.8 775.301 220.145L789.286 247.426C790.138 246.941 791.101 246.658 792.088 246.612L794.23 234.256C793.925 234.173 793.623 234.065 793.323 233.933C790.278 232.573 788.86 229.078 790.041 226L777.208 218.716ZM142.959 203.124L135.303 207.258L264.323 234.456C233.473 226.006 196.031 216.547 142.959 203.124ZM778.206 203.585C777.766 203.849 777.294 204.054 776.804 204.202L775.482 209.003C778.144 210.417 779.414 213.526 778.538 216.366L790.381 223.09L784.31 216.159L778.206 203.585ZM73.8637 185.633L125.089 217.162L132.307 207.806L77.3357 183.346L73.8637 185.633ZM767.275 211.22L756.341 199.313L755.181 207.649L755.742 208.742L766.576 212.779C766.654 212.512 766.751 212.248 766.867 211.986C766.989 211.717 767.124 211.463 767.275 211.22ZM746.809 191.264L742.191 192.839L756.071 197.158L755.871 197.799L756.365 197.346L768.119 210.147C769.368 208.879 771.11 208.202 772.882 208.289L773.958 204.378C773.454 204.291 772.952 204.14 772.464 203.925C770.136 202.886 768.758 200.602 768.766 198.209L762.409 198.255L757.042 193.395C755.264 195.172 752.503 195.763 750.07 194.682C748.513 193.986 747.383 192.734 746.809 191.264ZM129.489 169.987L92.0358 182.636L143.304 200.429L177.824 209.16L138.351 171.921C136.619 173.097 134.335 173.372 132.285 172.46C131.076 171.921 130.123 171.041 129.489 169.987ZM78.6727 182.464L133.335 206.789L141.186 202.546L80.2742 181.409L78.6727 182.464ZM615.039 206.657L657.98 182.218L648.931 176.411L615.039 206.657ZM661.329 181.646L753.962 206.624L755.124 198.277L667.749 171.079L661.329 181.646ZM726.13 182.563L717.826 185.255L739.182 191.901L734.087 184.942C732.501 185.679 730.618 185.751 728.897 184.985C727.708 184.454 726.767 183.596 726.13 182.563ZM709.624 179.473C708.507 180.635 706.981 181.312 705.387 181.382L714.756 184.3L709.624 179.473ZM659.973 181.28L665.987 171.379L650.312 175.694L659.304 181.463L659.738 181.218L659.973 181.28ZM699.529 177.922L696.896 178.739L701.355 180.128C700.57 179.535 699.952 178.774 699.529 177.922ZM667.436 165.809C665.656 167.452 662.996 167.972 660.644 166.926C660.404 166.82 660.178 166.699 659.959 166.57L651.744 173.903L667.266 169.628L667.444 170.278H667.446L667.646 169.634L695.472 178.297L689.077 171.888C687.34 173.089 685.032 173.38 682.963 172.46C681.809 171.945 680.889 171.122 680.255 170.132L674.357 171.511L667.436 165.809Z" fill="#8B98A9"/></g><defs><clipPath id="clip0"><rect width="1000" height="1000" fill="#fff"/></clipPath></defs></svg>