<svg height="1000" viewBox="0 0 1000 1000" width="1000" xmlns="http://www.w3.org/2000/svg"><path d="m658.00114 9.72889264c-1.151667-1.72600577-1.418681-3.98869145-.501663-6.02214199 1.402499-3.15535429 5.094846-4.56582462 8.239679-3.16614182 3.088194 1.38619838 4.509572 4.96766034 3.239232 8.07177383l6.063109 4.99732604 4.280318-1.0005439c-.148341-1.1084194 0-2.2707764.490875-3.36840817 1.402498-3.15535429 5.100239-4.56312774 8.245073-3.16344494 3.150227 1.41316722 4.566211 5.10789831 3.161016 8.25246511-.091702.20766-.19689.4099263-.307471.604102l5.992984 6.0059607 1.974286-.6121927c-.021577-.9007593.153736-1.8230936.547514-2.7022778 1.402499-3.1553543 5.094846-4.5631277 8.239679-3.1634449 2.958733 1.3268669 4.388202 4.6710031 3.384876 7.6780287l5.933648 5.5771562 8.263953-2.675309c-.126764-1.0814505.026971-2.2114449.50436-3.2794109 1.402499-3.1526574 5.094846-4.5604309 8.239679-3.163445 3.150227 1.4131673 4.566212 5.1105952 3.161016 8.255162-.24274.5474674-.555605 1.0409972-.922413 1.4778924l5.108332 6.9741421 5.051692-1.720612c.048548-.7173712.22386-1.4347423.534028-2.1278415 1.402498-3.1526574 5.094845-4.5604309 8.239679-3.163445 3.001886 1.3511389 4.428659 4.7707878 3.339025 7.812873l4.935716 4.4687368 5.952528-.0431501c1.45644-3.0366914 5.078663-4.3689521 8.166856-2.9935413 3.150228 1.4131672 4.560818 5.1078983 3.155622 8.2524651-.134855.2993541-.288591.5852238-.463903.8522153l6.327426 13.0340404 6.853363 7.8236605c1.540051-.6526459 3.339025-.6904023 4.986961.0431502 3.150228 1.4131672 4.560817 5.1105952 3.155622 8.252465-.356019.8009746-.863076 1.4913769-1.469927 2.0496319l5.003144 11.6451451 6.648383 8.3684311c1.626359-.8387309 3.606039-.9600907 5.405013-.1591162 3.150228 1.4158641 4.566212 5.1132921 3.161016 8.2551621-.442326.997847-1.116604 1.820397-1.928435 2.432589l5.893191 11.518392 5.785306 8.201224c1.313494-.331717 2.742964-.242719 4.07264.350595 3.150228 1.41047 4.563515 5.107898 3.161016 8.255162-.229254.515105-.520543.981666-.857682 1.399683l7.508762 13.408907c2.319517 9.684511 3.649193 15.183457 4.663307 20.151117.8415.002697 1.696484.175298 2.513709.539377 3.150228 1.413167 4.566212 5.107898 3.161016 8.252465-.720129 1.615434-2.041714 2.772397-3.581765 3.327955.512451 3.441224 1.086936 7.559366 1.834036 12.953134l3.368694 21.364715c.477389.088997.952081.234629 1.413287.439592 3.150227 1.415864 4.560817 5.110595 3.155622 8.255162-.582577 1.307989-1.561628 2.313927-2.732175 2.944997l2.413915 15.312908 3.066617 20.431593c.283197.080907.566394.183388.844197.304748 3.150227 1.41047 4.560817 5.107898 3.155621 8.249768-.512451 1.15157-1.326979 2.06851-2.311425 2.702278l1.739637 11.585814-14.710052 32.041678c-20.479175 31.71266-20.500752 31.71266-42.82745 62.152389l-21.784578 11.2514 3.929693 7.559366 37.667874-1.709824 23.381269-8.139196-3.530521-8.05829-11.282021-22.249293 3.236535-17.532443c8.139885 7.251922 16.279771 14.503843 24.419657 21.755764l11.028493 17.777859 23.421726-8.15268 47.523123-68.778633-5.375345-104.992391-45.680996-54.347607-2.079473-15.792953c3.87575.396442 7.751501.792884 11.627252 1.192023l54.406155 54.819561 4.496086 12.864137c1.159759-.186085 2.384248-.051241 3.533218.461167 3.150227 1.413167 4.566211 5.110595 3.161016 8.252465-.852288 1.914788-2.546074 3.182323-4.452933 3.573372l-.240043 10.291309 3.956664 5.66076c1.480715-.552862 3.169107-.547468 4.719947.142934 3.150228 1.415864 4.566212 5.110596 3.161016 8.255162-1.076148 2.416408-3.495458 3.802607-5.984893 3.694731l-.997931 5.933145 4.415173 9.204465c1.28922-.307444 2.683627-.210357 3.983635.369473 3.150228 1.413168 4.560818 5.110596 3.155622 8.255162-1.089634 2.446074-3.554795 3.837666-6.073898 3.689338l-.601456 2.195263 6.831786 14.67914c1.259552-.277779 2.613502-.169904 3.878448.393745 3.144834 1.415864 4.560818 5.110595 3.155622 8.255162-1.16785 2.624068-3.926996 4.034538-6.637594 3.630006l-1.434864 3.759456 1.051874 13.719049c.256226.075513.512451.169904.763283.280476 3.144833 1.413167 4.560817 5.110595 3.155622 8.252465-1.405196 3.155354-5.105635 4.560431-8.255862 3.158051-.377596-.167207-.72822-.369473-1.054571-.598708l-6.866849 4.819332.558303 17.297814c.469297.088997.935898.231932 1.389013.434198 3.150227 1.41047 4.560817 5.107898 3.155621 8.249768-1.405195 3.158051-5.10024 4.560431-8.250467 3.158051-.884653-.393745-1.631753-.968181-2.217027-1.66128l-7.104194 5.938538-.539423 14.382483c.668884.059331 1.340465.226538 1.987772.515105 3.150228 1.413167 4.566212 5.110595 3.161016 8.252465-1.405195 3.155354-5.105634 4.560431-8.255861 3.158051-.29938-.132147-.57988-.28587-.844197-.455773l-16.468569 15.242788-1.504989 2.877575c1.893373 1.77455 2.554166 4.614369 1.440258 7.108986-1.405195 3.155355-5.105634 4.556925-8.255861 3.158052-2.605411-1.165054-4.018698-3.891604-3.630314-6.583094l-13.337221-6.512975-10.82621 12.424544 28.063456 37.334584 1.413287.984363-.323654.463864.05664.076052.550211-.056905.094399.916402 6.95855 9.257054 49.079358 80.466928 7.824323 57.519682c.264317.07794.528634.174488.790254.290184 3.150228 1.410471 4.56621 5.107899 3.161016 8.249769-1.343162 3.014307-4.78198 4.43125-7.832415 3.329033l-26.304939 17.436164c.628428 1.527246.652702 3.29775-.072822 4.921005-1.402498 3.155354-5.10024 4.56043-8.250467 3.160748-.730918-.326054-1.364739-.774545-1.893373-1.310416l-12.209829 8.09254c-.048548.713865-.221163 1.430966-.528634 2.121908-1.405195 3.152657-5.105634 4.555037-8.255861 3.158051-1.615571-.722226-2.772632-2.045587-3.32554-3.588474l-17.293886-6.366264c-1.780094 1.543426-4.361231 2.00783-6.653777.989756-2.01744-.901838-3.322842-2.740304-3.627616-4.773754l-18.755721-6.904293c-1.75582 2.040732-4.706461 2.777521-7.290295 1.628109-2.98031-1.33253-4.404385-4.710917-3.352511-7.739248-6.794027-5.2627-13.717515-10.379767-20.603243-15.536209-1.488806.563648-3.193381.56176-4.763101-.135384-2.494829-1.114622-3.897328-3.659132-3.673467-6.233847-8.795284-6.71686-17.423348-13.62331-25.538959-21.111748-1.639845.861115-3.643799.988408-5.467047.179343-3.150228-1.407773-4.560818-5.097111-3.150228-8.249768.089005-.195524.183404-.384306.288591-.566076-5.186547-5.841181-14.03038-15.907301-24.220071-27.541928-1.424075.464403-3.018069.422871-4.493389-.231932-3.144834-1.407774-4.555424-5.097111-3.144834-8.247071.024274-.053668.048548-.106797.075519-.159386-6.359791-7.266754-12.997385-14.86118-19.432696-22.226639-1.383618.412353-2.915578.351404-4.336957-.278319-3.150227-1.41047-4.560817-5.099808-3.144833-8.249768.005394-.008091.008091-.016451.010789-.024542-12.965021-14.846886-24.206586-27.734755-29.301431-33.573239l.733614-.641589-1.456441-1.061763 5.224307 23.754154 4.323472 19.335041-6.036138 12.930749 6.807512 14.054002 6.661868 45.799024c.277803.079558.552908.179343.822619.299893 3.150228 1.413168 4.563515 5.110596 3.161016 8.255162-1.084239 2.43259-3.53052 3.821755-6.038835 3.689068l-21.142665 42.940326c2.163084 1.738951 2.977612 4.775912 1.796277 7.421556-1.405196 3.152657-5.105634 4.555037-8.255862 3.155354-.277802-.124596-.544817-.267261-.795648-.426108l-11.147166 11.198541c2.11993 1.745693 2.910184 4.752989 1.739637 7.375978-1.405195 3.152657-5.105634 4.555037-8.255861 3.155354-2.0552-.91694-3.368694-2.807726-3.643799-4.885944l-54.743294 11.719039c-.002697.83954-.17801 1.690947-.54212 2.505675-1.405196 3.149961-5.105634 4.555037-8.255862 3.155355-2.160387-.967642-3.503549-3.013768-3.673467-5.221707l-87.801803-30.730724c-1.674907 2.433129-4.900653 3.395917-7.694862 2.154541-3.150227-1.405077-4.560817-5.097111-3.150227-8.247071.010788-.022924.021577-.045848.032365-.068771l-14.289302-15.205302-8.940929 8.104946c.914322 1.657774 1.06536 3.706058.237346 5.560705-1.405195 3.155354-5.10024 4.557734-8.250467 3.158051-1.780094-.794502-3.007281-2.31959-3.479275-4.064474l-13.701332.440401-24.484388 3.751636c-.064731.64914-.231952 1.298819-.512451 1.926654-1.405196 3.155354-5.10024 4.557734-8.255862 3.158051-3.144833-1.407774-4.555423-5.097111-3.144833-8.249768.094399-.217369.202283-.426647.320956-.627026l-13.857764-9.272696-16.08558 3.775907c.024274.902917-.148341 1.824442-.539422 2.703357-1.405196 3.155354-5.10024 4.557734-8.255862 3.160748-2.92367-1.310686-4.347745-4.589018-3.403756-7.57366l-11.074344-7.574468-18.820452 3.344945c.240043 1.219531.118673 2.521587-.426143 3.741118-1.405196 3.152657-5.105635 4.555037-8.255862 3.155354-3.150228-1.407774-4.560817-5.097111-3.144833-8.247071.275105-.620823.639215-1.173954 1.070753-1.651302l-10.613138-11.429665-9.073086-2.360582c-1.696484 2.343592-4.862894 3.25433-7.608555 2.032102-3.144833-1.405077-4.555423-5.099808-3.144833-8.247071.369504-.829832.898138-1.538573 1.53196-2.107345l-5.984893-13.161603-5.359163-.907502c-.013485.032902-.026971.065534-.040456.098436-1.405196 3.155355-5.105635 4.557734-8.255862 3.158051-3.150228-1.407773-4.555423-5.099807-3.144833-8.249768.490874-1.103834 1.262248-1.994076 2.192752-2.624877l-4.142765-13.606319-9.768941-3.908324c-1.639845 2.556376-4.949202 3.592519-7.805444 2.321208-3.150228-1.405077-4.555423-5.094414-3.150228-8.244375.585274-1.314461 1.567023-2.325793 2.742964-2.957133l-3.824506-10.849025-8.636154-1.308528c-1.412208 3.14187-5.102398 4.534001-8.245073 3.137824-3.150228-1.407773-4.555424-5.09711-3.144834-8.249768.681021-1.5321 1.903353-2.651576 3.340644-3.237879l-3.24112-18.895718c-1.180796.203615-2.432526.072007-3.607928-.449031-3.144833-1.407773-4.555423-5.099807-3.144833-8.249768.077947-.175028.162636-.344392.254068-.508363l-1.915489-1.319045c-1.776858 1.509445-4.333181 1.957398-6.603611.948763-3.144833-1.407773-4.555423-5.099807-3.144833-8.249768.757079-1.702003 2.183043-2.895375 3.829091-3.413176l-.275915-8.583103-7.626355-3.509995c-1.688932 2.379191-4.877459 3.309347-7.642539 2.080916-3.150227-1.405077-4.555423-5.097111-3.144833-8.247071.900836-2.024821 2.7462-3.330922 4.784138-3.63567l-.268632-8.44745-7.011684-3.994894c-1.704844 2.31123-4.846711 3.201471-7.575919 1.988952-3.144833-1.407773-4.555423-5.097111-3.144833-8.247071.848241-1.910203 2.536095-3.178817 4.432165-3.573641l-1.305673-7.941245-4.066976-3.555302c-1.688931 1.007826-3.826393 1.20335-5.754829.343583-3.150227-1.405077-4.560817-5.099808-3.150227-8.247071.734693-1.652651 2.098623-2.825795 3.683177-3.367869l-.363301-11.423731-5.366715-1.00378c-1.449158 3.060154-5.083518 4.402663-8.188434 3.023207-3.150227-1.407774-4.560817-5.101156-3.150227-8.251117.487908-1.094935 1.253618-1.98221 2.177379-2.610584l-2.567382-13.530267-5.854622-18.063729-6.480083 2.251898-29.829795-1.456317-6.027507-11.966074 4.200753-9.617089 30.268885-1.607343c-5.524496-16.874403-5.541218-17.057791-8.263144-34.886891 5.393147 4.441768 10.786563 8.880839 16.179709 13.322607l6.494377 19.002245 26.115872-7.920749 60.534264 17.354449 34.237147-44.959753c-.633821 7.362493-1.267643 14.724986-1.901464 22.08748l-17.134757 27.230437 11.522065 3.303683c39.73656 31.448365 61.421345 48.826546 79.759013 66.563952l2.570349 2.036148 1.607479-.810414c.202283.401296.404567.802593.60685 1.203889l-1.103119.556906c.852288 1.065539 1.688393 2.114897 2.513709 3.148613 19.378754 19.650305 36.777827 41.698411 71.298171 84.891705l42.522677 41.370471 14.718143 2.456591 84.991412-51.024776-2.006652-62.533458c-.703947-.05178-1.41059-.223572-2.090262-.526432-2.993795-1.335497-4.412477-4.736537-3.339026-7.774577l-8.636154-7.662117-11.093224.356258-38.668503-21.855278-13.984529-7.444209c-1.728849 2.19796-4.792769 3.025904-7.460213 1.839275-1.119302-.498924-2.017441-1.286414-2.645868-2.235717l-2.163084.639162-8.854621 4.780226-22.545164-9.804521c-1.734243 1.183932-4.024092 1.464408-6.081989.550164-2.206238-.98706-3.557491-3.096023-3.681558-5.356012-25.60369-12.276216-52.585604-22.319412-75.993844-38.147424-1.666816.941213-3.743592 1.105723-5.626177.266992-2.702507-1.205508-4.121188-4.09387-3.581765-6.879752-62.065955-45.8713-101.03114-81.011698-135.940947-118.630533-1.701069 1.049088-3.875751 1.264838-5.837091.391048-3.150228-1.405077-4.555424-5.097111-3.150228-8.247071.192844-.434199.429111-.836034.701249-1.200114-35.810372-39.679254-68.868612-83.196174-120.690663-145.4780137l-107.7286098-56.5428701c-1.74961688 2.0739038-4.72507148 2.8290314-7.32589713 1.6720681-3.14483327-1.4050766-4.55542314-5.0971108-3.14483327-8.2470713 1.40249854-3.1553543 5.10023988-4.5604308 8.24507315-3.160748 1.96808305.881881 3.25919085 2.6618245 3.60523035 4.6386405l59.2013514 2.7049746 8.3025216-5.4692808 9.6321981 3.3414393-.3436121-1.0167252 39.4382587-13.3199101c-.114627-1.0625723.042345-2.1709917.511373-3.21738267 1.402498-3.15535429 5.10024-4.56043085 8.245073-3.16074805 3.144833 1.41047033 4.560817 5.10789832 3.155622 8.24976822-.101412.2265382-.21496.4449858-.339297.6553428l42.992783 40.5584385 141.800155 35.8685573 168.690906 67.9075396c1.712666-2.257292 4.814346-3.117598 7.508761-1.917485 3.150228 1.410471 4.566212 5.107899 3.161016 8.249768-.097096.218448-.20498.426108-.320956.628374l69.992768 55.153975 16.608819 17.133304c1.453744-.512408 3.098983-.488136 4.61476.186085 2.804997 1.256748 4.237164 4.328499 3.522429 7.206074l65.127177 47.694394 30.523223 40.423594c1.442956-.493529 3.069315-.466561 4.571606.202267 2.513709 1.127297 3.924299 3.710912 3.676165 6.305314l33.929676 21.364716c-7.209382-16.361996-14.111293-29.495821-22.197237-42.751006-1.124696-.903456-1.879887-2.160204-2.179267-3.527524-8.347563-13.365757-18.022106-27.152228-30.539405-44.75479-.706644-.051241-1.418682-.221145-2.103748-.525892-2.84006-1.27293-4.264135-4.404012-3.476578-7.316647-5.057086-7.103592-10.551105-14.822074-16.562969-23.338834-3.533217-4.021054-7.152742-8.009745-10.920608-12.063162-.620336-.070119-1.240672-.234629-1.842128-.501621-2.21433-.989756-3.56828-3.112204-3.684256-5.380283-10.793845-11.388941-22.882303-23.586948-37.387375-38.573532l-4.757706-17.572896 15.322296 6.121926 43.855051 39.611833 12.360867 15.542142c1.688392-1.008634 3.824505-1.208204 5.750244-.347898 3.150227 1.415864 4.560817 5.110595 3.155622 8.255162-.302077.679615-.712038 1.275626-1.197518 1.78264l31.634433 39.773646c.596062.072816 1.192124.234629 1.772003.49353 2.529892 1.135388 3.940481 3.740578 3.67077 6.351161l30.744386 38.654439c1.415984-.461167 3.001887-.41532 4.466419.234629 3.144833 1.41047 4.560817 5.107898 3.155622 8.249768-.242741.547467-.555606 1.040997-.922413 1.477892l9.830975 18.187786c1.184033-.20766 2.440887-.078209 3.616828.444986.760586.339807 1.418682.814459 1.960801 1.378108l43.954844-61.437715-1.518475-120.40778-59.649341-115.8527432-92.804947-25.0216899-65.852701 37.4759002zm-28.014908 668.31860136 15.00134-14.214467-101.228029-30.419772-11.867296 12.024327c.922413 1.327676 1.313494 2.987338 1.038389 4.619223l87.184164 30.514972c.040457-.104099.08361-.20766.129461-.310681 1.402499-3.14996 5.10024-4.56043 8.239679-3.160748.555605.249462 1.059965.570661 1.502292.947146zm75.683676-27.032756-59.047886 13.125734-15.710681 14.887339c.2805.369473.517846.767534.709341 1.18582l55.590187-11.90081c.062034-.182579.134856-.363809.213072-.543152 1.235278-2.772936 4.242558-4.19797 7.090709-3.54883 4.620154-4.731413 8.361049-8.781593 11.476214-12.431286-.124067-.250811-.231951-.509712-.320956-.774815zm2.114536-6.9585-4.725341-7.758666-62.047075 11.887325 5.701696 14.554274 58.664896-13.041052c-.118673-1.067696.037759-2.180161.509754-3.232215.436932-.983824 1.097725-1.797743 1.89607-2.409666zm-161.101231-25.862309-2.354579 13.982265 100.83425 30.301649-5.596508-14.288631-5.154182-2.128111-1.073451.250541zm375.303215 13.00869-6.953156 6.652673c.22386 1.132692.137552 2.33685-.312866 3.47925 4.636337 1.807722 9.69612 3.726285 15.276446 5.802346.080913-.561221.240043-1.120825.48548-1.663977.561-1.265918 1.494201-2.25082 2.613502-2.885666l-3.360602-11.292123c-1.761214 1.353566-4.19401 1.719533-6.365185.755127-.509755-.227077-.970961-.513756-1.383619-.84763zm-243.363165 4.533462-41.953586 9.798049 3.490063 1.441215 57.319037-10.981172-18.60738-.715484zm253.544765-9.282136c-.013486.817696-.188798 1.645639-.54212 2.438253-.215769.486248-.488177.930695-.803739 1.329834l3.519731 11.826106c1.394408-.431232 2.945247-.377834 4.380111.261328 1.486109.668288 2.586531 1.844399 3.18529 3.230867l11.279325-7.474684c-.380293-1.059336-.474692-2.221423-.237346-3.363284zm-659.212073-98.009888c-.013486.026159-.024274.052319-.035063.078749-1.405195 3.155354-5.106443 4.557734-8.256671 3.158051-.66241-.296118-1.247954-.693099-1.74638-1.164784l1.412748 8.237362c.754921.035599 1.515777.209278 2.246694.534792 2.292546 1.028052 3.665376 3.27132 3.697742 5.628667l10.089898 1.528863 4.41787 12.535926c.965567-.056904 1.958104.110303 2.902093.530477 2.59732 1.162357 4.016001 3.878389 3.646497 6.556665l11.033887 4.414799 4.458327 14.630865c1.157062-.187703 2.381551-.05178 3.530521.460358 2.252089 1.01322 3.619525 3.194999 3.700438 5.505689l6.721205 1.138624 6.483858 14.254381c1.386316-.421253 2.92367-.36381 4.347746.271037 2.699809 1.210361 4.123885 4.094679 3.595251 6.873278l9.431802 2.453895 11.395301 12.271901c1.53196-.638622 3.314751-.669367 4.946505.057444 1.011417.453346 1.844825 1.142669 2.46516 1.974388l20.557393-3.653468 11.805261 8.076358c1.766609-1.935014 4.639034-2.614089 7.158137-1.493264 1.375527.618934 2.422007 1.675574 3.04504 2.931782l17.258823-4.052068 15.203624 10.171568c1.728849-1.172336 4.007909-1.449575 6.049624-.539107 1.63445.731934 2.8023 2.079837 3.349813 3.646726l24.559908-3.762692 13.822701-.444447c.086308-.50216.237346-1.001892.455813-1.48841 1.402498-3.155355 5.100239-4.563128 8.245073-3.163445.409961.184467.790254.407769 1.140878.663973l8.870804-8.042917-9.024539-9.602526-16.800314-3.611397c-.03776.097357-.078217.194445-.12137.290994-1.405196 3.152657-5.105635 4.555037-8.255862 3.158051-2.273666-1.017534-3.641102-3.227901-3.692347-5.564481l-12.511905-1.516458c-1.718061 2.25082-4.819741 3.10762-7.516853 1.911282-2.311426-1.032907-3.684256-3.295592-3.692347-5.671547l-11.279325-5.960114c-1.742335 2.125954-4.75501 2.911017-7.384694 1.744614-2.063291-.923413-3.379482-2.829301-3.643799-4.920464l-11.314388.361921c-.089004.472764-.234648.942292-.439629 1.400492-1.405196 3.152658-5.105634 4.555037-8.255862 3.158051-1.720757-.76969-2.92367-2.221962-3.42803-3.895379l-26.911789 2.080916-.105187-1.344936-.881956 1.02131-36.189857-31.289248c-1.680301.978968-3.794837 1.161548-5.704393.314187-3.082799-1.377029-4.493389-4.939613-3.233838-8.042648l-9.13512-7.898364c-.285894-.080637-.569091-.182309-.849591-.306096-1.45644-.652646-2.54068-1.795855-3.144833-3.148612l-4.482601-3.874074-4.366625-.706314c-1.464532 3.026982-5.08136 4.347107-8.169554 2.975202-3.150228-1.41047-4.555423-5.099808-3.150228-8.249768.50436-1.129725 1.300009-2.035608 2.260181-2.668567l-2.937156-4.591714c-1.726152 1.143748-3.983635 1.406155-6.014561.505935-2.311425-1.035064-3.684256-3.304222-3.68965-5.685032zm258.048942 115.973024 11.616464-11.77136-95.504756-99.009084-12.153189 10.324751c1.121999 1.720612 1.375527 3.955789.480086 5.965237-.137553.307985-.296683.599248-.477389.872712l87.791014 93.423568c1.7747-1.484904 4.307289-1.922069 6.556681-.920446.636518.285869 1.202912.665321 1.691089 1.114622zm128.5309-137.564278c-.089004.465752-.231951.928807-.434235 1.380265-1.405196 3.155355-5.105634 4.560431-8.255861 3.158052-.865774-.387003-1.602085-.947685-2.181965-1.622716l-5.386133 1.863817.439629 22.988779c.22386.070119.442326.153722.660793.25054 3.150227 1.410471 4.566211 5.107899 3.161016 8.252465-1.405196 3.155355-5.105635 4.557734-8.255862 3.158051-1.170547-.522656-2.098354-1.359768-2.732175-2.367055l-3.142136.83091-12.247588 24.057824c1.63445 1.78237 2.154992 4.433407 1.108513 6.777539-1.405196 3.155354-5.105634 4.557734-8.255862 3.158051-2.454372-1.095744-3.848779-3.573641-3.681558-6.104936l-15.254869-3.743005-12.018334 20.923774c1.057268 1.703082 1.278432 3.881356.40187 5.845226-1.405196 3.152658-5.10024 4.557734-8.250467 3.158052-2.144205-.958203-3.481973-2.973045-3.673468-5.155634l-6.839877-1.815272c-.072822.229235-.15913.456852-.258923.681502-1.211004 2.721696-4.126582 4.139448-6.923488 3.583081l-9.37786 19.718537 85.320459 27.684053 43.377661-10.130844 21.102209-38.530382-7.862083-31.697557-28.365533-54.263463zm74.062712 82.849356-3.031555-4.222242-26.399338 50.04338 4.768495 7.83229c1.224489-.574166 2.629685-.750273 3.997121-.447952 8.134492-11.601995 10.917912-21.127659 21.094117-42.436009-2.872424-1.52374-4.110399-5.03751-2.759146-8.053975.515149-1.157502 1.337768-2.080376 2.330306-2.715492zm186.092676 36.183014-32.190039 3.744353c4.649822 2.295318 9.760851 4.592254 15.632465 7.043183.021577-.055017.045851-.110033.070125-.16478 1.402498-3.155354 5.10024-4.560431 8.245073-3.160748 1.434864.642667 2.511012 1.760256 3.123256 3.084157l6.462282-6.185843c-.973658-1.223307-1.461835-2.784263-1.343162-4.360322zm-240.094264 8.071773 23.397451.899951 26.288756-49.832753-24.705551 2.981675-3.983635 6.355476c.070125.28641.142947.574437.215769.864621zm220.928582-35.386624.291288 9.138392c2.389642 1.17719 3.716621 3.696619 3.46579 6.226296l18.175841 7.213895c1.720758-1.147255 3.978242-1.411549 6.00647-.509172 1.855614.833068 3.109771 2.459828 3.541309 4.298833l21.355737 8.477655.002697-.002697c.596062-1.340621 1.604782-2.365437 2.810392-2.99408l-3.775958-10.353068-11.721651-3.753523-.124067.05178-.24274.529668zm64.361197 7.471717-1.424075.604102-9.785124 12.99116 3.75438 10.29077c1.340465-.364349 2.810392-.285869 4.177828.322008.636518.2856 1.202912.664513 1.688392 1.113274l25.398709-16.83395c-.890047-.956045-1.453743-2.168025-1.620964-3.450933l-22.216117-5.101965zm-504.565032-73.07342-11.619161.369743 94.41782 97.883135 2.281757-13.535931-44.564391-44.071669c-17.844097-17.364966-30.407247-29.98045-40.518722-40.727803zm443.677716 82.304585c-.064731.200109-.142947.398869-.229255.595472-1.405195 3.152657-5.100239 4.555037-8.250467 3.158051-.326351-.146171-.633821-.316614-.922412-.508632l-9.736577 7.781049c.331745.691212.536726 1.441215.598759 2.210366l34.501464-4.012963c.072822-.23328.161827-.464943.264317-.693369.275106-.625138.64461-1.181774 1.078845-1.66155zm-32.413899-25.000924c-.396475.518611-.86847.963057-1.389013 1.324979l7.961876 31.25284c1.184033-.20766 2.440887-.077131 3.616828.447144.960172.430692 1.761215 1.073629 2.368065 1.848714l9.402135-7.51271c-1.693787-1.780213-2.241301-4.472782-1.175941-6.856288.256225-.58037.593364-1.101408.98984-1.556911zm-7.457516 1.925036-8.447357 9.889743c1.170547 1.73113 1.44835 4.008109.531331 6.051808-.194192.435547-.431538.837652-.706643 1.203619 7.34154 5.61707 13.736394 10.099022 20.694945 14.200173.215769-.118932.436932-.22519.663489-.318232l-7.891751-30.966701c-1.504989.607878-3.241929.633498-4.844014-.06041zm78.450913 23.308629 10.087201 3.230597 8.315198-11.037807zm-649.310973-87.131738c.242741 1.223577.121371 2.530487-.426143 3.754063-.097096.221144-.207678.433928-.326351.637543l3.600645 5.631364c1.119302-.158038 2.29794-.013485 3.406454.480045 2.351882 1.05556 3.738198 3.386208 3.703135 5.80774l8.598395 1.390513c1.610176-2.640519 4.973476-3.732757 7.867477-2.444456 3.150228 1.415865 4.560818 5.110596 3.155622 8.255162-.161827.365968-.356019.708472-.577182 1.025625l5.36186 7.058825c1.602085-.779939 3.522429-.872442 5.272855-.092504 2.049805.921526 3.365996 2.808805 3.646496 4.881361l8.4069.538028c1.618268-2.616517 4.965384-3.694462 7.848598-2.411554 3.150227 1.415864 4.560817 5.110595 3.155621 8.255162-.08361.188782-.178009.371361-.277802.547468l2.206238 2.972505c1.604782-.783445 3.53052-.877296 5.283643-.097627 2.494829 1.119746 3.902722 3.673965 3.678862 6.250838l8.727856 1.4369c1.478018-2.983563 5.06248-4.287237 8.1264-2.923423 2.753752 1.237331 4.180525 4.215769 3.560189 7.045879l11.961694 7.85009c1.777397-1.731939 4.496087-2.300981 6.896517-1.232476 1.809763.813111 3.047737 2.378382 3.506246 4.159405l11.667709-.373249c.067428-.209278.148342-.417208.240043-.622711 1.402499-3.152657 5.10024-4.563127 8.245074-3.163445 2.823876 1.268884 4.247952 4.368683 3.503549 7.2619l10.675171 5.641612c1.451047-3.049367 5.08136-4.394303 8.172252-3.016465 2.713295 1.22007 4.140067 4.131896 3.584462 6.926137l11.880781 1.439867c.005394-.011058.010788-.021845.016183-.032902 1.402498-3.152658 5.10024-4.563128 8.245073-3.163445 2.184661.982205 3.533217 3.061772 3.684256 5.293444l13.145726 2.825525-19.117134-20.342596-87.124827-19.609044.148341-.65777v-.000269l-.307471.599787zm325.657464 38.874774 12.263771-24.08695-10.448614-15.136531-88.152427 48.118883.256225 7.925064-.674278.021844.623033.253508-4.954596 12.180206 18.019409 17.819662 9.183669-19.316972c-2.324911-1.700115-3.228444-4.84657-2.001258-7.584986 1.399802-3.155354 5.092149-4.563128 8.236982-3.163445 2.03632.912086 3.349814 2.780757 3.641102 4.837131l6.980127 1.85222c.048548-.133226.102491-.265912.161827-.397251 1.402499-3.155354 5.10024-4.563127 8.245073-3.163445.275106.123518.536726.264295.78486.420984l12.657549-22.040285 17.339737 4.254065c1.507686-2.779408 4.889865-3.994894 7.837809-2.793702zm186.383965-66.062061 40.389261 47.07411 54.829601 47.342181 39.345478 18.120633 22.453463-9.526204-7.07183-46.159866-40.033242-74.492521-40.958351-63.896194-14.491586 16.359029c1.863705 1.776167 2.508315 4.597647 1.402499 7.075814-1.405196 3.152658-5.105635 4.555037-8.255862 3.155354-3.150228-1.405076-4.560817-5.09711-3.150228-8.247071.026972-.065264.059337-.12999.089005-.193636l-12.676429-9.247885-6.028047 10.42912c1.637148 1.782101 2.15769 4.434486 1.111211 6.779697-1.405196 3.155354-5.105634 4.557734-8.255862 3.158051-1.825945-.816347-3.066617-2.399687-3.51164-4.200667l-9.207943-1.240836 1.440258 6.157526c2.359974 1.698227 3.290478 4.87219 2.060594 7.62463-.498965 1.122443-1.289219 2.022933-2.243997 2.654543-.717432 5.436379-1.383619 9.654305-2.154993 13.285929.016182.007012.032365.014024.048548.021036 3.150227 1.415864 4.560817 5.110595 3.155622 8.255162-1.197518 2.683939-4.056458 4.099264-6.820998 3.598722-.798345 1.967107-1.718061 4.007839-2.796906 6.277267 2.756449 1.579026 3.926996 5.01998 2.605411 7.974956-.318259.714405-.752495 1.338733-1.273037 1.86112zm186.969238 102.91552-7.190502-52.862971-20.085398 52.606228.124067.808796 21.927526 5.035082c.062033-.660737.231951-1.322822.520542-1.962253.884653-2.002436 2.694416-3.300177 4.703765-3.624882zm-147.947414-53.459792-4.083428 4.342253c2.057897 1.755402 2.813088 4.716581 1.656027 7.301544-.037759.088458-.080913.175297-.124067.261058l21.458228 18.673765c1.715363-1.103565 3.935087-1.346824 5.93095-.457931 3.150228 1.413167 4.563515 5.110595 3.161016 8.252465-.010788.028317-.024274.056365-.037759.084412l22.06238 19.199387c1.437561-1.062303 3.298569-1.480859 5.097543-1.07309l-.310168-9.725503-.231951.267531zm-22.814875 30.378241c-.132158.288836-.283197.5623-.450418.820392 9.809399 7.847393 17.73891 14.307509 24.61385 19.79432 1.739637-2.127572 4.749615-2.917759 7.376603-1.749199.658095.295039 1.240671.690402 1.739637 1.15966l8.139886-9.529979c-1.731546-1.262951-2.678233-3.329034-2.546074-5.433412zm143.073731 20.126576 20.117763-52.695496-.03776-.27643-28.333167 6.173707 1.402498 2.61355-1.186729.637813 1.33507-.204154zm-628.265403-33.699993c-.072822.230853-.15913.459549-.258923.685817-.15913.355989-.347928.689863-.561.999735l35.537156 30.724791 26.358881-2.038035c.064731-.45011.180706-.899411.350625-1.340082l-11.635344-7.634609c-1.718061 2.239492-4.811649 3.08955-7.503367 1.895909-2.376156-1.060954-3.759775-3.419379-3.692347-5.865453l-8.889683-1.463599c-1.580508 2.732753-5.005841 3.873265-7.951088 2.564737-3.144834-1.407773-4.555423-5.097111-3.144834-8.249768.223861-.508632.509755-.971957.844197-1.38512l-1.947316-2.624607c-1.739637 1.207934-4.051063 1.501625-6.125142.581987-2.529892-1.132152-3.937785-3.741117-3.657285-6.357634zm169.413732 7.220907 21.061752 20.829923 4.692976-11.531337-.245437-7.56395-12.441781-.432581-1.146273.687975zm-233.564555-67.199877-9.676431 3.11598c.151848.218178.2894.445255.411849.679884l23.564673 12.104964c1.062662-.115966 2.168478.038835 3.212261.503778 1.267643.569042 2.252089 1.506479 2.88591 2.628383l93.832547 48.198172 10.278696-13.483072c.358716.272385.714735.54504 1.073451.817426l-9.984711 13.096338 84.158004 18.941025-22.321304-23.751727-.167221 1.050976c-93.573624-15.01598-90.641862-25.352598-177.238056-63.855201zm457.519298 76.148138-8.282833-47.1267-23.103466 9.411047-6.330124 17.007899-.366807-.136463c2.632382 7.525116 5.245884 16.688049 8.530967 29.7736l3.46579-5.529691.571788.358685-.080914-.669366zm-.857682-40.869929-5.898585-5.369766 8.180342 46.556579 3.705833 5.161296c.361413-.133226.736311-.23301 1.119301-.297466l-6.524315-44.844327zm112.205277 20.94481c-1.739637 2.134584-4.757706 2.923153-7.392785 1.752975-.752495-.336841-1.407893-.80475-1.947316-1.365163l-10.494465 11.16537c.782163 1.32417 1.068057 2.919646.741706 4.472512l38.673897 5.035622c.080914-.279127.180707-.556097.302077-.828752.315562-.704157.741706-1.321474 1.25146-1.839545zm-320.109503 11.003557 10.810027.375946 87.273169-47.638299-14.426855-2.960909zm288.550589-49.054163c-.331745.333335-.698552.625138-1.089634.872173l7.255233 45.668494c.911624-.028317 1.842128.143205 2.729478.538568.782163.350055 1.456441.840888 2.009349 1.429079l10.480979-11.152425c-1.030297-1.693913-1.235277-3.850341-.36411-5.799379.412659-.929616 1.024903-1.707667 1.763912-2.306645zm-7.427848 1.081451-12.430992 11.915642c1.003326 1.68798 1.200215 3.819867.339836 5.744903-.32635.736519-.779465 1.377298-1.321585 1.909663l23.68874 26.961019c.604153-.408578 1.275734-.707662 1.97968-.885117l-7.185108-45.241578c-1.45644.512408-3.104376.490294-4.625548-.183927-.151038-.068231-.299379-.141856-.445023-.220605zm-514.91655-130.567752-7.948391-3.222776-3.30666 4.177473 2.511012 110.207087 119.215073 53.004828 50.171688 8.051277-14.742418-15.689123c-1.704575 1.054212-3.883842 1.272121-5.850037.3986-3.150227-1.405077-4.560817-5.097111-3.150227-8.247072.264317-.59655.612244-1.130533 1.022205-1.595206l-59.436269-78.134663c-1.580508.72708-3.457699.794502-5.170365.033441-3.150228-1.405076-4.560818-5.097111-3.150228-8.247071.070125-.156689.145644-.309063.226558-.457122l-62.130686-54.381587c-1.442955.488136-3.066617.455773-4.563514-.210357-2.319517-1.032907-3.695044-3.30638-3.697741-5.687729zm433.84674 139.052958-27.958269-52.643176-18.043683 12.031609-10.359609 13.701249-.296683-.223302c14.550923 27.77413 20.821709 36.70594 26.787722 53.292316l6.033441-16.212048.631124.234898-.256225-.624868zm-400.710015 19.535958c-.291288.168555-.596062.313108-.911624.432311l3.611433 3.123261zm478.181877-52.204393c-.647307 1.298011-1.329677 2.669106-2.052503 4.122996l6.726599 8.632457c1.415984-.45901 2.999189-.416669 4.463721.235168 3.150228 1.415864 4.566212 5.110595 3.155622 8.255162-.118673.268879-.256226.525353-.407264.768072l23.063009 29.603966c1.615571-.808526 3.565583-.913165 5.337586-.122978.129462.057443.253529.118663.377596.183658l4.253347-4.525641-40.364987-47.043097c-1.42947.517532-3.047738.518342-4.552726-.109763zm137.231785 11.478748-.865774.299354 20.848681 38.796564 28.465326-6.202024-.040457-.066343-47.997815-31.291676.369504-.565267-.671581.06904zm1.310796-.451459.105188 1.033177 45.362736 29.57349-23.327327-38.245051zm-502.890125 29.351268 12.120824-10.295894-68.471597-86.253363-9.785124 9.282945c1.337767 1.761065 1.699181 4.176394.736311 6.331744-.534028 1.198495-1.399801 2.144292-2.440887 2.779139 16.892016 18.512221 31.796261 38.496671 60.976322 76.89086 1.550839-.676109 3.37139-.723035 5.038206.018339.698552.313377 1.310797.738946 1.825945 1.24623zm218.123585-43.364277.129462-1.778325-23.168197-25.531941-7.53843 54.731373 10.559196 15.298075 3.425333-.905883c-.14025-1.097902.013485-2.246774.498966-3.331731.914321-2.057183 2.8023-3.371375 4.879076-3.649423l-.474692-24.660847 6.837181-2.365707c-.374899-1.350329-.296683-2.834694.320956-4.21496.863076-1.940947 2.594623-3.21981 4.531149-3.590631zm70.238206 35.575945 4.784678 4.355738-24.238951-50.050662-8.342169-6.644313zm40.785736-21.979065c-.040456.107606-.08361.214672-.132158.321199-.361413.814459-.879259 1.512143-1.499595 2.074982l18.782692 21.375503c1.761215-1.382692 4.210193-1.76592 6.394854-.791535.779466.348707 1.453744.837382 2.003955 1.422876l12.120824-11.617907c-1.599388-1.404267-2.378853-3.550448-2.041714-5.663187zm-377.601154-70.972548-6.785936 3.422616 68.611847 86.42785 11.683892-.3719c-23.942268-25.589653-34.242541-40.953802-70.578042-86.54058-.970961-.984633-1.947315-1.963062-2.931761-2.937986zm-122.12337 70.922116c.20525 1.181236.073362 2.433129-.451766 3.608431-.126495.283982-.271869.55367-.433426.808526l1.904431 2.811502c1.588599-.748655 3.481703-.826595 5.209203-.057983 2.260181 1.014298 3.627617 3.203898 3.700439 5.52187l8.015818 1.168559c.650004-1.41047 1.763912-2.464412 3.077406-3.062851zm339.265206-53.217342 2.028229 63.261887 15.556945 3.192571 7.646314-55.52156-18.960701-43.191946-5.229702 21.099612c2.635079 1.617591 3.730107 4.978178 2.43819 7.868698-.703946 1.579835-1.982378 2.721156-3.479275 3.290738zm121.709902 38.452172-10.408157 7.795613 9.607115 19.838818 4.719947-10.109539zm-462.093061 23.647627-1.284635-1.896179.524049 3.0553c.213881-.421253.469837-.808795.760586-1.159121zm539.451644-6.116532-6.464979-8.297234-29.816579-5.446357-4.069943 4.084161c1.604782 1.395907 2.40043 3.5313 2.087565 5.637566l35.639645 7.124089c.035063-.091964.072822-.183658.113279-.274812.544817-1.227622 1.437561-2.191219 2.511012-2.827413zm115.644096-33.74638-1.132787.726001 1.186729-.637543 16.611516 30.906021 1.372831-.473303-5.418499-52.498083-2.284455-3.037771-24.489782 2.341435-.129461-1.342239 23.66986-2.262955-2.014743-2.681782-31.879871-22.218279c-1.221792.239483-2.527195.118393-3.751684-.424759-1.995863-.892669-3.293174-2.702548-3.616828-4.710647l-6.75357-4.707951.191495-.27643-1.297311-.693369zm14.192206-19.886553 5.154182 49.956271 21.566113-7.439625-22.534376-36.946501zm-670.182578 47.250217 9.924026-3.195538-69.648617-112.279641-6.822077 2.837122 12.44232 21.453712.87818.161813.045311 1.429349 51.295036 88.442153c.097365.037756.194461.07794.291018.12109.596332.26807 1.13036.617587 1.594803 1.02994zm-3.678592-1.554214-49.411642-85.195105.28967 9.101714c.631124.067691 1.262518.23301 1.872875.504317 3.150227 1.415864 4.560817 5.113292 3.155622 8.255162-.150499.338189-.32743.656152-.527286.952809l4.602893 4.024021 1.542208 9.379223c.360065.087918.716893.209008 1.066709.365158 2.721386 1.218452 4.148428 4.143223 3.580956 6.944207l8.559556 4.877045.325542 10.236023c.252719.076052.503551.168555.750876.278858 2.689021 1.206046 4.114445 4.076609 3.600376 6.845231l9.215764 4.241389.324732 10.100909c.580149.077131 1.158949.237596 1.719679.487597 3.150227 1.413167 4.566211 5.107898 3.161016 8.252465-.008092.018339-.016453.036947-.024814.055286l2.099972 1.446339c1.178908-.842776 2.630764-1.259445 4.095296-1.152648zm434.414213-26.469917-67.120344-75.484974 39.140498 100.546039 9.701514-12.827999.539422.408039-.374898-.56284zm37.187788-2.747046 23.95036 27.439447c1.772003-1.49758 4.312683-1.940139 6.570166-.93501.145644.065265.288591.135384.426144.210087l3.584462-3.598452-3.738198-.682851zm-453.773008 27.392791-2.486738-109.095161-6.467676-1.650493.155624 98.44112 7.188614 11.588241zm383.003471-3.757569 3.986333 3.736803-39.655647-101.865624-13.356101 21.376851 19.648465 44.756408 24.346835 26.827793-.245437.222223 2.985704 2.798017c.960172.523466 1.73694 1.271311 2.289848 2.147529zm47.409845-12.7657 7.41706 15.312368 10.68596-8.003273-4.709159-21.40382zm88.93459 9.358996-7.489881 4.44851 6.866848 1.254321 1.828642-3.694731c-.528634-.591157-.935898-1.274278-1.205609-2.0081zm-16.595334-8.780784c-1.45644 3.039927-5.078663 4.371379-8.177645 2.998395-.668884-.300163-1.262249-.703617-1.763911-1.183662l-5.909374 6.855749 22.938942 4.190148 9.175577-5.449863c-.14025-1.099519.010789-2.25001.496269-3.336315.021577-.045308.040457-.090076.062034-.134844zm-1.356647-35.645795-7.62204-3.106001-5.510201 2.504865-4.73613 43.140166 1.920344 1.398065 6.483859-7.522958c-1.151667-1.725197-1.415984-3.985455-.507057-6.019715 1.402498-3.152657 5.10024-4.563128 8.245073-3.163445.043154.018878.086307.038296.126764.058253l3.104377-3.600071c-.973658-1.676383-1.151667-3.780761-.302077-5.68584.62573-1.409122 1.707272-2.469267 2.993795-3.087123l-.307471-9.59039c-.070125-.028587-.14025-.058522-.210375-.089806-2.171175-.968181-3.514337-3.022398-3.678861-5.236zm-63.692314 9.154303 44.567089 32.469405 4.347745-39.603742-36.346289-22.662456zm89.144965 18.446687-23.497245 4.851155c.048548.632419.002698 1.277783-.145644 1.914517l17.118574 4.009458c1.291917-1.629457 3.322843-2.499202 5.372648-2.341704l3.150228-6.362759c-.838802-.53641-1.513081-1.251354-1.998561-2.070667zm-542.818989.124056 5.81956 9.38192-.152657-96.744511-1.474781-.871093-1.985884 6.33498c1.690281 1.782641 2.236716 4.474131 1.174593 6.850086-.638946 1.434742-1.751505 2.505405-3.070933 3.117598 1.039468 5.016204 1.155174 10.287803.365189 15.335831 2.260181 1.720612 3.132427 4.824995 1.926278 7.524306-.467949 1.049897-1.190775 1.906158-2.062751 2.529407l2.494829 9.14837-1.864784 6.393503c2.103208 1.747042 2.879437 4.741122 1.711857 7.351706-.538613 1.21198-1.415984 2.165868-2.471094 2.801254l2.043872 9.646484zm445.755302 6.045605 13.674361-14.387337-.709341-3.214416-33.204153-24.189971zm-12.244891-8.384882 8.447356 6.728186-22.075866-45.583273-6.731993-3.53939zm96.567418-2.555567c-.032365.086839-.070125.173409-.107884.25944-1.402499 3.155354-5.10024 4.560431-8.250467 3.158051-.790254-.353022-1.472624-.850327-2.028229-1.447148l-2.761843 3.205247c1.035691.806908 1.772003 1.906157 2.141507 3.121373l23.181683-4.78589c-.118673-.361652-.202284-.734631-.250832-1.113543zm-574.437509-108.395589-18.935618 6.5777 7.486645 16.742256 53.768018 86.680818 1.735052-7.919939-1.85858-8.772155c-1.059965.11273-2.162814-.043959-3.205788-.508093-3.150227-1.405076-4.560817-5.09711-3.150227-8.244374 1.255775-2.825256 4.351521-4.24948 7.242826-3.511882l1.508225-5.171006-2.201653-8.058829c-1.201833.222493-2.480265.096279-3.678322-.436895-3.150228-1.407773-4.560817-5.099807-3.150228-8.249768 1.21451-2.730056 4.149778-4.151583 6.956933-3.576877.633821-4.534271.439629-9.178036-.481974-13.609016-.851749 0-1.717252-.175298-2.545266-.542074-3.150227-1.405077-4.560817-5.097111-3.144833-8.247071 1.344241-3.036692 4.818122-4.455253 7.880154-3.311774l2.05466-6.553428 1.287062.401836-1.237704-.53668 2.311695-5.334437-36.617079-14.843649c-.034523.088997-.070935.175297-.109773.261597-1.405196 3.152658-5.105634 4.555037-8.255862 3.155355-2.545265-1.135388-3.955045-3.762154-3.658363-6.391615zm590.153584 90.876091-16.576454 11.425619c1.032995 1.347093 1.491504 3.081729 1.219095 4.790205l11.538248 2.320399c.062034-.665861.231952-1.33307.520543-1.977625 1.097725-2.470076 3.606039-3.870568 6.152113-3.688259.676976-5.042903 1.237975-8.613847 1.53196-11.789428-1.100421.141586-2.254786-.007282-3.344419-.489215-.372202-.166937-.720129-.365697-1.041086-.591696zm-181.510282-57.175829 66.605195 74.906493-19.804897-41.240481-37.82161-48.040404zm178.921054 52.930394-13.679755.438513c-.06473.193097-.14025.384576-.22386.574167-1.175941 2.640519-3.959361 4.055305-6.683445 3.624612l.2805 8.748962c1.27034-.286949 2.637776-.18204 3.916207.385654.539423.24191 1.0276.550973 1.459138.912626l16.479358-11.359815c-.838802-.930965-1.375527-2.093591-1.548143-3.324719zm-90.65265 7.273227 12.347381-29.263889-52.585604 1.685013.008091.272116 6.570167 3.454978-.501663-1.036952zm-345.206136-8.180728 9.766244-9.263258-73.919764-60.85303-6.144022 6.3188c2.567651 1.642402 3.616828 4.956872 2.343791 7.812873-.323654.725461-.76598 1.356532-1.297312 1.882425 28.484206 24.980966 45.753818 40.536593 60.088971 55.291246 1.677604-2.412902 4.887168-3.369217 7.665194-2.132696.555606.248922 1.057269.568503 1.496898.94364zm358.392319-55.927981.854985 33.757437 36.157491 22.54541.183403-1.662359.671581.073625-.280499-.613811 5.526383-2.510799-4.018697-9.380302-14.488889-5.265126zm78.359212 42.614543-14.855696 10.021621c.477388 1.010792.685066 2.144292.571787 3.279411l13.350708-.427996c.053942-.694447.226557-1.392131.525937-2.064734 1.078845-2.421532 3.508943-3.815282 6.003772-3.697158-.250831-1.562305-.574485-3.279951-.981749-5.221437-.898138.019957-1.809762-.152914-2.68093-.540456-.7471-.333874-1.397104-.79639-1.933829-1.349251zm-62.243964-71.026216c2.50292 6.682879 4.714552 13.492511 6.802117 20.361474 5.491322 14.285395 11.500488 30.953487 18.52377 51.112425l-.609548-.221684 3.67077 8.569888 7.185108 2.927737c.083611-.531825.240043-1.061493.469298-1.576328.253528-.570661.582576-1.083878.968263-1.533718l-6.680748-17.018687c-1.173244.197143-2.413915.063647-3.579068-.453616-3.150227-1.407773-4.555423-5.099807-3.150227-8.249768.501663-1.131073 1.300008-2.037765 2.262877-2.670994l-7.88366-20.07884c-1.216398.234628-2.513709.110572-3.730107-.431502-3.150227-1.405076-4.555423-5.097111-3.150227-8.244374.525937-1.181236 1.37283-2.119751 2.392339-2.753519l-6.861455-17.478505c-1.345859.366776-2.821179.288566-4.191313-.323626-1.000628-.444986-1.823248-1.119207-2.438189-1.936363zm55.244956 47.500218c-.960172.240023-1.985074.253507-2.985703.010788l-9.256491 30.085898c.434236.089267.863076.225999 1.283826.413163.976355.437165 1.785489 1.094395 2.397733 1.88647l14.728932-9.936669c-1.049177-1.698767-1.264946-3.869759-.385687-5.831472.399172-.899141.984446-1.656696 1.693786-2.247583zm97.789211 12.570716 27.696649 19.304026-22.787904-30.315134-2.17657 2.498663c.86847 1.640515 1.000629 3.647266.186101 5.47036-.612245 1.377298-1.664119 2.420453-2.918276 3.042085zm-291.994802 17.7339 5.593812-22.569953-8.682005-25.81727-11.996757 42.254778 8.622669 7.649982c1.650633-1.669372 4.158947-2.306915 6.462281-1.517537zm187.36032-33.112072-13.660875 8.705811c.935898 1.666405 1.097724 3.736263.261619 5.610867-.687763 1.539382-1.920344 2.661555-3.368693 3.244352l6.443402 16.406763c1.030297-.747576 2.276363-1.166402 3.557491-1.190404l9.356284-30.417616c-1.108513-.542073-1.987772-1.372714-2.589228-2.359773zm-407.560682 23.955881-79.508181-62.925855.60685 7.246527 74.426822 61.270238 6.726598-3.393489c-.7471-.733822-1.496897-1.466026-2.252089-2.197421zm571.024584-247.163486-.485481.463864.666187-.097088c5.186548 35.477509 10.373095 70.952322 15.56234 106.429831l-.668884.097088.598759.307444-38.091321 74.477149-.598759-.307445v.002697l.231952.631071-99.008306 36.499628-.234649-.636465.075519.674221-5.739455.636465c.334442 1.313383.245437 2.745428-.350625 4.077689-1.405195 3.152657-5.105634 4.559082-8.255861 3.155354-2.613503-1.165054-4.024092-3.905088-3.62492-6.601972l-11.958997-.070119c.032365.922334-.137553 1.863547-.539422 2.761609-.415356.935819-1.032995 1.715218-1.777398 2.316624l7.449425 14.335556c1.337768-.358416 2.799603-.278318 4.158948.326593 3.150227 1.413167 4.560817 5.110595 3.155622 8.252465-.240043.534253-.54212 1.018343-.898139 1.446878l7.357723.991644c.089005-.445255.229255-.887814.423447-1.320124 1.375527-3.097911 4.965384-4.508651 8.067064-3.234643l7.414362-12.828807 15.190138 11.079608c1.612873-1.305022 3.824506-1.761335 5.882403-1.085226l17.080814-19.280024 11.905055 6.364646c1.575113-2.740034 4.997749-3.888906 7.940299-2.578221.436932.196873.838802.435008 1.205609.71036l15.910267-18.258984 14.966278 7.308556c1.529263-2.35438 4.482601-3.408862 7.168925-2.526981l1.65333-3.160748 16.746372-15.504386c-1.068056-1.70443-1.28922-3.891603-.404567-5.868419.712038-1.601949 2.014743-2.753519 3.538612-3.317168l.604153-16.043763 8.479722-7.090108c-.347927-1.326867-.26162-2.77779.339836-4.131626.809134-1.815003 2.376157-3.052873 4.158948-3.508646l-.601456-18.756828 7.783867-5.463887c-.94399-1.666675-1.111211-3.745972-.267014-5.633791.895441-2.017269 2.732175-3.319864 4.7631-3.632703l-1.068056-13.926709 1.65333-4.328499c-2.505618-1.65319-3.514338-4.92451-2.246695-7.756238.442327-.992453 1.11121-1.812306 1.917647-2.424499l-7.247141-15.571808.871167-3.171536c-2.853545-1.537224-4.07264-5.037779-2.732175-8.044805.426144-.957393 1.062662-1.755671 1.834037-2.359773l-4.787375-9.981168 1.181335-7.030776c-2.902093-1.512952-4.158948-5.051264-2.799603-8.085259.312865-.703886.741706-1.32417 1.254158-1.841971l-4.40978-6.305315.26162-11.151616c-.372201-.088997-.741706-.213053-1.105816-.374867-3.144833-1.405076-4.555423-5.09711-3.144833-8.247071.493572-1.105722 1.264946-1.998391 2.198147-2.629462l-4.33426-12.392182-53.294945-53.703051-5.976801-.612193zm-367.198392 249.792139 12.023728-42.355912-41.489683 31.98882c4.830529 2.745967 10.658989 6.066641 18.869 10.707439zm116.083725-99.438159c-.043154.12136-.094399.240023-.145644.358686-1.405195 3.155354-5.105634 4.560431-8.255861 3.158051-1.146273-.509711-2.057897-1.321473-2.691719-2.300442l-21.207396 8.956352 55.080433 42.276353-.412658.53668 1.121999-.747037 26.005559 39.045757 10.669777 3.876771c-5.321403-15.271645-9.391346-31.099388-14.111293-46.638834-4.102308-10.67157-7.916025-20.016273-11.643435-28.492579l-1.356647 2.152113c-15.459849-9.735751-25.328584-16.116579-33.053115-22.181871zm-68.498568 44.989419 36.815587 46.768014-2.570348-80.203982zm90.20493 8.435853-.002697-.099784-54.611135-41.920365 2.575742 80.349613 52.968594-1.697418-.903533-35.591048-.488177-.733553zm-154.309902-27.289769c-1.305402 1.046391-2.999189 1.539921-4.684884 1.334958l-8.131795 35.890132-1.216397 24.844774 42.180143-32.520106zm-82.569404-16.513021 3.266203 42.575708 16.090974 15.099854 4.862894.466561c.086308-.32902.199586-.655343.34523-.973575 1.402499-3.155355 5.10024-4.560431 8.245074-3.160748 2.778026 1.24596 4.207495 4.279954 3.53052 7.138651 14.755903 7.879217 20.994324 11.334734 29.854339 16.356332l-20.797435-59.064187zm72.62515 13.303729-25.800579 5.134867 20.460296 58.104097 1.124696-22.934032.679673.032362-.66349-.148328 8.14528-35.954858c-.15913-.056634-.315562-.118663-.471995-.188782-1.7747-.790187-2.996492-2.308532-3.473881-4.045326zm106.943211-11.936408-54.319847 8.425065-12.215223 35.887436 8.91126 26.498234 23.254505-37.226439.56909.355989-.469297-.482742zm115.992024 37.524444c-.809134.21575-1.664119.272385-2.516406.151025l-7.713742 29.917883c.315562.084412.628427.194715.938595.331986.83071.373519 1.540051.905884 2.109142 1.545045l13.87125-8.839037c-.493572-1.440136-.461207-3.06366.210375-4.563128.38299-.863003.938595-1.593858 1.607479-2.173688zm-6.920791-2.721156-11.460032 5.539399c.43963 1.40238.388385 2.963876-.256225 4.406709-.66349 1.491377-1.839431 2.591705-3.228444 3.190414l7.797352 19.859854c.790254-.302051 1.639845-.445256 2.497527-.409657l7.748804-30.048951c-.118673-.045847-.234649-.091694-.350625-.142935-1.178638-.52859-2.111839-1.375411-2.748357-2.394833zm-588.827954-9.153225-1.675716.582527 5.924478 18.27948 2.502111 13.185066c1.153285-.183388 2.370762-.045847 3.514877.463864 2.337587 1.049088 3.720397 3.354924 3.701787 5.757847l4.758516.889972-12.24597-21.113905.582306-.33711-.633821.226538zm301.609738 17.52705-7.368511 7.683422c.299379 1.28102.199586 2.667218-.377596 3.959026-.078216.1726-.161827.339807-.250831.50162l20.492661 8.913202 7.948391-4.290743 1.753123-.517801-5.434682-.523196zm336.68326 13.354969 5.995682-.663433 94.026738-34.66305-23.478365 2.281563-.196889.283173-.334442-.231932-.569091.056635.237346.682311c-53.305733 18.551866-53.160089 23.918665-108.275584 26.540036l.930504 1.790731c1.364739-.391048 2.869727-.323626 4.264135.296657 1.804368.809065 3.039646 2.367864 3.500852 4.139717l12.514602.075513c.040457-.099785.080914-.196873.124067-.296657 1.402499-3.155355 5.10024-4.563128 8.245073-3.166142 1.356648.609496 2.389642 1.642402 3.015372 2.874878zm-355.279851-7.791298-82.094712-89.725331 2.265574 43.786609c.7471.037756 1.496898.210357 2.217027.531286 2.233209 1.000544 3.592554 3.149961 3.697741 5.434222 18.788086 11.731445 41.829519 24.555128 73.383039 40.917124.153735-.334414.331745-.649949.531331-.94391zm10.715628.709281 7.085315-7.392159-3.28778-42.858881-10.745297 6.121927-.331744.782096 3.285083 40.12424c.329047.086301.652701.19957.973657.342505 1.359345.609495 2.395036 1.645099 3.020766 2.880272zm-9.830975-44.242382-80.395532-45.366983 80.395532 87.869875c.873865-.817156 1.963498-1.35923 3.123256-1.577678l-3.314751-40.469441zm99.812045 8.98332 28.24686 29.65224 12.015637-35.302212-38.889667 1.882425c-.016182.806369-.191494 1.620828-.539422 2.400227-.22386.50162-.50436.957394-.833408 1.36732zm-306.304063 25.356104 1.953249 1.154266 7.250378 1.847366 3.036949-3.832273-10.105811-4.096566zm-76.131666-14.339333 6.184749 17.254664 6.776226-2.818244-7.328595-16.39166zm107.260122 11.882471 6.141325-6.318799-73.74607-25.39386-5.442234 4.911026c.561808.080907 1.121729.237326 1.665197.480045 2.172524.976272 3.518923 3.036692 3.685335 5.25353l59.955733 24.301622c1.370134-2.923422 4.738827-4.298833 7.740714-3.233564zm472.323748-28.212103c-.908927.33711-1.89607.463864-2.883213.353292l-4.81974 26.974233c.269711.07821.536725.177995.801042.293961 1.259552.563649 2.238603 1.494073 2.875122 2.60519l11.41418-5.515128c-.520542-1.459014-.498965-3.112204.186101-4.638641.399173-.900759.984446-1.658583 1.69109-2.249201zm25.805973 9.468759-6.729296 10.849565c.596062 1.510255.609548 3.247048-.10249 4.8463-.399173.895366-.984446 1.650493-1.69109 2.238414l1.014115 1.949847 18.798874-9.711479-5.556052-9.714176c-1.537354.644555-3.328236.676918-4.970778-.051241-.267014-.12136-.520543-.256204-.763283-.40723zm79.974782 12.589055-10.505253-16.933735-20.549301-18.309145-2.203541 11.925621 10.888244 21.469893-1.202913.609496 1.235278-.539377 3.630313 8.287525zm-113.521468-25.06484-7.875569 4.854391c.755192 1.593859.838802 3.492465.064731 5.223865-.596062 1.337654-1.604782 2.36247-2.807694 2.990844l6.823695 17.381417c.795648-.283172 1.645238-.404532 2.50292-.347898l4.833226-27.038959c-.17801-.062028-.353322-.12945-.528634-.20766-1.353951-.604102-2.386945-1.631615-3.012675-2.856zm-539.597828-7.370584 7.567559 5.50434 74.057856 25.501736-.652701-7.761633-.056639-.045847zm597.57496-26.852874-2.999189-31.089679-43.42621 60.698769c.407264 1.378107.342533 2.901847-.288591 4.312317-.312865.703887-.739009 1.318776-1.248763 1.836578l9.385952 18.052942c1.33507-.358686 2.799603-.277779 4.158947.329019 1.041086.466561 1.890676 1.183933 2.513709 2.049632l6.40834-10.329065c-1.804369-1.777247-2.413916-4.555038-1.316191-7.003808 1.329676-2.988148 4.719947-4.412102 7.746107-3.360318l15.597402-25.137655c-1.623662-1.779944-2.130719-4.420193-1.081542-6.763786.865773-1.94715 2.605411-3.22817 4.550029-3.594946zm6.699627 32.003923-21.862794 7.508125c.447721 1.41047.40187 2.980056-.248134 4.436374-.277803.617586-.641913 1.170447-1.073451 1.645099l5.742152 10.040499.029669-.016181c5.40771-7.370584 11.422271-15.374936 17.412558-23.613916zm-644.513348 3.487071-17.881048 6.372736-11.522334 11.917531 24.906486 1.216295 5.489433-19.5605zm14.042246 13.114946 19.894982-6.912113-30.472787-6.672091-1.042974.315535-5.381549 19.174845 4.623661-1.607342-.00054-.002697zm-47.064344-11.361972-.813719.04315-3.027509 6.930992 4.750424 9.431004.918097.04315 11.700345-12.098222zm755.581793 13.144613 27.184198-2.642947 37.155423-72.645964-17.29928 6.092261.053942 1.035603zm-394.115575-79.369297c-7.101497 14.490358-11.807959 30.383096-21.193911 54.646961l45.214396 18.368477 14.909638-37.284421zm53.634781 62.424775-13.811914-25.296772-14.340547 35.863163 25.393314-5.05396c-.051245-.954697.118673-1.936363.536726-2.869485.493572-1.11651 1.278431-2.011876 2.222421-2.642946zm-283.606782 7.300465 11.381815 3.263229-1.407893-.887275 16.948656-26.928386 1.04648-12.179129zm437.118338-45.49913c4.75501 8.166164 9.771639 17.055094 15.136196 26.820511 3.595251 6.537247 6.656474 13.309123 9.369769 20.237418-.086308-1.022119.075519-2.081995.528634-3.087933.552908-1.243263 1.461835-2.216838 2.554166-2.853303l-6.173691-13.864681c-1.399801.436896-2.958733.382958-4.404385-.256204-3.150227-1.407773-4.560817-5.099807-3.150227-8.249768.366807-.825246.890047-1.529133 1.521171-2.095479l-11.532853-16.267604c-1.248763.272385-2.591925.167207-3.84878-.382957zm-495.458501 43.452195 5.561716-5.018901-37.978852.892668 28.659788 6.275649.197968-.067422c.925649-1.089541 2.190325-1.812306 3.55938-2.081994zm-69.372972-1.655887 10.972393 3.530221 13.549754-4.830119zm601.566146-28.352342c-.50436.231932-1.038388.393745-1.585902.485439l-3.039646 26.491492c.391082.088997.782163.215751 1.165153.385654.970961.436896 1.780094 1.089542 2.389642 1.877032l8.096732-4.989236c-.342534-1.321473-.253529-2.764306.347927-4.107354.477389-1.076057 1.224489-1.94715 2.122628-2.575524zm-180.639114 28.74339 39.299627-1.901303 1.059965-60.137817-19.022735 20.744432-23.677951 37.527141c1.23258.941213 2.049805 2.292351 2.341094 3.767547zm243.686818-26.170562-15.397816 24.816726c.485481.296658.917019.655343 1.291917 1.057179l25.989377-8.926686c.474692-.660737.949384-1.321473 1.421378-1.984907l-8.708976-13.921315c-1.165153.191479-2.40043.056634-3.560189-.45847-.369504-.16451-.714735-.361383-1.035691-.582527zm-69.396707-3.244352-5.712484 4.937995c1.216398 1.742187 1.515777 4.053416.587971 6.12732-.561 1.262142-1.491504 2.246505-2.608108 2.880272l6.168296 13.851197c.62573-.202267 1.281129-.304748 1.947315-.302051l3.012675-26.262257c-.741706-.040453-1.486109-.213054-2.203541-.533983-.431538-.191479-.830711-.426108-1.192124-.698493zm-133.639231 27.365282 54.905121-8.514063-30.881939-41.440319-22.955125-10.752477zm-422.802064-2.203354 35.946037-.846822-9.026696-6.564215-1.278162-.366777zm-3.078754-1.885122-6.216845-18.190483-10.14411-8.349552c2.178998 14.269213 2.735412 14.164034 7.227183 27.883083l-1.072372.350595 5.602982-.296657zm423.275408-55.372422-60.633788 30.930562 14.176024 25.9656c1.504988-.590618 3.236535-.598709 4.827831.107875.029668.013484.059337.026969.089005.040453l23.723802-37.599957.571788.361383-.498966-.455774zm-109.470406-6.356556-.644609-.048544-110.705683 16.388964 82.237659 46.402586c13.353405-31.550846 20.311955-47.745634 29.112633-62.743006zm.137553.533983-26.035228 61.526712 9.860644-5.614913c9.558567-24.633338 14.421461-41.057362 21.684785-56.000796l-5.127211-.401836zm-250.610576-54.908558c70.707773 62.093057 92.166001 86.917874 137.407367 116.427179.436932-.180691.895442-.310142 1.362042-.388351l-2.341094-45.280683zm411.703716 55.396694-46.131413 3.51404 21.722544 10.17804-.285894.612193.54212-.404533 31.337751 42.049816 21.703665-9.166709c-.555605-1.483286-.550211-3.176929.148341-4.738425.579879-1.307989 1.556234-2.316624 2.724084-2.947694-8.897775-8.627332-16.490147-19.034608-31.48879-38.897159zm183.600544 31.035741-19.888508 4.315015c.029669.91694-.14025 1.855456-.539422 2.748124-.48548 1.086845-1.240672 1.966029-2.152296 2.591706l7.856689 12.564783c5.243187-7.419128 10.300273-14.916466 14.723537-22.219628zm-121.863637-8.52485c-.636519.914244-1.491503 1.620827-2.45707 2.076601l11.292811 15.930493c1.669512-.946606 3.748986-1.11651 5.626177-.277779.636518.28587 1.202912.663434 1.688392 1.111117l5.6046-4.843604c-1.407893-1.634312-1.909556-3.940148-1.181335-6.07608zm-178.707982-68.82448c-18.753024 18.384658-28.34935 31.359367-35.450848 45.485646l39.21332 35.995311 63.187953-32.233158zm292.321152 52.384275-14.890758 23.996874c1.146272.628374 2.025531 1.572283 2.581136 2.669915l21.833127-4.738425.145644.66613c.987143-1.672068 1.936526-3.336045 2.848151-4.981145.288591-.525892.574485-1.051784.857681-1.583071l-10.343426-15.979037c-.979052.226538-2.017441.221144-3.031555-.051241zm-4.579697-5.304771-16.077488-4.358164-.17801.248113 3.152925 32.651175c.509754.016181 1.022206.09439 1.529263.240022l14.874576-23.972602c-1.882585-.984362-3.069314-2.815547-3.301266-4.808544zm-86.811963 27.100987-13.631207-17.138697-8.458145 4.835513c1.068057 1.666674 1.324283 3.805303.517846 5.752453l20.489964 7.891083c.302077-.504317.668884-.952 1.081542-1.340352zm115.555092-29.371763-16.452387 2.950391c-.089005.382957-.215769.765915-.38299 1.138085-.428841.960091-1.068057 1.758368-1.842128 2.365167l9.318524 14.395967c3.422636-6.796148 6.319335-13.859287 9.358981-20.84961zm-176.933282-23.344228c-.043154.013484-.083611.029666-.126765.04315 8.757525 12.141372 17.765881 25.995265 27.944784 43.163628.062033-.660736.234648-1.32417.520542-1.963331.113279-.253507.242741-.496227.38299-.728159zm21.25055 14.9731-6.49195 3.51404 14.828725 20.917032c.296682-.302051.620335-.569042.968263-.800975l-2.651262-20.426199c-1.205609.223841-2.486738.097088-3.68965-.436895-1.321585-.590618-2.335699-1.583071-2.964126-2.767003zm10.626623.652646c-.682369.973575-1.612873 1.709824-2.664747 2.15481l2.616199 20.164602c1.486109-.563649 3.18529-.560952 4.749615.134844.709341.318232 1.332374.752431 1.852917 1.270232l8.466236-4.840906zm-328.0525 23.328046 109.761694-16.248726-84.530205-51.799051zm-1.237974-.542073 25.296219-68.223075-147.656125-90.477762zm-143.043523-111.370522 139.453666 108.924448-121.331767-157.368576zm6.630851 41.130178 130.468236 67.66482-137.123361-107.101355 2.276363 31.77199c.300997.083604.599568.188782.893283.32093 2.851657 1.275626 4.282206 4.428283 3.485479 7.343615zm693.954389-38.236422 5.329495 104.113207 17.992438-6.33498-15.303417-104.671462zm-357.229863 41.046575-13.013569-9.824749c-9.458773 5.509734-20.516935 8.918596-28.457234 16.426721l67.449391 49.611878 46.870422-3.570674-62.492098-45.766122c-1.739638 2.138629-4.757707 2.928816-7.392786 1.755672-3.150227-1.405077-4.555423-5.097111-3.150227-8.247072.059336-.132147.12137-.258901.186101-.385654zm272.003803 35.774166-14.693869 15.857678c.283196.722765.431538 1.496771.431538 2.281564l16.943261-3.036691c.652701-1.494074 1.318888-2.980057 1.99856-4.460646l-1.537354-10.242766c-1.035691.134844-2.114536.013485-3.142136-.399139zm-39.342781-115.583055-4.746918 7.340919.145644.280476 1.529263 121.165604 15.699892 4.255683c.067428-.631071.237346-1.262141.509754-1.874334.825317-1.855456 2.446281-3.109507 4.283015-3.538312l-3.824506-31.310823c-.207677-.067422-.412658-.145632-.617639-.237326-3.150227-1.407773-4.555423-5.097111-3.144833-8.247071.525937-1.181235 1.37283-2.117054 2.389642-2.753519l-4.612063-37.742892c-.140249-.05124-.277802-.107875-.415355-.169903-3.150227-1.407774-4.555423-5.099808-3.150227-8.247072.493571-1.111116 1.275734-2.006481 2.214329-2.637552l-4.264135-34.924648c-.032365-.010788-.062034-.024272-.094399-.040453-.733615-.326323-1.37283-.7794-1.901464-1.318777zm-279.771488 82.246872-38.091321 49.174983 4.781981.377564c7.295689-14.63599 17.121271-28.023322 36.25189-46.596762l-1.124696-2.491921c-.612244-.059331-1.224489-.213054-1.817854-.463864zm-3.789443-5.245439-76.263555-52.764536 40.267891 107.050114.949383.075513c8.253165-13.826925 18.286424-26.976931 36.63488-50.677148-.922412-1.019422-1.480714-2.322017-1.588599-3.683943zm-122.284387.957393-.180707.48544 84.667758 51.882654-40.227434-106.944935zm424.797928 17.645713c-1.159759.757824-2.55956 1.119206-3.964756.997847l3.770564 30.86314c.876561-.010787 1.766608.161813 2.618896.539377.650004.29396 1.224489.682312 1.718061 1.143479l14.000711-15.107944c-1.647936-1.779944-2.171176-4.439071-1.116605-6.798845.051246-.113269.105188-.223841.161827-.334414zm-151.85553 11.345791c-.415355.50162-.900835.927728-1.434863 1.270232l12.751948 17.985519 6.775147-3.665065c-.374899-1.353836-.29938-2.839819.320956-4.220623.186101-.420714.415355-.811763.676975-1.167751zm21.763002 8.125711-14.305485-17.985519-6.378672 3.810697c.509755 1.45362.485481 3.096023-.191495 4.611671-.04585.105179-.094398.204964-.145644.304748l19.295144 10.312885c.515148-.444986 1.100422-.800975 1.726152-1.054482zm143.429749-46.871844-13.10527 17.106335c2.35458 1.701734 3.279689 4.870573 2.049806 7.613304-.107884.248113-.231952.485439-.369504.70928l17.01878 11.192069c.806437-.61489 1.750426-1.024816 2.748358-1.19472l-2.983007-19.876035-2.36267-14.98119c-.968264.056634-1.963498-.110573-2.910185-.52859-.029668-.013484-.056639-.026969-.086308-.040453zm-174.203804 8.182346c-.291288.110572-.593364.202266-.900835.269689l4.33426 20.107967c1.09233-.134845 2.233209.013484 3.309357.493529 1.189426.533983 2.128022 1.391593 2.76454 2.421802l6.114354-3.654278zm-24.88356-11.62357c-.636519.471955-1.356648.817156-2.117234 1.019422 2.983007 4.255683 5.84734 8.327978 8.603789 12.233066 6.014562 6.852782 11.7702 13.797259 17.523141 21.305384.08361-.113269.167221-.223842.256226-.331717zm17.353222 9.126256-6.637594 3.654277 14.526648 20.493622c.534029-.41532 1.13009-.738946 1.761215-.962788l-4.369323-20.26978c-.852287 0-1.71806-.1726-2.546074-.539377-1.170547-.525892-2.101051-1.364623-2.734872-2.375954zm162.533398-27.149532c-1.200215.757825-2.640473 1.097632-4.078034.927728l4.496087 36.801679c.984446-.33711 2.055199-.431501 3.112467-.245416l13.528717-17.659196c-1.488806-1.771853-1.928435-4.309621-.917018-6.56961.032365-.075513.067428-.148329.10249-.218447zm-248.428342 27.667333-11.419575-11.779989-24.592272 12.090131c.412658 1.380805.353321 2.907241-.2805 4.323105-.911624 2.046935-2.788814 3.357621-4.854803 3.640793l.690461 1.53183c8.514785-7.918051 20.244527-11.596601 30.312848-17.462323zm-127.535665-51.57521-191.774144-35.455934 147.449796 90.351008.126764-.339807.631124.234629-.52324-.423411zm198.23238 39.021215c-.051245.148329-.110582.293961-.175313.439592-.256225.574437-.58797 1.092238-.981749 1.545315l8.932837 12.599842 6.831786-3.762153c-.439629-1.224386-.498965-2.589009-.107884-3.896998zm-108.019359 10.501667 23.723802-11.65863-.016182-.013484-107.984297-36.089702 73.450467 50.820082c.089005-.49353.237346-.984363.450418-1.461711 1.402498-3.155354 5.10024-4.560431 8.245073-3.160748.841499.374867 1.558931.91694 2.130719 1.564193zm-302.469847-3.236261-2.34514-32.729385-70.256546-73.390304-32.763175-27.6781206-15.779187-7.5944254 118.168054 141.999034c.919175-.439592 1.941921-.652646 2.975994-.606799zm425.800714-2.057723-12.026425-15.121428-4.574303 3.570674c1.235277 1.343048 1.836734 3.176929 1.610176 5.00272l14.701961 7.019989c.089004-.161813.1861-.320929.288591-.471955zm-177.602166-63.190689-33.268884 18.209361 108.116455 36.135549-65.580292-51.677692c-1.734244 1.186629-4.02679 1.469802-6.087384.552862-1.486109-.663434-2.583833-1.833882-3.179895-3.22008zm353.016973 17.985519-12.023727 15.091763c1.855613 1.777247 2.492132 4.590097 1.386315 7.06314-.126764.285869-.272408.558255-.436932.814459l16.01006 12.845258c.687764-.552861 1.483412-.952 2.330306-1.173144l-3.322843-21.076149-1.801671-12.996284c-.687764-.056635-1.375528-.226538-2.039017-.523195-.035063-.013485-.067428-.029666-.102491-.045848zm-200.702935 33.179764-35.062463-36.48075-1.823248 1.793428 35.413088 36.585929c.374898-.741643.879258-1.380805 1.472623-1.898607zm7.654406-.426107 4.663307-3.643491-42.371638-38.27148-4.088823 4.870572 35.264747 36.693804c1.650633-.895366 3.681559-1.038301 5.523687-.218448.358716.161813.695855.350595 1.00872.569043zm245.763595-70.545092 45.020203 53.562813 8.277438-7.11438-54.71902-57.233272zm-71.762075 17.235786c-1.119301.507014-2.384247.685008-3.63301.474651l4.134673 33.848591c1.310797-.496226 2.788815-.552861 4.191313-.080906l12.215223-15.329089c-1.483412-1.771853-1.917647-4.30153-.903533-6.556125zm-643.711227-43.597827-.651083-.169904.301267.601405-9.124601 4.571219 69.071974 72.149737 18.13997-48.492671-74.619935-40.73913zm158.120382-16.356602 117.105931 80.129818-.105187-.191479 34.21557-18.729859c-.153736-.814459-.148341-1.663978.035062-2.502709-71.845684-28.921384-113.483708-45.617793-151.251376-58.705771zm-78.288547 44.25317 190.585526 35.234789-158.129013-74.099585zm344.809121 33.379333 1.863704-1.833881 4.293804-5.110595-9.013751-3.60034zm-287.180456-84.555404-23.788533 11.472545 154.547248 72.419426-114.899693-78.619563c-5.318706-1.8150027-10.578076-3.5652804-15.859022-5.272408zm520.963477 56.855709-11.217292 2.901847c.304774 1.28911.204981 2.680703-.374898 3.980601-.237346.53668-.54212 1.019422-.898139 1.448226l15.38433 11.877077c.501663-.436895 1.068057-.78749 1.67221-1.040997-1.362042-6.437462-2.303334-13.007071-4.566211-19.166754zm-75.268321-93.8461701-9.674543-3.6057339 57.734392 112.13374 4.579697-7.084714c-1.030297-1.69634-1.237975-3.853847-.36411-5.806391.164524-.37217.36411-.720068.58797-1.040998l-8.808769-17.181848c-1.208307.229236-2.497527.105179-3.705833-.431501-3.150227-1.41047-4.555423-5.099808-3.144833-8.249768.339836-.765915.817225-1.429349 1.386316-1.974119l-11.241566-21.928364c-1.25146.266991-2.594622.153722-3.851476-.404533-3.150228-1.405076-4.560818-5.0971106-3.150228-8.2470711.36411-.8171559.879259-1.5183457 1.499595-2.0819945l-14.159841-27.621486c-1.294614.3128386-2.697113.2130539-4.00791-.3667762-2.451675-1.0949349-3.846082-3.5760682-3.678861-6.1084423zm68.315164 80.4669281c-1.27034.706584-2.772631.962788-4.247952.676918l-4.55812 10.979015c.342533.088997.679672.204963 1.011417.350595 1.399801.631071 2.459767 1.712521 3.077405 2.998935l11.182229-2.893757c-1.55084-3.84306-3.862265-7.982777-6.464979-12.111706zm-19.332903-7.775117c-.089004.382958-.215769.760522-.38299 1.132692-.663489 1.491377-1.842127 2.591705-3.233838 3.190414l8.458145 16.499536c.795649-.706584 1.755821-1.19472 2.780724-1.426652l4.989658-12.017315c-1.693787-1.227082-2.640473-3.214686-2.570348-5.258924zm-553.672709 15.00816 32.560892-38.988852-.234649-.107875-156.359977-52.8858959zm-75.420708-41.084331 67.306445 36.745045-120.033377-89.0160508-7.251457 9.4013376 19.764171 12.1629469-.360334.5852238.416974-.5474674zm629.71645 3.745972c-.520542.113269-1.059965.161813-1.602084.137541l-4.423265 14.56587c.628427.067423 1.256854.234629 1.863705.504318 1.882584.844124 3.144833 2.502708 3.557491 4.371649l10.694052 2.257292c.409961-.817156.976354-1.504862 1.647935-2.046935-2.014743-2.845213-3.975544-5.550188-5.704393-7.998958zm-18.040986-8.719026c-.660792 1.256748-1.704575 2.203354-2.918275 2.756215l11.033887 21.526528c.307471-.186085.631124-.342504.965566-.471954l4.749616-15.652715c-2.030926-1.057179-3.258112-3.09872-3.349814-5.269711zm-625.217126 22.63225 9.268088-4.641337 3.081451-11.936409-42.813965-9.1586176zm121.763305-16.936431-.215769.641858.285893-.612192.760586.355988 23.502639-11.3350032c-11.168743-3.5895526-22.461553-7.0118984-34.593166-10.4989694l-141.08488-29.7385399zm-282.1689513-77.5758685-.0035062.0107875 107.9667645 56.6696236-.313134.5960114.256225.1240567.466871-.3883513.850939 1.022119 18.443395 8.8781422 43.11739 9.2206464-37.790863-28.8593558-72.6478057-44.708943-.269981.1779943-60.0754855-2.7454279zm785.4771283 50.2914929c-.264317.0836034-.531331.1483286-.806436.1968726l-2.198147 12.6915361c.056639.0242719.115976.0485439.172615.0755127 2.424704 1.0841474 3.821809 3.5248274 3.697741 6.0248389l10.23824 2.8236373c.021577-.051241.043154-.102481.06473-.153722.207678-.463864.463904-.8926687.760586-1.2783231l-6.910002-8.697451zm-20.543906-15.4666298c-.544817.6014052-1.192124 1.0841474-1.906859 1.4293486l13.984529 27.2789817c.852287-.4854391 1.815157-.7686119 2.8023-.814459l2.141507-12.3544256c-.304773-.0836034-.60685-.1914788-.90623-.3236261-3.04504-1.3592295-4.463721-4.8543912-3.282386-7.9315359zm-634.249487-15.5906864-7.655215 4.1343232 129.019886 27.1953783c-30.850382-8.4493376-68.292778-17.9073098-121.364671-31.3297015zm635.247418.4611672c-.439629.2642946-.911624.4692578-1.402498.6175864l-1.321585 4.8004535c2.66205 1.4131673 3.93239 4.5226745 3.055828 7.3624934l11.843022 6.7233318-6.071201-6.9309919zm-704.3423179-17.95046 51.2251799 31.5265741 7.217743-9.3554907-54.9709299-24.458041zm693.4109209 25.5853386-10.934094-11.9067429-1.159759 8.3360685.561 1.092238 10.834301 4.0372353c.078216-.2669915.175312-.5312861.291288-.7928839.12137-.2696884.256226-.5231955.407264-.765915zm-20.46569-19.9542448-4.617457 1.5749803 13.879342 4.3177113-.199587.6418584.493572-.4530765 11.754016 12.7994115c1.248764-1.2675355 2.991098-1.9444534 4.763101-1.8581531l1.076148-3.9104818c-.50436-.0863003-1.006023-.2373258-1.4942-.4530766-2.327608-1.0383003-3.705833-3.322561-3.697742-5.7146972l-6.357094.0458471-5.367254-4.859785c-1.777397 1.7772465-4.53924 2.3678641-6.972036 1.2864137-1.556234-.6957961-2.686324-1.9471503-3.260809-3.4169521zm-617.320251-21.2757179-37.4529142 12.648386 51.2686042 17.7913438 34.519265 8.7298135-39.472243-37.2358775c-1.732086 1.1758415-4.016001 1.4509236-6.066885.5393768-1.208846-.5393768-2.161466-1.418561-2.795827-2.4730426zm-50.8160282 12.4757854 54.6618412 24.3231969 7.851025-4.2421986-60.9113207-21.1354799zm536.3661472 24.1910495 42.940729-24.4364659-9.048812-5.8063913zm46.290543-25.0082053 92.632332 24.9758427 1.162455-8.346856-87.375659-27.1953783zm64.800827.9169405-8.30441 2.6914903 21.355738 6.6451221-5.094846-6.9579607c-1.585902.7362493-3.468487.8090652-5.189245.0431502-1.189426-.5312862-2.130719-1.3888953-2.767237-2.4218019zm-16.506329-3.0906291c-1.116605 1.162357-2.64317 1.8392749-4.237164 1.9093939l9.369769 2.9180285zm-49.651146 1.8069123 6.014562-9.9002612-15.675619 4.3150144 8.992174 5.7686349.434235-.2454164zm39.555854-3.3576206-2.632382.8171559 4.458327 1.3888953c-.78486-.5933145-1.402499-1.3538358-1.825945-2.2060512zm-32.092943-12.111706c-1.780094 1.6424023-4.439447 2.1629009-6.791329 1.1165099-.240044-.1051784-.466601-.2265382-.685067-.3559886l-8.215405 7.3328276 15.521883-4.2745612.178009.6499491h.002697l.199587-.6445553 27.82611 8.6623914-6.394854-6.4077964c-1.73694 1.2001134-4.045669 1.4913769-6.114354.5717394-1.154364-.5151048-2.074079-1.3376544-2.707901-2.3274109l-5.898585 1.3781078z" fill="#b13187" fill-rule="evenodd" transform="translate(0 154.97)"/></svg>