<svg width="1000" height="1000" viewBox="0 0 1000 1000" fill="none" xmlns="http://www.w3.org/2000/svg">
<path d="M804.706 398C804.293 399.604 803.412 401.05 802.177 402.154C800.941 403.258 799.406 403.971 797.765 404.202C796.125 404.433 794.452 404.172 792.96 403.452C791.468 402.732 790.222 401.586 789.382 400.158C788.541 398.73 788.143 397.085 788.238 395.43C788.333 393.776 788.917 392.187 789.915 390.865C790.914 389.543 792.282 388.546 793.847 388.002C795.412 387.457 797.103 387.389 798.706 387.807C800.852 388.365 802.689 389.752 803.814 391.663C804.939 393.574 805.26 395.853 804.706 398Z" fill="#F94BA7"/>
<path d="M326.626 171.9C326.216 173.506 325.338 174.954 324.104 176.061C322.87 177.168 321.335 177.884 319.694 178.119C318.053 178.353 316.379 178.096 314.884 177.379C313.389 176.662 312.141 175.518 311.296 174.092C310.452 172.665 310.05 171.02 310.14 169.365C310.231 167.709 310.811 166.118 311.806 164.792C312.801 163.467 314.167 162.466 315.731 161.916C317.296 161.367 318.988 161.294 320.593 161.707C322.744 162.259 324.588 163.643 325.719 165.555C326.851 167.466 327.177 169.748 326.626 171.9Z" fill="#C072CE"/>
<path d="M211.52 413.953C211.106 415.558 210.226 417.004 208.99 418.108C207.755 419.211 206.22 419.924 204.579 420.155C202.938 420.386 201.266 420.125 199.773 419.405C198.281 418.685 197.036 417.539 196.195 416.111C195.355 414.683 194.957 413.038 195.052 411.384C195.147 409.73 195.73 408.141 196.729 406.818C197.727 405.496 199.095 404.5 200.66 403.955C202.225 403.411 203.916 403.343 205.52 403.76C207.665 404.32 209.501 405.707 210.625 407.617C211.75 409.528 212.071 411.806 211.52 413.953Z" fill="#F94BA7"/>
<path d="M365.447 614.28C365.032 615.884 364.151 617.329 362.915 618.432C361.679 619.534 360.144 620.246 358.503 620.476C356.863 620.706 355.191 620.445 353.699 619.724C352.207 619.004 350.963 617.857 350.123 616.429C349.283 615.001 348.885 613.357 348.981 611.703C349.076 610.049 349.659 608.461 350.658 607.138C351.656 605.816 353.024 604.82 354.588 604.276C356.153 603.731 357.844 603.663 359.447 604.08C360.511 604.356 361.51 604.838 362.387 605.5C363.264 606.162 364.003 606.99 364.56 607.937C365.117 608.884 365.482 609.932 365.634 611.02C365.786 612.109 365.723 613.216 365.447 614.28Z" fill="#C072CE"/>
<path d="M702.433 309.947C702.021 311.551 701.143 312.996 699.91 314.101C698.677 315.206 697.144 315.921 695.504 316.155C693.865 316.388 692.193 316.131 690.7 315.414C689.207 314.698 687.96 313.555 687.117 312.13C686.273 310.705 685.871 309.062 685.962 307.409C686.052 305.755 686.63 304.166 687.624 302.841C688.618 301.516 689.982 300.516 691.544 299.966C693.106 299.417 694.796 299.343 696.4 299.753C698.551 300.306 700.395 301.69 701.526 303.601C702.657 305.513 702.984 307.795 702.433 309.947Z" fill="#C072CE"/>
<path d="M631 844.233C630.236 847.206 628.607 849.885 626.321 851.932C624.034 853.978 621.192 855.302 618.154 855.734C615.115 856.166 612.017 855.687 609.251 854.359C606.484 853.03 604.174 850.911 602.611 848.27C601.049 845.628 600.305 842.583 600.472 839.519C600.64 836.454 601.713 833.509 603.555 831.054C605.397 828.599 607.925 826.745 610.82 825.727C613.715 824.709 616.847 824.572 619.82 825.333C621.796 825.84 623.652 826.73 625.284 827.954C626.915 829.178 628.289 830.711 629.327 832.466C630.365 834.222 631.048 836.164 631.335 838.183C631.622 840.203 631.508 842.258 631 844.233Z" fill="#F94BA7"/>
<path d="M550.28 795.18L598.534 692.34L536.36 759.087L550.28 795.18Z" fill="#9E4DB2"/>
<path d="M539.173 798.78L455.273 833.447L523.227 776.933L539.173 798.78Z" fill="#9E4DB2"/>
<path d="M590.313 289.833L515.427 330.747L578.527 252.047L590.313 289.833Z" fill="#9E4DB2"/>
<path d="M592.526 657.727L612.553 543.907L626.02 645.54L592.526 657.727Z" fill="#9E4DB2"/>
<path d="M613.213 489.247L603.646 580.313L578.873 500.973L613.213 489.247Z" fill="#9E4DB2"/>
<path d="M641.74 397.733L638.674 509.64L609.554 440.993L641.74 397.733Z" fill="#9E4DB2"/>
<path d="M590.974 619.153L569.514 716.96L608.82 673.4L590.974 619.153Z" fill="#C072CE"/>
<path d="M557.727 412.22L494.627 408.06L589.274 489.18L557.727 412.22Z" fill="#C072CE"/>
<path d="M627.233 386.387L554.6 427.82L638.846 425.393L627.233 386.387Z" fill="#C072CE"/>
<path d="M576.446 286.367L529.986 408.407L588.233 401.473L576.446 286.367Z" fill="#C072CE"/>
<path d="M596.206 547.773L529.986 645.54L598.453 612.907L596.206 547.773Z" fill="#C072CE"/>
<path d="M458.566 191.373L506.066 182.707L578.953 248.76L458.566 191.373Z" fill="#F94BA7"/>
<path d="M467.326 423.08L535.446 415.8L531.026 457.633L467.326 423.08Z" fill="#F94BA7"/>
<path d="M404.14 796.7L414.54 828.94L498.266 800.86L404.14 796.7Z" fill="#DA5977"/>
<path d="M583.26 489.627L612.153 521.08L649.593 453.473L583.26 489.627Z" fill="#DA5977"/>
<path d="M625.433 445.16L589.607 421.92L573.153 515.36L625.433 445.16Z" fill="#DA5977"/>
<path d="M573.94 442.78L587.54 581.4L545.934 466.993L573.94 442.78Z" fill="#9E4DB2"/>
<path d="M409.906 224.113L342.613 255.527L324.68 256.48L340.42 282.3L418.886 266.007L421.766 280.307L486.566 268.007L479.846 331.02L427.14 438.067L525.306 622.187L518.52 740.773L470.746 785.82L403.526 785.44L381.68 751.773L386.18 738.653L397.253 738.613L392.073 728.713L374.64 738.753L367.873 756.513L393.106 811.873L492.086 831.833L579.706 759.9L627.76 611.893L613.546 530.98L623.386 532.553L660.373 438.513L633.686 379.5L595.886 395.64L591.22 357.26L578.5 337.78L592.026 248.333L460.3 152.84L487.8 149.633L407.54 204.687L409.906 224.113Z" stroke="#41474E" stroke-width="1.54" stroke-miterlimit="10"/>
<path d="M486.566 268.007L592.033 248.333" stroke="#41474E" stroke-width="1.54" stroke-miterlimit="10"/>
<path d="M409.906 224.113L455.16 270.773" stroke="#41474E" stroke-width="1.54" stroke-miterlimit="10"/>
<path d="M455.16 270.773L592.034 248.333" stroke="#41474E" stroke-width="0.62" stroke-miterlimit="10"/>
<path d="M479.847 331.02L549.927 344.46" stroke="#41474E" stroke-width="1.54" stroke-miterlimit="10"/>
<path d="M549.927 344.46L562.713 253.913" stroke="#41474E" stroke-width="1.54" stroke-miterlimit="10"/>
<path d="M562.713 253.913L470.08 161.16" stroke="#41474E" stroke-width="1.54" stroke-miterlimit="10"/>
<path d="M549.927 344.46L535.627 383.213" stroke="#41474E" stroke-width="1.54" stroke-miterlimit="10"/>
<path d="M535.627 383.213L569.414 409.013" stroke="#41474E" stroke-width="1.54" stroke-miterlimit="10"/>
<path d="M569.413 409.013L584.393 520.76" stroke="#41474E" stroke-width="1.54" stroke-miterlimit="10"/>
<path d="M584.26 519.98L613.546 530.98" stroke="#41474E" stroke-width="1.54" stroke-miterlimit="10"/>
<path d="M569.413 409.013L595.886 395.64" stroke="#41474E" stroke-width="1.54" stroke-miterlimit="10"/>
<path d="M589.96 522.107L599.973 629.1" stroke="#41474E" stroke-width="1.54" stroke-miterlimit="10"/>
<path d="M599.974 629.1L627.76 611.893" stroke="#41474E" stroke-width="1.54" stroke-miterlimit="10"/>
<path d="M599.973 629.1L563.42 752.453" stroke="#41474E" stroke-width="1.54" stroke-miterlimit="10"/>
<path d="M563.42 752.453L480.986 819.113" stroke="#41474E" stroke-width="1.54" stroke-miterlimit="10"/>
<path d="M480.987 819.113L394.507 804.347" stroke="#41474E" stroke-width="1.54" stroke-miterlimit="10"/>
<path d="M394.507 804.347L396.773 799.707" stroke="#41474E" stroke-width="1.54" stroke-miterlimit="10"/>
<path d="M396.774 799.707L374.554 752.487" stroke="#41474E" stroke-width="1.54" stroke-miterlimit="10"/>
<path d="M374.554 752.487L392.074 728.713" stroke="#41474E" stroke-width="1.54" stroke-miterlimit="10"/>
<path d="M374.554 752.487L381.68 751.773" stroke="#41474E" stroke-width="1.54" stroke-miterlimit="10"/>
<path d="M403.527 785.44L396.773 799.707" stroke="#41474E" stroke-width="1.54" stroke-miterlimit="10"/>
<path d="M578.927 339.167L578.653 355.093" stroke="#41474E" stroke-width="1.54" stroke-miterlimit="10"/>
<path d="M481.413 820.5L536.18 797.993" stroke="#41474E" stroke-width="1.54" stroke-miterlimit="10"/>
<path d="M536.181 797.993L563.847 753.84" stroke="#41474E" stroke-width="1.54" stroke-miterlimit="10"/>
<path d="M481.413 820.5L438.727 822.613" stroke="#41474E" stroke-width="1.54" stroke-miterlimit="10"/>
<path d="M438.727 822.613L395.5 804.573" stroke="#41474E" stroke-width="1.54" stroke-miterlimit="10"/>
<path d="M600.4 630.487L605.567 682.52" stroke="#41474E" stroke-width="1.54" stroke-miterlimit="10"/>
<path d="M605.567 682.52L563.847 753.84" stroke="#41474E" stroke-width="1.54" stroke-miterlimit="10"/>
<path d="M599.434 628.693L618.62 556.3" stroke="#41474E" stroke-width="1.54" stroke-miterlimit="10"/>
<path d="M618.62 556.3L590.394 523.493" stroke="#41474E" stroke-width="1.54" stroke-miterlimit="10"/>
<path d="M578.653 355.093L571.153 410.507" stroke="#41474E" stroke-width="1.54" stroke-miterlimit="10"/>
<path d="M561.967 255.733L578.927 339.167" stroke="#41474E" stroke-width="1.54" stroke-miterlimit="10"/>
<path d="M428.14 211.727C427.888 212.576 427.39 213.331 426.709 213.897C426.029 214.463 425.195 214.815 424.315 214.908C423.434 215 422.546 214.83 421.762 214.418C420.978 214.006 420.334 213.372 419.91 212.594C419.487 211.816 419.304 210.93 419.383 210.048C419.463 209.167 419.803 208.328 420.359 207.639C420.915 206.95 421.662 206.441 422.508 206.177C423.353 205.912 424.257 205.904 425.107 206.153C425.672 206.32 426.199 206.597 426.657 206.967C427.115 207.337 427.496 207.794 427.778 208.312C428.059 208.829 428.236 209.397 428.299 209.983C428.361 210.569 428.307 211.162 428.14 211.727Z" fill="#41474E"/>
<path d="M347.027 256.787C346.775 257.635 346.277 258.391 345.596 258.957C344.915 259.523 344.082 259.875 343.201 259.967C342.321 260.06 341.432 259.89 340.648 259.478C339.865 259.066 339.22 258.431 338.797 257.654C338.374 256.876 338.19 255.99 338.27 255.108C338.35 254.226 338.689 253.388 339.245 252.699C339.801 252.01 340.549 251.501 341.394 251.236C342.239 250.972 343.144 250.964 343.993 251.213C344.559 251.379 345.086 251.655 345.545 252.025C346.004 252.396 346.385 252.853 346.667 253.37C346.949 253.888 347.126 254.456 347.187 255.043C347.249 255.629 347.195 256.221 347.027 256.787Z" fill="#41474E"/>
<path d="M345.246 283.027C344.995 283.875 344.497 284.631 343.816 285.197C343.135 285.763 342.302 286.115 341.421 286.207C340.54 286.3 339.652 286.13 338.868 285.718C338.084 285.306 337.44 284.671 337.017 283.894C336.593 283.116 336.41 282.23 336.49 281.348C336.57 280.466 336.909 279.628 337.465 278.939C338.021 278.25 338.769 277.741 339.614 277.476C340.459 277.212 341.364 277.204 342.213 277.453C342.778 277.62 343.305 277.896 343.763 278.267C344.222 278.637 344.602 279.094 344.884 279.612C345.166 280.129 345.343 280.697 345.405 281.283C345.467 281.869 345.413 282.461 345.246 283.027Z" fill="#41474E"/>
<path d="M528.4 200C528.148 200.849 527.65 201.604 526.969 202.17C526.288 202.736 525.455 203.088 524.574 203.181C523.694 203.273 522.805 203.103 522.022 202.691C521.238 202.28 520.593 201.645 520.17 200.867C519.747 200.089 519.563 199.203 519.643 198.322C519.723 197.44 520.062 196.601 520.618 195.912C521.174 195.223 521.922 194.714 522.767 194.45C523.612 194.185 524.517 194.177 525.367 194.427C525.932 194.593 526.459 194.869 526.918 195.239C527.377 195.609 527.758 196.066 528.04 196.584C528.322 197.101 528.499 197.67 528.56 198.256C528.622 198.842 528.568 199.435 528.4 200Z" fill="#41474E"/>
<path d="M463.88 153.253C463.629 154.104 463.132 154.862 462.451 155.43C461.769 155.998 460.935 156.352 460.053 156.446C459.171 156.54 458.28 156.371 457.495 155.959C456.709 155.548 456.062 154.912 455.638 154.133C455.213 153.355 455.028 152.467 455.108 151.584C455.187 150.7 455.527 149.86 456.084 149.169C456.64 148.478 457.389 147.968 458.236 147.703C459.083 147.438 459.989 147.43 460.84 147.68C461.981 148.018 462.941 148.795 463.51 149.839C464.08 150.884 464.213 152.111 463.88 153.253Z" fill="#41474E"/>
<path d="M492.794 149.86C492.543 150.711 492.045 151.469 491.363 152.037C490.681 152.605 489.846 152.958 488.964 153.052C488.082 153.145 487.191 152.975 486.405 152.563C485.62 152.15 484.974 151.514 484.55 150.735C484.126 149.955 483.942 149.068 484.022 148.184C484.103 147.3 484.443 146.46 485.001 145.77C485.559 145.08 486.308 144.57 487.156 144.306C488.003 144.042 488.909 144.036 489.76 144.287C490.901 144.625 491.86 145.402 492.429 146.446C492.998 147.491 493.129 148.719 492.794 149.86Z" fill="#41474E"/>
<path d="M328 256.667C327.749 257.518 327.251 258.275 326.569 258.843C325.887 259.411 325.052 259.765 324.17 259.858C323.288 259.952 322.397 259.782 321.612 259.369C320.826 258.957 320.18 258.321 319.756 257.541C319.332 256.762 319.148 255.874 319.228 254.991C319.309 254.107 319.649 253.267 320.207 252.577C320.765 251.886 321.515 251.377 322.362 251.113C323.209 250.849 324.115 250.842 324.966 251.093C326.106 251.433 327.064 252.21 327.633 253.254C328.201 254.299 328.333 255.525 328 256.667Z" fill="#41474E"/>
<path d="M459.087 272C458.836 272.851 458.339 273.609 457.658 274.177C456.976 274.745 456.142 275.099 455.26 275.193C454.378 275.287 453.487 275.118 452.702 274.706C451.916 274.294 451.27 273.659 450.845 272.88C450.42 272.101 450.236 271.214 450.315 270.33C450.394 269.447 450.734 268.607 451.291 267.916C451.847 267.225 452.596 266.715 453.443 266.45C454.29 266.185 455.196 266.177 456.047 266.427C457.189 266.764 458.15 267.54 458.72 268.585C459.29 269.63 459.422 270.858 459.087 272Z" fill="#41474E"/>
<path d="M565.087 254.527C564.836 255.378 564.339 256.135 563.658 256.704C562.977 257.272 562.142 257.625 561.26 257.72C560.378 257.814 559.487 257.644 558.702 257.233C557.916 256.821 557.27 256.186 556.845 255.407C556.42 254.628 556.236 253.741 556.315 252.857C556.394 251.973 556.734 251.133 557.291 250.443C557.847 249.752 558.596 249.242 559.443 248.977C560.29 248.712 561.196 248.703 562.047 248.953C563.188 249.292 564.148 250.068 564.718 251.113C565.287 252.157 565.42 253.385 565.087 254.527Z" fill="#41474E"/>
<path d="M595.767 249.927C595.515 250.776 595.017 251.531 594.336 252.097C593.656 252.663 592.822 253.015 591.942 253.107C591.061 253.2 590.173 253.03 589.389 252.618C588.605 252.206 587.961 251.572 587.537 250.794C587.114 250.016 586.931 249.13 587.01 248.248C587.09 247.367 587.43 246.528 587.986 245.839C588.542 245.15 589.289 244.641 590.134 244.376C590.98 244.112 591.884 244.104 592.734 244.353C593.299 244.52 593.826 244.797 594.284 245.167C594.742 245.537 595.123 245.994 595.405 246.512C595.686 247.029 595.863 247.597 595.926 248.183C595.988 248.769 595.934 249.362 595.767 249.927Z" fill="#41474E"/>
<path d="M582.24 339.373C581.989 340.222 581.491 340.977 580.811 341.544C580.131 342.11 579.298 342.462 578.417 342.556C577.537 342.649 576.649 342.479 575.865 342.068C575.08 341.657 574.436 341.023 574.012 340.246C573.588 339.469 573.404 338.583 573.483 337.702C573.562 336.82 573.9 335.981 574.455 335.292C575.01 334.602 575.757 334.092 576.602 333.827C577.446 333.561 578.35 333.552 579.2 333.8C579.766 333.966 580.293 334.242 580.752 334.612C581.212 334.982 581.593 335.439 581.875 335.957C582.158 336.474 582.335 337.042 582.398 337.629C582.461 338.215 582.407 338.808 582.24 339.373Z" fill="#41474E"/>
<path d="M554.914 345.687C554.662 346.536 554.164 347.291 553.483 347.857C552.802 348.423 551.969 348.775 551.088 348.867C550.207 348.96 549.319 348.79 548.535 348.378C547.751 347.966 547.107 347.331 546.684 346.554C546.26 345.776 546.077 344.89 546.157 344.008C546.237 343.126 546.576 342.288 547.132 341.599C547.688 340.91 548.436 340.401 549.281 340.137C550.126 339.872 551.031 339.864 551.88 340.113C552.445 340.28 552.972 340.557 553.43 340.927C553.889 341.297 554.269 341.754 554.551 342.272C554.833 342.789 555.01 343.357 555.072 343.943C555.134 344.529 555.08 345.122 554.914 345.687Z" fill="#41474E"/>
<path d="M574.56 297.593C574.309 298.444 573.811 299.202 573.13 299.77C572.448 300.338 571.613 300.691 570.731 300.785C569.848 300.878 568.958 300.708 568.172 300.296C567.386 299.883 566.741 299.247 566.316 298.468C565.892 297.688 565.709 296.801 565.789 295.917C565.869 295.033 566.21 294.193 566.767 293.503C567.325 292.813 568.075 292.304 568.922 292.04C569.769 291.776 570.676 291.769 571.527 292.02C572.667 292.358 573.627 293.135 574.196 294.18C574.764 295.224 574.895 296.452 574.56 297.593Z" fill="#41474E"/>
<path d="M636.36 382.193C636.109 383.044 635.611 383.802 634.93 384.37C634.249 384.939 633.414 385.292 632.532 385.387C631.65 385.481 630.76 385.311 629.974 384.9C629.188 384.488 628.542 383.852 628.117 383.074C627.692 382.295 627.508 381.407 627.587 380.524C627.667 379.64 628.006 378.8 628.563 378.109C629.12 377.419 629.869 376.908 630.716 376.643C631.562 376.378 632.468 376.37 633.32 376.62C634.46 376.959 635.42 377.735 635.99 378.779C636.56 379.824 636.692 381.051 636.36 382.193Z" fill="#41474E"/>
<path d="M595.227 358.38C594.975 359.229 594.477 359.984 593.796 360.55C593.115 361.116 592.282 361.468 591.402 361.561C590.521 361.654 589.633 361.483 588.849 361.071C588.065 360.66 587.42 360.025 586.997 359.247C586.574 358.469 586.391 357.584 586.47 356.702C586.55 355.82 586.89 354.981 587.446 354.292C588.002 353.603 588.749 353.094 589.594 352.83C590.44 352.565 591.344 352.557 592.194 352.807C592.759 352.974 593.286 353.25 593.744 353.62C594.202 353.991 594.583 354.448 594.865 354.965C595.146 355.483 595.323 356.051 595.385 356.637C595.448 357.223 595.394 357.815 595.227 358.38Z" fill="#41474E"/>
<path d="M581.126 355.573C580.875 356.422 580.377 357.178 579.696 357.744C579.015 358.31 578.182 358.661 577.301 358.754C576.42 358.847 575.532 358.677 574.748 358.265C573.964 357.853 573.32 357.218 572.897 356.44C572.473 355.663 572.29 354.777 572.37 353.895C572.45 353.013 572.789 352.175 573.345 351.486C573.901 350.797 574.649 350.288 575.494 350.023C576.339 349.759 577.243 349.751 578.093 350C578.659 350.166 579.186 350.442 579.645 350.812C580.104 351.182 580.485 351.639 580.767 352.157C581.048 352.675 581.225 353.243 581.287 353.829C581.349 354.416 581.294 355.008 581.126 355.573Z" fill="#41474E"/>
<path d="M600.767 395.193C600.515 396.042 600.018 396.797 599.337 397.364C598.657 397.93 597.824 398.282 596.944 398.375C596.063 398.469 595.175 398.299 594.391 397.888C593.607 397.477 592.962 396.843 592.538 396.066C592.114 395.288 591.93 394.403 592.009 393.521C592.088 392.64 592.426 391.801 592.981 391.111C593.536 390.422 594.283 389.912 595.128 389.647C595.973 389.381 596.877 389.372 597.727 389.62C598.292 389.786 598.82 390.062 599.279 390.432C599.738 390.802 600.119 391.259 600.402 391.776C600.684 392.294 600.862 392.862 600.924 393.449C600.987 394.035 600.933 394.628 600.767 395.193Z" fill="#41474E"/>
<path d="M540.22 384.247C539.968 385.096 539.47 385.851 538.79 386.417C538.109 386.983 537.275 387.335 536.395 387.428C535.514 387.52 534.626 387.35 533.842 386.938C533.058 386.526 532.414 385.892 531.99 385.114C531.567 384.336 531.384 383.45 531.464 382.568C531.543 381.687 531.883 380.848 532.439 380.159C532.995 379.47 533.743 378.961 534.588 378.697C535.433 378.432 536.337 378.424 537.187 378.673C537.752 378.839 538.28 379.115 538.739 379.486C539.197 379.856 539.578 380.313 539.86 380.831C540.142 381.348 540.319 381.917 540.381 382.503C540.442 383.089 540.388 383.682 540.22 384.247Z" fill="#41474E"/>
<path d="M578 391.46C577.748 392.309 577.251 393.064 576.571 393.63C575.89 394.197 575.057 394.549 574.177 394.642C573.297 394.736 572.408 394.566 571.624 394.155C570.84 393.744 570.196 393.11 569.772 392.333C569.348 391.555 569.164 390.67 569.242 389.788C569.321 388.906 569.66 388.068 570.215 387.378C570.77 386.689 571.517 386.179 572.361 385.913C573.206 385.648 574.11 385.639 574.96 385.887C576.102 386.224 577.063 387 577.633 388.045C578.203 389.09 578.335 390.318 578 391.46Z" fill="#41474E"/>
<path d="M575.413 410.587C575.161 411.436 574.664 412.191 573.984 412.757C573.303 413.324 572.47 413.676 571.59 413.769C570.71 413.862 569.821 413.693 569.037 413.282C568.253 412.871 567.609 412.236 567.185 411.459C566.761 410.682 566.577 409.797 566.656 408.915C566.734 408.033 567.073 407.195 567.628 406.505C568.183 405.815 568.93 405.306 569.774 405.04C570.619 404.775 571.523 404.765 572.373 405.013C572.939 405.18 573.466 405.455 573.925 405.825C574.384 406.196 574.766 406.652 575.048 407.17C575.331 407.688 575.508 408.256 575.571 408.842C575.633 409.428 575.58 410.021 575.413 410.587Z" fill="#41474E"/>
<path d="M590.253 521.553C590.002 522.402 589.504 523.157 588.823 523.724C588.142 524.29 587.309 524.641 586.428 524.734C585.547 524.827 584.659 524.657 583.875 524.245C583.091 523.833 582.447 523.198 582.024 522.42C581.6 521.643 581.417 520.757 581.497 519.875C581.577 518.993 581.916 518.155 582.472 517.466C583.028 516.777 583.776 516.268 584.621 516.003C585.466 515.739 586.37 515.731 587.22 515.98C587.786 516.145 588.314 516.421 588.773 516.791C589.233 517.161 589.614 517.618 589.896 518.136C590.178 518.654 590.355 519.222 590.416 519.809C590.477 520.395 590.422 520.988 590.253 521.553Z" fill="#41474E"/>
<path d="M618 531.92C617.749 532.771 617.251 533.529 616.569 534.097C615.887 534.665 615.052 535.018 614.17 535.112C613.288 535.205 612.397 535.035 611.612 534.623C610.826 534.21 610.18 533.574 609.756 532.795C609.332 532.015 609.148 531.128 609.228 530.244C609.309 529.36 609.649 528.52 610.207 527.83C610.765 527.14 611.515 526.631 612.362 526.367C613.209 526.102 614.115 526.096 614.966 526.347C616.107 526.685 617.066 527.462 617.635 528.506C618.204 529.551 618.335 530.779 618 531.92Z" fill="#41474E"/>
<path d="M627.847 533.487C627.595 534.335 627.097 535.091 626.416 535.657C625.736 536.223 624.902 536.574 624.022 536.667C623.141 536.76 622.253 536.59 621.469 536.178C620.685 535.766 620.041 535.131 619.617 534.354C619.194 533.576 619.011 532.69 619.09 531.808C619.17 530.926 619.51 530.088 620.066 529.399C620.622 528.71 621.369 528.201 622.215 527.936C623.06 527.672 623.964 527.664 624.814 527.913C625.379 528.079 625.907 528.355 626.365 528.725C626.824 529.095 627.205 529.553 627.487 530.07C627.769 530.588 627.946 531.156 628.008 531.743C628.069 532.329 628.015 532.921 627.847 533.487Z" fill="#41474E"/>
<path d="M664.074 440.033C663.822 440.882 663.324 441.638 662.643 442.204C661.962 442.77 661.129 443.121 660.248 443.214C659.368 443.307 658.479 443.137 657.695 442.725C656.911 442.313 656.267 441.678 655.844 440.9C655.421 440.123 655.237 439.237 655.317 438.355C655.397 437.473 655.736 436.635 656.292 435.946C656.848 435.256 657.596 434.748 658.441 434.483C659.286 434.219 660.191 434.211 661.04 434.46C661.606 434.626 662.133 434.902 662.592 435.272C663.051 435.642 663.432 436.099 663.714 436.617C663.996 437.135 664.172 437.703 664.234 438.289C664.296 438.876 664.241 439.468 664.074 440.033Z" fill="#41474E"/>
<path d="M621.866 556.2C621.616 557.051 621.118 557.809 620.437 558.377C619.756 558.945 618.921 559.299 618.039 559.393C617.157 559.487 616.267 559.318 615.481 558.906C614.695 558.494 614.049 557.859 613.624 557.08C613.199 556.301 613.015 555.414 613.094 554.53C613.174 553.647 613.513 552.807 614.07 552.116C614.627 551.425 615.376 550.915 616.222 550.65C617.069 550.385 617.975 550.377 618.826 550.627C619.967 550.965 620.927 551.741 621.497 552.786C622.066 553.83 622.199 555.058 621.866 556.2Z" fill="#41474E"/>
<path d="M597.513 560.427C597.262 561.278 596.764 562.035 596.083 562.603C595.401 563.171 594.566 563.525 593.684 563.618C592.801 563.712 591.911 563.542 591.125 563.129C590.339 562.717 589.694 562.081 589.27 561.301C588.845 560.522 588.662 559.634 588.742 558.751C588.822 557.867 589.163 557.027 589.721 556.337C590.278 555.646 591.028 555.137 591.875 554.873C592.723 554.609 593.629 554.602 594.48 554.853C595.045 555.02 595.572 555.297 596.03 555.667C596.489 556.037 596.869 556.494 597.151 557.012C597.433 557.529 597.61 558.097 597.672 558.683C597.734 559.269 597.68 559.862 597.513 560.427Z" fill="#41474E"/>
<path d="M604.767 630.713C604.515 631.562 604.017 632.317 603.336 632.883C602.655 633.45 601.822 633.801 600.942 633.894C600.061 633.987 599.173 633.816 598.389 633.405C597.605 632.993 596.961 632.358 596.537 631.58C596.114 630.803 595.931 629.917 596.01 629.035C596.09 628.153 596.43 627.315 596.986 626.626C597.542 625.936 598.289 625.427 599.134 625.163C599.98 624.899 600.884 624.891 601.734 625.14C602.299 625.306 602.827 625.582 603.285 625.952C603.744 626.322 604.125 626.779 604.407 627.297C604.689 627.815 604.866 628.383 604.927 628.969C604.989 629.556 604.935 630.148 604.767 630.713Z" fill="#41474E"/>
<path d="M631.96 612.627C631.709 613.477 631.212 614.235 630.531 614.803C629.85 615.372 629.015 615.725 628.133 615.819C627.251 615.914 626.36 615.744 625.575 615.333C624.789 614.921 624.143 614.286 623.718 613.507C623.293 612.728 623.109 611.84 623.188 610.957C623.267 610.073 623.607 609.233 624.164 608.542C624.72 607.852 625.469 607.342 626.316 607.076C627.163 606.811 628.069 606.803 628.92 607.053C630.062 607.39 631.023 608.166 631.593 609.211C632.163 610.256 632.295 611.484 631.96 612.627Z" fill="#41474E"/>
<path d="M614.22 585.393C613.967 586.244 613.469 587 612.787 587.567C612.104 588.134 611.27 588.486 610.387 588.579C609.505 588.672 608.615 588.501 607.83 588.088C607.045 587.675 606.4 587.039 605.976 586.26C605.553 585.481 605.37 584.593 605.45 583.71C605.531 582.826 605.871 581.987 606.429 581.297C606.986 580.607 607.736 580.098 608.583 579.834C609.429 579.57 610.336 579.563 611.186 579.813C611.752 579.98 612.28 580.257 612.738 580.627C613.197 580.998 613.578 581.456 613.86 581.974C614.142 582.492 614.319 583.061 614.38 583.648C614.442 584.235 614.388 584.828 614.22 585.393Z" fill="#41474E"/>
<path d="M609.487 682.087C609.236 682.938 608.738 683.695 608.056 684.263C607.375 684.831 606.54 685.184 605.657 685.278C604.775 685.372 603.885 685.202 603.099 684.789C602.313 684.377 601.667 683.741 601.243 682.961C600.819 682.182 600.635 681.294 600.716 680.411C600.796 679.527 601.137 678.687 601.694 677.997C602.252 677.306 603.002 676.797 603.849 676.533C604.696 676.269 605.603 676.262 606.454 676.513C607.594 676.852 608.554 677.628 609.122 678.673C609.691 679.718 609.822 680.945 609.487 682.087Z" fill="#41474E"/>
<path d="M589.833 678.22C589.582 679.071 589.085 679.829 588.404 680.397C587.723 680.965 586.888 681.319 586.006 681.413C585.124 681.507 584.234 681.338 583.448 680.926C582.662 680.514 582.016 679.879 581.591 679.1C581.166 678.321 580.982 677.434 581.061 676.55C581.14 675.667 581.48 674.827 582.037 674.136C582.593 673.445 583.343 672.935 584.189 672.67C585.036 672.405 585.942 672.397 586.793 672.647C587.935 672.984 588.896 673.76 589.466 674.805C590.036 675.85 590.168 677.078 589.833 678.22Z" fill="#41474E"/>
<path d="M567.907 754.467C567.655 755.315 567.157 756.071 566.476 756.637C565.795 757.203 564.962 757.555 564.081 757.647C563.201 757.74 562.312 757.57 561.528 757.158C560.744 756.746 560.1 756.111 559.677 755.334C559.254 754.556 559.07 753.67 559.15 752.788C559.23 751.906 559.569 751.068 560.125 750.379C560.681 749.69 561.429 749.181 562.274 748.916C563.119 748.652 564.024 748.644 564.873 748.893C565.438 749.06 565.965 749.336 566.424 749.707C566.882 750.077 567.263 750.534 567.544 751.052C567.826 751.569 568.003 752.137 568.065 752.723C568.127 753.309 568.073 753.901 567.907 754.467Z" fill="#41474E"/>
<path d="M584.4 761.647C584.149 762.498 583.651 763.255 582.969 763.823C582.288 764.391 581.453 764.745 580.57 764.838C579.688 764.932 578.798 764.762 578.012 764.349C577.226 763.937 576.58 763.301 576.156 762.521C575.732 761.742 575.548 760.854 575.629 759.971C575.709 759.087 576.05 758.247 576.607 757.557C577.165 756.866 577.915 756.357 578.762 756.093C579.609 755.829 580.516 755.822 581.367 756.073C581.932 756.24 582.459 756.517 582.917 756.887C583.375 757.257 583.756 757.714 584.038 758.232C584.319 758.749 584.496 759.317 584.559 759.903C584.621 760.489 584.567 761.082 584.4 761.647Z" fill="#41474E"/>
<path d="M540.666 797.24C540.415 798.089 539.917 798.844 539.236 799.41C538.555 799.976 537.722 800.328 536.841 800.421C535.96 800.513 535.072 800.343 534.288 799.931C533.504 799.52 532.86 798.885 532.437 798.107C532.013 797.329 531.83 796.443 531.91 795.562C531.99 794.68 532.329 793.841 532.885 793.152C533.441 792.463 534.189 791.954 535.034 791.69C535.879 791.425 536.783 791.417 537.633 791.667C538.198 791.833 538.725 792.11 539.183 792.48C539.642 792.851 540.022 793.308 540.304 793.825C540.586 794.343 540.763 794.911 540.825 795.496C540.887 796.082 540.833 796.675 540.666 797.24Z" fill="#41474E"/>
<path d="M529.273 785.047C529.022 785.898 528.524 786.655 527.842 787.223C527.161 787.791 526.326 788.145 525.444 788.238C524.561 788.332 523.671 788.162 522.885 787.749C522.099 787.337 521.453 786.701 521.029 785.921C520.605 785.142 520.422 784.254 520.502 783.371C520.582 782.487 520.923 781.647 521.48 780.957C522.038 780.267 522.788 779.757 523.635 779.493C524.482 779.229 525.389 779.222 526.24 779.473C527.38 779.812 528.34 780.588 528.909 781.633C529.477 782.678 529.608 783.905 529.273 785.047Z" fill="#41474E"/>
<path d="M485.494 819.44C485.242 820.289 484.744 821.044 484.063 821.61C483.382 822.176 482.549 822.528 481.668 822.621C480.788 822.714 479.899 822.543 479.115 822.131C478.331 821.72 477.687 821.085 477.264 820.307C476.841 819.529 476.657 818.643 476.737 817.762C476.817 816.88 477.156 816.041 477.712 815.352C478.268 814.663 479.016 814.154 479.861 813.89C480.706 813.625 481.611 813.617 482.46 813.867C483.026 814.033 483.553 814.309 484.012 814.679C484.471 815.049 484.852 815.506 485.134 816.024C485.416 816.541 485.592 817.11 485.654 817.696C485.716 818.282 485.661 818.875 485.494 819.44Z" fill="#41474E"/>
<path d="M495.813 831.78C495.561 832.629 495.063 833.384 494.382 833.95C493.701 834.516 492.868 834.868 491.987 834.961C491.107 835.053 490.219 834.883 489.435 834.471C488.651 834.06 488.006 833.425 487.583 832.647C487.16 831.869 486.977 830.984 487.056 830.102C487.136 829.22 487.475 828.381 488.032 827.692C488.588 827.003 489.335 826.494 490.18 826.23C491.025 825.965 491.93 825.957 492.78 826.207C493.345 826.373 493.873 826.649 494.331 827.019C494.79 827.389 495.171 827.846 495.453 828.364C495.735 828.882 495.912 829.45 495.973 830.036C496.035 830.622 495.981 831.215 495.813 831.78Z" fill="#41474E"/>
<path d="M442.494 821.953C442.242 822.802 441.744 823.557 441.063 824.124C440.382 824.69 439.549 825.041 438.668 825.134C437.788 825.227 436.899 825.057 436.115 824.645C435.331 824.233 434.687 823.598 434.264 822.82C433.841 822.043 433.657 821.157 433.737 820.275C433.817 819.393 434.156 818.555 434.712 817.866C435.268 817.176 436.016 816.668 436.861 816.403C437.706 816.139 438.611 816.131 439.46 816.38C440.026 816.546 440.553 816.822 441.012 817.192C441.471 817.562 441.852 818.019 442.134 818.537C442.415 819.055 442.592 819.623 442.654 820.209C442.716 820.796 442.661 821.388 442.494 821.953Z" fill="#41474E"/>
<path d="M399.766 804.933C399.515 805.784 399.017 806.542 398.336 807.11C397.654 807.678 396.819 808.031 395.937 808.125C395.054 808.218 394.164 808.048 393.378 807.636C392.592 807.224 391.947 806.587 391.522 805.808C391.098 805.029 390.915 804.141 390.995 803.257C391.075 802.373 391.416 801.533 391.974 800.843C392.531 800.153 393.281 799.644 394.128 799.38C394.976 799.116 395.882 799.109 396.733 799.36C397.873 799.698 398.833 800.475 399.402 801.52C399.97 802.564 400.101 803.792 399.766 804.933Z" fill="#41474E"/>
<path d="M379.247 754.233C378.995 755.082 378.497 755.837 377.816 756.404C377.135 756.97 376.302 757.321 375.421 757.414C374.54 757.507 373.652 757.337 372.868 756.925C372.084 756.513 371.44 755.878 371.017 755.1C370.593 754.323 370.41 753.437 370.49 752.555C370.57 751.673 370.909 750.835 371.465 750.146C372.021 749.456 372.769 748.948 373.614 748.683C374.459 748.419 375.364 748.411 376.213 748.66C376.778 748.827 377.305 749.103 377.763 749.474C378.222 749.844 378.603 750.301 378.884 750.819C379.166 751.336 379.343 751.904 379.405 752.49C379.467 753.076 379.413 753.668 379.247 754.233Z" fill="#41474E"/>
<path d="M402.407 739.753C402.155 740.602 401.657 741.357 400.976 741.924C400.295 742.49 399.462 742.841 398.581 742.934C397.701 743.027 396.812 742.857 396.028 742.445C395.244 742.033 394.6 741.398 394.177 740.62C393.754 739.843 393.57 738.957 393.65 738.075C393.73 737.193 394.069 736.355 394.625 735.666C395.181 734.976 395.929 734.468 396.774 734.203C397.619 733.939 398.524 733.931 399.373 734.18C399.939 734.346 400.466 734.622 400.925 734.992C401.384 735.362 401.765 735.819 402.047 736.337C402.329 736.855 402.505 737.423 402.567 738.009C402.629 738.596 402.574 739.188 402.407 739.753Z" fill="#41474E"/>
<path d="M390.2 740.307C389.948 741.155 389.45 741.911 388.769 742.477C388.088 743.043 387.255 743.395 386.374 743.487C385.494 743.58 384.605 743.41 383.821 742.998C383.037 742.586 382.393 741.951 381.97 741.174C381.547 740.396 381.363 739.51 381.443 738.628C381.523 737.746 381.862 736.908 382.418 736.219C382.974 735.53 383.722 735.021 384.567 734.756C385.412 734.492 386.317 734.484 387.166 734.733C387.732 734.899 388.259 735.175 388.718 735.545C389.177 735.916 389.558 736.373 389.84 736.89C390.122 737.408 390.298 737.976 390.36 738.563C390.422 739.149 390.367 739.741 390.2 740.307Z" fill="#41474E"/>
<path d="M379.333 740.14C379.083 740.991 378.585 741.749 377.904 742.317C377.223 742.885 376.388 743.239 375.506 743.333C374.624 743.427 373.734 743.258 372.948 742.846C372.162 742.435 371.516 741.799 371.091 741.02C370.666 740.241 370.482 739.354 370.561 738.47C370.64 737.587 370.98 736.747 371.537 736.056C372.093 735.365 372.843 734.855 373.689 734.59C374.536 734.325 375.442 734.317 376.293 734.567C377.434 734.905 378.394 735.681 378.964 736.726C379.533 737.77 379.666 738.998 379.333 740.14Z" fill="#41474E"/>
<path d="M396.933 813.433C396.681 814.282 396.183 815.037 395.502 815.604C394.822 816.17 393.988 816.521 393.108 816.614C392.227 816.707 391.339 816.537 390.555 816.125C389.771 815.713 389.127 815.078 388.703 814.3C388.28 813.523 388.097 812.637 388.176 811.755C388.256 810.873 388.596 810.035 389.152 809.346C389.708 808.656 390.455 808.147 391.301 807.883C392.146 807.619 393.05 807.611 393.9 807.86C394.465 808.026 394.993 808.302 395.451 808.672C395.91 809.042 396.291 809.499 396.573 810.017C396.855 810.535 397.032 811.103 397.094 811.689C397.155 812.276 397.101 812.868 396.933 813.433Z" fill="#41474E"/>
<path d="M444.147 812.707C443.896 813.558 443.399 814.315 442.717 814.884C442.036 815.452 441.202 815.805 440.32 815.9C439.437 815.994 438.547 815.824 437.761 815.413C436.975 815.001 436.329 814.366 435.904 813.587C435.479 812.808 435.295 811.921 435.374 811.037C435.454 810.153 435.793 809.313 436.35 808.622C436.907 807.932 437.656 807.422 438.503 807.157C439.349 806.892 440.256 806.883 441.107 807.133C442.247 807.472 443.207 808.248 443.777 809.293C444.347 810.337 444.48 811.565 444.147 812.707Z" fill="#41474E"/>
<path d="M470.08 161.16L455.16 270.773L421.88 279.327" stroke="#41474E" stroke-width="0.94" stroke-miterlimit="10"/>
<path d="M407.54 204.687L562.713 253.913" stroke="#41474E" stroke-width="0.94" stroke-miterlimit="10"/>
<path d="M409.906 224.113L470.08 161.16" stroke="#41474E" stroke-width="0.94" stroke-miterlimit="10"/>
<path d="M422.787 209.747L455.16 270.773" stroke="#41474E" stroke-width="0.94" stroke-miterlimit="10"/>
<path d="M342.613 255.527L340.42 282.3" stroke="#41474E" stroke-width="0.94" stroke-miterlimit="10"/>
<path d="M342.613 255.527L455.02 269.707" stroke="#41474E" stroke-width="0.94" stroke-miterlimit="10"/>
<path d="M569.413 409.013L660.373 438.513" stroke="#41474E" stroke-width="0.94" stroke-miterlimit="10"/>
<path d="M623.386 532.553L569.413 409.013" stroke="#41474E" stroke-width="0.94" stroke-miterlimit="10"/>
<path d="M548.674 345.147L591.22 357.26" stroke="#41474E" stroke-width="0.94" stroke-miterlimit="10"/>
<path d="M578.227 353.707L535.627 383.213" stroke="#41474E" stroke-width="0.94" stroke-miterlimit="10"/>
<path d="M535.626 383.213L427.14 438.067" stroke="#41474E" stroke-width="0.94" stroke-miterlimit="10"/>
<path d="M562.713 253.913L427.14 438.067" stroke="#41474E" stroke-width="0.94" stroke-miterlimit="10"/>
<path d="M486.566 268.007L502.473 335.733" stroke="#41474E" stroke-width="0.94" stroke-miterlimit="10"/>
<path d="M502.486 335.473L536.126 384.507" stroke="#41474E" stroke-width="0.94" stroke-miterlimit="10"/>
<path d="M525.307 622.187L544.333 628.713" stroke="#41474E" stroke-width="0.94" stroke-miterlimit="10"/>
<path d="M544.333 628.713L599.973 629.1" stroke="#41474E" stroke-width="0.94" stroke-miterlimit="10"/>
<path d="M518.52 740.773L519 755.153" stroke="#41474E" stroke-width="0.94" stroke-miterlimit="10"/>
<path d="M519 755.153L563.42 752.453" stroke="#41474E" stroke-width="0.94" stroke-miterlimit="10"/>
<path d="M470.747 785.82L462.547 797.393" stroke="#41474E" stroke-width="0.94" stroke-miterlimit="10"/>
<path d="M462.547 797.393L480.987 819.113" stroke="#41474E" stroke-width="0.94" stroke-miterlimit="10"/>
<path d="M480.986 819.113L492.086 831.833" stroke="#41474E" stroke-width="0.94" stroke-miterlimit="10"/>
<path d="M563.42 752.453L578.94 760.48" stroke="#41474E" stroke-width="0.94" stroke-miterlimit="10"/>
<path d="M394.506 804.347L393.106 811.873" stroke="#41474E" stroke-width="0.94" stroke-miterlimit="10"/>
<path d="M374.553 752.487L367.873 756.513" stroke="#41474E" stroke-width="0.94" stroke-miterlimit="10"/>
<path d="M395.073 803.187L462.547 797.393" stroke="#41474E" stroke-width="0.94" stroke-miterlimit="10"/>
<path d="M462.547 797.393L519 755.153" stroke="#41474E" stroke-width="0.94" stroke-miterlimit="10"/>
<path d="M544.333 628.713L519 755.153" stroke="#41474E" stroke-width="0.94" stroke-miterlimit="10"/>
<path d="M427.14 438.067L599.973 629.1" stroke="#41474E" stroke-width="0.94" stroke-miterlimit="10"/>
<path d="M535.627 383.213L544.334 628.713" stroke="#41474E" stroke-width="0.94" stroke-miterlimit="10"/>
<path d="M409.907 224.113L340.42 282.3" stroke="#41474E" stroke-width="0.94" stroke-miterlimit="10"/>
<path d="M418.887 266.007L422.787 209.747" stroke="#41474E" stroke-width="0.94" stroke-miterlimit="10"/>
<path d="M524.627 783.653L535.754 796.607" stroke="#41474E" stroke-width="0.94" stroke-miterlimit="10"/>
<path d="M437.233 821.367L439.593 812.027" stroke="#41474E" stroke-width="0.94" stroke-miterlimit="10"/>
<path d="M394.506 804.347L367.873 756.513" stroke="#41474E" stroke-width="0.94" stroke-miterlimit="10"/>
<path d="M605.14 681.133L585.48 677.267" stroke="#41474E" stroke-width="0.94" stroke-miterlimit="10"/>
<path d="M585.48 677.267L544.333 628.713" stroke="#41474E" stroke-width="0.94" stroke-miterlimit="10"/>
<path d="M618.193 554.913L592.713 558.813" stroke="#41474E" stroke-width="0.94" stroke-miterlimit="10"/>
<path d="M627.76 611.893L592.713 558.813" stroke="#41474E" stroke-width="0.94" stroke-miterlimit="10"/>
<path d="M584.394 520.76L660.374 438.513" stroke="#41474E" stroke-width="0.94" stroke-miterlimit="10"/>
<path d="M570.727 409.12L645.087 403.487" stroke="#41474E" stroke-width="0.94" stroke-miterlimit="10"/>
<path d="M608.313 495.567L638.907 493.88" stroke="#41474E" stroke-width="0.94" stroke-miterlimit="10"/>
<path d="M596.167 394.16L537.533 384.2" stroke="#41474E" stroke-width="0.94" stroke-miterlimit="10"/>
<path d="M549.927 344.46L578.5 337.78" stroke="#41474E" stroke-width="0.94" stroke-miterlimit="10"/>
<path d="M548.674 345.147L590.8 249.947" stroke="#41474E" stroke-width="0.94" stroke-miterlimit="10"/>
<path d="M585.48 677.267L542.08 565.147" stroke="#41474E" stroke-width="0.94" stroke-miterlimit="10"/>
<path d="M519 755.153L585.48 677.267" stroke="#41474E" stroke-width="0.94" stroke-miterlimit="10"/>
<path d="M480.986 819.113L519 755.153" stroke="#41474E" stroke-width="0.94" stroke-miterlimit="10"/>
<path d="M423.833 209.487L523.18 198.1" stroke="#41474E" stroke-width="0.94" stroke-miterlimit="10"/>
<path d="M523.18 198.1L561.58 252.9" stroke="#41474E" stroke-width="0.94" stroke-miterlimit="10"/>
<path d="M509.934 199.873L590.907 248.967" stroke="#41474E" stroke-width="0.94" stroke-miterlimit="10"/>
<path d="M542.08 565.147L486.146 408.687" stroke="#41474E" stroke-width="0.94" stroke-miterlimit="10"/>
<path d="M502.473 335.733L486.146 408.687" stroke="#41474E" stroke-width="0.94" stroke-miterlimit="10"/>
<path d="M507.36 199.493L502.474 335.733" stroke="#41474E" stroke-width="0.94" stroke-miterlimit="10"/>
</svg>
