<svg width="1000" height="1000" viewBox="0 0 1000 1000" fill="none" xmlns="http://www.w3.org/2000/svg">
<path d="M418.166 234.567L350.88 265.973L332.946 266.933L348.686 292.753L427.153 276.453L430.033 290.753L494.833 278.46L488.113 341.473L435.406 448.52L533.573 632.64L526.786 751.227L479.013 796.267L411.793 795.893L389.946 762.227L394.446 749.1L405.52 749.06L400.34 739.167L382.906 749.207L376.14 766.967L401.373 822.327L500.346 842.28L587.973 770.347L636.026 622.347L621.813 541.433L631.653 543L668.64 448.967L641.953 389.947L604.153 406.087L599.486 367.713L586.766 348.233L600.3 258.787L468.566 163.287L496.066 160.087L415.806 215.14L418.166 234.567Z" stroke="#41474E" stroke-width="1.54" stroke-miterlimit="10"/>
<path d="M494.833 278.46L600.293 258.787" stroke="#41474E" stroke-width="1.54" stroke-miterlimit="10"/>
<path d="M418.174 234.567L463.427 281.227" stroke="#41474E" stroke-width="1.54" stroke-miterlimit="10"/>
<path d="M463.427 281.227L600.293 258.787" stroke="#41474E" stroke-width="1.54" stroke-miterlimit="10"/>
<path d="M488.113 341.473L558.193 354.913" stroke="#41474E" stroke-width="1.54" stroke-miterlimit="10"/>
<path d="M558.193 354.913L570.973 264.367" stroke="#41474E" stroke-width="1.54" stroke-miterlimit="10"/>
<path d="M570.973 264.367L478.347 171.607" stroke="#41474E" stroke-width="1.54" stroke-miterlimit="10"/>
<path d="M558.194 354.913L543.894 393.66" stroke="#41474E" stroke-width="1.54" stroke-miterlimit="10"/>
<path d="M543.894 393.66L577.68 419.467" stroke="#41474E" stroke-width="1.54" stroke-miterlimit="10"/>
<path d="M577.68 419.467L592.66 531.207" stroke="#41474E" stroke-width="1.54" stroke-miterlimit="10"/>
<path d="M592.527 530.433L621.814 541.433" stroke="#41474E" stroke-width="1.54" stroke-miterlimit="10"/>
<path d="M577.68 419.467L604.153 406.087" stroke="#41474E" stroke-width="1.54" stroke-miterlimit="10"/>
<path d="M598.227 532.553L608.24 639.553" stroke="#41474E" stroke-width="1.54" stroke-miterlimit="10"/>
<path d="M608.24 639.553L636.027 622.347" stroke="#41474E" stroke-width="1.54" stroke-miterlimit="10"/>
<path d="M608.24 639.553L571.687 762.9" stroke="#41474E" stroke-width="1.54" stroke-miterlimit="10"/>
<path d="M571.686 762.9L489.253 829.567" stroke="#41474E" stroke-width="1.54" stroke-miterlimit="10"/>
<path d="M489.253 829.567L402.773 814.793" stroke="#41474E" stroke-width="1.54" stroke-miterlimit="10"/>
<path d="M402.773 814.793L405.04 810.16" stroke="#41474E" stroke-width="1.54" stroke-miterlimit="10"/>
<path d="M405.04 810.16L382.82 762.94" stroke="#41474E" stroke-width="1.54" stroke-miterlimit="10"/>
<path d="M382.82 762.94L400.34 739.167" stroke="#41474E" stroke-width="1.54" stroke-miterlimit="10"/>
<path d="M382.82 762.94L389.947 762.227" stroke="#41474E" stroke-width="1.54" stroke-miterlimit="10"/>
<path d="M411.793 795.893L405.04 810.16" stroke="#41474E" stroke-width="1.54" stroke-miterlimit="10"/>
<path d="M587.193 349.62L586.92 365.547" stroke="#41474E" stroke-width="1.54" stroke-miterlimit="10"/>
<path d="M489.68 830.953L544.446 808.447" stroke="#41474E" stroke-width="1.54" stroke-miterlimit="10"/>
<path d="M544.446 808.447L572.113 764.287" stroke="#41474E" stroke-width="1.54" stroke-miterlimit="10"/>
<path d="M489.68 830.953L446.993 833.06" stroke="#41474E" stroke-width="1.54" stroke-miterlimit="10"/>
<path d="M446.993 833.06L403.767 815.02" stroke="#41474E" stroke-width="1.54" stroke-miterlimit="10"/>
<path d="M608.667 640.94L613.834 692.973" stroke="#41474E" stroke-width="1.54" stroke-miterlimit="10"/>
<path d="M613.833 692.973L572.113 764.287" stroke="#41474E" stroke-width="1.54" stroke-miterlimit="10"/>
<path d="M607.699 639.14L626.886 566.753" stroke="#41474E" stroke-width="1.54" stroke-miterlimit="10"/>
<path d="M626.887 566.753L598.66 533.947" stroke="#41474E" stroke-width="1.54" stroke-miterlimit="10"/>
<path d="M586.92 365.547L579.42 420.96" stroke="#41474E" stroke-width="1.54" stroke-miterlimit="10"/>
<path d="M570.233 266.187L587.193 349.62" stroke="#41474E" stroke-width="1.54" stroke-miterlimit="10"/>
<path d="M436.407 222.18C436.156 223.031 435.658 223.789 434.976 224.357C434.295 224.925 433.46 225.278 432.577 225.372C431.695 225.465 430.804 225.295 430.019 224.883C429.233 224.47 428.587 223.834 428.163 223.055C427.739 222.275 427.555 221.388 427.636 220.504C427.716 219.62 428.056 218.78 428.614 218.09C429.172 217.4 429.922 216.891 430.769 216.627C431.616 216.363 432.523 216.356 433.374 216.607C434.514 216.945 435.474 217.722 436.042 218.767C436.611 219.811 436.742 221.039 436.407 222.18Z" fill="#41474E"/>
<path d="M355.293 267.24C355.042 268.091 354.544 268.848 353.862 269.417C353.18 269.985 352.345 270.338 351.463 270.431C350.581 270.525 349.69 270.355 348.905 269.943C348.119 269.53 347.473 268.894 347.049 268.115C346.625 267.335 346.441 266.448 346.521 265.564C346.602 264.68 346.942 263.84 347.5 263.15C348.058 262.46 348.808 261.95 349.655 261.686C350.502 261.422 351.408 261.415 352.259 261.667C353.4 262.005 354.359 262.782 354.928 263.826C355.497 264.871 355.628 266.099 355.293 267.24Z" fill="#41474E"/>
<path d="M353.513 293.48C353.262 294.331 352.764 295.088 352.083 295.657C351.401 296.225 350.566 296.578 349.684 296.671C348.801 296.765 347.911 296.595 347.125 296.183C346.339 295.77 345.694 295.134 345.27 294.355C344.845 293.575 344.662 292.688 344.742 291.804C344.822 290.92 345.163 290.08 345.721 289.39C346.278 288.7 347.028 288.19 347.875 287.926C348.723 287.662 349.629 287.655 350.48 287.907C351.62 288.245 352.58 289.022 353.149 290.066C353.717 291.111 353.848 292.339 353.513 293.48Z" fill="#41474E"/>
<path d="M536.667 210.427C536.415 211.276 535.917 212.031 535.236 212.597C534.555 213.163 533.722 213.515 532.841 213.607C531.96 213.7 531.072 213.53 530.288 213.118C529.504 212.706 528.86 212.072 528.437 211.294C528.013 210.516 527.83 209.63 527.91 208.748C527.99 207.867 528.329 207.028 528.885 206.339C529.441 205.65 530.189 205.141 531.034 204.876C531.879 204.612 532.784 204.604 533.633 204.853C534.198 205.02 534.725 205.297 535.183 205.667C535.642 206.037 536.022 206.494 536.304 207.012C536.586 207.529 536.763 208.097 536.825 208.683C536.887 209.269 536.833 209.862 536.667 210.427Z" fill="#41474E"/>
<path d="M472.146 163.7C471.895 164.549 471.398 165.304 470.717 165.87C470.037 166.437 469.204 166.789 468.323 166.882C467.443 166.975 466.555 166.806 465.771 166.395C464.987 165.984 464.342 165.349 463.918 164.572C463.494 163.795 463.31 162.91 463.389 162.028C463.468 161.146 463.806 160.308 464.361 159.618C464.916 158.928 465.663 158.419 466.508 158.153C467.352 157.888 468.257 157.878 469.106 158.127C469.672 158.293 470.2 158.569 470.659 158.939C471.118 159.309 471.499 159.765 471.782 160.283C472.064 160.801 472.242 161.369 472.304 161.955C472.367 162.541 472.313 163.134 472.146 163.7Z" fill="#41474E"/>
<path d="M501.06 160.307C500.81 161.155 500.314 161.911 499.635 162.478C498.956 163.045 498.124 163.398 497.244 163.493C496.365 163.588 495.477 163.421 494.692 163.012C493.908 162.603 493.262 161.971 492.836 161.195C492.41 160.42 492.224 159.535 492.3 158.654C492.376 157.773 492.711 156.933 493.263 156.242C493.816 155.551 494.56 155.039 495.403 154.77C496.246 154.502 497.15 154.489 498 154.733C498.566 154.899 499.093 155.175 499.552 155.545C500.011 155.916 500.392 156.373 500.674 156.89C500.955 157.408 501.132 157.976 501.194 158.563C501.256 159.149 501.201 159.741 501.034 160.307" fill="#41474E"/>
<path d="M336.26 267.14C336.008 267.989 335.51 268.744 334.83 269.31C334.149 269.876 333.315 270.228 332.435 270.321C331.554 270.413 330.666 270.243 329.882 269.831C329.098 269.419 328.454 268.785 328.03 268.007C327.607 267.229 327.424 266.343 327.504 265.462C327.583 264.58 327.923 263.741 328.479 263.052C329.035 262.363 329.783 261.854 330.628 261.59C331.473 261.325 332.377 261.317 333.227 261.567C333.792 261.733 334.319 262.01 334.777 262.38C335.235 262.75 335.616 263.207 335.898 263.725C336.18 264.242 336.357 264.81 336.419 265.396C336.481 265.982 336.427 266.575 336.26 267.14Z" fill="#41474E"/>
<path d="M465.793 281.56C465.541 282.409 465.044 283.164 464.364 283.73C463.683 284.297 462.85 284.649 461.97 284.742C461.09 284.836 460.201 284.666 459.417 284.255C458.633 283.844 457.989 283.21 457.565 282.432C457.141 281.655 456.957 280.77 457.035 279.888C457.114 279.006 457.453 278.168 458.008 277.478C458.563 276.788 459.31 276.279 460.154 276.013C460.999 275.748 461.903 275.739 462.753 275.987C463.894 276.324 464.856 277.1 465.426 278.145C465.996 279.189 466.128 280.418 465.793 281.56Z" fill="#41474E"/>
<path d="M573.334 264.973C573.082 265.822 572.585 266.577 571.905 267.144C571.224 267.71 570.391 268.062 569.511 268.155C568.631 268.249 567.742 268.079 566.958 267.668C566.174 267.257 565.53 266.623 565.106 265.846C564.682 265.069 564.498 264.183 564.576 263.301C564.655 262.42 564.994 261.581 565.549 260.891C566.104 260.202 566.851 259.692 567.695 259.427C568.54 259.161 569.444 259.152 570.294 259.4C570.86 259.566 571.387 259.842 571.846 260.212C572.305 260.582 572.687 261.039 572.969 261.557C573.251 262.074 573.429 262.642 573.492 263.229C573.554 263.815 573.501 264.408 573.334 264.973Z" fill="#41474E"/>
<path d="M604.034 260.38C603.782 261.229 603.284 261.984 602.603 262.55C601.922 263.116 601.089 263.468 600.208 263.561C599.328 263.654 598.439 263.483 597.655 263.072C596.871 262.66 596.227 262.025 595.804 261.247C595.381 260.469 595.197 259.584 595.277 258.702C595.357 257.82 595.696 256.981 596.252 256.292C596.808 255.603 597.556 255.094 598.401 254.83C599.246 254.565 600.151 254.557 601 254.807C602.141 255.145 603.1 255.922 603.669 256.966C604.238 258.011 604.369 259.239 604.034 260.38Z" fill="#41474E"/>
<path d="M590.507 349.827C590.255 350.675 589.758 351.431 589.078 351.997C588.397 352.563 587.564 352.915 586.684 353.009C585.803 353.102 584.915 352.933 584.131 352.521C583.347 352.11 582.702 351.476 582.278 350.699C581.855 349.922 581.67 349.036 581.749 348.155C581.828 347.273 582.166 346.434 582.722 345.745C583.277 345.055 584.024 344.545 584.868 344.28C585.713 344.014 586.617 344.005 587.467 344.253C588.608 344.59 589.57 345.366 590.14 346.411C590.71 347.456 590.842 348.684 590.507 349.827Z" fill="#41474E"/>
<path d="M563.179 356.14C562.928 356.991 562.43 357.749 561.749 358.317C561.067 358.885 560.232 359.238 559.35 359.332C558.467 359.425 557.577 359.255 556.791 358.843C556.005 358.43 555.36 357.794 554.936 357.015C554.511 356.235 554.328 355.348 554.408 354.464C554.488 353.58 554.829 352.74 555.387 352.05C555.944 351.36 556.694 350.851 557.541 350.587C558.389 350.322 559.295 350.316 560.146 350.567C561.285 350.907 562.244 351.684 562.812 352.728C563.381 353.772 563.513 354.999 563.179 356.14Z" fill="#41474E"/>
<path d="M582.827 308.04C582.575 308.889 582.077 309.644 581.396 310.21C580.715 310.776 579.882 311.128 579.001 311.221C578.121 311.314 577.232 311.143 576.448 310.731C575.664 310.32 575.02 309.685 574.597 308.907C574.174 308.129 573.99 307.244 574.07 306.362C574.15 305.48 574.489 304.641 575.045 303.952C575.601 303.263 576.349 302.754 577.194 302.49C578.039 302.225 578.944 302.217 579.793 302.467C580.359 302.633 580.886 302.909 581.345 303.279C581.804 303.649 582.185 304.106 582.467 304.624C582.748 305.142 582.925 305.71 582.987 306.296C583.049 306.882 582.994 307.475 582.827 308.04Z" fill="#41474E"/>
<path d="M644.627 392.667C644.375 393.515 643.878 394.271 643.198 394.837C642.517 395.403 641.684 395.755 640.804 395.849C639.924 395.942 639.035 395.773 638.251 395.361C637.467 394.95 636.823 394.316 636.399 393.539C635.975 392.762 635.791 391.877 635.869 390.995C635.948 390.113 636.287 389.274 636.842 388.585C637.397 387.895 638.144 387.385 638.988 387.12C639.833 386.854 640.737 386.845 641.587 387.093C642.153 387.259 642.68 387.535 643.139 387.905C643.598 388.275 643.98 388.732 644.262 389.25C644.544 389.767 644.722 390.336 644.785 390.922C644.847 391.508 644.794 392.101 644.627 392.667Z" fill="#41474E"/>
<path d="M603.494 368.827C603.242 369.676 602.744 370.431 602.063 370.997C601.382 371.563 600.549 371.915 599.668 372.007C598.788 372.1 597.899 371.93 597.115 371.518C596.331 371.106 595.687 370.471 595.264 369.694C594.841 368.916 594.657 368.03 594.737 367.148C594.817 366.266 595.156 365.428 595.712 364.739C596.268 364.05 597.016 363.541 597.861 363.276C598.706 363.012 599.611 363.004 600.46 363.253C601.026 363.419 601.553 363.695 602.012 364.065C602.471 364.436 602.852 364.893 603.134 365.41C603.416 365.928 603.592 366.496 603.654 367.083C603.716 367.669 603.661 368.262 603.494 368.827Z" fill="#41474E"/>
<path d="M589.393 366C589.142 366.851 588.644 367.608 587.963 368.177C587.281 368.745 586.446 369.098 585.564 369.191C584.681 369.285 583.791 369.115 583.005 368.703C582.219 368.29 581.574 367.654 581.149 366.875C580.725 366.095 580.542 365.208 580.622 364.324C580.702 363.44 581.043 362.6 581.6 361.91C582.158 361.22 582.908 360.71 583.755 360.446C584.602 360.182 585.509 360.175 586.36 360.427C586.925 360.593 587.452 360.87 587.91 361.24C588.368 361.61 588.749 362.067 589.031 362.585C589.313 363.103 589.49 363.671 589.552 364.256C589.614 364.842 589.56 365.435 589.393 366Z" fill="#41474E"/>
<path d="M609.033 405.647C608.783 406.498 608.285 407.255 607.604 407.823C606.923 408.392 606.088 408.745 605.206 408.84C604.324 408.934 603.434 408.764 602.648 408.353C601.862 407.941 601.216 407.306 600.791 406.527C600.366 405.748 600.182 404.861 600.261 403.977C600.341 403.093 600.68 402.253 601.237 401.562C601.794 400.872 602.543 400.362 603.389 400.097C604.236 399.831 605.142 399.823 605.993 400.073C607.134 400.412 608.094 401.188 608.664 402.232C609.233 403.277 609.366 404.504 609.033 405.647Z" fill="#41474E"/>
<path d="M548.487 394.7C548.235 395.549 547.737 396.304 547.056 396.87C546.375 397.436 545.542 397.788 544.661 397.881C543.781 397.973 542.892 397.803 542.108 397.391C541.325 396.98 540.68 396.345 540.257 395.567C539.834 394.789 539.65 393.903 539.73 393.022C539.81 392.14 540.149 391.301 540.705 390.612C541.261 389.923 542.009 389.414 542.854 389.15C543.699 388.885 544.604 388.877 545.453 389.127C546.019 389.293 546.545 389.57 547.004 389.94C547.462 390.311 547.843 390.767 548.124 391.285C548.406 391.803 548.583 392.371 548.645 392.956C548.707 393.542 548.654 394.135 548.487 394.7Z" fill="#41474E"/>
<path d="M586.293 401.913C586.042 402.764 585.545 403.522 584.864 404.09C584.183 404.659 583.348 405.012 582.466 405.106C581.584 405.201 580.694 405.031 579.908 404.619C579.122 404.208 578.476 403.572 578.051 402.794C577.626 402.015 577.442 401.127 577.521 400.244C577.6 399.36 577.94 398.52 578.497 397.829C579.053 397.139 579.802 396.628 580.649 396.363C581.496 396.098 582.402 396.09 583.253 396.34C584.394 396.679 585.354 397.455 585.924 398.499C586.493 399.544 586.626 400.771 586.293 401.913Z" fill="#41474E"/>
<path d="M583.681 421.04C583.427 421.889 582.928 422.644 582.246 423.21C581.564 423.775 580.729 424.125 579.848 424.216C578.966 424.307 578.078 424.135 577.294 423.721C576.511 423.307 575.868 422.67 575.446 421.891C575.025 421.111 574.844 420.224 574.927 419.342C575.009 418.46 575.352 417.622 575.911 416.935C576.469 416.247 577.22 415.74 578.066 415.479C578.913 415.218 579.818 415.214 580.667 415.467C581.809 415.804 582.77 416.58 583.34 417.625C583.91 418.67 584.042 419.898 583.707 421.04" fill="#41474E"/>
<path d="M598.52 532C598.269 532.851 597.771 533.608 597.089 534.177C596.408 534.745 595.573 535.098 594.69 535.191C593.808 535.285 592.918 535.115 592.132 534.703C591.346 534.29 590.7 533.654 590.276 532.875C589.852 532.095 589.669 531.208 589.749 530.324C589.829 529.44 590.17 528.6 590.727 527.91C591.285 527.22 592.035 526.71 592.882 526.446C593.729 526.182 594.636 526.175 595.487 526.427C596.052 526.593 596.579 526.87 597.037 527.24C597.495 527.61 597.876 528.067 598.158 528.585C598.44 529.103 598.616 529.671 598.679 530.256C598.741 530.842 598.687 531.435 598.52 532Z" fill="#41474E"/>
<path d="M626.273 542.367C626.021 543.216 625.523 543.971 624.842 544.537C624.161 545.103 623.328 545.455 622.447 545.547C621.567 545.64 620.678 545.47 619.895 545.058C619.111 544.646 618.466 544.011 618.043 543.234C617.62 542.456 617.436 541.57 617.516 540.688C617.596 539.806 617.935 538.968 618.491 538.279C619.047 537.59 619.795 537.081 620.64 536.816C621.485 536.552 622.39 536.544 623.24 536.793C623.805 536.959 624.332 537.235 624.791 537.605C625.25 537.976 625.631 538.433 625.913 538.95C626.195 539.468 626.372 540.036 626.433 540.623C626.495 541.209 626.441 541.802 626.273 542.367Z" fill="#41474E"/>
<path d="M636.114 543.94C635.863 544.791 635.365 545.548 634.683 546.116C634.002 546.685 633.167 547.038 632.284 547.131C631.402 547.225 630.512 547.055 629.726 546.642C628.94 546.23 628.294 545.594 627.87 544.815C627.446 544.035 627.262 543.147 627.343 542.264C627.423 541.38 627.763 540.54 628.321 539.85C628.879 539.16 629.629 538.65 630.476 538.386C631.323 538.122 632.23 538.115 633.081 538.367C633.646 538.533 634.173 538.81 634.631 539.18C635.089 539.55 635.47 540.007 635.752 540.525C636.033 541.042 636.21 541.61 636.273 542.196C636.335 542.782 636.281 543.375 636.114 543.94Z" fill="#41474E"/>
<path d="M672.34 450.487C672.088 451.335 671.59 452.091 670.91 452.657C670.229 453.223 669.395 453.575 668.515 453.667C667.634 453.76 666.746 453.59 665.962 453.178C665.178 452.766 664.534 452.131 664.11 451.354C663.687 450.576 663.504 449.69 663.584 448.808C663.663 447.926 664.003 447.088 664.559 446.399C665.115 445.71 665.863 445.201 666.708 444.936C667.553 444.672 668.457 444.664 669.307 444.913C669.872 445.08 670.399 445.356 670.857 445.727C671.315 446.097 671.696 446.554 671.978 447.072C672.26 447.589 672.437 448.157 672.499 448.743C672.561 449.329 672.507 449.921 672.34 450.487Z" fill="#41474E"/>
<path d="M630.133 566.667C629.881 567.515 629.384 568.271 628.703 568.837C628.023 569.403 627.19 569.755 626.31 569.849C625.429 569.942 624.541 569.773 623.757 569.361C622.973 568.95 622.328 568.316 621.904 567.539C621.481 566.762 621.296 565.877 621.375 564.995C621.454 564.113 621.792 563.274 622.348 562.585C622.903 561.895 623.65 561.385 624.494 561.12C625.339 560.854 626.243 560.845 627.093 561.093C627.659 561.259 628.186 561.535 628.645 561.905C629.104 562.275 629.486 562.732 629.768 563.25C630.05 563.767 630.228 564.336 630.29 564.922C630.353 565.508 630.299 566.101 630.133 566.667Z" fill="#41474E"/>
<path d="M605.78 570.873C605.528 571.722 605.03 572.477 604.349 573.043C603.668 573.61 602.835 573.961 601.954 574.054C601.074 574.147 600.185 573.976 599.401 573.565C598.617 573.153 597.973 572.518 597.55 571.74C597.127 570.963 596.943 570.077 597.023 569.195C597.103 568.313 597.442 567.475 597.998 566.785C598.554 566.096 599.302 565.587 600.147 565.323C600.992 565.059 601.897 565.051 602.746 565.3C603.312 565.466 603.839 565.742 604.298 566.112C604.757 566.482 605.138 566.939 605.42 567.457C605.702 567.975 605.878 568.543 605.94 569.129C606.002 569.715 605.947 570.308 605.78 570.873Z" fill="#41474E"/>
<path d="M613.033 641.167C612.782 642.018 612.284 642.775 611.602 643.343C610.92 643.911 610.086 644.265 609.203 644.358C608.321 644.452 607.43 644.282 606.645 643.869C605.859 643.457 605.213 642.821 604.789 642.041C604.365 641.262 604.181 640.374 604.262 639.491C604.342 638.607 604.682 637.767 605.24 637.077C605.798 636.386 606.548 635.877 607.395 635.613C608.242 635.349 609.149 635.342 610 635.593C610.565 635.76 611.092 636.037 611.55 636.407C612.008 636.777 612.389 637.234 612.671 637.752C612.952 638.269 613.129 638.837 613.191 639.423C613.254 640.009 613.2 640.602 613.033 641.167Z" fill="#41474E"/>
<path d="M640.227 623.08C639.975 623.93 639.477 624.687 638.795 625.254C638.114 625.821 637.279 626.174 636.397 626.267C635.515 626.361 634.626 626.191 633.84 625.778C633.055 625.366 632.41 624.731 631.985 623.952C631.561 623.173 631.377 622.286 631.457 621.403C631.536 620.52 631.876 619.68 632.432 618.99C632.989 618.299 633.738 617.789 634.584 617.524C635.43 617.259 636.336 617.251 637.187 617.5C637.754 617.666 638.282 617.942 638.741 618.313C639.201 618.683 639.583 619.141 639.865 619.659C640.147 620.177 640.325 620.746 640.387 621.333C640.449 621.921 640.395 622.514 640.227 623.08Z" fill="#41474E"/>
<path d="M622.487 595.84C622.235 596.689 621.737 597.444 621.056 598.01C620.375 598.576 619.542 598.928 618.661 599.021C617.781 599.114 616.892 598.943 616.108 598.531C615.325 598.12 614.68 597.485 614.257 596.707C613.834 595.929 613.65 595.044 613.73 594.162C613.81 593.28 614.149 592.441 614.705 591.752C615.261 591.063 616.009 590.554 616.854 590.29C617.699 590.025 618.604 590.017 619.453 590.267C620.019 590.433 620.546 590.709 621.005 591.079C621.464 591.449 621.845 591.906 622.127 592.424C622.409 592.942 622.585 593.51 622.647 594.096C622.709 594.682 622.654 595.275 622.487 595.84Z" fill="#41474E"/>
<path d="M617.753 692.533C617.501 693.382 617.004 694.137 616.323 694.704C615.642 695.27 614.809 695.621 613.928 695.714C613.047 695.807 612.159 695.637 611.375 695.225C610.591 694.813 609.947 694.178 609.524 693.4C609.1 692.623 608.917 691.737 608.997 690.855C609.077 689.973 609.416 689.135 609.972 688.446C610.528 687.757 611.276 687.248 612.121 686.983C612.966 686.719 613.87 686.711 614.72 686.96C615.286 687.126 615.813 687.402 616.272 687.772C616.731 688.142 617.112 688.599 617.393 689.117C617.675 689.635 617.852 690.203 617.914 690.789C617.976 691.376 617.921 691.968 617.753 692.533Z" fill="#41474E"/>
<path d="M598.093 688.667C597.84 689.515 597.342 690.269 596.66 690.834C595.979 691.399 595.146 691.75 594.265 691.842C593.385 691.934 592.497 691.763 591.714 691.35C590.931 690.938 590.287 690.303 589.864 689.525C589.442 688.748 589.259 687.862 589.339 686.981C589.419 686.099 589.758 685.261 590.314 684.572C590.87 683.884 591.617 683.375 592.462 683.11C593.306 682.846 594.211 682.838 595.06 683.087C595.626 683.252 596.154 683.529 596.614 683.899C597.073 684.27 597.454 684.728 597.736 685.246C598.018 685.765 598.195 686.334 598.256 686.921C598.317 687.508 598.262 688.101 598.093 688.667Z" fill="#41474E"/>
<path d="M576.173 764.92C575.921 765.771 575.423 766.529 574.742 767.097C574.06 767.665 573.225 768.018 572.343 768.112C571.46 768.205 570.57 768.035 569.784 767.623C568.999 767.21 568.353 766.574 567.929 765.795C567.504 765.015 567.321 764.128 567.401 763.244C567.482 762.36 567.822 761.52 568.38 760.83C568.938 760.14 569.687 759.63 570.535 759.366C571.382 759.102 572.288 759.096 573.139 759.347C573.704 759.514 574.231 759.79 574.689 760.16C575.148 760.531 575.529 760.988 575.81 761.505C576.092 762.023 576.269 762.591 576.331 763.177C576.393 763.763 576.339 764.355 576.173 764.92Z" fill="#41474E"/>
<path d="M592.666 772.093C592.415 772.943 591.918 773.699 591.238 774.266C590.557 774.833 589.724 775.186 588.843 775.28C587.962 775.373 587.074 775.204 586.289 774.793C585.505 774.381 584.86 773.746 584.436 772.969C584.012 772.191 583.828 771.305 583.908 770.422C583.987 769.54 584.327 768.701 584.883 768.012C585.439 767.322 586.187 766.813 587.033 766.549C587.878 766.285 588.783 766.277 589.633 766.527C590.772 766.865 591.73 767.641 592.299 768.684C592.867 769.727 592.999 770.953 592.666 772.093Z" fill="#41474E"/>
<path d="M548.926 807.693C548.675 808.544 548.178 809.302 547.497 809.87C546.815 810.439 545.981 810.792 545.099 810.886C544.217 810.981 543.326 810.811 542.54 810.399C541.755 809.988 541.108 809.352 540.684 808.574C540.259 807.795 540.074 806.907 540.154 806.024C540.233 805.14 540.573 804.3 541.129 803.609C541.686 802.919 542.435 802.408 543.282 802.143C544.129 801.878 545.035 801.87 545.886 802.12C547.027 802.459 547.987 803.235 548.556 804.279C549.126 805.324 549.259 806.551 548.926 807.693Z" fill="#41474E"/>
<path d="M537.54 795.493C537.288 796.342 536.79 797.097 536.109 797.663C535.428 798.23 534.595 798.581 533.714 798.674C532.833 798.767 531.945 798.597 531.161 798.185C530.377 797.773 529.733 797.138 529.31 796.36C528.886 795.583 528.703 794.697 528.783 793.815C528.863 792.933 529.202 792.095 529.758 791.406C530.314 790.716 531.062 790.208 531.907 789.943C532.752 789.679 533.657 789.671 534.506 789.92C535.072 790.086 535.599 790.362 536.058 790.732C536.517 791.102 536.898 791.559 537.18 792.077C537.461 792.595 537.638 793.163 537.7 793.749C537.762 794.336 537.707 794.928 537.54 795.493Z" fill="#41474E"/>
<path d="M493.761 829.893C493.509 830.744 493.011 831.502 492.33 832.07C491.648 832.638 490.813 832.991 489.931 833.085C489.048 833.178 488.158 833.008 487.372 832.596C486.587 832.183 485.941 831.547 485.517 830.768C485.092 829.989 484.909 829.101 484.989 828.217C485.069 827.333 485.41 826.493 485.968 825.803C486.525 825.113 487.275 824.604 488.122 824.34C488.97 824.076 489.876 824.069 490.727 824.32C491.866 824.66 492.825 825.437 493.393 826.481C493.962 827.525 494.094 828.752 493.761 829.893Z" fill="#41474E"/>
<path d="M504.08 842.233C503.829 843.084 503.331 843.842 502.649 844.41C501.967 844.978 501.133 845.331 500.25 845.425C499.368 845.518 498.477 845.348 497.692 844.936C496.906 844.524 496.26 843.887 495.836 843.108C495.412 842.329 495.228 841.441 495.308 840.557C495.389 839.673 495.729 838.833 496.287 838.143C496.845 837.453 497.595 836.944 498.442 836.68C499.289 836.416 500.195 836.409 501.047 836.66C502.187 836.998 503.146 837.775 503.715 838.82C504.284 839.864 504.415 841.092 504.08 842.233Z" fill="#41474E"/>
<path d="M450.76 832.407C450.509 833.258 450.011 834.015 449.33 834.583C448.648 835.151 447.813 835.505 446.931 835.598C446.048 835.692 445.158 835.522 444.372 835.109C443.587 834.697 442.941 834.061 442.517 833.281C442.092 832.502 441.909 831.614 441.989 830.731C442.069 829.847 442.41 829.007 442.968 828.317C443.525 827.626 444.275 827.117 445.122 826.853C445.97 826.589 446.876 826.582 447.727 826.833C448.867 827.172 449.827 827.948 450.396 828.993C450.964 830.038 451.096 831.265 450.76 832.407Z" fill="#41474E"/>
<path d="M408.034 815.38C407.782 816.229 407.284 816.984 406.603 817.55C405.922 818.116 405.089 818.468 404.208 818.561C403.328 818.654 402.439 818.483 401.655 818.072C400.871 817.66 400.227 817.025 399.804 816.247C399.381 815.469 399.197 814.584 399.277 813.702C399.357 812.82 399.696 811.981 400.252 811.292C400.808 810.603 401.556 810.094 402.401 809.83C403.246 809.565 404.151 809.557 405 809.807C405.566 809.973 406.093 810.249 406.552 810.619C407.011 810.989 407.392 811.446 407.674 811.964C407.956 812.482 408.132 813.05 408.194 813.636C408.256 814.222 408.201 814.815 408.034 815.38Z" fill="#41474E"/>
<path d="M387.513 764.667C387.262 765.518 386.764 766.275 386.083 766.843C385.401 767.411 384.566 767.765 383.684 767.858C382.801 767.952 381.911 767.782 381.125 767.369C380.339 766.957 379.694 766.321 379.27 765.541C378.845 764.762 378.662 763.874 378.742 762.991C378.822 762.107 379.163 761.267 379.721 760.577C380.278 759.886 381.028 759.377 381.875 759.113C382.723 758.849 383.629 758.842 384.48 759.093C385.62 759.432 386.58 760.208 387.149 761.253C387.717 762.298 387.848 763.525 387.513 764.667Z" fill="#41474E"/>
<path d="M410.667 750.207C410.416 751.058 409.918 751.815 409.236 752.383C408.554 752.951 407.719 753.304 406.837 753.398C405.955 753.492 405.064 753.322 404.279 752.909C403.493 752.497 402.847 751.861 402.423 751.081C401.999 750.302 401.815 749.414 401.895 748.53C401.976 747.647 402.316 746.807 402.874 746.116C403.432 745.426 404.182 744.917 405.029 744.653C405.876 744.389 406.782 744.382 407.633 744.633C408.773 744.973 409.731 745.75 410.3 746.794C410.868 747.838 411 749.065 410.667 750.207Z" fill="#41474E"/>
<path d="M398.467 750.76C398.215 751.611 397.717 752.369 397.036 752.937C396.354 753.505 395.519 753.858 394.637 753.952C393.754 754.045 392.864 753.875 392.078 753.463C391.293 753.05 390.647 752.414 390.223 751.635C389.798 750.855 389.615 749.968 389.695 749.084C389.775 748.2 390.116 747.36 390.674 746.67C391.231 745.98 391.981 745.471 392.829 745.207C393.676 744.943 394.582 744.936 395.433 745.187C396.574 745.525 397.533 746.302 398.102 747.347C398.67 748.391 398.802 749.619 398.467 750.76Z" fill="#41474E"/>
<path d="M387.613 750.587C387.362 751.435 386.864 752.191 386.184 752.757C385.504 753.323 384.671 753.675 383.79 753.769C382.91 753.862 382.022 753.693 381.238 753.281C380.454 752.87 379.809 752.236 379.385 751.459C378.961 750.682 378.777 749.796 378.856 748.915C378.935 748.033 379.273 747.194 379.828 746.505C380.383 745.815 381.13 745.305 381.975 745.04C382.819 744.774 383.723 744.765 384.573 745.013C385.139 745.179 385.666 745.455 386.125 745.825C386.584 746.195 386.966 746.652 387.248 747.17C387.531 747.687 387.708 748.256 387.771 748.842C387.834 749.428 387.78 750.021 387.613 750.587Z" fill="#41474E"/>
<path d="M405.201 823.887C404.949 824.736 404.451 825.491 403.77 826.057C403.089 826.623 402.256 826.975 401.375 827.067C400.495 827.16 399.606 826.99 398.822 826.578C398.038 826.166 397.394 825.531 396.971 824.754C396.548 823.976 396.364 823.09 396.444 822.208C396.524 821.326 396.863 820.488 397.419 819.799C397.975 819.11 398.723 818.601 399.568 818.336C400.413 818.072 401.318 818.064 402.167 818.313C402.732 818.48 403.259 818.757 403.718 819.127C404.176 819.497 404.557 819.954 404.838 820.472C405.12 820.989 405.297 821.557 405.359 822.143C405.421 822.729 405.367 823.322 405.201 823.887Z" fill="#41474E"/>
<path d="M452.413 823.153C452.163 824.003 451.666 824.759 450.986 825.327C450.306 825.894 449.473 826.247 448.592 826.341C447.712 826.435 446.823 826.267 446.038 825.856C445.254 825.445 444.608 824.811 444.184 824.034C443.759 823.257 443.575 822.371 443.653 821.489C443.732 820.607 444.07 819.768 444.626 819.078C445.181 818.388 445.928 817.878 446.773 817.613C447.618 817.347 448.523 817.338 449.373 817.587C450.514 817.922 451.475 818.697 452.045 819.741C452.615 820.785 452.747 822.012 452.413 823.153Z" fill="#41474E"/>
<path d="M478.346 171.607L463.426 281.227L430.146 289.78" stroke="#41474E" stroke-width="0.94" stroke-miterlimit="10"/>
<path d="M415.807 215.14L570.973 264.367" stroke="#41474E" stroke-width="0.94" stroke-miterlimit="10"/>
<path d="M418.174 234.567L478.347 171.607" stroke="#41474E" stroke-width="0.94" stroke-miterlimit="10"/>
<path d="M431.054 220.2L463.427 281.227" stroke="#41474E" stroke-width="0.94" stroke-miterlimit="10"/>
<path d="M350.88 265.973L348.687 292.753" stroke="#41474E" stroke-width="0.94" stroke-miterlimit="10"/>
<path d="M350.88 265.973L463.287 280.16" stroke="#41474E" stroke-width="0.94" stroke-miterlimit="10"/>
<path d="M577.68 419.467L668.64 448.967" stroke="#41474E" stroke-width="0.94" stroke-miterlimit="10"/>
<path d="M631.653 543L577.68 419.467" stroke="#41474E" stroke-width="0.94" stroke-miterlimit="10"/>
<path d="M556.934 355.6L599.487 367.713" stroke="#41474E" stroke-width="0.94" stroke-miterlimit="10"/>
<path d="M586.494 364.16L543.894 393.66" stroke="#41474E" stroke-width="0.94" stroke-miterlimit="10"/>
<path d="M543.893 393.66L438.047 448.167" stroke="#41474E" stroke-width="0.94" stroke-miterlimit="10"/>
<path d="M570.974 264.367L435.407 448.52" stroke="#41474E" stroke-width="0.94" stroke-miterlimit="10"/>
<path d="M494.833 278.46L510.74 346.187" stroke="#41474E" stroke-width="0.94" stroke-miterlimit="10"/>
<path d="M510.753 345.92L544.393 394.96" stroke="#41474E" stroke-width="0.94" stroke-miterlimit="10"/>
<path d="M533.573 632.64L552.6 639.167" stroke="#41474E" stroke-width="0.94" stroke-miterlimit="10"/>
<path d="M552.6 639.167L608.24 639.553" stroke="#41474E" stroke-width="0.94" stroke-miterlimit="10"/>
<path d="M526.787 751.227L527.267 765.607" stroke="#41474E" stroke-width="0.94" stroke-miterlimit="10"/>
<path d="M527.267 765.607L571.687 762.9" stroke="#41474E" stroke-width="0.94" stroke-miterlimit="10"/>
<path d="M479.013 796.267L470.813 807.84" stroke="#41474E" stroke-width="0.94" stroke-miterlimit="10"/>
<path d="M470.813 807.84L489.253 829.567" stroke="#41474E" stroke-width="0.94" stroke-miterlimit="10"/>
<path d="M489.253 829.567L500.346 842.28" stroke="#41474E" stroke-width="0.94" stroke-miterlimit="10"/>
<path d="M571.687 762.9L587.206 770.933" stroke="#41474E" stroke-width="0.94" stroke-miterlimit="10"/>
<path d="M402.773 814.793L401.373 822.327" stroke="#41474E" stroke-width="0.94" stroke-miterlimit="10"/>
<path d="M382.82 762.94L376.14 766.966" stroke="#41474E" stroke-width="0.94" stroke-miterlimit="10"/>
<path d="M403.34 813.633L470.813 807.84" stroke="#41474E" stroke-width="0.94" stroke-miterlimit="10"/>
<path d="M470.813 807.84L527.267 765.607" stroke="#41474E" stroke-width="0.94" stroke-miterlimit="10"/>
<path d="M552.6 639.167L527.267 765.607" stroke="#41474E" stroke-width="0.94" stroke-miterlimit="10"/>
<path d="M435.407 448.52L608.241 639.553" stroke="#41474E" stroke-width="0.94" stroke-miterlimit="10"/>
<path d="M543.894 393.66L552.6 639.167" stroke="#41474E" stroke-width="0.94" stroke-miterlimit="10"/>
<path d="M418.173 234.567L348.687 292.753" stroke="#41474E" stroke-width="0.94" stroke-miterlimit="10"/>
<path d="M427.153 276.453L431.053 220.2" stroke="#41474E" stroke-width="0.94" stroke-miterlimit="10"/>
<path d="M532.894 794.107L544.02 807.06" stroke="#41474E" stroke-width="0.94" stroke-miterlimit="10"/>
<path d="M445.5 831.82L447.86 822.473" stroke="#41474E" stroke-width="0.94" stroke-miterlimit="10"/>
<path d="M402.773 814.793L376.14 766.967" stroke="#41474E" stroke-width="0.94" stroke-miterlimit="10"/>
<path d="M613.407 691.587L593.747 687.72" stroke="#41474E" stroke-width="0.94" stroke-miterlimit="10"/>
<path d="M593.746 687.72L552.6 639.167" stroke="#41474E" stroke-width="0.94" stroke-miterlimit="10"/>
<path d="M626.46 565.367L600.979 569.26" stroke="#41474E" stroke-width="0.94" stroke-miterlimit="10"/>
<path d="M636.026 622.347L600.979 569.26" stroke="#41474E" stroke-width="0.94" stroke-miterlimit="10"/>
<path d="M592.66 531.207L668.64 448.967" stroke="#41474E" stroke-width="0.94" stroke-miterlimit="10"/>
<path d="M578.993 419.573L653.353 413.94" stroke="#41474E" stroke-width="0.94" stroke-miterlimit="10"/>
<path d="M616.58 506.02L647.173 504.327" stroke="#41474E" stroke-width="0.94" stroke-miterlimit="10"/>
<path d="M604.434 404.607L545.801 394.653" stroke="#41474E" stroke-width="0.94" stroke-miterlimit="10"/>
<path d="M558.193 354.913L586.767 348.233" stroke="#41474E" stroke-width="0.94" stroke-miterlimit="10"/>
<path d="M556.934 355.6L599.067 260.393" stroke="#41474E" stroke-width="0.94" stroke-miterlimit="10"/>
<path d="M593.747 687.72L550.347 575.6" stroke="#41474E" stroke-width="0.94" stroke-miterlimit="10"/>
<path d="M527.267 765.607L593.747 687.72" stroke="#41474E" stroke-width="0.94" stroke-miterlimit="10"/>
<path d="M489.253 829.567L527.266 765.607" stroke="#41474E" stroke-width="0.94" stroke-miterlimit="10"/>
<path d="M432.1 219.94L531.446 208.547" stroke="#41474E" stroke-width="0.94" stroke-miterlimit="10"/>
<path d="M531.446 208.547L569.846 263.347" stroke="#41474E" stroke-width="0.94" stroke-miterlimit="10"/>
<path d="M518.199 210.327L599.173 259.42" stroke="#41474E" stroke-width="0.94" stroke-miterlimit="10"/>
<path d="M550.347 575.6L494.414 419.14" stroke="#41474E" stroke-width="0.94" stroke-miterlimit="10"/>
<path d="M510.741 346.187L494.414 419.14" stroke="#41474E" stroke-width="0.94" stroke-miterlimit="10"/>
<path d="M515.627 209.947L510.74 346.187" stroke="#41474E" stroke-width="0.94" stroke-miterlimit="10"/>
</svg>
