<svg width="1000" height="1000" viewBox="0 0 1000 1000" fill="none" xmlns="http://www.w3.org/2000/svg">
<path d="M562.273 400.46L460.88 508.694L494.92 502.774L551.613 479.754L632.193 403.907L647.1 397.48L807.813 332.68L879.426 327.14L891.153 318.4L881.56 298.58L835.52 284.514L818.9 251.9L763.906 222.487L679.5 204.58L582.946 197.547L490.866 211.614L433.96 231.44L369.373 209.06L295.84 214.174L323.973 250.62L332.926 301.134L277.3 365.72L241.486 437.974L228.06 543.48L226.14 615.1L159.64 673.287L108.486 802.454L167.313 754.494L293.92 698.867L361.7 681.6L324.613 615.74L281.133 602.947L331.653 514.707L357.866 488.494L437.726 462.76L515 450.92" stroke="black" stroke-width="2.9" stroke-miterlimit="10"/>
<path d="M659.36 393.854L686.32 425.613" stroke="black" stroke-width="2.9" stroke-miterlimit="10"/>
<path d="M675.026 412.72L671.187 454.12L733.693 423.747L728.26 365.4" stroke="black" stroke-width="2.9" stroke-miterlimit="10"/>
<path d="M880.706 325.433L859.393 306.68L796.733 292.187L674.066 278.427L569.946 262.773L433.533 270.447L322.699 341.207L278.786 394.067L250.653 450.767L234.026 561.173L227.633 615.313L259.926 665.08L281.133 602.947" stroke="black" stroke-width="2.9" stroke-miterlimit="10"/>
<path d="M764.867 223.126L709.767 244.44L668.134 277.413" stroke="black" stroke-width="2.9" stroke-miterlimit="10"/>
<path d="M655.593 296.707L426.893 311.84L342.06 371.52L301.987 413.72L268.74 456.773L227.387 615.353" stroke="black" stroke-width="2.9" stroke-miterlimit="10"/>
<path d="M667.846 277.84L657.22 294.32" stroke="black" stroke-width="2.9" stroke-miterlimit="10"/>
<path d="M332.927 301.133L433.96 231.44" stroke="black" stroke-width="1.45" stroke-miterlimit="10"/>
<path d="M562.273 400.46L585.187 400.567L638.9 381.387" stroke="black" stroke-width="1.45" stroke-miterlimit="10"/>
<path d="M809.307 332.146L711.154 348.773L638.901 381.387L630.907 405.366" stroke="black" stroke-width="1.45" stroke-miterlimit="10"/>
<path d="M859.394 306.68L793.64 304.333H714.667" stroke="black" stroke-width="1.45" stroke-miterlimit="10"/>
<path d="M550.253 480.3L515 450.92" stroke="black" stroke-width="1.45" stroke-miterlimit="10"/>
<path d="M460.88 508.693L632.193 403.907" stroke="black" stroke-width="1.45" stroke-miterlimit="10"/>
<path d="M819.853 252.86L784.366 264.473L795.56 292.507L835.52 284.513L784.366 264.473L709.766 244.44L611.72 231.227L533.713 220.993L468.486 230.8L416.48 251.26L330.8 304.12" stroke="black" stroke-width="1.45" stroke-miterlimit="10"/>
<path d="M807.813 332.68L793.64 304.333L794.92 291.227" stroke="black" stroke-width="1.45" stroke-miterlimit="10"/>
<path d="M584.866 197.547L532.006 220.994L510.266 265.754L504.366 306.667L513.573 364.78L562.273 400.46L550.253 480.3" stroke="black" stroke-width="1.45" stroke-miterlimit="10"/>
<path d="M492.36 211.613L465.934 231.653L433.534 270.447L427.14 311.793L513.574 364.78L437.727 462.76L368.314 460.567L309.054 406.853L321.42 341.633L332.5 302.84" stroke="black" stroke-width="1.45" stroke-miterlimit="10"/>
<path d="M359.36 488.273L321.42 479.327L268.986 456.733L276.66 397.48L277.94 364.227" stroke="black" stroke-width="1.45" stroke-miterlimit="10"/>
<path d="M330.8 516.84L289.02 518.974L258.753 498.08L250.653 450.767L241.486 437.974" stroke="black" stroke-width="1.45" stroke-miterlimit="10"/>
<path d="M672.681 453.747L686.321 425.613L733.694 423.747L708.487 372.753" stroke="black" stroke-width="1.45" stroke-miterlimit="10"/>
<path d="M157.727 676.487L167.313 754.494L227.633 615.313" stroke="black" stroke-width="1.45" stroke-miterlimit="10"/>
<path d="M361.7 681.6L260.033 665.613" stroke="black" stroke-width="1.45" stroke-miterlimit="10"/>
<path d="M324.613 615.74L260.033 665.614" stroke="black" stroke-width="1.45" stroke-miterlimit="10"/>
<path d="M157.727 676.487L260.033 665.613" stroke="black" stroke-width="1.45" stroke-miterlimit="10"/>
<path d="M249.8 718.687L157.727 676.487" stroke="black" stroke-width="1.45" stroke-miterlimit="10"/>
<path d="M562.273 400.46L368.313 460.567" stroke="black" stroke-width="1.45" stroke-miterlimit="10"/>
<path d="M359.36 488.28L368.314 460.566" stroke="black" stroke-width="1.45" stroke-miterlimit="10"/>
<path d="M227.633 615.313L289.446 519.34L280.919 604.653" stroke="black" stroke-width="1.45" stroke-miterlimit="10"/>
<path d="M329.367 518.7L321.42 479.327L309.054 406.854L513.247 365.934L655.84 296.66" stroke="black" stroke-width="1.45" stroke-miterlimit="10"/>
<path d="M784.366 264.473L733.593 285.553" stroke="black" stroke-width="1.45" stroke-miterlimit="10"/>
<path d="M638.9 381.387L646.094 353.934" stroke="black" stroke-width="1.45" stroke-miterlimit="10"/>
<path d="M433.533 270.447L532.007 220.993" stroke="black" stroke-width="1.45" stroke-miterlimit="10"/>
<path d="M433.96 231.44L415.427 251.913" stroke="black" stroke-width="1.45" stroke-miterlimit="10"/>
<path d="M465.994 231.613L321.48 341.593" stroke="black" stroke-width="1.45" stroke-miterlimit="10"/>
<path d="M733.593 285.553L714.733 304.293" stroke="black" stroke-width="1.45" stroke-miterlimit="10"/>
<path d="M646.16 353.893L656.654 297.007" stroke="black" stroke-width="1.45" stroke-miterlimit="10"/>
<path d="M686.24 425.24L728.18 365.026" stroke="black" stroke-width="1.45" stroke-miterlimit="10"/>
<path d="M369.587 209.487L332.927 301.133" stroke="black" stroke-width="1.45" stroke-miterlimit="10"/>
<path d="M355.106 244.927L433.046 232.447" stroke="black" stroke-width="1.45" stroke-miterlimit="10"/>
<path d="M355.106 244.927L295.84 215.027" stroke="black" stroke-width="1.45" stroke-miterlimit="10"/>
<path d="M881.56 298.74L859.394 306.84" stroke="black" stroke-width="1.45" stroke-miterlimit="10"/>
<path d="M585.227 400.527L631.84 404.42" stroke="black" stroke-width="1.45" stroke-miterlimit="10"/>
<path d="M733.593 285.553L656.2 296.14L572.147 263.027L532.007 220.993" stroke="black" stroke-width="1.45" stroke-miterlimit="10"/>
<path d="M657.22 296.72L714.666 304.333L709.973 348.833" stroke="black" stroke-width="1.45" stroke-miterlimit="10"/>
<path d="M321.42 341.633L342.307 371.473" stroke="black" stroke-width="1.45" stroke-miterlimit="10"/>
<path d="M259.753 665.673L250.08 718.52" stroke="black" stroke-width="1.45" stroke-miterlimit="10"/>
<path d="M289.446 519.34L321.42 479.327L368.313 460.567L513.82 364.88L711.153 348.773" stroke="black" stroke-width="1.45" stroke-miterlimit="10"/>
<path d="M806.253 332.667L859.393 306.68" stroke="black" stroke-width="1.45" stroke-miterlimit="10"/>
<path d="M784.367 264.473L763.207 223.566" stroke="black" stroke-width="1.45" stroke-miterlimit="10"/>
<path d="M533.713 220.993L763.206 223.567" stroke="black" stroke-width="1.45" stroke-miterlimit="10"/>
<path d="M652.807 296.82C652.838 297.558 653.087 298.27 653.523 298.866C653.959 299.462 654.561 299.916 655.255 300.17C655.948 300.423 656.701 300.466 657.419 300.291C658.136 300.117 658.786 299.734 659.286 299.19C659.785 298.647 660.113 297.967 660.226 297.238C660.34 296.508 660.234 295.761 659.924 295.091C659.613 294.422 659.11 293.859 658.479 293.475C657.849 293.091 657.118 292.902 656.381 292.933C655.393 292.978 654.463 293.412 653.793 294.14C653.124 294.869 652.769 295.832 652.807 296.82Z" fill="black"/>
<path d="M830.621 283.18C830.653 283.917 830.903 284.628 831.34 285.224C831.776 285.819 832.379 286.272 833.072 286.524C833.766 286.777 834.519 286.818 835.236 286.643C835.953 286.468 836.602 286.085 837.101 285.541C837.6 284.997 837.927 284.318 838.04 283.588C838.153 282.859 838.047 282.112 837.736 281.443C837.425 280.774 836.922 280.212 836.292 279.828C835.662 279.444 834.932 279.256 834.194 279.286C833.704 279.307 833.222 279.424 832.777 279.631C832.332 279.838 831.932 280.131 831.6 280.492C831.268 280.854 831.011 281.277 830.843 281.738C830.675 282.2 830.599 282.689 830.621 283.18Z" fill="black"/>
<path d="M759.646 223.073C759.678 223.811 759.929 224.522 760.365 225.117C760.801 225.713 761.404 226.165 762.098 226.418C762.791 226.671 763.544 226.712 764.261 226.537C764.978 226.362 765.627 225.978 766.126 225.435C766.625 224.891 766.952 224.211 767.065 223.482C767.178 222.752 767.073 222.006 766.761 221.337C766.45 220.667 765.948 220.105 765.317 219.721C764.687 219.337 763.957 219.149 763.219 219.18C762.729 219.201 762.248 219.318 761.802 219.525C761.357 219.731 760.957 220.024 760.625 220.386C760.294 220.747 760.036 221.171 759.868 221.632C759.7 222.093 759.625 222.583 759.646 223.073Z" fill="black"/>
<path d="M487.887 211.887C487.919 212.624 488.17 213.336 488.606 213.931C489.042 214.526 489.645 214.979 490.339 215.231C491.032 215.484 491.785 215.525 492.502 215.35C493.219 215.175 493.868 214.792 494.367 214.248C494.866 213.704 495.193 213.025 495.306 212.295C495.419 211.566 495.313 210.819 495.002 210.15C494.691 209.481 494.189 208.919 493.558 208.535C492.928 208.151 492.198 207.963 491.46 207.994C490.471 208.037 489.538 208.471 488.868 209.201C488.198 209.931 487.846 210.897 487.887 211.887Z" fill="black"/>
<path d="M577.833 198.24C577.864 198.978 578.113 199.69 578.549 200.286C578.984 200.882 579.587 201.336 580.28 201.589C580.974 201.843 581.727 201.886 582.444 201.711C583.162 201.537 583.811 201.154 584.311 200.61C584.811 200.067 585.138 199.387 585.252 198.657C585.365 197.928 585.26 197.181 584.949 196.511C584.638 195.842 584.135 195.279 583.505 194.895C582.874 194.511 582.144 194.322 581.406 194.353C580.418 194.398 579.488 194.832 578.819 195.56C578.149 196.288 577.795 197.252 577.833 198.24Z" fill="black"/>
<path d="M366 209.333C366.032 210.071 366.282 210.782 366.718 211.377C367.155 211.972 367.758 212.425 368.451 212.678C369.145 212.93 369.898 212.972 370.615 212.797C371.332 212.622 371.981 212.238 372.48 211.694C372.979 211.15 373.306 210.471 373.419 209.742C373.532 209.012 373.426 208.266 373.115 207.596C372.804 206.927 372.301 206.365 371.671 205.981C371.04 205.597 370.31 205.409 369.573 205.44C369.083 205.46 368.601 205.577 368.156 205.784C367.711 205.991 367.311 206.284 366.979 206.645C366.647 207.007 366.39 207.431 366.222 207.892C366.054 208.353 365.978 208.843 366 209.333Z" fill="black"/>
<path d="M247.273 717.814C247.305 718.551 247.555 719.262 247.992 719.858C248.428 720.453 249.031 720.905 249.725 721.158C250.418 721.411 251.171 721.452 251.888 721.277C252.605 721.102 253.254 720.719 253.753 720.175C254.252 719.631 254.579 718.951 254.692 718.222C254.805 717.493 254.699 716.746 254.388 716.077C254.077 715.408 253.575 714.845 252.944 714.462C252.314 714.078 251.584 713.889 250.846 713.92C249.856 713.964 248.924 714.398 248.254 715.128C247.584 715.858 247.231 716.824 247.273 717.814Z" fill="black"/>
<path d="M430.98 270.713C431.014 271.449 431.264 272.158 431.7 272.751C432.136 273.344 432.738 273.795 433.43 274.046C434.122 274.298 434.873 274.338 435.588 274.164C436.303 273.989 436.951 273.606 437.449 273.063C437.946 272.521 438.272 271.843 438.385 271.116C438.499 270.388 438.394 269.644 438.084 268.976C437.774 268.308 437.274 267.747 436.645 267.363C436.017 266.979 435.289 266.79 434.554 266.82C434.063 266.84 433.582 266.958 433.136 267.164C432.691 267.371 432.291 267.664 431.959 268.026C431.628 268.387 431.37 268.811 431.202 269.272C431.034 269.733 430.959 270.223 430.98 270.713Z" fill="black"/>
<path d="M429.06 231.707C429.092 232.444 429.343 233.155 429.779 233.751C430.215 234.346 430.818 234.798 431.512 235.051C432.205 235.304 432.958 235.345 433.675 235.17C434.392 234.995 435.041 234.612 435.54 234.068C436.04 233.524 436.366 232.845 436.479 232.115C436.592 231.386 436.487 230.639 436.175 229.97C435.864 229.301 435.362 228.738 434.731 228.355C434.101 227.971 433.371 227.782 432.634 227.813C432.143 227.834 431.662 227.951 431.216 228.158C430.771 228.365 430.371 228.657 430.039 229.019C429.708 229.381 429.45 229.804 429.282 230.265C429.114 230.726 429.039 231.216 429.06 231.707Z" fill="black"/>
<path d="M293.82 214.44C293.851 215.178 294.1 215.889 294.535 216.486C294.971 217.082 295.574 217.536 296.267 217.789C296.96 218.043 297.714 218.085 298.431 217.911C299.149 217.737 299.798 217.353 300.298 216.81C300.798 216.266 301.125 215.587 301.239 214.857C301.352 214.128 301.247 213.381 300.936 212.711C300.625 212.041 300.122 211.479 299.492 211.095C298.861 210.711 298.131 210.522 297.393 210.553C296.404 210.595 295.472 211.027 294.801 211.756C294.131 212.485 293.778 213.451 293.82 214.44Z" fill="black"/>
<path d="M328.987 301.087C329.019 301.824 329.269 302.535 329.705 303.13C330.142 303.726 330.745 304.178 331.438 304.431C332.132 304.684 332.885 304.725 333.602 304.55C334.319 304.375 334.968 303.991 335.467 303.448C335.966 302.904 336.293 302.224 336.406 301.495C336.519 300.766 336.413 300.019 336.102 299.35C335.791 298.68 335.288 298.118 334.658 297.734C334.028 297.351 333.297 297.162 332.56 297.193C331.57 297.237 330.638 297.671 329.968 298.401C329.298 299.131 328.945 300.097 328.987 301.087Z" fill="black"/>
<path d="M273.333 366.307C273.366 367.042 273.617 367.751 274.053 368.344C274.489 368.937 275.091 369.388 275.783 369.639C276.475 369.891 277.226 369.932 277.941 369.757C278.656 369.582 279.303 369.199 279.801 368.657C280.299 368.114 280.625 367.437 280.738 366.709C280.851 365.982 280.746 365.237 280.437 364.569C280.127 363.901 279.626 363.34 278.998 362.956C278.37 362.573 277.642 362.384 276.906 362.413C276.416 362.433 275.934 362.549 275.488 362.756C275.043 362.963 274.642 363.255 274.31 363.617C273.978 363.979 273.721 364.403 273.553 364.864C273.385 365.326 273.311 365.816 273.333 366.307Z" fill="black"/>
<path d="M154.74 675.793C154.772 676.531 155.022 677.242 155.458 677.837C155.895 678.432 156.498 678.885 157.191 679.138C157.885 679.39 158.638 679.432 159.355 679.257C160.072 679.082 160.721 678.698 161.22 678.154C161.719 677.61 162.046 676.931 162.159 676.202C162.272 675.472 162.166 674.726 161.855 674.056C161.544 673.387 161.041 672.825 160.411 672.441C159.78 672.057 159.05 671.869 158.313 671.9C157.323 671.943 156.391 672.377 155.721 673.107C155.051 673.837 154.698 674.803 154.74 675.793Z" fill="black"/>
<path d="M223.48 614.407C223.512 615.144 223.763 615.856 224.199 616.451C224.635 617.046 225.238 617.499 225.932 617.751C226.625 618.004 227.378 618.045 228.095 617.87C228.812 617.695 229.461 617.312 229.96 616.768C230.459 616.224 230.786 615.545 230.899 614.815C231.012 614.086 230.907 613.339 230.595 612.67C230.284 612.001 229.782 611.439 229.151 611.055C228.521 610.671 227.791 610.483 227.053 610.514C226.563 610.534 226.082 610.651 225.636 610.858C225.191 611.065 224.791 611.358 224.459 611.719C224.128 612.081 223.87 612.504 223.702 612.965C223.534 613.427 223.459 613.916 223.48 614.407Z" fill="black"/>
<path d="M105.187 802.08C105.219 802.818 105.47 803.529 105.906 804.124C106.342 804.719 106.945 805.172 107.639 805.425C108.332 805.677 109.085 805.719 109.802 805.544C110.519 805.369 111.168 804.985 111.667 804.441C112.166 803.898 112.493 803.218 112.606 802.489C112.719 801.759 112.614 801.013 112.302 800.343C111.991 799.674 111.489 799.112 110.858 798.728C110.228 798.344 109.498 798.156 108.761 798.187C108.27 798.207 107.789 798.324 107.343 798.531C106.898 798.738 106.498 799.031 106.166 799.393C105.835 799.754 105.577 800.178 105.409 800.639C105.241 801.1 105.166 801.59 105.187 802.08Z" fill="black"/>
<path d="M356.807 681.227C356.84 681.962 357.091 682.672 357.527 683.265C357.964 683.858 358.566 684.309 359.258 684.56C359.951 684.811 360.702 684.852 361.417 684.676C362.133 684.501 362.78 684.117 363.277 683.574C363.775 683.031 364.1 682.353 364.212 681.625C364.325 680.897 364.219 680.152 363.908 679.484C363.597 678.817 363.096 678.256 362.467 677.873C361.838 677.49 361.109 677.302 360.373 677.333C359.883 677.354 359.402 677.471 358.957 677.678C358.512 677.885 358.113 678.178 357.781 678.539C357.45 678.901 357.193 679.325 357.026 679.786C356.859 680.247 356.784 680.737 356.807 681.227Z" fill="black"/>
<path d="M355.527 488.12C355.559 488.858 355.809 489.569 356.246 490.164C356.682 490.759 357.285 491.212 357.979 491.465C358.672 491.717 359.425 491.759 360.142 491.584C360.859 491.409 361.508 491.025 362.007 490.481C362.506 489.938 362.833 489.258 362.946 488.529C363.059 487.799 362.953 487.053 362.642 486.383C362.331 485.714 361.829 485.152 361.198 484.768C360.568 484.384 359.838 484.196 359.1 484.227C358.61 484.247 358.128 484.365 357.683 484.571C357.238 484.778 356.838 485.071 356.506 485.433C356.174 485.794 355.917 486.218 355.749 486.679C355.581 487.14 355.506 487.63 355.527 488.12Z" fill="black"/>
<path d="M458.153 508.58C458.185 509.318 458.435 510.029 458.872 510.624C459.308 511.219 459.911 511.672 460.605 511.925C461.298 512.177 462.051 512.219 462.768 512.044C463.485 511.869 464.134 511.485 464.633 510.941C465.132 510.398 465.459 509.718 465.572 508.989C465.685 508.259 465.579 507.513 465.268 506.843C464.957 506.174 464.455 505.612 463.824 505.228C463.194 504.844 462.464 504.656 461.726 504.687C461.236 504.707 460.754 504.824 460.309 505.031C459.864 505.238 459.464 505.531 459.132 505.892C458.8 506.254 458.543 506.678 458.375 507.139C458.207 507.6 458.132 508.09 458.153 508.58Z" fill="black"/>
<path d="M548.154 479.807C548.186 480.544 548.436 481.255 548.872 481.851C549.309 482.446 549.912 482.899 550.605 483.151C551.299 483.404 552.052 483.445 552.769 483.27C553.486 483.095 554.135 482.712 554.634 482.168C555.133 481.624 555.46 480.945 555.573 480.215C555.686 479.486 555.58 478.739 555.269 478.07C554.958 477.401 554.455 476.839 553.825 476.455C553.195 476.071 552.465 475.883 551.727 475.913C550.737 475.957 549.805 476.391 549.135 477.121C548.465 477.851 548.112 478.817 548.154 479.807Z" fill="black"/>
<path d="M557.267 401.26C557.298 401.998 557.547 402.71 557.982 403.306C558.418 403.902 559.021 404.356 559.714 404.609C560.407 404.863 561.161 404.906 561.878 404.731C562.596 404.557 563.245 404.174 563.745 403.63C564.245 403.087 564.572 402.407 564.686 401.677C564.799 400.948 564.694 400.201 564.383 399.531C564.072 398.862 563.569 398.299 562.939 397.915C562.308 397.531 561.578 397.342 560.84 397.373C559.851 397.417 558.92 397.85 558.25 398.579C557.581 399.307 557.227 400.271 557.267 401.26Z" fill="black"/>
<path d="M628.4 404.78C628.432 405.517 628.682 406.229 629.119 406.824C629.555 407.419 630.158 407.872 630.851 408.124C631.545 408.377 632.298 408.419 633.015 408.243C633.732 408.068 634.381 407.685 634.88 407.141C635.379 406.597 635.706 405.918 635.819 405.188C635.932 404.459 635.826 403.712 635.515 403.043C635.204 402.374 634.701 401.812 634.071 401.428C633.441 401.044 632.711 400.856 631.973 400.887C630.983 400.93 630.051 401.364 629.381 402.094C628.711 402.824 628.358 403.79 628.4 404.78Z" fill="black"/>
<path d="M802.667 333.02C802.7 333.758 802.95 334.469 803.386 335.064C803.822 335.659 804.426 336.112 805.119 336.365C805.813 336.617 806.565 336.659 807.282 336.484C808 336.309 808.649 335.925 809.148 335.381C809.647 334.837 809.973 334.158 810.086 333.429C810.199 332.699 810.094 331.953 809.783 331.283C809.472 330.614 808.969 330.052 808.339 329.668C807.708 329.284 806.978 329.096 806.241 329.127C805.251 329.17 804.319 329.604 803.649 330.334C802.979 331.064 802.626 332.03 802.667 333.02Z" fill="black"/>
<path d="M887.333 318.953C887.366 319.691 887.616 320.402 888.052 320.997C888.489 321.592 889.092 322.045 889.785 322.298C890.479 322.55 891.231 322.592 891.949 322.417C892.666 322.242 893.315 321.858 893.814 321.314C894.313 320.771 894.639 320.091 894.753 319.362C894.866 318.632 894.76 317.886 894.449 317.216C894.138 316.547 893.635 315.985 893.005 315.601C892.374 315.217 891.644 315.029 890.907 315.06C889.917 315.103 888.985 315.537 888.315 316.267C887.645 316.997 887.292 317.963 887.333 318.953Z" fill="black"/>
<path d="M875.214 326.627C875.246 327.364 875.496 328.075 875.932 328.671C876.369 329.266 876.972 329.718 877.665 329.971C878.359 330.224 879.112 330.265 879.829 330.09C880.546 329.915 881.195 329.532 881.694 328.988C882.193 328.444 882.52 327.764 882.633 327.035C882.746 326.306 882.64 325.559 882.329 324.89C882.018 324.22 881.515 323.658 880.885 323.275C880.254 322.891 879.524 322.702 878.787 322.733C878.297 322.754 877.815 322.871 877.37 323.078C876.925 323.285 876.525 323.577 876.193 323.939C875.861 324.301 875.604 324.724 875.436 325.185C875.268 325.646 875.192 326.136 875.214 326.627Z" fill="black"/>
<path d="M856.667 307.12C856.698 307.858 856.947 308.57 857.382 309.166C857.818 309.762 858.421 310.216 859.114 310.469C859.808 310.723 860.561 310.765 861.278 310.591C861.996 310.417 862.645 310.034 863.145 309.49C863.645 308.947 863.972 308.267 864.086 307.537C864.199 306.808 864.094 306.061 863.783 305.391C863.472 304.721 862.969 304.159 862.339 303.775C861.708 303.391 860.978 303.202 860.24 303.233C859.252 303.278 858.322 303.712 857.653 304.44C856.983 305.168 856.629 306.132 856.667 307.12Z" fill="black"/>
<path d="M791.233 292.947C791.264 293.684 791.513 294.396 791.949 294.993C792.385 295.589 792.987 296.042 793.681 296.296C794.374 296.55 795.127 296.592 795.845 296.418C796.562 296.243 797.212 295.86 797.712 295.317C798.211 294.773 798.539 294.094 798.652 293.364C798.766 292.634 798.66 291.888 798.35 291.218C798.039 290.548 797.536 289.986 796.905 289.601C796.275 289.217 795.544 289.029 794.807 289.06C793.819 289.105 792.888 289.539 792.219 290.267C791.55 290.995 791.195 291.958 791.233 292.947Z" fill="black"/>
<path d="M706.506 245.333C706.539 246.071 706.789 246.782 707.225 247.377C707.661 247.972 708.264 248.425 708.958 248.678C709.651 248.93 710.404 248.972 711.121 248.797C711.838 248.622 712.487 248.238 712.986 247.694C713.486 247.15 713.812 246.471 713.925 245.742C714.038 245.012 713.933 244.266 713.622 243.596C713.31 242.927 712.808 242.365 712.178 241.981C711.547 241.597 710.817 241.409 710.08 241.44C709.09 241.483 708.157 241.917 707.488 242.647C706.818 243.377 706.465 244.343 706.506 245.333Z" fill="black"/>
<path d="M667.714 453.333C667.746 454.071 667.996 454.782 668.432 455.377C668.869 455.972 669.472 456.425 670.165 456.678C670.859 456.93 671.612 456.972 672.329 456.797C673.046 456.622 673.695 456.238 674.194 455.694C674.693 455.15 675.02 454.471 675.133 453.742C675.246 453.012 675.14 452.266 674.829 451.596C674.518 450.927 674.015 450.365 673.385 449.981C672.754 449.597 672.024 449.409 671.287 449.44C670.796 449.46 670.315 449.577 669.87 449.784C669.425 449.991 669.025 450.284 668.693 450.645C668.361 451.007 668.104 451.431 667.936 451.892C667.768 452.353 667.692 452.843 667.714 453.333Z" fill="black"/>
<path d="M656.199 296.14L734.293 285.26" stroke="black" stroke-width="2.9" stroke-miterlimit="10"/>
</svg>
