<svg width="1000" height="1000" viewBox="0 0 1000 1000" fill="none" xmlns="http://www.w3.org/2000/svg">
<path d="M353.747 237.747L416.48 241.767L411.8 266.88L353.747 237.747Z" fill="#F94BA7"/>
<path d="M222.367 693.087L219.08 654.1L323.733 672.073L222.367 693.087Z" fill="#F94BA7"/>
<path d="M773.04 358.434L710.8 341.487L676.807 393.92L773.04 358.434Z" fill="#DA5977"/>
<path d="M233.36 657.367L297.3 626.033L334.874 649.42L233.36 657.367Z" fill="#9E4DB2"/>
<path d="M313.927 676.34L325.007 701.486L177.087 755.2L313.927 676.34Z" fill="#DA5977"/>
<path d="M624.807 420.04L711.974 372.18L584.787 404.214L624.807 420.04Z" fill="#9E4DB2"/>
<path d="M258.507 695.946L330.553 655.026L355.7 694.273L258.507 695.946Z" fill="#9E4DB2"/>
<path d="M658.667 409.266L704.214 419.606L726.507 382.413L658.667 409.266Z" fill="#9E4DB2"/>
<path d="M590.373 345.753L605.526 393.353L704.62 346.393L590.373 345.753Z" fill="#9E4DB2"/>
<path d="M724.44 390.727L729.98 437.193L701.42 447.847L724.44 390.727Z" fill="#9E4DB2"/>
<path d="M260.854 616.02L285.794 641.807L278.54 597.9L260.854 616.02Z" fill="#9E4DB2"/>
<path d="M632.613 393.16L689.1 367.54L663.933 348.854L632.613 393.16Z" fill="#C072CE"/>
<path d="M335.187 661.86L296.66 640.106L301.134 666.96L335.187 661.86Z" fill="#C072CE"/>
<path d="M449.4 435.446L463.98 468.313L485.7 415.8L449.4 435.446Z" fill="#C072CE"/>
<path d="M431.58 455.947L320.747 522.873L364.227 426.533L431.58 455.947Z" fill="#C072CE"/>
<path d="M339.5 517.333L277.92 610.007L307.533 519.894L339.5 517.333Z" fill="#C072CE"/>
<path d="M485.567 393.42L379.62 451.127L403.393 393.647L485.567 393.42Z" fill="#C072CE"/>
<path d="M448.847 407.353L537.087 347.887L488.493 405.433L448.847 407.353Z" fill="#C072CE"/>
<path d="M486.247 237.807L406.854 279.04L417.94 250.047L486.247 237.807Z" fill="#DA5977"/>
<path d="M677.927 402.934L721.854 412.294L672.174 455.367L677.927 402.934Z" fill="#C072CE"/>
<path d="M601.246 413.747L606.786 441.88L634.919 402.233L601.246 413.747Z" fill="#F94BA7"/>
<path d="M511.38 462.32L512.526 427.66L373.76 484.88L511.38 462.32Z" fill="#9E4DB2"/>
<path d="M455.3 407.313L424.153 438.414L450.547 462.194L455.3 407.313Z" fill="#DA5977"/>
<path d="M553.24 382.9L596.38 405.68L574.594 427.973L553.24 382.9Z" fill="#DA5977"/>
<path d="M558.826 349.16L613.82 388.807L526.22 393.92L558.826 349.16Z" fill="#C072CE"/>
<path d="M564.327 421.907L498.46 457.073L545.14 391.854L564.327 421.907Z" fill="#9E4DB2"/>
<path d="M735.1 337.867L742.313 363.273L853.606 336.16L735.1 337.867Z" fill="#C072CE"/>
<path d="M655.853 288.253L646.12 304.56L712.18 308.72L655.853 288.253Z" fill="#C072CE"/>
<path d="M878.294 341.126L894.967 332.026L860.94 308.973L878.294 341.126Z" fill="#C072CE"/>
<path d="M793.5 280.747L833.787 296.727L805.76 260.16L793.5 280.747Z" fill="#C072CE"/>
<path d="M705.766 451.387L679.6 464.013L701.786 411.6L705.766 451.387Z" fill="#DA5977"/>
<path d="M469.213 437.513L531.973 367.22L524.206 428.626L469.213 437.513Z" fill="#9E4DB2"/>
<path d="M844.76 469.333C844.455 471.005 844.651 472.73 845.326 474.29C846 475.85 847.122 477.175 848.55 478.097C849.977 479.02 851.646 479.498 853.346 479.472C855.045 479.446 856.698 478.916 858.097 477.95C859.495 476.984 860.576 475.626 861.202 474.046C861.828 472.466 861.972 470.735 861.615 469.074C861.258 467.412 860.416 465.894 859.196 464.71C857.976 463.527 856.432 462.732 854.76 462.427C853.65 462.223 852.511 462.241 851.408 462.478C850.304 462.715 849.258 463.167 848.33 463.809C847.401 464.45 846.608 465.268 845.996 466.216C845.383 467.164 844.963 468.223 844.76 469.333Z" fill="#F94BA7"/>
<path d="M566.973 551.946C566.667 553.618 566.864 555.343 567.539 556.903C568.213 558.463 569.335 559.788 570.763 560.71C572.19 561.633 573.859 562.111 575.559 562.085C577.258 562.059 578.911 561.529 580.31 560.564C581.708 559.598 582.789 558.239 583.415 556.659C584.041 555.079 584.185 553.349 583.828 551.687C583.471 550.025 582.629 548.507 581.409 547.324C580.189 546.14 578.645 545.346 576.973 545.04C574.732 544.631 572.419 545.129 570.544 546.424C568.669 547.719 567.385 549.705 566.973 551.946Z" fill="#C072CE"/>
<path d="M553.18 737.886C552.874 739.558 553.071 741.283 553.746 742.843C554.42 744.403 555.542 745.728 556.97 746.651C558.397 747.573 560.066 748.051 561.766 748.025C563.465 747.999 565.119 747.469 566.517 746.504C567.915 745.538 568.996 744.179 569.622 742.599C570.248 741.019 570.392 739.289 570.035 737.627C569.678 735.965 568.836 734.447 567.616 733.264C566.396 732.081 564.852 731.286 563.18 730.98C562.07 730.776 560.931 730.793 559.827 731.029C558.723 731.266 557.677 731.718 556.748 732.36C555.819 733.001 555.026 733.82 554.414 734.768C553.802 735.716 553.383 736.776 553.18 737.886Z" fill="#F94BA7"/>
<path d="M116.047 354.707C115.74 356.378 115.935 358.104 116.609 359.664C117.282 361.225 118.404 362.551 119.831 363.474C121.258 364.398 122.927 364.877 124.626 364.852C126.326 364.826 127.98 364.298 129.379 363.332C130.778 362.367 131.859 361.008 132.486 359.428C133.113 357.848 133.257 356.118 132.901 354.456C132.544 352.794 131.702 351.275 130.482 350.092C129.262 348.908 127.719 348.113 126.047 347.807C123.806 347.396 121.493 347.892 119.618 349.186C117.743 350.48 116.458 352.466 116.047 354.707Z" fill="#F94BA7"/>
<path d="M300 781.367C299.696 783.037 299.894 784.76 300.569 786.318C301.243 787.876 302.365 789.198 303.791 790.119C305.217 791.04 306.884 791.517 308.582 791.491C310.279 791.464 311.931 790.935 313.328 789.971C314.725 789.006 315.804 787.648 316.43 786.07C317.056 784.492 317.2 782.764 316.844 781.104C316.488 779.444 315.647 777.927 314.429 776.744C313.211 775.562 311.67 774.767 310 774.46C308.89 774.255 307.75 774.271 306.646 774.508C305.542 774.744 304.496 775.196 303.567 775.838C302.638 776.479 301.844 777.298 301.232 778.247C300.62 779.195 300.202 780.256 300 781.367Z" fill="#C072CE"/>
<path d="M423.747 186.193C423.441 187.865 423.638 189.59 424.312 191.15C424.987 192.71 426.109 194.035 427.536 194.957C428.964 195.88 430.633 196.358 432.332 196.332C434.031 196.306 435.685 195.776 437.083 194.81C438.482 193.844 439.562 192.486 440.189 190.906C440.815 189.325 440.958 187.595 440.601 185.934C440.244 184.272 439.402 182.754 438.182 181.57C436.962 180.387 435.418 179.592 433.747 179.286C432.636 179.082 431.497 179.099 430.393 179.336C429.29 179.573 428.243 180.025 427.315 180.666C426.386 181.308 425.593 182.126 424.98 183.075C424.368 184.023 423.949 185.083 423.747 186.193Z" fill="#C072CE"/>
<path d="M136.84 509.773C136.272 512.87 136.636 516.066 137.885 518.957C139.134 521.847 141.212 524.302 143.857 526.011C146.501 527.719 149.593 528.605 152.742 528.556C155.89 528.506 158.953 527.524 161.543 525.734C164.133 523.943 166.133 521.424 167.291 518.496C168.449 515.568 168.712 512.362 168.047 509.285C167.382 506.207 165.82 503.396 163.556 501.207C161.293 499.017 158.432 497.549 155.334 496.987C151.186 496.234 146.909 497.158 143.442 499.555C139.975 501.952 137.601 505.627 136.84 509.773Z" fill="#F94BA7"/>
<path d="M526.22 458.507L563.966 418.774L601.666 415.027L526.22 458.507Z" fill="#C072CE"/>
<path d="M562.12 415.667L460.733 523.893L494.767 517.973L551.467 494.953L632.047 419.113L646.953 412.68L807.667 347.887L879.28 342.34L891.007 333.607L881.413 313.78L835.373 299.713L818.747 267.1L763.76 237.687L679.353 219.787L582.8 212.753L490.72 226.82L433.813 246.64L369.227 224.26L295.693 229.373L323.827 265.827L332.78 316.34L277.147 380.92L241.34 453.18L227.913 558.687L225.993 630.3L159.493 688.487L108.34 817.653L167.167 769.7L293.773 714.067L361.553 696.8L324.467 630.94L280.987 618.153L331.5 529.913L357.72 503.693L437.58 477.96L514.853 466.12" stroke="black" stroke-width="2.9" stroke-miterlimit="10"/>
<path d="M659.207 409.06L686.174 440.813" stroke="black" stroke-width="2.9" stroke-miterlimit="10"/>
<path d="M674.873 427.92L671.04 469.327L733.547 438.953L728.107 380.6" stroke="black" stroke-width="2.9" stroke-miterlimit="10"/>
<path d="M880.56 340.64L859.246 321.88L796.58 307.386L673.92 293.633L569.793 277.973L433.386 285.646L322.546 356.413L278.64 409.266L250.506 465.966L233.88 576.373L227.486 630.513L259.78 680.28L280.986 618.153" stroke="black" stroke-width="2.9" stroke-miterlimit="10"/>
<path d="M764.714 238.327L709.621 259.64L668.867 292.873" stroke="black" stroke-width="2.9" stroke-miterlimit="10"/>
<path d="M655.447 311.907L426.74 327.04L341.907 386.72L301.84 428.92L268.587 471.98L227.24 630.56" stroke="black" stroke-width="2.9" stroke-miterlimit="10"/>
<path d="M667.7 293.047L657.073 309.527" stroke="black" stroke-width="2.9" stroke-miterlimit="10"/>
<path d="M332.78 316.34L433.807 246.64" stroke="black" stroke-width="1.45" stroke-miterlimit="10"/>
<path d="M562.12 415.667L585.033 415.774L638.747 396.587" stroke="black" stroke-width="1.45" stroke-miterlimit="10"/>
<path d="M809.153 347.354L711.006 363.98L638.746 396.587L630.753 420.567" stroke="black" stroke-width="1.45" stroke-miterlimit="10"/>
<path d="M859.246 321.88L793.493 319.54H714.52" stroke="black" stroke-width="1.45" stroke-miterlimit="10"/>
<path d="M550.107 495.507L514.854 466.12" stroke="black" stroke-width="1.45" stroke-miterlimit="10"/>
<path d="M460.733 523.893L632.047 419.113" stroke="black" stroke-width="1.45" stroke-miterlimit="10"/>
<path d="M819.707 268.06L784.22 279.68L795.407 307.707L835.373 299.714L784.22 279.68L709.62 259.64L611.573 246.427L533.56 236.2L468.34 246L416.333 266.467L330.646 319.327" stroke="black" stroke-width="1.45" stroke-miterlimit="10"/>
<path d="M807.666 347.887L793.493 319.54L794.767 306.427" stroke="black" stroke-width="1.45" stroke-miterlimit="10"/>
<path d="M584.713 212.753L531.853 236.2L510.113 280.96L504.22 321.873L513.426 379.987L562.12 415.667L550.106 495.507" stroke="black" stroke-width="1.45" stroke-miterlimit="10"/>
<path d="M492.213 226.82L465.78 246.853L433.386 285.646L426.986 327L513.426 379.986L437.58 477.96L368.16 475.773L308.906 422.06L321.266 356.84L332.353 318.046" stroke="black" stroke-width="1.45" stroke-miterlimit="10"/>
<path d="M359.213 503.48L321.266 494.527L268.833 471.933L276.506 412.68L277.786 379.427" stroke="black" stroke-width="1.45" stroke-miterlimit="10"/>
<path d="M330.646 532.04L288.873 534.173L258.607 513.287L250.507 465.967L241.34 453.18" stroke="black" stroke-width="1.45" stroke-miterlimit="10"/>
<path d="M672.533 468.953L686.173 440.813L733.547 438.953L708.34 387.953" stroke="black" stroke-width="1.45" stroke-miterlimit="10"/>
<path d="M157.573 691.687L167.167 769.7L227.487 630.513" stroke="black" stroke-width="1.45" stroke-miterlimit="10"/>
<path d="M361.553 696.8L259.887 680.813" stroke="black" stroke-width="1.45" stroke-miterlimit="10"/>
<path d="M324.467 630.94L259.887 680.813" stroke="black" stroke-width="1.45" stroke-miterlimit="10"/>
<path d="M157.573 691.687L259.887 680.813" stroke="black" stroke-width="1.45" stroke-miterlimit="10"/>
<path d="M249.653 733.886L157.573 691.687" stroke="black" stroke-width="1.45" stroke-miterlimit="10"/>
<path d="M562.12 415.667L368.16 475.773" stroke="black" stroke-width="1.45" stroke-miterlimit="10"/>
<path d="M359.207 503.48L368.16 475.773" stroke="black" stroke-width="1.45" stroke-miterlimit="10"/>
<path d="M227.486 630.513L289.3 534.547L280.773 619.854" stroke="black" stroke-width="1.45" stroke-miterlimit="10"/>
<path d="M329.213 533.9L321.266 494.527L308.906 422.06L513.1 381.133L655.693 311.867" stroke="black" stroke-width="1.45" stroke-miterlimit="10"/>
<path d="M784.22 279.68L733.44 300.754" stroke="black" stroke-width="1.45" stroke-miterlimit="10"/>
<path d="M638.747 396.587L645.947 369.14" stroke="black" stroke-width="1.45" stroke-miterlimit="10"/>
<path d="M433.387 285.647L531.853 236.2" stroke="black" stroke-width="1.45" stroke-miterlimit="10"/>
<path d="M433.807 246.64L415.273 267.114" stroke="black" stroke-width="1.45" stroke-miterlimit="10"/>
<path d="M465.846 246.813L321.333 356.793" stroke="black" stroke-width="1.45" stroke-miterlimit="10"/>
<path d="M733.44 300.753L714.587 319.493" stroke="black" stroke-width="1.45" stroke-miterlimit="10"/>
<path d="M646.007 369.093L656.5 312.213" stroke="black" stroke-width="1.45" stroke-miterlimit="10"/>
<path d="M686.094 440.44L728.027 380.227" stroke="black" stroke-width="1.45" stroke-miterlimit="10"/>
<path d="M369.44 224.687L332.78 316.34" stroke="black" stroke-width="1.45" stroke-miterlimit="10"/>
<path d="M354.96 260.133L432.893 247.653" stroke="black" stroke-width="1.45" stroke-miterlimit="10"/>
<path d="M354.96 260.133L295.693 230.227" stroke="black" stroke-width="1.45" stroke-miterlimit="10"/>
<path d="M881.413 313.94L859.246 322.04" stroke="black" stroke-width="1.45" stroke-miterlimit="10"/>
<path d="M585.073 415.733L631.693 419.627" stroke="black" stroke-width="1.45" stroke-miterlimit="10"/>
<path d="M733.44 300.754L656.054 311.34L572 278.234L531.854 236.2" stroke="black" stroke-width="1.45" stroke-miterlimit="10"/>
<path d="M657.073 311.92L714.52 319.54L709.827 364.033" stroke="black" stroke-width="1.45" stroke-miterlimit="10"/>
<path d="M321.267 356.84L342.16 386.68" stroke="black" stroke-width="1.45" stroke-miterlimit="10"/>
<path d="M259.607 680.88L249.934 733.72" stroke="black" stroke-width="1.45" stroke-miterlimit="10"/>
<path d="M289.3 534.547L321.266 494.527L368.16 475.773L513.673 380.08L711.006 363.98" stroke="black" stroke-width="1.45" stroke-miterlimit="10"/>
<path d="M806.106 347.867L859.246 321.88" stroke="black" stroke-width="1.45" stroke-miterlimit="10"/>
<path d="M784.219 279.68L763.053 238.773" stroke="black" stroke-width="1.45" stroke-miterlimit="10"/>
<path d="M533.561 236.2L763.054 238.774" stroke="black" stroke-width="1.45" stroke-miterlimit="10"/>
<path d="M652.667 312C652.699 312.738 652.949 313.449 653.385 314.044C653.822 314.639 654.425 315.092 655.118 315.345C655.812 315.597 656.565 315.639 657.282 315.464C657.999 315.289 658.648 314.905 659.147 314.361C659.646 313.817 659.973 313.138 660.086 312.409C660.199 311.679 660.093 310.933 659.782 310.263C659.471 309.594 658.968 309.032 658.338 308.648C657.707 308.264 656.977 308.076 656.24 308.107C655.75 308.127 655.268 308.244 654.823 308.451C654.378 308.658 653.978 308.951 653.646 309.312C653.314 309.674 653.057 310.098 652.889 310.559C652.721 311.02 652.645 311.51 652.667 312Z" fill="black"/>
<path d="M830.473 298.387C830.505 299.124 830.755 299.836 831.192 300.431C831.628 301.026 832.231 301.479 832.925 301.731C833.618 301.984 834.371 302.025 835.088 301.85C835.805 301.675 836.454 301.292 836.953 300.748C837.452 300.204 837.779 299.525 837.892 298.795C838.005 298.066 837.899 297.319 837.588 296.65C837.277 295.981 836.775 295.419 836.144 295.035C835.514 294.651 834.784 294.463 834.046 294.494C833.057 294.537 832.124 294.971 831.454 295.701C830.784 296.431 830.431 297.397 830.473 298.387Z" fill="black"/>
<path d="M759.5 238.28C759.534 239.016 759.784 239.725 760.22 240.318C760.657 240.911 761.259 241.362 761.95 241.613C762.642 241.864 763.393 241.905 764.109 241.73C764.824 241.556 765.471 241.173 765.969 240.63C766.466 240.088 766.793 239.41 766.906 238.683C767.019 237.955 766.914 237.211 766.604 236.543C766.294 235.875 765.794 235.314 765.165 234.93C764.537 234.546 763.809 234.357 763.074 234.387C762.084 234.43 761.152 234.864 760.482 235.594C759.812 236.324 759.459 237.29 759.5 238.28Z" fill="black"/>
<path d="M487.74 227.087C487.772 227.824 488.023 228.535 488.459 229.13C488.895 229.726 489.498 230.178 490.192 230.431C490.885 230.684 491.638 230.725 492.355 230.55C493.072 230.375 493.721 229.991 494.22 229.448C494.72 228.904 495.046 228.224 495.159 227.495C495.272 226.766 495.167 226.019 494.855 225.35C494.544 224.68 494.042 224.118 493.411 223.734C492.781 223.351 492.051 223.162 491.314 223.193C490.823 223.213 490.341 223.329 489.895 223.536C489.45 223.743 489.05 224.035 488.717 224.397C488.385 224.759 488.128 225.183 487.96 225.644C487.793 226.106 487.718 226.596 487.74 227.087Z" fill="black"/>
<path d="M577.687 213.446C577.719 214.184 577.97 214.895 578.406 215.49C578.842 216.086 579.445 216.538 580.139 216.791C580.832 217.044 581.585 217.085 582.302 216.91C583.019 216.735 583.668 216.351 584.167 215.808C584.667 215.264 584.993 214.584 585.106 213.855C585.219 213.125 585.114 212.379 584.802 211.71C584.491 211.04 583.989 210.478 583.358 210.094C582.728 209.711 581.998 209.522 581.261 209.553C580.77 209.574 580.289 209.691 579.843 209.898C579.398 210.104 578.998 210.397 578.666 210.759C578.335 211.12 578.077 211.544 577.909 212.005C577.741 212.466 577.666 212.956 577.687 213.446Z" fill="black"/>
<path d="M365.82 224.527C365.851 225.264 366.1 225.976 366.536 226.573C366.971 227.169 367.574 227.622 368.267 227.876C368.961 228.13 369.714 228.172 370.432 227.998C371.149 227.824 371.799 227.44 372.299 226.897C372.798 226.353 373.126 225.674 373.239 224.944C373.353 224.214 373.247 223.468 372.936 222.798C372.625 222.128 372.123 221.566 371.492 221.182C370.862 220.797 370.131 220.609 369.394 220.64C368.405 220.685 367.475 221.119 366.806 221.847C366.137 222.575 365.782 223.538 365.82 224.527Z" fill="black"/>
<path d="M247.126 733.014C247.157 733.751 247.406 734.463 247.842 735.059C248.278 735.656 248.88 736.109 249.574 736.363C250.267 736.617 251.02 736.659 251.738 736.485C252.455 736.31 253.105 735.927 253.605 735.384C254.104 734.84 254.432 734.161 254.545 733.431C254.659 732.701 254.553 731.954 254.243 731.285C253.932 730.615 253.429 730.053 252.798 729.668C252.168 729.284 251.437 729.096 250.7 729.127C249.71 729.168 248.778 729.601 248.108 730.33C247.438 731.059 247.085 732.024 247.126 733.014Z" fill="black"/>
<path d="M430.827 285.913C430.863 286.649 431.116 287.359 431.555 287.951C431.993 288.544 432.598 288.993 433.291 289.243C433.985 289.492 434.737 289.531 435.452 289.354C436.168 289.177 436.815 288.792 437.312 288.247C437.809 287.703 438.134 287.024 438.246 286.295C438.357 285.566 438.251 284.821 437.939 284.153C437.628 283.484 437.125 282.923 436.495 282.54C435.866 282.157 435.136 281.969 434.4 282C433.411 282.041 432.478 282.474 431.808 283.203C431.138 283.932 430.785 284.897 430.827 285.886" fill="black"/>
<path d="M428.913 246.907C428.945 247.643 429.195 248.352 429.63 248.946C430.066 249.541 430.667 249.992 431.359 250.245C432.051 250.497 432.802 250.539 433.518 250.365C434.233 250.191 434.881 249.808 435.38 249.266C435.878 248.724 436.205 248.046 436.318 247.318C436.432 246.591 436.327 245.846 436.018 245.177C435.708 244.509 435.208 243.948 434.579 243.564C433.951 243.18 433.222 242.991 432.487 243.02C431.498 243.063 430.567 243.497 429.897 244.225C429.227 244.954 428.873 245.918 428.913 246.907Z" fill="black"/>
<path d="M293.673 229.647C293.707 230.382 293.958 231.091 294.394 231.684C294.83 232.278 295.432 232.728 296.124 232.98C296.816 233.231 297.566 233.272 298.282 233.097C298.997 232.922 299.644 232.539 300.142 231.997C300.64 231.455 300.966 230.777 301.079 230.05C301.192 229.322 301.087 228.577 300.777 227.909C300.467 227.242 299.967 226.68 299.339 226.297C298.71 225.913 297.982 225.724 297.247 225.753C296.756 225.774 296.275 225.891 295.83 226.098C295.385 226.305 294.985 226.598 294.653 226.959C294.321 227.321 294.064 227.744 293.895 228.205C293.727 228.667 293.652 229.156 293.673 229.647Z" fill="black"/>
<path d="M328.84 316.287C328.872 317.024 329.122 317.735 329.558 318.331C329.995 318.926 330.598 319.379 331.291 319.631C331.985 319.884 332.737 319.925 333.455 319.75C334.172 319.575 334.821 319.192 335.32 318.648C335.819 318.104 336.146 317.425 336.259 316.695C336.372 315.966 336.266 315.219 335.955 314.55C335.644 313.881 335.141 313.319 334.511 312.935C333.88 312.551 333.15 312.362 332.413 312.393C331.922 312.414 331.441 312.531 330.996 312.738C330.551 312.945 330.151 313.237 329.819 313.599C329.487 313.961 329.23 314.384 329.062 314.845C328.893 315.307 328.818 315.796 328.84 316.287Z" fill="black"/>
<path d="M273.206 381.513C273.239 382.251 273.489 382.962 273.925 383.557C274.362 384.153 274.965 384.605 275.658 384.858C276.352 385.11 277.104 385.152 277.821 384.977C278.539 384.802 279.188 384.418 279.687 383.874C280.186 383.331 280.512 382.651 280.625 381.922C280.739 381.192 280.633 380.446 280.322 379.777C280.011 379.107 279.508 378.545 278.878 378.161C278.247 377.777 277.517 377.589 276.78 377.62C275.79 377.663 274.858 378.098 274.188 378.827C273.518 379.557 273.165 380.523 273.206 381.513Z" fill="black"/>
<path d="M154.594 690.993C154.625 691.731 154.874 692.443 155.309 693.039C155.745 693.636 156.347 694.089 157.041 694.343C157.734 694.597 158.487 694.639 159.205 694.465C159.922 694.29 160.572 693.907 161.072 693.364C161.572 692.82 161.899 692.14 162.013 691.411C162.126 690.681 162.021 689.934 161.71 689.265C161.399 688.595 160.896 688.032 160.266 687.648C159.635 687.264 158.905 687.076 158.167 687.107C157.179 687.152 156.249 687.586 155.579 688.314C154.91 689.042 154.556 690.005 154.594 690.993Z" fill="black"/>
<path d="M223.333 629.607C223.364 630.344 223.613 631.056 224.049 631.653C224.484 632.249 225.087 632.702 225.78 632.956C226.474 633.21 227.227 633.252 227.944 633.078C228.662 632.904 229.311 632.52 229.811 631.977C230.311 631.433 230.638 630.754 230.752 630.024C230.865 629.295 230.76 628.548 230.449 627.878C230.138 627.208 229.636 626.646 229.005 626.262C228.374 625.878 227.644 625.689 226.906 625.72C225.918 625.765 224.988 626.199 224.319 626.927C223.649 627.655 223.295 628.618 223.333 629.607Z" fill="black"/>
<path d="M105.04 817.28C105.071 818.018 105.32 818.73 105.756 819.326C106.191 819.922 106.794 820.376 107.487 820.63C108.181 820.883 108.934 820.926 109.652 820.751C110.369 820.577 111.019 820.194 111.519 819.65C112.018 819.107 112.346 818.427 112.459 817.698C112.573 816.968 112.467 816.221 112.156 815.551C111.845 814.882 111.343 814.319 110.712 813.935C110.082 813.551 109.351 813.362 108.613 813.393C107.625 813.437 106.694 813.87 106.024 814.599C105.354 815.327 105 816.291 105.04 817.28Z" fill="black"/>
<path d="M356.666 696.433C356.699 697.171 356.949 697.882 357.385 698.477C357.822 699.072 358.425 699.525 359.118 699.778C359.812 700.03 360.564 700.072 361.281 699.897C361.998 699.722 362.648 699.338 363.147 698.794C363.646 698.251 363.972 697.571 364.086 696.842C364.199 696.112 364.093 695.366 363.782 694.696C363.471 694.027 362.968 693.465 362.338 693.081C361.707 692.697 360.977 692.509 360.24 692.54C359.25 692.583 358.318 693.017 357.648 693.747C356.978 694.477 356.625 695.443 356.666 696.433Z" fill="black"/>
<path d="M355.373 503.333C355.404 504.071 355.653 504.783 356.089 505.379C356.525 505.975 357.127 506.429 357.821 506.683C358.514 506.936 359.267 506.979 359.985 506.805C360.702 506.63 361.352 506.247 361.852 505.703C362.352 505.16 362.679 504.48 362.792 503.751C362.906 503.021 362.801 502.274 362.49 501.605C362.179 500.935 361.676 500.372 361.045 499.988C360.415 499.604 359.684 499.416 358.947 499.447C357.957 499.488 357.025 499.921 356.355 500.65C355.685 501.379 355.332 502.344 355.373 503.333Z" fill="black"/>
<path d="M458 523.787C458.033 524.524 458.283 525.235 458.719 525.831C459.156 526.426 459.759 526.879 460.452 527.131C461.146 527.384 461.898 527.425 462.615 527.25C463.332 527.075 463.981 526.692 464.481 526.148C464.98 525.604 465.306 524.925 465.419 524.195C465.532 523.466 465.427 522.719 465.116 522.05C464.805 521.381 464.302 520.819 463.672 520.435C463.041 520.051 462.311 519.862 461.574 519.893C460.584 519.937 459.652 520.371 458.982 521.101C458.312 521.831 457.959 522.797 458 523.787Z" fill="black"/>
<path d="M548 495.007C548.031 495.744 548.28 496.456 548.716 497.053C549.151 497.649 549.754 498.102 550.447 498.356C551.141 498.61 551.894 498.652 552.611 498.478C553.329 498.304 553.979 497.92 554.478 497.377C554.978 496.833 555.306 496.154 555.419 495.424C555.533 494.694 555.427 493.948 555.116 493.278C554.805 492.608 554.303 492.046 553.672 491.662C553.041 491.277 552.311 491.089 551.573 491.12C550.585 491.163 549.654 491.597 548.984 492.325C548.314 493.054 547.96 494.018 548 495.007Z" fill="black"/>
<path d="M557.12 416.467C557.153 417.203 557.404 417.912 557.841 418.505C558.277 419.098 558.879 419.549 559.572 419.8C560.264 420.051 561.015 420.092 561.73 419.916C562.446 419.741 563.093 419.357 563.59 418.814C564.088 418.271 564.413 417.593 564.526 416.865C564.638 416.137 564.532 415.392 564.221 414.725C563.911 414.057 563.409 413.496 562.78 413.113C562.151 412.731 561.422 412.543 560.686 412.574C560.197 412.595 559.716 412.713 559.271 412.92C558.827 413.127 558.428 413.42 558.097 413.782C557.766 414.143 557.509 414.566 557.341 415.027C557.174 415.488 557.098 415.977 557.12 416.467Z" fill="black"/>
<path d="M628.254 420C628.285 420.738 628.534 421.45 628.969 422.046C629.405 422.642 630.008 423.096 630.701 423.349C631.395 423.603 632.148 423.645 632.865 423.471C633.583 423.297 634.232 422.914 634.732 422.37C635.232 421.826 635.559 421.147 635.673 420.417C635.786 419.688 635.681 418.941 635.37 418.271C635.059 417.601 634.556 417.039 633.926 416.655C633.295 416.271 632.565 416.082 631.827 416.113C630.839 416.158 629.909 416.592 629.239 417.32C628.57 418.048 628.216 419.012 628.254 420Z" fill="black"/>
<path d="M802.487 348.22C802.518 348.958 802.767 349.67 803.203 350.266C803.638 350.862 804.241 351.316 804.934 351.569C805.628 351.823 806.381 351.866 807.099 351.691C807.816 351.517 808.466 351.134 808.965 350.59C809.465 350.047 809.793 349.367 809.906 348.637C810.02 347.908 809.914 347.161 809.603 346.491C809.292 345.821 808.79 345.259 808.159 344.875C807.529 344.491 806.798 344.302 806.06 344.333C805.072 344.378 804.142 344.812 803.473 345.54C802.803 346.268 802.449 347.232 802.487 348.22Z" fill="black"/>
<path d="M887.213 334.153C887.244 334.891 887.493 335.603 887.929 336.199C888.364 336.795 888.967 337.249 889.66 337.503C890.354 337.756 891.107 337.799 891.824 337.624C892.542 337.45 893.192 337.067 893.691 336.523C894.191 335.98 894.518 335.3 894.632 334.571C894.745 333.841 894.64 333.094 894.329 332.424C894.018 331.755 893.516 331.192 892.885 330.808C892.254 330.424 891.524 330.235 890.786 330.266C889.798 330.31 888.867 330.743 888.197 331.472C887.527 332.2 887.173 333.164 887.213 334.153Z" fill="black"/>
<path d="M875.06 341.826C875.091 342.564 875.34 343.276 875.776 343.872C876.211 344.469 876.814 344.922 877.507 345.176C878.201 345.43 878.954 345.472 879.671 345.298C880.389 345.123 881.039 344.74 881.538 344.197C882.038 343.653 882.365 342.973 882.479 342.244C882.593 341.514 882.487 340.767 882.176 340.098C881.865 339.428 881.363 338.865 880.732 338.481C880.101 338.097 879.371 337.909 878.633 337.94C877.644 337.981 876.712 338.414 876.042 339.143C875.372 339.872 875.018 340.837 875.06 341.826Z" fill="black"/>
<path d="M856.52 322.327C856.552 323.064 856.802 323.775 857.239 324.371C857.675 324.966 858.278 325.419 858.972 325.671C859.665 325.924 860.418 325.965 861.135 325.79C861.852 325.615 862.501 325.232 863 324.688C863.499 324.144 863.826 323.465 863.939 322.735C864.052 322.006 863.946 321.259 863.635 320.59C863.324 319.921 862.822 319.359 862.191 318.975C861.561 318.591 860.831 318.403 860.093 318.433C859.103 318.477 858.171 318.911 857.501 319.641C856.831 320.371 856.478 321.337 856.52 322.327Z" fill="black"/>
<path d="M791.087 308.153C791.12 308.889 791.371 309.598 791.807 310.191C792.243 310.784 792.845 311.235 793.537 311.486C794.229 311.738 794.98 311.778 795.695 311.603C796.41 311.429 797.057 311.046 797.555 310.503C798.053 309.961 798.379 309.283 798.492 308.556C798.605 307.828 798.5 307.084 798.19 306.416C797.881 305.748 797.38 305.187 796.752 304.803C796.123 304.419 795.395 304.23 794.66 304.26C794.169 304.28 793.688 304.397 793.243 304.604C792.798 304.811 792.398 305.104 792.066 305.465C791.734 305.827 791.477 306.251 791.309 306.712C791.141 307.173 791.065 307.663 791.087 308.153Z" fill="black"/>
<path d="M706.36 260.513C706.392 261.251 706.642 261.962 707.079 262.557C707.515 263.153 708.118 263.605 708.812 263.858C709.505 264.11 710.258 264.152 710.975 263.977C711.692 263.802 712.341 263.418 712.84 262.874C713.339 262.331 713.666 261.651 713.779 260.922C713.892 260.192 713.786 259.446 713.475 258.777C713.164 258.107 712.662 257.545 712.031 257.161C711.401 256.777 710.671 256.589 709.933 256.62C709.443 256.641 708.961 256.758 708.516 256.965C708.071 257.171 707.671 257.464 707.339 257.826C707.007 258.187 706.75 258.611 706.582 259.072C706.414 259.533 706.339 260.023 706.36 260.513Z" fill="black"/>
<path d="M667.566 468.54C667.597 469.278 667.846 469.99 668.282 470.586C668.718 471.182 669.32 471.636 670.014 471.889C670.707 472.143 671.46 472.185 672.178 472.011C672.895 471.837 673.545 471.454 674.045 470.91C674.544 470.366 674.872 469.687 674.985 468.957C675.099 468.228 674.993 467.481 674.682 466.811C674.371 466.141 673.869 465.579 673.238 465.195C672.608 464.811 671.877 464.622 671.14 464.653C670.152 464.698 669.221 465.132 668.552 465.86C667.883 466.588 667.528 467.552 667.566 468.54Z" fill="black"/>
<path d="M656.047 311.34L733.44 300.753" stroke="black" stroke-width="2.9" stroke-miterlimit="10"/>
</svg>
