<svg xmlns="http://www.w3.org/2000/svg" width="499" height="512" viewBox="0 0 499 512">
  <g fill="#FFF" fill-rule="evenodd" transform="translate(59)">
    <path d="M61.5405405 477.44077L61.5405405 477.176261C61.5405405 461.142241 49.5225225 448.368888 34.1072701 448.368888 18.2968783 448.368888 6.92457574 461.276899 6.92457574 476.926181L6.92457574 477.176261C6.92457574 493.219901 18.9474125 505.993254 34.3578462 505.993254 50.1730568 505.993254 61.5405405 493.090051 61.5405405 477.44077M0 477.44077L0 477.176261C0 458.540439 14.5045045 442.376569 34.3578462 442.376569 54.1003562 442.376569 68.4651163 458.28074 68.4651163 476.926181L68.4651163 477.176261C68.4651163 495.821702 53.9606118 512 34.1072701 512 14.3743977 512 0 496.08621 0 477.44077M83.4418605 477.44077L83.4418605 477.176261C83.4418605 458.540439 98.2967719 442.376569 117.318363 442.376569 129.82321 442.376569 137.642343 448.104379 143.899572 454.630524L139.338811 459.309919C133.605421 453.457068 127.08387 448.368888 117.183799 448.368888 102.074177 448.368888 90.3478804 461.012391 90.3478804 476.926181L90.3478804 477.176261C90.3478804 493.219901 102.463452 505.993254 117.707638 505.993254 127.08387 505.993254 134.379164 501.1792 139.987602 494.912755L144.418605 498.82748C137.642343 506.512652 129.558887 512 117.318363 512 98.1622078 512 83.4418605 496.08621 83.4418605 477.44077M211.324614 474.050253C210.411246 460.627651 202.724536 448.234229 187.476102 448.234229 174.304378 448.234229 164.146767 459.314728 162.969004 474.050253L211.324614 474.050253zM156.186047 477.320539L156.186047 477.046412C156.186047 457.751723 169.751961 442.376569 187.730883 442.376569 206.373199 442.376569 218.232558 457.496833 218.232558 477.176261 218.232558 478.354526 218.232558 478.748884 218.102764 479.787681L162.969004 479.787681C164.146767 496.350719 175.996512 505.998063 189.043249 505.998063 199.325846 505.998063 206.373199 501.438899 211.838984 495.571621L216.271221 499.486346C209.493071 506.786779 201.551579 512 188.778853 512 171.3143 512 156.186047 498.043573 156.186047 477.320539zM282.658045 485.33581L282.658045 477.704319C277.016409 476.265237 269.539426 474.695331 259.95591 474.695331 245.771918 474.695331 237.892999 480.99434 237.892999 490.321718L237.892999 490.583369C237.892999 500.303225 247.079421 505.952951 257.331217 505.952951 270.982523 505.952951 282.658045 497.551042 282.658045 485.33581M231.069767 490.971001L231.069767 490.714195C231.069767 476.783694 243.011633 468.905088 260.353003 468.905088 269.665334 468.905088 276.101157 470.092209 282.536979 471.807477L282.536979 468.905088C282.536979 455.367064 274.256124 448.413927 260.478911 448.413927 252.328806 448.413927 245.641168 450.652498 239.471688 453.806848L237.103654 448.14743C244.459572 444.74112 251.684739 442.376569 260.876005 442.376569 269.926835 442.376569 277.147159 444.8671 282.009135 449.731873 286.474018 454.199324 288.837209 460.372353 288.837209 468.648282L288.837209 510.420402 282.536979 510.420402 282.536979 499.251775C277.941347 505.686455 269.665334 512 256.934124 512 244.459572 512 231.069767 504.906347 231.069767 490.971001M311.302326 443.946247L317.671184 443.946247 317.671184 456.421313C322.068615 448.534164 329.466253 442.376569 341.534067 442.376569 358.262489 442.376569 368 453.931144 368 469.957364L368 510.92887 361.645497 510.92887 361.645497 471.139467C361.645497 457.346648 353.989468 448.277396 340.629699 448.277396 327.652731 448.277396 317.671184 458.267138 317.671184 472.181075L317.671184 510.92887 311.302326 510.92887 311.302326 443.946247zM47.0697674 179.409443C47.0697674 190.352909 38.2160343 199.230126 27.2790698 199.230126 16.3516614 199.230126 7.48837209 190.352909 7.48837209 179.409443 7.48837209 168.465977 16.3516614 159.598326 27.2790698 159.598326 38.2160343 159.598326 47.0697674 168.465977 47.0697674 179.409443M361.581395 179.409443C361.581395 190.352909 352.718106 199.230126 341.795476 199.230126 330.863289 199.230126 322 190.352909 322 179.409443 322 168.465977 330.863289 159.598326 341.795476 159.598326 352.718106 159.598326 361.581395 168.465977 361.581395 179.409443M204.325581 257.604303C204.325581 268.546448 195.463362 277.422594 184.537272 277.422594 173.606406 277.422594 164.744186 268.546448 164.744186 257.604303 164.744186 246.662158 173.606406 237.790795 184.537272 237.790795 195.463362 237.790795 204.325581 246.662158 204.325581 257.604303M125.162791 219.046025C125.162791 229.984708 116.305349 238.861925 105.369704 238.861925 94.4388373 238.861925 85.5813953 229.984708 85.5813953 219.046025 85.5813953 208.097776 94.4388373 199.230126 105.369704 199.230126 116.305349 199.230126 125.162791 208.097776 125.162791 219.046025M282.418605 219.046025C282.418605 229.984708 273.556385 238.861925 262.630296 238.861925 251.694651 238.861925 242.837209 229.984708 242.837209 219.046025 242.837209 208.097776 251.694651 199.230126 262.630296 199.230126 273.556385 199.230126 282.418605 208.097776 282.418605 219.046025M40.6511628 239.402311C40.6511628 246.783926 34.669481 252.786611 27.286294 252.786611 19.8934747 252.786611 13.9069767 246.783926 13.9069767 239.402311 13.9069767 232.00141 19.8934747 226.008368 27.286294 226.008368 34.669481 226.008368 40.6511628 232.00141 40.6511628 239.402311M355.162791 239.402311C355.162791 246.783926 349.172555 252.786611 341.790698 252.786611 334.404025 252.786611 328.418605 246.783926 328.418605 239.402311 328.418605 232.00141 334.404025 226.008368 341.790698 226.008368 349.172555 226.008368 355.162791 232.00141 355.162791 239.402311M197.906977 318.651445C197.906977 326.047524 191.914084 332.050209 184.539697 332.050209 177.160497 332.050209 171.162791 326.047524 171.162791 318.651445 171.162791 311.260187 177.160497 305.271967 184.539697 305.271967 191.914084 305.271967 197.906977 311.260187 197.906977 318.651445M118.744186 279.034112C118.744186 286.428032 112.758766 292.41841 105.376908 292.41841 97.9902354 292.41841 92 286.428032 92 279.034112 92 271.635368 97.9902354 265.640167 105.376908 265.640167 112.758766 265.640167 118.744186 271.635368 118.744186 279.034112M276 279.034112C276 286.428032 270.006029 292.41841 262.635129 292.41841 255.244971 292.41841 249.255814 286.428032 249.255814 279.034112 249.255814 271.635368 255.244971 265.640167 262.635129 265.640167 270.006029 265.640167 276 271.635368 276 279.034112M34.2325581 286.519798C34.2325581 290.372146 31.1213336 293.48954 27.2815312 293.48954 23.4368059 293.48954 20.3255814 290.372146 20.3255814 286.519798 20.3255814 282.677314 23.4368059 279.564854 27.2815312 279.564854 31.1213336 279.564854 34.2325581 282.677314 34.2325581 286.519798M348.744186 286.519798C348.744186 290.372146 345.625831 293.48954 341.793161 293.48954 337.945712 293.48954 334.837209 290.372146 334.837209 286.519798 334.837209 282.677314 337.945712 279.564854 341.793161 279.564854 345.625831 279.564854 348.744186 282.677314 348.744186 286.519798M191.488372 365.785864C191.488372 369.631918 188.370017 372.753138 184.537347 372.753138 180.694824 372.753138 177.581395 369.631918 177.581395 365.785864 177.581395 361.939811 180.694824 358.828452 184.537347 358.828452 188.370017 358.828452 191.488372 361.939811 191.488372 365.785864M112.325581 326.158996C112.325581 330.000119 109.209434 333.121339 105.369632 333.121339 101.534752 333.121339 98.4186047 330.000119 98.4186047 326.158996 98.4186047 322.308011 101.534752 319.196653 105.369632 319.196653 109.209434 319.196653 112.325581 322.308011 112.325581 326.158996M269.581395 326.158996C269.581395 330.000119 266.46304 333.121339 262.63037 333.121339 258.777995 333.121339 255.674419 330.000119 255.674419 326.158996 255.674419 322.308011 258.777995 319.196653 262.63037 319.196653 266.46304 319.196653 269.581395 322.308011 269.581395 326.158996M210.744186 26.7787227C210.744186 41.571099 198.76839 53.5564854 184.007191 53.5564854 169.23161 53.5564854 157.255814 41.571099 157.255814 26.7787227 157.255814 11.9901863 169.23161 0 184.007191 0 198.76839 0 210.744186 11.9901863 210.744186 26.7787227M210.744186 106.041841C210.744186 120.832261 198.76839 132.820084 184.007191 132.820084 169.23161 132.820084 157.255814 120.832261 157.255814 106.041841 157.255814 91.2562199 169.23161 79.2635983 184.007191 79.2635983 198.76839 79.2635983 210.744186 91.2562199 210.744186 106.041841M210.744186 184.239109C210.744186 199.022581 198.76839 211.012552 184.007191 211.012552 169.23161 211.012552 157.255814 199.022581 157.255814 184.239109 157.255814 169.446038 169.23161 157.456067 184.007191 157.456067 198.76839 157.456067 210.744186 169.446038 210.744186 184.239109M368 106.041841C368 120.832261 356.026351 132.820084 341.258211 132.820084 326.485277 132.820084 314.511628 120.832261 314.511628 106.041841 314.511628 91.2562199 326.485277 79.2635983 341.258211 79.2635983 356.026351 79.2635983 368 91.2562199 368 106.041841M53.4883721 106.041841C53.4883721 120.832261 41.5173705 132.820084 26.7465831 132.820084 11.9757958 132.820084 0 120.832261 0 106.041841 0 91.2562199 11.9757958 79.2635983 26.7465831 79.2635983 41.5173705 79.2635983 53.4883721 91.2562199 53.4883721 106.041841M132.651163 66.4100418C132.651163 81.1983132 120.679088 93.1882845 105.906977 93.1882845 91.1348654 93.1882845 79.1627907 81.1983132 79.1627907 66.4100418 79.1627907 51.6121709 91.1348654 39.6317992 105.906977 39.6317992 120.679088 39.6317992 132.651163 51.6121709 132.651163 66.4100418M132.651163 144.60011C132.651163 159.389707 120.679088 171.380753 105.906977 171.380753 91.1348654 171.380753 79.1627907 159.389707 79.1627907 144.60011 79.1627907 129.815314 91.1348654 117.824268 105.906977 117.824268 120.679088 117.824268 132.651163 129.815314 132.651163 144.60011M289.906977 66.4100418C289.906977 81.1983132 277.931181 93.1882845 263.160394 93.1882845 248.389606 93.1882845 236.418605 81.1983132 236.418605 66.4100418 236.418605 51.6121709 248.389606 39.6317992 263.160394 39.6317992 277.931181 39.6317992 289.906977 51.6121709 289.906977 66.4100418M289.906977 144.60011C289.906977 159.389707 277.931181 171.380753 263.160394 171.380753 248.389606 171.380753 236.418605 159.389707 236.418605 144.60011 236.418605 129.815314 248.389606 117.824268 263.160394 117.824268 277.931181 117.824268 289.906977 129.815314 289.906977 144.60011"/>
  </g>
</svg>
