<svg width="1000" height="1000" viewBox="0 0 1000 1000" fill="none" xmlns="http://www.w3.org/2000/svg">
<path d="M380.82 362.267L388.154 351.947" stroke="#41474E" stroke-width="1.62" stroke-miterlimit="10"/>
<path d="M125.42 487.5C125.071 488.279 124.498 488.938 123.775 489.392C123.052 489.846 122.211 490.076 121.357 490.052C120.503 490.028 119.676 489.752 118.979 489.258C118.283 488.765 117.748 488.075 117.443 487.278C117.137 486.48 117.075 485.61 117.264 484.778C117.453 483.945 117.885 483.187 118.505 482.599C119.124 482.012 119.904 481.621 120.746 481.476C121.587 481.332 122.453 481.44 123.233 481.787C123.752 482.018 124.221 482.349 124.612 482.761C125.003 483.174 125.309 483.659 125.512 484.19C125.715 484.72 125.811 485.286 125.796 485.854C125.78 486.422 125.652 486.981 125.42 487.5Z" fill="#41474E"/>
<path d="M113.546 499.487C113.198 500.268 112.625 500.929 111.901 501.385C111.177 501.841 110.334 502.072 109.478 502.049C108.623 502.026 107.793 501.749 107.095 501.255C106.396 500.76 105.86 500.07 105.554 499.27C105.248 498.471 105.186 497.599 105.376 496.765C105.566 495.93 105.999 495.171 106.62 494.582C107.242 493.994 108.024 493.603 108.867 493.459C109.711 493.315 110.578 493.424 111.36 493.773C112.407 494.241 113.226 495.106 113.636 496.177C114.046 497.249 114.014 498.439 113.546 499.487Z" fill="#41474E"/>
<path d="M106.227 531.56C105.878 532.342 105.306 533.002 104.582 533.458C103.857 533.914 103.014 534.146 102.159 534.122C101.303 534.099 100.474 533.823 99.7755 533.328C99.077 532.834 98.541 532.143 98.2351 531.344C97.9292 530.545 97.8672 529.673 98.0569 528.838C98.2467 528.004 98.6796 527.244 99.301 526.656C99.9225 526.067 100.704 525.676 101.548 525.532C102.392 525.388 103.259 525.498 104.04 525.847C105.087 526.316 105.904 527.181 106.314 528.252C106.724 529.323 106.693 530.512 106.227 531.56Z" fill="#41474E"/>
<path d="M115.727 563.64C115.377 564.421 114.804 565.08 114.079 565.535C113.355 565.99 112.512 566.221 111.657 566.197C110.802 566.173 109.973 565.896 109.275 565.401C108.577 564.906 108.042 564.216 107.736 563.417C107.431 562.618 107.369 561.746 107.559 560.912C107.749 560.078 108.182 559.318 108.803 558.73C109.424 558.142 110.205 557.751 111.048 557.607C111.892 557.463 112.759 557.572 113.54 557.92C114.059 558.152 114.528 558.483 114.919 558.896C115.31 559.309 115.616 559.795 115.819 560.327C116.022 560.858 116.119 561.424 116.103 561.993C116.087 562.561 115.959 563.121 115.727 563.64Z" fill="#41474E"/>
<path d="M129.74 594.153C129.391 594.935 128.819 595.596 128.094 596.052C127.37 596.508 126.527 596.739 125.672 596.716C124.816 596.693 123.987 596.416 123.288 595.922C122.59 595.427 122.054 594.736 121.748 593.937C121.442 593.138 121.38 592.266 121.57 591.431C121.759 590.597 122.192 589.837 122.814 589.249C123.435 588.66 124.217 588.27 125.061 588.126C125.904 587.982 126.772 588.091 127.553 588.44C128.599 588.909 129.417 589.774 129.827 590.845C130.237 591.916 130.205 593.106 129.74 594.153Z" fill="#41474E"/>
<path d="M156.52 614.713C156.17 615.494 155.597 616.154 154.872 616.609C154.148 617.064 153.305 617.294 152.45 617.27C151.595 617.246 150.766 616.969 150.068 616.474C149.37 615.98 148.835 615.289 148.529 614.49C148.224 613.691 148.162 612.819 148.352 611.985C148.542 611.151 148.975 610.392 149.596 609.804C150.217 609.215 150.998 608.825 151.841 608.68C152.685 608.536 153.552 608.645 154.333 608.993C155.38 609.464 156.197 610.33 156.607 611.402C157.017 612.474 156.985 613.665 156.52 614.713Z" fill="#41474E"/>
<path d="M192.8 630.433C192.452 631.215 191.88 631.876 191.157 632.332C190.433 632.789 189.59 633.02 188.735 632.998C187.879 632.976 187.05 632.7 186.351 632.206C185.652 631.712 185.116 631.022 184.809 630.224C184.502 629.425 184.439 628.553 184.628 627.718C184.817 626.884 185.249 626.124 185.87 625.535C186.49 624.946 187.271 624.554 188.115 624.409C188.958 624.264 189.825 624.372 190.607 624.72C191.126 624.951 191.595 625.282 191.986 625.694C192.377 626.106 192.684 626.592 192.887 627.122C193.091 627.653 193.188 628.218 193.173 628.786C193.158 629.354 193.032 629.914 192.8 630.433Z" fill="#41474E"/>
<path d="M171.921 660.96C171.572 661.742 170.999 662.402 170.275 662.858C169.551 663.314 168.708 663.545 167.852 663.522C166.997 663.499 166.167 663.223 165.469 662.728C164.77 662.234 164.234 661.543 163.928 660.744C163.623 659.945 163.561 659.073 163.75 658.238C163.94 657.403 164.373 656.644 164.994 656.056C165.616 655.467 166.398 655.076 167.241 654.932C168.085 654.788 168.952 654.898 169.734 655.247C170.781 655.715 171.6 656.579 172.01 657.651C172.42 658.722 172.388 659.912 171.921 660.96Z" fill="#41474E"/>
<path d="M195.274 675.553C194.924 676.332 194.351 676.989 193.627 677.442C192.904 677.895 192.063 678.124 191.21 678.1C190.356 678.075 189.53 677.798 188.833 677.304C188.137 676.81 187.603 676.121 187.298 675.324C186.994 674.527 186.932 673.657 187.121 672.825C187.31 671.992 187.741 671.235 188.361 670.647C188.98 670.06 189.759 669.669 190.6 669.524C191.442 669.379 192.307 669.487 193.087 669.833C193.606 670.065 194.075 670.397 194.466 670.81C194.857 671.223 195.163 671.709 195.366 672.24C195.569 672.771 195.666 673.337 195.65 673.906C195.634 674.474 195.506 675.034 195.274 675.553Z" fill="#41474E"/>
<path d="M226.226 689.06C225.877 689.839 225.305 690.497 224.582 690.952C223.859 691.406 223.017 691.636 222.164 691.612C221.31 691.588 220.483 691.312 219.786 690.818C219.089 690.324 218.555 689.635 218.249 688.838C217.944 688.04 217.882 687.17 218.071 686.337C218.26 685.505 218.692 684.747 219.311 684.159C219.931 683.571 220.711 683.181 221.552 683.036C222.394 682.891 223.259 682.999 224.04 683.347C224.559 683.577 225.027 683.909 225.418 684.321C225.809 684.733 226.115 685.219 226.318 685.749C226.522 686.28 226.618 686.846 226.602 687.414C226.586 687.982 226.459 688.541 226.226 689.06Z" fill="#41474E"/>
<path d="M268.807 675.553C268.457 676.332 267.884 676.989 267.161 677.442C266.437 677.895 265.596 678.124 264.743 678.1C263.89 678.075 263.063 677.798 262.367 677.304C261.671 676.81 261.136 676.121 260.832 675.324C260.527 674.527 260.465 673.657 260.654 672.825C260.843 671.992 261.275 671.235 261.894 670.647C262.513 670.06 263.292 669.669 264.134 669.524C264.975 669.379 265.84 669.487 266.62 669.833C267.14 670.065 267.608 670.397 267.999 670.81C268.391 671.223 268.696 671.709 268.899 672.24C269.103 672.771 269.199 673.337 269.183 673.906C269.167 674.474 269.039 675.034 268.807 675.553Z" fill="#41474E"/>
<path d="M281.667 647.533C281.317 648.314 280.744 648.974 280.02 649.429C279.295 649.884 278.452 650.114 277.597 650.09C276.742 650.066 275.913 649.789 275.216 649.294C274.518 648.8 273.982 648.109 273.677 647.31C273.371 646.511 273.31 645.639 273.499 644.805C273.689 643.971 274.122 643.212 274.743 642.624C275.364 642.035 276.146 641.644 276.989 641.5C277.832 641.356 278.699 641.465 279.48 641.813C280 642.045 280.469 642.377 280.86 642.79C281.251 643.203 281.557 643.689 281.76 644.22C281.963 644.751 282.059 645.317 282.043 645.886C282.027 646.454 281.899 647.014 281.667 647.533Z" fill="#41474E"/>
<path d="M231.58 636.667C231.231 637.448 230.658 638.109 229.934 638.565C229.21 639.021 228.367 639.252 227.511 639.229C226.656 639.206 225.826 638.929 225.128 638.435C224.43 637.94 223.894 637.25 223.588 636.45C223.282 635.651 223.22 634.779 223.409 633.945C223.599 633.11 224.032 632.351 224.654 631.762C225.275 631.174 226.057 630.783 226.901 630.639C227.744 630.495 228.612 630.604 229.393 630.953C230.439 631.423 231.257 632.287 231.667 633.358C232.077 634.429 232.045 635.619 231.58 636.667Z" fill="#41474E"/>
<path d="M284.613 638.953C284.263 639.732 283.691 640.389 282.967 640.842C282.244 641.295 281.403 641.524 280.549 641.5C279.696 641.475 278.869 641.198 278.173 640.704C277.477 640.21 276.943 639.521 276.638 638.724C276.334 637.927 276.272 637.057 276.461 636.225C276.65 635.392 277.081 634.635 277.7 634.047C278.32 633.46 279.099 633.069 279.94 632.924C280.781 632.779 281.647 632.887 282.427 633.233C282.947 633.464 283.416 633.796 283.808 634.209C284.199 634.621 284.506 635.107 284.709 635.639C284.912 636.17 285.008 636.737 284.992 637.306C284.975 637.874 284.847 638.434 284.613 638.953Z" fill="#41474E"/>
<path d="M321.826 623.853C321.476 624.632 320.904 625.289 320.18 625.742C319.457 626.195 318.616 626.424 317.762 626.4C316.909 626.375 316.082 626.098 315.386 625.604C314.69 625.11 314.156 624.421 313.851 623.624C313.546 622.827 313.485 621.957 313.674 621.125C313.863 620.292 314.294 619.535 314.913 618.947C315.533 618.36 316.312 617.969 317.153 617.824C317.994 617.679 318.86 617.787 319.64 618.133C320.688 618.602 321.507 619.468 321.916 620.541C322.326 621.613 322.294 622.805 321.826 623.853Z" fill="#41474E"/>
<path d="M547.08 623.853C546.731 624.634 546.159 625.294 545.435 625.749C544.711 626.205 543.868 626.436 543.013 626.412C542.158 626.389 541.329 626.113 540.631 625.619C539.933 625.125 539.397 624.435 539.091 623.636C538.784 622.838 538.722 621.966 538.91 621.132C539.099 620.298 539.531 619.539 540.151 618.95C540.772 618.361 541.553 617.969 542.395 617.824C543.238 617.678 544.105 617.786 544.887 618.133C545.935 618.603 546.754 619.468 547.165 620.54C547.576 621.612 547.546 622.804 547.08 623.853Z" fill="#41474E"/>
<path d="M622.033 574.313C621.684 575.094 621.11 575.754 620.386 576.209C619.662 576.664 618.819 576.894 617.964 576.87C617.108 576.846 616.28 576.569 615.582 576.074C614.884 575.579 614.349 574.889 614.043 574.09C613.738 573.291 613.676 572.419 613.866 571.585C614.055 570.751 614.488 569.992 615.109 569.404C615.73 568.815 616.512 568.424 617.355 568.28C618.198 568.136 619.065 568.245 619.847 568.593C620.894 569.063 621.713 569.928 622.123 571.001C622.533 572.073 622.501 573.265 622.033 574.313Z" fill="#41474E"/>
<path d="M561.333 660.96C560.985 661.742 560.412 662.402 559.689 662.859C558.965 663.315 558.122 663.547 557.267 663.525C556.411 663.502 555.582 663.227 554.883 662.733C554.184 662.239 553.648 661.549 553.341 660.75C553.034 659.951 552.972 659.079 553.16 658.245C553.349 657.41 553.781 656.65 554.402 656.061C555.022 655.472 555.804 655.08 556.647 654.935C557.49 654.79 558.358 654.899 559.139 655.246C559.659 655.478 560.127 655.809 560.518 656.221C560.91 656.633 561.216 657.118 561.42 657.649C561.623 658.179 561.72 658.745 561.705 659.313C561.691 659.881 561.564 660.441 561.333 660.96Z" fill="#41474E"/>
<path d="M545.26 665.287C544.912 666.068 544.34 666.729 543.617 667.186C542.893 667.642 542.05 667.874 541.195 667.852C540.339 667.829 539.51 667.554 538.811 667.06C538.112 666.566 537.576 665.876 537.269 665.077C536.962 664.278 536.899 663.406 537.088 662.572C537.277 661.737 537.709 660.977 538.329 660.388C538.95 659.799 539.731 659.407 540.575 659.262C541.418 659.117 542.285 659.226 543.067 659.573C544.113 660.043 544.931 660.907 545.342 661.978C545.753 663.048 545.724 664.238 545.26 665.287Z" fill="#41474E"/>
<path d="M561.334 677.153C560.985 677.933 560.412 678.591 559.689 679.045C558.966 679.499 558.125 679.729 557.271 679.705C556.417 679.682 555.59 679.405 554.893 678.912C554.197 678.418 553.662 677.729 553.357 676.931C553.051 676.134 552.989 675.264 553.178 674.431C553.367 673.598 553.799 672.84 554.419 672.253C555.038 671.665 555.818 671.274 556.66 671.13C557.501 670.985 558.367 671.093 559.147 671.44C559.666 671.671 560.135 672.002 560.526 672.414C560.917 672.827 561.223 673.312 561.426 673.843C561.629 674.374 561.726 674.939 561.71 675.507C561.694 676.075 561.566 676.635 561.334 677.153Z" fill="#41474E"/>
<path d="M530.34 692.333C529.99 693.112 529.417 693.769 528.694 694.222C527.971 694.675 527.129 694.904 526.276 694.88C525.423 694.855 524.596 694.578 523.9 694.084C523.204 693.591 522.67 692.901 522.365 692.104C522.06 691.307 521.998 690.437 522.187 689.605C522.376 688.772 522.808 688.015 523.427 687.427C524.046 686.84 524.826 686.449 525.667 686.304C526.508 686.159 527.373 686.267 528.153 686.613C528.673 686.845 529.142 687.177 529.533 687.59C529.924 688.003 530.23 688.489 530.433 689.02C530.636 689.551 530.732 690.117 530.716 690.686C530.7 691.254 530.573 691.814 530.34 692.333Z" fill="#41474E"/>
<path d="M539.447 699.88C539.096 700.658 538.524 701.316 537.8 701.769C537.077 702.222 536.236 702.451 535.382 702.426C534.529 702.402 533.702 702.125 533.006 701.631C532.31 701.137 531.776 700.448 531.471 699.651C531.167 698.853 531.105 697.984 531.294 697.151C531.483 696.319 531.914 695.561 532.533 694.974C533.153 694.386 533.932 693.996 534.773 693.851C535.615 693.706 536.48 693.813 537.26 694.16C537.78 694.391 538.249 694.722 538.641 695.135C539.032 695.548 539.339 696.034 539.542 696.565C539.745 697.097 539.841 697.663 539.825 698.232C539.808 698.801 539.68 699.361 539.447 699.88Z" fill="#41474E"/>
<path d="M515.587 724.287C515.237 725.067 514.664 725.727 513.94 726.182C513.215 726.637 512.372 726.867 511.517 726.843C510.662 726.819 509.833 726.542 509.136 726.048C508.438 725.553 507.902 724.862 507.597 724.063C507.291 723.264 507.23 722.393 507.419 721.558C507.609 720.724 508.042 719.965 508.663 719.377C509.284 718.789 510.066 718.398 510.909 718.254C511.752 718.109 512.619 718.218 513.4 718.567C513.92 718.798 514.388 719.13 514.78 719.543C515.171 719.956 515.477 720.442 515.68 720.973C515.883 721.505 515.979 722.071 515.963 722.639C515.947 723.208 515.819 723.768 515.587 724.287Z" fill="#41474E"/>
<path d="M587.48 708.84C587.131 709.619 586.559 710.278 585.836 710.732C585.113 711.186 584.271 711.416 583.418 711.392C582.564 711.368 581.737 711.092 581.04 710.598C580.343 710.105 579.808 709.415 579.503 708.618C579.198 707.82 579.136 706.95 579.325 706.118C579.514 705.285 579.946 704.527 580.565 703.939C581.185 703.352 581.965 702.961 582.806 702.816C583.648 702.671 584.513 702.779 585.294 703.127C585.813 703.358 586.281 703.689 586.672 704.101C587.063 704.513 587.369 704.999 587.572 705.53C587.776 706.06 587.872 706.626 587.856 707.194C587.84 707.762 587.713 708.321 587.48 708.84Z" fill="#41474E"/>
<path d="M616.167 482.82C615.817 483.601 615.244 484.26 614.52 484.715C613.795 485.17 612.952 485.4 612.097 485.376C611.242 485.353 610.413 485.076 609.716 484.581C609.018 484.086 608.482 483.396 608.177 482.596C607.871 481.797 607.81 480.926 607.999 480.092C608.189 479.258 608.622 478.498 609.243 477.91C609.864 477.322 610.646 476.931 611.489 476.787C612.332 476.643 613.199 476.752 613.98 477.1C614.5 477.332 614.968 477.663 615.36 478.076C615.751 478.489 616.057 478.975 616.26 479.507C616.463 480.038 616.559 480.604 616.543 481.172C616.527 481.741 616.399 482.301 616.167 482.82Z" fill="#41474E"/>
<path d="M658 507.827C657.65 508.607 657.077 509.267 656.353 509.722C655.628 510.177 654.785 510.407 653.93 510.383C653.075 510.359 652.246 510.083 651.549 509.588C650.851 509.093 650.315 508.402 650.01 507.603C649.704 506.804 649.643 505.933 649.832 505.099C650.022 504.264 650.455 503.505 651.076 502.917C651.697 502.329 652.479 501.938 653.322 501.794C654.165 501.649 655.032 501.758 655.813 502.107C656.333 502.338 656.802 502.67 657.193 503.083C657.584 503.496 657.89 503.982 658.093 504.513C658.296 505.045 658.392 505.611 658.376 506.179C658.36 506.748 658.233 507.308 658 507.827Z" fill="#41474E"/>
<path d="M689.9 536C689.551 536.781 688.979 537.442 688.254 537.898C687.53 538.354 686.687 538.585 685.832 538.562C684.976 538.539 684.147 538.263 683.448 537.768C682.75 537.273 682.214 536.583 681.908 535.784C681.602 534.984 681.54 534.112 681.73 533.278C681.92 532.443 682.352 531.684 682.974 531.095C683.595 530.507 684.377 530.116 685.221 529.972C686.065 529.828 686.932 529.938 687.713 530.287C688.759 530.756 689.577 531.621 689.987 532.691C690.397 533.762 690.365 534.952 689.9 536Z" fill="#41474E"/>
<path d="M715.827 568.667C715.478 569.448 714.905 570.109 714.181 570.565C713.457 571.021 712.614 571.252 711.758 571.229C710.903 571.206 710.074 570.929 709.375 570.435C708.677 569.94 708.141 569.25 707.835 568.45C707.529 567.651 707.467 566.779 707.657 565.945C707.846 565.11 708.279 564.351 708.901 563.762C709.522 563.174 710.304 562.783 711.148 562.639C711.991 562.495 712.859 562.604 713.64 562.953C714.687 563.421 715.506 564.286 715.916 565.357C716.326 566.429 716.294 567.619 715.827 568.667Z" fill="#41474E"/>
<path d="M731.707 603.933C731.358 604.715 730.785 605.375 730.061 605.832C729.337 606.288 728.494 606.519 727.638 606.496C726.783 606.472 725.953 606.196 725.255 605.701C724.556 605.207 724.02 604.516 723.715 603.717C723.409 602.918 723.347 602.046 723.536 601.211C723.726 600.377 724.159 599.617 724.781 599.029C725.402 598.44 726.184 598.049 727.028 597.905C727.871 597.761 728.739 597.871 729.52 598.22C730.039 598.451 730.508 598.782 730.899 599.194C731.29 599.607 731.596 600.092 731.799 600.623C732.002 601.154 732.098 601.719 732.082 602.287C732.067 602.855 731.939 603.415 731.707 603.933Z" fill="#41474E"/>
<path d="M748.061 642.94C747.711 643.718 747.138 644.376 746.415 644.829C745.691 645.282 744.85 645.511 743.997 645.486C743.143 645.462 742.317 645.185 741.621 644.691C740.925 644.197 740.39 643.508 740.086 642.711C739.781 641.913 739.719 641.044 739.908 640.211C740.097 639.379 740.528 638.621 741.148 638.034C741.767 637.446 742.546 637.056 743.388 636.911C744.229 636.766 745.094 636.874 745.874 637.22C746.394 637.451 746.863 637.782 747.255 638.195C747.647 638.608 747.953 639.094 748.156 639.626C748.359 640.157 748.455 640.723 748.439 641.292C748.423 641.861 748.294 642.421 748.061 642.94Z" fill="#41474E"/>
<path d="M759.667 672.287C759.317 673.065 758.744 673.722 758.021 674.176C757.298 674.629 756.456 674.858 755.603 674.833C754.75 674.809 753.923 674.532 753.227 674.038C752.531 673.544 751.997 672.855 751.692 672.057C751.387 671.26 751.325 670.39 751.515 669.558C751.704 668.726 752.135 667.968 752.754 667.381C753.373 666.793 754.153 666.402 754.994 666.258C755.835 666.113 756.7 666.22 757.48 666.567C758 666.798 758.469 667.13 758.86 667.543C759.251 667.956 759.557 668.442 759.76 668.973C759.963 669.504 760.059 670.071 760.043 670.639C760.027 671.208 759.9 671.768 759.667 672.287Z" fill="#41474E"/>
<path d="M784.426 713.507C784.078 714.288 783.505 714.949 782.781 715.405C782.057 715.861 781.214 716.092 780.358 716.069C779.503 716.046 778.673 715.769 777.975 715.275C777.276 714.78 776.74 714.09 776.434 713.29C776.128 712.491 776.066 711.619 776.256 710.784C776.446 709.95 776.879 709.19 777.5 708.602C778.122 708.014 778.904 707.623 779.747 707.479C780.591 707.335 781.458 707.444 782.24 707.793C783.287 708.261 784.106 709.126 784.516 710.197C784.926 711.269 784.894 712.459 784.426 713.507Z" fill="#41474E"/>
<path d="M821.047 738.807C820.698 739.588 820.126 740.249 819.403 740.706C818.679 741.162 817.836 741.394 816.981 741.372C816.125 741.349 815.296 741.074 814.597 740.58C813.898 740.086 813.362 739.396 813.055 738.597C812.748 737.798 812.685 736.926 812.874 736.092C813.063 735.257 813.495 734.497 814.116 733.908C814.736 733.319 815.518 732.927 816.361 732.782C817.204 732.637 818.072 732.746 818.853 733.093C819.9 733.563 820.717 734.427 821.128 735.498C821.539 736.568 821.51 737.758 821.047 738.807Z" fill="#41474E"/>
<path d="M866.119 736.513C865.769 737.292 865.196 737.949 864.473 738.402C863.75 738.856 862.908 739.084 862.055 739.06C861.202 739.035 860.375 738.759 859.679 738.265C858.983 737.771 858.449 737.082 858.144 736.284C857.839 735.487 857.778 734.617 857.967 733.785C858.156 732.953 858.587 732.195 859.206 731.607C859.826 731.02 860.605 730.629 861.446 730.484C862.287 730.339 863.153 730.447 863.933 730.793C864.981 731.263 865.799 732.129 866.209 733.201C866.619 734.273 866.587 735.465 866.119 736.513Z" fill="#41474E"/>
<path d="M901.673 716.573C901.323 717.354 900.75 718.014 900.026 718.469C899.301 718.924 898.458 719.154 897.603 719.13C896.748 719.106 895.919 718.829 895.221 718.334C894.524 717.839 893.988 717.149 893.683 716.35C893.377 715.551 893.316 714.679 893.505 713.845C893.695 713.011 894.128 712.252 894.749 711.664C895.37 711.075 896.152 710.684 896.995 710.54C897.838 710.396 898.705 710.505 899.486 710.853C900.533 711.324 901.351 712.19 901.76 713.262C902.17 714.334 902.139 715.524 901.673 716.573Z" fill="#41474E"/>
<path d="M893.733 678.727C893.384 679.506 892.812 680.164 892.089 680.619C891.366 681.073 890.524 681.303 889.671 681.279C888.817 681.255 887.99 680.979 887.293 680.485C886.596 679.991 886.061 679.302 885.756 678.505C885.451 677.707 885.389 676.837 885.578 676.004C885.767 675.171 886.198 674.413 886.818 673.826C887.438 673.238 888.217 672.847 889.059 672.703C889.901 672.558 890.766 672.666 891.547 673.013C892.593 673.483 893.41 674.347 893.82 675.418C894.23 676.489 894.199 677.679 893.733 678.727Z" fill="#41474E"/>
<path d="M626.487 740.84C626.136 741.619 625.564 742.276 624.84 742.729C624.117 743.182 623.276 743.411 622.422 743.386C621.569 743.362 620.742 743.085 620.046 742.591C619.35 742.097 618.816 741.408 618.511 740.611C618.207 739.814 618.145 738.944 618.334 738.112C618.523 737.279 618.954 736.522 619.574 735.934C620.193 735.347 620.972 734.956 621.813 734.811C622.655 734.666 623.52 734.774 624.3 735.12C624.82 735.351 625.289 735.682 625.681 736.095C626.072 736.508 626.379 736.994 626.582 737.526C626.785 738.057 626.881 738.624 626.865 739.192C626.849 739.761 626.72 740.321 626.487 740.84Z" fill="#41474E"/>
<path d="M658 763.727C657.651 764.508 657.078 765.169 656.354 765.625C655.63 766.081 654.787 766.312 653.931 766.289C653.076 766.266 652.246 765.989 651.548 765.495C650.85 765 650.313 764.31 650.008 763.51C649.702 762.711 649.64 761.839 649.829 761.005C650.019 760.17 650.452 759.411 651.074 758.822C651.695 758.234 652.477 757.843 653.321 757.699C654.164 757.555 655.031 757.664 655.813 758.013C656.859 758.483 657.677 759.347 658.087 760.418C658.496 761.489 658.465 762.679 658 763.727Z" fill="#41474E"/>
<path d="M692.586 763.727C692.238 764.508 691.665 765.169 690.941 765.625C690.217 766.081 689.374 766.312 688.518 766.289C687.663 766.266 686.833 765.989 686.135 765.495C685.436 765 684.9 764.31 684.594 763.51C684.289 762.711 684.227 761.839 684.416 761.005C684.606 760.17 685.039 759.411 685.66 758.822C686.282 758.234 687.064 757.843 687.907 757.699C688.751 757.555 689.618 757.664 690.4 758.013C691.446 758.483 692.264 759.347 692.673 760.418C693.083 761.489 693.052 762.679 692.586 763.727Z" fill="#41474E"/>
<path d="M371.059 597.587C370.71 598.366 370.138 599.024 369.415 599.479C368.692 599.933 367.85 600.163 366.997 600.139C366.143 600.115 365.316 599.839 364.619 599.345C363.922 598.851 363.388 598.162 363.082 597.365C362.777 596.567 362.715 595.697 362.904 594.864C363.093 594.032 363.525 593.274 364.144 592.686C364.764 592.098 365.544 591.708 366.385 591.563C367.227 591.418 368.092 591.526 368.873 591.873C369.392 592.104 369.86 592.435 370.251 592.848C370.642 593.26 370.948 593.746 371.151 594.276C371.355 594.807 371.451 595.373 371.435 595.941C371.419 596.509 371.292 597.068 371.059 597.587Z" fill="#41474E"/>
<path d="M410.92 561.96C410.571 562.739 409.998 563.398 409.275 563.852C408.552 564.306 407.711 564.536 406.857 564.512C406.003 564.488 405.176 564.212 404.479 563.718C403.783 563.225 403.248 562.536 402.943 561.738C402.637 560.94 402.575 560.07 402.764 559.238C402.953 558.405 403.385 557.647 404.005 557.059C404.624 556.472 405.404 556.081 406.246 555.936C407.087 555.792 407.953 555.9 408.733 556.247C409.252 556.478 409.721 556.809 410.112 557.221C410.503 557.633 410.809 558.119 411.012 558.65C411.215 559.18 411.311 559.746 411.296 560.314C411.28 560.882 411.152 561.441 410.92 561.96Z" fill="#41474E"/>
<path d="M448.186 572.093C447.838 572.875 447.266 573.536 446.542 573.992C445.819 574.449 444.976 574.681 444.12 574.658C443.265 574.636 442.435 574.36 441.737 573.866C441.038 573.372 440.501 572.683 440.195 571.884C439.888 571.085 439.825 570.213 440.014 569.378C440.203 568.544 440.635 567.784 441.255 567.195C441.876 566.606 442.657 566.214 443.501 566.069C444.344 565.924 445.211 566.032 445.993 566.38C446.512 566.611 446.981 566.942 447.372 567.354C447.763 567.767 448.069 568.252 448.273 568.782C448.477 569.313 448.574 569.878 448.559 570.447C448.544 571.015 448.417 571.574 448.186 572.093Z" fill="#41474E"/>
<path d="M432.14 646.227C431.79 647.005 431.217 647.663 430.494 648.116C429.77 648.569 428.929 648.798 428.076 648.773C427.223 648.749 426.396 648.472 425.7 647.978C425.004 647.484 424.469 646.795 424.165 645.998C423.86 645.2 423.798 644.331 423.987 643.498C424.176 642.666 424.608 641.908 425.227 641.321C425.846 640.733 426.625 640.343 427.467 640.198C428.308 640.053 429.173 640.16 429.953 640.507C430.473 640.738 430.942 641.069 431.334 641.482C431.726 641.895 432.032 642.381 432.235 642.912C432.438 643.444 432.534 644.01 432.518 644.579C432.502 645.148 432.373 645.708 432.14 646.227Z" fill="#41474E"/>
<path d="M392.106 699.093C391.757 699.874 391.184 700.534 390.459 700.989C389.735 701.444 388.892 701.674 388.037 701.65C387.182 701.626 386.353 701.349 385.655 700.854C384.957 700.36 384.422 699.669 384.116 698.87C383.811 698.071 383.749 697.199 383.939 696.365C384.129 695.531 384.561 694.772 385.183 694.184C385.804 693.595 386.585 693.204 387.428 693.06C388.272 692.916 389.139 693.025 389.92 693.373C390.439 693.605 390.908 693.937 391.299 694.35C391.69 694.763 391.996 695.249 392.199 695.78C392.402 696.311 392.499 696.877 392.483 697.446C392.467 698.014 392.339 698.574 392.106 699.093Z" fill="#41474E"/>
<path d="M340.246 747.1C339.896 747.878 339.323 748.536 338.6 748.989C337.877 749.442 337.035 749.671 336.182 749.646C335.329 749.622 334.502 749.345 333.806 748.851C333.11 748.357 332.576 747.668 332.271 746.871C331.966 746.073 331.905 745.204 332.094 744.372C332.283 743.539 332.714 742.782 333.333 742.194C333.953 741.607 334.732 741.216 335.573 741.071C336.414 740.926 337.28 741.034 338.06 741.38C338.58 741.611 339.049 741.942 339.441 742.355C339.832 742.768 340.138 743.254 340.342 743.786C340.545 744.317 340.641 744.884 340.625 745.452C340.608 746.021 340.48 746.581 340.246 747.1Z" fill="#41474E"/>
<path d="M294.62 767.173C294.271 767.955 293.698 768.615 292.974 769.071C292.25 769.528 291.407 769.759 290.551 769.736C289.696 769.712 288.866 769.436 288.168 768.941C287.47 768.447 286.934 767.756 286.628 766.957C286.322 766.158 286.26 765.286 286.449 764.451C286.639 763.617 287.072 762.857 287.694 762.269C288.315 761.68 289.097 761.289 289.941 761.145C290.784 761.001 291.652 761.111 292.433 761.46C293.48 761.928 294.299 762.793 294.709 763.864C295.119 764.935 295.087 766.126 294.62 767.173Z" fill="#41474E"/>
<path d="M253.96 769.213C253.611 769.993 253.038 770.651 252.315 771.105C251.592 771.56 250.751 771.789 249.897 771.766C249.043 771.742 248.216 771.466 247.519 770.972C246.823 770.478 246.288 769.789 245.983 768.991C245.677 768.194 245.615 767.324 245.804 766.491C245.993 765.658 246.425 764.9 247.045 764.313C247.664 763.725 248.444 763.334 249.286 763.19C250.127 763.045 250.993 763.153 251.773 763.5C252.292 763.731 252.761 764.062 253.152 764.475C253.543 764.887 253.849 765.372 254.052 765.903C254.255 766.434 254.351 766.999 254.336 767.567C254.32 768.135 254.192 768.695 253.96 769.213Z" fill="#41474E"/>
<path d="M437.7 528.793C437.351 529.573 436.779 530.231 436.055 530.685C435.332 531.139 434.491 531.369 433.637 531.345C432.784 531.322 431.956 531.045 431.26 530.552C430.563 530.058 430.028 529.369 429.723 528.571C429.418 527.774 429.356 526.904 429.545 526.071C429.734 525.238 430.165 524.48 430.785 523.892C431.404 523.305 432.184 522.914 433.026 522.769C433.867 522.625 434.733 522.733 435.513 523.08C436.033 523.311 436.501 523.642 436.892 524.054C437.283 524.467 437.589 524.952 437.792 525.483C437.995 526.014 438.092 526.579 438.076 527.147C438.06 527.715 437.932 528.275 437.7 528.793Z" fill="#41474E"/>
<path d="M517.247 460.9C516.897 461.681 516.324 462.34 515.6 462.795C514.875 463.25 514.032 463.48 513.177 463.457C512.322 463.433 511.493 463.156 510.796 462.661C510.098 462.166 509.562 461.476 509.257 460.677C508.951 459.877 508.89 459.006 509.08 458.172C509.269 457.338 509.702 456.578 510.323 455.99C510.944 455.402 511.726 455.011 512.569 454.867C513.412 454.723 514.279 454.832 515.06 455.18C515.58 455.412 516.049 455.743 516.44 456.156C516.831 456.569 517.137 457.055 517.34 457.587C517.543 458.118 517.639 458.684 517.623 459.253C517.607 459.821 517.48 460.381 517.247 460.9Z" fill="#41474E"/>
<path d="M499.187 479.92C498.838 480.701 498.265 481.361 497.541 481.816C496.817 482.272 495.974 482.502 495.119 482.479C494.264 482.456 493.436 482.18 492.737 481.686C492.039 481.192 491.503 480.502 491.197 479.703C490.891 478.905 490.828 478.033 491.017 477.199C491.206 476.365 491.638 475.605 492.258 475.016C492.878 474.427 493.659 474.036 494.502 473.89C495.345 473.745 496.212 473.853 496.993 474.2C497.513 474.431 497.983 474.762 498.375 475.175C498.766 475.588 499.073 476.074 499.277 476.605C499.48 477.136 499.577 477.703 499.562 478.271C499.546 478.84 499.419 479.401 499.187 479.92Z" fill="#41474E"/>
<path d="M525.679 499.533C525.33 500.313 524.758 500.971 524.035 501.425C523.312 501.879 522.47 502.109 521.617 502.085C520.763 502.062 519.936 501.785 519.239 501.292C518.542 500.798 518.008 500.109 517.702 499.311C517.397 498.514 517.335 497.644 517.524 496.811C517.713 495.978 518.145 495.22 518.764 494.632C519.384 494.045 520.164 493.654 521.005 493.509C521.847 493.365 522.713 493.473 523.493 493.82C524.012 494.051 524.481 494.382 524.872 494.794C525.263 495.207 525.568 495.692 525.772 496.223C525.975 496.754 526.071 497.319 526.055 497.887C526.04 498.455 525.912 499.015 525.679 499.533Z" fill="#41474E"/>
<path d="M330.48 422.127C330.131 422.906 329.559 423.564 328.836 424.019C328.113 424.473 327.271 424.703 326.418 424.679C325.564 424.655 324.737 424.379 324.04 423.885C323.343 423.391 322.808 422.702 322.503 421.905C322.198 421.107 322.136 420.237 322.325 419.404C322.514 418.572 322.945 417.814 323.565 417.226C324.185 416.638 324.965 416.248 325.806 416.103C326.648 415.958 327.513 416.066 328.294 416.413C328.813 416.644 329.281 416.976 329.672 417.388C330.063 417.8 330.369 418.286 330.572 418.816C330.775 419.347 330.872 419.913 330.856 420.481C330.84 421.049 330.713 421.608 330.48 422.127Z" fill="#41474E"/>
<path d="M227.714 375.413C227.365 376.193 226.792 376.851 226.069 377.305C225.346 377.759 224.505 377.989 223.651 377.965C222.797 377.942 221.97 377.666 221.273 377.172C220.577 376.678 220.042 375.989 219.737 375.191C219.431 374.394 219.369 373.524 219.558 372.691C219.747 371.858 220.179 371.1 220.799 370.513C221.418 369.925 222.198 369.534 223.04 369.39C223.881 369.245 224.747 369.353 225.527 369.7C226.573 370.169 227.391 371.034 227.801 372.105C228.21 373.176 228.179 374.366 227.714 375.413Z" fill="#41474E"/>
<path d="M237.233 317.9C236.884 318.679 236.312 319.338 235.589 319.792C234.866 320.246 234.024 320.476 233.17 320.452C232.317 320.428 231.489 320.152 230.793 319.658C230.096 319.165 229.561 318.475 229.256 317.678C228.951 316.88 228.889 316.01 229.078 315.178C229.267 314.345 229.698 313.587 230.318 312.999C230.938 312.412 231.718 312.021 232.559 311.876C233.401 311.732 234.266 311.84 235.046 312.187C235.566 312.418 236.034 312.749 236.425 313.161C236.816 313.573 237.122 314.059 237.325 314.59C237.528 315.12 237.625 315.686 237.609 316.254C237.593 316.822 237.465 317.381 237.233 317.9Z" fill="#41474E"/>
<path d="M284.527 275.82C284.177 276.601 283.605 277.261 282.881 277.716C282.157 278.172 281.314 278.402 280.459 278.379C279.604 278.356 278.775 278.08 278.077 277.586C277.379 277.092 276.843 276.402 276.537 275.603C276.231 274.805 276.168 273.933 276.357 273.099C276.546 272.265 276.977 271.505 277.598 270.916C278.218 270.328 278.999 269.936 279.842 269.79C280.685 269.645 281.552 269.753 282.333 270.1C283.381 270.57 284.2 271.435 284.611 272.507C285.022 273.579 284.992 274.77 284.527 275.82Z" fill="#41474E"/>
<path d="M406.034 238.32C405.685 239.102 405.112 239.762 404.388 240.218C403.664 240.674 402.821 240.905 401.965 240.882C401.11 240.859 400.281 240.583 399.582 240.088C398.884 239.594 398.348 238.903 398.042 238.104C397.736 237.304 397.674 236.432 397.864 235.598C398.053 234.763 398.486 234.004 399.108 233.415C399.729 232.827 400.511 232.436 401.355 232.292C402.198 232.148 403.066 232.258 403.847 232.607C404.895 233.075 405.713 233.939 406.123 235.011C406.533 236.082 406.501 237.272 406.034 238.32Z" fill="#41474E"/>
<path d="M391.673 353.707C391.323 354.486 390.751 355.144 390.028 355.598C389.305 356.053 388.464 356.282 387.61 356.259C386.756 356.235 385.929 355.959 385.232 355.465C384.536 354.971 384.001 354.282 383.696 353.485C383.39 352.687 383.328 351.817 383.517 350.984C383.706 350.151 384.138 349.393 384.757 348.806C385.377 348.218 386.157 347.827 386.999 347.683C387.84 347.538 388.706 347.646 389.486 347.993C390.533 348.461 391.352 349.326 391.762 350.397C392.172 351.469 392.14 352.659 391.673 353.707Z" fill="#41474E"/>
<path d="M424.273 257.847C423.924 258.626 423.352 259.284 422.629 259.739C421.906 260.193 421.064 260.423 420.211 260.399C419.357 260.375 418.53 260.099 417.833 259.605C417.136 259.111 416.601 258.422 416.296 257.625C415.991 256.827 415.929 255.957 416.118 255.124C416.307 254.292 416.738 253.534 417.358 252.946C417.978 252.358 418.758 251.968 419.599 251.823C420.441 251.678 421.306 251.786 422.087 252.133C422.606 252.364 423.074 252.695 423.465 253.108C423.856 253.52 424.162 254.006 424.365 254.536C424.568 255.067 424.665 255.633 424.649 256.201C424.633 256.769 424.506 257.328 424.273 257.847Z" fill="#41474E"/>
<path d="M481.267 245.533C480.918 246.314 480.345 246.974 479.621 247.429C478.897 247.885 478.054 248.116 477.199 248.092C476.345 248.069 475.516 247.793 474.817 247.299C474.119 246.805 473.583 246.115 473.277 245.316C472.971 244.518 472.908 243.646 473.097 242.812C473.286 241.978 473.718 241.218 474.338 240.63C474.958 240.041 475.739 239.649 476.582 239.504C477.425 239.358 478.292 239.466 479.073 239.813C480.121 240.283 480.941 241.148 481.352 242.22C481.763 243.292 481.732 244.484 481.267 245.533Z" fill="#41474E"/>
<path d="M536.853 283.333C536.504 284.115 535.932 284.776 535.208 285.232C534.483 285.688 533.64 285.919 532.785 285.896C531.929 285.872 531.1 285.596 530.401 285.102C529.703 284.607 529.167 283.916 528.861 283.117C528.555 282.318 528.493 281.446 528.683 280.611C528.873 279.777 529.306 279.017 529.927 278.429C530.548 277.84 531.33 277.45 532.174 277.306C533.018 277.162 533.885 277.271 534.666 277.62C535.714 278.088 536.533 278.953 536.943 280.024C537.353 281.095 537.321 282.286 536.853 283.333Z" fill="#41474E"/>
<path d="M611.84 385.2C611.49 385.978 610.917 386.636 610.194 387.089C609.471 387.542 608.629 387.771 607.776 387.746C606.923 387.722 606.096 387.445 605.4 386.951C604.704 386.457 604.17 385.768 603.865 384.971C603.56 384.174 603.498 383.304 603.687 382.471C603.876 381.639 604.308 380.881 604.927 380.294C605.546 379.707 606.326 379.316 607.167 379.171C608.008 379.026 608.873 379.134 609.653 379.48C610.173 379.711 610.643 380.042 611.034 380.455C611.426 380.868 611.732 381.354 611.935 381.886C612.138 382.417 612.235 382.984 612.218 383.552C612.202 384.121 612.073 384.681 611.84 385.2Z" fill="#41474E"/>
<path d="M442 487.5C441.651 488.282 441.078 488.942 440.354 489.398C439.63 489.854 438.787 490.085 437.931 490.062C437.076 490.039 436.246 489.763 435.548 489.268C434.85 488.774 434.313 488.083 434.008 487.284C433.702 486.484 433.64 485.612 433.829 484.778C434.019 483.943 434.452 483.184 435.074 482.595C435.695 482.007 436.477 481.616 437.321 481.472C438.164 481.328 439.032 481.438 439.813 481.787C440.332 482.018 440.801 482.349 441.192 482.761C441.583 483.173 441.889 483.659 442.092 484.19C442.295 484.72 442.391 485.286 442.375 485.854C442.36 486.422 442.232 486.981 442 487.5Z" fill="#41474E"/>
<path d="M373.573 478.493C373.223 479.272 372.651 479.929 371.927 480.382C371.204 480.835 370.363 481.064 369.509 481.04C368.656 481.015 367.829 480.738 367.133 480.244C366.437 479.75 365.903 479.061 365.598 478.264C365.293 477.467 365.232 476.597 365.421 475.765C365.61 474.932 366.041 474.175 366.66 473.587C367.28 473 368.059 472.609 368.9 472.464C369.741 472.319 370.607 472.427 371.387 472.773C371.907 473.004 372.376 473.335 372.768 473.748C373.159 474.161 373.465 474.647 373.669 475.179C373.872 475.71 373.968 476.277 373.952 476.845C373.935 477.414 373.807 477.974 373.573 478.493Z" fill="#41474E"/>
<path d="M521.733 498.286L534.86 493.953" stroke="#41474E" stroke-width="1.62" stroke-miterlimit="10"/>
<path d="M521.687 291.08L532.9 281.353" stroke="#41474E" stroke-width="1.62" stroke-miterlimit="10"/>
<path d="M559.061 389.933L585.221 407.727" stroke="#41474E" stroke-width="1.62" stroke-miterlimit="10"/>
<path d="M521.687 291.08L585.22 407.727" stroke="#41474E" stroke-width="1.62" stroke-miterlimit="10"/>
<path d="M380.82 258.56L354.333 247" stroke="#41474E" stroke-width="1.62" stroke-miterlimit="10"/>
<path d="M388.153 351.947L420.36 383.32L438.287 485.74" stroke="#41474E" stroke-width="1.62" stroke-miterlimit="10"/>
<path d="M438.08 485.987L386.166 555.867L302.986 603.687L232.973 614.367L160.36 597.76L114.6 537.467L134.313 477.873L189.266 480.5" stroke="#41474E" stroke-width="1.62" stroke-miterlimit="10"/>
<path d="M380.82 362.267L311.56 389.867L256.986 380.947L225.146 373.78" stroke="#41474E" stroke-width="1.62" stroke-miterlimit="10"/>
<path d="M325.613 420.833L309.94 389.867L300.993 344.36L311.56 297.733L332.287 262.687L356.193 246.593" stroke="#41474E" stroke-width="1.62" stroke-miterlimit="10"/>
<path d="M384.914 367.96L380.82 362.267L369.627 328.693V289.527L380.82 258.56L402.08 236.56" stroke="#41474E" stroke-width="1.62" stroke-miterlimit="10"/>
<path d="M369.627 328.693L341.72 339.493L300.993 344.36H255.48L221.04 341.5" stroke="#41474E" stroke-width="1.62" stroke-miterlimit="10"/>
<path d="M380.82 258.56H365.007L331.574 263.22L288.127 279.967L255.48 293.3" stroke="#41474E" stroke-width="1.62" stroke-miterlimit="10"/>
<path d="M221.04 341.5L311.56 297.733" stroke="#41474E" stroke-width="1.62" stroke-miterlimit="10"/>
<path d="M341.72 339.493L380.82 362.267" stroke="#41474E" stroke-width="1.62" stroke-miterlimit="10"/>
<path d="M309.94 389.867L221.04 341.5" stroke="#41474E" stroke-width="1.62" stroke-miterlimit="10"/>
<path d="M240.934 398.7L311.56 389.867" stroke="#41474E" stroke-width="1.62" stroke-miterlimit="10"/>
<path d="M311.56 389.867H380.82" stroke="#41474E" stroke-width="1.62" stroke-miterlimit="10"/>
<path d="M310.873 296.793L380.82 258.56" stroke="#41474E" stroke-width="1.62" stroke-miterlimit="10"/>
<path d="M255.48 293.3L310.874 296.793" stroke="#41474E" stroke-width="1.62" stroke-miterlimit="10"/>
<path d="M310.873 296.793L369.626 328.693" stroke="#41474E" stroke-width="1.62" stroke-miterlimit="10"/>
<path d="M378.7 398.7L311.56 389.867" stroke="#41474E" stroke-width="1.62" stroke-miterlimit="10"/>
<path d="M134.313 477.873L141.707 483.5" stroke="#41474E" stroke-width="1.62" stroke-miterlimit="10"/>
<path d="M172.294 573.027L166.327 574.893L160.36 597.76" stroke="#41474E" stroke-width="1.62" stroke-miterlimit="10"/>
<path d="M228.254 577.28L222.28 585.393L232.974 614.367" stroke="#41474E" stroke-width="1.62" stroke-miterlimit="10"/>
<path d="M291.667 561.087L289.427 573.027L302.987 603.687" stroke="#41474E" stroke-width="1.62" stroke-miterlimit="10"/>
<path d="M346.873 523.787L353.586 537.467L386.166 555.867" stroke="#41474E" stroke-width="1.62" stroke-miterlimit="10"/>
<path d="M371.866 475.293L391.353 481.82L438.286 485.74" stroke="#41474E" stroke-width="1.62" stroke-miterlimit="10"/>
<path d="M388.153 351.947L391.353 481.82L353.586 537.467L289.426 573.027L222.28 585.393L166.326 574.893L134.993 534.98L114.6 537.467" stroke="#41474E" stroke-width="1.62" stroke-miterlimit="10"/>
<path d="M430.433 338.393L453.367 446.16L463.26 566L440.893 644.46L392.94 707.507L336.307 754.567L290.673 770.733H249.386L209.34 738.487" stroke="#41474E" stroke-width="1.62" stroke-miterlimit="10"/>
<path d="M444.233 570.787L463.26 566L497.76 577.28" stroke="#41474E" stroke-width="1.62" stroke-miterlimit="10"/>
<path d="M428.193 644.607L440.893 644.46L466.427 659.193" stroke="#41474E" stroke-width="1.62" stroke-miterlimit="10"/>
<path d="M388.153 697.327L392.94 707.507L414.807 718.193" stroke="#41474E" stroke-width="1.62" stroke-miterlimit="10"/>
<path d="M336.307 745.333V754.567L348.367 761.967" stroke="#41474E" stroke-width="1.62" stroke-miterlimit="10"/>
<path d="M291.667 765.413L290.674 770.733L291.294 780.06" stroke="#41474E" stroke-width="1.62" stroke-miterlimit="10"/>
<path d="M250.633 767.447L249.387 770.733L249.513 777.26" stroke="#41474E" stroke-width="1.62" stroke-miterlimit="10"/>
<path d="M420.36 383.32L430.434 338.393L463.26 357.413L492.6 441.473" stroke="#41474E" stroke-width="1.62" stroke-miterlimit="10"/>
<path d="M430.433 338.393L375.227 289.54" stroke="#41474E" stroke-width="1.62" stroke-miterlimit="10"/>
<path d="M375.227 289.54L388.153 351.947" stroke="#41474E" stroke-width="1.62" stroke-miterlimit="10"/>
<path d="M375.227 289.54L380.82 258.56" stroke="#41474E" stroke-width="1.62" stroke-miterlimit="10"/>
<path d="M369.627 328.693L388.154 351.947" stroke="#41474E" stroke-width="1.62" stroke-miterlimit="10"/>
<path d="M369.627 328.693L375.227 289.54" stroke="#41474E" stroke-width="1.62" stroke-miterlimit="10"/>
<path d="M438.287 485.74L453.367 446.16" stroke="#41474E" stroke-width="1.62" stroke-miterlimit="10"/>
<path d="M453.366 446.16L492.6 441.473" stroke="#41474E" stroke-width="1.62" stroke-miterlimit="10"/>
<path d="M463.26 357.413L467.506 311.5" stroke="#41474E" stroke-width="1.62" stroke-miterlimit="10"/>
<path d="M467.507 311.5L487.12 291.08" stroke="#41474E" stroke-width="1.62" stroke-miterlimit="10"/>
<path d="M487.12 291.08H521.687" stroke="#41474E" stroke-width="1.62" stroke-miterlimit="10"/>
<path d="M476.847 243.767L521.687 291.08" stroke="#41474E" stroke-width="1.62" stroke-miterlimit="10"/>
<path d="M425.153 287.207L467.507 311.5" stroke="#41474E" stroke-width="1.62" stroke-miterlimit="10"/>
<path d="M511.727 432.64L559.06 389.933" stroke="#41474E" stroke-width="1.62" stroke-miterlimit="10"/>
<path d="M487.12 291.08L559.06 389.933" stroke="#41474E" stroke-width="1.62" stroke-miterlimit="10"/>
<path d="M467.507 311.5L511.727 432.64" stroke="#41474E" stroke-width="1.62" stroke-miterlimit="10"/>
<path d="M465.38 253.6L432.934 219.94" stroke="#41474E" stroke-width="1.62" stroke-miterlimit="10"/>
<path d="M432.933 219.94L428.58 236.773" stroke="#41474E" stroke-width="1.62" stroke-miterlimit="10"/>
<path d="M425.153 275.933V287.207" stroke="#41474E" stroke-width="1.62" stroke-miterlimit="10"/>
<path d="M441.347 258.56L465.38 253.6" stroke="#41474E" stroke-width="1.62" stroke-miterlimit="10"/>
<path d="M380.82 258.56L399.307 263.227" stroke="#41474E" stroke-width="1.62" stroke-miterlimit="10"/>
<path d="M541.307 595.82L588.953 693.133L669.767 758.067L683.127 753.087" stroke="#41474E" stroke-width="1.62" stroke-miterlimit="10"/>
<path d="M588.953 693.133L623.053 688" stroke="#41474E" stroke-width="1.62" stroke-miterlimit="10"/>
<path d="M541.307 595.82H592.693" stroke="#41474E" stroke-width="1.62" stroke-miterlimit="10"/>
<path d="M537.573 501.147L600.633 485.74" stroke="#41474E" stroke-width="1.62" stroke-miterlimit="10"/>
<path d="M559.061 389.933L600.634 485.74" stroke="#41474E" stroke-width="1.62" stroke-miterlimit="10"/>
<path d="M600.633 485.74L541.307 595.82" stroke="#41474E" stroke-width="1.62" stroke-miterlimit="10"/>
<path d="M541.307 595.82L623.053 688" stroke="#41474E" stroke-width="1.62" stroke-miterlimit="10"/>
<path d="M623.054 688L669.767 758.067" stroke="#41474E" stroke-width="1.62" stroke-miterlimit="10"/>
<path d="M430.433 338.393L425.153 287.207L454.113 268.833L465.38 253.607L476.847 243.767" stroke="#41474E" stroke-width="1.62" stroke-miterlimit="10"/>
<path d="M428.58 236.773L441.347 258.56" stroke="#41474E" stroke-width="1.62" stroke-miterlimit="10"/>
<path d="M441.347 258.56L425.153 275.933" stroke="#41474E" stroke-width="1.62" stroke-miterlimit="10"/>
<path d="M425.153 275.933L399.307 263.227" stroke="#41474E" stroke-width="1.62" stroke-miterlimit="10"/>
<path d="M399.307 263.227L420.327 256.08" stroke="#41474E" stroke-width="1.62" stroke-miterlimit="10"/>
<path d="M420.326 256.08L440.413 258.56" stroke="#41474E" stroke-width="1.62" stroke-miterlimit="10"/>
<path d="M420.326 256.08L428.579 236.773" stroke="#41474E" stroke-width="1.62" stroke-miterlimit="10"/>
<path d="M420.326 256.08L425.153 275.933" stroke="#41474E" stroke-width="1.62" stroke-miterlimit="10"/>
<path d="M428.58 236.773L402.08 236.56" stroke="#41474E" stroke-width="1.62" stroke-miterlimit="10"/>
<path d="M402.08 236.56L399.307 263.227" stroke="#41474E" stroke-width="1.62" stroke-miterlimit="10"/>
<path d="M492.6 443.667L524.726 465.947" stroke="#41474E" stroke-width="1.62" stroke-miterlimit="10"/>
<path d="M585.22 407.727L609.04 383.433" stroke="#41474E" stroke-width="1.62" stroke-miterlimit="10"/>
<path d="M874.56 648.327L889.787 718.193L802.587 723.033L763.553 667.727L745.913 591.493L717.88 531.36L673.66 493.44L591.54 441.473" stroke="#41474E" stroke-width="1.62" stroke-miterlimit="10"/>
<path d="M881.927 711.42L889.787 718.193" stroke="#41474E" stroke-width="1.62" stroke-miterlimit="10"/>
<path d="M763.554 667.727L780.474 663.527" stroke="#41474E" stroke-width="1.62" stroke-miterlimit="10"/>
<path d="M745.907 591.493L765.527 585.393" stroke="#41474E" stroke-width="1.62" stroke-miterlimit="10"/>
<path d="M717.88 531.36L744.973 519.867" stroke="#41474E" stroke-width="1.62" stroke-miterlimit="10"/>
<path d="M673.66 493.44L701.534 468.667" stroke="#41474E" stroke-width="1.62" stroke-miterlimit="10"/>
<path d="M454.113 268.833L487.12 291.08" stroke="#41474E" stroke-width="1.62" stroke-miterlimit="10"/>
<path d="M291.667 525.613L314.287 545.807" stroke="#41474E" stroke-width="1.62" stroke-miterlimit="10"/>
<path d="M532.9 281.353L609.04 383.433" stroke="#41474E" stroke-width="2.85" stroke-miterlimit="10"/>
<path d="M402.08 236.56L354.333 247L320.76 258.56L279.54 274.793L252.387 295.68L233.287 316.133L221.04 341.5L225.147 373.78L240.933 398.7L270.28 411.133L325.613 420.833L378.7 398.7" stroke="#41474E" stroke-width="2.85" stroke-miterlimit="10"/>
<path d="M190.02 480.84L141.706 483.5L134.993 534.98L172.293 573.027L228.253 577.28L291.666 561.087L346.873 523.787L371.866 475.293L378.7 398.7L388.153 351.947" stroke="#41474E" stroke-width="2.85" stroke-miterlimit="10"/>
<path d="M190.947 481.26L161.48 467.833L141.707 470.447L128.28 467.833L121.56 485.74L108.88 497.3L109.254 516.7L103.287 530.5L111.86 546.913V561.46L123.8 574.147L126.04 593.167L142.454 597.647L152.527 612.567L170.8 614.367L188.707 629.353L211.46 624.507L227.874 634.947L256.974 632.34L280.1 637.187L298.38 619.653L318.147 622.267L347.247 595.78H367.014L384.547 574.147L406.927 560.713L418.494 532.74L433.42 527.147L438.287 485.74" stroke="#41474E" stroke-width="2.85" stroke-miterlimit="10"/>
<path d="M438.286 485.74L444.233 570.787L428.193 644.607L388.153 697.327L336.306 745.333L291.666 765.413L250.633 767.447L209.34 738.487L189.566 710.733L207.286 744.58L249.513 777.26L291.293 780.06L348.366 761.967L414.206 718.88L466.426 659.193L497.76 577.28L493.473 475.293L492.6 441.473" stroke="#41474E" stroke-width="2.85" stroke-miterlimit="10"/>
<path d="M476.847 243.767L504.253 252.78" stroke="#41474E" stroke-width="2.85" stroke-miterlimit="10"/>
<path d="M532.9 281.353L504.253 252.78" stroke="#41474E" stroke-width="2.85" stroke-miterlimit="10"/>
<path d="M476.846 243.767L456.479 219.94" stroke="#41474E" stroke-width="2.85" stroke-miterlimit="10"/>
<path d="M456.48 219.94H432.934" stroke="#41474E" stroke-width="2.85" stroke-miterlimit="10"/>
<path d="M432.933 219.94L402.08 236.56" stroke="#41474E" stroke-width="2.85" stroke-miterlimit="10"/>
<path d="M492.6 441.473L511.726 432.64" stroke="#41474E" stroke-width="2.85" stroke-miterlimit="10"/>
<path d="M683.127 752.593L693.587 749.193L698.26 722.567L701.533 748.253L687.987 761.967L676.307 759.467L653.887 761.967L641.273 742.647L622.12 739.38L601.567 714.153L584.287 707.76L573.54 675.853L558.127 659.193L552.987 630.54L543.18 622.087L541.307 595.82" stroke="#41474E" stroke-width="2.85" stroke-miterlimit="10"/>
<path d="M511.727 432.64L537.573 501.147L541.307 595.82" stroke="#41474E" stroke-width="2.85" stroke-miterlimit="10"/>
<path d="M683.587 753.087L623.053 688L592.693 595.82L600.633 485.74L584.5 407.24" stroke="#41474E" stroke-width="2.85" stroke-miterlimit="10"/>
<path d="M493.58 477.873L537.92 510.027" stroke="#41474E" stroke-width="2.85" stroke-miterlimit="10"/>
<path d="M493.58 477.873L513.293 458.02" stroke="#41474E" stroke-width="2.85" stroke-miterlimit="10"/>
<path d="M513.294 458.02L521.734 498.287" stroke="#41474E" stroke-width="2.85" stroke-miterlimit="10"/>
<path d="M594.28 454.807L612.22 482.48L634.047 478.153L652.487 505.82L680.98 510.027L685.94 534.147L710.407 537.587L712.1 567.353L731.427 577.28L728.16 602.513L744.974 622.087L744.114 641.907L754.314 654.867L755.72 670.52L772.014 690.567L782.347 714.807L802.587 725.833L816.44 737.047L842.6 726.767L862.687 734.747L889.787 721.16L897.72 714.807L891.647 697.327L889.787 676.94L874.214 645.5L882.307 711.407L810.687 714.227L780.474 663.527L765.527 585.393L744.974 519.867L701.534 468.667L658.394 427.28L609.04 383.433" stroke="#41474E" stroke-width="2.85" stroke-miterlimit="10"/>
<path d="M600.634 477.873L626.86 529.88L618.214 573.027L600.634 619.933" stroke="#41474E" stroke-width="2.85" stroke-miterlimit="10"/>
<path d="M597.653 527.033L618.213 573.027" stroke="#41474E" stroke-width="2.85" stroke-miterlimit="10"/>
<path d="M565.4 667.053L504.4 730.42L531.86 680.66L552.987 630.54" stroke="#41474E" stroke-width="2.85" stroke-miterlimit="10"/>
<path d="M618.214 573.027L594.28 573.84" stroke="#41474E" stroke-width="2.85" stroke-miterlimit="10"/>
<path d="M526.394 690.567L535.5 698.113" stroke="#41474E" stroke-width="2.85" stroke-miterlimit="10"/>
<path d="M539.826 663.527L557.373 675.393" stroke="#41474E" stroke-width="2.85" stroke-miterlimit="10"/>
<path d="M539.826 663.527L561.326 660.96" stroke="#41474E" stroke-width="2.85" stroke-miterlimit="10"/>
<path d="M539.827 663.527L535.5 698.113" stroke="#41474E" stroke-width="2.85" stroke-miterlimit="10"/>
<path d="M358.54 501.147L291.667 525.613" stroke="#41474E" stroke-width="2.85" stroke-miterlimit="10"/>
<path d="M291.667 525.613L272.427 566" stroke="#41474E" stroke-width="2.85" stroke-miterlimit="10"/>
<path d="M256.974 632.34L252.98 659.193" stroke="#41474E" stroke-width="2.85" stroke-miterlimit="10"/>
<path d="M252.98 659.193L219.62 669.46" stroke="#41474E" stroke-width="2.85" stroke-miterlimit="10"/>
<path d="M219.62 669.46L156.894 644.46" stroke="#41474E" stroke-width="2.85" stroke-miterlimit="10"/>
<path d="M156.894 644.46L219.62 678.893" stroke="#41474E" stroke-width="2.85" stroke-miterlimit="10"/>
<path d="M218.94 678.52L262.087 666.193" stroke="#41474E" stroke-width="2.85" stroke-miterlimit="10"/>
<path d="M261.573 666.193L269.187 634.9" stroke="#41474E" stroke-width="2.85" stroke-miterlimit="10"/>
<path d="M156.894 644.46L169.247 659.193L181.86 661.68L191.667 675.387L209.34 678.893L222.28 687.293L244.687 676.32L265.38 674.687L269.18 657.633L278.787 645.767L273.44 635.793" stroke="#41474E" stroke-width="2.85" stroke-miterlimit="10"/>
<path d="M501.993 733.773L487.479 676.387" stroke="#41474E" stroke-width="2.85" stroke-miterlimit="10"/>
<path d="M487.479 676.387L509.313 720.387" stroke="#41474E" stroke-width="2.85" stroke-miterlimit="10"/>
<path d="M810.679 714.227L802.586 723.033" stroke="#00FF00" stroke-width="1.4" stroke-miterlimit="10"/>
</svg>
