<svg width="1000" height="1000" viewBox="0 0 1000 1000" fill="none" xmlns="http://www.w3.org/2000/svg">
<path d="M616.187 528.673L598.687 481.127L626.867 428.3L616.187 528.673Z" fill="#DA5977"/>
<path d="M432.573 342.273L420.293 313.507L342.96 357.187L432.573 342.273Z" fill="#C072CE"/>
<path d="M653.526 520.26L633.246 423.16L627.8 524.087L653.093 522.687" fill="#9E4DB2"/>
<path d="M527.68 400.847L506.526 421.8L529.526 484.673L527.68 400.847Z" fill="#DA5977"/>
<path d="M289.486 331.1L322.92 325.48L314.34 352.073L289.486 331.1Z" fill="#DA5977"/>
<path d="M684.087 408.527L699.694 389.433L724.78 450.273L684.087 408.527Z" fill="#C072CE"/>
<path d="M761.106 546.16L792.993 555.433L786.273 614.193L761.106 546.16Z" fill="#C072CE"/>
<path d="M615.833 372.32L709.54 400.347L650.34 354.387L615.833 372.32Z" fill="#9E4DB2"/>
<path d="M660.96 388.5L626.667 395.553L667.64 426.433L660.96 388.5Z" fill="#9E4DB2"/>
<path d="M552.173 391.513L515.066 333.06L519.706 399.86L552.173 391.513Z" fill="#9E4DB2"/>
<path d="M614.26 377.593L576.674 334.027L577.147 378.527L614.26 377.593Z" fill="#9E4DB2"/>
<path d="M597.94 286.753L559.76 228.607L567.033 279.053L597.94 286.753Z" fill="#9E4DB2"/>
<path d="M500.833 232.733L554.813 276.593L532.62 230.713L500.833 232.733Z" fill="#9E4DB2"/>
<path d="M591.62 331.5L595.28 287.1L562.547 308.427L591.62 331.5Z" fill="#9E4DB2"/>
<path d="M710.307 682.027L621.24 618.727L621.274 606.233L710.307 682.027Z" fill="#C072CE"/>
<path d="M488.113 199.713L507.413 218.167L502.447 180.187L488.113 199.713Z" fill="#DA5977"/>
<path d="M794.587 616.12L805.527 615.207L823.787 646.12L794.587 616.12Z" fill="#C072CE"/>
<path d="M597.6 503.173L626.773 532.427L620.913 566.58L597.6 503.173Z" fill="#C072CE"/>
<path d="M466.58 625.567L480.46 623.287L519.96 544.48L466.58 625.567Z" fill="#F94BA7"/>
<path d="M460.473 456.867L470.233 352.82L451.387 377.22L460.473 456.867Z" fill="#DA5977"/>
<path d="M564.1 320.42L528.474 207.9L563.514 242.127L564.1 320.42Z" fill="#C072CE"/>
<path d="M602.7 397.58L605.487 307.587L641.667 373.46L602.7 397.58Z" fill="#C072CE"/>
<path d="M602.14 393.293L611.333 465.6L627 412.587L602.14 393.293Z" fill="#C072CE"/>
<path d="M502.867 304.227L512.061 376.533L527.727 323.52L502.867 304.227Z" fill="#C072CE"/>
<path d="M513.8 291.64L472.913 253.313L481.346 303.787L513.8 291.64Z" fill="#C072CE"/>
<path d="M768.693 526.853L781.04 521.273L792.033 564.127L768.693 526.853Z" fill="#9E4DB2"/>
<path d="M442.087 497.867C444.554 495.713 472.4 439.453 472.4 439.453L468.4 419.713L442.087 497.867Z" fill="#F94BA7"/>
<path d="M323.953 360.113L337.16 324.48L394.22 364.84L323.953 360.113Z" fill="#F94BA7"/>
<path d="M537.446 400.52L555.78 351.067L634.98 407.08L537.446 400.52Z" fill="#F94BA7"/>
<path d="M535.48 280.18L531.153 336.793L471.146 260.573L535.48 280.18Z" fill="#F94BA7"/>
<path d="M652.767 364.607L593.24 300.76L597.367 288.007L652.767 364.607Z" fill="#DA5977"/>
<path d="M197.74 182.12C197.317 183.767 196.414 185.251 195.147 186.386C193.88 187.52 192.305 188.253 190.621 188.492C188.937 188.731 187.221 188.466 185.688 187.729C184.155 186.993 182.875 185.819 182.009 184.355C181.143 182.891 180.731 181.203 180.824 179.505C180.918 177.807 181.512 176.175 182.533 174.815C183.554 173.455 184.955 172.428 186.56 171.864C188.164 171.3 189.9 171.225 191.547 171.647C192.642 171.927 193.67 172.421 194.574 173.099C195.478 173.778 196.239 174.627 196.814 175.6C197.389 176.573 197.767 177.649 197.926 178.768C198.085 179.887 198.022 181.026 197.74 182.12Z" fill="#F94BA7"/>
<path d="M138.367 412.207C137.945 413.856 137.044 415.344 135.776 416.481C134.509 417.618 132.932 418.354 131.247 418.595C129.561 418.836 127.842 418.572 126.306 417.835C124.771 417.099 123.489 415.923 122.621 414.458C121.754 412.992 121.341 411.303 121.435 409.602C121.528 407.902 122.124 406.268 123.147 404.906C124.169 403.545 125.573 402.517 127.18 401.953C128.787 401.39 130.525 401.315 132.174 401.74C134.383 402.307 136.277 403.728 137.438 405.691C138.599 407.653 138.934 409.997 138.367 412.207Z" fill="#C072CE"/>
<path d="M103.107 547.667C102.683 549.314 101.78 550.798 100.513 551.932C99.246 553.066 97.671 553.799 95.9873 554.039C94.3036 554.278 92.5868 554.012 91.0539 553.276C89.521 552.54 88.2408 551.365 87.3752 549.902C86.5096 548.438 86.0974 546.75 86.1907 545.052C86.284 543.354 86.8787 541.722 87.8995 540.362C88.9204 539.002 90.3216 537.975 91.9259 537.411C93.5303 536.847 95.2659 536.771 96.9132 537.193C98.0087 537.472 99.0384 537.965 99.9431 538.643C100.848 539.321 101.61 540.171 102.185 541.144C102.761 542.117 103.138 543.194 103.296 544.313C103.454 545.433 103.39 546.572 103.107 547.667Z" fill="#F94BA7"/>
<path d="M871.593 474.387C871.17 476.032 870.268 477.515 869.002 478.648C867.736 479.782 866.163 480.514 864.481 480.753C862.799 480.992 861.083 480.728 859.552 479.992C858.02 479.257 856.741 478.084 855.875 476.622C855.01 475.159 854.598 473.473 854.691 471.777C854.783 470.08 855.377 468.449 856.396 467.09C857.415 465.731 858.815 464.704 860.417 464.14C862.02 463.576 863.754 463.499 865.4 463.92C866.494 464.2 867.523 464.693 868.427 465.37C869.33 466.048 870.091 466.897 870.667 467.869C871.242 468.841 871.62 469.917 871.779 471.036C871.938 472.154 871.875 473.293 871.593 474.387Z" fill="#F94BA7"/>
<path d="M507.893 713.847C507.471 715.494 506.569 716.98 505.302 718.115C504.036 719.25 502.461 719.984 500.777 720.224C499.093 720.464 497.376 720.2 495.842 719.464C494.309 718.728 493.028 717.554 492.162 716.09C491.295 714.626 490.883 712.938 490.976 711.24C491.069 709.541 491.663 707.909 492.684 706.548C493.705 705.188 495.107 704.161 496.712 703.597C498.316 703.033 500.052 702.957 501.7 703.38C502.794 703.66 503.823 704.153 504.726 704.83C505.63 705.508 506.391 706.357 506.967 707.33C507.542 708.302 507.92 709.378 508.079 710.496C508.238 711.614 508.175 712.753 507.893 713.847Z" fill="#C072CE"/>
<path d="M715.447 273.04C715.025 274.688 714.123 276.173 712.856 277.308C711.589 278.443 710.015 279.177 708.331 279.417C706.647 279.657 704.929 279.393 703.396 278.657C701.862 277.921 700.581 276.747 699.715 275.283C698.849 273.819 698.436 272.131 698.529 270.433C698.623 268.734 699.217 267.102 700.238 265.741C701.259 264.381 702.661 263.354 704.265 262.79C705.87 262.226 707.606 262.151 709.254 262.573C711.463 263.14 713.356 264.561 714.518 266.524C715.679 268.487 716.014 270.831 715.447 273.04Z" fill="#C072CE"/>
<path d="M636.72 816.667C635.938 819.72 634.268 822.472 631.921 824.576C629.575 826.68 626.657 828.041 623.537 828.486C620.417 828.932 617.235 828.442 614.393 827.079C611.552 825.716 609.178 823.54 607.573 820.828C605.968 818.116 605.203 814.988 605.375 811.841C605.548 808.695 606.65 805.669 608.542 803.149C610.433 800.628 613.03 798.725 616.004 797.68C618.977 796.636 622.194 796.497 625.247 797.28C629.338 798.331 632.845 800.963 634.997 804.598C637.148 808.234 637.768 812.575 636.72 816.667Z" fill="#F94BA7"/>
<path d="M424.167 314.72L431.06 305.027" stroke="#00FF00" stroke-width="1.05" stroke-miterlimit="10"/>
<path d="M184.24 432.373C183.911 433.105 183.373 433.723 182.693 434.15C182.013 434.576 181.222 434.791 180.42 434.768C179.618 434.745 178.841 434.485 178.187 434.021C177.533 433.556 177.03 432.908 176.744 432.159C176.458 431.409 176.4 430.592 176.578 429.809C176.756 429.027 177.161 428.315 177.744 427.763C178.326 427.211 179.059 426.844 179.85 426.708C180.64 426.572 181.454 426.674 182.187 427C182.675 427.217 183.116 427.529 183.483 427.917C183.851 428.305 184.138 428.761 184.329 429.26C184.52 429.76 184.61 430.292 184.595 430.826C184.58 431.36 184.459 431.886 184.24 432.373Z" fill="#41474E"/>
<path d="M173.087 443.633C172.759 444.365 172.221 444.984 171.541 445.41C170.862 445.837 170.072 446.053 169.27 446.03C168.468 446.008 167.69 445.749 167.036 445.285C166.381 444.821 165.878 444.174 165.591 443.425C165.304 442.676 165.245 441.859 165.422 441.076C165.599 440.294 166.004 439.581 166.585 439.029C167.167 438.476 167.899 438.108 168.69 437.971C169.48 437.835 170.293 437.935 171.027 438.26C171.515 438.477 171.956 438.789 172.324 439.176C172.691 439.564 172.979 440.02 173.171 440.52C173.362 441.019 173.453 441.55 173.439 442.085C173.424 442.619 173.305 443.145 173.087 443.633Z" fill="#41474E"/>
<path d="M166.207 473.76C165.884 474.497 165.349 475.121 164.671 475.553C163.992 475.986 163.2 476.207 162.396 476.188C161.591 476.17 160.811 475.913 160.153 475.45C159.495 474.987 158.989 474.339 158.7 473.588C158.411 472.837 158.351 472.018 158.529 471.233C158.707 470.448 159.114 469.734 159.698 469.181C160.282 468.628 161.018 468.261 161.811 468.127C162.604 467.992 163.42 468.097 164.154 468.427C165.129 468.867 165.891 469.674 166.275 470.672C166.659 471.67 166.635 472.78 166.207 473.76Z" fill="#41474E"/>
<path d="M175.133 503.893C174.805 504.626 174.268 505.245 173.588 505.672C172.908 506.1 172.117 506.316 171.315 506.293C170.513 506.271 169.735 506.012 169.08 505.548C168.425 505.083 167.922 504.436 167.635 503.686C167.348 502.936 167.29 502.118 167.468 501.335C167.646 500.553 168.052 499.84 168.635 499.288C169.217 498.736 169.951 498.369 170.742 498.233C171.533 498.098 172.347 498.2 173.08 498.527C174.062 498.968 174.829 499.781 175.214 500.786C175.599 501.792 175.57 502.909 175.133 503.893Z" fill="#41474E"/>
<path d="M188.294 532.567C187.965 533.299 187.427 533.917 186.747 534.343C186.067 534.769 185.276 534.984 184.474 534.961C183.672 534.938 182.895 534.678 182.241 534.214C181.586 533.75 181.084 533.102 180.798 532.352C180.511 531.603 180.453 530.785 180.631 530.003C180.809 529.22 181.215 528.508 181.797 527.956C182.38 527.404 183.112 527.037 183.903 526.902C184.694 526.766 185.507 526.867 186.24 527.193C186.729 527.411 187.169 527.722 187.537 528.11C187.905 528.498 188.192 528.955 188.383 529.454C188.574 529.953 188.664 530.485 188.649 531.019C188.633 531.553 188.513 532.079 188.294 532.567Z" fill="#41474E"/>
<path d="M213.453 551.873C213.124 552.605 212.586 553.223 211.906 553.65C211.226 554.076 210.435 554.291 209.633 554.268C208.831 554.245 208.054 553.985 207.4 553.521C206.745 553.056 206.243 552.408 205.957 551.659C205.671 550.909 205.613 550.092 205.791 549.309C205.968 548.527 206.374 547.815 206.956 547.263C207.539 546.711 208.272 546.344 209.062 546.208C209.853 546.072 210.666 546.174 211.4 546.5C211.888 546.717 212.328 547.029 212.696 547.417C213.064 547.805 213.351 548.261 213.542 548.76C213.733 549.26 213.823 549.792 213.808 550.326C213.793 550.86 213.672 551.386 213.453 551.873Z" fill="#41474E"/>
<path d="M247.533 566.667C247.204 567.399 246.666 568.017 245.986 568.443C245.306 568.869 244.515 569.084 243.713 569.061C242.911 569.038 242.134 568.778 241.48 568.314C240.825 567.849 240.323 567.202 240.037 566.452C239.751 565.703 239.693 564.885 239.871 564.103C240.048 563.32 240.454 562.608 241.037 562.056C241.619 561.504 242.352 561.137 243.142 561.001C243.933 560.866 244.747 560.967 245.48 561.293C245.968 561.511 246.409 561.822 246.776 562.21C247.144 562.598 247.431 563.054 247.622 563.554C247.813 564.053 247.903 564.585 247.888 565.119C247.873 565.653 247.752 566.179 247.533 566.667Z" fill="#41474E"/>
<path d="M227.92 595.333C227.592 596.066 227.055 596.685 226.375 597.112C225.695 597.539 224.904 597.756 224.102 597.733C223.3 597.711 222.522 597.452 221.867 596.988C221.212 596.523 220.709 595.876 220.422 595.126C220.136 594.376 220.077 593.558 220.255 592.775C220.433 591.993 220.839 591.28 221.422 590.728C222.004 590.176 222.738 589.809 223.529 589.673C224.32 589.538 225.134 589.64 225.867 589.967C226.85 590.407 227.619 591.219 228.004 592.225C228.389 593.231 228.359 594.349 227.92 595.333Z" fill="#41474E"/>
<path d="M249.86 609.027C249.537 609.764 249.002 610.388 248.324 610.82C247.645 611.253 246.854 611.474 246.049 611.455C245.245 611.437 244.464 611.18 243.806 610.717C243.148 610.254 242.642 609.606 242.353 608.855C242.064 608.104 242.005 607.284 242.182 606.5C242.36 605.715 242.767 605.001 243.351 604.448C243.936 603.895 244.671 603.528 245.464 603.393C246.258 603.259 247.073 603.364 247.807 603.693C248.783 604.132 249.546 604.939 249.931 605.938C250.315 606.936 250.29 608.047 249.86 609.027Z" fill="#41474E"/>
<path d="M278.94 621.72C278.611 622.452 278.073 623.07 277.393 623.496C276.714 623.922 275.923 624.138 275.121 624.115C274.319 624.092 273.541 623.832 272.887 623.367C272.233 622.903 271.731 622.255 271.444 621.505C271.158 620.756 271.1 619.938 271.278 619.156C271.456 618.374 271.861 617.661 272.444 617.109C273.026 616.558 273.759 616.19 274.55 616.055C275.34 615.919 276.154 616.02 276.887 616.347C277.375 616.564 277.816 616.875 278.183 617.263C278.551 617.651 278.839 618.108 279.029 618.607C279.22 619.106 279.31 619.638 279.295 620.172C279.28 620.707 279.159 621.232 278.94 621.72Z" fill="#41474E"/>
<path d="M318.94 609.027C318.617 609.764 318.082 610.388 317.404 610.82C316.725 611.253 315.934 611.474 315.129 611.455C314.325 611.437 313.544 611.18 312.886 610.717C312.228 610.254 311.722 609.606 311.433 608.855C311.144 608.104 311.085 607.284 311.262 606.5C311.44 605.715 311.847 605.001 312.431 604.448C313.016 603.895 313.751 603.528 314.545 603.393C315.338 603.259 316.153 603.364 316.887 603.693C317.863 604.132 318.626 604.939 319.011 605.938C319.396 606.936 319.37 608.047 318.94 609.027Z" fill="#41474E"/>
<path d="M331.02 582.707C330.697 583.444 330.163 584.068 329.484 584.5C328.805 584.933 328.014 585.154 327.209 585.135C326.405 585.117 325.624 584.86 324.966 584.397C324.308 583.934 323.802 583.286 323.513 582.535C323.224 581.784 323.165 580.964 323.342 580.18C323.52 579.395 323.927 578.681 324.511 578.128C325.096 577.575 325.831 577.208 326.625 577.073C327.418 576.939 328.233 577.043 328.967 577.373C329.943 577.812 330.707 578.619 331.091 579.618C331.476 580.616 331.45 581.727 331.02 582.707Z" fill="#41474E"/>
<path d="M284 572.493C283.677 573.23 283.142 573.854 282.464 574.287C281.785 574.719 280.993 574.94 280.189 574.922C279.384 574.903 278.604 574.646 277.946 574.183C277.288 573.721 276.782 573.073 276.493 572.322C276.204 571.571 276.144 570.751 276.322 569.966C276.5 569.182 276.907 568.467 277.491 567.914C278.075 567.361 278.811 566.994 279.604 566.86C280.397 566.726 281.213 566.83 281.947 567.16C282.92 567.602 283.681 568.408 284.066 569.406C284.45 570.404 284.426 571.513 284 572.493Z" fill="#41474E"/>
<path d="M333.793 574.666C333.465 575.399 332.928 576.018 332.248 576.445C331.569 576.873 330.778 577.089 329.975 577.067C329.173 577.044 328.395 576.785 327.74 576.321C327.085 575.857 326.582 575.209 326.295 574.459C326.009 573.709 325.95 572.891 326.128 572.109C326.306 571.326 326.712 570.613 327.295 570.061C327.877 569.509 328.611 569.142 329.402 569.007C330.193 568.871 331.007 568.973 331.74 569.3C332.723 569.74 333.492 570.552 333.877 571.558C334.262 572.565 334.232 573.682 333.793 574.666Z" fill="#41474E"/>
<path d="M368.753 560.46C368.425 561.192 367.887 561.81 367.207 562.237C366.528 562.664 365.738 562.879 364.936 562.857C364.134 562.835 363.356 562.576 362.702 562.112C362.047 561.648 361.544 561.001 361.257 560.252C360.97 559.503 360.911 558.686 361.088 557.903C361.265 557.121 361.67 556.408 362.251 555.856C362.833 555.303 363.565 554.935 364.356 554.798C365.146 554.661 365.959 554.762 366.693 555.087C367.181 555.304 367.622 555.615 367.99 556.003C368.357 556.391 368.645 556.847 368.837 557.346C369.028 557.845 369.119 558.377 369.105 558.912C369.09 559.446 368.971 559.972 368.753 560.46Z" fill="#41474E"/>
<path d="M580.353 560.46C580.024 561.192 579.486 561.81 578.806 562.236C578.127 562.662 577.336 562.877 576.534 562.854C575.732 562.832 574.954 562.571 574.3 562.107C573.646 561.643 573.144 560.995 572.857 560.245C572.571 559.496 572.513 558.678 572.691 557.896C572.869 557.114 573.274 556.401 573.857 555.849C574.439 555.297 575.172 554.93 575.963 554.795C576.754 554.659 577.567 554.76 578.3 555.087C578.788 555.304 579.229 555.615 579.596 556.003C579.964 556.391 580.252 556.848 580.442 557.347C580.633 557.846 580.723 558.378 580.708 558.912C580.693 559.446 580.572 559.972 580.353 560.46Z" fill="#41474E"/>
<path d="M650.767 513.92C650.443 514.657 649.909 515.281 649.23 515.714C648.552 516.146 647.76 516.367 646.956 516.349C646.151 516.33 645.37 516.073 644.712 515.61C644.054 515.147 643.548 514.499 643.259 513.748C642.97 512.998 642.911 512.178 643.089 511.393C643.266 510.608 643.673 509.894 644.258 509.341C644.842 508.788 645.577 508.421 646.371 508.287C647.164 508.152 647.979 508.257 648.713 508.587C649.688 509.027 650.45 509.834 650.835 510.832C651.219 511.83 651.195 512.94 650.767 513.92Z" fill="#41474E"/>
<path d="M593.74 595.333C593.412 596.066 592.875 596.686 592.196 597.113C591.517 597.541 590.726 597.758 589.924 597.736C589.122 597.715 588.344 597.456 587.688 596.992C587.033 596.529 586.53 595.882 586.242 595.133C585.955 594.383 585.896 593.566 586.073 592.783C586.249 592 586.654 591.287 587.236 590.734C587.818 590.181 588.551 589.814 589.342 589.677C590.132 589.54 590.946 589.641 591.68 589.967C592.663 590.407 593.432 591.219 593.818 592.225C594.204 593.23 594.176 594.348 593.74 595.333Z" fill="#41474E"/>
<path d="M578.666 599.387C578.339 600.12 577.802 600.739 577.123 601.167C576.444 601.594 575.653 601.811 574.851 601.789C574.048 601.768 573.27 601.509 572.615 601.046C571.96 600.582 571.457 599.935 571.169 599.186C570.881 598.437 570.822 597.619 570.999 596.836C571.176 596.053 571.581 595.34 572.163 594.788C572.745 594.235 573.477 593.867 574.268 593.73C575.059 593.594 575.873 593.694 576.606 594.02C577.591 594.459 578.361 595.271 578.747 596.277C579.133 597.283 579.104 598.402 578.666 599.387Z" fill="#41474E"/>
<path d="M593.733 610.533C593.41 611.27 592.875 611.894 592.197 612.327C591.518 612.759 590.727 612.98 589.922 612.962C589.118 612.943 588.337 612.686 587.679 612.223C587.021 611.76 586.515 611.112 586.226 610.361C585.937 609.611 585.878 608.791 586.055 608.006C586.233 607.221 586.64 606.507 587.224 605.954C587.809 605.401 588.544 605.034 589.338 604.9C590.131 604.765 590.946 604.87 591.68 605.2C592.655 605.64 593.417 606.447 593.801 607.445C594.186 608.443 594.161 609.553 593.733 610.533Z" fill="#41474E"/>
<path d="M564.667 624.793C564.338 625.525 563.8 626.143 563.12 626.569C562.44 626.996 561.649 627.211 560.847 627.188C560.045 627.165 559.268 626.905 558.614 626.441C557.959 625.976 557.457 625.328 557.171 624.579C556.884 623.829 556.826 623.012 557.004 622.229C557.182 621.447 557.588 620.735 558.17 620.183C558.753 619.631 559.485 619.264 560.276 619.128C561.067 618.992 561.88 619.094 562.613 619.42C563.101 619.638 563.541 619.95 563.908 620.338C564.275 620.726 564.563 621.182 564.753 621.681C564.944 622.18 565.034 622.712 565.02 623.246C565.005 623.78 564.885 624.306 564.667 624.793Z" fill="#41474E"/>
<path d="M573.187 631.88C572.859 632.613 572.321 633.232 571.642 633.659C570.962 634.086 570.171 634.302 569.369 634.28C568.566 634.258 567.788 633.998 567.133 633.534C566.478 633.07 565.976 632.422 565.689 631.673C565.402 630.923 565.344 630.105 565.522 629.322C565.7 628.539 566.106 627.827 566.688 627.275C567.271 626.723 568.004 626.356 568.795 626.22C569.587 626.085 570.4 626.187 571.133 626.513C572.117 626.954 572.885 627.766 573.27 628.772C573.655 629.778 573.625 630.896 573.187 631.88Z" fill="#41474E"/>
<path d="M550.773 654.813C550.445 655.545 549.907 656.164 549.228 656.59C548.549 657.017 547.758 657.233 546.956 657.21C546.154 657.188 545.377 656.929 544.722 656.465C544.068 656.002 543.565 655.354 543.278 654.605C542.991 653.856 542.932 653.039 543.109 652.257C543.286 651.474 543.691 650.762 544.272 650.209C544.854 649.656 545.586 649.288 546.376 649.152C547.167 649.015 547.98 649.115 548.713 649.44C549.202 649.657 549.642 649.969 550.01 650.356C550.378 650.744 550.666 651.201 550.857 651.7C551.048 652.199 551.14 652.731 551.125 653.265C551.111 653.799 550.991 654.325 550.773 654.813Z" fill="#41474E"/>
<path d="M618.313 640.3C617.985 641.033 617.447 641.652 616.768 642.079C616.088 642.506 615.297 642.722 614.495 642.7C613.692 642.678 612.914 642.418 612.259 641.954C611.604 641.49 611.102 640.842 610.815 640.093C610.528 639.343 610.47 638.525 610.648 637.742C610.826 636.959 611.232 636.247 611.814 635.695C612.397 635.143 613.13 634.776 613.921 634.64C614.713 634.505 615.526 634.607 616.259 634.933C617.243 635.373 618.011 636.186 618.396 637.192C618.781 638.198 618.751 639.316 618.313 640.3Z" fill="#41474E"/>
<path d="M645.26 428C644.931 428.732 644.392 429.35 643.713 429.776C643.033 430.202 642.242 430.418 641.44 430.395C640.638 430.372 639.861 430.112 639.206 429.647C638.552 429.183 638.05 428.535 637.764 427.786C637.477 427.036 637.419 426.219 637.597 425.436C637.775 424.654 638.181 423.942 638.763 423.39C639.345 422.838 640.078 422.471 640.869 422.335C641.66 422.199 642.473 422.301 643.206 422.627C643.694 422.845 644.134 423.157 644.501 423.545C644.868 423.933 645.155 424.389 645.346 424.888C645.537 425.387 645.627 425.919 645.612 426.453C645.598 426.987 645.478 427.513 645.26 428Z" fill="#41474E"/>
<path d="M684.573 451.46C684.246 452.193 683.708 452.812 683.028 453.239C682.349 453.666 681.558 453.882 680.755 453.86C679.953 453.838 679.175 453.578 678.52 453.114C677.865 452.65 677.363 452.002 677.076 451.253C676.789 450.503 676.731 449.685 676.909 448.902C677.086 448.119 677.492 447.407 678.075 446.855C678.658 446.303 679.391 445.936 680.182 445.8C680.973 445.664 681.787 445.767 682.52 446.093C683.503 446.533 684.272 447.346 684.657 448.352C685.042 449.358 685.012 450.476 684.573 451.46Z" fill="#41474E"/>
<path d="M714.527 477.9C714.2 478.633 713.662 479.252 712.983 479.68C712.304 480.108 711.513 480.324 710.711 480.303C709.909 480.281 709.131 480.023 708.476 479.559C707.82 479.096 707.317 478.449 707.029 477.699C706.742 476.95 706.683 476.132 706.86 475.349C707.037 474.567 707.441 473.854 708.023 473.301C708.605 472.748 709.338 472.38 710.129 472.244C710.92 472.107 711.733 472.208 712.467 472.533C713.45 472.974 714.219 473.786 714.605 474.791C714.991 475.797 714.963 476.915 714.527 477.9Z" fill="#41474E"/>
<path d="M738.88 508.62C738.551 509.352 738.013 509.97 737.333 510.396C736.653 510.822 735.862 511.038 735.06 511.015C734.258 510.992 733.481 510.732 732.826 510.267C732.172 509.803 731.67 509.155 731.384 508.406C731.097 507.656 731.039 506.838 731.217 506.056C731.395 505.274 731.801 504.562 732.383 504.01C732.966 503.458 733.698 503.091 734.489 502.955C735.28 502.819 736.093 502.921 736.826 503.247C737.314 503.465 737.754 503.776 738.121 504.164C738.488 504.552 738.775 505.009 738.966 505.508C739.157 506.007 739.247 506.539 739.232 507.073C739.218 507.607 739.098 508.132 738.88 508.62Z" fill="#41474E"/>
<path d="M753.8 541.753C753.472 542.485 752.933 543.103 752.254 543.529C751.574 543.956 750.783 544.171 749.981 544.148C749.179 544.125 748.402 543.865 747.747 543.401C747.093 542.936 746.591 542.288 746.305 541.539C746.018 540.789 745.96 539.972 746.138 539.189C746.316 538.407 746.722 537.695 747.304 537.143C747.886 536.591 748.619 536.224 749.41 536.088C750.201 535.952 751.014 536.054 751.747 536.38C752.235 536.598 752.675 536.91 753.042 537.298C753.409 537.686 753.696 538.142 753.887 538.641C754.078 539.14 754.168 539.672 754.153 540.206C754.138 540.74 754.019 541.266 753.8 541.753Z" fill="#41474E"/>
<path d="M769.16 578.393C768.831 579.125 768.293 579.743 767.613 580.169C766.933 580.596 766.142 580.811 765.34 580.788C764.538 580.765 763.761 580.505 763.107 580.04C762.452 579.576 761.95 578.928 761.664 578.179C761.378 577.429 761.32 576.612 761.498 575.829C761.675 575.047 762.081 574.335 762.663 573.783C763.246 573.231 763.979 572.864 764.769 572.728C765.56 572.592 766.374 572.694 767.107 573.02C767.595 573.237 768.036 573.549 768.403 573.936C768.771 574.324 769.058 574.781 769.249 575.28C769.44 575.779 769.53 576.311 769.515 576.846C769.5 577.38 769.379 577.906 769.16 578.393Z" fill="#41474E"/>
<path d="M780.066 605.96C779.737 606.692 779.199 607.31 778.519 607.736C777.839 608.162 777.049 608.377 776.247 608.355C775.445 608.332 774.667 608.072 774.013 607.607C773.359 607.143 772.857 606.495 772.57 605.745C772.284 604.996 772.226 604.178 772.404 603.396C772.582 602.614 772.987 601.901 773.57 601.349C774.152 600.797 774.885 600.43 775.676 600.295C776.466 600.159 777.28 600.26 778.013 600.587C778.501 600.804 778.94 601.116 779.308 601.504C779.675 601.892 779.962 602.349 780.153 602.848C780.343 603.347 780.434 603.879 780.419 604.413C780.404 604.947 780.284 605.472 780.066 605.96Z" fill="#41474E"/>
<path d="M803.333 644.667C803.005 645.399 802.467 646.017 801.788 646.444C801.108 646.87 800.318 647.086 799.516 647.064C798.714 647.042 797.937 646.782 797.282 646.319C796.627 645.855 796.125 645.208 795.837 644.459C795.55 643.71 795.491 642.892 795.668 642.11C795.845 641.327 796.25 640.615 796.832 640.062C797.413 639.51 798.145 639.142 798.936 639.005C799.726 638.868 800.539 638.968 801.273 639.293C801.761 639.511 802.202 639.822 802.57 640.21C802.938 640.597 803.225 641.054 803.417 641.553C803.608 642.052 803.699 642.584 803.685 643.118C803.67 643.652 803.551 644.179 803.333 644.667Z" fill="#41474E"/>
<path d="M837.726 668.453C837.404 669.19 836.87 669.815 836.192 670.248C835.514 670.68 834.722 670.902 833.918 670.884C833.114 670.867 832.333 670.611 831.674 670.148C831.016 669.686 830.51 669.039 830.22 668.288C829.93 667.538 829.87 666.718 830.046 665.933C830.223 665.149 830.629 664.434 831.213 663.88C831.796 663.327 832.531 662.959 833.324 662.823C834.117 662.688 834.932 662.791 835.667 663.12C836.643 663.559 837.406 664.365 837.792 665.364C838.178 666.362 838.154 667.472 837.726 668.453Z" fill="#41474E"/>
<path d="M880.074 666.293C879.746 667.026 879.209 667.646 878.53 668.073C877.851 668.501 877.06 668.718 876.258 668.696C875.456 668.675 874.678 668.416 874.022 667.952C873.367 667.489 872.864 666.842 872.576 666.093C872.289 665.343 872.23 664.526 872.407 663.743C872.583 662.96 872.988 662.247 873.57 661.694C874.152 661.141 874.885 660.773 875.676 660.637C876.467 660.5 877.28 660.601 878.014 660.927C878.998 661.366 879.768 662.177 880.154 663.184C880.541 664.19 880.512 665.308 880.074 666.293Z" fill="#41474E"/>
<path d="M913.467 647.56C913.139 648.293 912.601 648.912 911.922 649.339C911.242 649.766 910.451 649.982 909.649 649.96C908.846 649.938 908.069 649.678 907.414 649.214C906.759 648.75 906.256 648.102 905.969 647.353C905.682 646.603 905.624 645.785 905.802 645.002C905.98 644.219 906.386 643.507 906.969 642.955C907.551 642.403 908.284 642.036 909.076 641.9C909.867 641.765 910.681 641.867 911.414 642.193C912.397 642.633 913.165 643.446 913.55 644.452C913.935 645.458 913.905 646.576 913.467 647.56Z" fill="#41474E"/>
<path d="M906 612C905.678 612.737 905.143 613.361 904.465 613.794C903.787 614.227 902.996 614.449 902.191 614.431C901.387 614.413 900.606 614.157 899.948 613.695C899.29 613.233 898.783 612.585 898.493 611.835C898.204 611.084 898.143 610.265 898.32 609.48C898.497 608.695 898.903 607.981 899.486 607.427C900.07 606.873 900.805 606.505 901.598 606.37C902.391 606.235 903.206 606.338 903.94 606.667C904.916 607.106 905.68 607.912 906.066 608.91C906.451 609.909 906.428 611.019 906 612Z" fill="#41474E"/>
<path d="M654.953 670.36C654.63 671.097 654.095 671.721 653.417 672.154C652.738 672.586 651.946 672.807 651.142 672.789C650.338 672.77 649.557 672.513 648.899 672.05C648.241 671.587 647.735 670.939 647.446 670.188C647.157 669.437 647.097 668.618 647.275 667.833C647.453 667.048 647.86 666.334 648.444 665.781C649.028 665.228 649.764 664.861 650.557 664.727C651.351 664.592 652.166 664.697 652.9 665.027C653.876 665.466 654.639 666.272 655.024 667.271C655.408 668.27 655.383 669.38 654.953 670.36Z" fill="#41474E"/>
<path d="M684.573 691.867C684.244 692.599 683.706 693.217 683.026 693.643C682.346 694.069 681.555 694.284 680.753 694.261C679.951 694.238 679.174 693.978 678.52 693.514C677.866 693.049 677.363 692.402 677.077 691.652C676.791 690.903 676.733 690.085 676.911 689.303C677.089 688.52 677.494 687.808 678.077 687.256C678.659 686.704 679.392 686.337 680.182 686.201C680.973 686.066 681.787 686.167 682.52 686.493C683.008 686.71 683.449 687.022 683.816 687.41C684.184 687.798 684.471 688.254 684.662 688.754C684.853 689.253 684.943 689.785 684.928 690.319C684.913 690.853 684.792 691.379 684.573 691.867Z" fill="#41474E"/>
<path d="M717.047 691.867C716.718 692.599 716.18 693.217 715.5 693.643C714.82 694.069 714.029 694.284 713.227 694.261C712.425 694.238 711.648 693.978 710.993 693.514C710.339 693.049 709.837 692.402 709.551 691.652C709.264 690.903 709.206 690.085 709.384 689.303C709.562 688.52 709.968 687.808 710.55 687.256C711.133 686.704 711.865 686.337 712.656 686.201C713.447 686.066 714.26 686.167 714.993 686.493C715.482 686.71 715.922 687.022 716.29 687.41C716.658 687.798 716.945 688.254 717.136 688.754C717.327 689.253 717.417 689.785 717.402 690.319C717.386 690.853 717.266 691.379 717.047 691.867Z" fill="#41474E"/>
<path d="M415 535.787C414.677 536.523 414.142 537.148 413.464 537.58C412.785 538.013 411.993 538.234 411.189 538.215C410.384 538.197 409.604 537.94 408.946 537.477C408.288 537.014 407.782 536.366 407.493 535.615C407.204 534.864 407.144 534.044 407.322 533.259C407.5 532.475 407.907 531.761 408.491 531.207C409.075 530.654 409.811 530.287 410.604 530.153C411.397 530.019 412.213 530.123 412.947 530.453C413.923 530.892 414.686 531.699 415.071 532.697C415.455 533.696 415.43 534.806 415 535.787Z" fill="#41474E"/>
<path d="M452.447 502.32C452.118 503.052 451.58 503.67 450.9 504.096C450.22 504.522 449.429 504.737 448.627 504.714C447.825 504.692 447.048 504.431 446.394 503.967C445.74 503.503 445.237 502.855 444.951 502.105C444.665 501.356 444.607 500.538 444.785 499.756C444.963 498.974 445.368 498.261 445.951 497.71C446.533 497.158 447.266 496.791 448.056 496.655C448.847 496.519 449.661 496.621 450.394 496.947C450.881 497.165 451.321 497.476 451.689 497.864C452.056 498.252 452.343 498.709 452.533 499.208C452.724 499.707 452.815 500.239 452.8 500.773C452.785 501.307 452.665 501.832 452.447 502.32Z" fill="#41474E"/>
<path d="M487.453 511.84C487.125 512.572 486.587 513.19 485.908 513.617C485.228 514.043 484.438 514.259 483.636 514.237C482.834 514.215 482.057 513.955 481.402 513.492C480.747 513.028 480.245 512.381 479.958 511.632C479.67 510.883 479.612 510.066 479.788 509.283C479.965 508.501 480.37 507.788 480.952 507.236C481.533 506.683 482.265 506.315 483.056 506.178C483.846 506.041 484.66 506.142 485.393 506.467C485.881 506.684 486.322 506.995 486.69 507.383C487.058 507.771 487.346 508.227 487.537 508.726C487.728 509.225 487.819 509.757 487.805 510.291C487.791 510.826 487.671 511.352 487.453 511.84Z" fill="#41474E"/>
<path d="M472.38 581.48C472.051 582.212 471.513 582.83 470.833 583.256C470.153 583.683 469.362 583.898 468.56 583.875C467.758 583.852 466.981 583.592 466.326 583.127C465.672 582.663 465.17 582.015 464.884 581.266C464.597 580.516 464.539 579.699 464.717 578.916C464.895 578.134 465.301 577.422 465.883 576.87C466.466 576.318 467.198 575.951 467.989 575.815C468.78 575.679 469.593 575.781 470.326 576.107C470.815 576.324 471.255 576.635 471.623 577.023C471.991 577.411 472.278 577.868 472.469 578.367C472.66 578.866 472.75 579.398 472.735 579.933C472.719 580.467 472.599 580.993 472.38 581.48Z" fill="#41474E"/>
<path d="M434.773 631.147C434.445 631.879 433.907 632.497 433.228 632.924C432.549 633.35 431.758 633.566 430.956 633.544C430.154 633.521 429.377 633.262 428.722 632.799C428.068 632.335 427.565 631.688 427.278 630.939C426.991 630.19 426.932 629.372 427.109 628.59C427.286 627.807 427.691 627.095 428.272 626.542C428.854 625.99 429.586 625.622 430.376 625.485C431.167 625.348 431.98 625.448 432.713 625.773C433.202 625.991 433.642 626.302 434.01 626.69C434.378 627.077 434.666 627.534 434.857 628.033C435.049 628.532 435.14 629.064 435.125 629.598C435.111 630.132 434.991 630.659 434.773 631.147Z" fill="#41474E"/>
<path d="M386.053 676.24C385.725 676.973 385.187 677.592 384.508 678.019C383.828 678.446 383.037 678.662 382.235 678.64C381.432 678.618 380.655 678.358 380 677.894C379.345 677.43 378.842 676.782 378.555 676.033C378.268 675.283 378.21 674.465 378.388 673.682C378.566 672.899 378.972 672.187 379.555 671.635C380.137 671.083 380.87 670.716 381.662 670.58C382.453 670.444 383.266 670.547 384 670.873C384.982 671.315 385.749 672.127 386.134 673.133C386.519 674.139 386.49 675.256 386.053 676.24Z" fill="#41474E"/>
<path d="M343.187 695.1C342.859 695.833 342.321 696.452 341.642 696.879C340.962 697.306 340.171 697.523 339.369 697.5C338.566 697.478 337.788 697.219 337.133 696.754C336.478 696.29 335.976 695.642 335.689 694.893C335.402 694.143 335.344 693.325 335.522 692.542C335.7 691.759 336.106 691.047 336.688 690.495C337.271 689.943 338.004 689.576 338.795 689.44C339.587 689.305 340.4 689.407 341.133 689.733C341.621 689.951 342.061 690.262 342.428 690.649C342.795 691.037 343.082 691.493 343.273 691.991C343.464 692.49 343.554 693.021 343.539 693.554C343.525 694.088 343.405 694.613 343.187 695.1Z" fill="#41474E"/>
<path d="M304.993 697.02C304.664 697.752 304.126 698.37 303.446 698.796C302.766 699.222 301.975 699.437 301.173 699.415C300.371 699.392 299.594 699.132 298.94 698.667C298.285 698.203 297.783 697.555 297.497 696.805C297.211 696.056 297.153 695.238 297.331 694.456C297.508 693.674 297.914 692.962 298.496 692.41C299.079 691.858 299.812 691.49 300.602 691.355C301.393 691.219 302.206 691.321 302.94 691.647C303.428 691.864 303.868 692.175 304.236 692.563C304.604 692.951 304.891 693.408 305.082 693.907C305.273 694.406 305.363 694.938 305.348 695.472C305.333 696.007 305.212 696.533 304.993 697.02Z" fill="#41474E"/>
<path d="M477.606 471.16C477.284 471.897 476.75 472.522 476.072 472.954C475.394 473.387 474.602 473.609 473.798 473.591C472.994 473.573 472.213 473.317 471.554 472.855C470.896 472.393 470.39 471.745 470.1 470.995C469.81 470.245 469.75 469.425 469.926 468.64C470.103 467.855 470.509 467.141 471.093 466.587C471.676 466.033 472.411 465.665 473.204 465.53C473.997 465.395 474.812 465.498 475.546 465.827C476.52 466.268 477.282 467.075 477.667 468.072C478.052 469.07 478.03 470.178 477.606 471.16Z" fill="#41474E"/>
<path d="M552.327 407.38C551.998 408.112 551.46 408.73 550.78 409.156C550.1 409.582 549.309 409.798 548.507 409.775C547.705 409.752 546.928 409.492 546.274 409.027C545.619 408.563 545.117 407.915 544.831 407.166C544.545 406.416 544.487 405.598 544.665 404.816C544.842 404.034 545.248 403.322 545.831 402.77C546.413 402.218 547.146 401.851 547.936 401.715C548.727 401.579 549.54 401.681 550.274 402.007C550.762 402.224 551.203 402.535 551.57 402.923C551.938 403.311 552.225 403.768 552.416 404.267C552.607 404.766 552.697 405.298 552.682 405.832C552.667 406.367 552.546 406.893 552.327 407.38Z" fill="#41474E"/>
<path d="M535.334 425.247C535.005 425.979 534.467 426.597 533.787 427.023C533.107 427.449 532.316 427.664 531.514 427.641C530.712 427.618 529.935 427.358 529.281 426.894C528.626 426.43 528.124 425.782 527.838 425.032C527.551 424.283 527.493 423.465 527.671 422.683C527.849 421.9 528.255 421.188 528.837 420.636C529.42 420.084 530.152 419.717 530.943 419.582C531.734 419.446 532.547 419.547 533.28 419.873C533.769 420.091 534.209 420.402 534.577 420.79C534.945 421.178 535.232 421.634 535.423 422.134C535.614 422.633 535.704 423.165 535.689 423.699C535.673 424.233 535.553 424.759 535.334 425.247Z" fill="#41474E"/>
<path d="M560.253 443.673C559.93 444.41 559.395 445.034 558.716 445.467C558.038 445.899 557.246 446.12 556.442 446.102C555.637 446.083 554.857 445.826 554.199 445.364C553.54 444.901 553.035 444.253 552.746 443.502C552.457 442.751 552.397 441.931 552.575 441.146C552.753 440.361 553.159 439.647 553.744 439.094C554.328 438.541 555.064 438.174 555.857 438.04C556.65 437.906 557.466 438.01 558.2 438.34C559.174 438.78 559.937 439.587 560.321 440.585C560.705 441.583 560.681 442.693 560.253 443.673Z" fill="#41474E"/>
<path d="M376.88 370.96C376.551 371.692 376.013 372.31 375.333 372.736C374.653 373.162 373.862 373.378 373.06 373.355C372.258 373.332 371.481 373.072 370.826 372.607C370.172 372.143 369.67 371.495 369.384 370.746C369.097 369.996 369.039 369.179 369.217 368.396C369.395 367.614 369.801 366.902 370.383 366.35C370.966 365.798 371.698 365.431 372.489 365.295C373.28 365.159 374.093 365.261 374.826 365.587C375.314 365.805 375.754 366.117 376.121 366.505C376.488 366.893 376.775 367.349 376.966 367.848C377.157 368.347 377.247 368.879 377.232 369.413C377.218 369.947 377.098 370.472 376.88 370.96Z" fill="#41474E"/>
<path d="M280.34 327.073C280.013 327.806 279.476 328.426 278.797 328.853C278.117 329.281 277.327 329.498 276.525 329.476C275.722 329.455 274.944 329.196 274.289 328.733C273.634 328.269 273.13 327.622 272.843 326.873C272.555 326.123 272.496 325.306 272.673 324.523C272.85 323.74 273.255 323.027 273.837 322.474C274.419 321.921 275.151 321.554 275.942 321.417C276.733 321.28 277.547 321.381 278.28 321.707C279.265 322.146 280.035 322.957 280.421 323.964C280.807 324.97 280.778 326.089 280.34 327.073Z" fill="#41474E"/>
<path d="M289.28 273.047C288.951 273.778 288.413 274.397 287.733 274.823C287.053 275.249 286.262 275.464 285.46 275.441C284.658 275.418 283.881 275.158 283.227 274.694C282.573 274.229 282.07 273.582 281.784 272.832C281.498 272.083 281.44 271.265 281.618 270.483C281.796 269.7 282.201 268.988 282.784 268.436C283.366 267.884 284.099 267.517 284.89 267.381C285.68 267.246 286.494 267.347 287.227 267.673C287.715 267.89 288.156 268.202 288.523 268.59C288.891 268.978 289.178 269.434 289.369 269.934C289.56 270.433 289.65 270.965 289.635 271.499C289.62 272.033 289.499 272.559 289.28 273.047Z" fill="#41474E"/>
<path d="M333.706 233.507C333.379 234.24 332.842 234.859 332.163 235.287C331.484 235.714 330.693 235.931 329.891 235.91C329.088 235.888 328.311 235.629 327.655 235.166C327 234.702 326.497 234.055 326.209 233.306C325.921 232.557 325.862 231.739 326.039 230.956C326.216 230.173 326.621 229.46 327.203 228.908C327.785 228.355 328.518 227.987 329.308 227.85C330.099 227.714 330.913 227.815 331.646 228.14C332.63 228.58 333.399 229.392 333.785 230.398C334.171 231.404 334.143 232.522 333.706 233.507Z" fill="#41474E"/>
<path d="M447.853 198.287C447.524 199.019 446.986 199.637 446.306 200.063C445.627 200.489 444.836 200.704 444.034 200.681C443.232 200.658 442.454 200.398 441.8 199.934C441.146 199.47 440.644 198.822 440.357 198.072C440.071 197.323 440.013 196.505 440.191 195.723C440.369 194.94 440.774 194.228 441.357 193.676C441.939 193.124 442.672 192.757 443.463 192.622C444.254 192.486 445.067 192.587 445.8 192.913C446.288 193.131 446.728 193.443 447.095 193.831C447.462 194.219 447.749 194.676 447.94 195.175C448.13 195.674 448.221 196.205 448.206 196.739C448.191 197.273 448.071 197.799 447.853 198.287Z" fill="#41474E"/>
<path d="M434.366 306.667C434.043 307.404 433.508 308.028 432.83 308.46C432.151 308.893 431.359 309.114 430.555 309.095C429.751 309.077 428.97 308.82 428.312 308.357C427.654 307.894 427.148 307.246 426.859 306.495C426.57 305.744 426.51 304.924 426.688 304.14C426.866 303.355 427.273 302.641 427.857 302.088C428.441 301.534 429.177 301.168 429.97 301.033C430.764 300.899 431.579 301.003 432.313 301.333C433.288 301.774 434.05 302.58 434.434 303.579C434.819 304.577 434.794 305.686 434.366 306.667Z" fill="#41474E"/>
<path d="M464.994 216.627C464.666 217.359 464.129 217.979 463.45 218.406C462.771 218.834 461.98 219.051 461.178 219.029C460.376 219.008 459.598 218.749 458.942 218.286C458.287 217.822 457.784 217.175 457.496 216.426C457.209 215.677 457.15 214.859 457.326 214.076C457.503 213.293 457.908 212.58 458.49 212.027C459.072 211.475 459.805 211.107 460.596 210.97C461.386 210.834 462.2 210.934 462.934 211.26C463.917 211.7 464.686 212.512 465.072 213.518C465.458 214.524 465.43 215.642 464.994 216.627Z" fill="#41474E"/>
<path d="M518.527 205.06C518.198 205.792 517.66 206.41 516.98 206.836C516.3 207.262 515.51 207.477 514.708 207.455C513.905 207.432 513.128 207.171 512.474 206.707C511.82 206.243 511.318 205.595 511.031 204.845C510.745 204.096 510.687 203.278 510.865 202.496C511.043 201.714 511.448 201.001 512.031 200.45C512.613 199.898 513.346 199.531 514.137 199.395C514.927 199.259 515.741 199.361 516.474 199.687C516.962 199.904 517.403 200.215 517.77 200.603C518.138 200.991 518.425 201.448 518.616 201.947C518.807 202.446 518.897 202.978 518.882 203.512C518.867 204.047 518.746 204.572 518.527 205.06Z" fill="#41474E"/>
<path d="M570.746 240.573C570.42 241.306 569.884 241.925 569.206 242.353C568.528 242.781 567.738 242.998 566.937 242.978C566.135 242.958 565.357 242.701 564.702 242.239C564.046 241.778 563.542 241.133 563.252 240.385C562.963 239.637 562.901 238.821 563.075 238.038C563.249 237.255 563.651 236.542 564.23 235.987C564.809 235.433 565.54 235.062 566.329 234.922C567.119 234.782 567.932 234.879 568.666 235.2C569.155 235.417 569.595 235.729 569.963 236.117C570.331 236.504 570.618 236.961 570.809 237.46C571 237.96 571.09 238.491 571.075 239.026C571.059 239.56 570.939 240.086 570.72 240.573" fill="#41474E"/>
<path d="M641.193 336.267C640.864 336.998 640.326 337.616 639.646 338.043C638.966 338.469 638.176 338.684 637.373 338.661C636.571 338.638 635.794 338.378 635.14 337.914C634.486 337.449 633.984 336.802 633.697 336.052C633.411 335.303 633.353 334.485 633.531 333.703C633.709 332.92 634.114 332.208 634.697 331.656C635.279 331.104 636.012 330.737 636.803 330.601C637.593 330.466 638.407 330.567 639.14 330.893C639.628 331.11 640.069 331.422 640.436 331.81C640.804 332.198 641.091 332.654 641.282 333.153C641.473 333.653 641.563 334.185 641.548 334.719C641.533 335.253 641.412 335.779 641.193 336.267Z" fill="#41474E"/>
<path d="M481.667 432.373C481.338 433.105 480.8 433.723 480.12 434.15C479.44 434.576 478.649 434.791 477.847 434.768C477.045 434.745 476.268 434.485 475.614 434.021C474.959 433.556 474.457 432.908 474.171 432.159C473.884 431.409 473.826 430.592 474.004 429.809C474.182 429.027 474.588 428.315 475.17 427.763C475.753 427.211 476.485 426.844 477.276 426.708C478.067 426.572 478.88 426.674 479.613 427C480.102 427.217 480.542 427.529 480.91 427.917C481.278 428.305 481.565 428.761 481.756 429.26C481.947 429.76 482.037 430.292 482.022 430.826C482.006 431.36 481.886 431.886 481.667 432.373Z" fill="#41474E"/>
<path d="M417.333 423.907C417 424.638 416.458 425.254 415.774 425.676C415.091 426.099 414.297 426.309 413.494 426.28C412.691 426.252 411.915 425.985 411.263 425.515C410.612 425.045 410.114 424.392 409.834 423.639C409.554 422.886 409.503 422.067 409.689 421.285C409.874 420.503 410.288 419.794 410.877 419.247C411.466 418.701 412.203 418.341 412.997 418.214C413.79 418.087 414.603 418.198 415.333 418.533C415.822 418.75 416.262 419.062 416.63 419.45C416.998 419.838 417.285 420.294 417.476 420.794C417.667 421.293 417.757 421.825 417.742 422.359C417.726 422.893 417.606 423.419 417.387 423.907" fill="#41474E"/>
<path d="M556.547 442.5L568.874 438.427" stroke="#00FF00" stroke-width="2.63" stroke-miterlimit="10"/>
<path d="M556.507 247.847L567.033 238.707" stroke="#41474E" stroke-width="1.62" stroke-miterlimit="10"/>
<path d="M591.613 340.713L616.187 357.427" stroke="#41474E" stroke-width="1.62" stroke-miterlimit="10"/>
<path d="M556.507 247.847L616.187 357.427" stroke="#41474E" stroke-width="1.62" stroke-miterlimit="10"/>
<path d="M424.167 217.3L399.287 206.44" stroke="#41474E" stroke-width="1.62" stroke-miterlimit="10"/>
<path d="M431.061 305.027L461.314 334.5L478.154 430.713" stroke="#41474E" stroke-width="1.62" stroke-miterlimit="10"/>
<path d="M477.96 430.947L429.193 496.593L351.047 541.52L285.28 551.547L217.067 535.953L174.073 479.307L192.593 423.327L244.22 425.793" stroke="#41474E" stroke-width="1.62" stroke-miterlimit="10"/>
<path d="M424.167 314.72L359.107 340.653L307.84 332.267L277.927 325.54" stroke="#41474E" stroke-width="1.62" stroke-miterlimit="10"/>
<path d="M372.3 369.74L357.587 340.653L349.174 297.9L359.107 254.093L378.58 221.173L401.034 206.06" stroke="#41474E" stroke-width="1.62" stroke-miterlimit="10"/>
<path d="M428.013 320.073L424.167 314.72L413.653 283.18V246.387L424.167 217.3L444.14 196.627" stroke="#41474E" stroke-width="1.62" stroke-miterlimit="10"/>
<path d="M413.653 283.18L387.44 293.333L349.173 297.9H306.42L274.066 295.213" stroke="#41474E" stroke-width="1.62" stroke-miterlimit="10"/>
<path d="M424.167 217.3H409.313L377.907 221.673L337.093 237.407L306.42 249.933" stroke="#41474E" stroke-width="1.62" stroke-miterlimit="10"/>
<path d="M274.066 295.213L359.106 254.093" stroke="#41474E" stroke-width="1.62" stroke-miterlimit="10"/>
<path d="M387.439 293.327L424.166 314.72" stroke="#41474E" stroke-width="1.62" stroke-miterlimit="10"/>
<path d="M357.586 340.653L274.066 295.213" stroke="#41474E" stroke-width="1.62" stroke-miterlimit="10"/>
<path d="M292.753 348.947L359.106 340.653" stroke="#41474E" stroke-width="1.62" stroke-miterlimit="10"/>
<path d="M359.106 340.653H424.166" stroke="#41474E" stroke-width="1.62" stroke-miterlimit="10"/>
<path d="M358.46 253.213L424.167 217.3" stroke="#41474E" stroke-width="1.62" stroke-miterlimit="10"/>
<path d="M306.42 249.933L358.46 253.213" stroke="#41474E" stroke-width="1.62" stroke-miterlimit="10"/>
<path d="M358.46 253.213L413.653 283.187" stroke="#41474E" stroke-width="1.62" stroke-miterlimit="10"/>
<path d="M422.18 348.947L359.106 340.653" stroke="#41474E" stroke-width="1.62" stroke-miterlimit="10"/>
<path d="M192.594 423.327L199.54 428.613" stroke="#41474E" stroke-width="1.62" stroke-miterlimit="10"/>
<path d="M228.273 512.713L222.666 514.467L217.066 535.953" stroke="#41474E" stroke-width="1.62" stroke-miterlimit="10"/>
<path d="M280.84 516.713L275.233 524.333L285.28 551.547" stroke="#41474E" stroke-width="1.62" stroke-miterlimit="10"/>
<path d="M340.413 501.5L338.313 512.713L351.047 541.52" stroke="#41474E" stroke-width="1.62" stroke-miterlimit="10"/>
<path d="M392.28 466.46L398.587 479.307L429.194 496.593" stroke="#41474E" stroke-width="1.62" stroke-miterlimit="10"/>
<path d="M415.753 420.9L434.066 427.033L478.153 430.713" stroke="#41474E" stroke-width="1.62" stroke-miterlimit="10"/>
<path d="M431.06 305.027L434.067 427.033L398.587 479.307L338.313 512.713L275.233 524.333L222.667 514.467L193.233 476.973L174.073 479.307" stroke="#41474E" stroke-width="1.62" stroke-miterlimit="10"/>
<path d="M470.773 292.293L492.32 393.533L501.613 506.113L480.6 579.82L435.553 639.047L382.347 683.254L339.48 698.447H300.7L263.073 668.153" stroke="#41474E" stroke-width="1.62" stroke-miterlimit="10"/>
<path d="M483.74 510.613L501.614 506.113L534.027 516.713" stroke="#41474E" stroke-width="1.62" stroke-miterlimit="10"/>
<path d="M468.674 579.96L480.601 579.82L504.594 593.667" stroke="#41474E" stroke-width="1.62" stroke-miterlimit="10"/>
<path d="M431.061 629.487L435.554 639.047L456.094 649.087" stroke="#41474E" stroke-width="1.62" stroke-miterlimit="10"/>
<path d="M382.347 674.587V683.253L393.68 690.207" stroke="#41474E" stroke-width="1.62" stroke-miterlimit="10"/>
<path d="M340.414 693.447L339.48 698.447L340.06 707.207" stroke="#41474E" stroke-width="1.62" stroke-miterlimit="10"/>
<path d="M301.867 695.36L300.7 698.447L300.814 704.573" stroke="#41474E" stroke-width="1.62" stroke-miterlimit="10"/>
<path d="M461.313 334.5L470.773 292.293L501.613 310.167L529.18 389.127" stroke="#41474E" stroke-width="1.62" stroke-miterlimit="10"/>
<path d="M470.773 292.293L418.913 246.4" stroke="#41474E" stroke-width="1.62" stroke-miterlimit="10"/>
<path d="M418.913 246.4L431.06 305.027" stroke="#41474E" stroke-width="1.62" stroke-miterlimit="10"/>
<path d="M418.913 246.4L424.166 217.3" stroke="#41474E" stroke-width="1.62" stroke-miterlimit="10"/>
<path d="M413.653 283.187L431.06 305.027" stroke="#41474E" stroke-width="1.62" stroke-miterlimit="10"/>
<path d="M413.653 283.187L418.913 246.4" stroke="#41474E" stroke-width="1.62" stroke-miterlimit="10"/>
<path d="M478.153 430.713L492.32 393.533" stroke="#41474E" stroke-width="1.62" stroke-miterlimit="10"/>
<path d="M492.32 393.533L529.18 389.127" stroke="#41474E" stroke-width="1.62" stroke-miterlimit="10"/>
<path d="M501.613 310.167L505.6 267.027" stroke="#41474E" stroke-width="1.62" stroke-miterlimit="10"/>
<path d="M505.6 267.027L524.033 247.847" stroke="#41474E" stroke-width="1.62" stroke-miterlimit="10"/>
<path d="M524.033 247.847H556.507" stroke="#41474E" stroke-width="1.62" stroke-miterlimit="10"/>
<path d="M514.38 203.4L556.507 247.847" stroke="#41474E" stroke-width="1.62" stroke-miterlimit="10"/>
<path d="M465.813 244.213L505.6 267.027" stroke="#41474E" stroke-width="1.62" stroke-miterlimit="10"/>
<path d="M547.146 380.833L591.613 340.713" stroke="#41474E" stroke-width="1.62" stroke-miterlimit="10"/>
<path d="M524.033 247.847L591.613 340.713" stroke="#41474E" stroke-width="1.62" stroke-miterlimit="10"/>
<path d="M505.6 267.027L547.146 380.833" stroke="#41474E" stroke-width="1.62" stroke-miterlimit="10"/>
<path d="M503.607 212.64L473.127 181.02" stroke="#41474E" stroke-width="1.62" stroke-miterlimit="10"/>
<path d="M473.127 181.02L469.033 196.827" stroke="#41474E" stroke-width="1.62" stroke-miterlimit="10"/>
<path d="M465.813 233.613V244.213" stroke="#41474E" stroke-width="1.62" stroke-miterlimit="10"/>
<path d="M481.026 217.3L503.606 212.64" stroke="#41474E" stroke-width="1.62" stroke-miterlimit="10"/>
<path d="M424.167 217.3L441.534 221.68" stroke="#41474E" stroke-width="1.62" stroke-miterlimit="10"/>
<path d="M574.934 534.133L619.694 625.547L695.614 686.547L708.16 681.867" stroke="#41474E" stroke-width="1.62" stroke-miterlimit="10"/>
<path d="M619.693 625.547L651.727 620.72" stroke="#41474E" stroke-width="1.62" stroke-miterlimit="10"/>
<path d="M574.934 534.133H623.207" stroke="#41474E" stroke-width="1.62" stroke-miterlimit="10"/>
<path d="M571.427 445.193L630.667 430.713" stroke="#41474E" stroke-width="1.62" stroke-miterlimit="10"/>
<path d="M591.613 340.713L630.667 430.713" stroke="#41474E" stroke-width="1.62" stroke-miterlimit="10"/>
<path d="M630.667 430.713L574.934 534.133" stroke="#41474E" stroke-width="1.62" stroke-miterlimit="10"/>
<path d="M574.934 534.133L651.727 620.72" stroke="#41474E" stroke-width="1.62" stroke-miterlimit="10"/>
<path d="M651.727 620.72L695.613 686.547" stroke="#41474E" stroke-width="1.62" stroke-miterlimit="10"/>
<path d="M470.773 292.293L465.813 244.213L493.02 226.953L503.607 212.64L514.38 203.4" stroke="#41474E" stroke-width="1.62" stroke-miterlimit="10"/>
<path d="M469.033 196.827L481.027 217.3" stroke="#41474E" stroke-width="1.62" stroke-miterlimit="10"/>
<path d="M481.027 217.3L465.813 233.613" stroke="#41474E" stroke-width="1.62" stroke-miterlimit="10"/>
<path d="M465.813 233.613L441.533 221.68" stroke="#41474E" stroke-width="1.62" stroke-miterlimit="10"/>
<path d="M441.533 221.68L461.28 214.973" stroke="#41474E" stroke-width="1.62" stroke-miterlimit="10"/>
<path d="M461.28 214.973L480.147 217.3" stroke="#41474E" stroke-width="1.62" stroke-miterlimit="10"/>
<path d="M461.28 214.973L469.034 196.827" stroke="#41474E" stroke-width="1.62" stroke-miterlimit="10"/>
<path d="M461.28 214.973L465.814 233.613" stroke="#41474E" stroke-width="1.62" stroke-miterlimit="10"/>
<path d="M469.033 196.827L444.14 196.627" stroke="#41474E" stroke-width="1.62" stroke-miterlimit="10"/>
<path d="M444.14 196.627L441.533 221.68" stroke="#41474E" stroke-width="1.62" stroke-miterlimit="10"/>
<path d="M529.18 391.187L559.36 412.12" stroke="#41474E" stroke-width="1.62" stroke-miterlimit="10"/>
<path d="M616.187 357.427L638.567 334.607" stroke="#41474E" stroke-width="1.62" stroke-miterlimit="10"/>
<path d="M888 583.453L902.3 649.087L820.387 653.633L783.72 601.68L767.14 530.067L740.813 473.573L699.267 437.953L622.12 389.127" stroke="#41474E" stroke-width="1.62" stroke-miterlimit="10"/>
<path d="M894.92 642.727L902.3 649.087" stroke="#41474E" stroke-width="1.62" stroke-miterlimit="10"/>
<path d="M783.713 601.68L799.613 597.733" stroke="#41474E" stroke-width="1.62" stroke-miterlimit="10"/>
<path d="M767.14 530.067L785.573 524.333" stroke="#41474E" stroke-width="1.62" stroke-miterlimit="10"/>
<path d="M740.813 473.573L766.26 462.773" stroke="#41474E" stroke-width="1.62" stroke-miterlimit="10"/>
<path d="M699.273 437.953L725.453 414.68" stroke="#41474E" stroke-width="1.62" stroke-miterlimit="10"/>
<path d="M493.02 226.953L524.033 247.847" stroke="#41474E" stroke-width="1.62" stroke-miterlimit="10"/>
<path d="M340.413 468.173L361.66 487.14" stroke="#41474E" stroke-width="1.62" stroke-miterlimit="10"/>
<path d="M567.033 238.707L638.567 334.607" stroke="#41474E" stroke-width="2.85" stroke-linecap="round" stroke-linejoin="round"/>
<path d="M444.14 196.627L399.286 206.44L367.746 217.3L329.026 232.547L303.513 252.167L285.573 271.387L274.066 295.213L277.926 325.54L292.753 348.947L320.32 360.627L372.3 369.74L422.18 348.947" stroke="#41474E" stroke-width="2.85" stroke-linecap="round" stroke-linejoin="round"/>
<path d="M244.927 426.113L199.54 428.613L193.233 476.973L228.273 512.713L280.84 516.713L340.413 501.5L392.28 466.46L415.753 420.9L422.18 348.947L431.06 305.027" stroke="#41474E" stroke-width="2.85" stroke-linecap="round" stroke-linejoin="round"/>
<path d="M245.793 426.507L218.113 413.893L199.54 416.347L186.926 413.893L180.62 430.713L168.7 441.58L169.053 459.8L163.446 472.767L171.506 488.18V501.847L182.72 513.767L184.82 531.64L200.24 535.847L209.7 549.86L226.873 551.547L243.693 565.627L265.073 561.073L280.486 570.887L307.82 568.433L329.546 572.993L346.72 556.52L365.293 558.973L392.626 534.087H411.2L427.666 513.767L448.693 501.147L459.56 474.867L473.58 469.613L478.153 430.713" stroke="#41474E" stroke-width="2.85" stroke-linecap="round" stroke-linejoin="round"/>
<path d="M478.153 430.713L483.74 510.613L468.673 579.96L431.06 629.487L382.347 674.587L340.413 693.447L301.867 695.36L263.073 668.153L244.5 642.08L261.147 673.88L300.813 704.573L340.06 707.207L393.68 690.207L455.527 649.733L504.593 593.667L534.027 516.713L530 420.9L529.18 389.127" stroke="#41474E" stroke-width="2.85" stroke-linecap="round" stroke-linejoin="round"/>
<path d="M514.38 203.4L540.12 211.867" stroke="#41474E" stroke-width="2.85" stroke-linecap="round" stroke-linejoin="round"/>
<path d="M567.033 238.707L540.12 211.867" stroke="#41474E" stroke-width="2.85" stroke-linecap="round" stroke-linejoin="round"/>
<path d="M514.38 203.4L495.247 181.02" stroke="#41474E" stroke-width="2.85" stroke-linecap="round" stroke-linejoin="round"/>
<path d="M495.247 181.02H473.127" stroke="#41474E" stroke-width="2.85" stroke-linecap="round" stroke-linejoin="round"/>
<path d="M473.126 181.02L444.14 196.627" stroke="#41474E" stroke-width="2.85" stroke-linecap="round" stroke-linejoin="round"/>
<path d="M529.18 389.127L547.146 380.833" stroke="#41474E" stroke-width="2.85" stroke-linecap="round" stroke-linejoin="round"/>
<path d="M708.16 681.407L717.994 678.207L722.38 653.193L725.454 677.327L712.727 690.207L701.754 687.86L680.694 690.207L668.84 672.06L650.854 668.993L631.547 645.293L615.307 639.287L605.214 609.313L590.734 593.667L585.907 566.747L576.687 558.8L574.934 534.133" stroke="#41474E" stroke-width="2.85" stroke-linecap="round" stroke-linejoin="round"/>
<path d="M547.146 380.833L571.426 445.193L574.933 534.133" stroke="#41474E" stroke-width="2.85" stroke-linecap="round" stroke-linejoin="round"/>
<path d="M708.594 681.867L651.727 620.72L623.207 534.133L630.667 430.713L615.514 356.967" stroke="#41474E" stroke-width="2.85" stroke-linecap="round" stroke-linejoin="round"/>
<path d="M530.1 423.327L571.753 453.533" stroke="#41474E" stroke-width="2.85" stroke-linecap="round" stroke-linejoin="round"/>
<path d="M530.1 423.327L548.62 404.673" stroke="#41474E" stroke-width="2.85" stroke-linecap="round" stroke-linejoin="round"/>
<path d="M548.62 404.673L556.547 442.5" stroke="#41474E" stroke-width="2.85" stroke-linecap="round" stroke-linejoin="round"/>
<path d="M624.693 401.66L641.547 427.653L662.053 423.587L679.373 449.58L706.14 453.533L710.807 476.187L733.787 479.42L735.38 507.387L753.54 516.713L750.467 540.413L766.26 558.8L765.453 577.427L775.04 589.6L776.353 604.3L791.667 623.133L801.367 645.907L820.387 656.267L833.4 666.8L857.973 657.14L876.847 664.64L902.3 651.88L909.76 645.907L904.053 629.487L902.3 610.333L887.673 580.8L895.28 642.713L827.993 645.36L799.613 597.733L785.573 524.333L766.26 462.773L725.453 414.68L684.927 375.8L638.567 334.607" stroke="#41474E" stroke-width="2.85" stroke-linecap="round" stroke-linejoin="round"/>
<path d="M630.667 423.327L655.307 472.18L647.18 512.713L630.667 556.78" stroke="#41474E" stroke-width="2.85" stroke-linecap="round" stroke-linejoin="round"/>
<path d="M627.867 469.507L647.181 512.714" stroke="#41474E" stroke-width="2.85" stroke-linecap="round" stroke-linejoin="round"/>
<path d="M597.567 601.047L540.267 660.573L566.06 613.827L585.907 566.747" stroke="#41474E" stroke-width="2.85" stroke-linecap="round" stroke-linejoin="round"/>
<path d="M647.18 512.713L624.693 513.48" stroke="#41474E" stroke-width="2.85" stroke-linecap="round" stroke-linejoin="round"/>
<path d="M560.927 623.133L569.48 630.227" stroke="#41474E" stroke-width="2.85" stroke-linecap="round" stroke-linejoin="round"/>
<path d="M573.54 597.733L590.027 608.88" stroke="#41474E" stroke-width="2.85" stroke-linecap="round" stroke-linejoin="round"/>
<path d="M573.54 597.733L593.74 595.32" stroke="#41474E" stroke-width="2.85" stroke-linecap="round" stroke-linejoin="round"/>
<path d="M573.541 597.733L569.48 630.227" stroke="#41474E" stroke-width="2.85" stroke-linecap="round" stroke-linejoin="round"/>
<path d="M403.24 445.193L340.413 468.173" stroke="#41474E" stroke-width="2.85" stroke-linecap="round" stroke-linejoin="round"/>
<path d="M340.413 468.173L322.34 506.113" stroke="#41474E" stroke-width="2.85" stroke-linecap="round" stroke-linejoin="round"/>
<path d="M307.82 568.433L304.073 593.667" stroke="#41474E" stroke-width="2.85" stroke-linecap="round" stroke-linejoin="round"/>
<path d="M304.073 593.667L272.733 603.307" stroke="#41474E" stroke-width="2.85" stroke-linecap="round" stroke-linejoin="round"/>
<path d="M272.733 603.307L213.807 579.82" stroke="#41474E" stroke-width="2.85" stroke-linecap="round" stroke-linejoin="round"/>
<path d="M213.807 579.82L272.733 612.167" stroke="#41474E" stroke-width="2.85" stroke-linecap="round" stroke-linejoin="round"/>
<path d="M272.094 611.82L312.627 600.233" stroke="#41474E" stroke-width="2.85" stroke-linecap="round" stroke-linejoin="round"/>
<path d="M312.146 600.233L319.293 570.84" stroke="#41474E" stroke-width="2.85" stroke-linecap="round" stroke-linejoin="round"/>
<path d="M213.807 579.82L225.413 593.667L237.26 595.993L246.473 608.873L263.073 612.167L275.233 620.06L296.28 609.753L315.72 608.213L319.293 592.193L328.313 581.047L323.293 571.68" stroke="#41474E" stroke-width="2.85" stroke-linecap="round" stroke-linejoin="round"/>
<path d="M538.001 663.727L524.367 609.813" stroke="#41474E" stroke-width="2.85" stroke-linecap="round" stroke-linejoin="round"/>
<path d="M524.367 609.813L544.874 651.147" stroke="#41474E" stroke-width="2.85" stroke-linecap="round" stroke-linejoin="round"/>
<path d="M827.993 645.36L820.387 653.633" stroke="#41474E" stroke-width="1.58" stroke-miterlimit="10"/>
</svg>
