<svg width="1000" height="1000" viewBox="0 0 1000 1000" fill="none" xmlns="http://www.w3.org/2000/svg">
<path d="M675.294 386.327L649.521 426.107L682.894 428.58L733.487 428.413" stroke="#231F20" stroke-width="1.24" stroke-miterlimit="10"/>
<path d="M734.767 298.3L701.7 335.387L669.5 354.147L630.127 407.327L623.087 432.98L555.807 497.913L455.987 564.313L383.107 609.773L322.307 637.313L291.521 655.34" stroke="#231F20" stroke-width="1.24" stroke-miterlimit="10"/>
<path d="M735.66 345.913L701.113 335.693L664.42 304.767" stroke="#231F20" stroke-width="1.24" stroke-miterlimit="10"/>
<path d="M724.9 292.94L664.42 304.767L616.734 352.653L574.521 382.947" stroke="#231F20" stroke-width="1.24" stroke-miterlimit="10"/>
<path d="M525.467 423.16L574.52 382.947L630.127 407.327L649.373 426.333L631.587 484.573" stroke="#231F20" stroke-width="1.24" stroke-miterlimit="10"/>
<path d="M616.733 352.653L669.5 354.147" stroke="#231F20" stroke-width="1.24" stroke-miterlimit="10"/>
<path d="M675.78 386.5L669.5 354.147" stroke="#231F20" stroke-width="1.24" stroke-miterlimit="10"/>
<path d="M298.847 625.62L335.313 648.08" stroke="#231F20" stroke-width="1.24" stroke-miterlimit="10"/>
<path d="M209.733 314.1L307.793 286.84H494.68L541.293 336.527L525.467 423.16" stroke="#231F20" stroke-width="1.24" stroke-miterlimit="10"/>
<path d="M734.767 298.3L718.167 269.98" stroke="#231F20" stroke-width="1.24" stroke-miterlimit="10"/>
<path d="M492.047 509.2L555.807 497.913L537.194 532.067" stroke="#231F20" stroke-width="1.24" stroke-miterlimit="10"/>
<path d="M649.373 426.333L683.68 421.18" stroke="#231F20" stroke-width="1.24" stroke-miterlimit="10"/>
<path d="M614.78 326.66L616.734 352.653" stroke="#231F20" stroke-width="1.24" stroke-miterlimit="10"/>
<path d="M664.427 304.767L614.78 326.66" stroke="#231F20" stroke-width="1.24" stroke-miterlimit="10"/>
<path d="M574.521 382.947L614.781 326.66" stroke="#231F20" stroke-width="1.24" stroke-miterlimit="10"/>
<path d="M735.034 428.647L724.894 443.347" stroke="#231F20" stroke-width="1.24" stroke-miterlimit="10"/>
<path d="M781.907 455.687L797.521 439.427" stroke="#231F20" stroke-width="1.24" stroke-miterlimit="10"/>
<path d="M505.24 270.127L494.68 286.84L346.054 345.327" stroke="#231F20" stroke-width="1.24" stroke-miterlimit="10"/>
<path d="M307.794 286.84L311.754 276.287" stroke="#231F20" stroke-width="1.24" stroke-miterlimit="10"/>
<path d="M541.62 336.313L547.013 319.82" stroke="#231F20" stroke-width="1.24" stroke-miterlimit="10"/>
<path d="M505.24 270.127L541.62 336.313" stroke="#231F20" stroke-width="1.24" stroke-miterlimit="10"/>
<path d="M307.794 286.84L505.241 270.127" stroke="#231F20" stroke-width="1.24" stroke-miterlimit="10"/>
<path d="M735.033 428.647L781.906 455.687" stroke="#231F20" stroke-width="1.24" stroke-miterlimit="10"/>
<path d="M631.586 484.573L657.446 456.353" stroke="#231F20" stroke-width="1.24" stroke-miterlimit="10"/>
<path d="M724.893 443.347L656.467 457.42" stroke="#231F20" stroke-width="1.24" stroke-miterlimit="10"/>
<path d="M649.54 426.307L656.467 457.42" stroke="#231F20" stroke-width="1.24" stroke-miterlimit="10"/>
<path d="M574.521 382.947L533.407 391.94" stroke="#231F20" stroke-width="1.24" stroke-miterlimit="10"/>
<path d="M482.107 349.76L454.227 355.44L412.894 356.753" stroke="#231F20" stroke-width="1.24" stroke-miterlimit="10"/>
<path d="M166.633 362.033L307.793 286.84L447.699 345.893" stroke="#231F20" stroke-width="1.24" stroke-miterlimit="10"/>
<path d="M541.293 336.527L482.653 349.82" stroke="#231F20" stroke-width="1.24" stroke-miterlimit="10"/>
<path d="M842.667 562.26L781.907 455.68L724.894 443.347" stroke="#231F20" stroke-width="1.24" stroke-miterlimit="10"/>
<path d="M706.12 479.007L724.893 443.347" stroke="#231F20" stroke-width="1.24" stroke-miterlimit="10"/>
<path d="M494.68 286.84L482.653 349.82" stroke="#231F20" stroke-width="1.24" stroke-miterlimit="10"/>
<path d="M776.414 592.46L781.907 455.687" stroke="#231F20" stroke-width="1.24" stroke-miterlimit="10"/>
<path d="M842.627 562.72L706.12 479.007" stroke="#231F20" stroke-width="1.24" stroke-miterlimit="10"/>
<path d="M806.606 674.84L842.666 562.26" stroke="#231F20" stroke-width="1.24" stroke-miterlimit="10"/>
<path d="M307.794 286.84L253.394 352.42" stroke="#231F20" stroke-width="1.24" stroke-miterlimit="10"/>
<path d="M776.414 592.46L842.667 562.26" stroke="#231F20" stroke-width="1.24" stroke-miterlimit="10"/>
<path d="M685.533 265.293L658.56 292.847L640.68 295.633" stroke="#231F20" stroke-width="1.24" stroke-miterlimit="10"/>
<path d="M658.561 292.847L664.427 304.767" stroke="#231F20" stroke-width="1.24" stroke-miterlimit="10"/>
<path d="M724.901 292.94L658.561 292.847" stroke="#231F20" stroke-width="1.24" stroke-miterlimit="10"/>
<path d="M614.78 326.66L658.56 292.847" stroke="#231F20" stroke-width="1.24" stroke-miterlimit="10"/>
<path d="M425.653 620.293L521.067 648.453" stroke="#231F20" stroke-width="1.24" stroke-miterlimit="10"/>
<path d="M328.874 556.86L256.434 493.22" stroke="#231F20" stroke-width="1.24" stroke-miterlimit="10"/>
<path d="M482.654 349.82L463.313 373.173" stroke="#231F20" stroke-width="1.24" stroke-miterlimit="10"/>
<path d="M454.227 355.44L463.313 373.173" stroke="#231F20" stroke-width="1.24" stroke-miterlimit="10"/>
<path d="M412.894 356.76L463.314 373.173" stroke="#231F20" stroke-width="1.24" stroke-miterlimit="10"/>
<path d="M580.287 614.153L631.587 484.573" stroke="#231F20" stroke-width="1.24" stroke-miterlimit="10"/>
<path d="M357.96 581.64L289.1 445.76" stroke="#231F20" stroke-width="1.24" stroke-miterlimit="10"/>
<path d="M425.054 620.12L580.287 614.153" stroke="#231F20" stroke-width="1.24" stroke-miterlimit="10"/>
<path d="M455.986 564.313L492.046 509.2" stroke="#231F20" stroke-width="1.24" stroke-miterlimit="10"/>
<path d="M537.193 532.067L455.986 564.313" stroke="#231F20" stroke-width="1.24" stroke-miterlimit="10"/>
<path d="M284.894 728.973L381.667 702.393L425.207 671.613L435.28 640.847L381.227 665.013" stroke="#231F20" stroke-width="1.24" stroke-miterlimit="10"/>
<path d="M425.206 671.613L453.346 677.473" stroke="#231F20" stroke-width="1.24" stroke-miterlimit="10"/>
<path d="M381.227 665.013L425.207 671.613" stroke="#231F20" stroke-width="1.24" stroke-miterlimit="10"/>
<path d="M329.347 556.693L246.227 584.987L189.94 649.627L162.44 710.773" stroke="#231F20" stroke-width="1.24" stroke-miterlimit="10"/>
<path d="M235.233 553.76L246.227 584.98" stroke="#231F20" stroke-width="1.24" stroke-miterlimit="10"/>
<path d="M245.02 628.227L162.054 710.68" stroke="#231F20" stroke-width="1.24" stroke-miterlimit="10"/>
<path d="M246.227 584.98L357.327 582.173" stroke="#231F20" stroke-width="1.24" stroke-miterlimit="10"/>
<path d="M381.667 702.393L425.054 620.12" stroke="#231F20" stroke-width="1.24" stroke-miterlimit="10"/>
<path d="M354.007 386.027L524.707 422.993" stroke="#231F20" stroke-width="1.24" stroke-miterlimit="10"/>
<path d="M631.586 484.573L653.313 554.527" stroke="#231F20" stroke-width="1.24" stroke-miterlimit="10"/>
<path d="M189.94 649.627L244.774 661.76" stroke="#231F20" stroke-width="1.24" stroke-miterlimit="10"/>
<path d="M332.807 715.847L354.38 736.713" stroke="#231F20" stroke-width="1.24" stroke-miterlimit="10"/>
<path d="M381.667 702.393L354.38 736.713" stroke="#231F20" stroke-width="1.24" stroke-miterlimit="10"/>
<path d="M189.94 649.627L244.467 628.52" stroke="#231F20" stroke-width="1.24" stroke-miterlimit="10"/>
<path d="M235.234 553.76L189.94 649.627" stroke="#231F20" stroke-width="1.24" stroke-miterlimit="10"/>
<path d="M306.567 583.493L189.94 649.627" stroke="#231F20" stroke-width="1.24" stroke-miterlimit="10"/>
<path d="M331.8 716.573L400.033 667.567" stroke="#231F20" stroke-width="1.24" stroke-miterlimit="10"/>
<path d="M381.667 702.393L307 693.58" stroke="#231F20" stroke-width="1.24" stroke-miterlimit="10"/>
<path d="M593.393 331.013L533.979 392.013" stroke="#231F20" stroke-width="1.24" stroke-miterlimit="10"/>
<path d="M570.893 330L533.979 392.013" stroke="#231F20" stroke-width="1.24" stroke-miterlimit="10"/>
<path d="M328.873 556.86L357.846 582.08L383.106 609.773L425.14 619.727" stroke="#231F20" stroke-width="1.24" stroke-miterlimit="10"/>
<path d="M427.894 620.007L653.314 554.527" stroke="#231F20" stroke-width="1.24" stroke-miterlimit="10"/>
<path d="M597.64 570.533L540.36 533.06" stroke="#231F20" stroke-width="1.24" stroke-miterlimit="10"/>
<path d="M382.866 609.507L432.966 551.96" stroke="#231F20" stroke-width="1.24" stroke-miterlimit="10"/>
<path d="M383.106 609.773L472.473 575.84L597.64 570.533" stroke="#231F20" stroke-width="1.24" stroke-miterlimit="10"/>
<path d="M447.7 345.893L482.653 349.82L525.107 423.18" stroke="#231F20" stroke-width="1.24" stroke-miterlimit="10"/>
<path d="M548.707 336.813L525.354 423.28" stroke="#231F20" stroke-width="1.24" stroke-miterlimit="10"/>
<path d="M288.366 446.207L384.293 469.313" stroke="#231F20" stroke-width="1.24" stroke-miterlimit="10"/>
<path d="M353.273 386.48L384.293 469.313" stroke="#231F20" stroke-width="1.24" stroke-miterlimit="10"/>
<path d="M491.307 509.653L384.294 469.313" stroke="#231F20" stroke-width="1.24" stroke-miterlimit="10"/>
<path d="M384.294 469.313L432.801 553.007" stroke="#231F20" stroke-width="1.24" stroke-miterlimit="10"/>
<path d="M524.727 423.607L384.294 469.313" stroke="#231F20" stroke-width="1.24" stroke-miterlimit="10"/>
<path d="M328.134 557.307L384.294 469.313" stroke="#231F20" stroke-width="1.24" stroke-miterlimit="10"/>
<path d="M593.047 330.933L614.78 326.66L640.68 295.633L685.394 265.38L685.534 265.293L718.174 269.98L743.147 286.607L745.94 303.4L724.9 292.94L685.534 265.293" stroke="#231F20" stroke-width="2.47" stroke-miterlimit="10"/>
<path d="M734.633 428.587L797.52 439.427L842.667 562.26L835.92 635.553L806.607 674.84L776.413 592.46L743.287 551.413L706.12 479.007L684.067 484.573L674.687 513.893L653.867 556.107L580.287 614.153L521.067 648.453L453.347 677.473L387.827 716.027L353.967 736.253L284.487 729.66L305.593 694.04L381.227 665.013L374.193 649.187L335.053 648.36L315.593 653.473L291.52 655.34L293.447 637.56L301.233 626.5L277.72 617.56L244.467 628.52L244.027 662.38L161.573 712.507L158.113 667.127L178.067 627.64L235.233 553.76L256.433 493.22L289.1 445.76L353.527 385.34L412.893 356.753L448.667 345.993L346.053 345.327L248.427 352.8L166.633 362.033L209.733 314.1L311.753 276.287L505.24 270.127L545.98 321.36L548.707 336.813" stroke="#231F20" stroke-width="2.47" stroke-linecap="square" stroke-linejoin="bevel"/>
<path d="M746.174 304.127L735.661 345.913L675.294 386.327" stroke="#231F20" stroke-width="2.47" stroke-miterlimit="10"/>
<path d="M675.294 386.327L683.694 421.373" stroke="#231F20" stroke-width="2.47" stroke-miterlimit="10"/>
<path d="M735.033 428.647L683.213 420.813" stroke="#231F20" stroke-width="2.47" stroke-miterlimit="10"/>
<path d="M548.707 336.813L570.32 329.933L593.674 330.96" stroke="#231F20" stroke-width="2.47" stroke-miterlimit="10"/>
<path d="M631.587 484.573L537.194 532.067L472.694 576.04L425.054 620.12L334.934 647.987" stroke="#231F20" stroke-width="2.47" stroke-miterlimit="10"/>
<path d="M631.586 484.573L623.086 432.98L525.686 423.153L525.333 422.927" stroke="#231F20" stroke-width="2.47" stroke-miterlimit="10"/>
<path d="M463.314 373.173L353.527 385.34" stroke="#231F20" stroke-width="2.47" stroke-miterlimit="10"/>
<path d="M525.467 423.16L463.313 373.173" stroke="#231F20" stroke-width="2.47" stroke-miterlimit="10"/>
<path d="M374.193 649.187L435.28 640.847" stroke="#231F20" stroke-width="2.47" stroke-miterlimit="10"/>
<path d="M235.42 554.28L328.44 557.093L301.233 626.5" stroke="#231F20" stroke-width="2.47" stroke-miterlimit="10"/>
<path d="M425.76 620.433L435.073 640.527L435.346 641.04L453.526 677.98" stroke="#231F20" stroke-width="2.47" stroke-miterlimit="10"/>
<path d="M525.467 423.16L630.127 407.327L631.587 484.573L674.687 513.893" stroke="#231F20" stroke-width="2.47" stroke-miterlimit="10"/>
<path d="M684.066 484.573H631.586" stroke="#231F20" stroke-width="2.47" stroke-miterlimit="10"/>
<path d="M293.446 637.56L320.32 638.847L315.026 652.873" stroke="#231F20" stroke-width="2.47" stroke-miterlimit="10"/>
<path d="M524.9 422.56L491.48 508.607L432.967 551.96L358.053 582.413L301.34 626.88" stroke="#231F20" stroke-width="2.47" stroke-miterlimit="10"/>
<path d="M328.439 557.093L358.199 582.893" stroke="#231F20" stroke-width="2.47" stroke-miterlimit="10"/>
<path d="M213.433 314.813C213.406 315.536 213.165 316.234 212.741 316.82C212.317 317.406 211.728 317.852 211.05 318.103C210.372 318.354 209.634 318.398 208.931 318.23C208.228 318.061 207.59 317.688 207.099 317.157C206.609 316.626 206.286 315.961 206.174 315.246C206.061 314.532 206.163 313.8 206.466 313.144C206.77 312.488 207.261 311.936 207.878 311.559C208.495 311.182 209.21 310.997 209.933 311.027C210.899 311.067 211.809 311.487 212.465 312.197C213.121 312.907 213.469 313.848 213.433 314.813Z" fill="#221F1F"/>
<path d="M171.173 362.267C171.145 362.989 170.902 363.687 170.477 364.272C170.052 364.857 169.462 365.302 168.784 365.552C168.105 365.802 167.368 365.844 166.665 365.675C165.962 365.505 165.325 365.13 164.835 364.598C164.345 364.066 164.024 363.401 163.913 362.686C163.801 361.972 163.904 361.24 164.209 360.584C164.514 359.929 165.006 359.378 165.624 359.002C166.242 358.626 166.957 358.442 167.68 358.473C168.645 358.515 169.555 358.937 170.21 359.648C170.865 360.359 171.211 361.301 171.173 362.267Z" fill="#221F1F"/>
<path d="M450.393 346.667C450.365 347.388 450.123 348.084 449.699 348.668C449.275 349.251 448.687 349.696 448.01 349.945C447.333 350.195 446.597 350.238 445.895 350.069C445.194 349.9 444.558 349.527 444.069 348.996C443.58 348.466 443.259 347.802 443.147 347.09C443.035 346.377 443.137 345.647 443.44 344.992C443.743 344.337 444.233 343.787 444.849 343.411C445.465 343.035 446.179 342.85 446.9 342.88C447.864 342.922 448.773 343.343 449.428 344.053C450.082 344.762 450.429 345.702 450.393 346.667Z" fill="#221F1F"/>
<path d="M508.081 271.113C508.052 271.834 507.811 272.531 507.386 273.114C506.962 273.698 506.374 274.143 505.697 274.392C505.02 274.641 504.284 274.684 503.583 274.515C502.881 274.346 502.246 273.973 501.756 273.443C501.267 272.913 500.946 272.249 500.834 271.536C500.722 270.823 500.824 270.093 501.127 269.439C501.43 268.784 501.921 268.233 502.537 267.858C503.153 267.482 503.866 267.297 504.587 267.327C505.552 267.368 506.46 267.79 507.115 268.499C507.77 269.209 508.117 270.149 508.081 271.113Z" fill="#221F1F"/>
<path d="M549.62 321.887C549.592 322.609 549.35 323.307 548.924 323.892C548.499 324.477 547.91 324.922 547.231 325.172C546.552 325.422 545.815 325.464 545.112 325.294C544.409 325.125 543.772 324.75 543.282 324.218C542.792 323.686 542.471 323.021 542.36 322.306C542.249 321.592 542.352 320.86 542.656 320.204C542.961 319.549 543.453 318.998 544.071 318.622C544.689 318.246 545.404 318.062 546.127 318.093C547.093 318.135 548.002 318.557 548.657 319.268C549.312 319.979 549.658 320.921 549.62 321.887Z" fill="#221F1F"/>
<path d="M358.087 386.207C358.059 386.928 357.817 387.624 357.393 388.208C356.969 388.791 356.381 389.236 355.704 389.485C355.027 389.735 354.291 389.778 353.59 389.609C352.888 389.44 352.252 389.067 351.763 388.536C351.274 388.006 350.953 387.342 350.841 386.63C350.729 385.917 350.831 385.187 351.134 384.532C351.437 383.877 351.928 383.327 352.544 382.951C353.16 382.575 353.873 382.39 354.594 382.42C355.072 382.439 355.542 382.552 355.976 382.752C356.411 382.953 356.801 383.237 357.126 383.589C357.45 383.941 357.702 384.353 357.867 384.802C358.032 385.251 358.107 385.729 358.087 386.207Z" fill="#221F1F"/>
<path d="M293.767 447.333C293.738 448.056 293.496 448.754 293.071 449.339C292.645 449.924 292.056 450.369 291.377 450.619C290.699 450.868 289.961 450.911 289.258 450.741C288.555 450.571 287.919 450.197 287.429 449.665C286.939 449.133 286.618 448.467 286.507 447.753C286.395 447.038 286.498 446.307 286.803 445.651C287.107 444.995 287.6 444.445 288.218 444.069C288.835 443.693 289.551 443.509 290.273 443.54C291.239 443.582 292.149 444.004 292.804 444.715C293.458 445.426 293.805 446.368 293.767 447.333Z" fill="#221F1F"/>
<path d="M259.727 494.953C259.699 495.674 259.457 496.371 259.033 496.954C258.609 497.538 258.021 497.983 257.344 498.232C256.667 498.482 255.931 498.525 255.229 498.356C254.528 498.187 253.892 497.813 253.403 497.283C252.914 496.753 252.593 496.089 252.481 495.376C252.369 494.663 252.471 493.933 252.774 493.279C253.077 492.624 253.567 492.074 254.183 491.698C254.799 491.322 255.513 491.137 256.234 491.167C257.199 491.207 258.109 491.628 258.764 492.338C259.418 493.048 259.765 493.988 259.727 494.953Z" fill="#221F1F"/>
<path d="M494.526 509.953C494.498 510.676 494.256 511.374 493.831 511.959C493.405 512.544 492.816 512.989 492.137 513.239C491.459 513.488 490.721 513.531 490.018 513.361C489.315 513.191 488.678 512.817 488.189 512.285C487.699 511.753 487.378 511.088 487.266 510.373C487.155 509.658 487.258 508.927 487.563 508.271C487.867 507.615 488.36 507.065 488.977 506.689C489.595 506.313 490.311 506.129 491.033 506.16C491.999 506.202 492.909 506.624 493.563 507.335C494.218 508.046 494.564 508.988 494.526 509.953Z" fill="#221F1F"/>
<path d="M559.426 499.28C559.398 500.001 559.156 500.697 558.732 501.281C558.308 501.865 557.72 502.309 557.043 502.559C556.366 502.808 555.63 502.851 554.928 502.682C554.227 502.513 553.591 502.14 553.102 501.61C552.613 501.079 552.292 500.416 552.18 499.703C552.068 498.99 552.17 498.26 552.473 497.605C552.776 496.95 553.267 496.4 553.883 496.024C554.498 495.648 555.212 495.464 555.933 495.493C556.898 495.533 557.808 495.954 558.463 496.664C559.118 497.374 559.464 498.315 559.426 499.28Z" fill="#221F1F"/>
<path d="M625.774 434.667C625.747 435.39 625.506 436.088 625.081 436.674C624.657 437.26 624.068 437.706 623.389 437.957C622.71 438.208 621.973 438.251 621.269 438.082C620.566 437.913 619.928 437.539 619.438 437.007C618.947 436.475 618.626 435.81 618.514 435.095C618.402 434.381 618.505 433.649 618.809 432.992C619.113 432.336 619.606 431.785 620.224 431.409C620.842 431.033 621.558 430.849 622.281 430.88C623.245 430.922 624.154 431.343 624.808 432.053C625.463 432.762 625.81 433.702 625.774 434.667Z" fill="#221F1F"/>
<path d="M528.56 423.42C528.53 424.141 528.288 424.836 527.863 425.419C527.438 426.002 526.849 426.445 526.172 426.694C525.495 426.942 524.759 426.984 524.058 426.815C523.357 426.645 522.722 426.271 522.234 425.741C521.745 425.21 521.425 424.546 521.313 423.834C521.202 423.121 521.304 422.392 521.607 421.737C521.911 421.083 522.401 420.533 523.017 420.157C523.633 419.782 524.346 419.597 525.066 419.627C526.033 419.667 526.944 420.089 527.599 420.8C528.254 421.511 528.6 422.454 528.56 423.42Z" fill="#221F1F"/>
<path d="M635.286 484.86C635.258 485.583 635.016 486.281 634.59 486.865C634.165 487.45 633.576 487.896 632.897 488.145C632.218 488.395 631.481 488.438 630.778 488.268C630.075 488.098 629.438 487.723 628.948 487.191C628.459 486.66 628.138 485.994 628.026 485.28C627.915 484.565 628.018 483.834 628.322 483.178C628.627 482.522 629.119 481.971 629.737 481.595C630.355 481.22 631.07 481.036 631.793 481.067C632.759 481.106 633.67 481.529 634.325 482.24C634.98 482.951 635.326 483.894 635.286 484.86Z" fill="#221F1F"/>
<path d="M687.499 486.3C687.471 487.021 687.23 487.717 686.805 488.301C686.381 488.885 685.793 489.329 685.116 489.579C684.439 489.828 683.703 489.871 683.002 489.702C682.3 489.533 681.665 489.16 681.175 488.63C680.686 488.099 680.365 487.436 680.253 486.723C680.141 486.01 680.243 485.28 680.546 484.625C680.849 483.97 681.34 483.42 681.956 483.044C682.572 482.668 683.285 482.484 684.006 482.513C684.971 482.553 685.881 482.974 686.536 483.684C687.191 484.394 687.537 485.335 687.499 486.3Z" fill="#221F1F"/>
<path d="M687.214 421.113C687.186 421.836 686.943 422.534 686.518 423.119C686.093 423.704 685.504 424.149 684.825 424.399C684.146 424.648 683.409 424.691 682.706 424.521C682.003 424.351 681.366 423.977 680.876 423.445C680.386 422.913 680.065 422.247 679.954 421.533C679.842 420.818 679.945 420.087 680.25 419.431C680.555 418.775 681.047 418.225 681.665 417.849C682.283 417.473 682.998 417.289 683.721 417.32C684.686 417.362 685.596 417.784 686.251 418.495C686.906 419.206 687.252 420.148 687.214 421.113Z" fill="#221F1F"/>
<path d="M800.574 441.013C800.547 441.736 800.306 442.435 799.881 443.021C799.456 443.606 798.867 444.053 798.189 444.304C797.51 444.554 796.772 444.598 796.069 444.429C795.366 444.26 794.728 443.886 794.238 443.354C793.747 442.822 793.425 442.157 793.314 441.442C793.202 440.727 793.304 439.995 793.609 439.339C793.913 438.683 794.406 438.132 795.024 437.756C795.642 437.38 796.358 437.196 797.08 437.227C798.045 437.268 798.954 437.69 799.608 438.399C800.263 439.109 800.61 440.049 800.574 441.013Z" fill="#221F1F"/>
<path d="M749.227 303.713C749.198 304.436 748.956 305.134 748.531 305.719C748.106 306.304 747.516 306.749 746.837 306.999C746.159 307.248 745.421 307.291 744.718 307.121C744.015 306.951 743.379 306.577 742.889 306.045C742.399 305.513 742.078 304.847 741.967 304.133C741.855 303.418 741.958 302.687 742.263 302.031C742.567 301.375 743.06 300.825 743.678 300.449C744.295 300.073 745.011 299.889 745.733 299.92C746.699 299.962 747.609 300.384 748.264 301.095C748.918 301.806 749.265 302.748 749.227 303.713Z" fill="#221F1F"/>
<path d="M687.786 267.08C687.758 267.803 687.516 268.501 687.09 269.085C686.665 269.67 686.076 270.116 685.397 270.365C684.718 270.615 683.981 270.658 683.278 270.488C682.575 270.318 681.938 269.943 681.448 269.411C680.959 268.88 680.638 268.214 680.526 267.5C680.415 266.785 680.518 266.054 680.822 265.398C681.127 264.742 681.619 264.191 682.237 263.815C682.855 263.44 683.57 263.256 684.293 263.287C685.259 263.328 686.168 263.751 686.823 264.462C687.478 265.173 687.824 266.114 687.786 267.08Z" fill="#221F1F"/>
<path d="M662.406 294.193C662.378 294.916 662.136 295.614 661.711 296.199C661.285 296.784 660.696 297.229 660.017 297.479C659.338 297.728 658.601 297.771 657.898 297.601C657.195 297.431 656.558 297.057 656.069 296.525C655.579 295.993 655.258 295.328 655.146 294.613C655.035 293.898 655.138 293.167 655.442 292.511C655.747 291.855 656.239 291.305 656.857 290.929C657.475 290.553 658.191 290.369 658.913 290.4C659.879 290.442 660.789 290.864 661.443 291.575C662.098 292.286 662.444 293.228 662.406 294.193Z" fill="#221F1F"/>
<path d="M618.56 328.227C618.532 328.948 618.29 329.644 617.866 330.228C617.442 330.811 616.854 331.256 616.177 331.505C615.5 331.755 614.764 331.798 614.062 331.629C613.361 331.46 612.725 331.087 612.236 330.556C611.747 330.026 611.426 329.362 611.314 328.649C611.202 327.937 611.304 327.207 611.607 326.552C611.91 325.897 612.4 325.347 613.016 324.971C613.632 324.595 614.346 324.41 615.067 324.44C616.031 324.482 616.94 324.903 617.595 325.613C618.249 326.322 618.596 327.262 618.56 328.227Z" fill="#221F1F"/>
<path d="M779.706 593.22C779.677 593.941 779.434 594.636 779.009 595.219C778.584 595.802 777.996 596.245 777.319 596.494C776.641 596.742 775.906 596.784 775.205 596.615C774.504 596.445 773.869 596.071 773.38 595.541C772.892 595.01 772.571 594.346 772.46 593.634C772.348 592.921 772.451 592.192 772.754 591.537C773.057 590.883 773.548 590.333 774.163 589.957C774.779 589.582 775.492 589.397 776.213 589.427C777.179 589.467 778.09 589.889 778.745 590.6C779.4 591.311 779.746 592.254 779.706 593.22Z" fill="#221F1F"/>
<path d="M845.473 563.607C845.443 564.327 845.201 565.023 844.776 565.606C844.351 566.189 843.762 566.632 843.085 566.881C842.408 567.129 841.672 567.171 840.971 567.001C840.27 566.832 839.635 566.458 839.147 565.927C838.658 565.397 838.338 564.733 838.226 564.021C838.115 563.308 838.217 562.578 838.521 561.924C838.824 561.269 839.314 560.72 839.93 560.344C840.546 559.968 841.259 559.784 841.98 559.813C842.946 559.853 843.857 560.275 844.512 560.987C845.167 561.698 845.513 562.64 845.473 563.607Z" fill="#221F1F"/>
<path d="M810.094 674C810.066 674.723 809.823 675.421 809.398 676.005C808.973 676.59 808.383 677.036 807.705 677.285C807.026 677.535 806.288 677.578 805.586 677.408C804.883 677.238 804.246 676.863 803.756 676.331C803.266 675.8 802.945 675.134 802.834 674.42C802.722 673.705 802.825 672.974 803.13 672.318C803.435 671.662 803.927 671.111 804.545 670.735C805.163 670.36 805.878 670.176 806.601 670.207C807.566 670.248 808.476 670.671 809.131 671.382C809.786 672.093 810.132 673.034 810.094 674Z" fill="#221F1F"/>
<path d="M656.666 556.667C656.638 557.388 656.397 558.084 655.972 558.668C655.548 559.251 654.96 559.696 654.283 559.945C653.606 560.195 652.87 560.238 652.169 560.069C651.467 559.9 650.832 559.527 650.342 558.996C649.853 558.466 649.532 557.802 649.42 557.09C649.308 556.377 649.41 555.647 649.713 554.992C650.016 554.337 650.507 553.787 651.123 553.411C651.739 553.035 652.452 552.85 653.173 552.88C654.137 552.923 655.045 553.346 655.699 554.055C656.353 554.764 656.701 555.703 656.666 556.667Z" fill="#221F1F"/>
<path d="M542 532.84C541.972 533.563 541.73 534.261 541.304 534.845C540.879 535.43 540.29 535.876 539.611 536.125C538.932 536.375 538.195 536.418 537.492 536.248C536.789 536.078 536.152 535.703 535.662 535.172C535.172 534.64 534.851 533.974 534.74 533.26C534.628 532.545 534.732 531.814 535.036 531.158C535.341 530.502 535.833 529.951 536.451 529.575C537.069 529.2 537.784 529.016 538.507 529.047C539.473 529.088 540.382 529.511 541.037 530.222C541.692 530.933 542.038 531.874 542 532.84Z" fill="#221F1F"/>
<path d="M583.947 615.14C583.92 615.863 583.679 616.562 583.254 617.147C582.829 617.733 582.24 618.18 581.562 618.43C580.883 618.681 580.145 618.725 579.442 618.555C578.739 618.386 578.101 618.012 577.611 617.48C577.12 616.949 576.799 616.283 576.687 615.569C576.575 614.854 576.677 614.122 576.982 613.466C577.286 612.809 577.779 612.258 578.397 611.882C579.015 611.506 579.731 611.322 580.453 611.353C581.418 611.395 582.327 611.817 582.981 612.526C583.636 613.236 583.983 614.175 583.947 615.14Z" fill="#221F1F"/>
<path d="M428.954 621.293C428.926 622.016 428.685 622.715 428.261 623.301C427.836 623.886 427.247 624.333 426.569 624.584C425.89 624.834 425.152 624.878 424.449 624.709C423.745 624.54 423.108 624.166 422.618 623.634C422.127 623.102 421.805 622.437 421.693 621.722C421.581 621.007 421.684 620.275 421.989 619.619C422.293 618.963 422.786 618.412 423.404 618.036C424.022 617.66 424.737 617.476 425.46 617.507C426.425 617.548 427.333 617.97 427.988 618.679C428.643 619.389 428.99 620.329 428.954 621.293Z" fill="#221F1F"/>
<path d="M456.666 677.833C456.638 678.556 456.396 679.254 455.97 679.839C455.545 680.424 454.956 680.869 454.277 681.119C453.598 681.368 452.861 681.411 452.158 681.241C451.455 681.071 450.818 680.697 450.328 680.165C449.838 679.633 449.517 678.968 449.406 678.253C449.295 677.538 449.398 676.807 449.702 676.151C450.007 675.495 450.499 674.945 451.117 674.569C451.735 674.193 452.45 674.009 453.173 674.04C454.139 674.08 455.05 674.502 455.705 675.213C456.36 675.925 456.706 676.867 456.666 677.833Z" fill="#221F1F"/>
<path d="M385.107 665.14C385.077 665.861 384.834 666.556 384.409 667.139C383.984 667.722 383.396 668.165 382.719 668.414C382.042 668.662 381.306 668.704 380.605 668.534C379.904 668.365 379.269 667.991 378.781 667.461C378.292 666.93 377.972 666.266 377.86 665.554C377.749 664.841 377.851 664.112 378.154 663.457C378.458 662.803 378.948 662.253 379.564 661.877C380.179 661.502 380.893 661.317 381.613 661.347C382.58 661.387 383.49 661.809 384.146 662.52C384.801 663.231 385.146 664.174 385.107 665.14Z" fill="#221F1F"/>
<path d="M386.666 609.76C386.638 610.483 386.396 611.181 385.97 611.765C385.545 612.35 384.956 612.796 384.277 613.045C383.598 613.295 382.861 613.338 382.158 613.168C381.455 612.998 380.818 612.623 380.328 612.091C379.838 611.56 379.517 610.894 379.406 610.18C379.295 609.465 379.398 608.734 379.702 608.078C380.007 607.422 380.499 606.871 381.117 606.495C381.735 606.12 382.45 605.936 383.173 605.967C384.138 606.008 385.048 606.431 385.703 607.142C386.358 607.853 386.704 608.794 386.666 609.76Z" fill="#221F1F"/>
<path d="M461.64 564C461.612 564.721 461.37 565.417 460.946 566.001C460.522 566.585 459.934 567.029 459.257 567.279C458.58 567.528 457.844 567.571 457.142 567.402C456.441 567.233 455.805 566.86 455.316 566.33C454.827 565.799 454.506 565.136 454.394 564.423C454.282 563.71 454.384 562.98 454.687 562.325C454.99 561.67 455.481 561.12 456.096 560.744C456.712 560.368 457.426 560.184 458.147 560.213C459.112 560.253 460.022 560.674 460.677 561.384C461.332 562.094 461.678 563.035 461.64 564Z" fill="#221F1F"/>
<path d="M360.88 583.22C360.852 583.942 360.61 584.64 360.185 585.225C359.76 585.81 359.171 586.255 358.493 586.505C357.814 586.755 357.077 586.798 356.374 586.629C355.671 586.459 355.035 586.086 354.544 585.554C354.054 585.023 353.733 584.358 353.62 583.644C353.508 582.93 353.61 582.199 353.914 581.543C354.218 580.887 354.709 580.335 355.326 579.959C355.943 579.582 356.658 579.397 357.38 579.427C358.347 579.466 359.258 579.888 359.915 580.599C360.571 581.311 360.918 582.253 360.88 583.22Z" fill="#221F1F"/>
<path d="M324.34 639.373C324.312 640.096 324.069 640.794 323.644 641.379C323.219 641.964 322.629 642.409 321.951 642.659C321.272 642.908 320.535 642.951 319.832 642.781C319.129 642.611 318.492 642.237 318.002 641.705C317.512 641.173 317.191 640.507 317.08 639.793C316.968 639.078 317.071 638.347 317.376 637.691C317.681 637.035 318.173 636.484 318.791 636.109C319.409 635.733 320.124 635.549 320.847 635.58C321.812 635.622 322.722 636.044 323.377 636.755C324.032 637.466 324.378 638.408 324.34 639.373Z" fill="#221F1F"/>
<path d="M338.787 648.24C338.758 648.961 338.517 649.657 338.092 650.241C337.668 650.825 337.08 651.269 336.403 651.519C335.726 651.768 334.99 651.811 334.289 651.642C333.587 651.473 332.952 651.1 332.462 650.57C331.973 650.039 331.652 649.376 331.54 648.663C331.428 647.95 331.53 647.22 331.833 646.565C332.136 645.91 332.627 645.36 333.243 644.984C333.859 644.608 334.572 644.424 335.293 644.453C336.258 644.493 337.168 644.914 337.823 645.624C338.478 646.334 338.825 647.275 338.787 648.24Z" fill="#221F1F"/>
<path d="M304.173 627.333C304.146 628.056 303.905 628.755 303.481 629.341C303.056 629.926 302.467 630.373 301.788 630.624C301.11 630.874 300.372 630.918 299.669 630.749C298.965 630.58 298.328 630.206 297.837 629.674C297.347 629.142 297.025 628.477 296.913 627.762C296.801 627.047 296.904 626.315 297.208 625.659C297.513 625.003 298.005 624.452 298.623 624.076C299.241 623.7 299.957 623.515 300.68 623.547C301.644 623.588 302.553 624.01 303.208 624.719C303.862 625.429 304.209 626.369 304.173 627.333Z" fill="#221F1F"/>
<path d="M295.087 655.38C295.059 656.101 294.818 656.797 294.393 657.381C293.969 657.965 293.381 658.409 292.704 658.659C292.027 658.908 291.291 658.951 290.59 658.782C289.888 658.613 289.253 658.24 288.763 657.71C288.274 657.179 287.953 656.516 287.841 655.803C287.729 655.09 287.831 654.36 288.134 653.705C288.437 653.05 288.928 652.5 289.544 652.124C290.16 651.748 290.873 651.564 291.594 651.593C292.559 651.635 293.467 652.057 294.122 652.766C294.776 653.476 295.124 654.415 295.087 655.38Z" fill="#221F1F"/>
<path d="M165.713 712.493C165.685 713.214 165.443 713.911 165.019 714.494C164.595 715.078 164.007 715.523 163.33 715.772C162.653 716.022 161.917 716.065 161.216 715.896C160.514 715.727 159.878 715.353 159.389 714.823C158.9 714.293 158.579 713.629 158.467 712.916C158.355 712.203 158.457 711.473 158.76 710.819C159.063 710.164 159.554 709.613 160.17 709.238C160.786 708.862 161.499 708.677 162.22 708.707C162.698 708.726 163.168 708.838 163.602 709.039C164.037 709.24 164.427 709.524 164.752 709.876C165.076 710.227 165.328 710.64 165.493 711.089C165.658 711.538 165.733 712.015 165.713 712.493Z" fill="#221F1F"/>
<path d="M161.82 667.64C161.79 668.361 161.547 669.056 161.122 669.639C160.697 670.222 160.109 670.665 159.432 670.914C158.755 671.162 158.019 671.204 157.318 671.034C156.617 670.865 155.982 670.491 155.493 669.961C155.005 669.43 154.685 668.766 154.573 668.054C154.462 667.341 154.564 666.612 154.867 665.957C155.17 665.303 155.661 664.753 156.277 664.377C156.892 664.002 157.606 663.817 158.326 663.847C158.805 663.866 159.275 663.979 159.71 664.18C160.145 664.381 160.536 664.666 160.86 665.018C161.185 665.37 161.437 665.783 161.601 666.233C161.766 666.683 161.84 667.161 161.82 667.64Z" fill="#221F1F"/>
<path d="M239.7 555C239.671 555.721 239.428 556.417 239.002 557C238.577 557.582 237.988 558.026 237.311 558.274C236.633 558.522 235.897 558.564 235.196 558.394C234.495 558.223 233.86 557.849 233.372 557.318C232.884 556.786 232.564 556.122 232.453 555.409C232.343 554.696 232.446 553.967 232.75 553.312C233.054 552.658 233.546 552.109 234.162 551.734C234.779 551.359 235.493 551.176 236.214 551.207C236.692 551.226 237.161 551.34 237.596 551.542C238.03 551.743 238.42 552.028 238.744 552.38C239.068 552.733 239.319 553.145 239.483 553.595C239.647 554.044 239.721 554.522 239.7 555Z" fill="#221F1F"/>
<path d="M310.087 695.767C310.059 696.489 309.817 697.187 309.391 697.772C308.966 698.357 308.377 698.802 307.698 699.052C307.019 699.302 306.282 699.344 305.579 699.175C304.876 699.005 304.239 698.63 303.749 698.098C303.259 697.566 302.938 696.901 302.827 696.186C302.715 695.472 302.819 694.74 303.123 694.084C303.428 693.428 303.92 692.878 304.538 692.502C305.156 692.126 305.871 691.942 306.594 691.973C307.559 692.015 308.469 692.437 309.124 693.148C309.779 693.859 310.125 694.801 310.087 695.767Z" fill="#221F1F"/>
<path d="M289.607 729.513C289.578 730.236 289.336 730.934 288.911 731.519C288.485 732.104 287.896 732.549 287.217 732.799C286.539 733.048 285.801 733.091 285.098 732.921C284.395 732.751 283.759 732.377 283.269 731.845C282.779 731.313 282.458 730.648 282.346 729.933C282.235 729.218 282.338 728.487 282.643 727.831C282.947 727.175 283.44 726.624 284.057 726.249C284.675 725.873 285.391 725.689 286.113 725.72C287.079 725.762 287.989 726.184 288.643 726.895C289.298 727.606 289.644 728.548 289.607 729.513Z" fill="#221F1F"/>
<path d="M276.62 618.3L328.44 557.093" stroke="#231F20" stroke-width="1.24" stroke-miterlimit="10"/>
</svg>
