<svg width="1000" height="1000" viewBox="0 0 1000 1000" fill="none" xmlns="http://www.w3.org/2000/svg">
<path d="M531.34 427.273L496.233 393.087L498.793 335.24L531.34 427.273Z" fill="#DA5977"/>
<path d="M204.82 627.92L270.587 600.807L328.274 604.267L204.82 627.92Z" fill="#DA5977"/>
<path d="M632.893 478.36L614.833 441.553L538.446 481.48L632.893 478.36Z" fill="#C072CE"/>
<path d="M527.34 423.9L435.54 444.347L506.54 475.04L529.82 423.993" fill="#C072CE"/>
<path d="M409.08 597.667L327.7 636.573L422.374 637.02L411.474 597.04" fill="#C072CE"/>
<path d="M728.913 457.313L708.453 477.58L730.7 538.387L728.913 457.313Z" fill="#DA5977"/>
<path d="M655.38 358.507L658.84 398.893L730.373 319.28L655.38 358.507Z" fill="#DA5977"/>
<path d="M495.474 558.32L527.814 552.88L519.514 578.6L495.474 558.32Z" fill="#DA5977"/>
<path d="M479.4 661.053L556.5 606.26L501.54 605.807L479.4 661.053Z" fill="#C072CE"/>
<path d="M776.267 433.833L732.3 430.427L778.453 456.58L776.267 433.833Z" fill="#9E4DB2"/>
<path d="M830.113 570.753L802.873 659.313L828.873 628.993L830.113 570.753Z" fill="#9E4DB2"/>
<path d="M671.067 506.747L635.174 450.22L637.687 535.807L671.067 506.747Z" fill="#9E4DB2"/>
<path d="M543.026 333.593L501.333 267.92L504.253 367.353L543.026 333.593Z" fill="#C072CE"/>
<path d="M593.927 398.1L534.787 429.507L620.314 433.633L593.927 398.1Z" fill="#9E4DB2"/>
<path d="M614.613 505.04L563.8 558.427L661.507 507.847L614.613 505.04Z" fill="#9E4DB2"/>
<path d="M543.46 535.04L532.267 593.113L610.74 541.307L543.46 535.04Z" fill="#9E4DB2"/>
<path d="M529.653 331.433L516.153 404.273L560.767 349.66L529.653 331.433Z" fill="#9E4DB2"/>
<path d="M604.88 574.707L651.687 526.393L605.613 543.913L604.88 574.707Z" fill="#9E4DB2"/>
<path d="M825.373 558.887L762.3 585.807L756.14 561.193L825.373 558.887Z" fill="#C072CE"/>
<path d="M180.667 686.907L219.2 630.173L237.68 647.56L180.667 686.907Z" fill="#C072CE"/>
<path d="M271.32 340.62L173.406 355.047L190.166 332.733L271.32 340.62Z" fill="#C072CE"/>
<path d="M828.02 541.973L779.247 448.233L784.78 437.487L828.02 541.973Z" fill="#9E4DB2"/>
<path d="M560.174 347.76L580.087 331.32L543.047 331.78L560.174 347.76Z" fill="#DA5977"/>
<path d="M706.533 262.06L734.747 290.347L729.08 323.38L706.533 262.06Z" fill="#C072CE"/>
<path d="M469.1 294.693L462.94 272.2L383.46 271.953L469.1 294.693Z" fill="#F94BA7"/>
<path d="M615.693 460.3L696.74 435.353L664.033 410.427L615.693 460.3Z" fill="#DA5977"/>
<path d="M633.267 558.82L533.627 614.493L559.214 574.633L633.267 558.82Z" fill="#C072CE"/>
<path d="M728.96 443.047L644.4 490.293L660.76 449.66L728.96 443.047Z" fill="#9E4DB2"/>
<path d="M697.08 420.013L705.973 489.94L721.12 438.673L697.08 420.013Z" fill="#C072CE"/>
<path d="M495.46 262.293L502.8 298.3L435.326 294.273L495.46 262.293Z" fill="#F94BA7"/>
<path d="M554.314 414.713L523.554 383.327L593.92 343.54L554.314 414.713Z" fill="#F94BA7"/>
<path d="M571.5 535.927L540.767 513.5L618.587 486.72L571.5 535.927Z" fill="#F94BA7"/>
<path d="M708.807 463.307L721.58 428.847L776.76 467.873L708.807 463.307Z" fill="#F94BA7"/>
<path d="M650.4 446.2L615.12 435.893L650.16 378.093L650.4 446.2Z" fill="#F94BA7"/>
<path d="M370.526 377.647L405.66 352.153L465.58 367.16L370.526 377.647Z" fill="#F94BA7"/>
<path d="M419.233 689.073L442.307 643.5L516.32 625.847L419.233 689.073Z" fill="#F94BA7"/>
<path d="M530.38 629.653L601.146 586.193L591.066 574.36L530.38 629.653Z" fill="#DA5977"/>
<path d="M668.067 381.72L642.287 421.507L675.667 423.98L726.26 423.807" stroke="#41474E" stroke-width="1.39" stroke-miterlimit="10"/>
<path d="M727.54 293.693L694.466 330.787L662.273 349.547L622.893 402.727L615.86 428.373L548.58 493.313L448.753 559.713L375.873 605.167L315.073 632.707L284.293 650.74" stroke="#41474E" stroke-width="1.39" stroke-miterlimit="10"/>
<path d="M728.433 341.307L693.887 331.087L657.193 300.167" stroke="#41474E" stroke-width="1.39" stroke-miterlimit="10"/>
<path d="M717.666 288.34L657.193 300.167L609.506 348.047L567.293 378.34" stroke="#41474E" stroke-width="1.39" stroke-miterlimit="10"/>
<path d="M518.233 418.553L567.293 378.34L622.893 402.727L642.147 421.733L624.36 479.973" stroke="#41474E" stroke-width="1.39" stroke-miterlimit="10"/>
<path d="M609.507 348.047L662.273 349.547" stroke="#41474E" stroke-width="1.39" stroke-miterlimit="10"/>
<path d="M668.547 381.9L662.273 349.547" stroke="#41474E" stroke-width="1.39" stroke-miterlimit="10"/>
<path d="M291.62 621.013L328.087 643.48" stroke="#41474E" stroke-width="1.39" stroke-miterlimit="10"/>
<path d="M202.5 309.5L300.56 282.233H487.453L534.067 331.927L518.233 418.553" stroke="#41474E" stroke-width="1.39" stroke-miterlimit="10"/>
<path d="M727.54 293.693L710.94 265.38" stroke="#41474E" stroke-width="1.39" stroke-miterlimit="10"/>
<path d="M484.813 504.6L548.58 493.313L529.96 527.467" stroke="#41474E" stroke-width="1.39" stroke-miterlimit="10"/>
<path d="M642.146 421.727L676.453 416.58" stroke="#41474E" stroke-width="1.39" stroke-miterlimit="10"/>
<path d="M607.554 322.053L609.507 348.047" stroke="#41474E" stroke-width="1.39" stroke-miterlimit="10"/>
<path d="M657.194 300.167L607.554 322.053" stroke="#41474E" stroke-width="1.39" stroke-miterlimit="10"/>
<path d="M567.293 378.34L607.553 322.053" stroke="#41474E" stroke-width="1.39" stroke-miterlimit="10"/>
<path d="M727.807 424.04L717.667 438.74" stroke="#41474E" stroke-width="1.39" stroke-miterlimit="10"/>
<path d="M774.674 451.08L790.287 434.827" stroke="#41474E" stroke-width="1.39" stroke-miterlimit="10"/>
<path d="M498.007 265.527L487.454 282.233L338.82 340.72" stroke="#41474E" stroke-width="1.39" stroke-miterlimit="10"/>
<path d="M300.56 282.233L304.52 271.68" stroke="#41474E" stroke-width="1.39" stroke-miterlimit="10"/>
<path d="M534.394 331.713L539.78 315.213" stroke="#41474E" stroke-width="1.39" stroke-miterlimit="10"/>
<path d="M498.007 265.527L534.393 331.713" stroke="#41474E" stroke-width="1.39" stroke-miterlimit="10"/>
<path d="M300.56 282.233L498.006 265.527" stroke="#41474E" stroke-width="1.39" stroke-miterlimit="10"/>
<path d="M727.807 424.04L774.673 451.08" stroke="#41474E" stroke-width="1.39" stroke-miterlimit="10"/>
<path d="M624.36 479.973L650.22 451.747" stroke="#41474E" stroke-width="1.39" stroke-miterlimit="10"/>
<path d="M717.667 438.74L649.24 452.82" stroke="#41474E" stroke-width="1.39" stroke-miterlimit="10"/>
<path d="M642.313 421.707L649.24 452.82" stroke="#41474E" stroke-width="1.39" stroke-miterlimit="10"/>
<path d="M567.293 378.34L526.18 387.34" stroke="#41474E" stroke-width="1.39" stroke-miterlimit="10"/>
<path d="M474.88 345.153L447 350.833L405.66 352.153" stroke="#41474E" stroke-width="1.39" stroke-miterlimit="10"/>
<path d="M159.406 357.427L300.56 282.233L440.473 341.287" stroke="#41474E" stroke-width="1.39" stroke-miterlimit="10"/>
<path d="M534.067 331.927L475.42 345.22" stroke="#41474E" stroke-width="1.39" stroke-miterlimit="10"/>
<path d="M835.434 557.66L774.674 451.08L717.667 438.74" stroke="#41474E" stroke-width="1.39" stroke-miterlimit="10"/>
<path d="M698.894 474.407L717.667 438.74" stroke="#41474E" stroke-width="1.39" stroke-miterlimit="10"/>
<path d="M487.453 282.233L475.42 345.22" stroke="#41474E" stroke-width="1.39" stroke-miterlimit="10"/>
<path d="M769.18 587.853L774.673 451.08" stroke="#41474E" stroke-width="1.39" stroke-miterlimit="10"/>
<path d="M835.394 558.12L698.894 474.407" stroke="#41474E" stroke-width="1.39" stroke-miterlimit="10"/>
<path d="M799.38 670.233L835.433 557.66" stroke="#41474E" stroke-width="1.39" stroke-miterlimit="10"/>
<path d="M300.56 282.233L246.16 347.813" stroke="#41474E" stroke-width="1.39" stroke-miterlimit="10"/>
<path d="M769.18 587.853L835.433 557.66" stroke="#41474E" stroke-width="1.39" stroke-miterlimit="10"/>
<path d="M678.3 260.687L651.333 288.247L633.446 291.027" stroke="#41474E" stroke-width="1.39" stroke-miterlimit="10"/>
<path d="M651.333 288.247L657.193 300.167" stroke="#41474E" stroke-width="1.39" stroke-miterlimit="10"/>
<path d="M717.666 288.34L651.333 288.247" stroke="#41474E" stroke-width="1.39" stroke-miterlimit="10"/>
<path d="M607.554 322.053L651.334 288.247" stroke="#41474E" stroke-width="1.39" stroke-miterlimit="10"/>
<path d="M418.427 615.693L513.84 643.847" stroke="#41474E" stroke-width="1.39" stroke-miterlimit="10"/>
<path d="M321.64 552.253L249.2 488.613" stroke="#41474E" stroke-width="1.39" stroke-miterlimit="10"/>
<path d="M475.42 345.22L456.087 368.567" stroke="#41474E" stroke-width="1.39" stroke-miterlimit="10"/>
<path d="M447 350.833L456.087 368.567" stroke="#41474E" stroke-width="1.39" stroke-miterlimit="10"/>
<path d="M405.66 352.153L456.087 368.567" stroke="#41474E" stroke-width="1.39" stroke-miterlimit="10"/>
<path d="M573.054 609.547L624.36 479.973" stroke="#41474E" stroke-width="1.39" stroke-miterlimit="10"/>
<path d="M350.733 577.033L281.873 441.153" stroke="#41474E" stroke-width="1.39" stroke-miterlimit="10"/>
<path d="M417.82 615.513L573.054 609.547" stroke="#41474E" stroke-width="1.39" stroke-miterlimit="10"/>
<path d="M448.753 559.713L484.813 504.6" stroke="#41474E" stroke-width="1.39" stroke-miterlimit="10"/>
<path d="M529.96 527.467L448.753 559.713" stroke="#41474E" stroke-width="1.39" stroke-miterlimit="10"/>
<path d="M277.66 724.373L374.44 697.787L417.973 667.007L428.047 636.247L374 660.413" stroke="#41474E" stroke-width="1.39" stroke-miterlimit="10"/>
<path d="M417.974 667.007L446.12 672.873" stroke="#41474E" stroke-width="1.39" stroke-miterlimit="10"/>
<path d="M374 660.413L417.973 667.007" stroke="#41474E" stroke-width="1.39" stroke-miterlimit="10"/>
<path d="M322.12 552.093L239 580.38L182.714 645.02L155.207 706.173" stroke="#41474E" stroke-width="1.39" stroke-miterlimit="10"/>
<path d="M228.007 549.16L239 580.38" stroke="#41474E" stroke-width="1.39" stroke-miterlimit="10"/>
<path d="M237.786 623.62L154.826 706.073" stroke="#41474E" stroke-width="1.39" stroke-miterlimit="10"/>
<path d="M239 580.38L350.1 577.573" stroke="#41474E" stroke-width="1.39" stroke-miterlimit="10"/>
<path d="M374.439 697.793L417.819 615.513" stroke="#41474E" stroke-width="1.39" stroke-miterlimit="10"/>
<path d="M346.78 381.427L517.48 418.387" stroke="#41474E" stroke-width="1.39" stroke-miterlimit="10"/>
<path d="M624.36 479.973L646.087 549.92" stroke="#41474E" stroke-width="1.39" stroke-miterlimit="10"/>
<path d="M182.713 645.02L237.546 657.153" stroke="#41474E" stroke-width="1.39" stroke-miterlimit="10"/>
<path d="M325.58 711.247L347.153 732.113" stroke="#41474E" stroke-width="1.39" stroke-miterlimit="10"/>
<path d="M374.44 697.793L347.153 732.113" stroke="#41474E" stroke-width="1.39" stroke-miterlimit="10"/>
<path d="M182.713 645.02L237.24 623.913" stroke="#41474E" stroke-width="1.39" stroke-miterlimit="10"/>
<path d="M228.006 549.16L182.713 645.02" stroke="#41474E" stroke-width="1.39" stroke-miterlimit="10"/>
<path d="M299.333 578.893L182.713 645.02" stroke="#41474E" stroke-width="1.39" stroke-miterlimit="10"/>
<path d="M324.566 711.967L392.806 662.96" stroke="#41474E" stroke-width="1.39" stroke-miterlimit="10"/>
<path d="M374.44 697.793L299.773 688.973" stroke="#41474E" stroke-width="1.39" stroke-miterlimit="10"/>
<path d="M586.166 326.407L526.753 387.413" stroke="#41474E" stroke-width="1.39" stroke-miterlimit="10"/>
<path d="M563.666 325.4L526.753 387.413" stroke="#41474E" stroke-width="1.39" stroke-miterlimit="10"/>
<path d="M321.64 552.253L350.62 577.473L375.873 605.167L417.913 615.12" stroke="#41474E" stroke-width="1.39" stroke-miterlimit="10"/>
<path d="M420.667 615.407L646.087 549.92" stroke="#41474E" stroke-width="1.39" stroke-miterlimit="10"/>
<path d="M590.406 565.933L533.133 528.453" stroke="#41474E" stroke-width="1.39" stroke-miterlimit="10"/>
<path d="M375.633 604.907L425.739 547.353" stroke="#41474E" stroke-width="1.39" stroke-miterlimit="10"/>
<path d="M375.873 605.167L465.246 571.233L590.406 565.933" stroke="#41474E" stroke-width="1.39" stroke-miterlimit="10"/>
<path d="M440.474 341.287L475.42 345.22L517.88 418.58" stroke="#41474E" stroke-width="1.39" stroke-miterlimit="10"/>
<path d="M541.473 332.207L518.12 418.673" stroke="#41474E" stroke-width="1.39" stroke-miterlimit="10"/>
<path d="M281.14 441.607L377.06 464.707" stroke="#41474E" stroke-width="1.39" stroke-miterlimit="10"/>
<path d="M346.04 381.873L377.06 464.707" stroke="#41474E" stroke-width="1.39" stroke-miterlimit="10"/>
<path d="M484.081 505.047L377.061 464.707" stroke="#41474E" stroke-width="1.39" stroke-miterlimit="10"/>
<path d="M377.061 464.707L425.567 548.4" stroke="#41474E" stroke-width="1.39" stroke-miterlimit="10"/>
<path d="M517.501 419L377.061 464.707" stroke="#41474E" stroke-width="1.39" stroke-miterlimit="10"/>
<path d="M320.906 552.707L377.06 464.707" stroke="#41474E" stroke-width="1.39" stroke-miterlimit="10"/>
<path d="M585.813 326.327L607.554 322.053L633.447 291.027L678.167 260.78L678.3 260.687L710.94 265.373L735.913 282L738.713 298.793L717.667 288.34L678.3 260.687" stroke="#41474E" stroke-width="2.45" stroke-miterlimit="10"/>
<path d="M727.407 423.98L790.287 434.827L835.433 557.66L828.693 630.947L799.38 670.233L769.18 587.853L736.053 546.813L698.893 474.407L676.833 479.973L667.453 509.287L646.64 551.5L573.06 609.547L513.84 643.847L446.12 672.873L380.593 711.42L346.733 731.653L277.253 725.053L298.367 689.433L374 660.413L366.967 644.58L327.82 643.76L308.36 648.867L284.293 650.74L286.22 632.953L294 621.9L270.493 612.953L237.24 623.913L236.8 657.773L154.347 707.907L150.88 662.52L170.84 623.033L228.007 549.16L249.2 488.613L281.873 441.153L346.293 380.733L405.66 352.153L441.44 341.387L338.82 340.72L241.2 348.193L159.407 357.427L202.5 309.5L304.52 271.68L498.007 265.527L538.753 316.76L541.473 332.207" stroke="#41474E" stroke-width="2.45" stroke-miterlimit="10"/>
<path d="M738.946 299.527L728.433 341.307L668.066 381.72" stroke="#41474E" stroke-width="2.45" stroke-miterlimit="10"/>
<path d="M668.066 381.72L676.46 416.767" stroke="#41474E" stroke-width="2.45" stroke-miterlimit="10"/>
<path d="M727.806 424.04L675.986 416.213" stroke="#41474E" stroke-width="2.45" stroke-miterlimit="10"/>
<path d="M541.474 332.207L563.087 325.327L586.447 326.353" stroke="#41474E" stroke-width="2.45" stroke-miterlimit="10"/>
<path d="M624.36 479.973L529.96 527.467L465.467 571.44L417.82 615.513L327.7 643.38" stroke="#41474E" stroke-width="2.45" stroke-miterlimit="10"/>
<path d="M624.36 479.973L615.86 428.373L518.453 418.553L518.1 418.327" stroke="#41474E" stroke-width="2.45" stroke-miterlimit="10"/>
<path d="M456.086 368.567L346.293 380.733" stroke="#41474E" stroke-width="2.45" stroke-miterlimit="10"/>
<path d="M518.234 418.553L456.087 368.567" stroke="#41474E" stroke-width="2.45" stroke-miterlimit="10"/>
<path d="M366.967 644.58L428.047 636.247" stroke="#41474E" stroke-width="2.45" stroke-miterlimit="10"/>
<path d="M228.187 549.68L321.213 552.493L294 621.9" stroke="#41474E" stroke-width="2.45" stroke-miterlimit="10"/>
<path d="M418.526 615.833L427.84 635.92L428.12 636.433L446.293 673.373" stroke="#41474E" stroke-width="2.45" stroke-miterlimit="10"/>
<path d="M518.233 418.553L622.893 402.727L624.36 479.973L667.453 509.287" stroke="#41474E" stroke-width="2.45" stroke-miterlimit="10"/>
<path d="M676.834 479.973H624.36" stroke="#41474E" stroke-width="2.45" stroke-miterlimit="10"/>
<path d="M286.22 632.953L313.086 634.247L307.8 648.267" stroke="#41474E" stroke-width="2.45" stroke-miterlimit="10"/>
<path d="M517.673 417.96L484.253 504L425.74 547.353L350.82 577.807L294.113 622.273" stroke="#41474E" stroke-width="2.45" stroke-miterlimit="10"/>
<path d="M321.213 552.493L350.973 578.287" stroke="#41474E" stroke-width="2.45" stroke-miterlimit="10"/>
<path d="M206.2 310.213C206.171 310.934 205.928 311.63 205.503 312.212C205.078 312.795 204.49 313.239 203.813 313.487C203.136 313.736 202.4 313.778 201.699 313.608C200.998 313.438 200.363 313.064 199.874 312.534C199.386 312.003 199.065 311.34 198.954 310.627C198.843 309.915 198.945 309.185 199.248 308.531C199.551 307.876 200.042 307.326 200.657 306.951C201.273 306.575 201.986 306.39 202.707 306.42C203.673 306.46 204.584 306.882 205.239 307.593C205.894 308.305 206.24 309.247 206.2 310.213Z" fill="#41474E"/>
<path d="M163.94 357.66C163.912 358.381 163.67 359.077 163.246 359.661C162.822 360.245 162.234 360.689 161.557 360.939C160.879 361.188 160.144 361.231 159.442 361.062C158.741 360.893 158.105 360.52 157.616 359.99C157.127 359.459 156.806 358.796 156.694 358.083C156.582 357.37 156.684 356.64 156.987 355.985C157.29 355.33 157.78 354.78 158.396 354.404C159.012 354.028 159.726 353.844 160.447 353.873C161.412 353.913 162.321 354.334 162.976 355.044C163.631 355.754 163.978 356.695 163.94 357.66Z" fill="#41474E"/>
<path d="M443.16 342.087C443.131 342.807 442.888 343.503 442.463 344.086C442.038 344.668 441.45 345.112 440.773 345.361C440.095 345.609 439.36 345.651 438.659 345.481C437.958 345.312 437.323 344.938 436.834 344.407C436.346 343.877 436.025 343.213 435.914 342.501C435.802 341.788 435.905 341.058 436.208 340.404C436.511 339.749 437.002 339.2 437.617 338.824C438.233 338.448 438.946 338.264 439.667 338.293C440.146 338.312 440.616 338.425 441.051 338.626C441.486 338.827 441.877 339.112 442.201 339.465C442.526 339.817 442.778 340.23 442.942 340.68C443.107 341.13 443.181 341.608 443.16 342.087Z" fill="#41474E"/>
<path d="M500.854 266.513C500.824 267.234 500.581 267.93 500.156 268.512C499.731 269.095 499.143 269.539 498.466 269.787C497.789 270.036 497.053 270.078 496.352 269.908C495.651 269.738 495.016 269.364 494.528 268.834C494.039 268.303 493.719 267.64 493.607 266.927C493.496 266.215 493.598 265.485 493.901 264.831C494.205 264.176 494.695 263.626 495.311 263.251C495.926 262.875 496.64 262.69 497.36 262.72C498.327 262.76 499.238 263.182 499.893 263.893C500.548 264.605 500.893 265.547 500.854 266.513Z" fill="#41474E"/>
<path d="M542.387 317.28C542.357 318.001 542.114 318.697 541.689 319.28C541.264 319.863 540.675 320.306 539.997 320.554C539.32 320.802 538.584 320.844 537.883 320.674C537.182 320.503 536.547 320.129 536.059 319.598C535.57 319.067 535.251 318.402 535.14 317.689C535.029 316.976 535.132 316.247 535.437 315.592C535.741 314.938 536.232 314.389 536.849 314.014C537.466 313.639 538.179 313.456 538.9 313.487C539.378 313.506 539.848 313.62 540.282 313.822C540.716 314.023 541.106 314.308 541.43 314.66C541.754 315.013 542.005 315.425 542.169 315.875C542.334 316.324 542.408 316.802 542.387 317.28Z" fill="#41474E"/>
<path d="M350.86 381.607C350.832 382.329 350.59 383.027 350.165 383.612C349.739 384.197 349.15 384.642 348.471 384.892C347.793 385.142 347.055 385.184 346.352 385.015C345.649 384.845 345.012 384.47 344.523 383.938C344.033 383.406 343.712 382.741 343.6 382.026C343.489 381.312 343.592 380.58 343.897 379.924C344.201 379.269 344.694 378.718 345.311 378.342C345.929 377.966 346.645 377.782 347.367 377.813C348.333 377.855 349.243 378.277 349.897 378.988C350.552 379.699 350.898 380.641 350.86 381.607Z" fill="#41474E"/>
<path d="M286.534 442.753C286.505 443.474 286.264 444.171 285.84 444.754C285.415 445.338 284.827 445.783 284.15 446.032C283.473 446.282 282.737 446.324 282.036 446.156C281.334 445.987 280.699 445.613 280.21 445.083C279.72 444.553 279.399 443.889 279.287 443.176C279.175 442.463 279.277 441.733 279.58 441.079C279.884 440.424 280.374 439.874 280.99 439.498C281.606 439.122 282.319 438.937 283.04 438.967C283.519 438.986 283.988 439.099 284.423 439.299C284.857 439.5 285.248 439.784 285.572 440.136C285.897 440.487 286.149 440.9 286.314 441.349C286.479 441.798 286.553 442.275 286.534 442.753Z" fill="#41474E"/>
<path d="M252.5 490.347C252.473 491.069 252.233 491.768 251.808 492.353C251.384 492.939 250.796 493.386 250.117 493.637C249.439 493.887 248.702 493.931 247.998 493.763C247.295 493.594 246.658 493.221 246.167 492.69C245.676 492.159 245.354 491.494 245.241 490.78C245.128 490.065 245.23 489.334 245.533 488.677C245.837 488.021 246.328 487.469 246.946 487.092C247.563 486.715 248.278 486.53 249 486.56C249.966 486.6 250.876 487.021 251.532 487.73C252.188 488.44 252.536 489.381 252.5 490.347Z" fill="#41474E"/>
<path d="M487.293 505.333C487.265 506.054 487.024 506.751 486.599 507.334C486.175 507.918 485.587 508.363 484.91 508.612C484.233 508.862 483.497 508.904 482.796 508.736C482.094 508.567 481.459 508.193 480.969 507.663C480.48 507.133 480.159 506.469 480.047 505.756C479.935 505.043 480.037 504.313 480.34 503.659C480.643 503.004 481.134 502.453 481.75 502.078C482.366 501.702 483.079 501.517 483.8 501.547C484.765 501.587 485.675 502.008 486.33 502.718C486.985 503.427 487.331 504.368 487.293 505.333Z" fill="#41474E"/>
<path d="M552.2 494.667C552.172 495.389 551.93 496.087 551.504 496.672C551.079 497.257 550.49 497.702 549.811 497.952C549.132 498.202 548.395 498.244 547.692 498.074C546.989 497.905 546.352 497.53 545.862 496.998C545.373 496.466 545.052 495.801 544.94 495.086C544.829 494.372 544.932 493.64 545.236 492.984C545.541 492.329 546.033 491.778 546.651 491.402C547.269 491.026 547.985 490.842 548.707 490.873C549.673 490.915 550.582 491.337 551.237 492.048C551.892 492.759 552.238 493.701 552.2 494.667Z" fill="#41474E"/>
<path d="M618.54 430.067C618.512 430.789 618.27 431.487 617.844 432.072C617.419 432.657 616.83 433.102 616.151 433.352C615.472 433.602 614.735 433.644 614.032 433.474C613.329 433.305 612.692 432.93 612.202 432.398C611.712 431.866 611.391 431.201 611.28 430.486C611.169 429.772 611.272 429.04 611.576 428.384C611.881 427.729 612.373 427.178 612.991 426.802C613.609 426.426 614.324 426.242 615.047 426.273C616.013 426.315 616.922 426.737 617.577 427.448C618.232 428.159 618.578 429.101 618.54 430.067Z" fill="#41474E"/>
<path d="M521.333 418.813C521.305 419.534 521.064 420.231 520.639 420.814C520.215 421.398 519.627 421.843 518.95 422.092C518.273 422.342 517.537 422.384 516.836 422.216C516.134 422.047 515.499 421.673 515.009 421.143C514.52 420.613 514.199 419.949 514.087 419.236C513.975 418.523 514.077 417.793 514.38 417.139C514.683 416.484 515.174 415.934 515.79 415.558C516.406 415.182 517.119 414.997 517.84 415.027C518.805 415.067 519.715 415.488 520.37 416.198C521.025 416.907 521.371 417.848 521.333 418.813Z" fill="#41474E"/>
<path d="M628.06 480.253C628.032 480.974 627.79 481.671 627.366 482.254C626.942 482.838 626.354 483.283 625.677 483.532C625 483.782 624.264 483.825 623.562 483.656C622.861 483.487 622.225 483.113 621.736 482.583C621.247 482.053 620.926 481.389 620.814 480.676C620.702 479.963 620.804 479.233 621.107 478.579C621.41 477.924 621.9 477.374 622.516 476.998C623.132 476.622 623.846 476.437 624.567 476.467C625.532 476.507 626.442 476.928 627.097 477.638C627.752 478.347 628.098 479.288 628.06 480.253Z" fill="#41474E"/>
<path d="M680.267 481.693C680.239 482.414 679.997 483.111 679.573 483.694C679.149 484.278 678.561 484.723 677.884 484.972C677.207 485.222 676.471 485.265 675.769 485.096C675.068 484.927 674.432 484.553 673.943 484.023C673.454 483.493 673.133 482.829 673.021 482.116C672.909 481.403 673.011 480.673 673.314 480.019C673.617 479.364 674.107 478.814 674.723 478.438C675.339 478.062 676.053 477.877 676.774 477.907C677.739 477.947 678.649 478.368 679.304 479.078C679.958 479.788 680.305 480.728 680.267 481.693Z" fill="#41474E"/>
<path d="M680 416.507C679.971 417.227 679.728 417.923 679.303 418.506C678.878 419.088 678.29 419.532 677.612 419.78C676.935 420.029 676.2 420.071 675.499 419.901C674.798 419.732 674.163 419.358 673.674 418.827C673.186 418.297 672.865 417.633 672.754 416.921C672.642 416.208 672.745 415.478 673.048 414.824C673.351 414.169 673.842 413.62 674.457 413.244C675.073 412.868 675.786 412.684 676.507 412.713C677.473 412.753 678.384 413.175 679.039 413.887C679.694 414.598 680.04 415.54 680 416.507Z" fill="#41474E"/>
<path d="M793.333 436.407C793.305 437.128 793.064 437.824 792.639 438.408C792.215 438.991 791.627 439.436 790.95 439.685C790.273 439.935 789.537 439.978 788.836 439.809C788.134 439.64 787.499 439.267 787.009 438.736C786.52 438.206 786.199 437.542 786.087 436.829C785.975 436.117 786.077 435.387 786.38 434.732C786.683 434.077 787.174 433.527 787.79 433.151C788.406 432.775 789.119 432.59 789.84 432.62C790.805 432.66 791.715 433.081 792.37 433.791C793.025 434.501 793.371 435.442 793.333 436.407Z" fill="#41474E"/>
<path d="M742 299.107C741.973 299.83 741.732 300.528 741.308 301.114C740.883 301.7 740.294 302.146 739.616 302.397C738.937 302.648 738.199 302.691 737.496 302.522C736.792 302.353 736.155 301.979 735.664 301.447C735.174 300.915 734.852 300.25 734.74 299.535C734.628 298.821 734.731 298.089 735.036 297.432C735.34 296.776 735.832 296.225 736.451 295.849C737.069 295.473 737.784 295.289 738.507 295.32C739.472 295.362 740.38 295.783 741.035 296.493C741.689 297.202 742.037 298.142 742 299.107Z" fill="#41474E"/>
<path d="M680.56 262.473C680.533 263.196 680.292 263.895 679.867 264.481C679.443 265.066 678.854 265.513 678.175 265.764C677.497 266.014 676.759 266.058 676.055 265.889C675.352 265.72 674.715 265.346 674.224 264.814C673.733 264.282 673.412 263.617 673.3 262.902C673.188 262.187 673.291 261.455 673.595 260.799C673.9 260.143 674.392 259.592 675.01 259.216C675.628 258.84 676.344 258.655 677.067 258.687C678.031 258.728 678.94 259.15 679.594 259.859C680.249 260.569 680.596 261.509 680.56 262.473Z" fill="#41474E"/>
<path d="M655.173 289.587C655.145 290.308 654.903 291.004 654.479 291.588C654.055 292.171 653.467 292.616 652.79 292.865C652.113 293.115 651.377 293.158 650.676 292.989C649.974 292.82 649.338 292.447 648.849 291.916C648.36 291.386 648.039 290.722 647.927 290.009C647.815 289.297 647.917 288.567 648.22 287.912C648.523 287.257 649.014 286.707 649.63 286.331C650.245 285.955 650.959 285.77 651.68 285.8C652.645 285.84 653.555 286.261 654.21 286.971C654.865 287.681 655.211 288.622 655.173 289.587Z" fill="#41474E"/>
<path d="M611.333 323.627C611.304 324.347 611.061 325.043 610.636 325.626C610.211 326.209 609.623 326.652 608.945 326.901C608.268 327.149 607.533 327.191 606.832 327.021C606.131 326.852 605.496 326.478 605.007 325.947C604.519 325.417 604.198 324.753 604.087 324.041C603.975 323.328 604.078 322.598 604.381 321.944C604.684 321.289 605.175 320.74 605.79 320.364C606.406 319.988 607.119 319.804 607.84 319.833C608.319 319.852 608.789 319.965 609.224 320.166C609.659 320.367 610.05 320.652 610.374 321.005C610.699 321.357 610.95 321.77 611.115 322.22C611.28 322.67 611.354 323.148 611.333 323.627Z" fill="#41474E"/>
<path d="M772.48 588.613C772.453 589.336 772.212 590.035 771.787 590.621C771.363 591.206 770.774 591.653 770.095 591.904C769.416 592.154 768.679 592.198 767.975 592.029C767.272 591.86 766.634 591.486 766.144 590.954C765.653 590.422 765.332 589.757 765.22 589.042C765.108 588.327 765.211 587.595 765.515 586.939C765.82 586.283 766.312 585.732 766.93 585.356C767.548 584.98 768.264 584.795 768.987 584.827C769.951 584.868 770.86 585.29 771.514 585.999C772.169 586.709 772.516 587.649 772.48 588.613Z" fill="#41474E"/>
<path d="M838.247 559C838.22 559.723 837.978 560.422 837.554 561.007C837.129 561.593 836.54 562.04 835.862 562.29C835.183 562.541 834.445 562.584 833.742 562.415C833.038 562.246 832.401 561.872 831.911 561.34C831.42 560.809 831.098 560.143 830.986 559.429C830.874 558.714 830.977 557.982 831.282 557.326C831.586 556.67 832.079 556.118 832.697 555.742C833.315 555.366 834.03 555.182 834.753 555.213C835.718 555.255 836.626 555.677 837.281 556.386C837.936 557.096 838.283 558.035 838.247 559Z" fill="#41474E"/>
<path d="M802.86 669.38C802.831 670.101 802.59 670.797 802.166 671.381C801.741 671.965 801.154 672.409 800.476 672.659C799.799 672.908 799.064 672.951 798.362 672.782C797.661 672.613 797.025 672.24 796.536 671.71C796.046 671.179 795.726 670.516 795.614 669.803C795.502 669.09 795.604 668.36 795.907 667.705C796.21 667.05 796.7 666.5 797.316 666.124C797.932 665.748 798.646 665.564 799.367 665.593C800.332 665.633 801.241 666.054 801.896 666.764C802.551 667.474 802.898 668.415 802.86 669.38Z" fill="#41474E"/>
<path d="M649.406 552.08C649.378 552.803 649.136 553.501 648.71 554.085C648.285 554.67 647.696 555.116 647.017 555.365C646.338 555.615 645.601 555.658 644.898 555.488C644.195 555.318 643.558 554.943 643.068 554.411C642.579 553.88 642.258 553.214 642.146 552.5C642.035 551.785 642.138 551.054 642.442 550.398C642.747 549.742 643.239 549.191 643.857 548.815C644.475 548.44 645.191 548.256 645.913 548.287C646.879 548.328 647.788 548.751 648.443 549.462C649.098 550.173 649.444 551.114 649.406 552.08Z" fill="#41474E"/>
<path d="M534.793 528.233C534.764 528.954 534.521 529.65 534.096 530.232C533.671 530.815 533.083 531.259 532.405 531.507C531.728 531.756 530.993 531.798 530.292 531.628C529.591 531.458 528.956 531.084 528.467 530.554C527.979 530.023 527.658 529.36 527.547 528.647C527.435 527.935 527.538 527.205 527.841 526.551C528.144 525.896 528.635 525.346 529.25 524.971C529.866 524.595 530.579 524.41 531.3 524.44C532.266 524.48 533.177 524.902 533.832 525.613C534.487 526.325 534.833 527.267 534.793 528.233Z" fill="#41474E"/>
<path d="M576.713 610.54C576.685 611.263 576.442 611.961 576.017 612.545C575.592 613.13 575.002 613.576 574.324 613.825C573.645 614.075 572.908 614.118 572.205 613.948C571.502 613.778 570.865 613.403 570.375 612.871C569.885 612.34 569.564 611.674 569.453 610.96C569.341 610.245 569.444 609.514 569.749 608.858C570.054 608.202 570.546 607.651 571.164 607.275C571.782 606.9 572.497 606.716 573.22 606.747C574.186 606.787 575.097 607.209 575.752 607.92C576.407 608.631 576.753 609.574 576.713 610.54Z" fill="#41474E"/>
<path d="M421.72 616.667C421.69 617.387 421.448 618.083 421.023 618.666C420.598 619.248 420.009 619.692 419.332 619.941C418.655 620.189 417.919 620.231 417.218 620.061C416.517 619.892 415.882 619.518 415.394 618.987C414.905 618.457 414.585 617.793 414.474 617.081C414.362 616.368 414.464 615.638 414.768 614.984C415.071 614.329 415.561 613.78 416.177 613.404C416.793 613.028 417.506 612.844 418.227 612.873C419.193 612.913 420.104 613.335 420.759 614.047C421.414 614.758 421.76 615.7 421.72 616.667Z" fill="#41474E"/>
<path d="M449.414 673.227C449.386 673.95 449.145 674.648 448.721 675.234C448.296 675.82 447.707 676.266 447.029 676.517C446.35 676.768 445.612 676.811 444.909 676.642C444.205 676.473 443.568 676.099 443.078 675.567C442.587 675.035 442.265 674.37 442.153 673.655C442.041 672.941 442.144 672.209 442.449 671.552C442.753 670.896 443.246 670.345 443.864 669.969C444.482 669.593 445.197 669.409 445.92 669.44C446.885 669.48 447.795 669.901 448.45 670.611C449.105 671.321 449.451 672.262 449.414 673.227Z" fill="#41474E"/>
<path d="M377.874 660.533C377.845 661.255 377.603 661.951 377.179 662.535C376.754 663.119 376.166 663.563 375.488 663.813C374.811 664.062 374.075 664.104 373.373 663.935C372.671 663.765 372.036 663.391 371.547 662.86C371.058 662.329 370.738 661.665 370.627 660.952C370.515 660.238 370.618 659.508 370.922 658.854C371.227 658.199 371.718 657.649 372.335 657.274C372.952 656.899 373.666 656.716 374.387 656.747C375.351 656.788 376.259 657.21 376.912 657.92C377.566 658.63 377.911 659.569 377.874 660.533Z" fill="#41474E"/>
<path d="M379.414 605.153C379.385 605.874 379.144 606.571 378.719 607.154C378.295 607.738 377.707 608.183 377.03 608.432C376.353 608.682 375.617 608.724 374.916 608.555C374.214 608.386 373.579 608.013 373.089 607.483C372.6 606.953 372.279 606.289 372.167 605.576C372.055 604.863 372.157 604.133 372.46 603.479C372.763 602.824 373.254 602.274 373.87 601.898C374.486 601.522 375.199 601.337 375.92 601.367C376.398 601.386 376.868 601.499 377.303 601.699C377.737 601.9 378.128 602.184 378.452 602.536C378.777 602.887 379.028 603.3 379.193 603.749C379.358 604.198 379.433 604.675 379.414 605.153Z" fill="#41474E"/>
<path d="M454.413 559.387C454.384 560.107 454.141 560.803 453.716 561.386C453.291 561.968 452.703 562.412 452.026 562.66C451.348 562.909 450.613 562.951 449.912 562.781C449.211 562.612 448.576 562.238 448.087 561.707C447.599 561.177 447.278 560.513 447.167 559.801C447.055 559.088 447.158 558.358 447.461 557.704C447.764 557.049 448.255 556.5 448.87 556.124C449.486 555.748 450.199 555.564 450.92 555.593C451.886 555.635 452.795 556.057 453.45 556.768C454.105 557.479 454.451 558.421 454.413 559.387Z" fill="#41474E"/>
<path d="M353.647 578.613C353.619 579.334 353.377 580.031 352.953 580.614C352.529 581.198 351.941 581.643 351.264 581.892C350.587 582.142 349.851 582.184 349.149 582.015C348.448 581.847 347.812 581.473 347.323 580.943C346.834 580.413 346.513 579.749 346.401 579.036C346.289 578.323 346.391 577.593 346.694 576.939C346.997 576.284 347.487 575.734 348.103 575.358C348.719 574.982 349.433 574.797 350.154 574.827C351.118 574.868 352.027 575.29 352.681 575.999C353.336 576.709 353.683 577.649 353.647 578.613Z" fill="#41474E"/>
<path d="M317.107 634.767C317.079 635.488 316.837 636.184 316.413 636.768C315.989 637.351 315.401 637.796 314.724 638.045C314.047 638.295 313.311 638.338 312.609 638.169C311.908 638 311.272 637.627 310.783 637.096C310.294 636.566 309.973 635.902 309.861 635.189C309.749 634.477 309.851 633.747 310.154 633.092C310.457 632.437 310.947 631.887 311.563 631.511C312.179 631.135 312.893 630.95 313.614 630.98C314.092 630.999 314.561 631.112 314.996 631.312C315.43 631.513 315.821 631.797 316.145 632.149C316.47 632.501 316.722 632.913 316.887 633.362C317.052 633.811 317.127 634.289 317.107 634.767Z" fill="#41474E"/>
<path d="M331.554 643.64C331.525 644.363 331.283 645.06 330.858 645.645C330.433 646.23 329.843 646.676 329.165 646.925C328.486 647.175 327.748 647.218 327.045 647.048C326.343 646.878 325.706 646.503 325.216 645.971C324.726 645.44 324.405 644.774 324.294 644.06C324.182 643.345 324.285 642.614 324.59 641.958C324.895 641.302 325.387 640.751 326.005 640.375C326.623 640 327.338 639.816 328.061 639.847C329.027 639.886 329.938 640.308 330.593 641.02C331.248 641.731 331.594 642.674 331.554 643.64Z" fill="#41474E"/>
<path d="M296.94 622.727C296.91 623.447 296.667 624.143 296.242 624.726C295.817 625.308 295.229 625.752 294.552 626C293.875 626.249 293.139 626.291 292.438 626.121C291.737 625.952 291.102 625.578 290.614 625.047C290.125 624.517 289.805 623.853 289.693 623.141C289.582 622.428 289.684 621.698 289.987 621.044C290.291 620.389 290.781 619.84 291.397 619.464C292.012 619.088 292.726 618.904 293.446 618.933C293.925 618.952 294.395 619.065 294.83 619.266C295.265 619.467 295.656 619.752 295.981 620.105C296.305 620.457 296.557 620.87 296.722 621.32C296.886 621.77 296.96 622.248 296.94 622.727Z" fill="#41474E"/>
<path d="M287.854 650.78C287.825 651.503 287.583 652.201 287.158 652.785C286.732 653.37 286.143 653.816 285.464 654.065C284.786 654.315 284.048 654.358 283.345 654.188C282.642 654.018 282.006 653.643 281.516 653.111C281.026 652.58 280.705 651.914 280.593 651.2C280.482 650.485 280.585 649.754 280.89 649.098C281.194 648.442 281.687 647.891 282.305 647.515C282.922 647.14 283.638 646.956 284.36 646.987C285.327 647.027 286.237 647.449 286.893 648.16C287.548 648.871 287.893 649.814 287.854 650.78Z" fill="#41474E"/>
<path d="M158.486 707.893C158.458 708.616 158.216 709.314 157.791 709.899C157.365 710.484 156.776 710.929 156.097 711.179C155.419 711.428 154.681 711.471 153.978 711.301C153.275 711.131 152.638 710.757 152.149 710.225C151.659 709.693 151.338 709.027 151.226 708.313C151.115 707.598 151.218 706.867 151.523 706.211C151.827 705.555 152.32 705.004 152.937 704.629C153.555 704.253 154.271 704.069 154.993 704.1C155.959 704.142 156.869 704.564 157.523 705.275C158.178 705.986 158.524 706.928 158.486 707.893Z" fill="#41474E"/>
<path d="M154.593 663.033C154.566 663.756 154.325 664.455 153.9 665.041C153.476 665.626 152.887 666.073 152.208 666.324C151.53 666.574 150.792 666.618 150.089 666.449C149.385 666.28 148.748 665.906 148.257 665.374C147.767 664.842 147.445 664.177 147.333 663.462C147.221 662.747 147.324 662.015 147.628 661.359C147.933 660.703 148.425 660.152 149.043 659.776C149.661 659.4 150.377 659.216 151.1 659.247C152.065 659.287 152.975 659.708 153.63 660.418C154.285 661.128 154.631 662.068 154.593 663.033Z" fill="#41474E"/>
<path d="M232.473 550.393C232.445 551.114 232.203 551.811 231.779 552.394C231.355 552.978 230.767 553.423 230.09 553.672C229.413 553.922 228.677 553.964 227.975 553.796C227.274 553.627 226.638 553.253 226.149 552.723C225.66 552.193 225.339 551.529 225.227 550.816C225.115 550.103 225.217 549.373 225.52 548.719C225.823 548.064 226.314 547.514 226.929 547.138C227.545 546.762 228.259 546.577 228.98 546.607C229.944 546.648 230.853 547.07 231.508 547.779C232.162 548.489 232.509 549.429 232.473 550.393Z" fill="#41474E"/>
<path d="M302.854 691.16C302.824 691.881 302.581 692.576 302.156 693.159C301.731 693.742 301.143 694.185 300.466 694.434C299.789 694.682 299.053 694.724 298.352 694.555C297.651 694.385 297.016 694.011 296.528 693.481C296.039 692.95 295.719 692.287 295.607 691.574C295.496 690.861 295.598 690.132 295.901 689.477C296.205 688.823 296.695 688.273 297.311 687.897C297.926 687.522 298.64 687.337 299.36 687.367C299.839 687.386 300.309 687.499 300.744 687.7C301.179 687.901 301.57 688.186 301.895 688.538C302.219 688.89 302.471 689.304 302.636 689.753C302.8 690.203 302.874 690.681 302.854 691.16Z" fill="#41474E"/>
<path d="M282.374 724.907C282.345 725.628 282.104 726.324 281.679 726.908C281.255 727.491 280.667 727.936 279.99 728.185C279.313 728.435 278.577 728.478 277.876 728.309C277.174 728.14 276.539 727.767 276.049 727.236C275.56 726.706 275.239 726.042 275.127 725.33C275.015 724.617 275.117 723.887 275.42 723.232C275.723 722.577 276.214 722.027 276.83 721.651C277.446 721.275 278.159 721.09 278.88 721.12C279.358 721.139 279.828 721.252 280.262 721.452C280.697 721.653 281.088 721.937 281.412 722.289C281.736 722.641 281.988 723.053 282.153 723.502C282.318 723.951 282.393 724.429 282.374 724.907Z" fill="#41474E"/>
<path d="M269.387 613.7L321.213 552.493" stroke="#231F20" stroke-width="1.24" stroke-miterlimit="10"/>
<path d="M157.14 461.727C156.759 463.212 155.947 464.552 154.805 465.576C153.664 466.6 152.244 467.262 150.726 467.479C149.208 467.696 147.659 467.458 146.277 466.795C144.894 466.133 143.739 465.074 142.957 463.755C142.176 462.435 141.803 460.914 141.886 459.382C141.97 457.851 142.505 456.379 143.426 455.152C144.346 453.925 145.609 452.999 147.056 452.49C148.502 451.981 150.067 451.913 151.553 452.293C153.544 452.805 155.25 454.086 156.297 455.855C157.345 457.623 157.647 459.735 157.14 461.727Z" fill="#F94BA7"/>
<path d="M525 210.82C524.62 212.306 523.807 213.645 522.666 214.669C521.524 215.693 520.104 216.356 518.586 216.573C517.068 216.79 515.52 216.552 514.137 215.889C512.754 215.226 511.599 214.168 510.818 212.848C510.036 211.529 509.663 210.007 509.747 208.476C509.83 206.945 510.366 205.472 511.286 204.246C512.206 203.019 513.469 202.092 514.916 201.583C516.363 201.074 517.928 201.006 519.413 201.387C521.404 201.899 523.11 203.179 524.158 204.948C525.205 206.716 525.508 208.828 525 210.82Z" fill="#C072CE"/>
<path d="M196.553 793.033C196.171 794.516 195.357 795.852 194.216 796.873C193.075 797.894 191.656 798.554 190.14 798.769C188.624 798.985 187.078 798.746 185.698 798.083C184.318 797.42 183.165 796.363 182.385 795.045C181.605 793.727 181.233 792.208 181.316 790.679C181.399 789.15 181.934 787.68 182.852 786.454C183.77 785.229 185.031 784.303 186.475 783.794C187.92 783.285 189.482 783.215 190.966 783.593C192.958 784.105 194.666 785.387 195.713 787.157C196.761 788.927 197.063 791.041 196.553 793.033Z" fill="#F94BA7"/>
<path d="M824.28 438.28C823.898 439.764 823.085 441.101 821.944 442.123C820.803 443.144 819.384 443.805 817.868 444.02C816.351 444.236 814.804 443.997 813.423 443.334C812.043 442.671 810.889 441.613 810.109 440.295C809.33 438.976 808.958 437.456 809.042 435.927C809.126 434.397 809.661 432.927 810.581 431.702C811.5 430.476 812.762 429.551 814.207 429.043C815.652 428.535 817.216 428.466 818.7 428.847C819.686 429.099 820.612 429.544 821.426 430.155C822.241 430.766 822.926 431.531 823.445 432.407C823.963 433.283 824.303 434.253 824.446 435.26C824.59 436.268 824.533 437.294 824.28 438.28Z" fill="#F94BA7"/>
<path d="M640.96 616.58C640.579 618.064 639.766 619.401 638.625 620.423C637.483 621.444 636.065 622.105 634.548 622.32C633.032 622.536 631.485 622.297 630.104 621.634C628.723 620.971 627.57 619.913 626.79 618.595C626.01 617.276 625.639 615.756 625.723 614.227C625.806 612.697 626.342 611.227 627.261 610.002C628.181 608.776 629.443 607.851 630.888 607.343C632.333 606.835 633.896 606.766 635.38 607.147C636.366 607.399 637.293 607.844 638.107 608.455C638.921 609.066 639.607 609.831 640.125 610.707C640.643 611.583 640.984 612.553 641.127 613.56C641.27 614.568 641.214 615.594 640.96 616.58Z" fill="#C072CE"/>
<path d="M857.88 309.667C857.498 311.15 856.686 312.487 855.545 313.509C854.404 314.531 852.986 315.192 851.47 315.408C849.954 315.624 848.407 315.386 847.026 314.724C845.645 314.062 844.492 313.005 843.711 311.687C842.931 310.369 842.558 308.849 842.641 307.32C842.724 305.79 843.259 304.32 844.177 303.094C845.096 301.868 846.357 300.942 847.801 300.433C849.246 299.924 850.809 299.854 852.293 300.233C853.28 300.485 854.207 300.929 855.022 301.54C855.837 302.15 856.523 302.916 857.042 303.792C857.561 304.668 857.902 305.638 858.046 306.646C858.189 307.654 858.133 308.68 857.88 309.667Z" fill="#C072CE"/>
<path d="M495.167 787.767C494.463 790.519 492.959 793 490.844 794.897C488.73 796.795 486.1 798.022 483.288 798.424C480.476 798.826 477.607 798.385 475.046 797.157C472.484 795.929 470.345 793.968 468.897 791.524C467.45 789.079 466.761 786.26 466.916 783.424C467.071 780.587 468.064 777.861 469.77 775.589C471.475 773.317 473.816 771.601 476.496 770.66C479.176 769.719 482.075 769.593 484.827 770.3C488.514 771.245 491.675 773.616 493.614 776.892C495.553 780.168 496.112 784.079 495.167 787.767Z" fill="#F94BA7"/>
</svg>
