<svg width="1000" height="1000" viewBox="0 0 1000 1000" fill="none" xmlns="http://www.w3.org/2000/svg">
<path d="M470.993 635.187L492.513 676.287" stroke="#41474E" stroke-width="1.58" stroke-miterlimit="10"/>
<path d="M802.6 711.173L779.82 746.647L649.58 737.327L544.7 679.22L492.513 676.287L449.453 672.773L470.993 635.187L570.833 608.087L633.253 629.313L655.227 650.86L721.146 684.28L801.707 711.26L776.94 741.513L648.74 731.14L599.46 699.14L543.94 666.14L470.993 635.187" stroke="#41474E" stroke-width="1.58" stroke-miterlimit="10"/>
<path d="M441.833 760.42L450.873 799.053L510.06 824.98L520.426 809.173L489.173 762.987L489.853 751.767" stroke="#41474E" stroke-width="1.58" stroke-miterlimit="10"/>
<path d="M587.173 702.753L554.18 723.44L489.853 751.767L441.833 760.42L390.74 769.173L372.433 777.233L186.393 746.12L125.773 740.34L90.4932 724.02L100.34 695.34L202.586 645.327L262.486 623.953L334.726 590.9L392.553 564.82L447.68 546.787L560.466 512.513L631.34 444.767L702.053 432.407L748.593 361.4L774.96 279.02L786.146 211.88L801.166 296.293L796.42 391.313L718.893 544.687L644.006 639.853" stroke="#41474E" stroke-width="1.58" stroke-miterlimit="10"/>
<path d="M800.926 294.927L883.646 250.233L908.866 203.353L835.666 233.287L818.046 230.127L786.32 207.66L753.72 184.167L774.426 280.673L800.926 294.927Z" stroke="#41474E" stroke-width="1.58" stroke-miterlimit="10"/>
<path d="M878.18 215.507L907.506 178.987L908.866 203.353" stroke="#41474E" stroke-width="1.58" stroke-miterlimit="10"/>
<path d="M90.4932 724.02L117.82 711.76L256.28 705.92L392.433 691.147L449.453 672.773" stroke="#41474E" stroke-width="1.58" stroke-miterlimit="10"/>
<path d="M543.939 666.14L544.7 679.22" stroke="#41474E" stroke-width="0.97" stroke-miterlimit="10"/>
<path d="M648.74 731.14L649.58 737.327" stroke="#41474E" stroke-width="0.97" stroke-miterlimit="10"/>
<path d="M786.32 207.66L761.74 221.56" stroke="#41474E" stroke-width="0.97" stroke-miterlimit="10"/>
<path d="M818.047 230.127L800.927 294.927" stroke="#41474E" stroke-width="0.97" stroke-miterlimit="10"/>
<path d="M835.667 233.287L883.647 250.233" stroke="#41474E" stroke-width="0.97" stroke-miterlimit="10"/>
<path d="M748.594 361.4L718.894 544.687" stroke="#41474E" stroke-width="0.97" stroke-miterlimit="10"/>
<path d="M748.594 361.4L796.42 391.313" stroke="#41474E" stroke-width="0.97" stroke-miterlimit="10"/>
<path d="M702.053 432.407L720.246 536.38" stroke="#41474E" stroke-width="0.97" stroke-miterlimit="10"/>
<path d="M631.34 444.767L720.247 536.38" stroke="#41474E" stroke-width="0.97" stroke-miterlimit="10"/>
<path d="M560.467 512.513L633.254 629.313" stroke="#41474E" stroke-width="0.97" stroke-miterlimit="10"/>
<path d="M560.467 512.513L702.053 432.407" stroke="#41474E" stroke-width="0.97" stroke-miterlimit="10"/>
<path d="M702.053 432.407L796.419 391.313" stroke="#41474E" stroke-width="0.97" stroke-miterlimit="10"/>
<path d="M796.42 391.313L774.427 280.673" stroke="#41474E" stroke-width="0.97" stroke-miterlimit="10"/>
<path d="M800.927 294.927L748.594 361.4" stroke="#41474E" stroke-width="0.97" stroke-miterlimit="10"/>
<path d="M450.873 799.053L489.173 762.987" stroke="#41474E" stroke-width="0.97" stroke-miterlimit="10"/>
<path d="M490.533 816.427L507.667 790.327" stroke="#41474E" stroke-width="0.97" stroke-miterlimit="10"/>
<path d="M510.06 824.98L507.667 790.327" stroke="#41474E" stroke-width="0.97" stroke-miterlimit="10"/>
<path d="M507.666 790.327L450.873 799.053" stroke="#41474E" stroke-width="0.97" stroke-miterlimit="10"/>
<path d="M489.174 762.987L490.534 816.427" stroke="#41474E" stroke-width="0.97" stroke-miterlimit="10"/>
<path d="M489.173 762.987L441.833 760.413" stroke="#41474E" stroke-width="0.97" stroke-miterlimit="10"/>
<path d="M543.939 666.14L570.833 608.087" stroke="#41474E" stroke-width="0.97" stroke-miterlimit="10"/>
<path d="M543.939 666.14L633.253 629.313" stroke="#41474E" stroke-width="0.97" stroke-miterlimit="10"/>
<path d="M644.006 639.853L543.939 666.14" stroke="#41474E" stroke-width="0.97" stroke-miterlimit="10"/>
<path d="M648.74 731.14L721.147 684.28" stroke="#41474E" stroke-width="0.97" stroke-miterlimit="10"/>
<path d="M655.226 650.86L585.633 690.913" stroke="#41474E" stroke-width="0.97" stroke-miterlimit="10"/>
<path d="M730.153 737.733L754.887 695.58" stroke="#41474E" stroke-width="0.97" stroke-miterlimit="10"/>
<path d="M776.94 741.513L754.887 695.58" stroke="#41474E" stroke-width="0.97" stroke-miterlimit="10"/>
<path d="M754.886 695.58L650.52 730.433" stroke="#41474E" stroke-width="0.97" stroke-miterlimit="10"/>
<path d="M650.52 730.433L655.226 650.86" stroke="#41474E" stroke-width="0.97" stroke-miterlimit="10"/>
<path d="M633.253 629.313L585.633 690.913" stroke="#41474E" stroke-width="0.97" stroke-miterlimit="10"/>
<path d="M585.633 690.913L721.146 684.28" stroke="#41474E" stroke-width="0.97" stroke-miterlimit="10"/>
<path d="M721.146 684.28L730.153 737.733" stroke="#41474E" stroke-width="0.97" stroke-miterlimit="10"/>
<path d="M470.994 635.187L392.434 691.147" stroke="#41474E" stroke-width="0.97" stroke-miterlimit="10"/>
<path d="M100.34 695.34L117.82 711.76" stroke="#41474E" stroke-width="0.97" stroke-miterlimit="10"/>
<path d="M570.833 608.087L560.467 512.513" stroke="#41474E" stroke-width="0.97" stroke-miterlimit="10"/>
<path d="M392.434 691.147L402.38 677.847L560.467 512.513" stroke="#41474E" stroke-width="0.97" stroke-miterlimit="10"/>
<path d="M117.82 711.76L279.214 680.013" stroke="#41474E" stroke-width="0.97" stroke-miterlimit="10"/>
<path d="M279.213 680.013L397.96 649.753" stroke="#41474E" stroke-width="0.97" stroke-miterlimit="10"/>
<path d="M397.96 649.753L470.993 635.187" stroke="#41474E" stroke-width="0.97" stroke-miterlimit="10"/>
<path d="M279.213 680.013L376.533 688.24L392.433 691.147" stroke="#41474E" stroke-width="0.97" stroke-miterlimit="10"/>
<path d="M279.214 680.013L256.28 705.92" stroke="#41474E" stroke-width="0.97" stroke-miterlimit="10"/>
<path d="M449.454 672.773L433.28 738.847" stroke="#41474E" stroke-width="0.97" stroke-miterlimit="10"/>
<path d="M433.28 738.847L441.834 760.413" stroke="#41474E" stroke-width="0.97" stroke-miterlimit="10"/>
<path d="M633.253 629.313L720.246 536.38" stroke="#41474E" stroke-width="0.97" stroke-miterlimit="10"/>
<path d="M90.4932 724.02L256.28 705.92" stroke="#41474E" stroke-width="0.97" stroke-miterlimit="10"/>
<path d="M117.82 711.76L253.887 657.82" stroke="#41474E" stroke-width="0.97" stroke-miterlimit="10"/>
<path d="M253.887 657.82L476.447 601.827" stroke="#41474E" stroke-width="0.97" stroke-miterlimit="10"/>
<path d="M476.446 601.827L570.833 608.087" stroke="#41474E" stroke-width="0.97" stroke-miterlimit="10"/>
<path d="M202.587 645.327L253.887 657.82" stroke="#41474E" stroke-width="0.97" stroke-miterlimit="10"/>
<path d="M253.887 657.82L262.487 623.953" stroke="#41474E" stroke-width="0.97" stroke-miterlimit="10"/>
<path d="M392.554 564.82L476.447 601.827" stroke="#41474E" stroke-width="0.97" stroke-miterlimit="10"/>
<path d="M392.553 564.82L253.887 657.82" stroke="#41474E" stroke-width="0.97" stroke-miterlimit="10"/>
<path d="M262.486 623.953L476.446 601.827" stroke="#41474E" stroke-width="0.97" stroke-miterlimit="10"/>
<path d="M253.887 657.82L279.213 680.013" stroke="#41474E" stroke-width="0.97" stroke-miterlimit="10"/>
<path d="M476.446 601.827L566.293 566.213" stroke="#41474E" stroke-width="0.97" stroke-miterlimit="10"/>
<path d="M566.293 566.213L595.893 568.48" stroke="#41474E" stroke-width="0.97" stroke-miterlimit="10"/>
<path d="M595.894 568.48L702.053 432.407" stroke="#41474E" stroke-width="0.97" stroke-miterlimit="10"/>
<path d="M186.394 746.12L390.74 769.173" stroke="#41474E" stroke-width="0.97" stroke-miterlimit="10"/>
<path d="M390.74 769.173L574.08 695.5" stroke="#41474E" stroke-width="0.97" stroke-miterlimit="10"/>
<path d="M125.773 740.34L378.533 738.4" stroke="#41474E" stroke-width="0.97" stroke-miterlimit="10"/>
<path d="M378.533 738.4L433.28 738.847" stroke="#41474E" stroke-width="0.97" stroke-miterlimit="10"/>
<path d="M433.28 738.847L544.7 679.22" stroke="#41474E" stroke-width="0.97" stroke-miterlimit="10"/>
<path d="M90.4932 724.02L433.28 738.847" stroke="#41474E" stroke-width="0.97" stroke-miterlimit="10"/>
<path d="M433.28 738.847L492.514 676.287" stroke="#41474E" stroke-width="0.97" stroke-miterlimit="10"/>
<path d="M493.513 675.887L441.22 705.433" stroke="#41474E" stroke-width="0.97" stroke-miterlimit="10"/>
<path d="M441.22 705.433L364.706 715.98L90.4932 724.02" stroke="#41474E" stroke-width="0.97" stroke-miterlimit="10"/>
<path d="M570.833 608.087L595.893 568.48" stroke="#41474E" stroke-width="0.97" stroke-miterlimit="10"/>
<path d="M595.894 568.48L720.247 536.38" stroke="#41474E" stroke-width="0.97" stroke-miterlimit="10"/>
<path d="M585.633 690.913L587.179 702.753" stroke="#41474E" stroke-width="0.97" stroke-miterlimit="10"/>
<path d="M730.153 737.733L730.607 743.127" stroke="#41474E" stroke-width="0.97" stroke-miterlimit="10"/>
<path d="M776.94 741.513L779.82 746.647" stroke="#41474E" stroke-width="0.97" stroke-miterlimit="10"/>
<path d="M554.18 723.44L574.08 695.5" stroke="#41474E" stroke-width="0.97" stroke-miterlimit="10"/>
<path d="M441.22 705.433L392.434 691.147" stroke="#41474E" stroke-width="0.97" stroke-miterlimit="10"/>
<path d="M392.434 691.147L381.034 703.287L364.707 715.98" stroke="#41474E" stroke-width="0.97" stroke-miterlimit="10"/>
<path d="M256.28 705.92L364.707 715.98" stroke="#41474E" stroke-width="0.97" stroke-miterlimit="10"/>
<path d="M256.28 705.92L397.96 649.753" stroke="#41474E" stroke-width="0.97" stroke-miterlimit="10"/>
<path d="M376.533 688.24L381.033 703.287" stroke="#41474E" stroke-width="0.97" stroke-miterlimit="10"/>
<path d="M397.96 649.753L402.373 677.847" stroke="#41474E" stroke-width="0.97" stroke-miterlimit="10"/>
<path d="M381.033 703.287L449.453 672.773" stroke="#41474E" stroke-width="0.97" stroke-miterlimit="10"/>
<path d="M402.373 677.847L449.453 672.773" stroke="#41474E" stroke-width="0.97" stroke-miterlimit="10"/>
<path d="M402.373 677.847L315.633 683.093" stroke="#41474E" stroke-width="0.97" stroke-miterlimit="10"/>
<path d="M376.533 688.24L397.96 649.753" stroke="#41474E" stroke-width="0.97" stroke-miterlimit="10"/>
<path d="M125.773 740.34L437.807 750.26" stroke="#41474E" stroke-width="0.97" stroke-miterlimit="10"/>
<path d="M806.78 711.88C806.752 712.673 806.489 713.441 806.024 714.084C805.559 714.728 804.913 715.218 804.169 715.494C803.424 715.769 802.614 715.816 801.842 715.629C801.071 715.443 800.372 715.031 799.835 714.446C799.298 713.861 798.948 713.13 798.828 712.345C798.708 711.56 798.825 710.757 799.163 710.039C799.501 709.32 800.045 708.719 800.726 708.311C801.407 707.902 802.194 707.706 802.986 707.747C804.035 707.8 805.02 708.264 805.729 709.037C806.439 709.81 806.816 710.831 806.78 711.88Z" fill="#41474E"/>
<path d="M723.54 685.073C723.512 685.866 723.248 686.633 722.782 687.275C722.317 687.918 721.671 688.407 720.927 688.682C720.182 688.956 719.373 689.003 718.602 688.816C717.831 688.63 717.133 688.218 716.596 687.633C716.06 687.049 715.709 686.318 715.589 685.534C715.469 684.75 715.585 683.947 715.922 683.229C716.259 682.511 716.802 681.909 717.482 681.5C718.162 681.092 718.948 680.894 719.74 680.933C720.791 680.985 721.779 681.449 722.49 682.224C723.201 682.998 723.578 684.022 723.54 685.073Z" fill="#41474E"/>
<path d="M783.78 746.813C783.752 747.607 783.49 748.374 783.025 749.017C782.56 749.66 781.915 750.151 781.17 750.427C780.426 750.702 779.617 750.75 778.845 750.564C778.074 750.378 777.375 749.967 776.838 749.382C776.3 748.798 775.949 748.067 775.829 747.283C775.708 746.498 775.824 745.696 776.161 744.977C776.497 744.259 777.041 743.656 777.721 743.247C778.401 742.838 779.187 742.641 779.98 742.68C781.029 742.732 782.016 743.195 782.727 743.968C783.438 744.741 783.816 745.763 783.78 746.813Z" fill="#41474E"/>
<path d="M652.78 735.553C652.752 736.346 652.49 737.114 652.025 737.757C651.56 738.4 650.915 738.891 650.17 739.166C649.426 739.442 648.617 739.49 647.845 739.304C647.074 739.118 646.375 738.707 645.838 738.122C645.3 737.538 644.949 736.807 644.829 736.023C644.708 735.238 644.824 734.436 645.161 733.717C645.497 732.999 646.04 732.396 646.721 731.987C647.401 731.578 648.187 731.381 648.98 731.42C649.501 731.441 650.013 731.565 650.486 731.785C650.959 732.004 651.384 732.315 651.737 732.699C652.09 733.083 652.364 733.532 652.543 734.022C652.722 734.512 652.802 735.032 652.78 735.553Z" fill="#41474E"/>
<path d="M548.666 679.393C548.638 680.186 548.374 680.953 547.908 681.595C547.443 682.238 546.797 682.727 546.053 683.002C545.308 683.276 544.499 683.323 543.728 683.136C542.957 682.949 542.259 682.538 541.722 681.953C541.186 681.369 540.835 680.638 540.715 679.854C540.595 679.07 540.711 678.267 541.048 677.549C541.385 676.831 541.928 676.229 542.608 675.82C543.288 675.412 544.074 675.214 544.866 675.253C545.917 675.305 546.905 675.769 547.616 676.544C548.327 677.318 548.704 678.342 548.666 679.393Z" fill="#41474E"/>
<path d="M591.16 702.96C591.134 703.753 590.873 704.521 590.409 705.165C589.945 705.809 589.301 706.301 588.557 706.578C587.813 706.855 587.003 706.904 586.232 706.719C585.46 706.534 584.76 706.124 584.222 705.541C583.684 704.958 583.331 704.227 583.21 703.443C583.088 702.659 583.202 701.856 583.538 701.137C583.873 700.418 584.415 699.815 585.095 699.404C585.774 698.994 586.561 698.795 587.353 698.833C588.403 698.884 589.39 699.344 590.102 700.117C590.815 700.889 591.194 701.91 591.16 702.96Z" fill="#41474E"/>
<path d="M494.22 677.333C494.193 678.127 493.93 678.894 493.465 679.537C493.001 680.18 492.355 680.671 491.611 680.946C490.867 681.222 490.057 681.27 489.286 681.084C488.514 680.898 487.815 680.487 487.278 679.902C486.741 679.318 486.39 678.587 486.269 677.803C486.149 677.018 486.264 676.216 486.601 675.497C486.938 674.779 487.481 674.176 488.161 673.767C488.841 673.358 489.628 673.161 490.42 673.2C491.47 673.252 492.456 673.715 493.167 674.488C493.878 675.261 494.257 676.283 494.22 677.333Z" fill="#41474E"/>
<path d="M453.18 673.213C453.153 674.007 452.89 674.774 452.425 675.417C451.961 676.06 451.315 676.551 450.571 676.827C449.827 677.102 449.017 677.15 448.245 676.964C447.474 676.778 446.775 676.367 446.238 675.782C445.701 675.198 445.35 674.467 445.229 673.683C445.108 672.898 445.224 672.096 445.561 671.377C445.898 670.659 446.441 670.056 447.121 669.647C447.801 669.238 448.588 669.041 449.38 669.08C450.43 669.132 451.416 669.595 452.127 670.368C452.838 671.141 453.217 672.163 453.18 673.213Z" fill="#41474E"/>
<path d="M475.22 635.187C475.193 635.98 474.93 636.747 474.465 637.391C474 638.034 473.354 638.525 472.609 638.8C471.864 639.075 471.055 639.123 470.283 638.936C469.511 638.75 468.812 638.338 468.276 637.753C467.739 637.168 467.388 636.436 467.268 635.652C467.149 634.867 467.265 634.064 467.603 633.346C467.941 632.627 468.485 632.026 469.166 631.617C469.847 631.209 470.634 631.013 471.427 631.053C472.475 631.107 473.46 631.57 474.17 632.344C474.879 633.117 475.257 634.138 475.22 635.187Z" fill="#41474E"/>
<path d="M574.8 608.26C574.771 609.053 574.508 609.819 574.042 610.462C573.577 611.104 572.931 611.594 572.186 611.868C571.442 612.143 570.633 612.189 569.862 612.003C569.091 611.816 568.392 611.404 567.856 610.82C567.319 610.235 566.969 609.505 566.849 608.72C566.729 607.936 566.845 607.134 567.182 606.416C567.519 605.698 568.062 605.096 568.742 604.687C569.422 604.278 570.208 604.081 571 604.12C572.051 604.172 573.038 604.635 573.75 605.41C574.461 606.185 574.838 607.209 574.8 608.26Z" fill="#41474E"/>
<path d="M494.14 752.093C494.113 752.887 493.85 753.654 493.385 754.297C492.921 754.94 492.275 755.431 491.531 755.707C490.786 755.982 489.977 756.03 489.205 755.844C488.434 755.658 487.735 755.247 487.198 754.662C486.661 754.078 486.31 753.347 486.189 752.563C486.068 751.778 486.184 750.976 486.521 750.257C486.858 749.539 487.401 748.936 488.081 748.527C488.761 748.118 489.548 747.921 490.34 747.96C491.389 748.012 492.376 748.474 493.087 749.248C493.798 750.021 494.177 751.043 494.14 752.093Z" fill="#41474E"/>
<path d="M122.114 712.087C122.085 712.879 121.821 713.645 121.356 714.288C120.891 714.93 120.246 715.42 119.502 715.695C118.758 715.969 117.949 716.017 117.178 715.83C116.407 715.644 115.709 715.233 115.172 714.649C114.635 714.066 114.284 713.336 114.163 712.552C114.042 711.768 114.157 710.966 114.493 710.247C114.829 709.529 115.371 708.927 116.05 708.517C116.729 708.107 117.515 707.909 118.307 707.947C119.359 707.997 120.348 708.46 121.061 709.235C121.773 710.01 122.152 711.034 122.114 712.087Z" fill="#41474E"/>
<path d="M94.7867 724.353C94.7593 725.146 94.4968 725.913 94.0325 726.556C93.5681 727.2 92.923 727.69 92.179 727.966C91.4351 728.242 90.626 728.29 89.8545 728.105C89.0831 727.919 88.3842 727.509 87.8468 726.925C87.3093 726.342 86.9575 725.611 86.8361 724.827C86.7148 724.043 86.8293 723.241 87.1652 722.522C87.5011 721.803 88.0431 721.201 88.7224 720.791C89.4017 720.381 90.1875 720.182 90.98 720.22C92.0305 720.27 93.0189 720.732 93.7314 721.506C94.4438 722.279 94.8229 723.302 94.7867 724.353Z" fill="#41474E"/>
<path d="M396.667 564.927C396.639 565.72 396.376 566.487 395.912 567.13C395.447 567.774 394.801 568.264 394.057 568.54C393.313 568.815 392.503 568.863 391.732 568.677C390.96 568.491 390.261 568.08 389.724 567.496C389.187 566.911 388.836 566.181 388.715 565.396C388.595 564.612 388.71 563.809 389.047 563.09C389.384 562.372 389.927 561.77 390.607 561.361C391.287 560.952 392.074 560.754 392.867 560.793C393.916 560.845 394.903 561.308 395.614 562.081C396.325 562.855 396.703 563.877 396.667 564.927Z" fill="#41474E"/>
<path d="M563.466 513.06C563.439 513.853 563.176 514.621 562.711 515.264C562.246 515.908 561.6 516.398 560.855 516.673C560.11 516.949 559.301 516.996 558.529 516.809C557.757 516.623 557.059 516.211 556.522 515.626C555.985 515.041 555.634 514.31 555.515 513.525C555.395 512.74 555.511 511.937 555.849 511.219C556.187 510.5 556.731 509.899 557.412 509.491C558.093 509.082 558.88 508.886 559.673 508.927C560.194 508.948 560.705 509.072 561.178 509.292C561.651 509.511 562.075 509.822 562.428 510.206C562.78 510.59 563.053 511.04 563.232 511.529C563.41 512.019 563.49 512.539 563.466 513.06Z" fill="#41474E"/>
<path d="M705.874 432.667C705.846 433.46 705.583 434.227 705.119 434.87C704.654 435.514 704.008 436.004 703.264 436.28C702.52 436.555 701.71 436.603 700.939 436.417C700.167 436.231 699.468 435.82 698.931 435.236C698.394 434.651 698.043 433.921 697.922 433.136C697.802 432.352 697.917 431.549 698.254 430.83C698.591 430.112 699.134 429.51 699.814 429.101C700.495 428.692 701.281 428.494 702.074 428.533C703.123 428.585 704.11 429.048 704.821 429.821C705.532 430.595 705.91 431.617 705.874 432.667Z" fill="#41474E"/>
<path d="M752.56 361.567C752.533 362.36 752.27 363.127 751.805 363.77C751.341 364.414 750.695 364.904 749.951 365.18C749.206 365.455 748.397 365.503 747.625 365.317C746.854 365.131 746.155 364.72 745.618 364.136C745.081 363.551 744.729 362.821 744.609 362.036C744.488 361.252 744.604 360.449 744.941 359.73C745.278 359.012 745.821 358.41 746.501 358.001C747.181 357.592 747.967 357.394 748.76 357.433C749.281 357.455 749.793 357.579 750.266 357.798C750.739 358.018 751.164 358.328 751.517 358.712C751.87 359.096 752.144 359.546 752.323 360.035C752.502 360.525 752.582 361.046 752.56 361.567Z" fill="#41474E"/>
<path d="M778.393 280.847C778.366 281.64 778.103 282.407 777.638 283.051C777.173 283.694 776.527 284.185 775.782 284.46C775.037 284.735 774.228 284.783 773.456 284.596C772.684 284.41 771.985 283.998 771.449 283.413C770.912 282.828 770.561 282.096 770.441 281.311C770.322 280.527 770.438 279.724 770.776 279.006C771.114 278.287 771.658 277.686 772.339 277.277C773.02 276.869 773.807 276.673 774.6 276.713C775.12 276.736 775.631 276.86 776.104 277.08C776.576 277.3 777 277.61 777.353 277.994C777.705 278.378 777.978 278.828 778.157 279.317C778.335 279.806 778.416 280.326 778.393 280.847Z" fill="#41474E"/>
<path d="M804.893 295.093C804.866 295.887 804.603 296.654 804.138 297.297C803.674 297.94 803.028 298.431 802.284 298.707C801.539 298.982 800.73 299.03 799.958 298.844C799.187 298.658 798.488 298.247 797.951 297.662C797.414 297.078 797.062 296.347 796.942 295.563C796.821 294.778 796.937 293.976 797.274 293.257C797.611 292.539 798.154 291.936 798.834 291.527C799.514 291.118 800.3 290.921 801.093 290.96C802.142 291.012 803.129 291.475 803.84 292.248C804.551 293.021 804.929 294.043 804.893 295.093Z" fill="#41474E"/>
<path d="M800.386 391.48C800.359 392.273 800.096 393.04 799.631 393.684C799.167 394.327 798.521 394.818 797.777 395.093C797.033 395.369 796.223 395.416 795.452 395.23C794.68 395.045 793.981 394.633 793.444 394.049C792.907 393.465 792.556 392.734 792.435 391.949C792.315 391.165 792.43 390.362 792.767 389.644C793.104 388.925 793.647 388.323 794.327 387.914C795.007 387.505 795.794 387.307 796.586 387.347C797.636 387.399 798.622 387.861 799.333 388.635C800.044 389.408 800.423 390.43 800.386 391.48Z" fill="#41474E"/>
<path d="M726 541.06C725.972 541.853 725.708 542.619 725.243 543.261C724.778 543.904 724.132 544.393 723.388 544.668C722.644 544.943 721.835 544.99 721.064 544.804C720.293 544.618 719.595 544.207 719.058 543.623C718.522 543.039 718.171 542.309 718.05 541.525C717.929 540.741 718.044 539.939 718.38 539.221C718.716 538.502 719.258 537.9 719.937 537.49C720.616 537.081 721.401 536.882 722.194 536.92C723.245 536.97 724.235 537.433 724.947 538.208C725.66 538.983 726.038 540.008 726 541.06Z" fill="#41474E"/>
<path d="M758.447 185.26C758.42 186.053 758.157 186.82 757.692 187.464C757.227 188.107 756.582 188.598 755.837 188.873C755.093 189.149 754.284 189.196 753.512 189.01C752.741 188.825 752.042 188.413 751.505 187.829C750.967 187.245 750.616 186.514 750.496 185.729C750.375 184.945 750.491 184.142 750.828 183.424C751.164 182.705 751.708 182.103 752.388 181.694C753.068 181.285 753.854 181.088 754.647 181.127C755.696 181.179 756.683 181.641 757.394 182.415C758.105 183.188 758.483 184.21 758.447 185.26Z" fill="#41474E"/>
<path d="M790.287 207.833C790.259 208.626 789.997 209.394 789.532 210.037C789.067 210.68 788.422 211.171 787.677 211.446C786.933 211.722 786.123 211.77 785.352 211.584C784.58 211.398 783.882 210.987 783.344 210.402C782.807 209.818 782.456 209.087 782.335 208.303C782.215 207.518 782.33 206.716 782.667 205.997C783.004 205.278 783.547 204.676 784.227 204.267C784.908 203.858 785.694 203.661 786.487 203.7C787.536 203.752 788.523 204.214 789.234 204.988C789.945 205.761 790.323 206.783 790.287 207.833Z" fill="#41474E"/>
<path d="M911.473 179.153C911.447 179.947 911.185 180.715 910.721 181.36C910.257 182.004 909.611 182.496 908.867 182.772C908.122 183.048 907.312 183.096 906.54 182.91C905.768 182.725 905.068 182.313 904.531 181.728C903.993 181.144 903.642 180.412 903.522 179.627C903.401 178.842 903.518 178.039 903.855 177.32C904.193 176.601 904.737 175.999 905.418 175.591C906.1 175.183 906.887 174.986 907.68 175.027C908.727 175.08 909.711 175.543 910.42 176.314C911.13 177.086 911.508 178.106 911.473 179.153Z" fill="#41474E"/>
<path d="M913.147 204.313C913.118 205.106 912.854 205.873 912.389 206.515C911.923 207.158 911.277 207.647 910.533 207.922C909.789 208.196 908.979 208.243 908.208 208.056C907.437 207.869 906.739 207.458 906.203 206.873C905.666 206.289 905.316 205.558 905.195 204.774C905.075 203.99 905.191 203.187 905.528 202.469C905.865 201.751 906.408 201.149 907.088 200.74C907.768 200.332 908.554 200.134 909.347 200.173C910.397 200.225 911.385 200.689 912.096 201.464C912.807 202.238 913.185 203.262 913.147 204.313Z" fill="#41474E"/>
<path d="M396.4 691.333C396.373 692.126 396.11 692.893 395.646 693.536C395.181 694.18 394.536 694.67 393.792 694.946C393.048 695.222 392.239 695.27 391.468 695.085C390.696 694.899 389.998 694.489 389.46 693.905C388.923 693.322 388.571 692.591 388.449 691.807C388.328 691.023 388.443 690.221 388.778 689.502C389.114 688.783 389.656 688.181 390.336 687.771C391.015 687.361 391.801 687.162 392.593 687.2C393.644 687.25 394.632 687.712 395.345 688.486C396.057 689.259 396.436 690.282 396.4 691.333Z" fill="#41474E"/>
<path d="M637.22 629.48C637.193 630.273 636.93 631.04 636.465 631.684C636.001 632.327 635.355 632.818 634.611 633.093C633.867 633.369 633.057 633.416 632.286 633.23C631.514 633.045 630.815 632.633 630.278 632.049C629.741 631.465 629.39 630.734 629.269 629.949C629.149 629.165 629.264 628.362 629.601 627.644C629.938 626.925 630.481 626.323 631.161 625.914C631.841 625.505 632.628 625.308 633.42 625.347C634.47 625.399 635.456 625.861 636.167 626.635C636.878 627.408 637.257 628.43 637.22 629.48Z" fill="#41474E"/>
<path d="M260.587 706.28C260.548 706.861 260.339 707.417 259.984 707.878C259.63 708.339 259.146 708.685 258.595 708.871C258.044 709.058 257.45 709.077 256.888 708.925C256.327 708.774 255.822 708.459 255.439 708.021C255.057 707.583 254.812 707.042 254.737 706.465C254.662 705.888 254.76 705.302 255.019 704.781C255.277 704.259 255.685 703.826 256.189 703.537C256.694 703.247 257.273 703.114 257.853 703.153C258.238 703.179 258.614 703.28 258.96 703.451C259.306 703.622 259.615 703.859 259.868 704.15C260.122 704.44 260.316 704.778 260.44 705.143C260.563 705.509 260.613 705.895 260.587 706.28Z" fill="#41474E"/>
<path d="M193.213 708.48C193.173 709.06 192.962 709.616 192.607 710.076C192.251 710.537 191.767 710.881 191.216 711.066C190.664 711.252 190.07 711.269 189.509 711.116C188.947 710.964 188.444 710.648 188.062 710.209C187.68 709.771 187.437 709.228 187.363 708.651C187.29 708.074 187.389 707.488 187.649 706.968C187.908 706.447 188.316 706.015 188.822 705.727C189.327 705.438 189.906 705.306 190.486 705.347C190.871 705.373 191.247 705.475 191.593 705.647C191.938 705.818 192.246 706.057 192.5 706.348C192.753 706.639 192.946 706.977 193.069 707.343C193.191 707.709 193.24 708.095 193.213 708.48Z" fill="#41474E"/>
<path d="M326.82 698.92C326.781 699.5 326.57 700.056 326.214 700.516C325.859 700.977 325.374 701.321 324.823 701.507C324.272 701.692 323.678 701.709 323.116 701.556C322.555 701.404 322.051 701.088 321.669 700.649C321.288 700.211 321.044 699.668 320.971 699.091C320.897 698.514 320.997 697.928 321.256 697.408C321.516 696.887 321.924 696.455 322.429 696.167C322.934 695.878 323.513 695.746 324.094 695.787C324.479 695.812 324.855 695.913 325.201 696.085C325.547 696.256 325.856 696.495 326.109 696.786C326.363 697.077 326.556 697.416 326.678 697.782C326.8 698.148 326.848 698.535 326.82 698.92Z" fill="#41474E"/>
<path d="M257.12 658.787C257.081 659.367 256.871 659.924 256.517 660.385C256.162 660.846 255.678 661.192 255.126 661.378C254.575 661.564 253.981 661.583 253.419 661.431C252.857 661.279 252.353 660.964 251.97 660.525C251.588 660.086 251.344 659.544 251.27 658.967C251.196 658.389 251.295 657.803 251.554 657.282C251.814 656.761 252.222 656.329 252.727 656.04C253.233 655.751 253.812 655.619 254.393 655.66C254.777 655.686 255.153 655.788 255.498 655.959C255.843 656.131 256.151 656.368 256.404 656.659C256.657 656.949 256.851 657.286 256.973 657.651C257.096 658.017 257.146 658.402 257.12 658.787Z" fill="#41474E"/>
<path d="M479.38 602.033C479.34 602.614 479.129 603.169 478.774 603.63C478.418 604.09 477.934 604.435 477.383 604.62C476.831 604.805 476.237 604.822 475.676 604.67C475.114 604.517 474.611 604.202 474.229 603.763C473.847 603.324 473.604 602.782 473.53 602.205C473.457 601.628 473.556 601.042 473.816 600.521C474.075 600 474.483 599.569 474.989 599.28C475.494 598.991 476.073 598.859 476.653 598.9C477.038 598.926 477.414 599.028 477.76 599.2C478.105 599.372 478.413 599.61 478.667 599.901C478.92 600.192 479.113 600.53 479.236 600.896C479.358 601.262 479.407 601.649 479.38 602.033Z" fill="#41474E"/>
<path d="M598.827 568.667C598.788 569.247 598.578 569.804 598.224 570.265C597.869 570.726 597.385 571.072 596.834 571.258C596.282 571.444 595.688 571.463 595.126 571.311C594.564 571.159 594.06 570.844 593.677 570.405C593.295 569.966 593.051 569.424 592.977 568.847C592.903 568.269 593.002 567.683 593.261 567.162C593.521 566.641 593.929 566.209 594.434 565.92C594.94 565.631 595.52 565.499 596.1 565.54C596.876 565.595 597.598 565.954 598.109 566.54C598.62 567.126 598.878 567.891 598.827 568.667Z" fill="#41474E"/>
<path d="M820.98 230.327C820.942 230.907 820.732 231.463 820.378 231.925C820.023 232.386 819.54 232.732 818.989 232.918C818.438 233.105 817.844 233.123 817.282 232.972C816.72 232.821 816.216 232.506 815.833 232.068C815.45 231.63 815.206 231.088 815.131 230.511C815.056 229.935 815.154 229.348 815.412 228.827C815.671 228.306 816.078 227.873 816.583 227.583C817.087 227.294 817.666 227.16 818.247 227.2C818.632 227.225 819.008 227.326 819.354 227.497C819.699 227.668 820.008 227.906 820.262 228.196C820.516 228.487 820.71 228.824 820.833 229.19C820.957 229.556 821.006 229.942 820.98 230.327Z" fill="#41474E"/>
<path d="M646.94 640.053C646.902 640.634 646.692 641.19 646.337 641.652C645.982 642.113 645.498 642.459 644.947 642.645C644.395 642.831 643.801 642.849 643.239 642.697C642.677 642.546 642.173 642.23 641.791 641.792C641.408 641.353 641.164 640.811 641.09 640.233C641.016 639.656 641.115 639.07 641.375 638.549C641.634 638.028 642.042 637.596 642.548 637.307C643.053 637.018 643.633 636.886 644.213 636.927C644.598 636.953 644.973 637.055 645.318 637.226C645.663 637.397 645.971 637.635 646.224 637.925C646.478 638.216 646.671 638.553 646.794 638.918C646.917 639.283 646.966 639.669 646.94 640.053Z" fill="#41474E"/>
<path d="M301.434 559.187C301.394 559.767 301.183 560.323 300.827 560.784C300.471 561.244 299.986 561.589 299.434 561.773C298.883 561.958 298.288 561.975 297.727 561.822C297.165 561.669 296.662 561.352 296.28 560.913C295.899 560.473 295.656 559.931 295.584 559.353C295.511 558.776 295.611 558.19 295.872 557.669C296.132 557.149 296.541 556.718 297.047 556.43C297.553 556.142 298.133 556.011 298.714 556.053C299.098 556.08 299.474 556.182 299.819 556.353C300.164 556.525 300.472 556.764 300.725 557.055C300.978 557.346 301.17 557.684 301.292 558.05C301.414 558.416 301.462 558.802 301.434 559.187Z" fill="#41474E"/>
<path d="M386.74 464.747C386.7 465.325 386.49 465.88 386.135 466.339C385.781 466.798 385.298 467.142 384.748 467.327C384.198 467.512 383.606 467.529 383.046 467.378C382.486 467.226 381.984 466.912 381.602 466.474C381.221 466.037 380.978 465.497 380.904 464.921C380.83 464.346 380.928 463.761 381.186 463.242C381.444 462.722 381.85 462.291 382.354 462.002C382.857 461.713 383.434 461.58 384.013 461.62C384.398 461.645 384.774 461.746 385.119 461.918C385.464 462.089 385.773 462.326 386.026 462.617C386.279 462.907 386.473 463.245 386.595 463.611C386.718 463.976 386.767 464.362 386.74 464.747Z" fill="#41474E"/>
<path d="M379.293 418.813C379.254 419.393 379.043 419.949 378.688 420.409C378.332 420.87 377.849 421.214 377.298 421.4C376.747 421.585 376.153 421.603 375.592 421.451C375.03 421.299 374.527 420.984 374.144 420.546C373.762 420.108 373.518 419.566 373.444 418.989C373.37 418.413 373.468 417.827 373.727 417.306C373.985 416.785 374.392 416.353 374.897 416.063C375.401 415.774 375.98 415.64 376.56 415.68C376.945 415.705 377.322 415.807 377.668 415.978C378.015 416.149 378.324 416.388 378.578 416.679C378.832 416.97 379.025 417.308 379.148 417.675C379.271 418.041 379.32 418.428 379.293 418.813Z" fill="#41474E"/>
<path d="M355.58 498.667C355.541 499.247 355.33 499.802 354.975 500.262C354.62 500.723 354.136 501.068 353.585 501.253C353.034 501.438 352.44 501.456 351.879 501.304C351.317 501.152 350.814 500.837 350.432 500.399C350.049 499.961 349.806 499.419 349.731 498.843C349.657 498.266 349.755 497.68 350.014 497.159C350.272 496.638 350.679 496.206 351.184 495.917C351.688 495.627 352.267 495.494 352.847 495.533C353.232 495.56 353.608 495.661 353.954 495.833C354.3 496.005 354.609 496.243 354.863 496.534C355.116 496.825 355.31 497.163 355.434 497.529C355.557 497.895 355.606 498.281 355.58 498.667Z" fill="#41474E"/>
<path d="M260.253 607.287C260.213 607.867 260.002 608.423 259.647 608.883C259.291 609.343 258.807 609.688 258.256 609.873C257.704 610.058 257.11 610.076 256.549 609.923C255.987 609.771 255.484 609.455 255.102 609.016C254.72 608.577 254.477 608.035 254.403 607.458C254.33 606.881 254.429 606.295 254.689 605.774C254.948 605.254 255.356 604.822 255.862 604.533C256.367 604.245 256.946 604.112 257.526 604.153C257.912 604.179 258.288 604.28 258.634 604.451C258.98 604.623 259.288 604.861 259.542 605.152C259.795 605.444 259.989 605.782 260.111 606.148C260.233 606.515 260.281 606.902 260.253 607.287Z" fill="#41474E"/>
<path d="M279.673 595.027C279.635 595.607 279.425 596.164 279.07 596.625C278.715 597.086 278.232 597.432 277.68 597.618C277.129 597.804 276.534 597.823 275.973 597.671C275.411 597.519 274.907 597.204 274.524 596.765C274.141 596.326 273.898 595.784 273.824 595.207C273.75 594.629 273.849 594.043 274.108 593.522C274.368 593.001 274.776 592.569 275.281 592.28C275.786 591.991 276.366 591.859 276.947 591.9C277.331 591.926 277.706 592.028 278.052 592.199C278.397 592.371 278.704 592.608 278.958 592.899C279.211 593.189 279.404 593.526 279.527 593.891C279.65 594.257 279.7 594.642 279.673 595.027Z" fill="#41474E"/>
<path d="M334.14 552.54C334.102 553.121 333.892 553.677 333.537 554.138C333.182 554.6 332.698 554.945 332.147 555.132C331.595 555.318 331.001 555.336 330.439 555.184C329.877 555.032 329.373 554.717 328.991 554.278C328.608 553.84 328.365 553.297 328.29 552.72C328.216 552.143 328.315 551.556 328.575 551.035C328.834 550.514 329.243 550.082 329.748 549.793C330.253 549.505 330.833 549.372 331.413 549.413C331.798 549.44 332.173 549.541 332.518 549.713C332.863 549.884 333.171 550.122 333.424 550.412C333.678 550.702 333.871 551.04 333.994 551.405C334.117 551.77 334.166 552.156 334.14 552.54Z" fill="#41474E"/>
<path d="M266.2 573.153C266.161 573.734 265.951 574.29 265.597 574.752C265.242 575.213 264.758 575.559 264.207 575.745C263.655 575.931 263.061 575.949 262.499 575.797C261.937 575.646 261.433 575.33 261.05 574.892C260.668 574.453 260.424 573.911 260.35 573.333C260.276 572.756 260.375 572.17 260.634 571.649C260.894 571.128 261.302 570.695 261.807 570.407C262.313 570.118 262.893 569.986 263.473 570.027C263.857 570.053 264.233 570.155 264.578 570.326C264.923 570.497 265.231 570.735 265.484 571.025C265.737 571.315 265.931 571.653 266.054 572.018C266.176 572.383 266.226 572.769 266.2 573.153Z" fill="#41474E"/>
<path d="M313.333 508C313.294 508.58 313.083 509.135 312.728 509.596C312.372 510.056 311.889 510.401 311.338 510.586C310.787 510.772 310.193 510.79 309.632 510.638C309.07 510.486 308.567 510.171 308.184 509.733C307.802 509.294 307.559 508.753 307.484 508.176C307.41 507.599 307.508 507.014 307.767 506.493C308.025 505.972 308.432 505.539 308.937 505.25C309.441 504.961 310.02 504.827 310.6 504.867C311.377 504.921 312.101 505.282 312.613 505.869C313.126 506.456 313.384 507.222 313.333 508Z" fill="#41474E"/>
<path d="M544.787 304.787C544.759 305.58 544.496 306.347 544.032 306.99C543.567 307.634 542.922 308.124 542.177 308.4C541.433 308.675 540.623 308.723 539.852 308.537C539.08 308.351 538.382 307.94 537.844 307.356C537.307 306.771 536.956 306.041 536.835 305.256C536.715 304.472 536.83 303.669 537.167 302.95C537.504 302.232 538.047 301.63 538.727 301.221C539.408 300.812 540.194 300.614 540.987 300.653C542.036 300.705 543.023 301.168 543.734 301.941C544.445 302.715 544.823 303.737 544.787 304.787Z" fill="#41474E"/>
<path d="M409.593 363.013C409.566 363.806 409.303 364.573 408.839 365.216C408.375 365.86 407.73 366.351 406.986 366.626C406.242 366.902 405.433 366.95 404.661 366.765C403.89 366.579 403.191 366.169 402.653 365.585C402.116 365.002 401.764 364.271 401.643 363.487C401.521 362.703 401.636 361.901 401.972 361.182C402.308 360.463 402.85 359.861 403.529 359.451C404.208 359.041 404.994 358.842 405.787 358.88C406.837 358.93 407.826 359.392 408.538 360.166C409.25 360.939 409.63 361.962 409.593 363.013Z" fill="#41474E"/>
<path d="M311.4 456.567C311.371 457.359 311.107 458.126 310.642 458.768C310.176 459.411 309.53 459.9 308.786 460.175C308.042 460.449 307.232 460.496 306.461 460.309C305.69 460.123 304.992 459.711 304.456 459.127C303.919 458.542 303.568 457.811 303.448 457.027C303.328 456.243 303.444 455.441 303.781 454.722C304.118 454.004 304.661 453.402 305.341 452.994C306.021 452.585 306.807 452.387 307.6 452.427C308.65 452.479 309.638 452.942 310.349 453.717C311.06 454.492 311.438 455.516 311.4 456.567Z" fill="#41474E"/>
<path d="M443.334 500.147C443.306 500.94 443.044 501.706 442.579 502.35C442.115 502.993 441.47 503.484 440.726 503.759C439.982 504.035 439.173 504.083 438.401 503.898C437.63 503.713 436.931 503.302 436.394 502.719C435.856 502.135 435.504 501.405 435.383 500.621C435.262 499.837 435.376 499.034 435.712 498.315C436.048 497.597 436.59 496.994 437.269 496.584C437.949 496.174 438.734 495.975 439.527 496.013C440.577 496.064 441.566 496.525 442.278 497.299C442.991 498.073 443.37 499.096 443.334 500.147Z" fill="#41474E"/>
<path d="M280.334 555.1C280.306 555.893 280.043 556.66 279.579 557.304C279.114 557.947 278.468 558.438 277.724 558.713C276.98 558.989 276.17 559.036 275.399 558.85C274.627 558.665 273.928 558.253 273.391 557.669C272.854 557.085 272.503 556.354 272.382 555.569C272.262 554.785 272.377 553.982 272.714 553.264C273.051 552.545 273.594 551.943 274.274 551.534C274.954 551.125 275.741 550.927 276.534 550.967C277.583 551.019 278.57 551.481 279.281 552.255C279.992 553.028 280.37 554.05 280.334 555.1Z" fill="#41474E"/>
<path d="M489.813 397.333C489.786 398.126 489.523 398.894 489.058 399.537C488.593 400.18 487.948 400.671 487.204 400.946C486.459 401.222 485.65 401.27 484.878 401.084C484.107 400.898 483.408 400.486 482.871 399.902C482.334 399.318 481.982 398.587 481.862 397.803C481.741 397.018 481.857 396.216 482.194 395.497C482.531 394.778 483.074 394.176 483.754 393.767C484.434 393.358 485.22 393.161 486.013 393.2C487.062 393.252 488.049 393.714 488.76 394.488C489.471 395.261 489.849 396.283 489.813 397.333Z" fill="#41474E"/>
</svg>
