<svg width="1000" height="1000" viewBox="0 0 1000 1000" fill="none" xmlns="http://www.w3.org/2000/svg">
<path d="M140.367 481.033C139.934 482.717 139.011 484.236 137.716 485.396C136.42 486.556 134.81 487.305 133.088 487.55C131.367 487.795 129.611 487.524 128.044 486.771C126.476 486.019 125.167 484.818 124.282 483.322C123.396 481.825 122.975 480.099 123.07 478.363C123.165 476.627 123.773 474.958 124.817 473.567C125.86 472.176 127.293 471.126 128.934 470.549C130.574 469.972 132.349 469.895 134.033 470.327C135.152 470.613 136.204 471.118 137.128 471.811C138.052 472.505 138.83 473.373 139.418 474.368C140.006 475.362 140.393 476.462 140.556 477.606C140.718 478.75 140.654 479.914 140.367 481.033Z" fill="#F94BA7"/>
<path d="M476.426 457.48C475.994 459.165 475.072 460.684 473.777 461.845C472.481 463.006 470.871 463.756 469.149 464.001C467.427 464.247 465.67 463.976 464.102 463.223C462.534 462.47 461.225 461.269 460.339 459.771C459.454 458.274 459.033 456.548 459.129 454.811C459.225 453.074 459.833 451.405 460.878 450.014C461.923 448.623 463.357 447.574 464.998 446.998C466.64 446.422 468.415 446.346 470.1 446.78C471.218 447.067 472.269 447.571 473.192 448.264C474.115 448.957 474.893 449.825 475.48 450.819C476.068 451.813 476.454 452.912 476.616 454.055C476.778 455.198 476.714 456.362 476.426 457.48Z" fill="#C072CE"/>
<path d="M198.16 814.947C197.728 816.629 196.806 818.146 195.512 819.305C194.217 820.464 192.609 821.213 190.889 821.458C189.169 821.703 187.415 821.433 185.848 820.681C184.282 819.929 182.974 818.73 182.089 817.235C181.204 815.74 180.782 814.016 180.876 812.281C180.971 810.546 181.578 808.879 182.62 807.488C183.662 806.098 185.093 805.049 186.732 804.471C188.37 803.894 190.143 803.816 191.827 804.247C192.945 804.533 193.997 805.037 194.921 805.729C195.845 806.422 196.623 807.29 197.211 808.284C197.8 809.278 198.186 810.378 198.349 811.521C198.512 812.664 198.447 813.828 198.16 814.947Z" fill="#F94BA7"/>
<path d="M918.04 508.093C917.613 509.779 916.696 511.301 915.404 512.465C914.112 513.629 912.504 514.384 910.783 514.633C909.061 514.883 907.305 514.616 905.736 513.866C904.166 513.117 902.855 511.919 901.967 510.423C901.079 508.928 900.655 507.203 900.748 505.466C900.841 503.73 901.448 502.06 902.491 500.668C903.534 499.276 904.966 498.225 906.607 497.648C908.247 497.071 910.022 496.994 911.707 497.427C913.959 498.005 915.89 499.452 917.077 501.451C918.264 503.451 918.611 505.839 918.04 508.093Z" fill="#F94BA7"/>
<path d="M645.526 819.227C645.1 820.913 644.182 822.434 642.89 823.598C641.598 824.762 639.99 825.517 638.269 825.767C636.548 826.016 634.791 825.749 633.222 825C631.653 824.25 630.341 823.052 629.453 821.557C628.565 820.061 628.141 818.336 628.234 816.599C628.328 814.863 628.934 813.193 629.977 811.801C631.02 810.41 632.453 809.359 634.093 808.782C635.734 808.205 637.509 808.128 639.193 808.56C641.444 809.14 643.374 810.587 644.561 812.586C645.748 814.585 646.095 816.973 645.526 819.227Z" fill="#C072CE"/>
<path d="M861.253 399.407C860.82 401.089 859.897 402.604 858.602 403.762C857.308 404.92 855.699 405.669 853.979 405.913C852.259 406.157 850.506 405.885 848.94 405.133C847.374 404.381 846.066 403.182 845.182 401.687C844.298 400.192 843.876 398.468 843.971 396.734C844.066 394.999 844.673 393.332 845.715 391.942C846.757 390.552 848.187 389.503 849.826 388.926C851.464 388.348 853.237 388.27 854.92 388.7C856.039 388.986 857.091 389.49 858.016 390.183C858.94 390.876 859.719 391.745 860.307 392.74C860.896 393.734 861.282 394.835 861.444 395.979C861.607 397.123 861.542 398.288 861.253 399.407Z" fill="#C072CE"/>
<path d="M839.013 634.867C838.213 637.987 836.506 640.8 834.108 642.95C831.709 645.101 828.727 646.491 825.538 646.947C822.349 647.402 819.097 646.901 816.192 645.508C813.288 644.115 810.862 641.892 809.221 639.12C807.58 636.348 806.798 633.152 806.973 629.936C807.149 626.719 808.274 623.627 810.207 621.05C812.14 618.473 814.794 616.528 817.833 615.459C820.872 614.39 824.159 614.247 827.279 615.047C831.462 616.122 835.046 618.813 837.246 622.529C839.446 626.245 840.081 630.683 839.013 634.867Z" fill="#F94BA7"/>
<path d="M333.06 748.547L443.653 710.693L349.806 712.433L333.06 748.547Z" fill="#9E4DB2"/>
<path d="M573.687 708.593L487.354 744.267L557.28 686.113L573.687 708.593Z" fill="#9E4DB2"/>
<path d="M618.406 611.047L698.146 562.393L638.106 630.7L618.406 611.047Z" fill="#9E4DB2"/>
<path d="M857.466 222.787L902.793 222.34L830.373 269.073L857.466 222.787Z" fill="#C072CE"/>
<path d="M545.68 690.04L449.953 674.293L514.94 709.187L545.68 690.04Z" fill="#9E4DB2"/>
<path d="M493.747 746.36L401.4 760.433L454 729.28L493.747 746.36Z" fill="#9E4DB2"/>
<path d="M471.12 762.46L505.367 812.407L435.807 780.3L471.12 762.46Z" fill="#9E4DB2"/>
<path d="M237.847 754.733L333.06 757.107L271.673 728.493L237.847 754.733Z" fill="#9E4DB2"/>
<path d="M281.693 711.987L329.46 769.167L313.733 714.893L281.693 711.987Z" fill="#C072CE"/>
<path d="M448.453 738.72L538.28 720.187L477.273 703.327L448.453 738.72Z" fill="#C072CE"/>
<path d="M746.713 739.447L794.34 713.227L759.02 691.287L746.713 739.447Z" fill="#C072CE"/>
<path d="M391.92 723.66L324.007 764.44L364.754 764.933L391.92 723.66Z" fill="#9E4DB2"/>
<path d="M105.307 738.767L109.207 715.693L203.213 734.44L105.307 738.767Z" fill="#F94BA7"/>
<path d="M891.58 186.187L905.886 194.067L874.606 220.553L891.58 186.187Z" fill="#F94BA7"/>
<path d="M387.854 724.32L430.453 691.287L485.76 719.987L387.854 724.32Z" fill="#F94BA7"/>
<path d="M568.293 602.467L616.626 591.26L661.713 632.073L568.293 602.467Z" fill="#F94BA7"/>
<path d="M204.807 725.713L211.22 747.847L279.333 741.187L204.807 725.713Z" fill="#DA5977"/>
<path d="M642.16 579.96L664.573 597.647L718.187 521.593L642.16 579.96Z" fill="#DA5977"/>
<path d="M310.587 695.033L321.287 728.213L407.44 699.313L310.587 695.033Z" fill="#DA5977"/>
<path d="M363.98 744.593L400.96 765.447L441.427 727.493L363.98 744.593Z" fill="#DA5977"/>
<path d="M465.826 634.327L487.346 675.427" stroke="#41474E" stroke-width="1.58" stroke-miterlimit="10"/>
<path d="M797.434 710.313L774.647 745.787L644.414 736.467L539.527 678.367L487.347 675.427L444.28 671.913L465.827 634.327L565.667 607.233L628.087 628.453L650.06 650L715.974 683.427L796.534 710.4L771.767 740.66L643.574 730.287L594.294 698.28L538.774 665.28L465.827 634.327" stroke="#41474E" stroke-width="1.58" stroke-miterlimit="10"/>
<path d="M436.66 759.56L445.707 798.193L504.893 824.12L515.26 808.32L484 762.133L484.68 750.913" stroke="#41474E" stroke-width="1.58" stroke-miterlimit="10"/>
<path d="M582.006 701.893L549.013 722.587L484.68 750.913L436.66 759.56L385.566 768.313L367.26 776.38L181.22 745.267L120.606 739.48L85.3262 723.167L95.1728 694.48L197.42 644.473L257.32 623.093L329.553 590.04L387.38 563.96L442.513 545.933L555.3 511.653L626.166 443.913L696.886 431.553L743.426 360.54L769.793 278.167L780.98 211.02L796 295.44L791.246 390.453L713.726 543.827L638.84 639" stroke="#41474E" stroke-width="1.58" stroke-miterlimit="10"/>
<path d="M795.76 294.073L878.474 249.373L903.7 202.493L830.5 232.433L812.88 229.273L781.154 206.807L748.554 183.307L769.26 279.813L795.76 294.073Z" stroke="#41474E" stroke-width="1.58" stroke-miterlimit="10"/>
<path d="M873.014 214.653L902.34 178.133L903.7 202.493" stroke="#41474E" stroke-width="1.58" stroke-miterlimit="10"/>
<path d="M85.3262 723.167L112.653 710.9L251.113 705.067L387.266 690.287L444.279 671.913" stroke="#41474E" stroke-width="1.58" stroke-miterlimit="10"/>
<path d="M538.773 665.28L539.533 678.367" stroke="#41474E" stroke-width="0.97" stroke-miterlimit="10"/>
<path d="M643.573 730.287L644.413 736.467" stroke="#41474E" stroke-width="0.97" stroke-miterlimit="10"/>
<path d="M781.153 206.807L756.573 220.7" stroke="#41474E" stroke-width="0.97" stroke-miterlimit="10"/>
<path d="M812.88 229.273L795.76 294.073" stroke="#41474E" stroke-width="0.97" stroke-miterlimit="10"/>
<path d="M830.5 232.433L878.48 249.373" stroke="#41474E" stroke-width="0.97" stroke-miterlimit="10"/>
<path d="M743.427 360.54L713.727 543.827" stroke="#41474E" stroke-width="0.97" stroke-miterlimit="10"/>
<path d="M743.427 360.54L791.247 390.453" stroke="#41474E" stroke-width="0.97" stroke-miterlimit="10"/>
<path d="M696.887 431.553L715.08 535.527" stroke="#41474E" stroke-width="0.97" stroke-miterlimit="10"/>
<path d="M626.167 443.913L715.08 535.527" stroke="#41474E" stroke-width="0.97" stroke-miterlimit="10"/>
<path d="M555.293 511.653L628.086 628.453" stroke="#41474E" stroke-width="0.97" stroke-miterlimit="10"/>
<path d="M555.293 511.653L696.886 431.553" stroke="#41474E" stroke-width="0.97" stroke-miterlimit="10"/>
<path d="M696.887 431.553L791.247 390.453" stroke="#41474E" stroke-width="0.97" stroke-miterlimit="10"/>
<path d="M791.246 390.453L769.26 279.813" stroke="#41474E" stroke-width="0.97" stroke-miterlimit="10"/>
<path d="M795.76 294.073L743.427 360.54" stroke="#41474E" stroke-width="0.97" stroke-miterlimit="10"/>
<path d="M445.707 798.193L484 762.133" stroke="#41474E" stroke-width="0.97" stroke-miterlimit="10"/>
<path d="M485.36 815.567L502.5 789.467" stroke="#41474E" stroke-width="0.97" stroke-miterlimit="10"/>
<path d="M504.893 824.127L502.5 789.467" stroke="#41474E" stroke-width="0.97" stroke-miterlimit="10"/>
<path d="M502.5 789.467L445.707 798.193" stroke="#41474E" stroke-width="0.97" stroke-miterlimit="10"/>
<path d="M484 762.133L485.36 815.567" stroke="#41474E" stroke-width="0.97" stroke-miterlimit="10"/>
<path d="M484 762.133L436.66 759.56" stroke="#41474E" stroke-width="0.97" stroke-miterlimit="10"/>
<path d="M538.773 665.28L565.667 607.233" stroke="#41474E" stroke-width="0.97" stroke-miterlimit="10"/>
<path d="M538.773 665.28L628.087 628.453" stroke="#41474E" stroke-width="0.97" stroke-miterlimit="10"/>
<path d="M638.84 639L538.773 665.28" stroke="#41474E" stroke-width="0.97" stroke-miterlimit="10"/>
<path d="M643.573 730.287L715.973 683.427" stroke="#41474E" stroke-width="0.97" stroke-miterlimit="10"/>
<path d="M650.06 650L580.467 690.06" stroke="#41474E" stroke-width="0.97" stroke-miterlimit="10"/>
<path d="M724.986 736.873L749.72 694.727" stroke="#41474E" stroke-width="0.97" stroke-miterlimit="10"/>
<path d="M771.766 740.66L749.72 694.727" stroke="#41474E" stroke-width="0.97" stroke-miterlimit="10"/>
<path d="M749.72 694.727L645.354 729.58" stroke="#41474E" stroke-width="0.97" stroke-miterlimit="10"/>
<path d="M645.354 729.58L650.06 650" stroke="#41474E" stroke-width="0.97" stroke-miterlimit="10"/>
<path d="M628.087 628.453L580.467 690.06" stroke="#41474E" stroke-width="0.97" stroke-miterlimit="10"/>
<path d="M580.467 690.06L715.973 683.427" stroke="#41474E" stroke-width="0.97" stroke-miterlimit="10"/>
<path d="M715.974 683.427L724.987 736.873" stroke="#41474E" stroke-width="0.97" stroke-miterlimit="10"/>
<path d="M465.827 634.327L387.267 690.287" stroke="#41474E" stroke-width="0.97" stroke-miterlimit="10"/>
<path d="M95.1738 694.48L112.654 710.9" stroke="#41474E" stroke-width="0.97" stroke-miterlimit="10"/>
<path d="M565.666 607.233L555.293 511.653" stroke="#41474E" stroke-width="0.97" stroke-miterlimit="10"/>
<path d="M387.267 690.287L397.207 676.987L555.3 511.653" stroke="#41474E" stroke-width="0.97" stroke-miterlimit="10"/>
<path d="M112.653 710.9L274.047 679.16" stroke="#41474E" stroke-width="0.97" stroke-miterlimit="10"/>
<path d="M274.047 679.16L392.794 648.9" stroke="#41474E" stroke-width="0.97" stroke-miterlimit="10"/>
<path d="M392.793 648.9L465.826 634.327" stroke="#41474E" stroke-width="0.97" stroke-miterlimit="10"/>
<path d="M274.047 679.16L371.36 687.387L387.267 690.287" stroke="#41474E" stroke-width="0.97" stroke-miterlimit="10"/>
<path d="M274.047 679.16L251.113 705.067" stroke="#41474E" stroke-width="0.97" stroke-miterlimit="10"/>
<path d="M444.28 671.913L428.113 737.987" stroke="#41474E" stroke-width="0.97" stroke-miterlimit="10"/>
<path d="M428.113 737.987L436.66 759.56" stroke="#41474E" stroke-width="0.97" stroke-miterlimit="10"/>
<path d="M628.087 628.453L715.08 535.527" stroke="#41474E" stroke-width="0.97" stroke-miterlimit="10"/>
<path d="M85.3262 723.167L251.113 705.067" stroke="#41474E" stroke-width="0.97" stroke-miterlimit="10"/>
<path d="M112.653 710.9L248.72 656.96" stroke="#41474E" stroke-width="0.97" stroke-miterlimit="10"/>
<path d="M248.72 656.96L471.28 600.973" stroke="#41474E" stroke-width="0.97" stroke-miterlimit="10"/>
<path d="M471.28 600.973L565.667 607.233" stroke="#41474E" stroke-width="0.97" stroke-miterlimit="10"/>
<path d="M197.413 644.473L248.72 656.96" stroke="#41474E" stroke-width="0.97" stroke-miterlimit="10"/>
<path d="M248.72 656.96L257.32 623.093" stroke="#41474E" stroke-width="0.97" stroke-miterlimit="10"/>
<path d="M387.38 563.96L471.28 600.973" stroke="#41474E" stroke-width="0.97" stroke-miterlimit="10"/>
<path d="M387.38 563.96L248.72 656.96" stroke="#41474E" stroke-width="0.97" stroke-miterlimit="10"/>
<path d="M257.32 623.093L471.28 600.973" stroke="#41474E" stroke-width="0.97" stroke-miterlimit="10"/>
<path d="M248.72 656.96L274.046 679.16" stroke="#41474E" stroke-width="0.97" stroke-miterlimit="10"/>
<path d="M471.28 600.973L561.127 565.36" stroke="#41474E" stroke-width="0.97" stroke-miterlimit="10"/>
<path d="M561.127 565.36L590.727 567.62" stroke="#41474E" stroke-width="0.97" stroke-miterlimit="10"/>
<path d="M590.727 567.62L696.886 431.553" stroke="#41474E" stroke-width="0.97" stroke-miterlimit="10"/>
<path d="M181.22 745.267L385.566 768.313" stroke="#41474E" stroke-width="0.97" stroke-miterlimit="10"/>
<path d="M385.566 768.313L568.913 694.64" stroke="#41474E" stroke-width="0.97" stroke-miterlimit="10"/>
<path d="M120.606 739.48L373.366 737.54" stroke="#41474E" stroke-width="0.97" stroke-miterlimit="10"/>
<path d="M373.367 737.54L428.114 737.987" stroke="#41474E" stroke-width="0.97" stroke-miterlimit="10"/>
<path d="M428.113 737.987L539.533 678.367" stroke="#41474E" stroke-width="0.97" stroke-miterlimit="10"/>
<path d="M85.3262 723.167L428.113 737.987" stroke="#41474E" stroke-width="0.97" stroke-miterlimit="10"/>
<path d="M428.113 737.987L487.347 675.427" stroke="#41474E" stroke-width="0.97" stroke-miterlimit="10"/>
<path d="M488.347 675.033L436.047 704.58" stroke="#41474E" stroke-width="0.97" stroke-miterlimit="10"/>
<path d="M436.046 704.58L359.54 715.12L85.3262 723.167" stroke="#41474E" stroke-width="0.97" stroke-miterlimit="10"/>
<path d="M565.667 607.233L590.727 567.62" stroke="#41474E" stroke-width="0.97" stroke-miterlimit="10"/>
<path d="M590.727 567.62L715.08 535.527" stroke="#41474E" stroke-width="0.97" stroke-miterlimit="10"/>
<path d="M580.467 690.06L582.007 701.893" stroke="#41474E" stroke-width="0.97" stroke-miterlimit="10"/>
<path d="M724.986 736.873L725.44 742.273" stroke="#41474E" stroke-width="0.97" stroke-miterlimit="10"/>
<path d="M771.767 740.66L774.647 745.793" stroke="#41474E" stroke-width="0.97" stroke-miterlimit="10"/>
<path d="M549.014 722.58L568.914 694.64" stroke="#41474E" stroke-width="0.97" stroke-miterlimit="10"/>
<path d="M436.047 704.58L387.267 690.287" stroke="#41474E" stroke-width="0.97" stroke-miterlimit="10"/>
<path d="M387.267 690.287L375.867 702.427L359.54 715.12" stroke="#41474E" stroke-width="0.97" stroke-miterlimit="10"/>
<path d="M251.113 705.067L359.54 715.12" stroke="#41474E" stroke-width="0.97" stroke-miterlimit="10"/>
<path d="M251.113 705.067L392.793 648.9" stroke="#41474E" stroke-width="0.97" stroke-miterlimit="10"/>
<path d="M371.36 687.387L375.867 702.427" stroke="#41474E" stroke-width="0.97" stroke-miterlimit="10"/>
<path d="M392.793 648.9L397.206 676.987" stroke="#41474E" stroke-width="0.97" stroke-miterlimit="10"/>
<path d="M375.867 702.427L444.281 671.913" stroke="#41474E" stroke-width="0.97" stroke-miterlimit="10"/>
<path d="M397.207 676.987L444.28 671.913" stroke="#41474E" stroke-width="0.97" stroke-miterlimit="10"/>
<path d="M397.207 676.987L310.467 682.24" stroke="#41474E" stroke-width="0.97" stroke-miterlimit="10"/>
<path d="M371.36 687.387L392.794 648.9" stroke="#41474E" stroke-width="0.97" stroke-miterlimit="10"/>
<path d="M120.606 739.48L432.64 749.407" stroke="#41474E" stroke-width="0.97" stroke-miterlimit="10"/>
<path d="M801.613 711.027C801.585 711.82 801.323 712.587 800.858 713.23C800.393 713.874 799.748 714.364 799.003 714.64C798.259 714.915 797.45 714.963 796.678 714.777C795.907 714.591 795.208 714.18 794.671 713.596C794.133 713.011 793.782 712.281 793.662 711.496C793.541 710.712 793.657 709.909 793.994 709.19C794.33 708.472 794.874 707.87 795.554 707.461C796.234 707.052 797.02 706.854 797.813 706.893C798.862 706.945 799.849 707.408 800.56 708.181C801.271 708.955 801.649 709.977 801.613 711.027Z" fill="#41474E"/>
<path d="M718.374 684.213C718.346 685.007 718.083 685.774 717.619 686.417C717.154 687.06 716.509 687.551 715.764 687.827C715.02 688.102 714.21 688.15 713.439 687.964C712.667 687.778 711.968 687.367 711.431 686.782C710.894 686.198 710.543 685.467 710.422 684.683C710.302 683.898 710.417 683.096 710.754 682.377C711.091 681.659 711.634 681.056 712.314 680.647C712.995 680.238 713.781 680.041 714.574 680.08C715.623 680.132 716.61 680.595 717.321 681.368C718.032 682.141 718.41 683.163 718.374 684.213Z" fill="#41474E"/>
<path d="M778.613 745.96C778.585 746.753 778.323 747.52 777.858 748.164C777.393 748.807 776.748 749.298 776.003 749.573C775.259 749.849 774.45 749.896 773.678 749.71C772.907 749.525 772.208 749.113 771.671 748.529C771.133 747.945 770.782 747.214 770.662 746.429C770.541 745.645 770.657 744.842 770.994 744.124C771.33 743.405 771.874 742.803 772.554 742.394C773.234 741.985 774.02 741.787 774.813 741.827C775.862 741.879 776.849 742.341 777.56 743.115C778.271 743.888 778.649 744.91 778.613 745.96Z" fill="#41474E"/>
<path d="M647.613 734.7C647.586 735.493 647.323 736.26 646.859 736.903C646.394 737.546 645.749 738.037 645.005 738.313C644.261 738.589 643.452 738.637 642.681 738.451C641.909 738.266 641.21 737.856 640.673 737.272C640.135 736.688 639.784 735.958 639.662 735.174C639.541 734.39 639.655 733.588 639.991 732.869C640.327 732.15 640.869 731.547 641.549 731.137C642.228 730.727 643.014 730.529 643.806 730.567C644.857 730.617 645.845 731.079 646.558 731.852C647.27 732.626 647.649 733.649 647.613 734.7Z" fill="#41474E"/>
<path d="M543.493 678.54C543.465 679.333 543.201 680.099 542.735 680.742C542.27 681.384 541.624 681.874 540.88 682.148C540.135 682.423 539.326 682.469 538.555 682.283C537.784 682.096 537.086 681.684 536.549 681.1C536.013 680.515 535.662 679.785 535.542 679C535.422 678.216 535.538 677.414 535.875 676.696C536.212 675.978 536.755 675.376 537.435 674.967C538.115 674.558 538.901 674.361 539.693 674.4C540.215 674.421 540.727 674.546 541.201 674.765C541.675 674.985 542.1 675.296 542.453 675.681C542.806 676.066 543.08 676.516 543.258 677.007C543.437 677.497 543.517 678.018 543.493 678.54Z" fill="#41474E"/>
<path d="M586 702.1C585.974 702.894 585.712 703.661 585.248 704.306C584.784 704.95 584.139 705.442 583.395 705.718C582.651 705.995 581.841 706.043 581.069 705.858C580.297 705.673 579.597 705.262 579.059 704.678C578.522 704.094 578.17 703.363 578.049 702.578C577.928 701.794 578.043 700.991 578.38 700.272C578.716 699.553 579.259 698.95 579.94 698.541C580.62 698.132 581.407 697.934 582.2 697.973C583.248 698.025 584.234 698.487 584.945 699.259C585.655 700.031 586.034 701.051 586 702.1Z" fill="#41474E"/>
<path d="M489.053 676.493C489.026 677.286 488.763 678.054 488.298 678.697C487.834 679.34 487.188 679.831 486.444 680.106C485.7 680.382 484.89 680.43 484.119 680.244C483.347 680.058 482.648 679.647 482.111 679.062C481.574 678.478 481.223 677.747 481.102 676.963C480.982 676.178 481.097 675.376 481.434 674.657C481.771 673.939 482.314 673.336 482.994 672.927C483.674 672.518 484.461 672.321 485.253 672.36C486.303 672.412 487.289 672.875 488 673.648C488.711 674.421 489.09 675.443 489.053 676.493Z" fill="#41474E"/>
<path d="M448 672.353C447.972 673.147 447.709 673.914 447.244 674.558C446.779 675.201 446.133 675.692 445.388 675.967C444.644 676.242 443.834 676.289 443.062 676.103C442.29 675.916 441.592 675.504 441.055 674.919C440.518 674.335 440.167 673.603 440.048 672.818C439.928 672.033 440.044 671.231 440.382 670.512C440.72 669.794 441.264 669.192 441.945 668.784C442.626 668.376 443.413 668.179 444.206 668.22C445.254 668.274 446.239 668.737 446.949 669.51C447.659 670.283 448.036 671.305 448 672.353Z" fill="#41474E"/>
<path d="M470.053 634.333C470.024 635.126 469.76 635.893 469.294 636.536C468.829 637.178 468.182 637.668 467.437 637.942C466.693 638.216 465.883 638.262 465.112 638.075C464.341 637.888 463.643 637.476 463.106 636.89C462.57 636.305 462.22 635.574 462.101 634.789C461.982 634.005 462.099 633.202 462.437 632.484C462.775 631.766 463.319 631.165 464 630.757C464.68 630.349 465.467 630.153 466.26 630.193C467.309 630.247 468.295 630.711 469.005 631.486C469.715 632.261 470.091 633.283 470.053 634.333Z" fill="#41474E"/>
<path d="M569.633 607.4C569.606 608.193 569.343 608.96 568.879 609.604C568.414 610.247 567.768 610.738 567.024 611.013C566.28 611.289 565.47 611.336 564.699 611.15C563.927 610.965 563.228 610.553 562.691 609.969C562.154 609.385 561.803 608.654 561.682 607.869C561.562 607.085 561.677 606.282 562.014 605.564C562.351 604.845 562.894 604.243 563.574 603.834C564.254 603.425 565.041 603.227 565.833 603.267C566.883 603.319 567.869 603.781 568.58 604.555C569.291 605.328 569.67 606.35 569.633 607.4Z" fill="#41474E"/>
<path d="M488.967 751.233C488.94 752.027 488.678 752.795 488.214 753.44C487.75 754.084 487.104 754.576 486.36 754.852C485.615 755.128 484.805 755.176 484.033 754.99C483.261 754.805 482.561 754.393 482.024 753.808C481.486 753.224 481.135 752.492 481.015 751.707C480.895 750.922 481.011 750.119 481.349 749.4C481.686 748.681 482.23 748.079 482.912 747.671C483.593 747.263 484.38 747.066 485.173 747.107C486.22 747.16 487.204 747.623 487.914 748.394C488.623 749.166 489.001 750.186 488.967 751.233Z" fill="#41474E"/>
<path d="M116.94 711.227C116.913 712.02 116.65 712.787 116.185 713.43C115.72 714.074 115.075 714.564 114.331 714.84C113.586 715.115 112.777 715.163 112.005 714.977C111.234 714.791 110.535 714.38 109.998 713.796C109.461 713.211 109.109 712.481 108.989 711.696C108.868 710.912 108.984 710.109 109.321 709.391C109.658 708.672 110.201 708.07 110.881 707.661C111.561 707.252 112.347 707.054 113.14 707.093C113.661 707.114 114.173 707.237 114.647 707.456C115.12 707.676 115.546 707.986 115.899 708.37C116.252 708.754 116.526 709.204 116.705 709.695C116.883 710.185 116.963 710.705 116.94 711.227Z" fill="#41474E"/>
<path d="M89.6197 723.493C89.5923 724.286 89.3298 725.053 88.8655 725.696C88.4011 726.34 87.756 726.831 87.0121 727.106C86.2681 727.382 85.459 727.43 84.6876 727.245C83.9161 727.059 83.2172 726.649 82.6798 726.065C82.1423 725.482 81.7905 724.751 81.6691 723.967C81.5478 723.183 81.6623 722.381 81.9982 721.662C82.3341 720.943 82.8761 720.341 83.5554 719.931C84.2347 719.521 85.0205 719.322 85.813 719.36C86.8635 719.41 87.8519 719.872 88.5644 720.646C89.2768 721.419 89.6559 722.442 89.6197 723.493Z" fill="#41474E"/>
<path d="M391.5 564.067C391.472 564.86 391.209 565.627 390.745 566.27C390.28 566.914 389.634 567.404 388.89 567.68C388.146 567.955 387.336 568.003 386.565 567.817C385.793 567.631 385.094 567.22 384.557 566.636C384.02 566.051 383.669 565.32 383.548 564.536C383.428 563.752 383.543 562.949 383.88 562.23C384.217 561.512 384.76 560.91 385.44 560.501C386.12 560.092 386.907 559.894 387.7 559.933C388.749 559.985 389.736 560.448 390.447 561.221C391.158 561.995 391.536 563.017 391.5 564.067Z" fill="#41474E"/>
<path d="M558.3 512.207C558.271 512.999 558.008 513.766 557.542 514.408C557.077 515.051 556.431 515.54 555.686 515.815C554.942 516.089 554.133 516.136 553.362 515.949C552.591 515.763 551.892 515.351 551.356 514.767C550.819 514.182 550.469 513.451 550.349 512.667C550.229 511.883 550.345 511.081 550.682 510.362C551.019 509.644 551.562 509.042 552.242 508.634C552.922 508.225 553.708 508.027 554.5 508.067C555.551 508.119 556.538 508.582 557.25 509.357C557.961 510.132 558.338 511.156 558.3 512.207Z" fill="#41474E"/>
<path d="M700.707 431.78C700.679 432.573 700.417 433.34 699.952 433.983C699.488 434.626 698.843 435.117 698.099 435.393C697.355 435.669 696.546 435.717 695.774 435.531C695.003 435.346 694.304 434.935 693.767 434.352C693.229 433.768 692.877 433.038 692.756 432.254C692.635 431.47 692.749 430.668 693.085 429.949C693.421 429.23 693.963 428.627 694.642 428.217C695.322 427.807 696.107 427.609 696.9 427.647C697.95 427.697 698.939 428.159 699.651 428.932C700.364 429.706 700.743 430.729 700.707 431.78Z" fill="#41474E"/>
<path d="M747.393 360.707C747.367 361.5 747.106 362.268 746.642 362.912C746.178 363.557 745.533 364.048 744.788 364.325C744.044 364.601 743.234 364.65 742.462 364.465C741.69 364.279 740.991 363.869 740.453 363.285C739.915 362.701 739.563 361.97 739.442 361.185C739.321 360.4 739.436 359.597 739.773 358.878C740.11 358.159 740.653 357.557 741.333 357.148C742.014 356.738 742.8 356.541 743.593 356.58C744.641 356.632 745.627 357.094 746.338 357.866C747.049 358.637 747.428 359.658 747.393 360.707Z" fill="#41474E"/>
<path d="M773.227 280C773.2 280.793 772.937 281.56 772.472 282.204C772.008 282.847 771.362 283.338 770.618 283.613C769.873 283.889 769.064 283.936 768.292 283.75C767.521 283.564 766.822 283.153 766.285 282.569C765.748 281.985 765.396 281.254 765.276 280.469C765.155 279.685 765.271 278.882 765.608 278.164C765.945 277.445 766.488 276.843 767.168 276.434C767.848 276.025 768.634 275.827 769.427 275.867C770.476 275.918 771.463 276.381 772.174 277.155C772.885 277.928 773.263 278.95 773.227 280Z" fill="#41474E"/>
<path d="M799.72 294.24C799.693 295.033 799.43 295.8 798.965 296.444C798.501 297.087 797.855 297.578 797.111 297.853C796.367 298.129 795.557 298.176 794.786 297.99C794.014 297.805 793.315 297.393 792.778 296.809C792.241 296.225 791.89 295.494 791.769 294.709C791.649 293.925 791.764 293.122 792.101 292.404C792.438 291.685 792.981 291.083 793.661 290.674C794.341 290.265 795.128 290.067 795.92 290.107C796.97 290.159 797.956 290.621 798.667 291.395C799.378 292.168 799.757 293.19 799.72 294.24Z" fill="#41474E"/>
<path d="M795.213 390.627C795.184 391.42 794.92 392.186 794.455 392.829C793.989 393.472 793.342 393.961 792.598 394.235C791.853 394.509 791.043 394.556 790.272 394.369C789.501 394.181 788.803 393.769 788.267 393.184C787.73 392.599 787.38 391.867 787.261 391.083C787.142 390.298 787.259 389.496 787.597 388.778C787.935 388.059 788.479 387.458 789.16 387.05C789.841 386.642 790.627 386.446 791.42 386.487C792.469 386.54 793.455 387.005 794.165 387.779C794.875 388.554 795.251 389.577 795.213 390.627Z" fill="#41474E"/>
<path d="M720.827 540.2C720.799 540.993 720.536 541.76 720.072 542.404C719.607 543.047 718.962 543.538 718.217 543.813C717.473 544.089 716.664 544.136 715.892 543.95C715.12 543.764 714.422 543.353 713.884 542.769C713.347 542.185 712.996 541.454 712.876 540.669C712.755 539.885 712.87 539.082 713.207 538.364C713.544 537.645 714.087 537.043 714.767 536.634C715.448 536.225 716.234 536.027 717.027 536.067C718.076 536.119 719.063 536.581 719.774 537.355C720.485 538.128 720.863 539.15 720.827 540.2Z" fill="#41474E"/>
<path d="M753.274 184.407C753.245 185.2 752.981 185.966 752.515 186.609C752.049 187.252 751.403 187.741 750.658 188.015C749.913 188.289 749.104 188.336 748.333 188.149C747.561 187.961 746.863 187.549 746.327 186.964C745.791 186.379 745.441 185.647 745.322 184.863C745.203 184.078 745.319 183.276 745.657 182.558C745.996 181.84 746.54 181.238 747.22 180.83C747.901 180.422 748.688 180.226 749.48 180.267C750.53 180.32 751.516 180.785 752.226 181.559C752.935 182.334 753.312 183.357 753.274 184.407Z" fill="#41474E"/>
<path d="M785.12 206.98C785.092 207.773 784.828 208.539 784.362 209.182C783.897 209.824 783.251 210.314 782.507 210.588C781.762 210.863 780.953 210.909 780.182 210.723C779.411 210.536 778.713 210.124 778.176 209.54C777.64 208.955 777.289 208.225 777.169 207.44C777.049 206.656 777.165 205.854 777.502 205.136C777.839 204.418 778.382 203.816 779.062 203.407C779.742 202.998 780.528 202.801 781.32 202.84C782.371 202.892 783.359 203.355 784.07 204.13C784.781 204.905 785.159 205.929 785.12 206.98Z" fill="#41474E"/>
<path d="M906.306 178.3C906.279 179.093 906.016 179.86 905.551 180.504C905.087 181.147 904.441 181.638 903.697 181.913C902.953 182.189 902.143 182.236 901.371 182.05C900.6 181.864 899.901 181.453 899.364 180.869C898.827 180.285 898.476 179.554 898.355 178.769C898.234 177.985 898.35 177.182 898.687 176.464C899.024 175.745 899.567 175.143 900.247 174.734C900.927 174.325 901.714 174.127 902.506 174.167C903.556 174.219 904.542 174.681 905.253 175.455C905.964 176.228 906.343 177.25 906.306 178.3Z" fill="#41474E"/>
<path d="M908 203.46C907.972 204.253 907.708 205.019 907.242 205.662C906.777 206.304 906.131 206.794 905.387 207.068C904.642 207.343 903.833 207.39 903.062 207.203C902.291 207.016 901.593 206.605 901.056 206.02C900.52 205.436 900.169 204.705 900.049 203.921C899.929 203.136 900.045 202.334 900.382 201.616C900.719 200.898 901.262 200.296 901.942 199.887C902.622 199.478 903.408 199.281 904.2 199.32C905.251 199.372 906.239 199.835 906.95 200.61C907.661 201.385 908.038 202.409 908 203.46Z" fill="#41474E"/>
<path d="M391.233 690.453C391.206 691.246 390.943 692.013 390.479 692.656C390.014 693.3 389.369 693.79 388.625 694.066C387.881 694.342 387.072 694.39 386.301 694.205C385.529 694.019 384.831 693.609 384.293 693.025C383.756 692.442 383.404 691.711 383.282 690.927C383.161 690.143 383.276 689.341 383.611 688.622C383.947 687.903 384.489 687.301 385.169 686.891C385.848 686.481 386.634 686.282 387.426 686.32C388.477 686.37 389.465 686.832 390.178 687.606C390.89 688.379 391.269 689.402 391.233 690.453Z" fill="#41474E"/>
<path d="M632.053 628.62C632.026 629.413 631.763 630.18 631.298 630.824C630.834 631.467 630.188 631.958 629.444 632.233C628.7 632.509 627.89 632.556 627.119 632.37C626.347 632.184 625.648 631.773 625.111 631.189C624.574 630.605 624.223 629.874 624.102 629.089C623.982 628.305 624.097 627.502 624.434 626.784C624.771 626.065 625.314 625.463 625.994 625.054C626.674 624.645 627.461 624.447 628.253 624.487C629.303 624.539 630.289 625.001 631 625.775C631.711 626.548 632.09 627.57 632.053 628.62Z" fill="#41474E"/>
<path d="M255.414 705.427C255.375 706.007 255.165 706.564 254.811 707.025C254.456 707.486 253.972 707.832 253.42 708.018C252.869 708.204 252.275 708.223 251.713 708.071C251.151 707.919 250.647 707.604 250.264 707.165C249.882 706.726 249.638 706.184 249.564 705.607C249.49 705.029 249.589 704.443 249.848 703.922C250.108 703.401 250.516 702.969 251.021 702.68C251.527 702.391 252.106 702.259 252.687 702.3C253.071 702.326 253.447 702.428 253.792 702.599C254.137 702.771 254.445 703.008 254.698 703.299C254.951 703.589 255.145 703.926 255.267 704.291C255.39 704.657 255.44 705.042 255.414 705.427Z" fill="#41474E"/>
<path d="M188.047 707.62C188.007 708.2 187.796 708.756 187.441 709.216C187.085 709.677 186.601 710.021 186.05 710.207C185.498 710.392 184.904 710.409 184.343 710.257C183.781 710.104 183.278 709.788 182.896 709.349C182.514 708.911 182.271 708.368 182.197 707.791C182.124 707.214 182.223 706.628 182.483 706.108C182.742 705.587 183.15 705.155 183.656 704.867C184.161 704.578 184.74 704.446 185.32 704.487C185.705 704.513 186.081 704.615 186.427 704.787C186.772 704.958 187.08 705.197 187.334 705.488C187.587 705.779 187.78 706.117 187.903 706.483C188.025 706.849 188.074 707.235 188.047 707.62Z" fill="#41474E"/>
<path d="M321.653 698.06C321.614 698.641 321.405 699.197 321.05 699.658C320.695 700.12 320.211 700.465 319.66 700.652C319.108 700.838 318.514 700.856 317.952 700.704C317.39 700.552 316.886 700.237 316.504 699.798C316.121 699.36 315.877 698.817 315.803 698.24C315.729 697.663 315.828 697.076 316.088 696.555C316.347 696.034 316.755 695.602 317.261 695.313C317.766 695.025 318.346 694.892 318.926 694.933C319.311 694.96 319.686 695.061 320.031 695.233C320.376 695.404 320.684 695.642 320.937 695.932C321.19 696.222 321.384 696.56 321.507 696.925C321.629 697.29 321.679 697.676 321.653 698.06Z" fill="#41474E"/>
<path d="M251.953 657.933C251.914 658.514 251.703 659.069 251.347 659.53C250.991 659.99 250.507 660.335 249.956 660.52C249.404 660.705 248.81 660.722 248.249 660.57C247.688 660.417 247.184 660.102 246.802 659.663C246.42 659.224 246.177 658.682 246.104 658.105C246.03 657.528 246.129 656.942 246.389 656.421C246.648 655.9 247.057 655.468 247.562 655.18C248.067 654.891 248.646 654.759 249.227 654.8C249.612 654.826 249.987 654.928 250.333 655.1C250.678 655.272 250.987 655.51 251.24 655.801C251.493 656.092 251.687 656.43 251.809 656.796C251.931 657.162 251.98 657.548 251.953 657.933Z" fill="#41474E"/>
<path d="M474.207 601.173C474.167 601.754 473.956 602.31 473.6 602.77C473.244 603.231 472.76 603.575 472.208 603.76C471.656 603.945 471.062 603.962 470.5 603.809C469.939 603.655 469.435 603.339 469.054 602.9C468.672 602.46 468.43 601.917 468.357 601.34C468.284 600.762 468.385 600.176 468.645 599.656C468.906 599.136 469.315 598.704 469.821 598.416C470.327 598.129 470.907 597.998 471.487 598.04C471.872 598.066 472.247 598.168 472.593 598.34C472.938 598.512 473.246 598.75 473.498 599.041C473.751 599.332 473.944 599.671 474.065 600.037C474.187 600.402 474.235 600.789 474.207 601.173Z" fill="#41474E"/>
<path d="M593.66 567.82C593.616 568.399 593.402 568.952 593.044 569.41C592.687 569.868 592.202 570.209 591.65 570.391C591.098 570.573 590.505 570.588 589.945 570.433C589.386 570.279 588.884 569.962 588.504 569.522C588.124 569.083 587.883 568.541 587.811 567.965C587.739 567.388 587.839 566.804 588.099 566.284C588.359 565.765 588.766 565.334 589.271 565.046C589.775 564.758 590.354 564.626 590.933 564.667C591.709 564.721 592.431 565.081 592.942 565.667C593.453 566.253 593.711 567.018 593.66 567.793" fill="#41474E"/>
<path d="M815.813 229.473C815.775 230.054 815.565 230.61 815.211 231.071C814.856 231.533 814.373 231.878 813.822 232.065C813.271 232.251 812.677 232.27 812.115 232.119C811.553 231.967 811.049 231.653 810.666 231.215C810.283 230.777 810.039 230.235 809.964 229.658C809.889 229.081 809.987 228.495 810.245 227.974C810.504 227.453 810.911 227.02 811.416 226.73C811.92 226.441 812.499 226.307 813.08 226.347C813.465 226.372 813.841 226.473 814.187 226.644C814.532 226.815 814.841 227.053 815.095 227.343C815.349 227.633 815.543 227.971 815.666 228.337C815.79 228.702 815.839 229.088 815.813 229.473Z" fill="#41474E"/>
<path d="M641.773 639.2C641.735 639.78 641.525 640.337 641.171 640.798C640.816 641.259 640.333 641.605 639.782 641.791C639.231 641.978 638.637 641.997 638.075 641.845C637.513 641.694 637.009 641.379 636.626 640.941C636.243 640.503 635.999 639.962 635.924 639.385C635.849 638.808 635.947 638.222 636.205 637.7C636.464 637.179 636.871 636.746 637.376 636.457C637.88 636.167 638.459 636.034 639.04 636.073C639.817 636.126 640.54 636.485 641.053 637.071C641.565 637.658 641.824 638.423 641.773 639.2Z" fill="#41474E"/>
<path d="M296.266 558.327C296.228 558.907 296.018 559.464 295.663 559.925C295.308 560.386 294.824 560.732 294.273 560.918C293.721 561.104 293.127 561.123 292.565 560.971C292.003 560.819 291.499 560.504 291.117 560.065C290.734 559.626 290.491 559.084 290.416 558.507C290.342 557.929 290.441 557.343 290.701 556.822C290.96 556.301 291.369 555.869 291.874 555.58C292.379 555.291 292.959 555.159 293.54 555.2C293.924 555.226 294.299 555.328 294.644 555.499C294.989 555.671 295.297 555.908 295.55 556.198C295.804 556.489 295.997 556.826 296.12 557.191C296.243 557.557 296.292 557.942 296.266 558.327Z" fill="#41474E"/>
<path d="M381.573 463.893C381.534 464.474 381.323 465.029 380.967 465.49C380.612 465.95 380.127 466.295 379.576 466.48C379.024 466.665 378.43 466.682 377.869 466.53C377.308 466.377 376.804 466.062 376.422 465.623C376.04 465.184 375.797 464.642 375.724 464.065C375.65 463.487 375.749 462.902 376.009 462.381C376.269 461.86 376.677 461.428 377.182 461.14C377.687 460.851 378.266 460.719 378.847 460.76C379.232 460.786 379.608 460.888 379.953 461.06C380.299 461.232 380.607 461.47 380.86 461.761C381.113 462.052 381.307 462.39 381.429 462.756C381.552 463.122 381.601 463.508 381.573 463.893Z" fill="#41474E"/>
<path d="M374.12 417.96C374.08 418.54 373.87 419.096 373.514 419.556C373.158 420.017 372.674 420.361 372.123 420.547C371.571 420.732 370.977 420.749 370.416 420.597C369.855 420.444 369.351 420.128 368.969 419.689C368.587 419.251 368.344 418.708 368.271 418.131C368.197 417.554 368.296 416.968 368.556 416.448C368.815 415.927 369.224 415.495 369.729 415.207C370.234 414.918 370.813 414.786 371.394 414.827C371.778 414.853 372.154 414.955 372.5 415.127C372.845 415.298 373.154 415.537 373.407 415.828C373.66 416.119 373.854 416.457 373.976 416.823C374.098 417.189 374.147 417.575 374.12 417.96Z" fill="#41474E"/>
<path d="M350.407 497.793C350.368 498.374 350.158 498.93 349.804 499.392C349.449 499.853 348.965 500.199 348.414 500.385C347.862 500.571 347.268 500.589 346.706 500.438C346.144 500.286 345.64 499.97 345.257 499.532C344.875 499.093 344.631 498.551 344.557 497.973C344.483 497.396 344.582 496.81 344.841 496.289C345.101 495.768 345.509 495.336 346.015 495.047C346.52 494.758 347.1 494.626 347.68 494.667C348.064 494.693 348.44 494.795 348.785 494.966C349.13 495.137 349.438 495.375 349.691 495.665C349.944 495.956 350.138 496.293 350.261 496.658C350.383 497.023 350.433 497.409 350.407 497.793Z" fill="#41474E"/>
<path d="M255.087 606.427C255.047 607.007 254.836 607.563 254.481 608.023C254.125 608.483 253.641 608.828 253.09 609.013C252.538 609.198 251.944 609.216 251.383 609.063C250.821 608.911 250.318 608.595 249.936 608.156C249.554 607.717 249.311 607.175 249.237 606.598C249.164 606.021 249.263 605.435 249.523 604.914C249.782 604.394 250.19 603.962 250.696 603.673C251.201 603.385 251.78 603.252 252.36 603.293C252.745 603.32 253.121 603.421 253.467 603.593C253.812 603.765 254.12 604.003 254.374 604.294C254.627 604.585 254.82 604.924 254.943 605.289C255.065 605.655 255.114 606.042 255.087 606.427Z" fill="#41474E"/>
<path d="M274.506 594.173C274.468 594.754 274.258 595.31 273.903 595.772C273.548 596.233 273.065 596.579 272.513 596.765C271.962 596.951 271.367 596.969 270.806 596.817C270.244 596.666 269.74 596.35 269.357 595.912C268.974 595.473 268.731 594.931 268.657 594.353C268.583 593.776 268.682 593.19 268.941 592.669C269.201 592.148 269.609 591.716 270.114 591.427C270.619 591.138 271.199 591.006 271.78 591.047C272.164 591.072 272.54 591.173 272.886 591.344C273.231 591.515 273.539 591.753 273.793 592.043C274.046 592.334 274.24 592.672 274.362 593.037C274.485 593.403 274.534 593.789 274.506 594.173Z" fill="#41474E"/>
<path d="M328.973 551.68C328.935 552.261 328.725 552.817 328.37 553.278C328.015 553.74 327.531 554.086 326.98 554.272C326.429 554.458 325.834 554.476 325.272 554.324C324.71 554.172 324.206 553.857 323.824 553.418C323.441 552.98 323.198 552.437 323.124 551.86C323.049 551.283 323.148 550.697 323.408 550.176C323.667 549.655 324.076 549.222 324.581 548.934C325.086 548.645 325.666 548.512 326.247 548.553C326.631 548.58 327.006 548.681 327.351 548.853C327.696 549.024 328.004 549.262 328.257 549.552C328.511 549.842 328.704 550.18 328.827 550.545C328.95 550.91 328.999 551.296 328.973 551.68Z" fill="#41474E"/>
<path d="M261.033 572.3C260.994 572.88 260.783 573.436 260.427 573.896C260.072 574.357 259.587 574.701 259.036 574.887C258.484 575.072 257.89 575.089 257.329 574.937C256.768 574.784 256.264 574.468 255.882 574.029C255.5 573.591 255.257 573.048 255.184 572.471C255.11 571.894 255.209 571.308 255.469 570.788C255.729 570.267 256.137 569.835 256.642 569.547C257.147 569.258 257.726 569.126 258.307 569.167C259.083 569.221 259.807 569.582 260.318 570.169C260.829 570.757 261.086 571.523 261.033 572.3Z" fill="#41474E"/>
<path d="M308.153 507.12C308.114 507.7 307.903 508.255 307.548 508.716C307.193 509.176 306.709 509.521 306.158 509.706C305.607 509.892 305.013 509.91 304.452 509.758C303.891 509.606 303.387 509.291 303.005 508.853C302.623 508.414 302.379 507.873 302.304 507.296C302.23 506.719 302.328 506.134 302.587 505.613C302.845 505.092 303.253 504.659 303.757 504.37C304.261 504.081 304.84 503.947 305.42 503.987C306.197 504.041 306.921 504.402 307.434 504.989C307.946 505.576 308.205 506.342 308.153 507.12Z" fill="#41474E"/>
<path d="M539.62 303.927C539.592 304.72 539.33 305.486 538.865 306.13C538.401 306.773 537.756 307.264 537.012 307.54C536.268 307.815 535.459 307.863 534.688 307.678C533.916 307.493 533.217 307.082 532.68 306.499C532.142 305.915 531.791 305.185 531.669 304.401C531.548 303.617 531.662 302.814 531.998 302.095C532.334 301.377 532.876 300.774 533.555 300.364C534.235 299.954 535.021 299.756 535.813 299.793C536.863 299.844 537.852 300.305 538.564 301.079C539.277 301.853 539.656 302.876 539.62 303.927Z" fill="#41474E"/>
<path d="M404.419 362.16C404.392 362.953 404.129 363.72 403.665 364.364C403.2 365.007 402.554 365.498 401.81 365.773C401.066 366.049 400.256 366.096 399.485 365.91C398.713 365.724 398.014 365.313 397.477 364.729C396.94 364.145 396.589 363.414 396.468 362.629C396.348 361.845 396.463 361.042 396.8 360.324C397.137 359.605 397.68 359.003 398.36 358.594C399.04 358.185 399.827 357.987 400.619 358.027C401.669 358.079 402.656 358.541 403.367 359.315C404.078 360.088 404.456 361.11 404.419 362.16Z" fill="#41474E"/>
<path d="M306.226 455.707C306.199 456.5 305.936 457.267 305.471 457.91C305.007 458.554 304.361 459.044 303.617 459.32C302.872 459.595 302.063 459.643 301.291 459.457C300.52 459.271 299.821 458.86 299.284 458.276C298.747 457.691 298.396 456.961 298.275 456.176C298.154 455.392 298.27 454.589 298.607 453.87C298.944 453.152 299.487 452.55 300.167 452.141C300.847 451.732 301.633 451.534 302.426 451.573C303.475 451.625 304.462 452.088 305.173 452.861C305.884 453.635 306.262 454.657 306.226 455.707Z" fill="#41474E"/>
<path d="M438.173 499.293C438.146 500.086 437.883 500.854 437.419 501.497C436.954 502.14 436.308 502.631 435.564 502.906C434.82 503.182 434.01 503.23 433.239 503.044C432.467 502.858 431.768 502.447 431.231 501.862C430.694 501.278 430.343 500.547 430.222 499.763C430.102 498.978 430.217 498.176 430.554 497.457C430.891 496.738 431.434 496.136 432.114 495.727C432.794 495.318 433.581 495.121 434.373 495.16C435.423 495.212 436.409 495.674 437.121 496.448C437.832 497.221 438.21 498.243 438.173 499.293Z" fill="#41474E"/>
<path d="M275.16 554.247C275.132 555.04 274.87 555.807 274.405 556.45C273.94 557.094 273.295 557.584 272.55 557.86C271.806 558.135 270.997 558.183 270.225 557.997C269.453 557.811 268.755 557.4 268.217 556.816C267.68 556.231 267.329 555.501 267.209 554.716C267.088 553.932 267.203 553.129 267.54 552.41C267.877 551.692 268.42 551.09 269.1 550.681C269.781 550.272 270.567 550.074 271.36 550.113C272.409 550.165 273.396 550.628 274.107 551.401C274.818 552.175 275.196 553.197 275.16 554.247Z" fill="#41474E"/>
<path d="M484.667 396.453C484.639 397.246 484.376 398.014 483.912 398.657C483.447 399.3 482.801 399.791 482.057 400.066C481.313 400.342 480.503 400.39 479.732 400.204C478.96 400.018 478.261 399.607 477.724 399.022C477.187 398.438 476.836 397.707 476.715 396.923C476.595 396.138 476.71 395.336 477.047 394.617C477.384 393.899 477.927 393.296 478.607 392.887C479.287 392.478 480.074 392.281 480.867 392.32C481.916 392.372 482.903 392.834 483.614 393.608C484.325 394.381 484.703 395.403 484.667 396.453Z" fill="#41474E"/>
</svg>
