<svg fill="none" height="1000" viewBox="0 0 1000 1000" width="1000" xmlns="http://www.w3.org/2000/svg" xmlns:xlink="http://www.w3.org/1999/xlink"><clipPath id="a"><path d="m0 0h1000v1000h-1000z"/></clipPath><g clip-path="url(#a)"><path clip-rule="evenodd" d="m79.132 997.958c-.0377 1.158-1.0075 2.082-2.1704 2.041-1.1653-.031-2.0787-1.003-2.0457-2.171.0353-1.158 1.0052-2.076 2.1681-2.04 1.1676.028 2.0857 1.002 2.048 2.17zm19.6002-20.511c-.0329 1.168-1.0075 2.074-2.1727 2.041-1.1582-.028-2.0787-1.003-2.0386-2.165.0306-1.159 1.0051-2.07 2.1633-2.041 1.1653.037 2.0833 1.012 2.048 2.165zm17.4918-20.565c-.035 1.163-1.009 2.078-2.168 2.045-1.165-.035-2.083-1.017-2.05-2.175.038-1.167 1.01-2.076 2.173-2.045 1.165.042 2.076 1.007 2.045 2.175zm17.444-18.989c-.045 1.448-1.257 2.599-2.712 2.552-1.457-.043-2.599-1.255-2.556-2.712.044-1.455 1.254-2.599 2.709-2.552 1.457.04 2.606 1.255 2.559 2.712zm15.352-19.582c-.045 1.457-1.255 2.601-2.712 2.561-1.455-.047-2.601-1.264-2.554-2.711.038-1.465 1.259-2.604 2.714-2.557 1.453.035 2.599 1.255 2.552 2.707zm14.269-18.561c-.045 1.462-1.259 2.602-2.712 2.561-1.457-.047-2.603-1.259-2.554-2.707.042-1.459 1.259-2.603 2.717-2.556 1.447.04 2.594 1.255 2.549 2.702zm13.214-18.579c-.042 1.452-1.262 2.594-2.714 2.552-1.455-.043-2.599-1.255-2.554-2.712.042-1.457 1.254-2.599 2.712-2.561 1.459.044 2.603 1.264 2.556 2.721zm12.129-17.573c-.045 1.462-1.257 2.599-2.714 2.557-1.455-.043-2.599-1.255-2.55-2.708.038-1.459 1.255-2.603 2.707-2.556 1.455.04 2.601 1.255 2.557 2.707zm11.073-17.595c-.04 1.452-1.259 2.598-2.707 2.556-1.462-.047-2.603-1.255-2.561-2.721.047-1.446 1.259-2.594 2.714-2.547 1.457.04 2.604 1.259 2.554 2.712zm12.113-17.044c-.054 1.747-1.511 3.117-3.258 3.072-1.742-.052-3.116-1.514-3.067-3.26.054-1.743 1.518-3.113 3.258-3.063 1.751.052 3.119 1.509 3.067 3.251zm9.994-16.571c-.05 1.752-1.514 3.122-3.256 3.068-1.749-.052-3.119-1.514-3.07-3.261.052-1.737 1.511-3.116 3.256-3.067 1.749.057 3.121 1.518 3.07 3.26zm9.986-16.574c-.052 1.746-1.516 3.112-3.256 3.067-1.744-.052-3.121-1.514-3.065-3.26.052-1.747 1.507-3.117 3.254-3.063 1.744.047 3.119 1.514 3.067 3.256zm8.908-15.554c-.054 1.746-1.514 3.121-3.263 3.067-1.744-.047-3.117-1.509-3.058-3.251.045-1.751 1.504-3.122 3.249-3.077 1.749.061 3.121 1.514 3.072 3.261zm8.901-15.555c-.052 1.747-1.511 3.117-3.253 3.068-1.747-.052-3.122-1.509-3.067-3.255.051-1.747 1.506-3.121 3.25-3.067 1.747.056 3.12 1.509 3.07 3.254zm8.906-15.554c-.054 1.742-1.511 3.117-3.258 3.067-1.744-.052-3.119-1.509-3.067-3.255.054-1.747 1.511-3.113 3.258-3.063 1.744.052 3.116 1.504 3.067 3.251zm8.887-15.031c-.061 2.041-1.763 3.647-3.797 3.581-2.038-.059-3.641-1.761-3.58-3.802.061-2.032 1.761-3.637 3.799-3.571 2.036.059 3.637 1.756 3.578 3.792zm7.817-14.527c-.057 2.037-1.761 3.642-3.798 3.579-2.038-.062-3.637-1.759-3.578-3.79.061-2.051 1.763-3.647 3.797-3.586 2.041.059 3.64 1.761 3.579 3.797zm8.878-14.503c-.061 2.037-1.766 3.637-3.8 3.578-2.038-.061-3.639-1.763-3.58-3.799.066-2.036 1.765-3.632 3.802-3.576 2.034.064 3.634 1.766 3.578 3.797zm7.816-14.531c-.061 2.041-1.761 3.646-3.804 3.58-2.032-.059-3.635-1.761-3.576-3.802.066-2.031 1.763-3.632 3.802-3.571 2.038.059 3.639 1.761 3.578 3.793zm7.786-13.473c-.059 2.037-1.761 3.633-3.795 3.579-2.041-.066-3.641-1.764-3.582-3.8.066-2.041 1.758-3.642 3.797-3.58 2.041.063 3.641 1.765 3.58 3.801zm8.872-14.5c-.062 2.041-1.754 3.637-3.793 3.578-2.041-.066-3.644-1.759-3.583-3.804.062-2.032 1.764-3.637 3.802-3.571 2.036.058 3.637 1.76 3.574 3.797zm8.843-13.449c-.064 2.041-1.763 3.642-3.799 3.58-2.037-.058-3.644-1.765-3.578-3.801.061-2.037 1.758-3.637 3.797-3.576 2.036.063 3.639 1.761 3.58 3.797zm9.88-12.888c-.073 2.33-2.02 4.157-4.346 4.086-2.325-.063-4.157-2.012-4.086-4.338.068-2.324 2.008-4.162 4.343-4.089 2.323.075 4.155 2.015 4.089 4.341zm9.896-13.411c-.075 2.325-2.022 4.162-4.352 4.086-2.324-.068-4.15-2.013-4.082-4.338.066-2.328 2.013-4.158 4.341-4.089 2.328.07 4.159 2.015 4.093 4.341zm9.857-12.359c-.061 2.326-2.011 4.157-4.334 4.086-2.335-.068-4.164-2.012-4.091-4.343.068-2.333 2.008-4.157 4.343-4.089 2.321.071 4.155 2.011 4.082 4.346zm10.953-13.385c-.071 2.325-2.013 4.157-4.343 4.082-2.331-.064-4.157-2.008-4.091-4.339.065-2.328 2.017-4.157 4.345-4.084 2.326.071 4.157 2.015 4.089 4.341zm10.913-12.331c-.068 2.331-2.01 4.162-4.343 4.096-2.321-.077-4.152-2.017-4.089-4.348.076-2.328 2.015-4.157 4.351-4.089 2.323.071 4.152 2.011 4.081 4.341zm-185.268-516.2038-75.318-48.338-4.531-16.83373 10.845-3.38747c34.307 10.645 68.613 21.2923 102.919 31.9397l58.32 39.7621c.83-.0165 1.675.1577 2.472.5438 1.31.6379 2.25 1.7326 2.723 2.9991l1.246.8498 73.93 26.9825.019-.024.061.052 6.502 2.373 92.749 38.601c1.596-1.565 4.066-2.041 6.191-1.012 1.919.937 3.047 2.848 3.07 4.845l108.147 34.743c1.594-1.351 3.899-1.714 5.897-.746 1.469.718 2.474 2.008 2.874 3.47l58.211 17.21c1.556-1.914 4.28-2.575 6.594-1.455.993.485 1.775 1.231 2.302 2.119l33.333-9.525 36.18-12.455 32.857 7.041 41.239-21.796 51.892 14.913 38.475 31.805c1.497-.826 3.356-.937 5.011-.136 2.479 1.21 3.637 4.051 2.802 6.596l.798.659-1.036-.059-.04.092c-1.316 2.712-4.579 3.835-7.288 2.523-1.375-.666-2.343-1.833-2.787-3.175l-2.839-.158-1.846.462c-.033.713-.209 1.431-.541 2.113-1.316 2.712-4.579 3.835-7.289 2.524-2.467-1.196-3.622-4.007-2.81-6.542l-39.89-25.72-27.372-6.843-16.698 18.554c1.606 1.587 2.114 4.075 1.093 6.215l31.53 22.497 34.84 46.128 47.904-3.42 5.372-26.368c-.343-.087-.682-.212-1.012-.372-2.707-1.314-3.835-4.574-2.514-7.281 1.311-2.714 4.574-3.84 7.279-2.531 1.932.944 3.062 2.879 3.069 4.894l3.833.153c.052-.652.226-1.304.532-1.928 1.311-2.714 4.574-3.839 7.278-2.53 2.708 1.32 3.84 4.585 2.524 7.288-.565 1.163-1.488 2.034-2.571 2.545l4.911 43.637-40.045 32.499c-.475.54-.944 1.079-1.405 1.62l-26.831 46.824c2.17 1.509 2.982 4.414 1.793 6.86-.638 1.314-1.732 2.253-2.999 2.724 2.63 12.535 4.972 22.095 7.382 30.065 1.705 1.363 2.444 3.635 1.844 5.742 7.029 20.666 15.362 31.255 33.3 63.693.704.038 1.412.212 2.088.539 2.707 1.319 3.839 4.584 2.524 7.286-.314.643-.735 1.196-1.234 1.648l10.56 46.989 3.004 37.863-9.449 6.075-27.444-16.704-112.398-5.033c-.049.125-.104.25-.162.372-1.316 2.712-4.579 3.835-7.289 2.524-1.897-.921-3.02-2.797-3.065-4.77l-83.262-28.277c-1.34 2.653-4.565 3.743-7.246 2.444-1.984-.963-3.119-2.968-3.065-5.038l-131.49-19.242c-1.32 2.698-4.574 3.814-7.276 2.505-1.509-.732-2.528-2.067-2.905-3.576-13.872 1.133-21.671 1.707-28.886 2.637-.073.56-.238 1.118-.499 1.652-1.316 2.712-4.579 3.835-7.288 2.524-1.154-.56-2.02-1.474-2.533-2.55-4.84.895-10.431 2.081-18.047 3.774.471 1.328.431 2.834-.233 4.197-1.315 2.712-4.578 3.835-7.288 2.524-1.087-.528-1.918-1.368-2.438-2.359l-60.641 40.426c.448 1.311.398 2.794-.254 4.136-1.316 2.712-4.579 3.835-7.288 2.524-2.707-1.314-3.835-4.574-2.514-7.281 1.311-2.715 4.574-3.84 7.279-2.531.136.068.273.141.402.219l47.502-51.589c-1.113-1.57-1.358-3.684-.452-5.539 1.053-2.18 3.364-3.336 5.634-3.025l5.687-13.715c-1.697-1.589-2.243-4.157-1.17-6.358.497-1.029 1.276-1.829 2.196-2.356l-3.159-15.346c-2.269-4.737-5.468-11.453-9.209-19.278-1.262.377-2.662.299-3.938-.317-2.707-1.314-3.835-4.574-2.514-7.281.424-.881 1.052-1.594 1.803-2.11-13.138-27.403-30.242-62.66-38.526-77.299-1.512.866-3.411.993-5.097.176-2.707-1.313-3.835-4.574-2.516-7.281.416-.864 1.033-1.568 1.768-2.083-15.723-22.849-34.638-43.376-52.26-64.847-1.245.358-2.625.275-3.882-.334-2.707-1.314-3.835-4.574-2.516-7.281l.117-.229-53.32-70.536c-1.149.249-2.386.127-3.526-.424-2.707-1.314-3.835-4.574-2.517-7.281.19-.393.421-.751.686-1.074l-35.094-65.331-44.553-52.7026c-1.384.5649-2.993.5602-4.445-.1413-2.43-1.1794-3.588-3.9289-2.843-6.4359zm728.358 508.0188-5.452-5.706-1.509 9.503.542.33zm-20.042-20.955-11.919 9.533 23.915 14.558 1.573-9.911-13.548-14.173zm-511.075 16.847c-.068 2.326-2.01 4.158-4.345 4.087-2.324-.068-4.155-2.013-4.082-4.338.066-2.333 2.015-4.162 4.338-4.094 2.328.07 4.164 2.015 4.089 4.345zm529.493-25.722-3.364 21.203 5.395 5.645c-.682-8.92-1.245-17.896-2.031-26.848zm-16.566 7.391 12.178 12.743 3.95-24.887-.068-.702zm-14.84 10.368 11.724-9.381-9.657-3.795-32.029 11.782 29.873 1.34zm-470.356-3.174c-.963 2.011-3.371 2.861-5.377 1.895-2.015-.962-2.86-3.371-1.9-5.379.956-2.005 3.374-2.855 5.377-1.89 2.008.961 2.856 3.369 1.9 5.374zm399.592-19.538-.302-.509.219.549-42.078 16.798c.051.252.087.511.103.77l78.703 3.524 14.602-20.609-29.828-13.193zm52.346 1.007-13.566 19.151 23.397-14.81-.158-.061zm-10.774 18.774 29.612-10.892-7.649-3.006zm-84.096-4.066 41.961-16.751 20.916-12.368-31.21-25.636-100.059 14.567 58.811 39.508c1.455-2.328 4.463-3.223 6.987-2.003 1.198.586 2.088 1.551 2.594 2.683zm-93.1-28.206 81.777 27.773-58.736-39.456-23.481 9.365c.313.727.466 1.52.44 2.318zm-248.523 22.825c-.963 2.01-3.371 2.855-5.382 1.9-2.001-.968-2.85-3.376-1.895-5.384.968-2.006 3.374-2.855 5.384-1.89 2.006.956 2.855 3.361 1.893 5.374zm20.517-43.653c-1.532.934-3.493 1.094-5.225.254-.109-.052-.212-.106-.314-.165l-41.344 44.897 51.768-41.187zm439.785 41.631 8.454 3.322 14.884-11.907zm-490.349-3.234c-.031 2.224-1.858 4.009-4.085 3.971-2.231-.021-4.009-1.853-3.983-4.077.026-2.225 1.86-4.009 4.087-3.976 2.225.026 4.007 1.857 3.981 4.082zm506.166-53.43c-1.424.68-3.131.737-4.666.016l-33.573 47.385 9.193 4.065 1.716.674 33.613-21.272c.21.332.419.664.629.996l-32.884 20.81 8.507 3.343 26.978-9.925c-1.62-15.629-4.19-31.127-9.513-46.092zm-446.896 21.805-1.909-1.485-42.208 33.58 43.01-28.672c-.021-.84.156-1.7.551-2.509.158-.328.344-.634.556-.914zm-15.335 27.326c-.958 2.01-3.366 2.856-5.376 1.89-2.008-.96-2.858-3.366-1.893-5.372.958-2.008 3.371-2.857 5.374-1.897 2.011.961 2.865 3.369 1.895 5.379zm455.308-51.078-61.139 36.158 28.726 12.705 33.66-47.512c-.496-.381-.915-.84-1.247-1.351zm-488.229 43.804c-.03 2.229-1.857 4.009-4.084 3.985-2.222-.035-4.007-1.862-3.983-4.086.038-2.225 1.862-4.009 4.094-3.981 2.219.026 4.001 1.853 3.973 4.082zm45.457-.786c-.963 2.01-3.371 2.86-5.382 1.9-2-.968-2.85-3.371-1.895-5.384.968-2.006 3.374-2.856 5.384-1.89 2.006.955 2.853 3.361 1.893 5.374zm17.158-5.308c-.962 2.01-3.371 2.86-5.381 1.899-2.001-.967-2.853-3.371-1.897-5.381.97-2.003 3.375-2.858 5.386-1.893 2.005.956 2.853 3.362 1.892 5.375zm424.752-40.29-91.892 13.38 29.997 24.643.295.129 61.935-36.627c-.184-.487-.297-1.002-.335-1.525zm-476.91 34.044c-.028 2.225-1.855 4.004-4.084 3.976-2.227-.026-4.009-1.857-3.976-4.082.025-2.224 1.857-4.009 4.081-3.98 2.225.026 4.014 1.857 3.979 4.086zm137.285-40.548-23.528 21.174c.998 1.043 1.539 2.444 1.513 3.873l129.442 18.943-98.524-42.298c-1.596 1.625-4.105 2.126-6.268 1.083-1.234-.6-2.14-1.605-2.635-2.775zm111.502 42.085-19.845-45.795-81.2 1.951c-.045.678-.219 1.359-.534 2.008-.08.167-.17.33-.266.485l100.157 42.999c.445-.685 1.024-1.24 1.688-1.648zm7.29 1.455 23.873-9.52 68.34-40.597-118.079 2.836 19.638 45.318c1.323-.466 2.822-.421 4.183.235.843.412 1.535 1.013 2.045 1.728zm-193.453-4.776c-.962 2.01-3.371 2.86-5.381 1.9-2.001-.968-2.853-3.371-1.897-5.382.967-2.003 3.375-2.858 5.386-1.892 2.003.955 2.853 3.361 1.892 5.374zm220.44-5.226 97.573-14.204-30.913-25.396zm-272.923-4.19c-.031 2.229-1.857 4.009-4.084 3.985-2.222-.035-4.007-1.862-3.983-4.087.037-2.224 1.862-4.008 4.093-3.98 2.22.026 4.002 1.852 3.974 4.082zm46.078-8.498c-1.53 2.059-4.357 2.801-6.751 1.643-.495-.24-.935-.544-1.316-.897l-10.367 8.246 1.855 1.443c1.473-.763 3.274-.843 4.882-.066.527.257.993.589 1.396.977l18.879-4.24c.021-.508.116-1.021.287-1.52zm-17.008-17.863c-1.32.793-2.957 1.01-4.489.513l-5.525 13.326c2.293 1.474 3.178 4.464 1.959 6.968-.106.217-.224.424-.354.617l5.071 3.946 10.935-8.699c-.568-1.384-.563-2.994.146-4.446.273-.565.628-1.062 1.049-1.481zm72.599 16.881 9.849-13.865-46.311 20.275.01.026 29.112-2.387c.087-.457.238-.911.452-1.349 1.248-2.585 4.268-3.729 6.888-2.7zm-.078-30.443-20.478 9.949c.033.861-.141 1.744-.543 2.575-1.321 2.712-4.579 3.835-7.289 2.523-.419-.204-.8-.454-1.139-.741l-25.226 12.25c.384 1.232.332 2.597-.24 3.852l8.769 5.527c1.436-2.389 4.484-3.322 7.036-2.086l.094.05 53.115-27.288c-.469-1.203-.514-2.569-.043-3.849l-5.002-2.364c-1.53 2.086-4.369 2.842-6.775 1.676-.982-.475-1.754-1.205-2.279-2.074zm15.419 8.579-52.502 26.972c.061.083.118.165.172.247l48.163-21.085 4.282-6.029-.091-.082zm-107.985 18.396c-.03 2.23-1.857 4.009-4.084 3.986-2.222-.035-4.006-1.862-3.983-4.087.038-2.224 1.862-4.009 4.094-3.981 2.22.026 4.002 1.853 3.973 4.082zm104.588-11.315-10.847 15.273 22.766-20.49zm317.04-65.247-88.919 52.822 31.912 26.214 93.17-13.566c.08-.532.243-1.062.492-1.572.669-1.387 1.851-2.359 3.209-2.802-9.306-21.184-22.408-40.56-33.757-60.769-1.526.915-3.47 1.064-5.191.233-.329-.16-.635-.349-.916-.56zm-347.037 41.466-52.135 15.447c.381 1.264.306 2.667-.316 3.946-.296.609-.689 1.139-1.156 1.577l8.772 10.72c1.542-.984 3.545-1.168 5.31-.313.648.315 1.206.744 1.66 1.25l24.948-12.116c-.643-1.422-.671-3.11.064-4.624 1.316-2.714 4.578-3.839 7.283-2.53 1.097.534 1.933 1.386 2.455 2.392l20.332-9.876c-.07-.635-.026-1.287.137-1.928l-8.221-3.886c-1.485 2.253-4.439 3.102-6.928 1.9-.936-.455-1.683-1.142-2.205-1.959zm-66.154 22.347c-.03 2.225-1.857 4.009-4.084 3.981-2.222-.031-4.006-1.86-3.983-4.087.038-2.225 1.862-4.009 4.094-3.978 2.22.028 4.002 1.852 3.973 4.084zm107.945-6.737c-1.455 2.358-4.48 3.272-7.022 2.041-.104-.05-.205-.104-.304-.16l-3.142 4.425 11.777-5.155c-.007-.165-.005-.33.005-.497zm81.617-19.442-69.691 18.674c.099.299.174.608.219.918l80.746-1.939-6.436-14.85c-.824.012-1.662-.162-2.453-.546-1.05-.508-1.86-1.309-2.385-2.257zm-71.177 16.379 20.801-11.137-30.433 11.172c.021.655-.076 1.321-.302 1.964l1.015.508c.085-.294.195-.584.332-.866 1.316-2.714 4.578-3.84 7.283-2.531.49.238.925.539 1.304.89zm-53.039-16.266-24.807-8.025-20.84 5.435-8.232 18.566c.906.509 1.615 1.243 2.09 2.1l52.067-15.428c-.306-.836-.41-1.747-.278-2.648zm133.759-.132c-.762 1.386-2.05 2.319-3.488 2.669l6.487 14.972 116.476-2.799zm-10.035-1.196-34.089 1.419c-.082.507-.24 1.008-.473 1.493-1.321 2.712-4.579 3.835-7.288 2.523-.593-.289-1.111-.67-1.544-1.118l-26.497 14.188.101.148.092.151 69.731-18.684-.005-.014zm-178.686 16.841 7.86-17.721-13.373 3.486c1.116 3.87 2.232 8.392 3.458 14.023.68-.061 1.377.005 2.055.212zm401.496-54.694-210.948 36.904 120.428 14.96 1.945 1.599 89.004-52.875c-.158-.186-.299-.383-.429-.588zm-274.401 32.356c-.066.189-.144.377-.233.56-1.321 2.712-4.579 3.835-7.288 2.524-1.036-.501-1.839-1.288-2.361-2.217l-11.022 4.467c.132 1.017-.021 2.084-.501 3.075-1.321 2.712-4.579 3.835-7.289 2.523-.809-.393-1.478-.962-1.979-1.636l-12.743 5.165c.302 1.156.229 2.413-.289 3.581l4.931 2.33c1.465-2.316 4.464-3.206 6.983-1.989 1.115.544 1.963 1.419 2.481 2.45l36.198-13.288c-.339-1.17-.29-2.458.223-3.654zm-15.014-8.215c-1.559 1.944-4.299 2.62-6.632 1.492-.612-.299-1.144-.694-1.584-1.163l-38.076 15.042c.068.798-.04 1.618-.344 2.402l8.098 3.827c1.337-2.662 4.564-3.754 7.245-2.457.723.353 1.335.845 1.815 1.429l12.849-5.208c-.24-1.141-.118-2.368.431-3.498 1.315-2.714 4.578-3.839 7.283-2.53.951.461 1.704 1.163 2.227 1.996l11.13-4.51c-.075-.935.092-1.9.532-2.804.169-.351.369-.673.6-.968zm-9.32-1.408-49.498 2.95c-.04.696-.215 1.395-.539 2.062-.229.473-.518.897-.855 1.266l5.593 6.325c1.54-.965 3.524-1.139 5.278-.289 1.408.687 2.389 1.902 2.82 3.291l37.573-14.842c-.144-.245-.268-.502-.372-.763zm-115.838-5.565c-.066.184-.141.365-.228.546-.25.511-.567.965-.937 1.358 3.385 6.625 5.763 11.698 8.056 19.132l15.266-3.983 1.843-4.158c-2.086-1.219-3.089-3.658-2.54-5.951zm56.027 10.65-10.678 2.784 22.985 7.437c.058-.155.124-.311.2-.462.277-.579.647-1.085 1.08-1.508l-5.544-6.272c-1.575 1.123-3.696 1.373-5.558.471-1.118-.544-1.968-1.419-2.485-2.45zm209.281-13.953-102.664 24.023 28.476-1.186.455-.08c-.033-.864.141-1.747.546-2.578 1.316-2.714 4.579-3.839 7.283-2.531 1.394.681 2.369 1.877 2.806 3.247l4.537-.794 29.931-8.02 28.938-11.419c-.117-.215-.221-.436-.308-.662zm-25.393-9.48c-.04.095-.082.189-.127.283-1.318 2.712-4.579 3.835-7.288 2.524-1.017-.495-1.813-1.262-2.338-2.173l-71.605 31.407 106.398-24.896.014-.177.031-.242zm-64.56 14.711-17.563 16.382 69.463-30.469zm-18.783 15.908 16.349-15.249-32.777 8.896c.294.796.404 1.657.303 2.514l7.413 4.056c1.514-2.135 4.39-2.919 6.817-1.744.763.372 1.403.899 1.895 1.527zm-124.776-7.549c-.04.099-.082.195-.129.29-1.21 2.486-4.044 3.634-6.594 2.801l-1.462 3.296 15.457-4.033zm376.384-67.926-22.375 8.833c.2 1.099.066 2.269-.457 3.349-1.321 2.712-4.579 3.835-7.288 2.524-.935-.452-1.679-1.137-2.201-1.949l-23.399 9.235c.197 1.094.061 2.26-.459 3.335-1.321 2.712-4.579 3.835-7.289 2.524-.929-.452-1.671-1.13-2.194-1.938l-29.637 11.698c.12 1-.035 2.045-.506 3.018-1.321 2.711-4.579 3.834-7.288 2.523-.826-.4-1.504-.981-2.011-1.674l-27.236 10.751c.026.845-.148 1.709-.541 2.524-1.321 2.712-4.579 3.835-7.288 2.523-.667-.324-1.239-.765-1.7-1.287l-29.233 11.537-.216-.549.153.57-17.166 4.6 193.924-33.924c-.122-1.008.033-2.06.513-3.039.855-1.773 2.54-2.868 4.36-3.049l-5.796-28.573c-.654-.052-1.311-.226-1.935-.527-1.325-.643-2.271-1.752-2.735-3.035zm-366.386 45.071c-1.448 1.645-3.783 2.281-5.897 1.537l-6.429 14.494c2.032 1.163 3.061 3.472 2.66 5.694l9.056 2.931 14.266-3.722c-.028-.852.146-1.725.544-2.547.24-.492.541-.932.894-1.313zm116.749 12.128-17.38 10.428 33.602-9.119 33.189-30.956-16.45 9.868c.165 1.059.021 2.175-.48 3.209-1.321 2.711-4.579 3.834-7.288 2.523-.318-.155-.612-.334-.885-.539l-15.419 9.251c.273 1.17.16 2.439-.405 3.602-1.321 2.712-4.579 3.835-7.288 2.524-.443-.217-.843-.483-1.196-.791zm-22.757 8.406 16.507-37.321-25.826 2.26c.073.93-.095 1.888-.53 2.785-.932 1.916-2.834 3.039-4.823 3.069l1.191 19.53c.334.087.664.207.986.364 2.707 1.321 3.835 4.586 2.524 7.289l-.022.037 5.791 3.169c1.168-.954 2.693-1.389 4.202-1.182zm54.849-30.407 20.033-12.02-57.036 4.991-16.69 37.73c.16.059.318.125.473.2.304.149.589.323.852.518l18.873-11.323c-.626-1.414-.65-3.086.08-4.585 1.316-2.715 4.578-3.84 7.283-2.531.775.377 1.42.913 1.914 1.549l14.882-8.929c-.781-1.483-.873-3.305-.082-4.927 1.316-2.714 4.579-3.839 7.283-2.53.895.435 1.618 1.085 2.135 1.857zm-74.058-1.104-50.515 30.009c.096.285.169.577.216.876l49.247-2.936c-.169-1.061-.024-2.182.483-3.22.972-2.01 3.015-3.15 5.108-3.072l-1.189-19.466c-.433-.087-.862-.233-1.278-.433-.859-.416-1.559-1.031-2.072-1.758zm-84.065 9.028-32.516 10.84c.289.8.39 1.667.28 2.531l21.579 6.979.005-.014c1.196-2.467 4-3.62 6.53-2.827l6.443-14.529c-1.137-.704-1.937-1.775-2.321-2.98zm83.117-11.462-72.554 8.872c.19 1.09.054 2.246-.464 3.315l-.122.233 15.284 17.29c1.568-1.097 3.666-1.332 5.504-.442.607.296 1.137.692 1.575 1.155l50.814-30.186-.03-.178zm97.257-7.067-.094.054-35.593 33.199 52.307-14.195c-.179-1.076-.038-2.215.477-3.27.047-.098.099-.197.153-.291l-13.672-13.152c-.482-.085-.96-.238-1.422-.462-.908-.44-1.638-1.099-2.156-1.883zm-258.029-51.98-.068.083 33.013 64.924c2.401 5.017 4.489 9.179 6.327 12.783 1.031-.144 2.114.007 3.119.494.949.461 1.705 1.163 2.227 1.999l32.802-10.935c-.087-.956.077-1.947.527-2.872.299-.617.697-1.151 1.168-1.591l-78.964-65.094zm313.801 55.993-28.573 12.533c.258.827.322 1.714.162 2.588l25.049 6.718c.057-.153.123-.301.196-.45 1.316-2.714 4.578-3.839 7.283-2.53 1.5.732 2.517 2.062 2.898 3.564l26.81-10.579c-.501-1.137-.614-2.437-.259-3.68l-24.651-8.109c-1.516 2.132-4.391 2.914-6.82 1.739-.873-.423-1.582-1.05-2.095-1.794zm-10.753-19.91c-1.173.525-2.522.633-3.804.242l-15.768 29.6c.527.431.958.949 1.283 1.521l28.477-12.491c-.567-1.384-.565-2.996.144-4.449.15-.315.329-.607.529-.878zm-144.715-19.852-17.02 11.94c.902 1.523 1.045 3.453.219 5.16-1.321 2.712-4.579 3.835-7.288 2.524-.732-.356-1.347-.85-1.832-1.441l-15.965 11.198c.652 1.429.685 3.124-.051 4.642-1.321 2.712-4.579 3.835-7.289 2.524-.546-.264-1.026-.607-1.433-1.01l-20.214 14.181c.164.263.308.539.426.826l72.86-8.912c.054-.643.228-1.288.527-1.905.664-1.368 1.822-2.333 3.154-2.785l-2.203-36.108c-1.073.176-2.21.035-3.263-.473-.221-.109-.43-.229-.628-.361zm138.013 17.992-28.607 13.023c.434 1.302.377 2.766-.266 4.094-.609 1.25-1.629 2.161-2.817 2.653l12.191 11.725c1.288-.925 2.95-1.262 4.529-.857l15.812-29.687c-.32-.284-.602-.605-.842-.951zm-140.393-21.723-72.399-7.189.662 58.263c.343.087.682.211 1.014.371.572.281 1.076.645 1.5 1.079l20.195-14.167c-1.01-1.551-1.205-3.576-.336-5.36 1.316-2.714 4.578-3.84 7.283-2.531.805.393 1.471.958 1.973 1.632l15.925-11.17c-.749-1.469-.822-3.258-.045-4.854 1.316-2.715 4.579-3.84 7.283-2.531.62.304 1.156.706 1.599 1.184l16.789-11.777c-.779-.817-1.278-1.853-1.443-2.95zm-154.844-15.374c-.043.541-.17 1.085-.386 1.612l79.361 65.419c.888-.522 1.914-.788 2.955-.753l-.664-58.211zm353.568 40.939-31.081 13.632c.243 1.074.163 2.227-.294 3.303l24.508 8.063c1.372-2.573 4.543-3.614 7.184-2.335 1.347.656 2.305 1.796 2.762 3.109l29.378-11.593c-.44-1.173-.475-2.496-.028-3.741l-22.387-9.619c-1.347 2.639-4.56 3.72-7.234 2.425-1.396-.678-2.373-1.874-2.808-3.244zm-183.282 18.705 26.585-2.328 16.487-37.276-44.27 37.488c.558.612.963 1.337 1.198 2.116zm85.725-7.653-40.925-32.947-16.876 38.157 57.806-5.059-.005-.061zm-63.017-50.734c-1.328 1.128-3.146 1.57-4.871 1.13l-20.76 53.875.084.04c.266.129.516.275.749.44l45.673-38.677zm-13.035-17.773-15.466 27.674c1.269 1.594 1.591 3.835.647 5.784-.616 1.266-1.657 2.185-2.867 2.672l2.211 36.177c.181-.021.367-.033.551-.033l20.974-54.437c-1.909-1.559-2.571-4.28-1.443-6.594.574-1.191 1.523-2.074 2.637-2.582l-3.426-8.487c-1.212.393-2.565.363-3.818-.174zm160.08 37.029-19.16 31.248c.521.485.935 1.061 1.229 1.692l31.222-13.693c-.085-.951.08-1.938.529-2.858.264-.549.608-1.031 1.01-1.441l-9.677-14.889c-1.478.767-3.289.85-4.901.071-.087-.043-.17-.085-.252-.13zm42.288 7.813-18.83 8.261c.69 1.214.904 2.676.537 4.072l22.476 9.659c1.457-2.34 4.473-3.242 7.001-2.018 1.245.608 2.159 1.629 2.651 2.818l23.203-9.157c-.393-1.06-.456-2.239-.134-3.371l-26.996-9.746c-1.358 2.615-4.553 3.679-7.217 2.392-1.283-.624-2.211-1.681-2.691-2.91zm-44.701-10.527-32.629 14.854c.303 1.2.202 2.512-.379 3.71-.215.44-.481.838-.787 1.191l10.751 13.406c1.281-.692 2.82-.861 4.266-.393l19.402-31.638c-.252-.353-.462-.732-.624-1.13zm-65.099 13.3-37.728-29.213-18.166 15.381 39.941 32.156c1.243-2.521 4.171-3.656 6.754-2.714l10.004-8.835c-1.626-1.591-2.135-4.108-1.083-6.269.085-.176.177-.343.278-.506zm104.011-81.207-8.152 7.198c.69 1.446.739 3.181-.012 4.73-1.32 2.712-4.578 3.834-7.288 2.523-.195-.096-.381-.2-.56-.315l-29.814 26.325c.283 1.182.174 2.462-.395 3.637-1.246 2.554-4.209 3.698-6.813 2.726l-19.468 17.192c.278 1.177.167 2.453-.4 3.623-1.243 2.549-4.197 3.695-6.799 2.73l-14.34 12.663c.223 1.125.096 2.33-.441 3.439-1.214 2.493-4.063 3.642-6.619 2.794l-10.061 8.884.004.005.038.038 28.924-13.167c-.191-1.087-.052-2.243.471-3.312 1.314-2.714 4.576-3.839 7.281-2.53.739.362 1.363.868 1.85 1.471l33.289-15.153c.042-.687.219-1.377.539-2.032 1.316-2.714 4.579-3.839 7.283-2.53.335.162.648.358.933.577l16.461-7.496c-.242-1.139-.117-2.368.436-3.498 1.311-2.714 4.574-3.839 7.279-2.53.8.39 1.464.953 1.968 1.622l18.451-8.4c-.015-.826.162-1.669.55-2.462 1.312-2.714 4.574-3.839 7.279-2.531.471.229.895.518 1.264.853l11.799-5.37c-.344-1.236-.255-2.596.353-3.839.085-.182.181-.354.285-.521l-29.963-26.982c-1.476.758-3.276.838-4.884.062-.257-.125-.499-.267-.728-.424zm75.709 76.553-28.03-16.49-31.916 13.997c.563 1.159.711 2.505.362 3.795l27.008 9.751c1.373-2.578 4.546-3.621 7.187-2.343 1.241.605 2.152 1.622 2.644 2.804l22.427-8.851c-.118-.876-.021-1.792.318-2.663zm-81.89-18.851c-.824.443-1.754.669-2.7.645l-7.526 25.76c.341.088.68.212 1.01.372.642.313 1.198.737 1.65 1.239l19.225-8.433c-.169-1.061-.023-2.184.483-3.222.162-.339.355-.65.574-.937zm-6.94-1.535-15.878 7.227c.739 1.467.807 3.246.04 4.833-.163.332-.356.643-.572.925l9.835 15.134c.278-.106.565-.188.857-.247l7.669-26.252c-.795-.391-1.454-.954-1.951-1.62zm-69.449 6.446-37.09-29.315-20.243 17.14 37.552 29.079c1.549-1.003 3.566-1.194 5.346-.334.793.388 1.452.941 1.951 1.603l13.31-11.752c-1.532-1.598-1.991-4.044-.965-6.153.042-.092.089-.181.139-.268zm163.919-17.319-31.012 13.602 26.666 15.687c.843-.817 1.924-1.332 3.068-1.488l4.946-25.15c-.443-.09-.883-.236-1.309-.441-1.031-.501-1.834-1.283-2.359-2.21zm-58.524.148c-1.339 1.034-3.121 1.408-4.802.935l-5.909 24.755c.384.087.761.221 1.13.4.761.37 1.396.895 1.888 1.518l31.295-13.724zm-8.22-1.897-18.032 8.211c.249 1.149.129 2.387-.424 3.524-.155.32-.339.617-.544.89l12.731 15.44c.431-.226.89-.393 1.363-.495l6.182-25.901c-.537-.476-.968-1.043-1.276-1.669zm134.781-51.226-24.188-14.513-.742.054-35.087 60.384c.2.15.386.31.561.484l19.722-14.159c.456.638.915 1.276 1.372 1.911l-19.821 14.233c.497 1.344.468 2.879-.207 4.268-.732 1.504-2.065 2.521-3.566 2.9l-4.565 23.204c12.519-21.94 18.868-33.319 27.872-43.889l.513-.895.892-.725c8.103-9.164 18.569-18.097 37.244-33.257zm-330.513 19.423-.24.063-3.898 30.262c.193.065.386.145.574.237 2.672 1.304 3.809 4.504 2.568 7.185l21.283 17.135 18.15-15.367-26.071-20.189c-1.594 1.272-3.832 1.592-5.786.645-2.707-1.313-3.835-4.573-2.517-7.281.257-.532.591-1.005.98-1.407l-4.817-11.356zm-39.381 49.463-74.512-84.435.913 80.339 72.366 7.184c.047-.675.221-1.353.537-2.001.19-.397.426-.762.696-1.087zm164.654-22.192-35.508-29.679-26.465 22.41 36.818 29.103c1.574-1.144 3.712-1.401 5.583-.497.742.363 1.363.869 1.851 1.472l18.502-16.337c-1.525-1.599-1.979-4.04-.955-6.144.054-.113.11-.222.174-.328zm-77.055-129.463-66.699 27.15-13.713 123.406c.144.091.28.19.412.296l15.304-27.387c-2.126-1.513-2.907-4.385-1.723-6.812 1.266-2.625 4.362-3.764 7.01-2.651l6.897-12.34c-2.434-1.419-3.397-4.498-2.137-7.079 1.311-2.714 4.574-3.839 7.279-2.53l.176.094 7.693-13.766c-1.965-1.549-2.658-4.308-1.516-6.653 1.231-2.545 4.176-3.693 6.768-2.747l12.592-22.533c-1.5-1.598-1.938-4.018-.918-6.106 1.106-2.296 3.609-3.454 5.988-2.969l19.833-35.489c-.485-.085-.97-.238-1.436-.464-.722-.351-1.33-.838-1.81-1.42zm-82.686 149.713 13.505-121.554-91.424 37.211 74.864 84.832c.939-.449 2.001-.628 3.055-.489zm240.449-17.145c-.087.473-.237.94-.456 1.392l-.052.094 24.741 14.555 31.798-13.946c-.115-.372-.19-.755-.223-1.146zm-401.425 6.804 81.287 8.069-.916-80.47-80.475 71.854c.045.182.08.363.104.547zm210.477-60.674c-.485.311-1.015.542-1.57.683l-4.193 32.434c.7.038 1.403.212 2.074.537 2.707 1.32 3.837 4.585 2.524 7.288l-.026.047 26.431 20.464 20.252-17.15-31.12-24.597c-1.524.904-3.459 1.048-5.17.219-2.707-1.314-3.835-4.574-2.516-7.281.094-.198.2-.386.317-.565zm-131.311-13.91-56.918.565-23.607 71.1c.325.36.598.76.817 1.186l80.671-72.029-.45-.511zm-81.487 70.822 23.326-70.245-26.208.259 2.095 69.538.09.04c.245.121.478.257.697.408zm-1.978-.841-2.081-69.133-50.487.501c-.066.612-.235 1.224-.518 1.808-.339.692-.803 1.283-1.351 1.754l52.001 65.127c.786-.2 1.617-.226 2.436-.057zm425.625-11.106c-1.473 2.276-4.449 3.143-6.951 1.933-.697-.339-1.29-.805-1.761-1.359l-11.521 5.245c.099.238.182.483.245.732l51.662.878zm-229.097-21.516-6.947 12.427c2.147 1.516 2.947 4.404 1.763 6.836-.301.622-.706 1.158-1.182 1.601l3.256 8.065 3.705-28.771c-.2-.04-.4-.094-.595-.158zm269.57 25.52-11.127-55.635-48.173 33.905 11.299 10.179c1.547-1.003 3.564-1.194 5.341-.332 2.178 1.062 3.336 3.383 3.018 5.654l36.064 8.461c.86-1.222 2.164-2.003 3.578-2.232zm-102.784-30.76-34.04-30.798-37.942 32.13 35.266 29.478c1.57-1.109 3.677-1.352 5.527-.457.737.36 1.356.864 1.841 1.462l29.23-25.808c-.974-1.539-1.153-3.533-.296-5.294.12-.252.259-.489.414-.713zm105.915 31.184 34.678-59.68-46.594 3.329 11.217 56.087c.236.069.469.158.699.264zm-236.621-80.445c-.871.412-1.848.591-2.827.499l-3.541 40.125c.838-.024 1.695.151 2.503.541 2.707 1.321 3.837 4.586 2.523 7.288-.115.236-.245.462-.388.671l31.224 24.68 26.49-22.432-33.023-27.601c-1.309.443-2.787.391-4.129-.259-2.446-1.186-3.601-3.959-2.829-6.48zm-23.152 31.361-7.712 13.802c1.848 1.577 2.479 4.256 1.37 6.532-.287.593-.668 1.109-1.113 1.54l4.639 10.934 4.181-32.356c-.461-.085-.918-.236-1.36-.45zm178.851 10.28 17.594 15.843 48.672-34.259-35.12-45.482-46.81 39.103 9.131 16.495c1.415-.629 3.086-.653 4.588.075 2.707 1.32 3.84 4.586 2.524 7.288-.165.337-.358.65-.579.937zm-132.022-89.214c-.469.546-1.036.984-1.66 1.3v59.486c.537.08 1.067.241 1.58.488 2.707 1.32 3.839 4.585 2.523 7.288-.275.562-.63 1.057-1.052 1.476l32.738 27.363 37.98-32.161zm98.736 44.235-23.934 20.266 33.955 30.723c1.518-.892 3.439-1.031 5.141-.207.395.193.76.428 1.085.699l8.004-7.069c-.883-1.516-1.017-3.43-.188-5.128.211-.442.477-.842.784-1.193l-20.351-36.754c-1.062.167-2.185.024-3.225-.48-.476-.231-.899-.52-1.271-.857zm-127.804 2.919-12.448 22.276c2.309 1.469 3.202 4.468 1.98 6.983-.08.162-.167.32-.261.473l7.024 12.116.115-.071.193-.106 3.663-41.501-.073-.045zm288.813-10.529-.026.058c-.784 1.613-2.255 2.665-3.891 2.976l-5.586 27.427 23.936 14.362-4.626-41.106c-.807.007-1.631-.17-2.408-.547-1.309-.635-2.248-1.723-2.719-2.984zm-568.605 28.262 50.459-.499-1.566-52.031-49.446 50.675c.292.579.48 1.208.553 1.855zm51.636-.511 26.634-.266 9.526-28.686-37.721-22.903zm27.879-.277 54.618-.542-45.306-27.507zm152.104-86.42-131.478 24.303-10.551 31.775 48.491 29.442.678.77 93.759-83.719c-.511-.765-.821-1.653-.899-2.571zm174.187 62.239-93.754-40.205 70.73 63.992 24.03-20.348c-.711-.996-1.069-2.21-1.006-3.439zm-172.532-58.764-92.37 82.476 90.6-36.876 4.903-44.124c-.588-.068-1.177-.236-1.739-.509-.528-.254-.994-.583-1.394-.967zm207.723 21.615c-1.582 1.181-3.75 1.457-5.647.539l-.043-.021-20.329 32.923c1.697 1.594 2.246 4.162 1.177 6.358-.436.895-1.083 1.618-1.853 2.136l10.334 18.665 46.512-38.851zm-136.151 58.187v-58.637l-19.755 35.351.148.068c2.708 1.321 3.84 4.586 2.524 7.288-.198.403-.436.77-.709 1.099l15.356 16.347c.668-.725 1.516-1.241 2.436-1.516zm-306.058 1.066 49.458-50.687-.377-.282-68.486-13.178 14.115 62.276c1.132-.233 2.347-.108 3.468.433.725.355 1.339.85 1.822 1.438zm-59.052-71.777c-.308.419-.668.786-1.068 1.092l52.719 69.741c.308-.223.64-.414.986-.567l-14.254-62.881zm455.115 8.369-82.921-1.514 94.514 40.53c1.25-2.366 4.021-3.442 6.509-2.623l20.509-33.211c-.577-.727-.956-1.589-1.104-2.497l-27.135-.497c-.069.207-.153.41-.25.61-1.316 2.712-4.578 3.835-7.288 2.523-1.424-.692-2.41-1.918-2.834-3.321zm-342.921 12.279 36.627 22.238 10.263-30.906zm190.473-32.63c-.09.452-.238.902-.447 1.335-.664 1.365-1.82 2.328-3.152 2.78l-4.819 43.366 65.89-26.817c-.587-1.151-.761-2.5-.431-3.8zm-125.645-35.457-65.365 66.99 47.851-8.845 19.051-57.377c-.252-.078-.499-.177-.741-.294-.285-.137-.549-.297-.796-.474zm-2.003-2.742-115.346 31.702 50.494 37.869 65.977-67.615c-.513-.569-.894-1.238-1.125-1.956zm-139.769 38.413 4.112 18.143 66.622 12.82-49.183-36.885zm566.621 26.74-33.802-27.943 20.77 27.891c1.4-.603 3.046-.614 4.524.101 1.257.615 2.175 1.646 2.665 2.849l2.022-.506 2.822.157c.071-.588.238-1.172.514-1.735.139-.289.301-.56.485-.814zm-40.956-32.161-36.059 2.121c31.414 8.31 33.761 12.721 62.123 31.302.252-.273.527-.518.824-.732l-23.552-31.629-.196-.16zm-375.383-33.54c-.089.421-.231.838-.426 1.24-1.017 2.095-3.197 3.242-5.384 3.049l-18.893 56.902 131.087-24.231c.066-.48.2-.96.402-1.424-53.168-17.074-79.552-25.494-106.786-35.536zm286.859 41.68-1.768-.379-7.083 11.806c1.269.923 2.05 2.33 2.213 3.83l26.996.494c.087-.313.202-.619.351-.92 1.219-2.524 4.126-3.675 6.702-2.769l17.476-19.418-4.063-14.221zm-471.775 7.969 37.485 7.212-3.988-17.587-33.128 9.103c-.069.431-.191.857-.369 1.272zm438.936-15.005-.214-.047-35.619 12.262-29.426 8.409 80.645 1.471c.078-.541.243-1.083.497-1.601.144-.299.311-.579.499-.835zm22.969 17.877 6.888-11.479-27.992-5.998 15.317 18.378c1.547-1.363 3.8-1.775 5.787-.901zm-461.48-5.379 32.813-9.019-5.806-25.612-27.784 32.171c.451.746.719 1.591.777 2.46zm25.356-37.227-28.43-12.837-1.598 45.028c.547.076 1.092.238 1.615.492.596.292 1.116.676 1.55 1.13l28.114-32.554-.355-.268zm-111.362-87.9096c-.087.4567-.236.911-.45 1.3512-.24.4943-.545.9369-.9 1.3206 44.911 53.1898 46.905 57.0288 79.587 117.9048.601-.287 1.253-.462 1.921-.511l1.615-45.515-39.777-17.962.242-.536-.449-.379 19.558-23.164-.119-.132-35.839-30.5132zm119.954 115.8076 20.621-5.669-26.392-19.793zm486.168-3.113 36.352-2.139-43.044-12.371 3.945 13.814 1.161.292zm-444.561-78.401-46.461 53.797 28.347 21.259 116.294-31.96c-.094-.968.069-1.973.528-2.912.042-.09.087-.177.134-.262-22.903-8.707-48.668-19.359-92.651-37.664zm-74.471-27.1797c-.089.4402-.235.8757-.44 1.2994-.351.7204-.838 1.33-1.418 1.8079l-1.551 43.7454c8.039 8.677 17.548 19.206 30.171 33.187l.304.228 46.224-53.521zm-4.113 66.6877 26.417 11.928-25.825-28.606zm-39.787-17.964 38.628 17.441.617-17.41-20.292-22.477zm40.838-44.856c-1.018.4684-2.173.6238-3.305.4049l-17.808 21.0901c6.221 6.078 12.333 12.415 19.631 20.268zm-54.742-8.83c14.052 12.0809 23.599 20.5743 32.784 29.501l17.437-20.6498-.145-.066c-2.077-1.0075-3.224-3.1614-3.049-5.3319zm49.485-.6851-56.191-38.312-15.548 19.9905c7.931 6.7514 14.748 12.5588 20.753 17.7142l48.75 3.5828c.082-.266.185-.5296.31-.7862.449-.9275 1.124-1.6667 1.926-2.1893zm-78.677-2.6412 23.778 1.7467-18.286-15.5673-7.545 9.701c1.274 1.0123 2.01 2.5353 2.053 4.1196zm-55.091-46.5065 45.76 42.8318c1.593-1.6266 4.106-2.1304 6.264-1.0875l.016.0094 7.646-9.8305-1.368-1.1653zm-28.865-4.7081 70.349 45.1482-45.43-42.5211-28.219-14.88458zm89.997 34.7692 15.309-19.6821-97.77-30.34363 14.815 13.86763 66.16 34.894zm-92.082-49.04645 20.49 10.80745-13.445-12.58475-.68-.21187z" fill="#8b98a9" fill-rule="evenodd"/></g></svg>