<svg width="1000" height="1000" viewBox="0 0 1000 1000" fill="none" xmlns="http://www.w3.org/2000/svg">
<path d="M669.706 193.807C670.881 195.036 672.393 195.889 674.052 196.258C675.711 196.627 677.443 196.496 679.027 195.882C680.612 195.267 681.979 194.196 682.955 192.804C683.931 191.413 684.472 189.763 684.511 188.063C684.549 186.364 684.082 184.692 683.17 183.257C682.257 181.823 680.94 180.692 679.385 180.006C677.829 179.321 676.105 179.112 674.431 179.407C672.757 179.701 671.208 180.485 669.98 181.66C669.164 182.439 668.509 183.372 668.054 184.404C667.598 185.437 667.351 186.549 667.325 187.677C667.3 188.805 667.497 189.927 667.906 190.979C668.314 192.03 668.926 192.991 669.706 193.807Z" fill="#F94BA7"/>
<path d="M547.433 258.753C548.607 259.982 550.12 260.835 551.779 261.205C553.438 261.574 555.169 261.443 556.754 260.828C558.339 260.214 559.706 259.143 560.682 257.751C561.658 256.359 562.199 254.709 562.237 253.01C562.275 251.311 561.809 249.638 560.896 248.204C559.984 246.77 558.667 245.639 557.111 244.953C555.556 244.268 553.832 244.059 552.158 244.353C550.484 244.648 548.935 245.432 547.706 246.607C546.06 248.181 545.106 250.346 545.055 252.623C545.004 254.901 545.859 257.106 547.433 258.753Z" fill="#C072CE"/>
<path d="M838.193 603.893C839.367 605.12 840.878 605.971 842.536 606.339C844.193 606.707 845.923 606.575 847.506 605.961C849.088 605.346 850.453 604.276 851.428 602.886C852.403 601.495 852.943 599.847 852.981 598.15C853.019 596.452 852.554 594.782 851.643 593.349C850.731 591.916 849.416 590.786 847.862 590.1C846.309 589.415 844.587 589.206 842.915 589.499C841.242 589.792 839.694 590.574 838.467 591.747C837.649 592.525 836.993 593.457 836.537 594.49C836.08 595.522 835.832 596.635 835.807 597.763C835.781 598.892 835.979 600.014 836.389 601.066C836.798 602.118 837.411 603.079 838.193 603.893Z" fill="#F94BA7"/>
<path d="M149.387 716.707C150.56 717.934 152.071 718.786 153.728 719.155C155.385 719.524 157.115 719.393 158.698 718.779C160.281 718.165 161.646 717.096 162.622 715.706C163.597 714.316 164.139 712.669 164.178 710.971C164.217 709.274 163.752 707.603 162.842 706.169C161.931 704.736 160.616 703.605 159.063 702.919C157.51 702.233 155.789 702.022 154.116 702.315C152.444 702.607 150.895 703.388 149.667 704.56C148.849 705.338 148.194 706.27 147.737 707.303C147.281 708.335 147.032 709.447 147.006 710.575C146.98 711.704 147.177 712.826 147.586 713.878C147.994 714.93 148.606 715.892 149.387 716.707Z" fill="#F94BA7"/>
<path d="M602.807 818.067C603.98 819.296 605.492 820.15 607.151 820.52C608.81 820.891 610.542 820.761 612.127 820.147C613.712 819.533 615.079 818.463 616.056 817.071C617.033 815.68 617.575 814.031 617.614 812.331C617.653 810.632 617.188 808.959 616.276 807.525C615.364 806.09 614.048 804.958 612.493 804.272C610.938 803.585 609.214 803.376 607.54 803.669C605.865 803.962 604.316 804.746 603.087 805.92C601.439 807.494 600.484 809.658 600.432 811.935C600.379 814.213 601.234 816.419 602.807 818.067Z" fill="#C072CE"/>
<path d="M193.427 368.667C194.6 369.894 196.111 370.746 197.768 371.115C199.426 371.484 201.155 371.353 202.738 370.739C204.321 370.125 205.687 369.056 206.662 367.666C207.637 366.276 208.179 364.628 208.218 362.931C208.257 361.234 207.792 359.563 206.882 358.129C205.972 356.696 204.657 355.565 203.104 354.879C201.551 354.193 199.829 353.982 198.156 354.275C196.484 354.567 194.935 355.348 193.707 356.52C192.06 358.094 191.105 360.258 191.052 362.535C191 364.813 191.854 367.019 193.427 368.667Z" fill="#C072CE"/>
<path d="M287.166 790.833C289.341 793.109 292.141 794.689 295.214 795.373C298.286 796.057 301.493 795.815 304.427 794.676C307.362 793.538 309.893 791.555 311.701 788.978C313.508 786.401 314.511 783.345 314.581 780.198C314.652 777.052 313.788 773.954 312.099 771.298C310.409 768.643 307.97 766.548 305.09 765.278C302.209 764.009 299.017 763.622 295.917 764.167C292.817 764.712 289.948 766.164 287.673 768.34C284.624 771.256 282.858 775.264 282.763 779.482C282.668 783.7 284.252 787.783 287.166 790.833Z" fill="#F94BA7"/>
<path d="M361.46 618.9L427.2 642.84L422.713 588.667L361.46 618.9Z" fill="#9E4DB2"/>
<path d="M388.206 581.347L428.933 577.067L447.293 482.767L388.206 581.347Z" fill="#9E4DB2"/>
<path d="M701.06 603.34L746.093 596.593L746.913 517.447L701.06 603.34Z" fill="#9E4DB2"/>
<path d="M631.807 665.573L714.42 635.347L701.873 581.66L631.807 665.573Z" fill="#9E4DB2"/>
<path d="M574.107 743.08L662.767 711.073L555.16 705.76L574.107 743.08Z" fill="#9E4DB2"/>
<path d="M705.194 662.373L662.767 663.067L630.36 724.66L705.194 662.373Z" fill="#9E4DB2"/>
<path d="M312.473 639.76L374.319 646.607L362.906 564.98L312.473 639.76Z" fill="#9E4DB2"/>
<path d="M671.387 651.6L711.807 668.7L742.733 576.4L671.387 651.6Z" fill="#C072CE"/>
<path d="M531.5 682.747L565.167 724.76L639.067 667.213L531.5 682.747Z" fill="#C072CE"/>
<path d="M366.733 570.207L377.54 609.127L410.28 586.547L366.733 570.207Z" fill="#DA5977"/>
<path d="M393.12 501.027L415.133 524.873L430.24 496.72L393.12 501.027Z" fill="#DA5977"/>
<path d="M483.613 420.88L505.62 444.727L520.733 416.573L483.613 420.88Z" fill="#DA5977"/>
<path d="M540.213 695.987L526.273 733.9L566.04 734.667L540.213 695.987Z" fill="#DA5977"/>
<path d="M655.973 645.907L609.807 706.727L649.573 707.5L655.973 645.907Z" fill="#DA5977"/>
<path d="M451.113 668.7L517.127 716.847L540.213 695.987L451.113 668.7Z" fill="#DA5977"/>
<path d="M562.4 442.4L634.874 449.08L577.62 399.113L562.4 442.4Z" fill="#C072CE"/>
<path d="M378.847 479.833L441.713 495.507L400.593 447.027L378.847 479.833Z" fill="#DA5977"/>
<path d="M583.04 451.413L651.507 474.007L592.113 433.5L583.04 451.413Z" fill="#DA5977"/>
<path d="M570.593 484.48L617.606 503.32L577.626 472.053L570.593 484.48Z" fill="#DA5977"/>
<path d="M679.62 397.807L715.42 433.633L690.973 389.153L679.62 397.807Z" fill="#DA5977"/>
<path d="M713.42 514.147L711.14 589.567L734.413 517.62L713.42 514.147Z" fill="#DA5977"/>
<path d="M281.4 639.887L336.647 628.253L300.727 584.92L281.4 639.887Z" fill="#DA5977"/>
<path d="M216.446 622.12L264.906 607.573L236.646 548.087L216.446 622.12Z" fill="#F94BA7"/>
<path d="M491 597.96H515.927L513.007 511.84L491 597.96Z" fill="#F94BA7"/>
<path d="M469.407 711.92L545.014 732.98L470.681 688.16L469.407 711.92Z" fill="#F94BA7"/>
<path d="M731.713 569.433L742.38 496.687L714.12 437.2L731.713 569.433Z" fill="#F94BA7"/>
<path d="M407.326 501.067L502.319 452.72L475.646 407.027L407.326 501.067Z" fill="#9E4DB2"/>
<path d="M468.787 455.36L569.214 436.88L557.54 396.633L468.787 455.36Z" fill="#C072CE"/>
<path d="M343.4 547.16L414.74 537.813L385.727 485.873L343.4 547.16Z" fill="#C072CE"/>
<path d="M299.566 554.313L379.973 590.853L400.2 549.227L299.566 554.313Z" fill="#C072CE"/>
<path d="M613.027 503.92L634.694 525.373L647.687 498.313L613.027 503.92Z" fill="#C072CE"/>
<path d="M631.54 353.713L679.62 405.933L678.013 381.553L631.54 353.713Z" fill="#C072CE"/>
<path d="M702.887 435.113L711.333 509.32L728.787 494.473L702.887 435.113Z" fill="#C072CE"/>
<path d="M274.553 614.407L369.02 593.647L253.066 575.253L274.553 614.407Z" fill="#C072CE"/>
<path d="M641.087 509L646.633 555.46L618.073 566.12L641.087 509Z" fill="#9E4DB2"/>
<path d="M606.38 561.813L638.14 559.42L628.973 593.373L606.38 561.813Z" fill="#9E4DB2"/>
<path d="M561.747 592.053L593.507 589.667L584.34 623.62L561.747 592.053Z" fill="#9E4DB2"/>
<path d="M549.287 560.393L581.374 554.313L580.214 573.487L549.287 560.393Z" fill="#DA5977"/>
<path d="M577.627 565.293L593.84 551.413L600.727 573.487L577.627 565.293Z" fill="#DA5977"/>
<path d="M534.727 524L585.807 495.567L534.187 542.747L534.727 524Z" fill="#C072CE"/>
<path d="M613.113 576.073L625.153 589.387L582.086 613.327L613.113 576.073Z" fill="#9E4DB2"/>
<path d="M528.066 603.02L530.94 585.307L572.773 612.407L528.066 603.02Z" fill="#C072CE"/>
<path d="M433.607 644.073L298.121 645.68L230.567 627.68L193.041 596.18L183.794 564.76L198.847 539.627L214.581 476.033L240.674 448.953L251.801 415.893L282.101 401.547L311.047 365.987L341.334 357.307L373.654 331.373L395.201 312.2L442.987 316.007L493.641 308.507L513.847 312.947L537.627 306.787L543.694 312.6L573.081 323.433L594.014 321.513L609.094 338.38L639.054 347.513L658.787 371.607L682.941 381.153L691.807 396.873L703.527 404.113L734.567 482.967L743.994 498.413L749.154 525.153L743.021 546.207L745.96 554.273L750.814 591.767L729.534 614.333L725.38 634.407L701.374 646.86L678.141 688.587L631.454 694.82L602.094 727.407L575.174 719.06L539.281 733.173L520.901 705.76L488.221 710.34L480.027 682.1L462.641 679.087L454.207 659.967L433.607 644.073Z" stroke="black" stroke-width="2.2" stroke-miterlimit="10"/>
<path d="M433.46 644.847L430.167 609.42L419.613 588.88L429.433 565.293L424.14 537.56L437.487 517.513L443.58 514.847L450.873 484.74L475.647 475.62L495.793 452.193L522.66 452.267L536.993 433.5L549.287 437.633L569.093 434.86L582.64 445.08L617.953 460.733L634.873 479.167L633.98 495.853L651.113 540.3L647.393 555.567L638.04 560.913L634.307 583.247L619.987 596.36L611.36 595.347L598.453 609.873L569.587 614.327L561.94 618.827L543.173 604.493L526.213 600.207L518.76 583.073L506.493 571.867L509.247 548.26L517.127 509.387L547.447 490.807L572.633 484.647L586.753 493.173L602.713 500.427L610 526.473L612.08 538.493L602.1 569.587L585.827 571.66L559.94 574.28L560.807 567.487L544 559.953L540.253 534.62L555.16 512.747L576.38 511.387L585.153 509.147L596.56 527.147L600.78 535.64L588.427 554.133L580.213 557.5L557.62 544.713L561.48 529.027L577.333 525.393" stroke="black" stroke-width="2.2" stroke-miterlimit="10"/>
<path d="M230.567 627.68L218.08 593.987L237.633 577.92L241.8 527.653L231.907 502.387L258.92 474.667L267.273 445.633L299.12 435.113L317.027 402.92L346.08 407.027L359.753 370.58L375.08 352.38L394.893 320.827L449.367 337.733L483.36 316.613L518.98 324.347L535.12 316.327L573.473 332.767L588.72 342.147L631.54 353.713L649.073 381.553L679.593 389.693L686.76 406.267L699.26 411.173L711.473 444.3L731.32 479.993L741.034 495.293L733.06 542.153L743.02 546.207" stroke="black" stroke-width="2.2" stroke-miterlimit="10"/>
<path d="M749.54 592.76L735.726 573.487L723.34 604.707L729.533 614.333" stroke="black" stroke-width="2.2" stroke-miterlimit="10"/>
<path d="M722.773 636.36L714.427 663.813L684 679.053" stroke="black" stroke-width="2.2" stroke-miterlimit="10"/>
<path d="M673.573 689.527L658.54 719.5L613.113 730.407L590.807 743.08L545.013 732.98L528.867 741L487.993 716.627L469.767 710.5L470.68 688.16L447.1 672.68L447.98 663.067L431.033 653.12L433.607 644.073" stroke="black" stroke-width="2.2" stroke-miterlimit="10"/>
<path d="M454.206 659.967L527.786 631.64" stroke="black" stroke-width="2.2" stroke-miterlimit="10"/>
<path d="M527.787 631.64L543.174 604.493" stroke="black" stroke-width="2.2" stroke-miterlimit="10"/>
<path d="M495.794 452.193L498.047 505.8" stroke="black" stroke-width="2.2" stroke-miterlimit="10"/>
<path d="M498.047 505.8L517.127 509.387" stroke="black" stroke-width="2.2" stroke-miterlimit="10"/>
<path d="M357.554 633.12L431.107 627.66" stroke="black" stroke-width="2.2" stroke-miterlimit="10"/>
<path d="M318.813 578.567L377.873 597.96" stroke="black" stroke-width="2.2" stroke-miterlimit="10"/>
<path d="M377.873 597.96L421.866 594.827" stroke="black" stroke-width="2.2" stroke-miterlimit="10"/>
<path d="M299.12 435.113L390.507 528.133" stroke="black" stroke-width="2.2" stroke-miterlimit="10"/>
<path d="M390.507 528.133L424.14 537.56" stroke="black" stroke-width="2.2" stroke-miterlimit="10"/>
<path d="M394.894 320.827L379.894 377.353" stroke="black" stroke-width="2.2" stroke-miterlimit="10"/>
<path d="M379.894 377.353L394.787 463.513" stroke="black" stroke-width="2.2" stroke-miterlimit="10"/>
<path d="M394.787 463.513L443.58 514.847" stroke="black" stroke-width="2.2" stroke-miterlimit="10"/>
<path d="M483.36 316.613L459.373 427.207" stroke="black" stroke-width="2.2" stroke-miterlimit="10"/>
<path d="M459.373 427.207L475.646 475.62" stroke="black" stroke-width="2.2" stroke-miterlimit="10"/>
<path d="M231.907 502.387L318.814 578.567" stroke="black" stroke-width="2.2" stroke-miterlimit="10"/>
<path d="M237.36 576.64L354.3 632.967" stroke="black" stroke-width="2.2" stroke-miterlimit="10"/>
<path d="M649.073 381.553L618.613 376.02" stroke="black" stroke-width="2.2" stroke-miterlimit="10"/>
<path d="M618.613 376.02L569.093 434.86" stroke="black" stroke-width="2.2" stroke-miterlimit="10"/>
<path d="M569.661 330.78L538.907 354.873" stroke="black" stroke-width="2.2" stroke-miterlimit="10"/>
<path d="M538.907 354.873L521.807 453.4" stroke="black" stroke-width="2.2" stroke-miterlimit="10"/>
<path d="M710.42 442.18L632.354 444.933" stroke="black" stroke-width="2.2" stroke-miterlimit="10"/>
<path d="M632.353 444.933L617.953 460.733" stroke="black" stroke-width="2.2" stroke-miterlimit="10"/>
<path d="M733.061 542.153L668.907 496.16" stroke="black" stroke-width="2.2" stroke-miterlimit="10"/>
<path d="M668.906 496.16L633.979 495.853" stroke="black" stroke-width="2.2" stroke-miterlimit="10"/>
<path d="M651.113 540.3L678.013 540.62" stroke="black" stroke-width="2.2" stroke-miterlimit="10"/>
<path d="M678.014 540.62L723.34 604.707" stroke="black" stroke-width="2.2" stroke-miterlimit="10"/>
<path d="M602.093 727.407L630.886 631.287" stroke="black" stroke-width="2.2" stroke-miterlimit="10"/>
<path d="M630.886 631.287L619.979 596.36" stroke="black" stroke-width="2.2" stroke-miterlimit="10"/>
<path d="M561.939 618.827L565.726 644.047" stroke="black" stroke-width="2.2" stroke-miterlimit="10"/>
<path d="M565.727 644.047L520.9 705.76" stroke="black" stroke-width="2.2" stroke-miterlimit="10"/>
<path d="M420.04 587.96L492.34 601.313" stroke="black" stroke-width="2.2" stroke-miterlimit="10"/>
<path d="M492.34 601.313L506.493 571.867" stroke="black" stroke-width="2.2" stroke-miterlimit="10"/>
<path d="M510.68 539.78L488.479 538.44" stroke="black" stroke-width="2.2" stroke-miterlimit="10"/>
<path d="M488.48 538.44L450.873 484.74" stroke="black" stroke-width="2.2" stroke-miterlimit="10"/>
<path d="M549.286 437.633L538.446 471.267" stroke="black" stroke-width="2.2" stroke-miterlimit="10"/>
<path d="M538.446 471.267L547.446 490.807" stroke="black" stroke-width="2.2" stroke-miterlimit="10"/>
<path d="M572.634 484.647L602.087 471.44" stroke="black" stroke-width="2.2" stroke-miterlimit="10"/>
<path d="M602.086 471.44L634.872 479.167" stroke="black" stroke-width="2.2" stroke-miterlimit="10"/>
<path d="M602.713 500.427L629.693 512.807" stroke="black" stroke-width="2.2" stroke-miterlimit="10"/>
<path d="M629.693 512.807L647.387 556.98" stroke="black" stroke-width="2.2" stroke-miterlimit="10"/>
<path d="M612.08 538.493L624.673 537.54" stroke="black" stroke-width="2.2" stroke-miterlimit="10"/>
<path d="M624.674 537.54L634.307 583.247" stroke="black" stroke-width="2.2" stroke-miterlimit="10"/>
<path d="M602.1 569.587L610.653 596.053" stroke="black" stroke-width="2.2" stroke-miterlimit="10"/>
<path d="M559.94 574.28L543.174 604.493" stroke="black" stroke-width="2.2" stroke-miterlimit="10"/>
<path d="M506.493 571.867L531.5 580.28" stroke="black" stroke-width="2.2" stroke-miterlimit="10"/>
<path d="M531.5 580.28L560.807 567.487" stroke="black" stroke-width="2.2" stroke-miterlimit="10"/>
<path d="M192.62 594.62L218.08 593.987" stroke="black" stroke-width="0.68" stroke-miterlimit="10"/>
<path d="M214.58 476.033L218.593 507.58" stroke="black" stroke-width="0.68" stroke-miterlimit="10"/>
<path d="M218.593 507.58L231.906 502.387" stroke="black" stroke-width="0.68" stroke-miterlimit="10"/>
<path d="M251.8 415.893L267.273 445.633" stroke="black" stroke-width="0.68" stroke-miterlimit="10"/>
<path d="M240.674 448.953L258.92 474.667" stroke="black" stroke-width="0.68" stroke-miterlimit="10"/>
<path d="M341.333 357.307L346.08 407.027" stroke="black" stroke-width="0.68" stroke-miterlimit="10"/>
<path d="M395.2 312.2L394.894 320.827" stroke="black" stroke-width="0.68" stroke-miterlimit="10"/>
<path d="M483.36 316.613L493.64 308.507" stroke="black" stroke-width="0.68" stroke-miterlimit="10"/>
<path d="M537.627 306.787L535.12 316.327" stroke="black" stroke-width="0.68" stroke-miterlimit="10"/>
<path d="M573.08 323.433L569.66 330.78" stroke="black" stroke-width="0.68" stroke-miterlimit="10"/>
<path d="M609.094 338.38L590.127 342.86" stroke="black" stroke-width="0.68" stroke-miterlimit="10"/>
<path d="M658.787 371.607L649.073 381.553" stroke="black" stroke-width="0.68" stroke-miterlimit="10"/>
<path d="M702.673 403.833L699.26 411.173" stroke="black" stroke-width="0.68" stroke-miterlimit="10"/>
<path d="M692.093 396.733L687.473 406.62" stroke="black" stroke-width="0.68" stroke-miterlimit="10"/>
<path d="M741.033 496L742.38 545.993" stroke="black" stroke-width="0.68" stroke-miterlimit="10"/>
<path d="M602.093 727.407L613.113 730.407" stroke="black" stroke-width="0.68" stroke-miterlimit="10"/>
<path d="M602.094 727.407L590.801 743.08" stroke="black" stroke-width="0.68" stroke-miterlimit="10"/>
<path d="M574.106 719.06L590.8 743.08" stroke="black" stroke-width="0.68" stroke-miterlimit="10"/>
<path d="M735.726 573.487L729.533 614.333" stroke="black" stroke-width="0.68" stroke-miterlimit="10"/>
<path d="M722.773 636.36L684 679.053" stroke="black" stroke-width="0.68" stroke-miterlimit="10"/>
<path d="M469.773 710.5L488.22 710.34" stroke="black" stroke-width="0.68" stroke-miterlimit="10"/>
<path d="M447.979 663.067L454.206 659.967" stroke="black" stroke-width="0.68" stroke-miterlimit="10"/>
<path d="M462.64 679.087L470.68 688.16" stroke="black" stroke-width="0.68" stroke-miterlimit="10"/>
<path d="M470.68 688.16L488.22 710.34" stroke="black" stroke-width="0.68" stroke-miterlimit="10"/>
<path d="M218.08 593.987L243.78 606.64" stroke="black" stroke-width="0.68" stroke-miterlimit="10"/>
<path d="M243.78 606.64L357.554 633.12" stroke="black" stroke-width="0.68" stroke-miterlimit="10"/>
<path d="M298.12 645.68L357.553 633.12" stroke="black" stroke-width="0.68" stroke-miterlimit="10"/>
<path d="M298.12 645.68L243.78 606.64" stroke="black" stroke-width="0.68" stroke-miterlimit="10"/>
<path d="M241.8 527.653L318.813 578.567" stroke="black" stroke-width="0.68" stroke-miterlimit="10"/>
<path d="M355.153 633.253L421.867 594.827" stroke="black" stroke-width="0.68" stroke-miterlimit="10"/>
<path d="M317.54 578.133L355.153 633.253" stroke="black" stroke-width="0.68" stroke-miterlimit="10"/>
<path d="M258.92 474.667L339.78 563.913" stroke="black" stroke-width="0.68" stroke-miterlimit="10"/>
<path d="M339.78 563.913L318.813 578.567" stroke="black" stroke-width="0.68" stroke-miterlimit="10"/>
<path d="M339.78 563.913L419.614 588.88" stroke="black" stroke-width="0.68" stroke-miterlimit="10"/>
<path d="M346.08 407.027L401.74 505.96" stroke="black" stroke-width="0.68" stroke-miterlimit="10"/>
<path d="M394.894 320.827L427.08 444.653" stroke="black" stroke-width="0.68" stroke-miterlimit="10"/>
<path d="M427.08 444.653L450.873 484.74" stroke="black" stroke-width="0.68" stroke-miterlimit="10"/>
<path d="M449.366 337.733L459.373 427.207" stroke="black" stroke-width="0.68" stroke-miterlimit="10"/>
<path d="M339.073 563.207L424.14 537.56" stroke="black" stroke-width="0.68" stroke-miterlimit="10"/>
<path d="M267.273 445.633L341.06 562.927" stroke="black" stroke-width="0.68" stroke-miterlimit="10"/>
<path d="M237.36 576.64L198.847 539.627" stroke="black" stroke-width="0.68" stroke-miterlimit="10"/>
<path d="M256.873 473.74L218.88 506.733" stroke="black" stroke-width="0.68" stroke-miterlimit="10"/>
<path d="M218.88 506.733L237.64 577.92" stroke="black" stroke-width="0.68" stroke-miterlimit="10"/>
<path d="M679.593 389.693L569.093 434.86" stroke="black" stroke-width="0.68" stroke-miterlimit="10"/>
<path d="M592.113 342.58L553.646 396.633" stroke="black" stroke-width="0.68" stroke-miterlimit="10"/>
<path d="M553.646 396.633L536.993 433.5" stroke="black" stroke-width="0.68" stroke-miterlimit="10"/>
<path d="M483.36 316.613L495.794 452.193" stroke="black" stroke-width="0.68" stroke-miterlimit="10"/>
<path d="M634.873 479.167L646.633 458.233" stroke="black" stroke-width="0.68" stroke-miterlimit="10"/>
<path d="M735.727 573.487L677.62 530.227" stroke="black" stroke-width="0.68" stroke-miterlimit="10"/>
<path d="M677.62 530.227L651.113 540.3" stroke="black" stroke-width="0.68" stroke-miterlimit="10"/>
<path d="M647.394 555.567L701.694 645.907" stroke="black" stroke-width="0.68" stroke-miterlimit="10"/>
<path d="M647.394 555.567L678.14 688.587" stroke="black" stroke-width="0.68" stroke-miterlimit="10"/>
<path d="M598.453 609.873L605.006 630.367" stroke="black" stroke-width="0.68" stroke-miterlimit="10"/>
<path d="M539.28 733.173L488.627 716.847" stroke="black" stroke-width="0.68" stroke-miterlimit="10"/>
<path d="M520.9 705.76L528.867 741" stroke="black" stroke-width="0.68" stroke-miterlimit="10"/>
<path d="M268.547 446.06L389.654 527.847" stroke="black" stroke-width="0.68" stroke-miterlimit="10"/>
<path d="M282.1 401.547L317.026 402.92" stroke="black" stroke-width="0.68" stroke-miterlimit="10"/>
<path d="M317.027 402.92L311.047 365.987" stroke="black" stroke-width="0.68" stroke-miterlimit="10"/>
<path d="M237.36 576.64L318.814 578.567" stroke="black" stroke-width="0.68" stroke-miterlimit="10"/>
<path d="M394.894 320.827L459.374 427.207" stroke="black" stroke-width="0.68" stroke-miterlimit="10"/>
<path d="M359.753 370.58L379.893 377.353" stroke="black" stroke-width="0.68" stroke-miterlimit="10"/>
<path d="M401.74 505.96L437.487 517.513" stroke="black" stroke-width="0.68" stroke-miterlimit="10"/>
<path d="M437.487 517.513L413.533 484.92" stroke="black" stroke-width="0.68" stroke-miterlimit="10"/>
<path d="M413.533 484.92L450.873 484.74" stroke="black" stroke-width="0.68" stroke-miterlimit="10"/>
<path d="M483.007 317.673L522.66 452.267" stroke="black" stroke-width="0.68" stroke-miterlimit="10"/>
<path d="M590.126 344.267L569.093 434.86" stroke="black" stroke-width="0.68" stroke-miterlimit="10"/>
<path d="M590.127 344.267L618.614 376.02" stroke="black" stroke-width="0.68" stroke-miterlimit="10"/>
<path d="M679.594 389.693L632.354 444.933" stroke="black" stroke-width="0.68" stroke-miterlimit="10"/>
<path d="M632.354 444.933L646.634 458.233" stroke="black" stroke-width="0.68" stroke-miterlimit="10"/>
<path d="M646.634 458.233L710.42 442.18" stroke="black" stroke-width="0.68" stroke-miterlimit="10"/>
<path d="M667.773 496.367L741.033 496" stroke="black" stroke-width="0.68" stroke-miterlimit="10"/>
<path d="M733.06 542.153L735.726 573.487" stroke="black" stroke-width="0.68" stroke-miterlimit="10"/>
<path d="M678.014 540.62L735.727 573.487" stroke="black" stroke-width="0.68" stroke-miterlimit="10"/>
<path d="M647.393 555.567L631.453 694.82" stroke="black" stroke-width="0.68" stroke-miterlimit="10"/>
<path d="M605.007 630.367L630.887 631.287" stroke="black" stroke-width="0.68" stroke-miterlimit="10"/>
<path d="M565.727 644.047L598.453 609.873" stroke="black" stroke-width="0.68" stroke-miterlimit="10"/>
<path d="M605.007 630.367L520.9 705.76" stroke="black" stroke-width="0.68" stroke-miterlimit="10"/>
<path d="M527.787 631.64L480.027 682.1" stroke="black" stroke-width="0.68" stroke-miterlimit="10"/>
<path d="M527.787 631.64L561.94 618.827" stroke="black" stroke-width="0.68" stroke-miterlimit="10"/>
<path d="M433.606 644.073L526.213 600.207" stroke="black" stroke-width="0.68" stroke-miterlimit="10"/>
<path d="M492.34 601.313L527.787 631.64" stroke="black" stroke-width="0.68" stroke-miterlimit="10"/>
<path d="M492.34 601.313L430.167 609.42" stroke="black" stroke-width="0.68" stroke-miterlimit="10"/>
<path d="M424.14 537.56L463.073 573.307" stroke="black" stroke-width="0.68" stroke-miterlimit="10"/>
<path d="M463.073 573.307L506.493 571.867" stroke="black" stroke-width="0.68" stroke-miterlimit="10"/>
<path d="M429.434 565.293L463.074 573.307" stroke="black" stroke-width="0.68" stroke-miterlimit="10"/>
<path d="M443.58 514.847L463.073 573.307" stroke="black" stroke-width="0.68" stroke-miterlimit="10"/>
<path d="M463.073 573.307L492.34 601.313" stroke="black" stroke-width="0.68" stroke-miterlimit="10"/>
<path d="M527.787 631.64L520.9 705.76" stroke="black" stroke-width="0.68" stroke-miterlimit="10"/>
<path d="M569.093 434.86L572.773 485.64" stroke="black" stroke-width="0.68" stroke-miterlimit="10"/>
<path d="M633.979 495.853L602.086 471.44" stroke="black" stroke-width="0.68" stroke-miterlimit="10"/>
<path d="M624.674 537.54L638.04 560.913" stroke="black" stroke-width="0.68" stroke-miterlimit="10"/>
<path d="M569.586 614.327L602.099 569.587" stroke="black" stroke-width="0.68" stroke-miterlimit="10"/>
<path d="M531.5 580.28L543.027 606.333" stroke="black" stroke-width="0.68" stroke-miterlimit="10"/>
<path d="M509.14 547.16L526.2 554.313" stroke="black" stroke-width="0.68" stroke-miterlimit="10"/>
<path d="M526.2 554.313L544 559.953" stroke="black" stroke-width="0.68" stroke-miterlimit="10"/>
<path d="M546.633 490.413L537.439 516.693" stroke="black" stroke-width="0.68" stroke-miterlimit="10"/>
<path d="M537.439 516.693L540.253 534.62" stroke="black" stroke-width="0.68" stroke-miterlimit="10"/>
<path d="M537.44 516.693L515.927 509.1" stroke="black" stroke-width="0.68" stroke-miterlimit="10"/>
<path d="M571.893 484.753L561.453 500" stroke="black" stroke-width="0.68" stroke-miterlimit="10"/>
<path d="M561.454 500L555.16 512.747" stroke="black" stroke-width="0.68" stroke-miterlimit="10"/>
<path d="M585.153 509.147L602.5 501.067" stroke="black" stroke-width="0.68" stroke-miterlimit="10"/>
<path d="M600.78 535.64L612.08 538.493" stroke="black" stroke-width="0.68" stroke-miterlimit="10"/>
<path d="M588.427 554.133L601.033 569.58" stroke="black" stroke-width="0.68" stroke-miterlimit="10"/>
<path d="M560 567.453L580.213 557.5" stroke="black" stroke-width="0.68" stroke-miterlimit="10"/>
<path d="M561.48 529.027L555.16 512.747" stroke="black" stroke-width="0.68" stroke-miterlimit="10"/>
<path d="M710.42 442.18L667.773 496.367" stroke="black" stroke-width="0.68" stroke-miterlimit="10"/>
<path d="M605.006 630.367L602.093 727.407" stroke="black" stroke-width="0.68" stroke-miterlimit="10"/>
<path d="M188.927 566.493C188.584 567.507 187.949 568.396 187.101 569.049C186.253 569.702 185.23 570.088 184.163 570.16C183.095 570.232 182.03 569.986 181.102 569.453C180.174 568.92 179.425 568.123 178.95 567.165C178.474 566.206 178.293 565.128 178.43 564.067C178.567 563.006 179.015 562.009 179.718 561.202C180.421 560.395 181.348 559.815 182.381 559.535C183.413 559.254 184.506 559.286 185.52 559.627C186.195 559.853 186.819 560.21 187.356 560.678C187.893 561.146 188.332 561.715 188.648 562.353C188.965 562.991 189.152 563.685 189.2 564.395C189.248 565.106 189.155 565.819 188.927 566.493Z" fill="black"/>
<path d="M235.701 629.393C235.359 630.408 234.724 631.298 233.876 631.952C233.029 632.605 232.006 632.993 230.938 633.066C229.87 633.139 228.805 632.893 227.876 632.36C226.948 631.827 226.198 631.031 225.722 630.073C225.246 629.114 225.065 628.036 225.202 626.974C225.338 625.912 225.787 624.915 226.49 624.108C227.193 623.301 228.12 622.721 229.153 622.441C230.186 622.16 231.279 622.193 232.294 622.533C232.968 622.76 233.591 623.117 234.128 623.584C234.664 624.052 235.103 624.62 235.419 625.257C235.735 625.894 235.923 626.588 235.971 627.297C236.02 628.007 235.928 628.719 235.701 629.393Z" fill="black"/>
<path d="M242.494 578.373C242.152 579.388 241.516 580.278 240.668 580.931C239.82 581.585 238.797 581.972 237.729 582.044C236.661 582.116 235.595 581.87 234.667 581.337C233.739 580.803 232.99 580.006 232.514 579.047C232.039 578.088 231.858 577.009 231.996 575.947C232.134 574.886 232.583 573.889 233.287 573.082C233.992 572.276 234.919 571.696 235.953 571.417C236.986 571.138 238.079 571.171 239.094 571.513C239.768 571.741 240.39 572.098 240.925 572.566C241.461 573.034 241.899 573.602 242.215 574.239C242.531 574.876 242.718 575.569 242.766 576.279C242.813 576.988 242.721 577.7 242.494 578.373Z" fill="black"/>
<path d="M246.933 531.333C246.59 532.347 245.954 533.236 245.105 533.889C244.257 534.541 243.234 534.927 242.166 534.998C241.098 535.07 240.033 534.823 239.106 534.289C238.178 533.755 237.43 532.958 236.955 531.999C236.48 531.04 236.3 529.962 236.438 528.9C236.575 527.839 237.025 526.842 237.729 526.036C238.433 525.23 239.36 524.651 240.393 524.371C241.426 524.092 242.519 524.125 243.533 524.467C244.208 524.694 244.831 525.052 245.367 525.52C245.903 525.988 246.341 526.557 246.657 527.195C246.973 527.833 247.16 528.527 247.207 529.237C247.255 529.947 247.162 530.659 246.933 531.333Z" fill="black"/>
<path d="M237.034 505.287C236.691 506.3 236.054 507.19 235.206 507.842C234.358 508.494 233.335 508.881 232.267 508.952C231.199 509.023 230.134 508.776 229.206 508.242C228.279 507.708 227.53 506.912 227.055 505.952C226.58 504.993 226.4 503.915 226.538 502.854C226.676 501.792 227.125 500.796 227.829 499.989C228.533 499.183 229.46 498.604 230.494 498.325C231.527 498.045 232.62 498.079 233.634 498.42C234.308 498.647 234.931 499.005 235.467 499.473C236.003 499.941 236.442 500.511 236.758 501.148C237.074 501.786 237.26 502.48 237.308 503.19C237.355 503.9 237.262 504.613 237.034 505.287Z" fill="black"/>
<path d="M273.673 447.367C273.33 448.38 272.695 449.27 271.847 449.922C270.999 450.575 269.976 450.962 268.909 451.033C267.841 451.105 266.776 450.859 265.848 450.326C264.92 449.793 264.171 448.997 263.696 448.038C263.22 447.08 263.039 446.002 263.176 444.94C263.313 443.879 263.761 442.882 264.464 442.075C265.168 441.269 266.094 440.689 267.127 440.408C268.159 440.128 269.252 440.16 270.266 440.5C270.942 440.726 271.565 441.084 272.102 441.552C272.639 442.019 273.078 442.589 273.394 443.226C273.711 443.864 273.898 444.558 273.946 445.269C273.994 445.979 273.901 446.692 273.673 447.367Z" fill="black"/>
<path d="M322.667 404.667C322.324 405.681 321.689 406.571 320.841 407.225C319.993 407.878 318.97 408.265 317.902 408.337C316.834 408.409 315.768 408.163 314.84 407.63C313.912 407.096 313.163 406.299 312.687 405.34C312.212 404.381 312.031 403.302 312.169 402.241C312.307 401.179 312.756 400.182 313.46 399.375C314.164 398.569 315.092 397.99 316.125 397.71C317.159 397.431 318.252 397.465 319.267 397.807C319.94 398.034 320.563 398.391 321.098 398.859C321.634 399.327 322.072 399.895 322.388 400.532C322.703 401.169 322.89 401.862 322.938 402.572C322.986 403.281 322.894 403.993 322.667 404.667Z" fill="black"/>
<path d="M351.214 408.353C350.87 409.367 350.234 410.256 349.386 410.909C348.537 411.561 347.514 411.947 346.447 412.018C345.379 412.09 344.314 411.843 343.386 411.309C342.458 410.775 341.71 409.978 341.235 409.019C340.76 408.06 340.58 406.982 340.718 405.92C340.856 404.859 341.305 403.862 342.009 403.056C342.713 402.25 343.64 401.671 344.673 401.391C345.706 401.112 346.799 401.145 347.813 401.487C348.488 401.714 349.111 402.072 349.647 402.54C350.183 403.008 350.622 403.577 350.937 404.215C351.253 404.853 351.44 405.547 351.488 406.257C351.535 406.967 351.442 407.679 351.214 408.353Z" fill="black"/>
<path d="M454.499 339.46C454.158 340.474 453.523 341.365 452.675 342.018C451.828 342.672 450.805 343.06 449.737 343.133C448.669 343.205 447.604 342.96 446.675 342.427C445.747 341.894 444.997 341.098 444.521 340.139C444.045 339.181 443.864 338.102 444 337.041C444.137 335.979 444.585 334.982 445.289 334.175C445.992 333.368 446.919 332.788 447.952 332.507C448.985 332.227 450.078 332.259 451.093 332.6C452.454 333.059 453.577 334.039 454.215 335.325C454.854 336.611 454.956 338.099 454.499 339.46Z" fill="black"/>
<path d="M256.933 417.62C256.591 418.634 255.956 419.525 255.109 420.178C254.261 420.832 253.239 421.22 252.171 421.293C251.103 421.365 250.037 421.12 249.109 420.587C248.18 420.054 247.431 419.258 246.955 418.299C246.478 417.341 246.297 416.262 246.434 415.201C246.571 414.139 247.019 413.142 247.722 412.335C248.426 411.528 249.352 410.948 250.386 410.667C251.419 410.387 252.512 410.419 253.526 410.76C254.201 410.986 254.824 411.344 255.36 411.811C255.896 412.278 256.335 412.847 256.651 413.484C256.968 414.121 257.156 414.814 257.204 415.524C257.252 416.234 257.16 416.946 256.933 417.62Z" fill="black"/>
<path d="M219.28 479.033C218.938 480.048 218.302 480.938 217.454 481.591C216.606 482.245 215.583 482.632 214.515 482.704C213.447 482.776 212.381 482.53 211.453 481.996C210.525 481.463 209.776 480.666 209.3 479.707C208.825 478.748 208.645 477.669 208.782 476.607C208.92 475.546 209.369 474.548 210.073 473.742C210.778 472.936 211.705 472.356 212.739 472.077C213.772 471.798 214.865 471.831 215.88 472.173C216.554 472.4 217.176 472.758 217.712 473.226C218.247 473.693 218.685 474.262 219.001 474.899C219.317 475.536 219.504 476.229 219.552 476.938C219.6 477.648 219.507 478.36 219.28 479.033Z" fill="black"/>
<path d="M316.174 367.72C315.831 368.734 315.196 369.625 314.348 370.278C313.5 370.931 312.477 371.319 311.409 371.391C310.341 371.463 309.275 371.216 308.347 370.683C307.419 370.15 306.669 369.353 306.194 368.394C305.718 367.434 305.538 366.356 305.676 365.294C305.813 364.232 306.263 363.235 306.967 362.429C307.671 361.622 308.599 361.043 309.632 360.764C310.666 360.484 311.759 360.518 312.774 360.86C313.447 361.087 314.07 361.445 314.605 361.912C315.141 362.38 315.579 362.949 315.894 363.586C316.21 364.223 316.397 364.916 316.445 365.625C316.493 366.334 316.401 367.046 316.174 367.72Z" fill="black"/>
<path d="M399.92 314.3C399.577 315.314 398.942 316.205 398.094 316.858C397.246 317.511 396.223 317.899 395.155 317.971C394.087 318.043 393.021 317.797 392.093 317.263C391.165 316.73 390.415 315.933 389.94 314.974C389.465 314.014 389.284 312.936 389.422 311.874C389.559 310.812 390.009 309.815 390.713 309.009C391.417 308.202 392.345 307.623 393.378 307.344C394.412 307.065 395.505 307.098 396.52 307.44C397.193 307.667 397.816 308.025 398.351 308.492C398.887 308.96 399.325 309.529 399.641 310.166C399.956 310.803 400.143 311.496 400.191 312.205C400.239 312.915 400.147 313.626 399.92 314.3Z" fill="black"/>
<path d="M498.774 310.24C498.431 311.254 497.795 312.143 496.947 312.796C496.099 313.448 495.077 313.835 494.009 313.907C492.942 313.979 491.877 313.732 490.949 313.199C490.021 312.666 489.272 311.87 488.796 310.911C488.321 309.953 488.14 308.875 488.277 307.814C488.414 306.752 488.862 305.755 489.565 304.949C490.268 304.142 491.195 303.562 492.227 303.281C493.26 303.001 494.353 303.033 495.367 303.373C496.042 303.6 496.665 303.958 497.201 304.426C497.737 304.894 498.176 305.463 498.493 306.101C498.809 306.739 498.997 307.432 499.045 308.143C499.093 308.853 499.001 309.565 498.774 310.24Z" fill="black"/>
<path d="M542.76 309.227C542.417 310.24 541.782 311.13 540.934 311.782C540.086 312.435 539.063 312.822 537.996 312.894C536.928 312.965 535.863 312.719 534.935 312.186C534.007 311.653 533.258 310.857 532.783 309.898C532.307 308.94 532.126 307.862 532.263 306.8C532.4 305.739 532.848 304.742 533.551 303.935C534.254 303.129 535.181 302.549 536.214 302.268C537.246 301.988 538.339 302.02 539.353 302.36C540.028 302.587 540.651 302.945 541.188 303.413C541.724 303.881 542.163 304.45 542.479 305.088C542.795 305.725 542.983 306.419 543.031 307.129C543.079 307.839 542.987 308.552 542.76 309.227Z" fill="black"/>
<path d="M598.96 323.453C598.619 324.468 597.984 325.358 597.136 326.012C596.289 326.665 595.266 327.053 594.198 327.126C593.13 327.199 592.065 326.953 591.136 326.42C590.208 325.887 589.458 325.091 588.982 324.133C588.506 323.174 588.325 322.096 588.461 321.034C588.598 319.972 589.046 318.975 589.75 318.168C590.453 317.361 591.38 316.781 592.413 316.501C593.446 316.22 594.539 316.253 595.554 316.593C596.915 317.052 598.038 318.032 598.676 319.318C599.315 320.605 599.417 322.092 598.96 323.453Z" fill="black"/>
<path d="M596.78 345.793C596.438 346.808 595.802 347.698 594.954 348.351C594.106 349.005 593.083 349.392 592.015 349.464C590.947 349.536 589.881 349.29 588.953 348.756C588.025 348.223 587.276 347.426 586.8 346.467C586.325 345.508 586.145 344.429 586.282 343.367C586.42 342.306 586.869 341.308 587.573 340.502C588.278 339.696 589.205 339.116 590.239 338.837C591.272 338.558 592.365 338.591 593.38 338.933C594.054 339.16 594.676 339.518 595.212 339.986C595.747 340.453 596.185 341.022 596.501 341.659C596.817 342.296 597.004 342.989 597.052 343.698C597.099 344.408 597.007 345.12 596.78 345.793Z" fill="black"/>
<path d="M683.146 391.427C682.804 392.441 682.169 393.331 681.321 393.985C680.472 394.638 679.45 395.025 678.381 395.097C677.313 395.169 676.248 394.923 675.319 394.39C674.391 393.856 673.642 393.059 673.167 392.1C672.691 391.141 672.511 390.062 672.648 389.001C672.786 387.939 673.235 386.942 673.94 386.135C674.644 385.329 675.571 384.75 676.605 384.47C677.639 384.191 678.732 384.225 679.746 384.567C680.42 384.794 681.042 385.151 681.578 385.619C682.113 386.087 682.551 386.655 682.867 387.292C683.183 387.929 683.37 388.622 683.418 389.332C683.466 390.041 683.373 390.753 683.146 391.427Z" fill="black"/>
<path d="M715.554 443.913C715.211 444.929 714.575 445.821 713.726 446.475C712.876 447.129 711.852 447.517 710.782 447.589C709.713 447.661 708.645 447.414 707.716 446.88C706.787 446.345 706.037 445.547 705.561 444.586C705.085 443.625 704.905 442.545 705.043 441.482C705.182 440.419 705.632 439.421 706.338 438.613C707.044 437.806 707.973 437.227 709.008 436.948C710.043 436.669 711.138 436.703 712.154 437.047C712.829 437.273 713.453 437.63 713.989 438.098C714.526 438.566 714.964 439.136 715.28 439.774C715.596 440.412 715.783 441.106 715.83 441.816C715.877 442.527 715.783 443.239 715.554 443.913Z" fill="black"/>
<path d="M501.667 454.18C501.327 455.196 500.693 456.088 499.845 456.744C498.998 457.399 497.975 457.788 496.906 457.862C495.838 457.936 494.771 457.691 493.842 457.158C492.912 456.625 492.162 455.829 491.685 454.869C491.209 453.91 491.027 452.831 491.165 451.768C491.302 450.706 491.752 449.708 492.456 448.901C493.161 448.094 494.089 447.514 495.124 447.235C496.158 446.956 497.252 446.99 498.267 447.333C499.624 447.792 500.745 448.771 501.382 450.054C502.019 451.337 502.122 452.821 501.667 454.18Z" fill="black"/>
<path d="M554.42 438.493C554.077 439.508 553.442 440.398 552.594 441.051C551.746 441.705 550.723 442.092 549.655 442.164C548.587 442.236 547.521 441.99 546.593 441.456C545.665 440.923 544.915 440.126 544.44 439.167C543.965 438.208 543.784 437.129 543.922 436.067C544.059 435.006 544.509 434.008 545.213 433.202C545.917 432.396 546.845 431.816 547.878 431.537C548.912 431.258 550.005 431.291 551.02 431.633C551.693 431.861 552.316 432.218 552.851 432.686C553.387 433.153 553.825 433.722 554.141 434.359C554.456 434.996 554.643 435.689 554.691 436.398C554.739 437.108 554.647 437.82 554.42 438.493Z" fill="black"/>
<path d="M639.746 481.153C639.405 482.168 638.77 483.058 637.922 483.712C637.075 484.365 636.052 484.753 634.984 484.826C633.916 484.899 632.851 484.653 631.922 484.12C630.994 483.588 630.244 482.792 629.768 481.833C629.292 480.874 629.111 479.796 629.247 478.734C629.384 477.672 629.832 476.675 630.536 475.868C631.239 475.061 632.166 474.481 633.199 474.201C634.232 473.92 635.325 473.953 636.34 474.293C637.014 474.52 637.637 474.877 638.173 475.344C638.71 475.812 639.148 476.38 639.465 477.017C639.781 477.654 639.969 478.348 640.017 479.057C640.066 479.767 639.974 480.479 639.746 481.153Z" fill="black"/>
<path d="M456.22 486.667C455.878 487.681 455.243 488.571 454.395 489.225C453.547 489.878 452.524 490.265 451.456 490.337C450.387 490.41 449.322 490.163 448.394 489.63C447.465 489.096 446.716 488.3 446.241 487.34C445.765 486.381 445.585 485.302 445.723 484.241C445.86 483.179 446.31 482.182 447.014 481.375C447.718 480.569 448.646 479.99 449.679 479.71C450.713 479.431 451.806 479.465 452.82 479.807C453.494 480.034 454.117 480.391 454.652 480.859C455.188 481.327 455.626 481.895 455.941 482.532C456.257 483.169 456.444 483.862 456.492 484.572C456.54 485.281 456.448 485.993 456.22 486.667Z" fill="black"/>
<path d="M429.266 539.207C428.923 540.22 428.287 541.11 427.438 541.762C426.59 542.414 425.567 542.8 424.499 542.872C423.431 542.943 422.366 542.696 421.439 542.162C420.511 541.628 419.763 540.832 419.288 539.872C418.813 538.913 418.633 537.835 418.771 536.774C418.908 535.712 419.358 534.716 420.062 533.91C420.766 533.103 421.693 532.524 422.726 532.245C423.759 531.965 424.852 531.999 425.866 532.34C426.541 532.567 427.164 532.925 427.7 533.393C428.236 533.861 428.674 534.431 428.99 535.068C429.306 535.706 429.493 536.4 429.54 537.11C429.588 537.82 429.495 538.533 429.266 539.207Z" fill="black"/>
<path d="M425.821 589.693C425.479 590.708 424.844 591.598 423.996 592.252C423.149 592.905 422.126 593.293 421.058 593.366C419.99 593.439 418.925 593.193 417.996 592.66C417.068 592.127 416.318 591.331 415.842 590.373C415.366 589.414 415.185 588.336 415.322 587.274C415.458 586.212 415.907 585.215 416.61 584.408C417.313 583.601 418.24 583.021 419.273 582.741C420.306 582.46 421.399 582.493 422.414 582.833C423.775 583.292 424.898 584.272 425.537 585.559C426.175 586.845 426.278 588.332 425.821 589.693Z" fill="black"/>
<path d="M435.939 612.073C435.597 613.089 434.961 613.981 434.113 614.635C433.264 615.29 432.24 615.678 431.17 615.751C430.101 615.823 429.034 615.577 428.104 615.044C427.174 614.51 426.424 613.712 425.948 612.752C425.471 611.792 425.29 610.712 425.428 609.649C425.565 608.586 426.014 607.587 426.719 606.779C427.424 605.972 428.353 605.391 429.387 605.111C430.422 604.831 431.517 604.865 432.533 605.207C433.207 605.434 433.83 605.792 434.367 606.26C434.903 606.728 435.342 607.297 435.658 607.935C435.975 608.572 436.162 609.266 436.21 609.976C436.259 610.686 436.167 611.399 435.939 612.073Z" fill="black"/>
<path d="M459.5 661.7C459.157 662.715 458.522 663.605 457.674 664.258C456.826 664.911 455.803 665.299 454.735 665.371C453.667 665.443 452.601 665.197 451.673 664.663C450.745 664.13 449.996 663.333 449.52 662.374C449.045 661.414 448.864 660.336 449.002 659.274C449.14 658.212 449.589 657.215 450.293 656.409C450.997 655.602 451.925 655.023 452.958 654.744C453.992 654.465 455.085 654.498 456.1 654.84C456.773 655.067 457.396 655.425 457.931 655.892C458.467 656.36 458.905 656.929 459.221 657.566C459.536 658.203 459.723 658.896 459.771 659.605C459.819 660.315 459.727 661.026 459.5 661.7Z" fill="black"/>
<path d="M493.207 711.647C492.863 712.66 492.227 713.549 491.379 714.202C490.53 714.854 489.508 715.24 488.44 715.312C487.372 715.383 486.307 715.136 485.379 714.602C484.452 714.068 483.703 713.271 483.228 712.312C482.753 711.353 482.573 710.275 482.711 709.213C482.849 708.152 483.298 707.155 484.002 706.349C484.706 705.543 485.633 704.964 486.666 704.685C487.7 704.405 488.792 704.438 489.807 704.78C490.481 705.007 491.104 705.365 491.64 705.833C492.176 706.301 492.615 706.87 492.931 707.508C493.246 708.146 493.433 708.84 493.481 709.55C493.528 710.26 493.435 710.972 493.207 711.647Z" fill="black"/>
<path d="M545.127 734.907C544.784 735.921 544.149 736.811 543.301 737.465C542.453 738.118 541.43 738.505 540.362 738.577C539.294 738.65 538.228 738.403 537.3 737.87C536.372 737.336 535.622 736.54 535.147 735.58C534.672 734.621 534.491 733.542 534.629 732.481C534.766 731.419 535.216 730.422 535.92 729.615C536.624 728.809 537.552 728.23 538.585 727.95C539.619 727.671 540.712 727.705 541.727 728.047C542.4 728.274 543.023 728.631 543.558 729.099C544.094 729.567 544.532 730.135 544.848 730.772C545.163 731.409 545.35 732.102 545.398 732.812C545.446 733.521 545.354 734.233 545.127 734.907Z" fill="black"/>
<path d="M596.579 744.667C596.237 745.68 595.601 746.57 594.753 747.222C593.905 747.875 592.883 748.262 591.815 748.334C590.747 748.405 589.682 748.159 588.754 747.626C587.827 747.093 587.078 746.297 586.602 745.338C586.127 744.38 585.946 743.302 586.083 742.24C586.219 741.179 586.668 740.182 587.371 739.375C588.074 738.569 589 737.989 590.033 737.708C591.066 737.428 592.158 737.46 593.173 737.8C593.848 738.026 594.472 738.384 595.008 738.852C595.545 739.32 595.984 739.889 596.301 740.527C596.617 741.164 596.805 741.858 596.853 742.569C596.9 743.279 596.808 743.992 596.579 744.667Z" fill="black"/>
<path d="M683.66 689.887C683.318 690.901 682.682 691.791 681.834 692.445C680.986 693.098 679.963 693.485 678.895 693.557C677.827 693.629 676.761 693.383 675.833 692.85C674.905 692.316 674.156 691.52 673.68 690.56C673.205 689.601 673.024 688.522 673.162 687.461C673.3 686.399 673.749 685.402 674.453 684.595C675.158 683.789 676.085 683.21 677.119 682.93C678.152 682.651 679.245 682.685 680.26 683.027C680.934 683.254 681.556 683.611 682.091 684.079C682.627 684.547 683.065 685.115 683.381 685.752C683.696 686.389 683.884 687.082 683.931 687.792C683.979 688.501 683.887 689.213 683.66 689.887Z" fill="black"/>
<path d="M734.533 615.08C734.191 616.094 733.555 616.985 732.707 617.638C731.859 618.291 730.836 618.679 729.768 618.751C728.7 618.823 727.634 618.577 726.706 618.043C725.778 617.51 725.029 616.713 724.553 615.754C724.078 614.794 723.898 613.716 724.035 612.654C724.173 611.592 724.622 610.595 725.326 609.789C726.031 608.982 726.958 608.403 727.992 608.124C729.025 607.844 730.118 607.878 731.133 608.22C731.807 608.447 732.429 608.805 732.965 609.272C733.5 609.74 733.938 610.309 734.254 610.946C734.57 611.583 734.757 612.276 734.805 612.985C734.852 613.694 734.76 614.406 734.533 615.08Z" fill="black"/>
<path d="M651.766 557.54C651.424 558.554 650.789 559.445 649.941 560.098C649.093 560.751 648.07 561.139 647.002 561.211C645.933 561.283 644.868 561.037 643.94 560.503C643.011 559.97 642.262 559.173 641.787 558.214C641.311 557.254 641.131 556.176 641.269 555.114C641.406 554.052 641.855 553.055 642.56 552.249C643.264 551.442 644.192 550.863 645.225 550.584C646.259 550.304 647.352 550.338 648.366 550.68C649.04 550.907 649.662 551.265 650.198 551.732C650.733 552.2 651.172 552.769 651.487 553.406C651.803 554.043 651.99 554.736 652.038 555.445C652.086 556.155 651.994 556.866 651.766 557.54Z" fill="black"/>
<path d="M615.787 597.787C615.445 598.801 614.809 599.691 613.961 600.345C613.113 600.998 612.09 601.385 611.022 601.457C609.954 601.53 608.888 601.283 607.96 600.75C607.032 600.216 606.283 599.42 605.807 598.46C605.332 597.501 605.151 596.422 605.289 595.361C605.427 594.299 605.876 593.302 606.58 592.495C607.284 591.689 608.212 591.11 609.246 590.83C610.279 590.551 611.372 590.585 612.387 590.927C613.061 591.154 613.683 591.511 614.218 591.979C614.754 592.447 615.192 593.015 615.508 593.652C615.823 594.29 616.011 594.982 616.058 595.692C616.106 596.401 616.014 597.113 615.787 597.787Z" fill="black"/>
<path d="M547.167 607.1C546.823 608.114 546.187 609.003 545.339 609.655C544.49 610.308 543.467 610.694 542.4 610.765C541.332 610.836 540.267 610.59 539.339 610.056C538.412 609.522 537.663 608.725 537.188 607.766C536.713 606.807 536.533 605.728 536.671 604.667C536.809 603.606 537.258 602.609 537.962 601.803C538.666 600.997 539.593 600.417 540.626 600.138C541.659 599.859 542.752 599.892 543.767 600.233C544.442 600.46 545.065 600.817 545.602 601.285C546.138 601.753 546.577 602.323 546.893 602.961C547.209 603.599 547.396 604.293 547.443 605.003C547.49 605.713 547.396 606.426 547.167 607.1Z" fill="black"/>
<path d="M512.72 573.1C512.378 574.114 511.743 575.005 510.895 575.658C510.047 576.311 509.024 576.699 507.956 576.771C506.887 576.843 505.822 576.596 504.894 576.063C503.965 575.529 503.216 574.733 502.741 573.774C502.265 572.814 502.085 571.736 502.223 570.674C502.36 569.612 502.81 568.615 503.514 567.809C504.218 567.002 505.146 566.423 506.179 566.144C507.213 565.864 508.306 565.898 509.32 566.24C509.994 566.467 510.617 566.825 511.152 567.292C511.688 567.76 512.126 568.329 512.441 568.966C512.757 569.603 512.944 570.296 512.992 571.005C513.04 571.714 512.948 572.426 512.72 573.1Z" fill="black"/>
<path d="M522.801 510.833C522.463 511.851 521.83 512.745 520.984 513.402C520.137 514.06 519.114 514.451 518.045 514.527C516.975 514.602 515.908 514.359 514.977 513.827C514.046 513.295 513.294 512.498 512.817 511.538C512.339 510.579 512.157 509.499 512.294 508.435C512.431 507.372 512.881 506.373 513.586 505.566C514.291 504.759 515.22 504.179 516.256 503.9C517.291 503.621 518.385 503.656 519.401 504C520.755 504.459 521.873 505.435 522.51 506.715C523.147 507.996 523.251 509.476 522.801 510.833Z" fill="black"/>
<path d="M577.334 487.607C576.99 488.62 576.354 489.51 575.506 490.162C574.657 490.814 573.635 491.2 572.567 491.272C571.499 491.343 570.434 491.096 569.506 490.562C568.579 490.028 567.83 489.232 567.355 488.272C566.88 487.313 566.7 486.235 566.838 485.174C566.976 484.112 567.425 483.116 568.129 482.309C568.833 481.503 569.76 480.924 570.793 480.645C571.827 480.365 572.919 480.399 573.934 480.74C574.608 480.967 575.231 481.325 575.767 481.793C576.303 482.261 576.742 482.831 577.057 483.468C577.373 484.106 577.56 484.8 577.608 485.51C577.655 486.22 577.562 486.933 577.334 487.607Z" fill="black"/>
<path d="M618.246 539.207C617.904 540.223 617.267 541.114 616.418 541.768C615.569 542.423 614.544 542.81 613.475 542.882C612.405 542.954 611.338 542.707 610.408 542.173C609.479 541.638 608.729 540.84 608.253 539.88C607.777 538.919 607.597 537.838 607.736 536.775C607.874 535.712 608.325 534.714 609.03 533.907C609.736 533.1 610.665 532.52 611.701 532.241C612.736 531.962 613.831 531.997 614.846 532.34C616.207 532.8 617.33 533.782 617.968 535.07C618.605 536.357 618.705 537.845 618.246 539.207Z" fill="black"/>
<path d="M563.454 576.893C563.112 577.908 562.476 578.798 561.628 579.451C560.78 580.105 559.757 580.492 558.689 580.564C557.621 580.636 556.555 580.39 555.627 579.856C554.699 579.323 553.95 578.526 553.474 577.567C552.999 576.608 552.818 575.529 552.956 574.467C553.094 573.406 553.543 572.408 554.247 571.602C554.951 570.796 555.879 570.216 556.913 569.937C557.946 569.658 559.039 569.691 560.054 570.033C560.728 570.261 561.35 570.618 561.885 571.086C562.421 571.554 562.859 572.122 563.175 572.759C563.49 573.396 563.678 574.089 563.726 574.799C563.773 575.508 563.681 576.22 563.454 576.893Z" fill="black"/>
<path d="M545.127 536C544.784 537.015 544.149 537.905 543.301 538.558C542.453 539.212 541.43 539.599 540.362 539.671C539.294 539.743 538.228 539.497 537.3 538.963C536.372 538.43 535.622 537.633 535.147 536.674C534.672 535.714 534.491 534.636 534.629 533.574C534.766 532.512 535.216 531.515 535.92 530.709C536.624 529.902 537.552 529.323 538.585 529.044C539.619 528.765 540.712 528.798 541.727 529.14C542.4 529.367 543.023 529.725 543.558 530.193C544.094 530.66 544.532 531.229 544.848 531.866C545.163 532.503 545.35 533.196 545.398 533.905C545.446 534.615 545.354 535.326 545.127 536Z" fill="black"/>
<path d="M590.286 510.88C589.941 511.892 589.304 512.78 588.456 513.43C587.607 514.081 586.585 514.465 585.518 514.535C584.45 514.606 583.387 514.358 582.46 513.824C581.533 513.29 580.786 512.494 580.311 511.536C579.837 510.577 579.657 509.5 579.794 508.44C579.931 507.379 580.379 506.383 581.082 505.577C581.784 504.771 582.71 504.191 583.742 503.91C584.774 503.629 585.866 503.661 586.88 504C587.556 504.226 588.181 504.584 588.719 505.053C589.257 505.522 589.697 506.092 590.014 506.732C590.33 507.371 590.517 508.067 590.564 508.779C590.611 509.491 590.516 510.205 590.286 510.88Z" fill="black"/>
<path d="M593.56 557.167C593.218 558.183 592.582 559.074 591.734 559.729C590.885 560.383 589.861 560.771 588.791 560.844C587.722 560.917 586.655 560.671 585.725 560.137C584.795 559.603 584.045 558.806 583.569 557.845C583.092 556.885 582.911 555.805 583.049 554.742C583.186 553.679 583.635 552.68 584.34 551.873C585.045 551.065 585.974 550.485 587.008 550.205C588.043 549.925 589.138 549.958 590.154 550.3C590.828 550.527 591.451 550.885 591.988 551.353C592.524 551.821 592.963 552.39 593.279 553.028C593.596 553.665 593.783 554.359 593.831 555.069C593.88 555.779 593.788 556.492 593.56 557.167Z" fill="black"/>
<path d="M564.487 545.807C564.145 546.821 563.509 547.711 562.661 548.365C561.813 549.018 560.79 549.405 559.722 549.477C558.654 549.549 557.588 549.303 556.66 548.77C555.732 548.236 554.983 547.44 554.507 546.48C554.032 545.521 553.852 544.442 553.989 543.381C554.127 542.319 554.576 541.322 555.28 540.515C555.985 539.709 556.912 539.13 557.946 538.85C558.979 538.571 560.072 538.605 561.087 538.947C561.761 539.174 562.383 539.531 562.919 539.999C563.454 540.467 563.892 541.035 564.208 541.672C564.524 542.309 564.711 543.002 564.759 543.712C564.807 544.421 564.714 545.133 564.487 545.807Z" fill="black"/>
<path d="M568.087 530.753C567.744 531.768 567.109 532.658 566.261 533.311C565.413 533.965 564.39 534.352 563.322 534.424C562.254 534.496 561.188 534.25 560.26 533.716C559.332 533.183 558.582 532.386 558.107 531.427C557.632 530.468 557.451 529.389 557.589 528.327C557.726 527.265 558.176 526.268 558.88 525.462C559.584 524.656 560.512 524.076 561.545 523.797C562.579 523.518 563.672 523.551 564.687 523.893C565.36 524.12 565.983 524.478 566.518 524.946C567.054 525.413 567.492 525.982 567.808 526.619C568.123 527.256 568.31 527.949 568.358 528.658C568.406 529.368 568.314 530.08 568.087 530.753Z" fill="black"/>
<path d="M582.76 528C582.415 529.011 581.779 529.898 580.931 530.548C580.084 531.199 579.062 531.584 577.996 531.655C576.93 531.726 575.867 531.48 574.94 530.948C574.014 530.416 573.265 529.622 572.789 528.665C572.314 527.709 572.131 526.633 572.266 525.573C572.4 524.513 572.845 523.516 573.545 522.709C574.245 521.901 575.168 521.319 576.198 521.035C577.228 520.751 578.319 520.778 579.333 521.113C580.012 521.338 580.639 521.695 581.179 522.164C581.719 522.632 582.161 523.203 582.48 523.843C582.798 524.483 582.987 525.18 583.035 525.894C583.083 526.607 582.99 527.323 582.76 528Z" fill="black"/>
<path d="M748.507 547.727C748.164 548.741 747.529 549.631 746.681 550.285C745.833 550.938 744.81 551.325 743.742 551.397C742.674 551.469 741.608 551.223 740.68 550.69C739.752 550.156 739.002 549.36 738.527 548.4C738.051 547.441 737.871 546.362 738.009 545.301C738.146 544.239 738.596 543.242 739.3 542.435C740.004 541.629 740.932 541.05 741.965 540.77C742.999 540.491 744.092 540.525 745.107 540.867C745.78 541.094 746.403 541.451 746.938 541.919C747.474 542.387 747.912 542.955 748.227 543.592C748.543 544.229 748.73 544.922 748.778 545.632C748.826 546.341 748.734 547.053 748.507 547.727Z" fill="black"/>
<path d="M746.167 498.1C745.825 499.116 745.189 500.008 744.34 500.662C743.491 501.317 742.467 501.705 741.398 501.777C740.328 501.85 739.261 501.604 738.332 501.07C737.402 500.536 736.651 499.739 736.175 498.779C735.699 497.818 735.518 496.738 735.655 495.675C735.792 494.612 736.242 493.614 736.947 492.806C737.652 491.998 738.58 491.418 739.615 491.138C740.65 490.858 741.744 490.891 742.76 491.233C743.435 491.461 744.058 491.818 744.594 492.286C745.131 492.754 745.569 493.324 745.886 493.961C746.202 494.599 746.39 495.293 746.438 496.003C746.486 496.713 746.394 497.426 746.167 498.1Z" fill="black"/>
</svg>
