<svg width="1000" height="1000" viewBox="0 0 1000 1000" fill="none" xmlns="http://www.w3.org/2000/svg">
<path d="M469.007 618.86L333.527 620.473L265.974 602.467L228.447 570.967L219.2 539.547L234.254 514.42L249.987 450.82L276.08 423.74L287.207 390.68L317.507 376.333L346.454 340.78L376.74 332.093L409.06 306.16L430.607 286.987L478.394 290.793L529.047 283.293L549.254 287.733L573.034 281.58L579.1 287.393L608.487 298.22L629.42 296.3L644.5 313.167L674.454 322.3L694.194 346.393L718.347 355.94L727.214 371.66L738.927 378.9L769.967 457.753L779.4 473.2L784.56 499.94L778.42 520.993L781.367 529.06L786.22 566.553L764.94 589.12L760.787 609.193L736.78 621.647L713.54 663.373L666.86 669.607L637.5 702.2L610.58 693.847L574.687 707.96L556.307 680.547L523.627 685.127L515.434 656.887L498.047 653.873L489.607 634.753L469.007 618.86Z" stroke="black" stroke-width="2.2" stroke-miterlimit="10"/>
<path d="M468.867 619.64L465.574 584.207L455.021 563.667L464.84 540.08L459.54 512.347L472.894 492.3L478.987 489.633L486.274 459.527L511.054 450.407L531.194 426.987L558.067 427.06L572.4 408.287L584.694 412.42L604.5 409.653L618.047 419.867L653.354 435.52L670.274 453.953L669.387 470.64L686.521 515.087L682.794 530.353L673.447 535.7L669.714 558.033L655.387 571.147L646.767 570.133L633.86 584.667L604.994 589.113L597.347 593.613L578.58 579.28L561.62 574.993L554.167 557.86L541.9 546.653L544.647 523.047L552.534 484.173L582.854 465.593L608.04 459.433L622.16 467.96L638.12 475.213L645.4 501.26L647.487 513.28L637.507 544.373L621.234 546.447L595.347 549.067L596.214 542.273L579.407 534.74L575.66 509.413L590.567 487.533L611.787 486.173L620.561 483.933L631.967 501.933L636.187 510.427L623.834 528.92L615.614 532.287L593.027 519.5L596.887 503.813L612.74 500.18" stroke="black" stroke-width="2.2" stroke-miterlimit="10"/>
<path d="M265.973 602.467L253.479 568.773L273.039 552.707L277.206 502.44L267.306 477.173L294.326 449.453L302.679 420.42L334.526 409.9L352.433 377.707L381.486 381.813L395.16 345.367L410.486 327.167L430.3 295.613L484.766 312.52L518.766 291.4L554.386 299.133L570.526 291.113L608.88 307.553L624.12 316.933L666.946 328.5L684.473 356.34L715 364.48L722.166 381.053L734.666 385.967L746.88 419.087L766.726 454.78L776.44 470.087L768.46 516.94L778.42 520.993" stroke="black" stroke-width="2.2" stroke-miterlimit="10"/>
<path d="M784.94 567.547L771.134 548.273L758.747 579.493L764.94 589.12" stroke="black" stroke-width="2.2" stroke-miterlimit="10"/>
<path d="M758.181 611.153L749.834 638.6L719.407 653.84" stroke="black" stroke-width="2.2" stroke-miterlimit="10"/>
<path d="M708.98 664.313L693.946 694.287L648.52 705.193L626.206 717.867L580.419 707.767L564.273 715.787L523.399 691.42L505.173 685.287L506.086 662.947L482.506 647.467L483.379 637.853L466.439 627.907L469.006 618.86" stroke="black" stroke-width="2.2" stroke-miterlimit="10"/>
<path d="M489.606 634.76L563.193 606.427" stroke="black" stroke-width="2.2" stroke-miterlimit="10"/>
<path d="M563.193 606.427L578.58 579.28" stroke="black" stroke-width="2.2" stroke-miterlimit="10"/>
<path d="M531.193 426.987L533.453 480.587" stroke="black" stroke-width="2.2" stroke-miterlimit="10"/>
<path d="M533.453 480.587L552.533 484.173" stroke="black" stroke-width="2.2" stroke-miterlimit="10"/>
<path d="M392.96 607.907L466.513 602.447" stroke="black" stroke-width="2.2" stroke-miterlimit="10"/>
<path d="M354.22 553.353L413.28 572.747" stroke="black" stroke-width="2.2" stroke-miterlimit="10"/>
<path d="M413.28 572.747L457.267 569.613" stroke="black" stroke-width="2.2" stroke-miterlimit="10"/>
<path d="M334.527 409.9L425.914 502.92" stroke="black" stroke-width="2.2" stroke-miterlimit="10"/>
<path d="M425.914 502.92L459.541 512.347" stroke="black" stroke-width="2.2" stroke-miterlimit="10"/>
<path d="M430.301 295.613L415.294 352.14" stroke="black" stroke-width="2.2" stroke-miterlimit="10"/>
<path d="M415.294 352.14L430.194 438.3" stroke="black" stroke-width="2.2" stroke-miterlimit="10"/>
<path d="M430.193 438.3L478.98 489.633" stroke="black" stroke-width="2.2" stroke-miterlimit="10"/>
<path d="M518.767 291.4L494.78 401.993" stroke="black" stroke-width="2.2" stroke-miterlimit="10"/>
<path d="M494.78 401.993L511.054 450.407" stroke="black" stroke-width="2.2" stroke-miterlimit="10"/>
<path d="M267.307 477.173L354.22 553.353" stroke="black" stroke-width="2.2" stroke-miterlimit="10"/>
<path d="M272.767 551.433L389.707 607.753" stroke="black" stroke-width="2.2" stroke-miterlimit="10"/>
<path d="M684.48 356.34L654.021 350.813" stroke="black" stroke-width="2.2" stroke-miterlimit="10"/>
<path d="M654.02 350.813L604.5 409.647" stroke="black" stroke-width="2.2" stroke-miterlimit="10"/>
<path d="M605.067 305.567L574.313 329.66" stroke="black" stroke-width="2.2" stroke-miterlimit="10"/>
<path d="M574.313 329.66L557.213 428.187" stroke="black" stroke-width="2.2" stroke-miterlimit="10"/>
<path d="M745.826 416.967L667.753 419.72" stroke="black" stroke-width="2.2" stroke-miterlimit="10"/>
<path d="M667.754 419.72L653.354 435.52" stroke="black" stroke-width="2.2" stroke-miterlimit="10"/>
<path d="M768.46 516.94L704.313 470.947" stroke="black" stroke-width="2.2" stroke-miterlimit="10"/>
<path d="M704.313 470.947L669.387 470.64" stroke="black" stroke-width="2.2" stroke-miterlimit="10"/>
<path d="M686.521 515.087L713.42 515.413" stroke="black" stroke-width="2.2" stroke-miterlimit="10"/>
<path d="M713.42 515.413L758.747 579.493" stroke="black" stroke-width="2.2" stroke-miterlimit="10"/>
<path d="M637.5 702.193L666.287 606.073" stroke="black" stroke-width="2.2" stroke-miterlimit="10"/>
<path d="M666.287 606.073L655.387 571.147" stroke="black" stroke-width="2.2" stroke-miterlimit="10"/>
<path d="M597.347 593.613L601.133 618.833" stroke="black" stroke-width="2.2" stroke-miterlimit="10"/>
<path d="M601.133 618.833L556.307 680.547" stroke="black" stroke-width="2.2" stroke-miterlimit="10"/>
<path d="M455.446 562.747L527.746 576.1" stroke="black" stroke-width="2.2" stroke-miterlimit="10"/>
<path d="M527.747 576.1L541.9 546.653" stroke="black" stroke-width="2.2" stroke-miterlimit="10"/>
<path d="M546.087 514.567L523.887 513.227" stroke="black" stroke-width="2.2" stroke-miterlimit="10"/>
<path d="M523.887 513.227L486.28 459.527" stroke="black" stroke-width="2.2" stroke-miterlimit="10"/>
<path d="M584.693 412.42L573.847 446.053" stroke="black" stroke-width="2.2" stroke-miterlimit="10"/>
<path d="M573.847 446.053L582.853 465.593" stroke="black" stroke-width="2.2" stroke-miterlimit="10"/>
<path d="M608.04 459.44L637.487 446.227" stroke="black" stroke-width="2.2" stroke-miterlimit="10"/>
<path d="M637.486 446.227L670.28 453.953" stroke="black" stroke-width="2.2" stroke-miterlimit="10"/>
<path d="M638.12 475.213L665.1 487.593" stroke="black" stroke-width="2.2" stroke-miterlimit="10"/>
<path d="M665.1 487.593L682.793 531.767" stroke="black" stroke-width="2.2" stroke-miterlimit="10"/>
<path d="M647.486 513.287L660.073 512.327" stroke="black" stroke-width="2.2" stroke-miterlimit="10"/>
<path d="M660.073 512.327L669.713 558.033" stroke="black" stroke-width="2.2" stroke-miterlimit="10"/>
<path d="M637.507 544.373L646.06 570.84" stroke="black" stroke-width="2.2" stroke-miterlimit="10"/>
<path d="M595.347 549.067L578.58 579.28" stroke="black" stroke-width="2.2" stroke-miterlimit="10"/>
<path d="M541.9 546.653L566.907 555.067" stroke="black" stroke-width="2.2" stroke-miterlimit="10"/>
<path d="M566.907 555.067L596.214 542.273" stroke="black" stroke-width="2.2" stroke-miterlimit="10"/>
<path d="M228.027 569.407L253.481 568.773" stroke="black" stroke-width="0.68" stroke-miterlimit="10"/>
<path d="M249.986 450.82L254 482.367" stroke="black" stroke-width="0.68" stroke-miterlimit="10"/>
<path d="M254 482.367L267.307 477.173" stroke="black" stroke-width="0.68" stroke-miterlimit="10"/>
<path d="M287.206 390.68L302.679 420.42" stroke="black" stroke-width="0.68" stroke-miterlimit="10"/>
<path d="M276.08 423.74L294.327 449.453" stroke="black" stroke-width="0.68" stroke-miterlimit="10"/>
<path d="M376.74 332.093L381.487 381.813" stroke="black" stroke-width="0.68" stroke-miterlimit="10"/>
<path d="M430.607 286.987L430.301 295.613" stroke="black" stroke-width="0.68" stroke-miterlimit="10"/>
<path d="M518.767 291.4L529.04 283.293" stroke="black" stroke-width="0.68" stroke-miterlimit="10"/>
<path d="M573.034 281.58L570.527 291.113" stroke="black" stroke-width="0.68" stroke-miterlimit="10"/>
<path d="M608.486 298.22L605.066 305.567" stroke="black" stroke-width="0.68" stroke-miterlimit="10"/>
<path d="M644.5 313.167L625.533 317.647" stroke="black" stroke-width="0.68" stroke-miterlimit="10"/>
<path d="M694.193 346.393L684.479 356.34" stroke="black" stroke-width="0.68" stroke-miterlimit="10"/>
<path d="M738.08 378.62L734.667 385.967" stroke="black" stroke-width="0.68" stroke-miterlimit="10"/>
<path d="M727.5 371.52L722.873 381.407" stroke="black" stroke-width="0.68" stroke-miterlimit="10"/>
<path d="M776.439 470.787L777.786 520.78" stroke="black" stroke-width="0.68" stroke-miterlimit="10"/>
<path d="M637.5 702.193L648.52 705.193" stroke="black" stroke-width="0.68" stroke-miterlimit="10"/>
<path d="M637.5 702.193L626.206 717.867" stroke="black" stroke-width="0.68" stroke-miterlimit="10"/>
<path d="M609.514 693.847L626.207 717.867" stroke="black" stroke-width="0.68" stroke-miterlimit="10"/>
<path d="M771.133 548.273L764.939 589.12" stroke="black" stroke-width="0.68" stroke-miterlimit="10"/>
<path d="M758.181 611.153L719.407 653.84" stroke="black" stroke-width="0.68" stroke-miterlimit="10"/>
<path d="M505.174 685.287L523.627 685.127" stroke="black" stroke-width="0.68" stroke-miterlimit="10"/>
<path d="M483.38 637.853L489.607 634.76" stroke="black" stroke-width="0.68" stroke-miterlimit="10"/>
<path d="M498.047 653.873L506.087 662.947" stroke="black" stroke-width="0.68" stroke-miterlimit="10"/>
<path d="M506.086 662.947L523.626 685.127" stroke="black" stroke-width="0.68" stroke-miterlimit="10"/>
<path d="M253.479 568.773L279.186 581.427" stroke="black" stroke-width="0.68" stroke-miterlimit="10"/>
<path d="M279.187 581.427L392.96 607.907" stroke="black" stroke-width="0.68" stroke-miterlimit="10"/>
<path d="M333.527 620.473L392.961 607.907" stroke="black" stroke-width="0.68" stroke-miterlimit="10"/>
<path d="M333.527 620.473L279.187 581.427" stroke="black" stroke-width="0.68" stroke-miterlimit="10"/>
<path d="M277.206 502.44L354.219 553.353" stroke="black" stroke-width="0.68" stroke-miterlimit="10"/>
<path d="M390.554 608.04L457.267 569.613" stroke="black" stroke-width="0.68" stroke-miterlimit="10"/>
<path d="M352.946 552.92L390.553 608.04" stroke="black" stroke-width="0.68" stroke-miterlimit="10"/>
<path d="M294.326 449.453L375.186 538.7" stroke="black" stroke-width="0.68" stroke-miterlimit="10"/>
<path d="M375.186 538.7L354.22 553.353" stroke="black" stroke-width="0.68" stroke-miterlimit="10"/>
<path d="M375.187 538.7L455.02 563.667" stroke="black" stroke-width="0.68" stroke-miterlimit="10"/>
<path d="M381.486 381.813L437.146 480.747" stroke="black" stroke-width="0.68" stroke-miterlimit="10"/>
<path d="M430.301 295.613L462.487 419.44" stroke="black" stroke-width="0.68" stroke-miterlimit="10"/>
<path d="M462.486 419.44L486.28 459.527" stroke="black" stroke-width="0.68" stroke-miterlimit="10"/>
<path d="M484.773 312.52L494.78 401.993" stroke="black" stroke-width="0.68" stroke-miterlimit="10"/>
<path d="M374.479 537.993L459.54 512.347" stroke="black" stroke-width="0.68" stroke-miterlimit="10"/>
<path d="M302.68 420.42L376.46 537.713" stroke="black" stroke-width="0.68" stroke-miterlimit="10"/>
<path d="M272.766 551.433L234.253 514.42" stroke="black" stroke-width="0.68" stroke-miterlimit="10"/>
<path d="M292.28 448.527L254.287 481.52" stroke="black" stroke-width="0.68" stroke-miterlimit="10"/>
<path d="M254.287 481.52L273.04 552.707" stroke="black" stroke-width="0.68" stroke-miterlimit="10"/>
<path d="M715 364.48L604.5 409.647" stroke="black" stroke-width="0.68" stroke-miterlimit="10"/>
<path d="M627.52 317.367L589.047 371.42" stroke="black" stroke-width="0.68" stroke-miterlimit="10"/>
<path d="M589.047 371.42L572.4 408.287" stroke="black" stroke-width="0.68" stroke-miterlimit="10"/>
<path d="M518.767 291.4L531.193 426.987" stroke="black" stroke-width="0.68" stroke-miterlimit="10"/>
<path d="M670.28 453.953L682.04 433.02" stroke="black" stroke-width="0.68" stroke-miterlimit="10"/>
<path d="M771.134 548.273L713.027 505.013" stroke="black" stroke-width="0.68" stroke-miterlimit="10"/>
<path d="M713.027 505.013L686.521 515.087" stroke="black" stroke-width="0.68" stroke-miterlimit="10"/>
<path d="M682.8 530.353L737.1 620.693" stroke="black" stroke-width="0.68" stroke-miterlimit="10"/>
<path d="M682.8 530.353L713.54 663.373" stroke="black" stroke-width="0.68" stroke-miterlimit="10"/>
<path d="M633.86 584.667L640.414 605.153" stroke="black" stroke-width="0.68" stroke-miterlimit="10"/>
<path d="M574.687 707.96L524.033 691.633" stroke="black" stroke-width="0.68" stroke-miterlimit="10"/>
<path d="M556.307 680.547L564.273 715.787" stroke="black" stroke-width="0.68" stroke-miterlimit="10"/>
<path d="M303.946 420.847L425.06 502.64" stroke="black" stroke-width="0.68" stroke-miterlimit="10"/>
<path d="M317.507 376.333L352.434 377.707" stroke="black" stroke-width="0.68" stroke-miterlimit="10"/>
<path d="M352.433 377.707L346.453 340.773" stroke="black" stroke-width="0.68" stroke-miterlimit="10"/>
<path d="M272.767 551.433L354.22 553.353" stroke="black" stroke-width="0.68" stroke-miterlimit="10"/>
<path d="M430.301 295.613L494.781 401.993" stroke="black" stroke-width="0.68" stroke-miterlimit="10"/>
<path d="M395.16 345.367L415.293 352.14" stroke="black" stroke-width="0.68" stroke-miterlimit="10"/>
<path d="M437.146 480.747L472.893 492.3" stroke="black" stroke-width="0.68" stroke-miterlimit="10"/>
<path d="M472.893 492.3L448.939 459.707" stroke="black" stroke-width="0.68" stroke-miterlimit="10"/>
<path d="M448.939 459.707L486.279 459.527" stroke="black" stroke-width="0.68" stroke-miterlimit="10"/>
<path d="M518.414 292.46L558.067 427.06" stroke="black" stroke-width="0.68" stroke-miterlimit="10"/>
<path d="M625.533 319.053L604.5 409.647" stroke="black" stroke-width="0.68" stroke-miterlimit="10"/>
<path d="M625.533 319.053L654.02 350.813" stroke="black" stroke-width="0.68" stroke-miterlimit="10"/>
<path d="M715 364.48L667.753 419.72" stroke="black" stroke-width="0.68" stroke-miterlimit="10"/>
<path d="M667.753 419.72L682.04 433.02" stroke="black" stroke-width="0.68" stroke-miterlimit="10"/>
<path d="M682.04 433.02L745.827 416.967" stroke="black" stroke-width="0.68" stroke-miterlimit="10"/>
<path d="M703.18 471.153L776.44 470.787" stroke="black" stroke-width="0.68" stroke-miterlimit="10"/>
<path d="M768.46 516.94L771.133 548.273" stroke="black" stroke-width="0.68" stroke-miterlimit="10"/>
<path d="M713.42 515.413L771.133 548.273" stroke="black" stroke-width="0.68" stroke-miterlimit="10"/>
<path d="M682.8 530.353L666.86 669.607" stroke="black" stroke-width="0.68" stroke-miterlimit="10"/>
<path d="M640.414 605.153L666.287 606.073" stroke="black" stroke-width="0.68" stroke-miterlimit="10"/>
<path d="M601.134 618.833L633.86 584.667" stroke="black" stroke-width="0.68" stroke-miterlimit="10"/>
<path d="M640.413 605.153L556.307 680.547" stroke="black" stroke-width="0.68" stroke-miterlimit="10"/>
<path d="M563.194 606.427L515.434 656.887" stroke="black" stroke-width="0.68" stroke-miterlimit="10"/>
<path d="M563.193 606.427L597.347 593.613" stroke="black" stroke-width="0.68" stroke-miterlimit="10"/>
<path d="M469.007 618.86L561.62 574.993" stroke="black" stroke-width="0.68" stroke-miterlimit="10"/>
<path d="M527.747 576.1L563.194 606.427" stroke="black" stroke-width="0.68" stroke-miterlimit="10"/>
<path d="M527.747 576.1L465.573 584.207" stroke="black" stroke-width="0.68" stroke-miterlimit="10"/>
<path d="M459.54 512.347L498.48 548.093" stroke="black" stroke-width="0.68" stroke-miterlimit="10"/>
<path d="M498.479 548.093L541.899 546.653" stroke="black" stroke-width="0.68" stroke-miterlimit="10"/>
<path d="M464.84 540.08L498.48 548.093" stroke="black" stroke-width="0.68" stroke-miterlimit="10"/>
<path d="M478.979 489.633L498.479 548.093" stroke="black" stroke-width="0.68" stroke-miterlimit="10"/>
<path d="M498.479 548.093L527.746 576.1" stroke="black" stroke-width="0.68" stroke-miterlimit="10"/>
<path d="M563.193 606.427L556.307 680.547" stroke="black" stroke-width="0.68" stroke-miterlimit="10"/>
<path d="M604.5 409.647L608.18 460.427" stroke="black" stroke-width="0.68" stroke-miterlimit="10"/>
<path d="M669.386 470.64L637.486 446.227" stroke="black" stroke-width="0.68" stroke-miterlimit="10"/>
<path d="M660.073 512.327L673.447 535.7" stroke="black" stroke-width="0.68" stroke-miterlimit="10"/>
<path d="M604.993 589.113L637.506 544.373" stroke="black" stroke-width="0.68" stroke-miterlimit="10"/>
<path d="M566.907 555.067L578.434 581.12" stroke="black" stroke-width="0.68" stroke-miterlimit="10"/>
<path d="M544.547 521.947L561.6 529.1" stroke="black" stroke-width="0.68" stroke-miterlimit="10"/>
<path d="M561.6 529.1L579.406 534.74" stroke="black" stroke-width="0.68" stroke-miterlimit="10"/>
<path d="M582.033 465.2L572.847 491.48" stroke="black" stroke-width="0.68" stroke-miterlimit="10"/>
<path d="M572.847 491.48L575.66 509.407" stroke="black" stroke-width="0.68" stroke-miterlimit="10"/>
<path d="M572.846 491.48L551.333 483.887" stroke="black" stroke-width="0.68" stroke-miterlimit="10"/>
<path d="M607.294 459.54L596.86 474.787" stroke="black" stroke-width="0.68" stroke-miterlimit="10"/>
<path d="M596.86 474.787L590.566 487.533" stroke="black" stroke-width="0.68" stroke-miterlimit="10"/>
<path d="M620.561 483.933L637.901 475.853" stroke="black" stroke-width="0.68" stroke-miterlimit="10"/>
<path d="M636.187 510.427L647.487 513.287" stroke="black" stroke-width="0.68" stroke-miterlimit="10"/>
<path d="M623.833 528.92L636.44 544.367" stroke="black" stroke-width="0.68" stroke-miterlimit="10"/>
<path d="M595.4 542.24L615.62 532.287" stroke="black" stroke-width="0.68" stroke-miterlimit="10"/>
<path d="M596.886 503.813L590.566 487.533" stroke="black" stroke-width="0.68" stroke-miterlimit="10"/>
<path d="M745.826 416.967L703.18 471.153" stroke="black" stroke-width="0.68" stroke-miterlimit="10"/>
<path d="M640.413 605.153L637.5 702.193" stroke="black" stroke-width="0.68" stroke-miterlimit="10"/>
<path d="M224.333 541.28C223.992 542.294 223.357 543.185 222.509 543.838C221.662 544.492 220.639 544.88 219.571 544.953C218.503 545.025 217.438 544.78 216.509 544.247C215.581 543.714 214.831 542.918 214.355 541.959C213.879 541.001 213.698 539.922 213.834 538.861C213.971 537.799 214.419 536.802 215.123 535.995C215.826 535.188 216.753 534.608 217.786 534.327C218.819 534.047 219.912 534.079 220.927 534.42C222.288 534.879 223.411 535.859 224.049 537.145C224.688 538.431 224.79 539.919 224.333 541.28Z" fill="black"/>
<path d="M271.106 604.18C270.766 605.196 270.133 606.088 269.286 606.744C268.439 607.4 267.417 607.79 266.348 607.864C265.28 607.938 264.213 607.694 263.283 607.162C262.354 606.63 261.603 605.834 261.125 604.875C260.648 603.916 260.466 602.837 260.603 601.775C260.739 600.712 261.187 599.714 261.891 598.907C262.595 598.099 263.523 597.519 264.557 597.239C265.59 596.959 266.684 596.991 267.699 597.333C269.057 597.792 270.178 598.77 270.816 600.053C271.454 601.336 271.559 602.82 271.106 604.18Z" fill="black"/>
<path d="M277.9 553.16C277.558 554.174 276.923 555.065 276.074 555.718C275.226 556.371 274.204 556.759 273.135 556.831C272.067 556.903 271.002 556.657 270.073 556.123C269.145 555.59 268.396 554.793 267.92 553.834C267.445 552.874 267.265 551.796 267.402 550.734C267.54 549.672 267.989 548.675 268.694 547.869C269.398 547.062 270.325 546.483 271.359 546.204C272.392 545.924 273.486 545.958 274.5 546.3C275.174 546.527 275.796 546.885 276.332 547.352C276.867 547.82 277.305 548.389 277.621 549.026C277.937 549.663 278.124 550.356 278.172 551.065C278.22 551.774 278.127 552.486 277.9 553.16Z" fill="black"/>
<path d="M282.34 506.087C281.996 507.1 281.36 507.99 280.512 508.642C279.663 509.294 278.64 509.68 277.573 509.752C276.505 509.823 275.44 509.576 274.512 509.042C273.584 508.508 272.836 507.711 272.361 506.752C271.886 505.793 271.706 504.715 271.844 503.654C271.982 502.592 272.431 501.596 273.135 500.789C273.839 499.983 274.766 499.404 275.799 499.125C276.832 498.845 277.925 498.878 278.939 499.22C279.614 499.447 280.237 499.805 280.773 500.273C281.309 500.741 281.748 501.31 282.063 501.948C282.379 502.586 282.566 503.28 282.614 503.99C282.661 504.7 282.568 505.413 282.34 506.087Z" fill="black"/>
<path d="M272.44 480.073C272.098 481.088 271.463 481.978 270.616 482.632C269.768 483.285 268.746 483.673 267.678 483.746C266.61 483.819 265.544 483.573 264.616 483.04C263.687 482.507 262.938 481.711 262.461 480.753C261.985 479.794 261.804 478.716 261.941 477.654C262.077 476.592 262.526 475.595 263.229 474.788C263.932 473.981 264.859 473.401 265.892 473.121C266.925 472.84 268.018 472.873 269.033 473.213C269.707 473.44 270.331 473.797 270.867 474.264C271.403 474.732 271.842 475.3 272.158 475.937C272.475 476.574 272.662 477.268 272.711 477.977C272.759 478.687 272.667 479.399 272.44 480.073Z" fill="black"/>
<path d="M309.079 422.153C308.737 423.167 308.101 424.056 307.253 424.709C306.405 425.362 305.383 425.748 304.315 425.82C303.247 425.892 302.182 425.646 301.254 425.113C300.327 424.58 299.578 423.783 299.102 422.825C298.627 421.866 298.446 420.788 298.583 419.727C298.719 418.666 299.168 417.669 299.871 416.862C300.574 416.055 301.5 415.475 302.533 415.195C303.566 414.914 304.658 414.946 305.673 415.287C306.347 415.514 306.971 415.872 307.507 416.34C308.043 416.808 308.482 417.377 308.798 418.014C309.115 418.652 309.302 419.346 309.351 420.056C309.399 420.766 309.307 421.479 309.079 422.153Z" fill="black"/>
<path d="M358.08 379.433C357.738 380.448 357.102 381.338 356.254 381.991C355.406 382.645 354.383 383.032 353.315 383.104C352.247 383.176 351.181 382.93 350.253 382.396C349.325 381.863 348.576 381.066 348.1 380.107C347.625 379.148 347.444 378.069 347.582 377.007C347.72 375.946 348.169 374.948 348.873 374.142C349.577 373.336 350.505 372.756 351.539 372.477C352.572 372.198 353.665 372.231 354.68 372.573C355.354 372.8 355.976 373.158 356.511 373.626C357.047 374.093 357.485 374.662 357.801 375.299C358.116 375.936 358.304 376.629 358.351 377.338C358.399 378.048 358.307 378.76 358.08 379.433Z" fill="black"/>
<path d="M386.62 383.14C386.278 384.154 385.643 385.045 384.795 385.698C383.948 386.352 382.925 386.74 381.857 386.812C380.789 386.885 379.724 386.64 378.795 386.107C377.867 385.574 377.117 384.778 376.641 383.819C376.165 382.861 375.984 381.782 376.12 380.721C376.257 379.659 376.705 378.662 377.409 377.855C378.112 377.048 379.039 376.467 380.072 376.187C381.105 375.907 382.198 375.939 383.213 376.28C383.887 376.506 384.51 376.864 385.046 377.331C385.583 377.798 386.022 378.367 386.338 379.004C386.654 379.641 386.842 380.334 386.89 381.044C386.939 381.754 386.847 382.466 386.62 383.14Z" fill="black"/>
<path d="M489.9 314.247C489.558 315.261 488.923 316.151 488.074 316.805C487.226 317.458 486.204 317.845 485.135 317.917C484.067 317.99 483.002 317.743 482.073 317.21C481.145 316.676 480.396 315.88 479.92 314.92C479.445 313.961 479.265 312.882 479.402 311.821C479.54 310.759 479.989 309.762 480.694 308.955C481.398 308.149 482.325 307.57 483.359 307.29C484.392 307.011 485.486 307.045 486.5 307.387C487.174 307.614 487.796 307.971 488.332 308.439C488.867 308.907 489.305 309.475 489.621 310.112C489.937 310.749 490.124 311.442 490.172 312.152C490.22 312.861 490.127 313.573 489.9 314.247Z" fill="black"/>
<path d="M292.34 392.413C291.997 393.429 291.362 394.321 290.513 394.975C289.664 395.63 288.64 396.018 287.571 396.091C286.501 396.163 285.434 395.917 284.504 395.384C283.575 394.85 282.824 394.052 282.348 393.092C281.871 392.132 281.691 391.052 281.828 389.989C281.965 388.926 282.415 387.927 283.12 387.119C283.825 386.312 284.753 385.731 285.788 385.451C286.823 385.171 287.917 385.205 288.933 385.547C289.608 385.774 290.231 386.132 290.767 386.6C291.303 387.068 291.742 387.637 292.059 388.274C292.375 388.912 292.562 389.606 292.611 390.316C292.659 391.026 292.567 391.739 292.34 392.413Z" fill="black"/>
<path d="M254.667 453.827C254.324 454.843 253.688 455.734 252.839 456.388C251.99 457.043 250.965 457.43 249.895 457.502C248.826 457.574 247.759 457.327 246.829 456.793C245.9 456.259 245.15 455.46 244.674 454.5C244.198 453.539 244.018 452.458 244.157 451.395C244.295 450.332 244.746 449.334 245.451 448.527C246.157 447.72 247.086 447.14 248.122 446.861C249.157 446.582 250.251 446.617 251.267 446.96C251.942 447.187 252.565 447.545 253.101 448.013C253.637 448.481 254.075 449.051 254.391 449.688C254.707 450.326 254.894 451.02 254.941 451.73C254.989 452.44 254.895 453.153 254.667 453.827Z" fill="black"/>
<path d="M351.58 342.507C351.238 343.521 350.602 344.411 349.754 345.065C348.906 345.718 347.883 346.105 346.815 346.177C345.747 346.249 344.681 346.003 343.753 345.47C342.825 344.936 342.076 344.14 341.6 343.18C341.125 342.221 340.944 341.142 341.082 340.081C341.22 339.019 341.669 338.022 342.373 337.215C343.077 336.409 344.005 335.83 345.039 335.55C346.072 335.271 347.165 335.305 348.18 335.647C348.854 335.874 349.476 336.231 350.011 336.699C350.547 337.167 350.985 337.735 351.301 338.372C351.616 339.009 351.804 339.702 351.852 340.412C351.899 341.121 351.807 341.833 351.58 342.507Z" fill="black"/>
<path d="M435.333 289.087C434.992 290.101 434.357 290.991 433.509 291.645C432.662 292.299 431.639 292.687 430.571 292.759C429.503 292.832 428.438 292.586 427.509 292.054C426.581 291.521 425.831 290.725 425.355 289.766C424.879 288.807 424.698 287.729 424.834 286.667C424.971 285.606 425.419 284.608 426.123 283.801C426.826 282.995 427.753 282.414 428.786 282.134C429.819 281.854 430.912 281.886 431.927 282.227C432.601 282.453 433.224 282.81 433.76 283.278C434.297 283.745 434.735 284.314 435.052 284.951C435.368 285.588 435.556 286.281 435.604 286.991C435.653 287.7 435.561 288.413 435.333 289.087Z" fill="black"/>
<path d="M534.174 285.027C533.831 286.041 533.196 286.931 532.348 287.585C531.5 288.238 530.477 288.625 529.409 288.697C528.341 288.77 527.275 288.523 526.347 287.99C525.419 287.456 524.669 286.66 524.194 285.7C523.718 284.741 523.538 283.662 523.676 282.601C523.813 281.539 524.263 280.542 524.967 279.735C525.671 278.929 526.599 278.35 527.632 278.07C528.666 277.791 529.759 277.825 530.774 278.167C531.447 278.394 532.07 278.751 532.605 279.219C533.141 279.687 533.579 280.255 533.895 280.892C534.21 281.529 534.397 282.222 534.445 282.932C534.493 283.641 534.401 284.353 534.174 285.027Z" fill="black"/>
<path d="M578.16 284C577.818 285.014 577.182 285.905 576.334 286.558C575.486 287.211 574.463 287.599 573.395 287.671C572.327 287.743 571.261 287.497 570.333 286.963C569.405 286.43 568.656 285.633 568.18 284.674C567.705 283.714 567.524 282.636 567.662 281.574C567.8 280.512 568.249 279.515 568.953 278.709C569.658 277.902 570.585 277.323 571.619 277.044C572.652 276.764 573.745 276.798 574.76 277.14C575.434 277.367 576.056 277.725 576.591 278.192C577.127 278.66 577.565 279.229 577.881 279.866C578.197 280.503 578.384 281.196 578.432 281.905C578.479 282.614 578.387 283.326 578.16 284Z" fill="black"/>
<path d="M634.36 298.24C634.018 299.254 633.382 300.145 632.534 300.798C631.686 301.451 630.663 301.839 629.595 301.911C628.527 301.983 627.462 301.737 626.533 301.203C625.605 300.67 624.856 299.873 624.38 298.914C623.905 297.954 623.725 296.876 623.862 295.814C624 294.752 624.449 293.755 625.153 292.949C625.858 292.142 626.785 291.563 627.819 291.284C628.852 291.004 629.946 291.038 630.96 291.38C631.634 291.607 632.256 291.965 632.792 292.432C633.327 292.9 633.765 293.469 634.081 294.106C634.397 294.743 634.584 295.436 634.632 296.145C634.68 296.854 634.587 297.566 634.36 298.24Z" fill="black"/>
<path d="M632.187 320.58C631.845 321.594 631.21 322.485 630.363 323.138C629.515 323.792 628.493 324.18 627.425 324.253C626.357 324.325 625.291 324.08 624.363 323.547C623.434 323.014 622.685 322.218 622.209 321.259C621.732 320.301 621.551 319.222 621.688 318.161C621.824 317.099 622.273 316.102 622.976 315.295C623.68 314.488 624.606 313.908 625.639 313.627C626.673 313.347 627.766 313.379 628.78 313.72C629.455 313.946 630.078 314.304 630.614 314.771C631.15 315.238 631.589 315.807 631.905 316.444C632.222 317.081 632.409 317.774 632.458 318.484C632.506 319.194 632.414 319.906 632.187 320.58Z" fill="black"/>
<path d="M718.553 366.213C718.211 367.228 717.576 368.118 716.728 368.771C715.88 369.425 714.857 369.812 713.789 369.884C712.72 369.956 711.655 369.71 710.727 369.176C709.798 368.643 709.049 367.846 708.574 366.887C708.098 365.928 707.918 364.849 708.056 363.787C708.193 362.726 708.643 361.728 709.347 360.922C710.051 360.116 710.979 359.536 712.012 359.257C713.046 358.978 714.139 359.011 715.153 359.353C715.827 359.58 716.449 359.938 716.985 360.406C717.52 360.873 717.959 361.442 718.274 362.079C718.59 362.716 718.777 363.409 718.825 364.118C718.873 364.828 718.781 365.54 718.553 366.213Z" fill="black"/>
<path d="M750.96 418.7C750.616 419.714 749.98 420.603 749.132 421.255C748.283 421.908 747.261 422.294 746.193 422.365C745.125 422.436 744.06 422.189 743.132 421.656C742.205 421.122 741.456 420.325 740.981 419.366C740.506 418.407 740.326 417.328 740.464 416.267C740.602 415.206 741.051 414.209 741.755 413.403C742.459 412.597 743.386 412.017 744.419 411.738C745.453 411.459 746.545 411.492 747.56 411.833C748.234 412.06 748.857 412.418 749.393 412.886C749.929 413.355 750.368 413.924 750.684 414.562C750.999 415.199 751.186 415.893 751.234 416.603C751.281 417.313 751.188 418.026 750.96 418.7Z" fill="black"/>
<path d="M537.073 428.967C536.731 429.981 536.095 430.871 535.247 431.525C534.399 432.178 533.376 432.565 532.308 432.637C531.24 432.709 530.174 432.463 529.246 431.93C528.318 431.396 527.569 430.599 527.093 429.64C526.618 428.681 526.438 427.602 526.575 426.541C526.713 425.479 527.162 424.482 527.866 423.675C528.571 422.869 529.498 422.29 530.532 422.01C531.565 421.731 532.658 421.765 533.673 422.107C534.347 422.334 534.969 422.691 535.505 423.159C536.04 423.627 536.478 424.195 536.794 424.832C537.11 425.469 537.297 426.162 537.345 426.872C537.393 427.581 537.3 428.293 537.073 428.967Z" fill="black"/>
<path d="M589.827 413.28C589.485 414.294 588.849 415.185 588.001 415.838C587.153 416.491 586.13 416.879 585.062 416.951C583.994 417.023 582.928 416.777 582 416.243C581.072 415.71 580.323 414.913 579.847 413.954C579.372 412.994 579.191 411.916 579.329 410.854C579.467 409.792 579.916 408.795 580.62 407.989C581.325 407.182 582.252 406.603 583.286 406.324C584.319 406.044 585.412 406.078 586.427 406.42C587.101 406.647 587.723 407.005 588.258 407.472C588.794 407.94 589.232 408.509 589.548 409.146C589.863 409.783 590.051 410.476 590.098 411.185C590.146 411.894 590.054 412.606 589.827 413.28Z" fill="black"/>
<path d="M675.146 455.94C674.804 456.954 674.169 457.845 673.321 458.498C672.472 459.151 671.45 459.539 670.381 459.611C669.313 459.683 668.248 459.437 667.319 458.903C666.391 458.37 665.642 457.573 665.167 456.614C664.691 455.654 664.511 454.576 664.648 453.514C664.786 452.452 665.235 451.455 665.94 450.649C666.644 449.842 667.571 449.263 668.605 448.984C669.639 448.705 670.732 448.738 671.746 449.08C672.42 449.307 673.042 449.665 673.578 450.133C674.113 450.6 674.551 451.169 674.867 451.806C675.183 452.443 675.37 453.136 675.418 453.845C675.466 454.555 675.373 455.266 675.146 455.94Z" fill="black"/>
<path d="M491.627 461.44C491.284 462.454 490.649 463.345 489.801 463.998C488.953 464.651 487.93 465.039 486.862 465.111C485.794 465.183 484.728 464.937 483.8 464.403C482.872 463.87 482.122 463.073 481.647 462.114C481.172 461.154 480.991 460.076 481.129 459.014C481.266 457.952 481.716 456.955 482.42 456.149C483.124 455.342 484.052 454.763 485.085 454.484C486.119 454.205 487.212 454.238 488.227 454.58C488.9 454.807 489.523 455.165 490.058 455.633C490.594 456.1 491.032 456.669 491.348 457.306C491.663 457.943 491.85 458.636 491.898 459.345C491.946 460.055 491.854 460.766 491.627 461.44Z" fill="black"/>
<path d="M464.667 514C464.323 515.014 463.687 515.903 462.839 516.555C461.99 517.208 460.968 517.594 459.9 517.665C458.832 517.736 457.767 517.489 456.839 516.955C455.912 516.422 455.163 515.625 454.688 514.666C454.213 513.707 454.033 512.628 454.171 511.567C454.309 510.506 454.758 509.509 455.462 508.703C456.166 507.897 457.093 507.317 458.126 507.038C459.16 506.759 460.252 506.792 461.267 507.133C461.941 507.36 462.564 507.718 463.1 508.186C463.636 508.655 464.075 509.224 464.39 509.862C464.706 510.499 464.893 511.193 464.941 511.903C464.988 512.613 464.895 513.326 464.667 514Z" fill="black"/>
<path d="M461.22 564.48C460.878 565.494 460.243 566.385 459.395 567.038C458.547 567.691 457.524 568.079 456.456 568.151C455.387 568.223 454.322 567.977 453.394 567.443C452.465 566.91 451.716 566.113 451.241 565.154C450.765 564.194 450.585 563.116 450.723 562.054C450.86 560.992 451.31 559.995 452.014 559.189C452.718 558.382 453.646 557.803 454.679 557.524C455.713 557.244 456.806 557.278 457.82 557.62C458.494 557.847 459.117 558.205 459.652 558.672C460.188 559.14 460.626 559.709 460.941 560.346C461.257 560.983 461.444 561.676 461.492 562.385C461.54 563.094 461.448 563.806 461.22 564.48Z" fill="black"/>
<path d="M471.334 586.86C470.99 587.874 470.354 588.763 469.506 589.415C468.657 590.068 467.635 590.454 466.567 590.525C465.499 590.596 464.434 590.349 463.506 589.816C462.579 589.282 461.83 588.485 461.355 587.526C460.88 586.567 460.7 585.488 460.838 584.427C460.976 583.366 461.425 582.369 462.129 581.563C462.833 580.757 463.76 580.177 464.793 579.898C465.827 579.619 466.919 579.652 467.934 579.993C468.608 580.221 469.231 580.578 469.767 581.047C470.303 581.515 470.742 582.084 471.057 582.722C471.373 583.36 471.56 584.053 471.608 584.763C471.655 585.474 471.562 586.186 471.334 586.86Z" fill="black"/>
<path d="M494.906 636.487C494.564 637.501 493.928 638.391 493.08 639.045C492.232 639.698 491.209 640.085 490.141 640.157C489.073 640.23 488.007 639.983 487.079 639.45C486.151 638.916 485.402 638.12 484.926 637.16C484.451 636.201 484.271 635.122 484.408 634.061C484.546 632.999 484.995 632.002 485.699 631.195C486.404 630.389 487.331 629.81 488.365 629.53C489.398 629.251 490.491 629.285 491.506 629.627C492.18 629.854 492.802 630.211 493.338 630.679C493.873 631.147 494.311 631.715 494.627 632.352C494.943 632.989 495.13 633.682 495.178 634.392C495.226 635.101 495.133 635.813 494.906 636.487Z" fill="black"/>
<path d="M528.613 686.433C528.271 687.448 527.635 688.338 526.787 688.991C525.939 689.645 524.916 690.032 523.848 690.104C522.78 690.176 521.714 689.93 520.786 689.396C519.858 688.863 519.109 688.066 518.633 687.107C518.158 686.148 517.978 685.069 518.115 684.007C518.253 682.945 518.702 681.948 519.406 681.142C520.111 680.336 521.038 679.756 522.072 679.477C523.105 679.198 524.199 679.231 525.213 679.573C525.887 679.8 526.509 680.158 527.045 680.626C527.58 681.093 528.018 681.662 528.334 682.299C528.65 682.936 528.837 683.629 528.885 684.338C528.933 685.048 528.84 685.76 528.613 686.433Z" fill="black"/>
<path d="M580.533 709.693C580.191 710.708 579.555 711.598 578.707 712.251C577.859 712.905 576.836 713.292 575.768 713.364C574.7 713.436 573.634 713.19 572.706 712.656C571.778 712.123 571.029 711.326 570.553 710.367C570.078 709.408 569.898 708.329 570.035 707.267C570.173 706.206 570.622 705.208 571.326 704.402C572.031 703.596 572.958 703.016 573.992 702.737C575.025 702.458 576.118 702.491 577.133 702.833C577.807 703.06 578.429 703.418 578.964 703.886C579.5 704.353 579.938 704.922 580.254 705.559C580.57 706.196 580.757 706.889 580.805 707.598C580.852 708.308 580.76 709.02 580.533 709.693Z" fill="black"/>
<path d="M632 719.453C631.657 720.467 631.022 721.356 630.174 722.009C629.326 722.662 628.303 723.048 627.236 723.12C626.168 723.192 625.103 722.946 624.175 722.413C623.248 721.88 622.499 721.083 622.023 720.125C621.547 719.166 621.367 718.088 621.503 717.027C621.64 715.966 622.088 714.969 622.792 714.162C623.495 713.356 624.421 712.775 625.454 712.495C626.486 712.215 627.579 712.246 628.594 712.587C629.268 712.814 629.891 713.172 630.428 713.64C630.964 714.108 631.403 714.677 631.719 715.315C632.035 715.952 632.223 716.646 632.271 717.356C632.32 718.066 632.227 718.779 632 719.453Z" fill="black"/>
<path d="M719.067 664.667C718.724 665.68 718.088 666.57 717.239 667.222C716.391 667.874 715.368 668.261 714.3 668.332C713.232 668.403 712.167 668.156 711.24 667.622C710.312 667.088 709.563 666.292 709.088 665.333C708.614 664.373 708.434 663.295 708.571 662.234C708.709 661.172 709.158 660.176 709.862 659.369C710.566 658.563 711.494 657.984 712.527 657.705C713.56 657.425 714.653 657.459 715.667 657.8C716.342 658.027 716.965 658.385 717.501 658.853C718.037 659.321 718.475 659.891 718.791 660.528C719.107 661.166 719.294 661.86 719.341 662.57C719.388 663.28 719.295 663.993 719.067 664.667Z" fill="black"/>
<path d="M769.94 589.867C769.598 590.881 768.963 591.771 768.114 592.425C767.266 593.078 766.244 593.465 765.175 593.537C764.107 593.61 763.042 593.363 762.113 592.83C761.185 592.296 760.436 591.5 759.961 590.54C759.485 589.581 759.305 588.502 759.442 587.441C759.58 586.379 760.029 585.382 760.734 584.575C761.438 583.769 762.365 583.19 763.399 582.91C764.432 582.631 765.526 582.665 766.54 583.007C767.214 583.234 767.836 583.591 768.372 584.059C768.907 584.527 769.345 585.095 769.661 585.732C769.977 586.369 770.164 587.062 770.212 587.772C770.26 588.481 770.167 589.193 769.94 589.867Z" fill="black"/>
<path d="M687.174 532.333C686.831 533.349 686.196 534.241 685.347 534.895C684.498 535.55 683.474 535.938 682.404 536.011C681.335 536.083 680.268 535.837 679.338 535.303C678.409 534.77 677.658 533.972 677.182 533.012C676.705 532.052 676.525 530.972 676.662 529.909C676.799 528.846 677.249 527.847 677.954 527.039C678.658 526.232 679.587 525.651 680.622 525.371C681.657 525.091 682.751 525.125 683.767 525.467C684.442 525.694 685.065 526.052 685.601 526.52C686.137 526.988 686.576 527.557 686.893 528.194C687.209 528.832 687.397 529.526 687.445 530.236C687.493 530.946 687.401 531.659 687.174 532.333Z" fill="black"/>
<path d="M651.193 572.573C650.851 573.588 650.216 574.478 649.367 575.131C648.519 575.785 647.496 576.172 646.428 576.244C645.36 576.316 644.295 576.07 643.366 575.536C642.438 575.003 641.689 574.206 641.213 573.247C640.738 572.288 640.558 571.209 640.695 570.147C640.833 569.086 641.282 568.088 641.986 567.282C642.691 566.476 643.618 565.896 644.652 565.617C645.685 565.338 646.779 565.371 647.793 565.713C648.467 565.94 649.089 566.298 649.625 566.766C650.16 567.233 650.598 567.802 650.914 568.439C651.23 569.076 651.417 569.769 651.465 570.478C651.513 571.188 651.42 571.9 651.193 572.573Z" fill="black"/>
<path d="M582.574 581.887C582.231 582.9 581.594 583.79 580.746 584.442C579.898 585.094 578.875 585.48 577.807 585.552C576.739 585.623 575.674 585.376 574.746 584.842C573.819 584.308 573.07 583.512 572.595 582.552C572.12 581.593 571.94 580.515 572.078 579.454C572.216 578.392 572.665 577.396 573.369 576.589C574.073 575.783 575 575.204 576.034 574.925C577.067 574.645 578.16 574.679 579.174 575.02C579.848 575.247 580.471 575.605 581.007 576.073C581.543 576.541 581.982 577.111 582.298 577.748C582.614 578.386 582.8 579.08 582.848 579.79C582.895 580.5 582.802 581.213 582.574 581.887Z" fill="black"/>
<path d="M548.127 547.893C547.784 548.909 547.148 549.801 546.299 550.455C545.45 551.109 544.425 551.497 543.355 551.569C542.286 551.641 541.219 551.394 540.289 550.86C539.36 550.325 538.61 549.527 538.134 548.566C537.658 547.605 537.478 546.525 537.617 545.462C537.755 544.399 538.205 543.4 538.911 542.593C539.617 541.786 540.546 541.207 541.581 540.928C542.617 540.649 543.711 540.683 544.727 541.027C545.402 541.254 546.025 541.612 546.561 542.08C547.097 542.548 547.535 543.117 547.851 543.755C548.167 544.393 548.354 545.087 548.401 545.797C548.449 546.507 548.355 547.219 548.127 547.893Z" fill="black"/>
<path d="M558.207 485.62C557.865 486.634 557.229 487.525 556.381 488.178C555.533 488.831 554.51 489.219 553.442 489.291C552.374 489.363 551.308 489.116 550.38 488.583C549.452 488.05 548.703 487.253 548.227 486.294C547.752 485.334 547.571 484.256 547.709 483.194C547.847 482.132 548.296 481.135 549 480.329C549.704 479.522 550.632 478.943 551.666 478.664C552.699 478.384 553.792 478.418 554.807 478.76C555.481 478.987 556.103 479.345 556.638 479.812C557.174 480.28 557.612 480.849 557.928 481.486C558.243 482.123 558.431 482.816 558.478 483.525C558.526 484.234 558.434 484.946 558.207 485.62Z" fill="black"/>
<path d="M612.747 462.393C612.403 463.407 611.767 464.296 610.919 464.949C610.07 465.601 609.048 465.987 607.98 466.058C606.912 466.13 605.847 465.883 604.919 465.349C603.992 464.815 603.243 464.018 602.768 463.059C602.293 462.1 602.113 461.022 602.251 459.96C602.389 458.899 602.838 457.902 603.542 457.096C604.246 456.29 605.173 455.711 606.206 455.431C607.24 455.152 608.332 455.185 609.347 455.527C610.021 455.754 610.644 456.112 611.18 456.58C611.716 457.048 612.155 457.617 612.471 458.255C612.786 458.893 612.973 459.587 613.021 460.297C613.068 461.007 612.975 461.719 612.747 462.393Z" fill="black"/>
<path d="M653.654 514C653.311 515.014 652.675 515.903 651.827 516.556C650.979 517.208 649.957 517.595 648.889 517.667C647.822 517.739 646.757 517.493 645.829 516.959C644.901 516.426 644.152 515.63 643.676 514.672C643.201 513.713 643.02 512.635 643.157 511.574C643.294 510.512 643.742 509.515 644.445 508.709C645.148 507.902 646.074 507.322 647.107 507.042C648.14 506.761 649.233 506.793 650.247 507.133C650.922 507.361 651.545 507.718 652.081 508.186C652.617 508.654 653.056 509.224 653.373 509.861C653.689 510.499 653.877 511.192 653.925 511.903C653.973 512.613 653.881 513.326 653.654 514Z" fill="black"/>
<path d="M598.86 551.68C598.518 552.694 597.883 553.585 597.034 554.238C596.186 554.891 595.163 555.279 594.095 555.351C593.027 555.423 591.962 555.177 591.033 554.643C590.105 554.11 589.356 553.313 588.88 552.354C588.405 551.394 588.225 550.316 588.362 549.254C588.5 548.192 588.949 547.195 589.653 546.389C590.358 545.582 591.285 545.003 592.319 544.724C593.352 544.445 594.446 544.478 595.46 544.82C596.134 545.047 596.756 545.405 597.292 545.872C597.827 546.34 598.265 546.909 598.581 547.546C598.897 548.183 599.084 548.876 599.132 549.585C599.18 550.294 599.087 551.006 598.86 551.68Z" fill="black"/>
<path d="M580.533 510.8C580.191 511.814 579.555 512.705 578.707 513.358C577.859 514.011 576.836 514.399 575.768 514.471C574.7 514.543 573.634 514.297 572.706 513.763C571.778 513.23 571.029 512.433 570.553 511.474C570.078 510.514 569.898 509.436 570.035 508.374C570.173 507.312 570.622 506.315 571.326 505.509C572.031 504.702 572.958 504.123 573.992 503.844C575.025 503.565 576.118 503.598 577.133 503.94C577.807 504.167 578.429 504.525 578.964 504.992C579.5 505.46 579.938 506.029 580.254 506.666C580.57 507.303 580.757 507.996 580.805 508.705C580.852 509.415 580.76 510.126 580.533 510.8Z" fill="black"/>
<path d="M625.694 485.667C625.352 486.681 624.717 487.571 623.87 488.225C623.022 488.879 621.999 489.266 620.931 489.339C619.864 489.412 618.798 489.166 617.87 488.634C616.941 488.101 616.191 487.305 615.715 486.346C615.239 485.387 615.058 484.309 615.195 483.247C615.331 482.186 615.78 481.188 616.483 480.381C617.186 479.574 618.113 478.994 619.146 478.714C620.179 478.434 621.272 478.466 622.287 478.807C622.961 479.033 623.585 479.39 624.121 479.858C624.657 480.325 625.096 480.894 625.412 481.531C625.729 482.168 625.916 482.861 625.965 483.571C626.013 484.28 625.921 484.993 625.694 485.667Z" fill="black"/>
<path d="M628.966 531.953C628.623 532.967 627.988 533.856 627.14 534.509C626.292 535.162 625.269 535.548 624.202 535.62C623.134 535.692 622.069 535.446 621.141 534.913C620.213 534.38 619.464 533.583 618.989 532.625C618.513 531.666 618.332 530.588 618.469 529.527C618.606 528.466 619.054 527.469 619.757 526.662C620.461 525.855 621.387 525.275 622.42 524.995C623.452 524.714 624.545 524.746 625.559 525.087C626.235 525.313 626.858 525.67 627.395 526.138C627.932 526.606 628.371 527.175 628.687 527.813C629.004 528.451 629.191 529.145 629.239 529.855C629.287 530.566 629.194 531.279 628.966 531.953Z" fill="black"/>
<path d="M599.893 520.593C599.551 521.608 598.916 522.498 598.068 523.151C597.22 523.805 596.197 524.192 595.129 524.264C594.06 524.336 592.995 524.09 592.067 523.556C591.138 523.023 590.389 522.226 589.914 521.267C589.438 520.308 589.258 519.229 589.395 518.167C589.533 517.105 589.982 516.108 590.687 515.302C591.391 514.496 592.319 513.916 593.352 513.637C594.386 513.358 595.479 513.391 596.493 513.733C597.167 513.96 597.789 514.318 598.325 514.786C598.86 515.253 599.299 515.822 599.614 516.459C599.93 517.096 600.117 517.789 600.165 518.498C600.213 519.208 600.121 519.92 599.893 520.593Z" fill="black"/>
<path d="M603.493 505.547C603.151 506.563 602.514 507.454 601.665 508.108C600.816 508.763 599.791 509.15 598.722 509.222C597.652 509.294 596.585 509.047 595.655 508.513C594.726 507.979 593.976 507.18 593.5 506.22C593.025 505.259 592.844 504.178 592.983 503.115C593.121 502.052 593.572 501.054 594.277 500.247C594.983 499.44 595.912 498.86 596.948 498.581C597.983 498.302 599.078 498.337 600.093 498.68C601.454 499.14 602.577 500.122 603.215 501.41C603.852 502.697 603.952 504.185 603.493 505.547Z" fill="black"/>
<path d="M618.16 502.76C617.818 503.774 617.182 504.665 616.334 505.318C615.486 505.971 614.463 506.359 613.395 506.431C612.327 506.503 611.261 506.257 610.333 505.723C609.405 505.19 608.656 504.393 608.18 503.434C607.705 502.474 607.524 501.396 607.662 500.334C607.8 499.272 608.249 498.275 608.953 497.469C609.658 496.662 610.585 496.083 611.619 495.804C612.652 495.524 613.745 495.558 614.76 495.9C615.434 496.127 616.056 496.485 616.591 496.952C617.127 497.42 617.565 497.989 617.881 498.626C618.197 499.263 618.384 499.956 618.432 500.665C618.479 501.374 618.387 502.086 618.16 502.76Z" fill="black"/>
<path d="M783.913 522.513C783.572 523.528 782.937 524.418 782.089 525.072C781.242 525.725 780.219 526.113 779.151 526.186C778.083 526.259 777.018 526.013 776.089 525.48C775.161 524.947 774.411 524.151 773.935 523.193C773.459 522.234 773.278 521.156 773.414 520.094C773.551 519.032 773.999 518.035 774.703 517.228C775.406 516.421 776.333 515.841 777.366 515.561C778.399 515.28 779.492 515.313 780.507 515.653C781.181 515.88 781.804 516.237 782.34 516.704C782.877 517.172 783.315 517.74 783.632 518.377C783.948 519.014 784.136 519.708 784.184 520.417C784.233 521.127 784.14 521.839 783.913 522.513Z" fill="black"/>
<path d="M781.573 472.887C781.231 473.903 780.595 474.794 779.746 475.449C778.897 476.103 777.873 476.491 776.804 476.564C775.734 476.637 774.667 476.391 773.738 475.857C772.808 475.323 772.058 474.526 771.581 473.565C771.105 472.605 770.924 471.525 771.061 470.462C771.199 469.399 771.648 468.4 772.353 467.593C773.058 466.785 773.986 466.205 775.021 465.925C776.056 465.645 777.15 465.678 778.166 466.02C778.841 466.247 779.464 466.605 780 467.073C780.537 467.541 780.975 468.11 781.292 468.748C781.608 469.385 781.796 470.079 781.844 470.789C781.892 471.499 781.8 472.212 781.573 472.887Z" fill="black"/>
</svg>
